<svg xmlns="http://www.w3.org/2000/svg" width="17" height="17" viewBox="0 0 17 17" fill="none"><path d="M8.0122 16.187C7.90973 16.187 7.84143 16.1187 7.84143 16.0162V9.04885C7.84143 8.94639 7.77312 8.87808 7.67066 8.87808H0.7033C0.600839 8.87808 0.532532 8.80977 0.532532 8.70731V7.51193C0.532532 7.40947 0.600839 7.34116 0.7033 7.34116H7.67066C7.77312 7.34116 7.84143 7.27285 7.84143 7.17039V0.254265C7.84143 0.151804 7.90973 0.0834961 8.0122 0.0834961L9.1905 0.0834961C9.29296 0.0834961 9.36127 0.151804 9.36127 0.254265V7.17039C9.36127 7.27285 9.42957 7.34116 9.53204 7.34116H16.4652C16.5677 7.34116 16.636 7.40947 16.636 7.51193V8.70731C16.636 8.80977 16.5677 8.87808 16.4652 8.87808H9.53204C9.42957 8.87808 9.36127 8.94639 9.36127 9.04885V16.0162C9.36127 16.1187 9.29296 16.187 9.1905 16.187H8.0122Z" fill="#A47035"></path></svg>