<svg xmlns="http://www.w3.org/2000/svg" width="18" height="21" viewBox="0 0 18 21" fill="none"><g clip-path="url(#clip0_2004_1002)"><path d="M15.7239 11.9057C15.7401 12.7669 15.2979 13.3975 14.4156 13.4173C13.1952 13.4455 12.5199 13.9215 12.0733 15.0165C11.668 16.0114 10.8464 16.2254 9.92943 15.6345C9.01246 15.0426 8.24507 15.0165 7.29017 15.5844C6.15426 16.2598 5.45515 16.0323 4.95765 14.814C4.56312 13.8484 3.97674 13.4611 2.91887 13.458C1.92711 13.4549 1.39818 12.8129 1.42961 11.8608C1.4372 11.6228 1.48164 11.3754 1.56293 11.151C1.82848 10.4192 1.57594 9.9056 0.941864 9.46194C0.0357373 8.82725 -0.203801 7.99421 0.292618 7.27183C0.496388 6.97536 0.779281 6.7123 1.07627 6.4983C1.62363 6.10266 1.79054 5.62351 1.57485 5.00552C1.51849 4.84267 1.47297 4.67251 1.45346 4.50235C1.32447 3.34049 1.63988 2.79975 3.10096 2.56904C3.27763 2.54086 3.45973 2.55339 3.63965 2.54503C4.161 2.52102 4.50242 2.2684 4.68235 1.79656C4.76906 1.57003 4.87094 1.34872 4.98475 1.13368C5.53103 0.113783 6.30383 -0.108569 7.34653 0.450963C7.48744 0.527168 7.63376 0.598154 7.76057 0.694193C8.32745 1.12219 8.87481 1.04808 9.44493 0.685842C9.72457 0.508378 10.0356 0.35388 10.3543 0.258885C11.1304 0.0292264 11.578 0.199383 11.9975 0.855998C12.1655 1.11906 12.3216 1.39883 12.4224 1.69008C12.6554 2.36131 13.1681 2.56696 13.839 2.56278C14.0167 2.56174 14.1978 2.58366 14.3712 2.6202C15.4681 2.85507 15.9786 3.47202 15.6643 4.49609C15.3467 5.53269 15.596 6.19661 16.4652 6.85844C17.3659 7.54429 17.3193 8.64874 16.3894 9.30013C15.5635 9.8795 15.2741 10.5079 15.6686 11.4224C15.7347 11.5748 15.7076 11.7637 15.7217 11.9047L15.7239 11.9057ZM14.2259 8.03284C14.2238 5.02535 11.6723 2.54712 8.60167 2.57113C5.42264 2.59514 2.92429 4.99716 2.9232 8.03179C2.92104 11.0716 5.4519 13.505 8.59733 13.4872C11.7233 13.4695 14.2281 11.0435 14.2259 8.03284Z" fill="#608E60"></path><path d="M3.43804 17.4156C2.68365 17.5147 2.01381 17.6316 1.33855 17.6776C1.08926 17.6943 0.708818 17.6108 0.606933 17.4469C0.511551 17.2934 0.643785 16.9312 0.786857 16.736C1.27027 16.0752 1.80354 15.4478 2.3173 14.8079C2.7411 14.2807 3.52908 14.3935 3.84883 14.9885C4.09162 15.4405 4.36259 15.8967 4.71268 16.2725C5.3099 16.9124 6.11306 17.045 7.10265 16.8498C6.23879 17.9302 5.46598 18.9136 4.66282 19.875C4.55444 20.0044 4.24987 20.1172 4.11763 20.0608C3.94746 19.9888 3.78488 19.7508 3.74911 19.5608C3.61796 18.8697 3.54209 18.1682 3.43695 17.4156H3.43804Z" fill="#608E60"></path><path d="M10.1056 16.9152C11.972 16.9299 12.6527 16.4914 13.3822 14.8734C13.5588 14.4819 14.4476 14.3253 14.7229 14.6594C15.3256 15.388 15.9163 16.126 16.4821 16.8808C16.5872 17.0217 16.6501 17.3349 16.5645 17.432C16.4311 17.5833 16.1472 17.7034 15.9391 17.6877C15.2107 17.6334 14.4877 17.5155 13.7149 17.4163C13.6141 18.1063 13.5448 18.7556 13.4136 19.3945C13.3637 19.6388 13.2207 19.9801 13.0321 20.047C12.8641 20.1065 12.5031 19.9029 12.3503 19.7202C11.5981 18.8256 10.886 17.8986 10.1056 16.9152Z" fill="#608E60"></path><path d="M8.68241 12.4621C6.21875 12.5477 4.07591 10.6176 3.96861 8.21554C3.8613 5.78951 5.89141 3.67978 8.40928 3.60045C10.8946 3.52215 13.0862 5.45129 13.1805 7.80111C13.2824 10.318 11.3011 12.3713 8.68241 12.4621ZM7.81748 9.25214C7.57685 8.9421 7.41319 8.63415 7.15847 8.4379C6.97747 8.29801 6.63062 8.20302 6.43119 8.27505C6.06484 8.40762 6.11903 8.74585 6.30979 9.01518C6.63279 9.47032 6.96771 9.92024 7.32539 10.3503C7.65056 10.7418 7.95946 10.7418 8.29005 10.3336C9.13656 9.29076 9.9679 8.23642 10.7895 7.17582C10.9878 6.92006 11.1255 6.59749 10.7613 6.36053C10.434 6.14653 10.1738 6.27284 9.94297 6.57244C9.26229 7.45454 8.55885 8.32098 7.81748 9.25214Z" fill="#608E60"></path></g><defs><clipPath id="clip0_2004_1002"><rect width="17.0777" height="19.9239" fill="white" transform="translate(0.0386963 0.151367)"></rect></clipPath></defs></svg>