<svg xmlns="http://www.w3.org/2000/svg" width="11" height="18" viewBox="0 0 11 18" fill="none"><path d="M2.35643 0.976074C1.30635 0.976074 0.452637 1.82874 0.452637 2.87882V15.3464C0.452637 16.3965 1.30635 17.2502 2.35643 17.2502H8.52564C9.57572 17.2502 10.4284 16.3965 10.4284 15.3464V2.87987C10.4284 1.82979 9.57467 0.977124 8.5246 0.977124H2.35748L2.35643 0.976074ZM2.35643 1.50111H8.52564C9.28485 1.50111 9.90335 2.11856 9.90335 2.87882V13.577H0.977676V2.87882C0.977676 2.11751 1.59617 1.50111 2.35643 1.50111ZM4.37363 3.09828V3.62332H6.49059V3.09828H4.37363ZM0.977676 14.1021H9.90335V15.3485C9.90335 16.1088 9.2859 16.7273 8.52564 16.7273H2.35538C1.98998 16.7267 1.63972 16.5812 1.38144 16.3228C1.12316 16.0643 0.977954 15.7139 0.977676 15.3485V14.1021Z" fill="#B28351" stroke="#608E60" stroke-width="0.483971"></path></svg>