<svg xmlns="http://www.w3.org/2000/svg" width="93" height="93" viewBox="0 0 93 93" fill="none"><path d="M15.917 59.4331L58 17.4407L89.9924 17.4407L15.917 91.5161L15.917 59.4331Z" fill="#0B6754"></path><path d="M31.6058 57.6429L30.396 58.8528C30.2174 58.7183 30.0332 58.6244 29.8436 58.571C29.6521 58.5158 29.4596 58.4983 29.2663 58.5185C29.0729 58.5388 28.8833 58.5959 28.6973 58.6898C28.5131 58.7819 28.34 58.9089 28.178 59.071C27.8852 59.3637 27.7029 59.6915 27.6311 60.0543C27.5574 60.4152 27.5989 60.7936 27.7554 61.1895C27.9101 61.5836 28.1835 61.9767 28.5757 62.369C28.979 62.7722 29.3777 63.0512 29.7717 63.2059C30.1677 63.3587 30.5442 63.3965 30.9015 63.3191C31.2587 63.2418 31.58 63.0604 31.8654 62.775C32.0257 62.6148 32.1527 62.4454 32.2466 62.2668C32.3424 62.0863 32.4031 61.9022 32.4289 61.7143C32.4529 61.5247 32.4409 61.3359 32.393 61.1481C32.347 60.9584 32.2623 60.7743 32.1389 60.5957L33.3542 59.3914C33.5826 59.6823 33.7547 60.011 33.8708 60.3775C33.9868 60.7402 34.0346 61.1214 34.0144 61.521C33.9941 61.9169 33.8947 62.3146 33.7161 62.7142C33.5375 63.1101 33.2668 63.4895 32.904 63.8522C32.3995 64.3568 31.8341 64.6938 31.2081 64.8632C30.5838 65.0307 29.9402 65.0132 29.2773 64.8107C28.6163 64.6063 27.9782 64.1966 27.3632 63.5815C26.7463 62.9647 26.3375 62.3238 26.1368 61.6591C25.9361 60.9943 25.9213 60.3498 26.0926 59.7256C26.262 59.0995 26.5953 58.5379 27.0925 58.0407C27.4202 57.7129 27.7701 57.4551 28.1421 57.2673C28.5159 57.0776 28.8998 56.9625 29.2939 56.922C29.6861 56.8797 30.0774 56.9174 30.4678 57.0353C30.86 57.1513 31.2394 57.3538 31.6058 57.6429ZM37.8842 58.8831C37.4551 59.3121 36.9929 59.592 36.4976 59.7228C36.0023 59.8498 35.506 59.8342 35.0088 59.6758C34.5098 59.5156 34.043 59.2182 33.6084 58.7836C33.1702 58.3454 32.8718 57.8777 32.7135 57.3805C32.5533 56.8815 32.5376 56.3852 32.6665 55.8917C32.7954 55.3945 33.0744 54.9314 33.5034 54.5023C33.9325 54.0733 34.3947 53.7952 34.89 53.6682C35.3854 53.5374 35.8826 53.5522 36.3816 53.7124C36.8788 53.8707 37.3465 54.169 37.7848 54.6073C38.2193 55.0419 38.5167 55.5087 38.6769 56.0077C38.8353 56.5049 38.85 57.0021 38.7211 57.4993C38.5922 57.9928 38.3132 58.454 37.8842 58.8831ZM36.9782 57.9661C37.1734 57.7709 37.2811 57.5527 37.3014 57.3114C37.3198 57.0684 37.2655 56.817 37.1384 56.5574C37.0132 56.2959 36.8272 56.0418 36.5805 55.795C36.3337 55.5483 36.0796 55.3623 35.8181 55.2371C35.5585 55.11 35.3071 55.0557 35.0641 55.0741C34.821 55.0925 34.6019 55.1993 34.4067 55.3945C34.2096 55.5915 34.1001 55.8134 34.078 56.0602C34.0577 56.3051 34.1102 56.5583 34.2354 56.8198C34.3625 57.0794 34.5494 57.3326 34.7961 57.5794C35.0429 57.8261 35.2961 58.013 35.5557 58.1401C35.8172 58.2653 36.0704 58.3178 36.3153 58.2975C36.5602 58.2736 36.7812 58.1631 36.9782 57.9661ZM40.4213 56.1803L36.1786 51.9376L37.3001 50.8162L38.0486 51.5647L38.0983 51.515C37.9381 51.178 37.8893 50.8346 37.9519 50.4848C38.0145 50.1349 38.1895 49.8163 38.4767 49.5291C38.7677 49.2381 39.0881 49.0632 39.438 49.0042C39.786 48.9435 40.1174 49.0024 40.4323 49.181L40.4765 49.1368C40.32 48.8072 40.2822 48.4564 40.3633 48.0845C40.4443 47.7088 40.6404 47.3654 40.9516 47.0542C41.3475 46.6583 41.795 46.4631 42.294 46.4686C42.793 46.4704 43.2727 46.7015 43.7331 47.1619L46.5864 50.0152L45.4125 51.1891L42.7912 48.5678C42.5555 48.3321 42.3161 48.218 42.073 48.2253C41.83 48.2327 41.6145 48.3303 41.4267 48.5181C41.2131 48.7317 41.1146 48.9665 41.1311 49.2225C41.1459 49.4766 41.2637 49.7141 41.4847 49.9351L44.0756 52.526L42.9348 53.6667L40.2887 51.0206C40.0806 50.8125 39.855 50.7066 39.612 50.703C39.3707 50.6974 39.1535 50.7913 38.9601 50.9847C38.8294 51.1154 38.7447 51.2664 38.706 51.4377C38.6673 51.6053 38.6765 51.7784 38.7336 51.957C38.7889 52.1337 38.8947 52.3004 39.0513 52.4569L41.5979 55.0036L40.4213 56.1803ZM48.8735 50.9101L43.0398 45.0764L44.1999 43.9163L44.9126 44.629L44.965 44.5765C44.9024 44.4108 44.861 44.2202 44.8407 44.0047C44.8205 43.7856 44.85 43.5573 44.9291 43.3197C45.0083 43.0785 45.1667 42.8391 45.4042 42.6016C45.7136 42.2922 46.08 42.0878 46.5036 41.9884C46.9252 41.8871 47.3764 41.9202 47.857 42.0878C48.3358 42.2535 48.8182 42.5795 49.3044 43.0656C49.7776 43.5388 50.1008 44.0149 50.2739 44.4936C50.447 44.9687 50.4866 45.4208 50.3926 45.8498C50.2987 46.2752 50.0906 46.649 49.7684 46.9713C49.5401 47.1996 49.308 47.3561 49.0723 47.4408C48.8385 47.5237 48.6138 47.5587 48.3984 47.5458C48.1811 47.5311 47.9868 47.4915 47.8156 47.427L47.7797 47.4629L50.0501 49.7334L48.8735 50.9101ZM46.313 46.0459C46.5652 46.2982 46.8203 46.4833 47.0781 46.6011C47.3359 46.719 47.5835 46.7641 47.8211 46.7365C48.0568 46.707 48.2695 46.5975 48.4591 46.4078C48.6507 46.2163 48.7602 46.0018 48.7878 45.7642C48.8136 45.5248 48.7667 45.2772 48.647 45.0212C48.5273 44.7616 48.3441 44.5084 48.0973 44.2616C47.8524 44.0167 47.6029 43.8353 47.3488 43.7175C47.0946 43.5996 46.8488 43.5545 46.6113 43.5821C46.3737 43.6097 46.1583 43.7202 45.9649 43.9136C45.7734 44.1051 45.662 44.3178 45.6307 44.5516C45.6013 44.7836 45.6445 45.0276 45.7605 45.2836C45.8765 45.5396 46.0607 45.7937 46.313 46.0459ZM47.4911 37.7968L53.1479 43.4536L51.9713 44.6303L46.3144 38.9734L47.4911 37.7968ZM55.8735 40.8938C55.4371 41.3302 54.9731 41.6174 54.4814 41.7555C53.9897 41.89 53.4962 41.8789 53.0009 41.7224C52.5037 41.564 52.0314 41.2611 51.5839 40.8137C51.1475 40.3772 50.8492 39.9095 50.689 39.4105C50.5288 38.9115 50.5104 38.4161 50.6337 37.9245C50.759 37.431 51.0297 36.9761 51.4458 36.56C51.7257 36.2801 52.0314 36.0646 52.3628 35.9136C52.6943 35.759 53.0396 35.6807 53.3986 35.6788C53.7596 35.6752 54.126 35.758 54.498 35.9274C54.8681 36.095 55.2336 36.3593 55.5945 36.7202L55.9177 37.0433L52.3352 40.6258L51.606 39.8966L54.0809 37.4218C53.9115 37.2523 53.7246 37.1391 53.5202 37.082C53.3158 37.0249 53.1114 37.0249 52.907 37.082C52.7026 37.1354 52.5148 37.2477 52.3435 37.419C52.1649 37.5976 52.048 37.7974 51.9927 38.0184C51.9375 38.2357 51.9402 38.452 52.001 38.6675C52.0599 38.8811 52.1723 39.0726 52.338 39.242L53.0313 39.9353C53.2412 40.1452 53.4613 40.2879 53.6914 40.3634C53.9234 40.4371 54.1527 40.4435 54.3792 40.3828C54.6057 40.322 54.8175 40.1931 55.0145 39.9961C55.1452 39.8653 55.2465 39.7272 55.3183 39.5817C55.3901 39.4363 55.4279 39.288 55.4316 39.137C55.4353 38.986 55.404 38.8369 55.3377 38.6896L56.4978 37.6731C56.704 37.9898 56.8191 38.3314 56.843 38.6979C56.867 39.0606 56.7988 39.4307 56.6386 39.8082C56.4784 40.1821 56.2234 40.5439 55.8735 40.8938ZM56.2865 31.8298L57.1704 32.7136L54.6154 35.2686L53.7315 34.3847L56.2865 31.8298ZM53.2951 32.7882L54.4718 31.6115L58.4272 35.5669C58.5358 35.6756 58.6371 35.7437 58.731 35.7713C58.8231 35.7971 58.9105 35.7925 58.9934 35.7575C59.0781 35.7207 59.1601 35.6627 59.2392 35.5835C59.2945 35.5283 59.3451 35.4684 59.3912 35.404C59.4353 35.3377 59.4694 35.287 59.4934 35.252L60.554 35.9426C60.5135 36.0199 60.4518 36.124 60.3689 36.2547C60.2879 36.3873 60.1738 36.5328 60.0264 36.6911C59.7539 36.9857 59.4676 37.1966 59.1674 37.3236C58.8691 37.4489 58.5699 37.4792 58.2697 37.4148C57.9696 37.3503 57.6814 37.1782 57.4052 36.8983L53.2951 32.7882ZM63.0165 33.7508C62.5875 34.1798 62.1253 34.4597 61.6299 34.5905C61.1346 34.7175 60.6383 34.7019 60.1411 34.5435C59.6421 34.3833 59.1753 34.0859 58.7407 33.6513C58.3025 33.2131 58.0042 32.7454 57.8458 32.2482C57.6856 31.7491 57.6699 31.2529 57.7988 30.7594C57.9277 30.2622 58.2067 29.7991 58.6358 29.37C59.0648 28.941 59.527 28.6629 60.0224 28.5359C60.5177 28.4051 61.0149 28.4198 61.5139 28.5801C62.0111 28.7384 62.4788 29.0367 62.9171 29.475C63.3516 29.9096 63.649 30.3764 63.8092 30.8754C63.9676 31.3726 63.9823 31.8698 63.8534 32.3669C63.7245 32.8604 63.4456 33.3217 63.0165 33.7508ZM62.1105 32.8337C62.3057 32.6385 62.4134 32.4203 62.4337 32.1791C62.4521 31.936 62.3978 31.6847 62.2707 31.4251C62.1455 31.1636 61.9595 30.9095 61.7128 30.6627C61.466 30.416 61.2119 30.23 60.9504 30.1048C60.6908 29.9777 60.4394 29.9234 60.1964 29.9418C59.9533 29.9602 59.7342 30.067 59.539 30.2622C59.3419 30.4592 59.2324 30.6811 59.2103 30.9279C59.19 31.1728 59.2425 31.426 59.3677 31.6875C59.4948 31.9471 59.6817 32.2003 59.9284 32.447C60.1752 32.6938 60.4284 32.8807 60.688 33.0078C60.9495 33.133 61.2027 33.1855 61.4476 33.1652C61.6925 33.1413 61.9135 33.0308 62.1105 32.8337Z" fill="#F2F2F2"></path></svg>