<svg xmlns="http://www.w3.org/2000/svg" width="15" height="17" viewBox="0 0 15 17" fill="none"><path d="M10.5315 0.086677C10.8434 0.105694 11.0839 0.366284 11.0756 0.676021V1.50678C13.5528 1.7411 14.82 3.076 14.82 5.47598V12.115C14.82 14.7848 13.2593 16.141 10.1879 16.141H4.63215C1.56076 16.141 0 14.7848 0 12.115V5.47598C0 3.87836 0.558436 2.73517 1.70395 2.06772L1.7843 2.02308C1.95035 1.94751 2.14511 1.95443 2.307 2.04607C2.49586 2.15297 2.60739 2.35673 2.5949 2.57205C2.5824 2.78736 2.44804 2.97708 2.24806 3.0618C1.48916 3.50203 1.13119 4.26889 1.13119 5.47598V5.68899H11.5768C11.8892 5.68899 12.1424 5.94014 12.1424 6.24994C12.1424 6.55973 11.8892 6.81088 11.5768 6.81088H1.13119V12.115C1.13119 14.1528 2.14783 14.9978 4.63215 15.012H10.1879C12.6364 15.012 13.6817 14.1457 13.6817 12.1079V5.46888C13.6817 3.69375 12.887 2.83458 11.0756 2.62867V3.16831C11.0339 3.45594 10.7799 3.66592 10.4871 3.65496C10.1943 3.644 9.95709 3.41564 9.93729 3.1257V0.626317L9.94776 0.537531C9.97108 0.421182 10.0312 0.314317 10.1205 0.233173C10.2322 0.131742 10.3803 0.0789712 10.5315 0.086677ZM10.8573 11.4826L10.9485 11.4883C11.1048 11.5074 11.2514 11.5773 11.3646 11.6885C11.5004 11.8218 11.5768 12.0035 11.5768 12.1931C11.5768 12.5852 11.2563 12.9031 10.8609 12.9031C10.4655 12.9031 10.1449 12.5852 10.1449 12.1931C10.1449 11.8009 10.4655 11.483 10.8609 11.483L10.8573 11.4826ZM7.42433 11.483L7.51414 11.4886C7.86715 11.5324 8.14028 11.8311 8.14028 12.1931C8.14028 12.5852 7.81974 12.9031 7.42433 12.9031C7.02893 12.9031 6.70839 12.5852 6.70839 12.1931C6.70839 11.8009 7.02893 11.483 7.42433 11.483ZM3.99153 11.4826L4.08258 11.4883C4.2389 11.5074 4.38551 11.5773 4.49869 11.6885C4.63451 11.8218 4.71091 12.0035 4.71091 12.1931C4.71091 12.5852 4.39037 12.9031 3.99496 12.9031C3.59956 12.9031 3.27902 12.5852 3.27902 12.1931C3.27902 11.8009 3.59956 11.483 3.99496 11.483L3.99153 11.4826ZM10.8573 8.60715L10.9485 8.61261C11.1048 8.63172 11.2514 8.70161 11.3646 8.81275C11.5004 8.94612 11.5768 9.12781 11.5768 9.31736C11.5768 9.70951 11.2563 10.0274 10.8609 10.0274C10.4655 10.0274 10.1449 9.70951 10.1449 9.31736C10.1449 8.92521 10.4655 8.60731 10.8609 8.60731L10.8573 8.60715ZM7.42433 8.60731L7.51414 8.61284C7.86715 8.65666 8.14028 8.95538 8.14028 9.31736C8.14028 9.70951 7.81974 10.0274 7.42433 10.0274C7.02893 10.0274 6.70839 9.70951 6.70839 9.31736C6.70839 8.92521 7.02893 8.60731 7.42433 8.60731ZM3.99153 8.60715L4.08258 8.61261C4.2389 8.63172 4.38551 8.70161 4.49869 8.81275C4.63451 8.94612 4.71091 9.12781 4.71091 9.31736C4.71091 9.70951 4.39037 10.0274 3.99496 10.0274C3.59956 10.0274 3.27902 9.70951 3.27902 9.31736C3.27902 8.92521 3.59956 8.60731 3.99496 8.60731L3.99153 8.60715ZM4.31356 0.171388C4.60514 0.171388 4.85018 0.388644 4.88273 0.676021V1.44998H8.1188C8.43117 1.44998 8.68439 1.70112 8.68439 2.01092C8.68439 2.32072 8.43117 2.57186 8.1188 2.57186H4.86841V3.1328C4.86843 3.28281 4.80786 3.42658 4.70023 3.53198C4.59261 3.63738 4.4469 3.69564 4.29566 3.69375L4.21295 3.68569C3.94348 3.63951 3.74073 3.40488 3.74433 3.1257V0.676021L3.76032 0.592059C3.82641 0.347365 4.05113 0.171388 4.31356 0.171388Z" fill="#B28351"></path><path fill-rule="evenodd" clip-rule="evenodd" d="M11.0748 0.626317C11.0578 0.338852 10.8265 0.104667 10.5315 0.086677C10.3803 0.0789712 10.2322 0.131742 10.1205 0.233173C10.0312 0.314317 9.97108 0.421182 9.94776 0.537531L9.93729 0.626317V3.1257C9.93827 3.14006 9.93979 3.15427 9.94181 3.16831C9.98072 3.43772 10.2088 3.64455 10.4871 3.65496C10.6938 3.6627 10.8812 3.56033 10.9882 3.39828C11.0327 3.33077 11.0634 3.25289 11.0756 3.16831V2.62867C11.1082 2.63237 11.1404 2.63628 11.1723 2.6404C11.6131 2.69739 11.9914 2.79495 12.3106 2.93712C13.2539 3.35714 13.6817 4.16647 13.6817 5.46888V12.1079C13.6817 12.1102 13.6817 12.1126 13.6817 12.115C13.6792 14.1477 12.6336 15.012 10.1879 15.012H4.63215C2.14783 14.9978 1.13119 14.1528 1.13119 12.115V6.81088H11.5768C11.8892 6.81088 12.1424 6.55973 12.1424 6.24994C12.1424 5.94014 11.8892 5.68899 11.5768 5.68899H1.13119V5.47598C1.13119 5.09198 1.16742 4.75254 1.24125 4.45399C1.37592 3.90947 1.63569 3.50098 2.02896 3.20633C2.09788 3.1547 2.1709 3.10656 2.24806 3.0618C2.25029 3.06085 2.25252 3.0599 2.25473 3.05892C2.25446 3.05904 2.255 3.05881 2.25473 3.05892C2.26157 3.05591 2.26913 3.05243 2.2758 3.04917C2.29658 3.03905 2.31657 3.02776 2.3357 3.0154C2.40642 2.96973 2.46547 2.90948 2.50933 2.8396C2.55906 2.76039 2.58928 2.6688 2.5949 2.57205C2.60182 2.45271 2.57065 2.33693 2.50933 2.23922C2.46001 2.16063 2.39119 2.09372 2.307 2.04607C2.1516 1.9581 1.9659 1.9482 1.80438 2.01439C1.79764 2.01716 1.79094 2.02005 1.7843 2.02308L1.70395 2.06772C1.69583 2.07245 1.68774 2.07721 1.67968 2.08199C1.59256 2.13363 1.50889 2.18807 1.42865 2.24529C0.468874 2.92971 0 4.01207 0 5.47598V12.115C0 14.7829 1.55857 16.1391 4.6257 16.141C4.62785 16.141 4.63 16.141 4.63215 16.141H10.1879C13.2593 16.141 14.82 14.7848 14.82 12.115V5.47598C14.82 5.47361 14.82 5.47124 14.82 5.46888C14.8176 3.11438 13.5934 1.78681 11.2017 1.51977C11.1919 1.51868 11.1821 1.51761 11.1723 1.51655C11.1403 1.51311 11.1081 1.50985 11.0756 1.50678V0.676021C11.0757 0.674187 11.0757 0.672356 11.0758 0.670526C11.076 0.655666 11.0757 0.640923 11.0748 0.626317ZM10.849 8.60741C10.4591 8.61369 10.1449 8.92914 10.1449 9.31736C10.1449 9.70951 10.4655 10.0274 10.8609 10.0274C11.2563 10.0274 11.5768 9.70951 11.5768 9.31736C11.5768 9.12781 11.5004 8.94612 11.3646 8.81275C11.2514 8.70161 11.1048 8.63172 10.9485 8.61261L10.8609 8.60736C10.8606 8.60736 10.8611 8.60736 10.8609 8.60736L10.8573 8.60715C10.8545 8.60716 10.8518 8.60736 10.849 8.60741ZM10.8391 8.79288C10.5713 8.80429 10.3418 9.0257 10.3418 9.31736C10.3418 9.46075 10.3997 9.59615 10.4993 9.69395C10.5783 9.77155 10.6782 9.82038 10.7836 9.83643L10.8391 8.79288ZM10.8748 9.84212C11.146 9.83471 11.3799 9.61185 11.3799 9.31736C11.3799 9.17102 11.3221 9.04237 11.2307 8.94906C11.1525 8.8692 11.0497 8.81523 10.9374 8.79818L10.8748 9.84212ZM10.926 8.79659L10.8756 9.20893L10.8852 8.793C10.8989 8.79365 10.9125 8.79485 10.926 8.79659ZM3.98406 8.60739C3.59368 8.61317 3.27902 8.92882 3.27902 9.31736C3.27902 9.70951 3.59956 10.0274 3.99496 10.0274C4.39037 10.0274 4.71091 9.70951 4.71091 9.31736C4.71091 9.12781 4.6345 8.94612 4.49869 8.81275C4.38551 8.70161 4.2389 8.63172 4.08258 8.61261L3.99496 8.60735C3.99474 8.60735 3.99519 8.60735 3.99496 8.60735L3.99153 8.60715C3.98904 8.60716 3.98654 8.60736 3.98406 8.60739ZM3.97405 8.79284C3.70587 8.80384 3.4759 9.0254 3.4759 9.31736C3.4759 9.46075 3.5338 9.59615 3.6334 9.69395C3.71244 9.77156 3.81234 9.82039 3.91776 9.83643L3.97405 8.79284ZM4.00881 9.84212C4.28001 9.83476 4.51402 9.61188 4.51402 9.31736C4.51402 9.17102 4.45625 9.04237 4.36484 8.94905C4.28663 8.8692 4.18378 8.81522 4.07144 8.79818L4.00881 9.84212ZM4.06008 8.79659L4.01024 9.20427L4.02008 8.79303C4.03352 8.79369 4.04686 8.79489 4.06008 8.79659ZM3.95456 11.4841C3.57795 11.5049 3.27902 11.8144 3.27902 12.1931C3.27902 12.5852 3.59956 12.9031 3.99496 12.9031C4.39037 12.9031 4.71091 12.5852 4.71091 12.1931C4.71091 12.0035 4.6345 11.8218 4.49869 11.6885C4.38551 11.5773 4.2389 11.5074 4.08258 11.4883L3.99499 11.4828C3.99383 11.4828 3.99268 11.4826 3.99153 11.4826C3.99152 11.4826 3.99154 11.4826 3.99153 11.4826C3.97914 11.4827 3.96678 11.4835 3.95456 11.4841ZM3.93719 11.6714C3.68514 11.7002 3.4759 11.9146 3.4759 12.1931C3.4759 12.3365 3.5338 12.4719 3.6334 12.5697C3.69329 12.6285 3.76515 12.6708 3.84232 12.6948L3.93719 11.6714ZM3.84608 12.6959L3.97218 11.6686C3.97474 11.6685 3.97729 11.6684 3.97986 11.6684L3.91431 12.7116C3.89124 12.7079 3.86844 12.7027 3.84608 12.6959ZM4.00532 12.7179C4.278 12.7124 4.51402 12.4889 4.51402 12.1931C4.51402 12.0467 4.45625 11.9181 4.36484 11.8248C4.28651 11.7448 4.18347 11.6908 4.07092 11.6738L4.00532 12.7179ZM4.06008 11.6723L4.05773 11.6915L4.05892 11.6722C4.0593 11.6722 4.05969 11.6723 4.06008 11.6723ZM10.8226 11.484C10.445 11.5037 10.1449 11.8137 10.1449 12.1931C10.1449 12.5852 10.4655 12.9031 10.8609 12.9031C11.2563 12.9031 11.5768 12.5852 11.5768 12.1931C11.5768 12.0035 11.5004 11.8218 11.3646 11.6885C11.2514 11.5773 11.1048 11.5074 10.9485 11.4883L10.8609 11.4828C10.8597 11.4828 10.8585 11.4826 10.8573 11.4826C10.8573 11.4826 10.8573 11.4826 10.8573 11.4826C10.8457 11.4827 10.8341 11.4834 10.8226 11.484ZM10.8056 11.6711C10.5524 11.6987 10.3418 11.9137 10.3418 12.1931C10.3418 12.3365 10.3997 12.4719 10.4993 12.5697C10.5603 12.6296 10.6337 12.6723 10.7125 12.6961L10.8056 11.6711ZM10.7163 12.6972L10.8388 11.6686C10.8411 11.6685 10.8434 11.6684 10.8457 11.6684L10.7802 12.7116C10.7586 12.7082 10.7373 12.7034 10.7163 12.6972ZM10.8713 12.7179C11.1439 12.7123 11.3799 12.4888 11.3799 12.1931C11.3799 12.0467 11.3221 11.9181 11.2307 11.8248C11.1524 11.7448 11.0494 11.6908 10.9368 11.6738L10.8713 12.7179ZM10.926 11.6723L10.92 11.7215L10.9229 11.6719C10.9239 11.672 10.925 11.6722 10.926 11.6723ZM4.88273 0.676021C4.85018 0.388644 4.60514 0.171388 4.31356 0.171388C4.05113 0.171388 3.82641 0.347365 3.76032 0.592059L3.74433 0.676021V3.1257C3.7443 3.12807 3.74429 3.13044 3.74429 3.1328C3.74429 3.13277 3.74429 3.13283 3.74429 3.1328C3.74422 3.40881 3.9458 3.63991 4.21295 3.68569L4.29566 3.69375C4.4469 3.69564 4.59261 3.63738 4.70023 3.53198C4.80608 3.42832 4.86641 3.28755 4.86837 3.14023C4.8684 3.13779 4.86841 3.13534 4.86841 3.1329C4.86841 3.13286 4.86841 3.13293 4.86841 3.1329V2.57186H8.1188C8.43117 2.57186 8.68439 2.32072 8.68439 2.01092C8.68439 1.70112 8.43117 1.44998 8.1188 1.44998H4.88273V0.676021ZM7.3486 12.7123C7.1048 12.6755 6.90527 12.465 6.90527 12.1931C6.90527 11.8977 7.14069 11.6743 7.41292 11.6683L7.3486 12.7123ZM7.42433 11.6681V12.2121L7.4913 11.6725C7.46929 11.6696 7.44693 11.6681 7.42433 11.6681ZM7.51414 11.4886L7.42433 11.483C7.02893 11.483 6.70839 11.8009 6.70839 12.1931C6.70839 12.5852 7.02893 12.9031 7.42433 12.9031C7.81974 12.9031 8.14028 12.5852 8.14028 12.1931C8.14028 11.8311 7.86715 11.5324 7.51414 11.4886ZM7.5027 11.6742L7.43841 12.7178C7.70951 12.7104 7.94339 12.4875 7.94339 12.1931C7.94339 11.9222 7.74546 11.7119 7.5027 11.6742ZM7.34861 9.8366C7.10481 9.79976 6.90527 9.58928 6.90527 9.31736C6.90527 9.02196 7.14069 8.79863 7.41292 8.79254L7.34861 9.8366ZM7.42433 8.79241V9.33641L7.4913 8.79683C7.46929 8.79391 7.44693 8.79241 7.42433 8.79241ZM7.51414 8.61284L7.42433 8.60731C7.02893 8.60731 6.70839 8.92521 6.70839 9.31736C6.70839 9.70951 7.02893 10.0274 7.42433 10.0274C7.81974 10.0274 8.14028 9.70951 8.14028 9.31736C8.14028 8.95538 7.86715 8.65666 7.51414 8.61284ZM7.5027 8.79847L7.43842 9.84212C7.70951 9.83463 7.94339 9.6118 7.94339 9.31736C7.94339 9.0465 7.74546 8.83623 7.5027 8.79847Z" fill="#608E60"></path></svg>