<svg xmlns="http://www.w3.org/2000/svg" width="566" height="187" viewBox="0 0 566 187" fill="none"><path d="M71.5037 174.626C70.7581 176.628 69.3451 178.646 67.1813 180.825C64.4284 183.599 61.9257 184.861 59.5221 184.678C57.3218 184.512 55.4865 183.177 53.7085 181.878C53.3279 181.602 52.9473 181.326 52.5719 181.065C51.6438 180.424 50.6427 179.824 49.6781 179.245C47.3788 177.869 45.0012 176.446 43.3484 174.292C40.2305 170.231 40.4338 164.845 40.6267 159.636C40.6632 158.713 40.6945 157.79 40.7102 156.888C40.8092 151.106 38.8905 143.864 33.176 142.482C31.9977 142.195 30.7463 142.206 29.5367 142.211C28.2228 142.221 26.862 142.227 25.5689 141.867C22.1851 140.923 20.1621 137.857 18.2068 134.885C16.3767 132.111 14.4841 129.244 11.4965 128.118C10.7613 127.841 9.96881 127.68 9.20236 127.523C8.48805 127.377 7.75289 127.231 7.04901 126.986C1.6213 125.12 -0.375636 118.383 0.0571209 112.919C0.47945 107.611 2.46074 102.554 4.37947 97.6578C6.00622 93.5023 7.69032 89.2008 8.41506 84.769C9.09808 80.5926 8.92602 76.2702 8.76439 72.0887C8.67576 69.7998 8.5819 67.4326 8.62883 65.1072C8.79568 56.8588 11.0168 50.748 15.2297 46.9523C17.9409 44.507 21.4082 43.1357 24.7555 41.8061C27.5554 40.6956 30.4491 39.5485 32.8945 37.7862C35.6631 35.784 37.8217 33.0154 39.902 30.3407C40.7936 29.1936 41.7165 28.0153 42.6758 26.8995C47.0503 21.8368 54.9859 19.3028 59.3291 21.5865C62.1759 23.0829 63.0832 26.4459 61.8735 31.0498L61.6546 31.8736C60.4866 36.2533 58.5262 43.5841 62.3636 46.7646C64.1468 48.2401 66.5035 48.3496 69.0062 48.4695C72.5256 48.6364 76.1597 48.8085 78.4538 52.8597C79.0117 53.8399 79.3559 54.9296 79.6895 55.9828C80.0545 57.1351 80.4352 58.3291 81.0869 59.3562C82.2757 61.2176 84.2726 62.396 86.207 63.5378C88.2091 64.7214 90.2791 65.9414 91.5043 67.9332C93.6838 71.4682 92.4481 75.9835 91.1185 79.9409C89.6065 84.4353 87.7294 90.0298 83.5062 93.4293C82.8648 93.9455 82.1714 94.4095 81.4988 94.8579C80.5551 95.4888 79.5853 96.1406 78.7615 96.9331C74.2723 101.281 75.2733 108.67 76.2692 112.69C76.582 113.962 76.9574 115.255 77.3172 116.506C78.5164 120.672 79.7521 124.974 79.1734 129.306C78.5581 133.869 75.9877 137.988 73.5058 141.971C70.3514 147.029 67.369 151.805 68.1094 157.363C68.391 159.495 69.2513 161.57 70.0855 163.572C71.2169 166.299 72.3848 169.125 72.0928 172.097C72.0094 172.942 71.8165 173.781 71.4985 174.626H71.5037ZM3.3784 101.308C1.97064 105.077 0.755788 108.946 0.437738 112.95C0.0154094 118.274 1.93935 124.822 7.16893 126.632C7.84674 126.866 8.57148 127.012 9.27536 127.158C10.0574 127.315 10.8656 127.482 11.6268 127.768C14.7343 128.936 16.6583 131.856 18.5197 134.682C20.527 137.727 22.4249 140.6 25.668 141.507C26.9089 141.851 28.2437 141.846 29.5315 141.835C30.762 141.83 32.0394 141.82 33.2595 142.117C39.1929 143.556 41.1846 150.981 41.0856 156.899C41.0699 157.806 41.0387 158.729 41.0022 159.651C40.8092 164.792 40.6111 170.111 43.6456 174.063C45.2567 176.159 47.603 177.561 49.8711 178.922C50.8408 179.501 51.8471 180.106 52.7856 180.752C53.1663 181.018 53.5521 181.295 53.9327 181.576C55.6637 182.838 57.4573 184.147 59.5481 184.303C61.8683 184.475 64.2042 183.286 66.9102 180.559C69.9186 177.525 71.4463 174.824 71.7174 172.061C71.999 169.183 70.8989 166.529 69.7361 163.718C68.8967 161.69 68.026 159.594 67.7392 157.41C66.9832 151.716 70.1376 146.658 73.193 141.768C75.6592 137.821 78.2036 133.738 78.8084 129.254C79.3819 125.005 78.1514 120.74 76.9679 116.61C76.6081 115.354 76.2327 114.056 75.9147 112.778C74.8979 108.68 73.8864 101.141 78.5112 96.6567C79.3559 95.8382 80.3465 95.176 81.3007 94.5399C81.968 94.0967 82.6511 93.6379 83.282 93.1321C87.4166 89.8004 89.278 84.2632 90.7692 79.8157C92.0674 75.9418 93.2823 71.5256 91.1915 68.1313C90.0131 66.223 87.9849 65.0238 86.0245 63.8663C84.0536 62.7036 82.015 61.4992 80.774 59.5596C80.0962 58.4959 79.7052 57.2759 79.335 56.0975C79.0065 55.06 78.6676 53.9911 78.1306 53.0474C75.9407 49.1786 72.4109 49.0118 68.9958 48.8502C66.4305 48.7302 64.0113 48.6155 62.129 47.0566C58.1039 43.7249 60.1008 36.2429 61.2948 31.7745L61.5138 30.9559C62.6869 26.4772 61.8735 23.354 59.1571 21.9254C54.9546 19.7147 47.238 22.207 42.9678 27.1498C42.0137 28.2551 41.096 29.4335 40.2096 30.5753C38.1084 33.2709 35.9342 36.0604 33.1239 38.0938C30.6421 39.8874 27.7223 41.0449 24.9015 42.1607C21.5802 43.4746 18.1495 44.8354 15.4852 47.2338C11.3557 50.9566 9.17629 56.9683 9.00945 65.1124C8.96252 67.4274 9.05637 69.7893 9.14501 72.073C9.31186 76.2702 9.4787 80.6135 8.79046 84.8315C8.06051 89.3051 6.3712 93.6222 4.73402 97.7986C4.28041 98.9561 3.82158 100.129 3.38361 101.308H3.3784Z" fill="#B28351"></path><path opacity="0.7" d="M61.3575 172.05C61.1542 172.593 60.7318 173.145 59.809 173.229C59.4492 173.26 59.1885 172.984 58.9434 172.718C58.8235 172.588 58.7088 172.468 58.5837 172.379C57.3688 171.54 56.1696 170.82 55.1112 170.184C53.8599 169.433 52.1549 168.416 51.7274 167.858C50.9296 166.821 51.0808 162.733 51.1851 160.027C51.2216 159.109 51.2581 158.067 51.2737 157.06C51.4875 144.312 45.3611 134.557 35.6632 132.211C33.2283 131.622 31.0593 131.637 29.4743 131.642C29.4169 131.642 29.3596 131.653 29.297 131.663C29.151 131.684 28.9842 131.71 28.833 131.637C28.2751 131.371 27.8788 130.615 27.493 129.885C27.3314 129.583 27.1802 129.301 27.0289 129.067C24.6618 125.474 21.4188 120.558 15.209 118.227C13.6917 117.659 12.3152 117.377 11.3142 117.174C11.2881 117.174 11.2724 117.169 11.2516 117.169C11.1942 117.169 11.1212 117.163 11.0587 117.111C10.5894 116.725 10.4434 115.657 10.5946 113.753C10.8293 110.797 11.8981 107.622 12.9096 104.905C13.3215 103.795 13.7647 102.674 14.1922 101.584L14.2235 101.506C14.698 100.302 15.1829 99.0554 15.6574 97.7832C16.7679 94.8008 18.1392 90.8174 18.8483 86.4637C19.6982 81.2342 19.5 76.1558 19.328 71.6718C19.2393 69.4402 19.1559 67.3286 19.1976 65.316C19.255 62.3806 19.6721 59.8049 20.3968 57.8653C20.8974 56.5201 21.5387 55.4878 22.3103 54.7995C23.6138 53.6264 26.0644 52.6566 28.6609 51.6294C31.904 50.3468 35.5798 48.8869 39.094 46.3477C43.0827 43.4644 45.8304 39.9398 48.2497 36.8323C48.4478 36.582 48.6199 36.2014 48.7867 35.8364C49.0578 35.2473 49.3133 34.6894 49.6939 34.5486C49.8347 34.4965 49.9807 34.5069 50.1319 34.5747C52.9526 35.8729 52.7858 39.2724 52.5929 43.2037C52.3947 47.3332 52.1653 52.0153 55.6378 54.8934C60.1374 58.6213 65.1845 58.8612 68.5214 59.0176C68.6101 59.0176 68.7144 59.0072 68.8239 58.9915C69.0793 58.955 69.3713 58.9185 69.5955 59.0906C69.6372 59.1219 69.6424 59.1636 69.6424 59.1792C70.0961 60.6235 70.7895 62.8133 72.2077 65.0345C74.7521 69.0231 78.2819 71.1035 80.8576 72.626C80.9723 72.6937 81.1027 72.7407 81.2435 72.798C81.5511 72.9179 81.9056 73.0483 82.036 73.3559C82.2289 73.8043 81.9786 74.4196 81.6293 75.2746C81.4729 75.6605 81.2956 76.0932 81.134 76.5729C80.8055 77.5583 80.4509 78.6063 80.0755 79.6074C79.3769 81.474 78.2924 84.0862 76.9107 85.1968C76.6343 85.4157 76.1651 85.7338 75.6645 86.0675C74.4497 86.8756 72.9481 87.8819 71.4465 89.3418C69.2358 91.4848 67.5517 94.0813 66.4411 97.0637C64.0114 103.581 64.8873 110.536 66.05 115.229C66.415 116.694 66.8113 118.081 67.1971 119.426C68.1356 122.685 69.022 125.766 68.7352 127.894C68.6622 128.42 68.511 128.994 68.266 129.651C67.5204 131.653 66.0865 133.947 64.5745 136.372C62.7183 139.349 60.6119 142.722 59.1885 146.533C57.6295 150.715 57.129 154.709 57.666 158.745C58.1301 162.248 59.3606 165.22 60.3512 167.608C60.4659 167.885 60.6067 168.187 60.7579 168.515C61.2011 169.47 61.6599 170.46 61.5817 171.018C61.5817 171.018 61.5765 171.075 61.5713 171.117C61.5504 171.315 61.5191 171.675 61.3836 172.045L61.3575 172.05ZM13.0817 104.978C12.0754 107.684 11.0117 110.844 10.7771 113.774C10.6363 115.557 10.7667 116.632 11.1734 116.97C11.1838 116.981 11.2203 116.981 11.2516 116.986C11.2777 116.986 11.3089 116.986 11.335 116.997C12.3517 117.205 13.7386 117.487 15.2663 118.06C21.5282 120.412 24.7922 125.36 27.1749 128.973C27.3314 129.213 27.4878 129.5 27.6494 129.807C28.004 130.475 28.4054 131.236 28.906 131.476C29.005 131.523 29.1354 131.502 29.2605 131.486C29.3335 131.476 29.4013 131.465 29.4639 131.465C31.0593 131.455 33.2387 131.444 35.6945 132.039C45.4811 134.406 51.6648 144.234 51.451 157.076C51.4354 158.082 51.3937 159.125 51.3624 160.043C51.2633 162.723 51.1121 166.769 51.8681 167.749C52.2748 168.276 53.9589 169.287 55.1894 170.022C56.2583 170.664 57.4627 171.383 58.6828 172.228C58.8235 172.327 58.9487 172.462 59.0738 172.593C59.3032 172.838 59.517 173.067 59.7829 173.041C61.0342 172.932 61.2793 171.889 61.3523 171.112C61.3523 171.065 61.3575 171.029 61.3627 171.002C61.4305 170.502 60.9664 169.496 60.5546 168.604C60.4033 168.281 60.2626 167.973 60.1479 167.692C59.1572 165.293 57.9163 162.311 57.447 158.781C56.9048 154.714 57.4105 150.694 58.9799 146.476C60.4086 142.649 62.5202 139.265 64.3816 136.278C65.8936 133.858 67.317 131.575 68.0574 129.588C68.2972 128.947 68.4484 128.384 68.5162 127.873C68.7978 125.782 67.9166 122.721 66.9833 119.484C66.5975 118.138 66.196 116.751 65.8311 115.281C64.6631 110.563 63.782 103.565 66.2273 97.0063C67.3483 93.9979 69.0481 91.3805 71.2796 89.2167C72.7969 87.7464 74.3089 86.7349 75.5238 85.9267C76.0243 85.593 76.4936 85.2802 76.7595 85.0612C78.1047 83.9767 79.1787 81.3958 79.867 79.5501C80.2424 78.549 80.5917 77.5062 80.9254 76.5208C81.087 76.0359 81.2695 75.5979 81.4259 75.2121C81.7596 74.4039 81.9995 73.8147 81.8378 73.4445C81.7388 73.2099 81.4416 73.1004 81.1548 72.9909C81.0036 72.9336 80.8628 72.8814 80.7429 72.8084C78.1412 71.2756 74.5905 69.1796 72.0252 65.1544C70.5914 62.9124 69.8979 60.7121 69.4391 59.2522V59.2418C69.2775 59.1375 69.0533 59.1688 68.8291 59.2001C68.7091 59.2157 68.5944 59.2314 68.4902 59.2261C65.1272 59.0697 60.0436 58.8299 55.497 55.0602C51.9516 52.1196 52.181 47.3905 52.3791 43.2142C52.5668 39.3506 52.7284 36.0085 50.0276 34.7676C49.9233 34.7207 49.8295 34.7154 49.7356 34.7467C49.428 34.8614 49.1777 35.4089 48.9379 35.9355C48.7658 36.3109 48.5886 36.6967 48.38 36.9679C45.9503 40.0858 43.1974 43.6208 39.1878 46.5198C35.6528 49.0746 31.9665 50.5345 28.7131 51.8224C26.1322 52.8443 23.6972 53.8089 22.4198 54.9612C21.6742 55.6338 21.0486 56.64 20.5585 57.954C19.8441 59.8727 19.4322 62.4275 19.3749 65.3421C19.3332 67.3495 19.4166 69.4559 19.5052 71.6875C19.6825 76.1767 19.8806 81.2707 19.0256 86.5159C18.3113 90.8852 16.94 94.879 15.8242 97.8718C15.3497 99.1492 14.8596 100.395 14.3904 101.6L14.3591 101.678C13.9315 102.762 13.4936 103.889 13.0817 104.994V104.978Z" fill="#B28351"></path><path opacity="0.5" d="M58.057 127.075C57.7703 127.841 57.1602 128.691 56.5711 129.52C56.2582 129.958 55.935 130.407 55.6691 130.834C55.5544 131.017 55.4761 131.267 55.3927 131.533C55.2207 132.07 55.0225 132.68 54.4594 132.711C50.8305 132.899 48.3331 130.281 45.6844 127.508C43.4685 125.187 41.1795 122.784 38.119 122.043C37.6184 121.924 37.1022 121.887 36.6017 121.856C35.8248 121.804 35.0897 121.757 34.4848 121.397C34.0625 121.141 33.6089 120.881 33.1344 120.604C29.4743 118.482 24.4584 115.573 22.2425 109.916C22.0809 109.504 22.3416 109.134 22.5293 108.857C22.6023 108.753 22.6753 108.649 22.7014 108.571C23.1028 107.486 23.5408 106.381 23.9214 105.406L23.9527 105.333C24.4845 103.977 24.9642 102.752 25.4491 101.448C26.7265 98.0176 28.3063 93.4033 29.1614 88.1529C30.1833 81.8857 29.9539 75.9992 29.7662 71.2701C29.6828 69.1898 29.6098 67.2346 29.6411 65.5296C29.6463 65.1803 29.6411 64.8518 29.6411 64.5442C29.6307 63.5796 29.6202 62.8183 29.9539 62.4064C30.3398 61.932 31.0593 61.7495 31.6954 61.5931C31.9874 61.5201 32.2585 61.4523 32.4827 61.3637C33.5672 60.9361 34.6725 59.9976 35.8457 59.007C38.0772 57.1143 40.6112 54.9714 43.6822 55.9203C45.1265 56.3635 45.8147 57.8234 46.5395 59.3667C47.1547 60.6702 47.7908 62.0206 48.9274 62.9643C51.5188 65.1073 54.4751 66.0041 57.0872 66.7861C59.0529 67.3805 60.9091 67.9384 62.3168 68.9447C62.6662 69.195 62.8486 69.6121 63.0207 70.0136C63.1198 70.2378 63.2188 70.4724 63.3492 70.6757C64.1261 71.8906 65.3305 72.803 66.4932 73.6842C68.0469 74.8625 69.5173 75.9731 69.4338 77.5738C69.3817 78.5957 68.2399 79.2214 66.9155 79.9513C65.9926 80.4571 64.9447 81.0358 64.1208 81.8284C60.7839 85.061 58.25 88.9558 56.5919 93.4085C53.2289 102.434 54.3291 111.626 55.8515 117.752C56.2582 119.4 56.7066 120.949 57.0977 122.309C57.2072 122.69 57.3584 123.107 57.5148 123.54C57.9006 124.603 58.2969 125.709 58.1978 126.491C58.1717 126.679 58.1196 126.872 58.0466 127.07L58.057 127.075ZM58.0205 126.47C58.1144 125.73 57.7077 124.603 57.3479 123.608C57.1915 123.17 57.0403 122.753 56.9308 122.372C56.5346 120.995 56.0914 119.447 55.6795 117.794C54.157 111.642 53.0465 102.408 56.4303 93.3407C58.0988 88.862 60.6484 84.9411 64.0061 81.6876C64.8456 80.8742 65.904 80.2955 66.8425 79.7793C68.1147 79.0806 69.2149 78.481 69.2618 77.5581C69.34 76.0565 67.9739 75.0242 66.3941 73.8302C65.2158 72.9386 64.0009 72.0157 63.2032 70.7748C63.0624 70.5558 62.9634 70.316 62.8591 70.0866C62.687 69.6903 62.5254 69.3201 62.223 69.1011C60.8361 68.1105 58.9956 67.5578 57.0455 66.9686C54.4177 66.1761 51.4406 65.2793 48.8232 63.1103C47.65 62.1405 47.0035 60.7693 46.383 59.4449C45.6739 57.9381 45.0066 56.5199 43.6405 56.0976C40.6686 55.1851 38.1815 57.2916 35.9865 59.1477C34.8029 60.1488 33.6871 61.0977 32.5713 61.5357C32.3315 61.6296 32.0551 61.6974 31.758 61.7756C31.1219 61.932 30.4649 62.0988 30.1156 62.5264C29.8236 62.8861 29.834 63.6161 29.8444 64.5442C29.8444 64.8518 29.8497 65.1855 29.8444 65.5348C29.8079 67.2293 29.8862 69.1846 29.9696 71.2545C30.1573 75.9992 30.3867 81.8961 29.3595 88.1841C28.4992 93.4554 26.9194 98.075 25.6368 101.516C25.1519 102.825 24.6722 104.05 24.1404 105.406L24.1091 105.479C23.7285 106.454 23.2957 107.559 22.8891 108.638C22.8526 108.743 22.7743 108.852 22.6909 108.967C22.5084 109.228 22.2999 109.53 22.425 109.843C24.6149 115.437 29.5994 118.326 33.2335 120.432C33.708 120.709 34.1616 120.969 34.5839 121.225C35.147 121.564 35.8561 121.611 36.6121 121.658C37.1231 121.689 37.6445 121.725 38.1607 121.851C41.2734 122.607 43.5832 125.026 45.8199 127.367C48.4373 130.109 50.9035 132.696 54.449 132.513C54.8818 132.492 55.0434 131.992 55.2102 131.465C55.2937 131.199 55.3823 130.928 55.5074 130.725C55.7786 130.292 56.1018 129.838 56.4146 129.4C57.1498 128.373 57.9058 127.315 58.0205 126.465V126.47Z" fill="#B28351"></path><path opacity="0.3" d="M46.2421 110.594C45.8667 111.6 45.2619 112.466 44.3286 113.143C43.656 113.634 42.8791 113.144 42.0605 112.617C41.5756 112.309 41.0751 111.991 40.585 111.871C40.1835 111.772 39.7925 111.731 39.4118 111.684C39.0052 111.637 38.6193 111.595 38.2909 111.485C36.7215 110.98 34.3543 110.213 33.9476 108.597C33.7391 107.763 34.2031 107.001 34.6567 106.261C34.8862 105.886 35.1208 105.5 35.272 105.104C36.7162 101.224 38.5046 95.9844 39.5109 89.832C40.6997 82.5221 40.439 75.7804 40.2461 70.8585C40.2409 70.6812 40.1731 70.457 40.1105 70.238C39.9802 69.7792 39.829 69.263 40.2409 69.1014C40.8144 68.8772 41.195 69.4924 41.5652 70.092C41.7842 70.4414 42.0084 70.8063 42.2691 71.0201C44.6154 72.9649 47.2171 73.8617 49.5112 74.6542C51.3674 75.2955 52.9733 75.8482 54.1204 76.8232C55.4238 77.9338 53.4217 80.4261 51.1015 83.3146C49.4382 85.3845 47.556 87.7256 46.8052 89.7434C45.4183 93.4661 45.9188 97.8406 46.362 101.699C46.7583 105.14 47.1128 108.253 46.2473 110.583L46.2421 110.594ZM34.2188 107.476C34.0884 107.825 34.0363 108.18 34.1249 108.55C34.5055 110.062 36.8153 110.808 38.343 111.303C38.6558 111.402 39.0312 111.449 39.4275 111.491C39.8133 111.532 40.2096 111.579 40.6215 111.678C41.1429 111.804 41.6538 112.132 42.1544 112.45C42.9208 112.935 43.6404 113.394 44.2087 112.982C47.2067 110.808 46.7218 106.595 46.1639 101.725C45.7207 97.8458 45.215 93.4505 46.6175 89.6808C47.3787 87.6317 49.2714 85.275 50.9451 83.1999C53.1089 80.5043 55.1527 77.9599 53.99 76.9692C52.8742 76.0203 51.284 75.4676 49.4435 74.8315C47.1337 74.0338 44.5163 73.1318 42.144 71.1661C41.8572 70.9263 41.6226 70.5509 41.3984 70.1911C41.0386 69.6124 40.731 69.1118 40.3034 69.2787C40.0688 69.3725 40.1418 69.6958 40.2826 70.1859C40.3504 70.4153 40.4181 70.6499 40.4234 70.8533C40.6163 75.7857 40.8822 82.5325 39.6882 89.8633C38.6819 96.0314 36.8935 101.282 35.444 105.171C35.2928 105.583 35.0478 105.98 34.8132 106.36C34.5837 106.736 34.3595 107.106 34.2188 107.476Z" fill="#B28351"></path><g opacity="0.7"><path d="M45.9202 76.4858L44.4967 80.3041L40.6784 78.8807L40.1687 80.2464L43.987 81.6699L42.5635 85.4882L43.9197 85.9979L45.3431 82.1796L49.1614 83.6031L49.6712 82.2373L45.8529 80.8139L47.2763 76.9956L45.9202 76.4858Z" fill="#E70000"></path></g><g opacity="0.5"><path d="M40.0165 141.656L38.6311 145.372C38.4891 145.752 38.6826 146.176 39.0633 146.318L41.4414 147.205C41.8221 147.347 42.2458 147.153 42.3878 146.773L43.7732 143.057C43.9151 142.677 43.7216 142.253 43.3409 142.111L40.9628 141.224C40.5821 141.082 40.1584 141.276 40.0165 141.656Z" fill="#1B5F1B"></path></g><g opacity="0.5"><path d="M50.8676 133.739L49.5695 137.22C49.4276 137.601 49.6211 138.025 50.0018 138.167L52.2007 138.987C52.5814 139.129 53.0051 138.935 53.147 138.554L54.445 135.073C54.587 134.693 54.3935 134.269 54.0128 134.127L51.8139 133.307C51.4332 133.165 51.0095 133.359 50.8676 133.739Z" fill="#1B5F1B"></path></g><g opacity="0.5"><path d="M39.564 156.758L39.1733 157.805C39.0313 158.186 39.2249 158.61 39.6056 158.752L40.0122 158.903C40.3929 159.045 40.8166 158.852 40.9586 158.471L41.3493 157.423C41.4912 157.043 41.2977 156.619 40.917 156.477L40.5103 156.325C40.1296 156.183 39.7059 156.377 39.564 156.758Z" fill="#1B5F1B"></path></g><g opacity="0.5"><path d="M56.5257 145.049L56.135 146.096C55.993 146.477 56.1865 146.901 56.5672 147.043L56.9739 147.194C57.3546 147.336 57.7783 147.143 57.9203 146.762L58.311 145.714C58.4529 145.334 58.2594 144.91 57.8787 144.768L57.472 144.616C57.0913 144.474 56.6676 144.668 56.5257 145.049Z" fill="#1B5F1B"></path></g><g opacity="0.5"><path d="M48.3728 157.274L47.9821 158.321C47.8402 158.702 48.0337 159.126 48.4144 159.268L48.8211 159.419C49.2018 159.561 49.6255 159.368 49.7674 158.987L50.1581 157.939C50.3001 157.559 50.1065 157.135 49.7258 156.993L49.3192 156.841C48.9385 156.699 48.5148 156.893 48.3728 157.274Z" fill="#1B5F1B"></path></g><g opacity="0.5"><path d="M30.9793 135.258L30.5886 136.305C30.4466 136.686 30.6402 137.11 31.0208 137.252L31.4275 137.403C31.8082 137.545 32.2319 137.352 32.3739 136.971L32.7646 135.923C32.9065 135.543 32.713 135.119 32.3323 134.977L31.9256 134.825C31.5449 134.683 31.1212 134.877 30.9793 135.258Z" fill="#1B5F1B"></path></g><path d="M552.43 76.1392C568.996 88.9864 567.982 118.4 557.501 129.218C543.64 143.527 525.045 143.418 507.127 148.827C489.208 154.237 482.785 169.789 457.09 163.027" stroke="#B28351" stroke-width="0.676169" stroke-linecap="round" stroke-dasharray="0.68 2.7 2.7 5.41"></path><path d="M538.906 62.6422C516.593 70.4182 493.893 47.181 473.994 40.3024C446.609 30.836 409.166 40.923 401 64.2771" stroke="#B28351" stroke-width="0.676169" stroke-linecap="round" stroke-dasharray="0.68 2.7 2.7 5.41"></path><g opacity="0.5"><path d="M487.207 127.126L482.78 127.851C482.327 127.925 482.019 128.353 482.094 128.807L482.558 131.64C482.632 132.094 483.06 132.401 483.514 132.327L487.94 131.602C488.394 131.528 488.701 131.1 488.627 130.646L488.163 127.812C488.089 127.359 487.661 127.051 487.207 127.126Z" fill="#8DAF8D"></path></g><g opacity="0.5"><path d="M500.969 133.134L496.821 133.814C496.368 133.888 496.06 134.316 496.135 134.77L496.564 137.39C496.638 137.843 497.066 138.151 497.52 138.076L501.667 137.397C502.121 137.323 502.428 136.895 502.354 136.441L501.925 133.821C501.85 133.367 501.423 133.06 500.969 133.134Z" fill="#8DAF8D"></path></g><g opacity="0.5"><path d="M472.132 135.158L470.884 135.362C470.43 135.436 470.123 135.864 470.197 136.318L470.276 136.802C470.351 137.256 470.779 137.564 471.232 137.489L472.481 137.285C472.934 137.21 473.242 136.782 473.167 136.329L473.088 135.844C473.014 135.391 472.586 135.083 472.132 135.158Z" fill="#8DAF8D"></path></g><g opacity="0.5"><path d="M493.15 145.249L491.902 145.453C491.448 145.528 491.141 145.956 491.215 146.409L491.294 146.894C491.369 147.347 491.796 147.655 492.25 147.581L493.498 147.376C493.952 147.302 494.26 146.874 494.185 146.42L494.106 145.936C494.032 145.482 493.604 145.175 493.15 145.249Z" fill="#8DAF8D"></path></g><g opacity="0.5"><path d="M476.568 144.09L475.319 144.295C474.866 144.369 474.558 144.797 474.632 145.251L474.712 145.735C474.786 146.189 475.214 146.496 475.668 146.422L476.916 146.217C477.37 146.143 477.677 145.715 477.603 145.262L477.523 144.777C477.449 144.323 477.021 144.016 476.568 144.09Z" fill="#8DAF8D"></path></g><g opacity="0.5"><path d="M488.431 114.649L487.183 114.854C486.729 114.928 486.422 115.356 486.496 115.81L486.575 116.294C486.65 116.748 487.077 117.055 487.531 116.981L488.779 116.776C489.233 116.702 489.541 116.274 489.466 115.821L489.387 115.336C489.313 114.882 488.885 114.575 488.431 114.649Z" fill="#8DAF8D"></path></g><g opacity="0.5"><path d="M505.689 123.05L504.227 119.11C504.067 118.679 503.588 118.459 503.157 118.619L500.668 119.543C500.237 119.702 500.018 120.181 500.178 120.612L501.64 124.553C501.799 124.984 502.278 125.203 502.709 125.044L505.198 124.12C505.629 123.96 505.849 123.481 505.689 123.05Z" fill="#8DAF8D"></path></g><g opacity="0.5"><path d="M519.333 122.233L518.893 121.047C518.733 120.616 518.254 120.397 517.823 120.557L517.363 120.727C516.932 120.887 516.712 121.366 516.872 121.797L517.312 122.983C517.472 123.414 517.951 123.634 518.382 123.474L518.842 123.303C519.273 123.143 519.493 122.664 519.333 122.233Z" fill="#8DAF8D"></path></g><g opacity="0.5"><path d="M487.273 104.364L486.832 103.178C486.673 102.747 486.194 102.527 485.763 102.687L485.302 102.858C484.871 103.018 484.652 103.497 484.812 103.928L485.252 105.114C485.411 105.545 485.89 105.764 486.321 105.604L486.782 105.434C487.213 105.274 487.432 104.795 487.273 104.364Z" fill="#8DAF8D"></path></g><g opacity="0.5"><path d="M501.931 108.091L501.491 106.905C501.332 106.474 500.853 106.255 500.422 106.415L499.961 106.585C499.53 106.745 499.311 107.224 499.47 107.655L499.911 108.841C500.07 109.272 500.549 109.492 500.98 109.332L501.441 109.161C501.872 109.001 502.091 108.522 501.931 108.091Z" fill="#8DAF8D"></path></g><g opacity="0.5"><path d="M534.981 122.597L534.541 121.411C534.381 120.98 533.902 120.76 533.471 120.92L533.011 121.091C532.58 121.251 532.36 121.73 532.52 122.16L532.96 123.346C533.12 123.777 533.599 123.997 534.03 123.837L534.49 123.666C534.921 123.507 535.141 123.028 534.981 122.597Z" fill="#8DAF8D"></path></g><path d="M541.766 46.0882L532.954 43.112C532.579 42.9894 532.289 42.7053 532.14 42.3438C531.998 41.9822 532.018 41.5755 532.198 41.2269C533.593 38.5993 536.653 37.3791 539.474 38.3346C542.296 39.2901 543.994 42.1113 543.503 45.0488C543.438 45.4362 543.212 45.7719 542.877 45.972C542.541 46.1722 542.134 46.2173 541.766 46.0947V46.0882ZM539.113 39.4063C536.821 38.6316 534.335 39.6193 533.206 41.7498C533.167 41.8208 533.186 41.8789 533.199 41.9112C533.212 41.9435 533.244 42.0016 533.315 42.0274L542.128 45.0036C542.205 45.0294 542.263 45.0036 542.289 44.9843C542.315 44.9649 542.367 44.9261 542.38 44.8487C542.773 42.4664 541.398 40.1745 539.106 39.3998L539.113 39.4063Z" fill="url(#paint0_linear_1945_11754)"></path><path opacity="0.3" d="M543.509 45.0428C543.632 44.2939 543.619 43.5579 543.477 42.8477C543.548 43.4223 543.542 44.0227 543.445 44.6231C543.38 45.0105 543.154 45.3462 542.819 45.5463C542.483 45.7465 542.076 45.7917 541.708 45.669L532.896 42.6928C532.521 42.5701 532.231 42.2861 532.082 41.9245C532.069 41.8987 532.063 41.8729 532.056 41.8535C532.056 42.0214 532.089 42.1892 532.147 42.3442C532.289 42.7057 532.586 42.9898 532.96 43.1124L541.773 46.0886C542.147 46.2113 542.547 46.1726 542.883 45.966C543.219 45.7658 543.445 45.4301 543.509 45.0428Z" fill="#0E0E0E"></path><path d="M539.549 43.9981L535.794 42.7285L534.593 46.2819L538.348 47.5514L539.549 43.9981Z" fill="url(#paint1_linear_1945_11754)"></path><path d="M539.549 43.9981L535.794 42.7285L534.593 46.2819L538.348 47.5514L539.549 43.9981Z" fill="url(#paint2_linear_1945_11754)"></path><path d="M540.026 43.6267L535.659 42.1504L534.925 44.3215L539.292 45.7979L540.026 43.6267Z" fill="url(#paint3_linear_1945_11754)"></path><path d="M536.044 42.276L535.879 42.2202L535.145 44.3914L535.31 44.4472L536.044 42.276Z" fill="#754C28"></path><path opacity="0.55" d="M535.87 42.2157L535.851 42.2095L535.117 44.3806L535.136 44.3868L535.87 42.2157Z" fill="#D0D2D3"></path><path d="M536.982 42.5998L536.817 42.5439L536.083 44.7151L536.248 44.7709L536.982 42.5998Z" fill="#754C28"></path><path opacity="0.55" d="M536.814 42.5394L536.796 42.5332L536.062 44.7043L536.08 44.7106L536.814 42.5394Z" fill="#D0D2D3"></path><path d="M537.928 42.9176L537.763 42.8618L537.029 45.033L537.194 45.0888L537.928 42.9176Z" fill="#754C28"></path><path opacity="0.55" d="M537.754 42.8568L537.736 42.8506L537.002 45.0217L537.02 45.0279L537.754 42.8568Z" fill="#D0D2D3"></path><path d="M538.869 43.2345L538.703 43.1787L537.969 45.3499L538.134 45.4057L538.869 43.2345Z" fill="#754C28"></path><path opacity="0.55" d="M538.701 43.1742L538.682 43.168L537.948 45.3391L537.967 45.3453L538.701 43.1742Z" fill="#D0D2D3"></path><path d="M539.813 43.5583L539.648 43.5024L538.914 45.6736L539.079 45.7294L539.813 43.5583Z" fill="#754C28"></path><path opacity="0.55" d="M539.639 43.4979L539.62 43.4917L538.886 45.6628L538.905 45.6691L539.639 43.4979Z" fill="#D0D2D3"></path><path d="M529.403 91.4741C542.453 91.4741 553.032 80.8951 553.032 67.8452C553.032 54.7953 542.453 44.2163 529.403 44.2163C516.353 44.2163 505.774 54.7953 505.774 67.8452C505.774 80.8951 516.353 91.4741 529.403 91.4741Z" fill="url(#paint4_radial_1945_11754)"></path><path d="M529.403 87.7227C540.381 87.7227 549.281 78.8231 549.281 67.8448C549.281 56.8665 540.381 47.9668 529.403 47.9668C518.425 47.9668 509.525 56.8665 509.525 67.8448C509.525 78.8231 518.425 87.7227 529.403 87.7227Z" fill="#0E0E0E"></path><path d="M529.403 87.0578C540.014 87.0578 548.616 78.4559 548.616 67.8448C548.616 57.2338 540.014 48.6318 529.403 48.6318C518.792 48.6318 510.19 57.2338 510.19 67.8448C510.19 78.4559 518.792 87.0578 529.403 87.0578Z" fill="url(#paint5_radial_1945_11754)"></path><path d="M524.458 82.468C515.006 79.2723 509.68 69.4463 511.894 59.9302C511.636 60.4983 511.404 61.0858 511.204 61.6927C507.808 71.7446 513.198 82.6488 523.25 86.0511C533.302 89.4469 544.207 84.0562 547.609 74.0042C547.815 73.3973 547.983 72.7905 548.125 72.1836C544.11 81.0929 533.909 85.6637 524.464 82.4745L524.458 82.468Z" fill="url(#paint6_linear_1945_11754)"></path><path d="M543.839 61.2793L528.693 66.2117L515.581 75.2565L530.727 70.3241L543.839 61.2793Z" fill="#BBBDBF"></path><path d="M526.904 75.2243C522.837 73.8492 520.649 69.4204 522.024 65.3596C523.399 61.2923 527.828 59.1037 531.888 60.4788C535.949 61.854 538.144 66.2828 536.769 70.3436C535.394 74.4044 530.965 76.5994 526.904 75.2243ZM531.746 60.9179C527.925 59.6267 523.76 61.6861 522.469 65.5081C521.178 69.33 523.237 73.4941 527.059 74.7853C530.881 76.0765 535.045 74.017 536.337 70.1951C537.628 66.3732 535.568 62.2091 531.746 60.9179Z" fill="#4B2C1B"></path><path d="M530.727 60.4142L533.548 55.2817L532.683 61.0728L530.727 60.4142Z" fill="#4B2C1B"></path><path d="M521.966 66.5215L516.833 63.7002L522.624 64.5653L521.966 66.5215Z" fill="#4B2C1B"></path><path d="M528.073 75.2825L525.252 80.415L526.117 74.624L528.073 75.2825Z" fill="#4B2C1B"></path><path d="M536.834 69.1753L541.966 71.9966L536.175 71.1315L536.834 69.1753Z" fill="#4B2C1B"></path><path d="M543.529 60.8599L528.383 65.7922L515.271 74.8371L530.417 69.9047L543.529 60.8599Z" fill="#A7824E"></path><path d="M543.529 60.8599L528.532 65.7406L530.546 69.8143L543.529 60.8599Z" fill="#D36A28"></path><path d="M530.417 69.9047L543.529 60.8599L515.271 74.8371L530.417 69.9047Z" fill="#BBBDBF"></path><path d="M529.952 68.8977C529.461 69.143 528.861 68.9364 528.622 68.4458C528.383 67.9551 528.583 67.3547 529.074 67.1158C529.565 66.877 530.165 67.0771 530.404 67.5678C530.649 68.0584 530.443 68.6588 529.952 68.8977Z" fill="#BBBDBF"></path><path d="M529.984 68.6716C529.494 68.9169 528.893 68.7103 528.654 68.2197C528.416 67.729 528.616 67.1286 529.106 66.8898C529.597 66.6509 530.197 66.851 530.436 67.3417C530.675 67.8323 530.475 68.4327 529.984 68.6716Z" fill="url(#paint7_radial_1945_11754)"></path><path d="M523.618 84.9469C514.193 81.7576 509.112 71.4926 512.301 62.0669C515.49 52.6412 525.755 47.5603 535.181 50.7496C544.607 53.9388 549.688 64.2038 546.498 73.6296C543.309 83.0553 533.044 88.1361 523.618 84.9469ZM535.136 50.8851C525.781 47.7217 515.6 52.7574 512.437 62.1121C509.273 71.4668 514.309 81.6479 523.664 84.8113C533.018 87.9747 543.199 82.9391 546.363 73.5844C549.526 64.2297 544.491 54.0486 535.136 50.8851Z" fill="#4B2C1B"></path><path d="M524.516 82.2935C516.549 79.6013 512.262 70.931 514.954 62.9643C517.647 54.9976 526.317 50.7108 534.284 53.403C542.25 56.0951 546.537 64.7655 543.845 72.7322C541.153 80.6989 532.482 84.9856 524.516 82.2935ZM534.238 53.5385C526.349 50.8722 517.756 55.1203 515.09 63.0095C512.424 70.8987 516.672 79.4916 524.561 82.1579C532.45 84.8242 541.043 80.5762 543.709 72.687C546.376 64.7978 542.128 56.2049 534.238 53.5385Z" fill="#4B2C1B"></path><path d="M534.742 51.3825L535.097 52.3702L535.278 51.8279C535.304 51.7505 535.31 51.6988 535.297 51.6665C535.278 51.6214 535.233 51.5891 535.168 51.5633L535.181 51.531L535.594 51.673L535.581 51.7053C535.523 51.6924 535.485 51.6924 535.465 51.6924C535.446 51.6924 535.426 51.7117 535.407 51.7311C535.388 51.7505 535.368 51.7892 535.349 51.8538L534.994 52.8996L534.962 52.8867L534.465 51.5568L534.193 52.3509C534.168 52.4219 534.168 52.48 534.193 52.5123C534.219 52.551 534.251 52.5768 534.297 52.5898L534.329 52.6027L534.316 52.6349L533.871 52.4865L533.884 52.4542C533.955 52.48 534.006 52.48 534.045 52.4542C534.084 52.4348 534.109 52.3961 534.135 52.3251L534.432 51.4406L534.419 51.3954C534.406 51.3502 534.387 51.3244 534.374 51.305C534.355 51.2856 534.329 51.2727 534.29 51.2598L534.303 51.2275L534.749 51.376L534.742 51.3825Z" fill="#4B2C1B"></path><path d="M524.652 83.0492L524.522 83.4689L524.484 83.456C524.503 83.3462 524.484 83.2429 524.439 83.159C524.387 83.0686 524.322 83.017 524.245 82.9847C524.18 82.9653 524.129 82.9653 524.077 82.9847C524.025 83.0041 523.999 83.0363 523.98 83.0815C523.974 83.1074 523.967 83.1332 523.98 83.159C523.987 83.1913 524.006 83.23 524.038 83.2752C524.058 83.3075 524.116 83.3656 524.2 83.4495C524.322 83.5722 524.4 83.6755 524.426 83.753C524.451 83.8369 524.458 83.9143 524.426 83.9983C524.393 84.1016 524.316 84.179 524.213 84.2242C524.103 84.2694 523.987 84.2759 523.864 84.2307C523.825 84.2178 523.786 84.1984 523.754 84.179C523.722 84.1597 523.683 84.1274 523.638 84.0887C523.612 84.0693 523.593 84.0499 523.573 84.0435C523.56 84.0435 523.541 84.0435 523.515 84.0435C523.496 84.0435 523.47 84.0628 523.451 84.0822L523.418 84.0693L523.58 83.598L523.612 83.6109C523.593 83.753 523.612 83.8756 523.664 83.966C523.715 84.0628 523.786 84.1274 523.877 84.1532C523.948 84.179 524.006 84.179 524.064 84.1532C524.116 84.1274 524.154 84.0951 524.167 84.0435C524.18 84.0112 524.18 83.9854 524.167 83.9466C524.167 83.9143 524.148 83.8821 524.122 83.8433C524.096 83.8046 524.051 83.7529 523.987 83.6884C523.89 83.5915 523.825 83.5205 523.786 83.4624C523.748 83.4043 523.728 83.3462 523.715 83.2881C523.703 83.23 523.715 83.1719 523.728 83.1138C523.761 83.017 523.825 82.9395 523.922 82.8943C524.019 82.8491 524.122 82.8427 524.232 82.8814C524.271 82.8943 524.309 82.9137 524.348 82.933C524.374 82.9524 524.406 82.9782 524.439 83.0105C524.471 83.0428 524.497 83.0622 524.516 83.0686C524.535 83.0751 524.548 83.0686 524.561 83.0686C524.574 83.0622 524.593 83.0428 524.613 83.0041H524.639V83.0105L524.652 83.0492Z" fill="#4B2C1B"></path><path d="M545.349 72.5708L545.175 73.0808H545.201C545.278 73.1131 545.349 73.1131 545.401 73.0744C545.453 73.0356 545.504 72.9711 545.543 72.8742L545.575 72.8871L545.356 73.5456L545.324 73.5327C545.343 73.4617 545.343 73.3972 545.337 73.3391C545.33 73.2874 545.311 73.2422 545.285 73.2164C545.259 73.1906 545.214 73.1647 545.156 73.1454L545.033 73.5005C545.007 73.5715 545.001 73.6102 545.001 73.6296C545.001 73.6489 545.007 73.6619 545.02 73.6812C545.033 73.7006 545.059 73.707 545.091 73.72L545.169 73.7458C545.285 73.7845 545.388 73.791 545.479 73.7587C545.569 73.7264 545.646 73.6619 545.717 73.565L545.75 73.5779L545.556 73.9588L544.471 73.5908L544.484 73.5586L544.523 73.5715C544.562 73.5844 544.594 73.5844 544.62 73.5844C544.639 73.5844 544.659 73.5715 544.672 73.5521C544.684 73.5392 544.697 73.5005 544.723 73.4359L545.001 72.6095C545.02 72.5514 545.033 72.5191 545.033 72.5062C545.033 72.4804 545.033 72.461 545.014 72.4417C544.994 72.4158 544.969 72.3965 544.923 72.3836L544.885 72.3707L544.898 72.3384L545.95 72.6935L545.827 73.0614L545.795 73.0485C545.808 72.9517 545.801 72.8807 545.788 72.829C545.769 72.7774 545.73 72.7322 545.679 72.6935C545.646 72.6676 545.582 72.6418 545.491 72.6095L545.362 72.5643L545.349 72.5708Z" fill="#4B2C1B"></path><path d="M514.98 62.2093L514.967 62.2416C514.967 62.2416 514.922 62.2416 514.903 62.2416C514.884 62.2416 514.864 62.261 514.845 62.2804C514.845 62.2804 514.806 62.3256 514.735 62.403L513.993 63.3069L513.954 63.294L513.915 62.3772L513.302 63.068L513.27 63.0551L513.205 61.893C513.199 61.7768 513.192 61.7058 513.179 61.6735C513.173 61.6477 513.147 61.6219 513.108 61.6089L513.121 61.5767L513.663 61.7574L513.65 61.7897C513.605 61.7768 513.573 61.7703 513.554 61.7833C513.534 61.7897 513.521 61.8026 513.515 61.822C513.508 61.8478 513.508 61.8995 513.515 61.9834L513.554 62.6742L513.909 62.2674V62.119C513.896 62.035 513.896 61.9834 513.883 61.9511C513.876 61.9188 513.864 61.8995 513.844 61.8801C513.825 61.8607 513.799 61.8478 513.76 61.8349L513.773 61.8026L514.38 62.0092L514.367 62.0415C514.322 62.0286 514.29 62.0221 514.27 62.0221C514.257 62.0221 514.244 62.0221 514.232 62.035C514.219 62.0415 514.212 62.0544 514.206 62.0673C514.206 62.0802 514.206 62.1319 514.206 62.2093L514.232 62.8808L514.619 62.4095C514.658 62.3643 514.683 62.3256 514.696 62.3062C514.709 62.2868 514.716 62.2675 514.722 62.2545C514.729 62.2287 514.729 62.2093 514.722 62.1835C514.716 62.1577 514.677 62.1448 514.632 62.1254L514.645 62.0931L514.967 62.2029L514.98 62.2093Z" fill="#4B2C1B"></path><path d="M534.865 51.4277C526.976 48.7355 519.725 53.6679 519.241 55.4239C518.454 57.4188 525.22 55.0107 533.109 57.7029C541.017 60.3498 544.265 66.1408 544.852 64.0814C545.536 62.3964 542.767 54.0746 534.865 51.4277Z" fill="url(#paint8_linear_1945_11754)" fill-opacity="0.4"></path><path d="M396.164 63.9551L399.574 64.8537L398.683 68.2605L399.898 68.584L400.795 65.1668L404.204 66.0654L404.525 64.8422L401.11 63.9539L402.006 60.5368L400.793 60.2214L399.895 63.6305L396.488 62.7399L396.164 63.9551Z" fill="#E70000"></path><path d="M111.642 82.8257C110.803 80.4026 110.227 78.7112 109.915 77.7515C110.131 76.192 110.011 75.1844 109.555 74.7286C109.099 74.2487 108.703 73.577 108.367 72.7133C108.056 71.8496 107.828 71.2138 107.684 70.8059C107.54 70.3741 107.408 69.9662 107.288 69.5823C105.68 74.2127 103.989 78.9391 102.214 83.7614L111.642 82.8257ZM113.694 101.899C115.037 101.755 115.949 101.515 116.429 101.179C116.932 100.819 117.184 100.28 117.184 99.5599C117.184 99.32 117.148 99.0081 117.076 98.6243C117.004 98.2404 116.86 97.6766 116.645 96.9328C116.429 96.1891 116.117 95.1934 115.709 93.9459C115.325 92.6983 114.725 90.779 113.909 88.1879C113.214 88.2359 109.423 88.5118 102.537 89.0156L102.214 87.936C101.518 88.4638 100.714 88.8716 99.8024 89.1595C99.1786 91.1509 98.6748 92.7583 98.2909 93.9819C97.907 95.2054 97.6071 96.1771 97.3912 96.8969C97.1753 97.6166 97.0313 98.1564 96.9594 98.5163C96.9114 98.8762 96.8874 99.1761 96.8874 99.416C96.8874 101.023 98.135 101.851 100.63 101.899L102.07 102.835V103.447C102.07 104.07 102.034 104.454 101.962 104.598C101.914 104.742 101.71 104.814 101.35 104.814C101.182 104.814 100.942 104.814 100.63 104.814C100.39 104.814 100.102 104.79 99.7664 104.742L93.2886 104.67C92.7128 104.862 92.137 104.958 91.5612 104.958L89.0421 104.922L88.3943 104.526L87.3867 105.03L86.595 105.39L86.451 105.102L85.5513 105.246L84.4357 105.822C82.9242 106.302 82.0725 106.35 81.8806 105.966C81.7127 105.558 81.7966 105.294 82.1325 105.174L82.3484 104.346C82.0845 104.154 81.9646 103.95 81.9886 103.734C82.0365 103.495 82.2285 103.327 82.5644 103.231C86.403 102.151 88.5383 101.443 88.9701 101.107C89.402 100.748 89.8938 99.8238 90.4456 98.3364C90.9974 96.8249 91.6452 95.4933 92.389 94.3417C93.1327 93.1662 94.1283 91.1029 95.3759 88.1519C96.4315 84.4572 97.6191 81.0504 98.9387 77.9314C100.258 74.8125 101.254 72.1495 101.926 69.9422C102.597 67.711 103.341 65.9716 104.157 64.724C104.973 63.4765 104.445 61.833 102.573 59.7937L104.769 56.267C107.744 56.123 109.555 55.9791 110.203 55.8351C110.395 55.7631 110.635 55.7272 110.923 55.7272C111.186 55.7272 111.342 55.8111 111.39 55.9791C111.462 56.123 111.618 56.5189 111.858 57.1667C114.065 60.9334 115.529 63.6804 116.249 65.4078C116.968 67.1352 117.52 68.5627 117.904 69.6903L118.408 71.7056L117.148 71.3457L116.645 72.3534L117.508 74.0088L119.631 74.6566L120.747 77.9674L121.863 81.2783L125.569 82.07L124.13 87.4321L122.798 87.5401C123.614 90.1792 124.274 92.1585 124.778 93.478C125.282 94.7736 125.318 96.0931 124.886 97.4367C126.397 98.9481 127.429 99.9918 127.981 100.568C128.556 101.119 129.216 101.479 129.96 101.647C130.704 101.815 131.1 101.971 131.147 102.115C131.195 102.235 131.219 102.619 131.219 103.267C131.219 103.914 130.992 104.382 130.536 104.67C121.851 104.622 117.22 104.61 116.645 104.634C116.093 104.658 115.733 104.67 115.565 104.67C113.981 104.67 113.13 104.598 113.01 104.454C112.914 104.31 112.866 103.926 112.866 103.303C112.866 102.679 112.902 102.307 112.974 102.187C113.046 102.043 113.286 101.947 113.694 101.899ZM150.329 54.8994C154.431 55.4992 157.67 56.6748 160.045 58.4262C161.053 59.3859 161.557 60.2016 161.557 60.8734L162.78 60.6934L170.77 70.2661V70.446C170.218 71.4057 169.762 73.6009 169.402 77.0318C168.443 80.1987 166.451 82.8857 163.428 85.093L162.924 85.8127C163.308 85.8127 164.16 86.7724 165.48 88.6917V89.0516L165.3 90.3471L167.351 91.8586L167.855 91.1029H168.035C170.986 93.9579 173.253 96.9568 174.836 100.1C176.228 103.603 178.843 107.453 182.682 111.652C184.865 113.019 186.388 113.703 187.252 113.703L193.91 112.443H194.234L195.097 112.623V113.343C193.13 115.982 190.347 117.302 186.748 117.302C182.142 117.494 178.003 115.67 174.332 111.832C169.486 106.817 166.307 102.907 164.796 100.1L157.166 88.6917L153.388 88.8716H149.141L148.134 88.6917L147.63 88.8716V95.7812C147.63 96.0212 147.234 96.2131 146.442 96.357V97.1128C146.442 97.4727 146.778 97.6526 147.45 97.6526C147.45 100.316 148.302 102.127 150.005 103.087L152.2 103.267V105.138L145.219 104.598C143.275 104.598 139.82 105.522 134.854 107.369V107.153L134.53 104.958C137.073 104.958 138.597 103.027 139.101 99.1641V80.7745L139.281 72.5333C139.281 70.2781 138.201 69.1505 136.042 69.1505H135.718C135.43 68.7666 135.358 68.2028 135.502 67.4591C135.646 66.7153 135.886 66.3435 136.222 66.3435C143.275 66.8233 148.326 66.8953 151.372 66.5594V68.9706H149.645C148.062 70.2421 147.27 72.5453 147.27 75.8802V78.1474L147.126 84.7331L147.63 84.913C154.155 84.913 157.742 83.9414 158.39 81.998C160.285 80.7745 161.233 78.1834 161.233 74.2247C161.233 68.5867 159.698 64.748 156.627 62.7087C154.084 60.9573 150.833 60.0097 146.874 59.8657C141.14 60.0097 134.47 60.9094 126.865 62.5648L125.497 62.7447C122.882 62.2889 121.575 61.809 121.575 61.3052L119.2 55.2593H119.524C122.115 56.7468 125.521 57.4905 129.744 57.4905C131.903 57.4905 135.202 57.0227 139.641 56.087C144.103 55.1274 147.666 54.7315 150.329 54.8994ZM175.952 56.5549C176.864 55.9791 177.799 55.9911 178.759 56.5909L180.09 56.6268L184.301 56.6988C185.261 57.6585 190.803 57.5385 200.927 56.3389L205.03 56.267L207.117 56.231L209.204 56.195C209.468 60.9214 210.332 65.7917 211.795 70.8059L209.348 72.6413C208.293 69.8582 207.033 67.603 205.57 65.8756C204.106 64.1482 202.811 63.0326 201.683 62.5288C200.555 62.001 199.176 61.821 197.544 61.989L197.508 77.9314L197.472 82.7538L196.969 86.3885L195.637 87.936L195.997 91.1389L197.436 93.8739C197.796 97.4966 198.84 100.076 200.567 101.611L203.015 102.439V105.03C199.512 105.078 196.441 104.934 193.802 104.598C191.163 104.238 189.399 104.25 188.512 104.634C187.648 105.018 185.477 105.234 181.998 105.282L182.322 102.943C183.953 102.055 185.705 100.843 187.576 99.308L187.396 66.8833L188.188 65.1199L187.576 61.7371C183.953 61.5691 181.638 62.049 180.63 63.1766C179.647 64.2802 178.687 65.3958 177.751 66.5234L176.42 67.3151C176.372 68.7786 176.348 70.2901 176.348 71.8496L173.757 71.5617L175.952 56.5549ZM238.102 56.123H238.966L240.442 57.0227L241.485 56.8068H241.917C244.436 56.3509 247.819 56.051 252.065 55.9071C251.778 59.4819 251.802 61.989 252.137 63.4285C252.497 64.868 252.965 66.7873 253.541 69.1865L251.202 71.3817C249.234 67.9749 247.579 65.6717 246.235 64.4721C244.892 63.2485 243.56 62.1089 242.241 61.0533C240.921 59.9977 238.546 59.2659 235.115 58.8581L232.308 59.4699H231.193L230.077 60.5855V61.7011L229.213 63.8963L230.077 68.3588V77.2477L239.362 77.4276H242.133C243.117 76.6839 243.776 76.0241 244.112 75.4483C244.472 74.8485 244.868 74.0328 245.3 73.0012H248.035L248.251 88.0079L245.3 87.756C245.156 86.0286 244.64 84.4812 243.752 83.1136C242.865 81.7461 241.269 81.0624 238.966 81.0624L234 81.1343L230.077 81.2423V95.2054C230.485 97.7486 230.965 99.1401 231.517 99.38C232.092 99.5959 233.004 99.7039 234.252 99.7039C235.523 99.7039 237.527 99.5359 240.262 99.2001V100.136L239.578 100.819L241.305 101.287L241.701 99.9198C244.94 99.9198 248.275 100.148 251.706 100.604C255.136 101.059 257.38 101.311 258.435 101.359C259.515 101.407 260.87 101.095 262.502 100.424C264.133 99.7519 264.901 100.244 264.805 101.899C264.733 103.531 264.349 104.346 263.653 104.346C262.958 104.346 261.41 104.49 259.011 104.778C256.612 105.042 254.681 105.042 253.217 104.778C251.754 104.49 249.534 104.346 246.559 104.346C243.608 104.346 239.482 104.262 234.18 104.094C228.878 103.926 225.459 103.89 223.923 103.986C222.412 104.082 220.948 104.166 219.533 104.238C218.141 104.31 216.378 104.346 214.243 104.346L214.459 102.151C216.45 101.839 217.757 101.431 218.381 100.927C219.005 100.4 219.533 99.6559 219.965 98.6962C220.396 97.7126 220.672 95.4214 220.792 91.8226L220.612 76.5639L221.44 76.0961V75.4123L222.052 74.9805L222.7 74.8005L223.132 74.9805H223.563H224.175L224.391 74.5486V73.6129H223.563C222.988 73.7809 222.136 73.8649 221.008 73.8649L220.612 68.2868C220.301 65.2638 219.965 63.2725 219.605 62.3129C219.269 61.3292 218.669 60.5495 217.805 59.9737C216.966 59.3739 215.574 58.99 213.631 58.8221L214.89 55.9071L238.102 56.123ZM325.012 53.172C324.82 56.195 324.808 58.5222 324.976 60.1536C325.168 61.7851 325.372 63.1646 325.588 64.2922C325.828 65.4198 326.176 66.2955 326.632 66.9193L323.321 68.5747C323.225 67.0152 322.889 65.5278 322.313 64.1122C321.737 62.6727 320.958 61.4852 319.974 60.5495C319.014 59.6138 317.947 58.9061 316.771 58.4262C315.595 57.9464 314.264 57.8264 312.776 58.0663C311.289 58.2823 309.538 58.7501 307.522 59.4699C305.507 60.1656 304.415 60.7894 304.247 61.3412C304.103 61.869 303.468 62.1329 302.34 62.1329L302.484 64.3642C301.236 66.0676 300.313 67.675 299.713 69.1865C299.137 70.698 298.753 72.2454 298.561 73.8289C298.393 75.3883 298.309 77.4036 298.309 79.8748C298.309 82.3219 298.513 84.5771 298.921 86.6404C299.329 88.6797 300.157 90.5151 301.404 92.1465C302.652 93.7539 303.875 95.2414 305.075 96.609C306.275 97.9765 307.774 99.0801 309.574 99.9198C311.397 100.76 313.448 101.311 315.727 101.575C318.031 101.839 320.058 101.839 321.809 101.575C323.585 101.311 325 100.891 326.056 100.316C327.111 99.7399 328.503 98.4923 330.23 96.573C330.23 98.7082 329.846 100.208 329.079 101.071C328.311 101.935 326.931 102.691 324.94 103.339C322.949 103.962 320.838 104.394 318.606 104.634C316.399 104.85 314.264 104.91 312.201 104.814C310.137 104.718 308.11 104.358 306.119 103.734C304.127 103.087 302.424 102.307 301.008 101.395C299.593 100.484 299.233 99.6919 299.929 99.0201L296.654 98.1924C293.775 94.8576 291.976 92.3624 291.256 90.707C290.536 89.0516 290.02 87.3602 289.708 85.6328C289.397 83.8814 289.241 81.974 289.241 79.9108L286.542 77.3556L288.953 74.1528C289.313 72.4493 290.056 70.506 291.184 68.3228C292.311 66.1155 293.859 63.8723 295.826 61.5931C297.818 59.2899 299.965 57.5745 302.268 56.4469C304.571 55.3193 306.623 54.6235 308.422 54.3596C310.245 54.0957 312.548 54.0238 315.331 54.1437C318.115 54.2637 321.341 53.9398 325.012 53.172ZM346.965 54.3236C349.532 54.3236 353.25 54.5756 358.121 55.0794V55.4033C355.002 57.3706 351.715 58.3542 348.26 58.3542C344.325 59.026 342.358 59.5898 342.358 60.0457C341.015 60.5975 339.791 62.085 338.687 64.5081C336.552 68.0829 335.484 72.9292 335.484 79.0471V79.6948C335.484 86.0286 336.66 90.671 339.011 93.622C341.458 97.6526 343.942 99.9918 346.461 100.64C347.252 100.999 348.056 101.251 348.872 101.395C349.712 101.539 350.779 101.383 352.075 100.927C353.394 100.472 355.062 99.5599 357.077 98.1924C357.389 97.3287 357.989 96.8969 358.876 96.8969H358.912V95.6013L358.804 95.0615C361.084 91.8706 362.223 87.816 362.223 82.8977L362.331 81.0264C362.331 75.5083 361.228 71.2378 359.02 68.2148C356.693 64.6401 354.102 62.6008 351.247 62.0969L345.129 60.7294C344.026 60.8974 343.474 60.6574 343.474 60.0097C343.474 59.3619 345.513 59.038 349.592 59.038C354.246 59.038 358.121 60.1896 361.216 62.4928L361.324 63.1046V63.3205L361.108 63.6804C363.315 64.1122 364.418 64.6521 364.418 65.2998C366.674 68.0829 368.089 70.3741 368.665 72.1734C369.193 74.0208 369.721 76.384 370.248 79.263L372.192 83.2216C370.656 85.1649 369.817 86.7124 369.673 87.864C368.905 90.791 367.046 94.1498 364.095 97.9405C360.64 102.139 355.961 104.454 350.059 104.886C347.276 104.886 344.074 104.214 340.451 102.871C337.812 101.431 336.492 100.292 336.492 99.452V99.344L336.708 98.6243C334.597 98.2404 333.541 97.7246 333.541 97.0768C330.35 92.8783 328.623 89.1595 328.359 85.9207L327.675 80.8104L325.624 77.3197C327.087 74.6086 328.191 71.9815 328.935 69.4384C330.686 65.3598 332.749 62.049 335.125 59.5058C338.22 56.051 342.166 54.3236 346.965 54.3236ZM364.706 54.1797C366.266 51.0368 367.825 49.2374 369.385 48.7816C370.968 48.3257 373.043 48.5656 375.611 49.5013C378.178 50.461 380.697 52.5243 383.168 55.6912C385.639 58.8581 387.906 62.9606 389.97 67.9989L390.725 70.7339L388.998 72.2094L391.013 74.2607L393.064 75.5203L392.993 77.4276L394.576 79.299L394.54 81.2063L396.123 83.0777C398.187 88.1159 399.41 91.0789 399.794 91.9666C401.45 88.2958 403.873 82.8617 407.064 75.6642L409.511 70.2301C410.806 67.3031 411.814 64.868 412.534 62.9247C413.253 61.0053 413.829 59.17 414.261 57.4186C414.381 57.0347 414.477 56.7828 414.549 56.6628C414.645 56.5429 414.837 56.4829 415.125 56.4829H415.557L418.544 56.5189L418.652 57.0587L418.292 57.2386L419.191 57.4186L419.911 57.2386L420.019 56.7708L421.063 56.5549H422.754C425.033 56.5069 426.509 56.4469 427.181 56.3749H427.936C428.224 56.3749 428.404 56.4589 428.476 56.6268C428.572 56.7708 428.62 57.0827 428.62 57.5625C428.62 58.1623 428.608 58.5942 428.584 58.8581C428.56 59.098 428.524 59.2539 428.476 59.3259C428.404 59.4219 428.248 59.5058 428.008 59.5778C427.768 59.6498 427.289 59.7338 426.569 59.8297C425.681 59.9737 424.997 60.1536 424.518 60.3695C424.038 60.5615 423.678 60.9693 423.438 61.5931C423.222 62.1929 423.078 63.0686 423.006 64.2202C422.934 65.3478 422.622 66.4994 422.07 67.675C422.622 69.0185 422.622 70.3261 422.07 71.5976L422.898 73.8649L422.97 79.4069L422.718 89.3035L422.466 91.5707L422.754 92.9742L421.998 95.5653C422.79 96.9328 423.246 98.0485 423.366 98.9122C423.486 99.7519 423.714 100.4 424.05 100.855C424.386 101.311 424.829 101.635 425.381 101.827C425.957 101.995 426.713 102.103 427.648 102.151C428.32 102.151 428.704 102.199 428.8 102.295C428.92 102.367 428.98 102.775 428.98 103.519C428.98 104.238 428.944 104.682 428.872 104.85C428.8 105.018 428.644 105.102 428.404 105.102H427.181C426.677 105.102 426.065 105.09 425.345 105.066C424.65 105.042 423.834 104.91 422.898 104.67C421.962 104.43 421.051 104.31 420.163 104.31C419.419 104.742 418.652 104.682 417.86 104.13C417.428 104.682 416.816 104.682 416.024 104.13C414.513 103.986 413.481 104.106 412.93 104.49C412.402 104.85 411.718 105.042 410.878 105.066C410.039 105.09 409.379 105.102 408.899 105.102H408.431C408.047 105.102 407.819 105.042 407.747 104.922C407.675 104.802 407.639 104.31 407.639 103.447C407.639 102.871 407.687 102.511 407.783 102.367C407.903 102.223 408.119 102.127 408.431 102.079C409.799 101.983 410.866 101.839 411.634 101.647C412.402 101.431 412.954 100.963 413.289 100.244C413.625 99.5 413.889 97.6886 414.081 94.8096V90.9589V88.2958V80.9184L414.369 79.6948L415.233 79.083L414.693 77.6076L414.045 76.9598V75.5563L414.153 69.6903L414.261 67.783L413.721 69.5464L412.858 72.4613L411.058 76.7439L408.035 83.5455L405.372 89.2675C403.957 92.3384 402.757 95.0495 401.773 97.4007C400.79 99.7279 400.142 101.143 399.83 101.647C399.518 102.127 398.487 102.211 396.735 101.899C395.008 101.563 394 101.107 393.712 100.532C393.424 99.9318 392.897 98.6602 392.129 96.7169C391.361 94.7736 390.365 92.2785 389.142 89.2315C387.918 86.1606 386.311 82.226 384.32 77.4276L383.528 73.7209L382.376 72.5333L382.16 69.9782L381.261 68.2508L380.685 66.6314L380.793 68.3228L380.469 69.4744L380.793 70.446L380.469 72.2454L380.433 73.0012L380.469 73.6489L380.793 74.0808L380.145 75.3763L380.721 76.312L380.757 79.119L380.505 82.3219L380.037 86.8204C380.469 90.4191 380.721 93.2261 380.793 95.2414C380.865 97.2567 381.105 98.7682 381.512 99.7759C381.92 100.76 382.52 101.383 383.312 101.647C384.104 101.887 385.183 102.007 386.551 102.007C387.294 102.055 387.666 102.403 387.666 103.051C387.666 103.962 387.618 104.538 387.522 104.778C387.426 104.994 387.211 105.102 386.875 105.102H386.047C385.591 105.102 385.039 105.09 384.391 105.066C383.768 105.042 383.108 105.018 382.412 104.994C381.74 104.97 381.309 104.466 381.117 103.483C379.317 103.746 378.406 104.034 378.382 104.346C378.142 104.754 377.602 104.454 376.762 103.447C375.922 104.454 375.095 104.97 374.279 104.994C373.463 105.018 372.696 105.042 371.976 105.066C371.28 105.09 370.752 105.102 370.392 105.102C370.2 105.174 369.996 105.21 369.781 105.21C369.589 105.21 369.445 105.21 369.349 105.21C369.085 105.21 368.917 105.126 368.845 104.958C368.797 104.766 368.773 104.262 368.773 103.447C368.773 102.871 368.821 102.523 368.917 102.403C369.013 102.283 369.241 102.199 369.601 102.151C371.328 101.935 372.528 101.611 373.199 101.179C373.895 100.724 374.399 99.9678 374.711 98.9122C374.927 98.3364 375.107 97.6526 375.251 96.8609C375.419 96.0452 375.826 94.0778 376.474 90.9589L376.186 82.9697L376.366 76.348L376.546 70.3021L376.618 68.9346C376.666 67.3031 376.69 66.1995 376.69 65.6237C376.69 64.4481 376.702 63.4525 376.726 62.6368C376.774 61.7971 376.498 60.6934 375.898 59.3259C375.323 57.9344 373.847 56.5309 371.472 55.1154C369.121 53.6759 366.866 53.364 364.706 54.1797ZM447.442 54.3236C450.009 54.3236 453.727 54.5756 458.598 55.0794V55.4033C455.479 57.3706 452.192 58.3542 448.737 58.3542C444.803 59.026 442.835 59.5898 442.835 60.0457C441.492 60.5975 440.268 62.085 439.164 64.5081C437.029 68.0829 435.962 72.9292 435.962 79.0471V79.6948C435.962 86.0286 437.137 90.671 439.488 93.622C441.936 97.6526 444.419 99.9918 446.938 100.64C447.729 100.999 448.533 101.251 449.349 101.395C450.189 101.539 451.256 101.383 452.552 100.927C453.871 100.472 455.539 99.5599 457.554 98.1924C457.866 97.3287 458.466 96.8969 459.353 96.8969H459.389V95.6013L459.281 95.0615C461.561 91.8706 462.7 87.816 462.7 82.8977L462.808 81.0264C462.808 75.5083 461.705 71.2378 459.497 68.2148C457.17 64.6401 454.579 62.6008 451.724 62.0969L445.606 60.7294C444.503 60.8974 443.951 60.6574 443.951 60.0097C443.951 59.3619 445.99 59.038 450.069 59.038C454.723 59.038 458.598 60.1896 461.693 62.4928L461.801 63.1046V63.3205L461.585 63.6804C463.792 64.1122 464.896 64.6521 464.896 65.2998C467.151 68.0829 468.566 70.3741 469.142 72.1734C469.67 74.0208 470.198 76.384 470.726 79.263L472.669 83.2216C471.133 85.1649 470.294 86.7124 470.15 87.864C469.382 90.791 467.523 94.1498 464.572 97.9405C461.117 102.139 456.438 104.454 450.537 104.886C447.753 104.886 444.551 104.214 440.928 102.871C438.289 101.431 436.969 100.292 436.969 99.452V99.344L437.185 98.6243C435.074 98.2404 434.018 97.7246 434.018 97.0768C430.827 92.8783 429.1 89.1595 428.836 85.9207L428.152 80.8104L426.101 77.3197C427.565 74.6086 428.668 71.9815 429.412 69.4384C431.163 65.3598 433.227 62.049 435.602 59.5058C438.697 56.051 442.643 54.3236 447.442 54.3236ZM70.0047 123.827H70.2207C71.4202 124.883 75.3909 125.699 82.1325 126.275L99.1546 124.367H105.057C110.935 124.367 115.949 126.371 120.099 130.377C121.851 132.56 123.086 134.504 123.806 136.207C125.126 136.807 125.785 137.239 125.785 137.503L123.806 140.886C123.806 145.18 121.527 149.043 116.968 152.474C112.554 154.609 108.967 155.676 106.208 155.676H104.805L98.5428 155.281L98.3629 161.29V161.506L97.7871 162.226L98.1829 163.558C97.3912 163.702 96.9954 163.894 96.9954 164.133L97.2113 165.033H97.3912L98.1829 164.493H98.5428C98.9507 169.244 100.198 171.619 102.286 171.619L103.257 171.439H104.445L104.805 173.454L102.897 173.634H95.8438C93.4446 173.634 89.8458 174.27 85.0475 175.542C84.2798 174.486 83.8959 173.79 83.8959 173.454H84.1118C87.8785 172.159 89.7619 170.599 89.7619 168.776L89.9418 166.329V137.503C88.2864 135.943 86.8589 135.008 85.6593 134.696V133.76C85.9232 133.256 86.3191 133.004 86.8469 133.004L91.7412 133.4H92.8928L103.437 133.004L103.689 134.3C101.482 134.3 99.8504 135.799 98.7947 138.798C98.3869 139.614 98.1829 140.49 98.1829 141.425V145.924C97.7991 146.38 97.6071 146.823 97.6071 147.255C98.111 147.423 98.3629 147.855 98.3629 148.551V148.731C97.8591 149.283 97.6071 149.786 97.6071 150.242C98.111 150.242 98.3629 150.806 98.3629 151.934L98.5428 152.114H98.7947L104.805 152.294C108.451 152.294 111.402 150.23 113.658 146.104C114.161 143.585 114.413 141.533 114.413 139.95C113.79 136.207 112.878 134.06 111.678 133.508L111.462 133.148L112.866 133.076L113.73 132.392L113.514 132.536L113.01 131.313L111.894 130.809L111.534 131.637L110.527 131.565L110.311 132.033H110.131C107.372 129.418 104.169 128.11 100.522 128.11C100.522 127.942 99.5505 127.822 97.6071 127.75C93.4086 127.75 87.0148 128.938 78.4258 131.313H77.2382C74.1433 130.953 72.5958 130.389 72.5958 129.621L70.0047 123.827ZM151.48 123.899C155.583 124.499 158.822 125.675 161.197 127.426C162.205 128.386 162.709 129.202 162.709 129.873L163.932 129.693L171.921 139.266V139.446C171.37 140.406 170.914 142.601 170.554 146.032C169.594 149.199 167.603 151.886 164.58 154.093L164.076 154.813C164.46 154.813 165.312 155.772 166.631 157.692V158.052L166.451 159.347L168.503 160.859L169.006 160.103H169.186C172.137 162.958 174.404 165.957 175.988 169.1C177.379 172.603 179.995 176.453 183.833 180.652C186.016 182.019 187.54 182.703 188.404 182.703L195.061 181.443H195.385L196.249 181.623V182.343C194.282 184.982 191.499 186.302 187.9 186.302C183.293 186.494 179.155 184.67 175.484 180.832C170.638 175.817 167.459 171.907 165.947 169.1L158.318 157.692L154.539 157.872H150.293L149.285 157.692L148.781 157.872V164.781C148.781 165.021 148.385 165.213 147.594 165.357V166.113C147.594 166.473 147.93 166.653 148.601 166.653C148.601 169.316 149.453 171.127 151.157 172.087L153.352 172.267V174.138L146.37 173.598C144.427 173.598 140.972 174.522 136.006 176.369V176.153L135.682 173.958C138.225 173.958 139.748 172.027 140.252 168.164V149.774L140.432 141.533C140.432 139.278 139.353 138.15 137.193 138.15H136.869C136.582 137.767 136.51 137.203 136.654 136.459C136.798 135.715 137.037 135.343 137.373 135.343C144.427 135.823 149.477 135.895 152.524 135.559V137.971H150.797C149.213 139.242 148.421 141.545 148.421 144.88V147.147L148.278 153.733L148.781 153.913C155.307 153.913 158.894 152.941 159.542 150.998C161.437 149.774 162.385 147.183 162.385 143.225C162.385 137.587 160.849 133.748 157.778 131.709C155.235 129.957 151.984 129.01 148.026 128.866C142.292 129.01 135.622 129.909 128.017 131.565L126.649 131.745C124.034 131.289 122.726 130.809 122.726 130.305L120.351 124.259H120.675C123.266 125.747 126.673 126.491 130.896 126.491C133.055 126.491 136.354 126.023 140.792 125.087C145.255 124.127 148.817 123.732 151.48 123.899ZM195.169 123.324C197.736 123.324 201.455 123.576 206.325 124.079V124.403C203.206 126.371 199.92 127.354 196.465 127.354C192.53 128.026 190.563 128.59 190.563 129.046C189.219 129.597 187.996 131.085 186.892 133.508C184.757 137.083 183.689 141.929 183.689 148.047V148.695C183.689 155.029 184.865 159.671 187.216 162.622C189.663 166.653 192.146 168.992 194.665 169.64C195.457 169.999 196.261 170.251 197.077 170.395C197.916 170.539 198.984 170.383 200.279 169.927C201.599 169.472 203.266 168.56 205.282 167.192C205.594 166.329 206.193 165.897 207.081 165.897H207.117V164.601L207.009 164.061C209.288 160.871 210.428 156.816 210.428 151.898L210.536 150.026C210.536 144.508 209.432 140.238 207.225 137.215C204.898 133.64 202.307 131.601 199.452 131.097L193.334 129.729C192.23 129.897 191.678 129.657 191.678 129.01C191.678 128.362 193.718 128.038 197.796 128.038C202.451 128.038 206.325 129.19 209.42 131.493L209.528 132.105V132.321L209.312 132.68C211.52 133.112 212.623 133.652 212.623 134.3C214.878 137.083 216.294 139.374 216.87 141.173C217.398 143.021 217.925 145.384 218.453 148.263L220.396 152.222C218.861 154.165 218.021 155.712 217.877 156.864C217.11 159.791 215.25 163.15 212.299 166.94C208.844 171.139 204.166 173.454 198.264 173.886C195.481 173.886 192.278 173.214 188.656 171.871C186.016 170.431 184.697 169.292 184.697 168.452V168.344L184.913 167.624C182.802 167.24 181.746 166.725 181.746 166.077C178.555 161.878 176.828 158.16 176.564 154.921L175.88 149.81L173.829 146.32C175.292 143.609 176.396 140.982 177.14 138.438C178.891 134.36 180.954 131.049 183.329 128.506C186.424 125.051 190.371 123.324 195.169 123.324ZM246.883 158.483C246.883 158.915 246.823 159.179 246.703 159.275C246.583 159.371 246.248 159.419 245.696 159.419C244.952 159.419 244.52 159.371 244.4 159.275C244.28 159.179 244.196 158.843 244.148 158.268C244.052 156.996 243.908 156 243.716 155.281C243.548 154.537 243.093 153.997 242.349 153.661C241.605 153.325 240.454 153.109 238.894 153.013C237.335 152.917 235.679 152.869 233.928 152.869V156.864L234 159.527L233.64 161.075L233.604 162.082L233.316 162.694L233.64 163.486V164.421L234.18 165.357C234.252 166.533 234.36 167.48 234.504 168.2C234.648 168.896 234.899 169.424 235.259 169.784C235.619 170.119 236.135 170.347 236.807 170.467C237.503 170.563 238.402 170.611 239.506 170.611C240.058 170.611 240.382 170.671 240.478 170.791C240.597 170.911 240.657 171.283 240.657 171.907C240.657 172.722 240.621 173.226 240.549 173.418C240.478 173.586 240.322 173.67 240.082 173.67H239.29L237.059 173.598C230.101 173.214 226.011 173.298 224.787 173.85C223.587 174.378 222.448 174.834 221.368 175.218C220.289 175.577 219.389 176.069 218.669 176.693H218.273C217.889 176.693 217.649 176.621 217.553 176.477C217.481 176.333 217.446 175.865 217.446 175.074C217.446 174.546 217.481 174.21 217.553 174.066C217.649 173.898 217.865 173.766 218.201 173.67C219.449 172.782 220.36 172.219 220.936 171.979C221.512 171.739 222.256 170.971 223.168 169.676C224.079 168.38 224.643 166.569 224.859 164.241L224.931 161.254L225.399 160.175L225.003 155.353L225.363 140.022L225.651 138.87L226.298 138.762L225.867 137.431L225.075 136.747C224.931 133.364 224.727 131.253 224.463 130.413C224.223 129.549 223.839 128.998 223.311 128.758C222.784 128.518 222.076 128.374 221.188 128.326C220.396 128.278 219.929 128.218 219.785 128.146C219.665 128.074 219.665 127.774 219.785 127.246C219.905 126.718 220.001 126.383 220.073 126.239C220.145 126.071 220.313 125.735 220.576 125.231H221.116C221.764 125.231 222.916 125.255 224.571 125.303C226.25 125.327 227.93 125.531 229.609 125.915C231.313 126.299 235.007 126.263 240.693 125.807C246.403 125.351 250.41 125.123 252.713 125.123L254.045 125.339L255.484 125.987L256.168 125.123L260.738 125.159C260.259 128.998 260.139 131.397 260.379 132.357C260.619 133.292 261.23 135.727 262.214 139.662L258.903 141.281C257.752 139.386 256.624 137.719 255.52 136.279C254.441 134.84 253.433 133.508 252.497 132.285C251.562 131.037 250.278 130.101 248.647 129.478C240.921 129.454 236.771 129.454 236.195 129.478C235.619 129.502 235.187 129.549 234.899 129.621C234.636 129.693 234.444 129.825 234.324 130.017C234.228 130.185 234.156 130.425 234.108 130.737C234.036 131.025 233.988 132.057 233.964 133.832C233.94 135.583 233.952 139.134 234 144.484V148.083V149.055H235.115C235.739 149.055 236.183 149.043 236.447 149.019C236.711 148.995 237.215 148.947 237.958 148.875C238.702 148.803 239.386 148.731 240.01 148.659C240.633 148.587 241.137 148.491 241.521 148.371C242.721 148.083 243.5 147.423 243.86 146.392C243.956 146.056 244.016 145.78 244.04 145.564C244.064 145.324 244.124 144.664 244.22 143.585C244.292 143.201 244.388 142.925 244.508 142.757C244.652 142.589 244.94 142.505 245.372 142.505C245.972 142.505 246.355 142.541 246.523 142.613C246.715 142.685 246.811 142.937 246.811 143.369C246.811 143.513 246.799 144.076 246.775 145.06L246.703 150.278L246.092 150.89L246.236 151.682L246.379 152.222L246.775 152.725L246.487 155.317L246.883 157.08V158.483ZM264.445 124.907L274.594 125.195L276.825 126.706L278.156 125.663L282.907 125.447L282.439 127.462C280.783 127.846 279.728 128.47 279.272 129.334C278.816 130.197 278.444 132.201 278.156 135.343V142.433L277.509 143.944H276.573L274.774 146.32L275.709 147.651V148.875L277.221 149.666H277.976V151.286L278.588 166.653C278.78 168.908 279.536 170.467 280.855 171.331L283.339 171.799V173.922C277.365 173.586 271.367 173.586 265.345 173.922L265.129 171.331C266.616 171.139 267.588 170.743 268.044 170.143C268.524 169.52 268.836 168.164 268.98 166.077L268.764 133.04C268.14 131.145 267.6 129.837 267.144 129.118C266.712 128.398 265.669 128.038 264.013 128.038L264.445 124.907ZM313.64 123.612C314.048 127.618 315.176 132.033 317.023 136.855L313.856 137.035C313.136 135.116 311.757 133.484 309.717 132.141C307.702 130.797 305.723 129.825 303.78 129.226C301.836 128.626 299.953 128.518 298.129 128.902C296.306 129.262 294.927 130.149 293.991 131.565C293.079 132.956 293.043 134.324 293.883 135.667C294.723 137.011 295.083 137.959 294.963 138.51L294.783 139.374L295.286 139.662L295.25 140.094L295.574 140.382L295.502 140.742L296.042 141.245L296.006 141.029L296.186 140.994L296.474 140.886L296.654 141.245L296.798 141.029L297.122 141.137L297.014 140.922L297.23 140.598H297.41L297.626 140.346L297.77 140.274L297.986 140.13L298.633 139.806L300.361 140.886C301.512 141.605 303.66 142.637 306.802 143.98C309.969 145.324 312.524 147.159 314.468 149.487C316.435 151.814 318.498 155.089 320.658 159.311L319.002 162.658C317.899 165.345 316.483 167.576 314.756 169.352C313.028 171.127 310.833 172.603 308.17 173.778C305.507 174.954 302.952 175.625 300.505 175.793C298.057 175.961 295.886 175.865 293.991 175.506C292.096 175.122 290.032 174.114 287.801 172.483C285.57 170.827 284.106 169.184 283.411 167.552C282.715 165.897 282.679 164.205 283.303 162.478C283.926 160.751 284.97 159.263 286.434 158.016C287.897 156.744 289.325 155.916 290.716 155.532C292.132 155.149 293.343 155.041 294.351 155.209C294.615 157.272 294.987 159.191 295.466 160.967C293.259 160.535 291.568 160.475 290.392 160.787C289.217 161.099 288.413 161.998 287.981 163.486C287.549 164.973 287.873 166.473 288.953 167.984C290.032 169.496 291.196 170.575 292.443 171.223C293.691 171.871 295.262 172.315 297.158 172.555C299.053 172.794 300.912 172.686 302.736 172.231C304.559 171.775 306.239 170.839 307.774 169.424C309.31 167.984 310.293 166.449 310.725 164.817L311.913 163.558L311.481 161.758C311.121 161.614 310.761 160.883 310.401 159.563C309.753 157.692 306.694 155.269 301.224 152.294C295.49 149.894 291.676 147.915 289.78 146.356C287.909 144.796 286.589 143.201 285.822 141.569C285.054 139.914 284.37 138.45 283.77 137.179L285.426 135.128C285.906 133.88 286.649 132.476 287.657 130.917C288.665 129.334 289.924 128.014 291.436 126.958C292.947 125.903 294.363 125.231 295.682 124.943C297.026 124.655 298.777 124.511 300.936 124.511C303.096 124.511 304.943 124.583 306.479 124.727C308.014 124.871 309.597 124.715 311.229 124.259L313.64 123.612ZM353.73 123.612C354.138 127.618 355.266 132.033 357.113 136.855L353.946 137.035C353.226 135.116 351.847 133.484 349.808 132.141C347.792 130.797 345.813 129.825 343.87 129.226C341.926 128.626 340.043 128.518 338.22 128.902C336.396 129.262 335.017 130.149 334.081 131.565C333.169 132.956 333.133 134.324 333.973 135.667C334.813 137.011 335.173 137.959 335.053 138.51L334.873 139.374L335.377 139.662L335.341 140.094L335.664 140.382L335.592 140.742L336.132 141.245L336.096 141.029L336.276 140.994L336.564 140.886L336.744 141.245L336.888 141.029L337.212 141.137L337.104 140.922L337.32 140.598H337.5L337.716 140.346L337.86 140.274L338.076 140.13L338.723 139.806L340.451 140.886C341.602 141.605 343.75 142.637 346.893 143.98C350.059 145.324 352.615 147.159 354.558 149.487C356.525 151.814 358.588 155.089 360.748 159.311L359.092 162.658C357.989 165.345 356.573 167.576 354.846 169.352C353.118 171.127 350.923 172.603 348.26 173.778C345.597 174.954 343.042 175.625 340.595 175.793C338.148 175.961 335.976 175.865 334.081 175.506C332.186 175.122 330.122 174.114 327.891 172.483C325.66 170.827 324.196 169.184 323.501 167.552C322.805 165.897 322.769 164.205 323.393 162.478C324.016 160.751 325.06 159.263 326.524 158.016C327.987 156.744 329.415 155.916 330.806 155.532C332.222 155.149 333.433 155.041 334.441 155.209C334.705 157.272 335.077 159.191 335.556 160.967C333.349 160.535 331.658 160.475 330.482 160.787C329.307 161.099 328.503 161.998 328.071 163.486C327.639 164.973 327.963 166.473 329.043 167.984C330.122 169.496 331.286 170.575 332.534 171.223C333.781 171.871 335.353 172.315 337.248 172.555C339.143 172.794 341.003 172.686 342.826 172.231C344.649 171.775 346.329 170.839 347.864 169.424C349.4 167.984 350.383 166.449 350.815 164.817L352.003 163.558L351.571 161.758C351.211 161.614 350.851 160.883 350.491 159.563C349.843 157.692 346.785 155.269 341.314 152.294C335.58 149.894 331.766 147.915 329.87 146.356C327.999 144.796 326.68 143.201 325.912 141.569C325.144 139.914 324.46 138.45 323.861 137.179L325.516 135.128C325.996 133.88 326.74 132.476 327.747 130.917C328.755 129.334 330.014 128.014 331.526 126.958C333.037 125.903 334.453 125.231 335.772 124.943C337.116 124.655 338.867 124.511 341.027 124.511C343.186 124.511 345.033 124.583 346.569 124.727C348.104 124.871 349.688 124.715 351.319 124.259L353.73 123.612ZM392.561 151.826C391.721 149.403 391.145 147.711 390.833 146.752C391.049 145.192 390.929 144.184 390.473 143.729C390.018 143.249 389.622 142.577 389.286 141.713C388.974 140.85 388.746 140.214 388.602 139.806C388.458 139.374 388.326 138.966 388.206 138.582C386.599 143.213 384.907 147.939 383.132 152.761L392.561 151.826ZM394.612 170.899C395.955 170.755 396.867 170.515 397.347 170.179C397.851 169.819 398.103 169.28 398.103 168.56C398.103 168.32 398.067 168.008 397.995 167.624C397.923 167.24 397.779 166.677 397.563 165.933C397.347 165.189 397.035 164.193 396.627 162.946C396.243 161.698 395.644 159.779 394.828 157.188C394.132 157.236 390.341 157.512 383.456 158.016L383.132 156.936C382.436 157.464 381.632 157.872 380.721 158.16C380.097 160.151 379.593 161.758 379.209 162.982C378.825 164.205 378.526 165.177 378.31 165.897C378.094 166.617 377.95 167.156 377.878 167.516C377.83 167.876 377.806 168.176 377.806 168.416C377.806 170.023 379.053 170.851 381.548 170.899L382.988 171.835V172.447C382.988 173.07 382.952 173.454 382.88 173.598C382.832 173.742 382.628 173.814 382.268 173.814C382.1 173.814 381.86 173.814 381.548 173.814C381.309 173.814 381.021 173.79 380.685 173.742L374.207 173.67C373.631 173.862 373.055 173.958 372.48 173.958L369.961 173.922L369.313 173.526L368.305 174.03L367.513 174.39L367.369 174.102L366.47 174.246L365.354 174.822C363.843 175.302 362.991 175.35 362.799 174.966C362.631 174.558 362.715 174.294 363.051 174.174L363.267 173.346C363.003 173.154 362.883 172.95 362.907 172.734C362.955 172.495 363.147 172.327 363.483 172.231C367.321 171.151 369.457 170.443 369.889 170.107C370.32 169.748 370.812 168.824 371.364 167.336C371.916 165.825 372.564 164.493 373.307 163.342C374.051 162.166 375.047 160.103 376.294 157.152C377.35 153.457 378.538 150.05 379.857 146.931C381.177 143.813 382.172 141.149 382.844 138.942C383.516 136.711 384.26 134.972 385.075 133.724C385.891 132.476 385.363 130.833 383.492 128.794L385.687 125.267C388.662 125.123 390.473 124.979 391.121 124.835C391.313 124.763 391.553 124.727 391.841 124.727C392.105 124.727 392.261 124.811 392.309 124.979C392.381 125.123 392.537 125.519 392.777 126.167C394.984 129.933 396.447 132.68 397.167 134.408C397.887 136.135 398.439 137.563 398.822 138.69L399.326 140.706L398.067 140.346L397.563 141.353L398.427 143.009L400.55 143.657L401.665 146.967L402.781 150.278L406.488 151.07L405.048 156.432L403.717 156.54C404.532 159.179 405.192 161.159 405.696 162.478C406.2 163.774 406.236 165.093 405.804 166.437C407.316 167.948 408.347 168.992 408.899 169.568C409.475 170.119 410.135 170.479 410.878 170.647C411.622 170.815 412.018 170.971 412.066 171.115C412.114 171.235 412.138 171.619 412.138 172.267C412.138 172.914 411.91 173.382 411.454 173.67C402.769 173.622 398.139 173.61 397.563 173.634C397.011 173.658 396.651 173.67 396.483 173.67C394.9 173.67 394.048 173.598 393.928 173.454C393.832 173.31 393.784 172.926 393.784 172.303C393.784 171.679 393.82 171.307 393.892 171.187C393.964 171.043 394.204 170.947 394.612 170.899ZM376.87 118.645L380.685 116.63C381.716 117.926 383.06 118.705 384.715 118.969C386.371 119.233 387.894 118.813 389.286 117.71C390.677 116.582 392.657 116.258 395.224 116.738C397.791 117.194 399.818 118.333 401.306 120.157L399.542 121.992C397.695 120.721 396.003 119.989 394.468 119.797C392.933 119.581 391.337 120.013 389.682 121.092C388.05 122.172 386.323 122.52 384.499 122.136C382.7 121.728 380.157 120.565 376.87 118.645ZM435.278 123.324C437.845 123.324 441.564 123.576 446.434 124.079V124.403C443.315 126.371 440.028 127.354 436.573 127.354C432.639 128.026 430.671 128.59 430.671 129.046C429.328 129.597 428.104 131.085 427.001 133.508C424.865 137.083 423.798 141.929 423.798 148.047V148.695C423.798 155.029 424.973 159.671 427.325 162.622C429.772 166.653 432.255 168.992 434.774 169.64C435.566 169.999 436.369 170.251 437.185 170.395C438.025 170.539 439.092 170.383 440.388 169.927C441.708 169.472 443.375 168.56 445.39 167.192C445.702 166.329 446.302 165.897 447.19 165.897H447.226V164.601L447.118 164.061C449.397 160.871 450.537 156.816 450.537 151.898L450.644 150.026C450.644 144.508 449.541 140.238 447.334 137.215C445.006 133.64 442.415 131.601 439.56 131.097L433.442 129.729C432.339 129.897 431.787 129.657 431.787 129.01C431.787 128.362 433.826 128.038 437.905 128.038C442.559 128.038 446.434 129.19 449.529 131.493L449.637 132.105V132.321L449.421 132.68C451.628 133.112 452.732 133.652 452.732 134.3C454.987 137.083 456.402 139.374 456.978 141.173C457.506 143.021 458.034 145.384 458.562 148.263L460.505 152.222C458.97 154.165 458.13 155.712 457.986 156.864C457.218 159.791 455.359 163.15 452.408 166.94C448.953 171.139 444.275 173.454 438.373 173.886C435.59 173.886 432.387 173.214 428.764 171.871C426.125 170.431 424.805 169.292 424.805 168.452V168.344L425.021 167.624C422.91 167.24 421.854 166.725 421.854 166.077C418.664 161.878 416.936 158.16 416.672 154.921L415.989 149.81L413.937 146.32C415.401 143.609 416.504 140.982 417.248 138.438C418.999 134.36 421.063 131.049 423.438 128.506C426.533 125.051 430.479 123.324 435.278 123.324Z" fill="#5F3E1B"></path><path d="M89.9264 22.1272H91.7367V32.8137C91.7367 33.7675 91.5615 34.5778 91.2112 35.2445C90.8608 35.9112 90.3669 36.4173 89.7294 36.7628C89.0919 37.1083 88.34 37.281 87.4738 37.281C86.6562 37.281 85.9287 37.1326 85.2912 36.8358C84.6537 36.5341 84.1525 36.1058 83.7875 35.5511C83.4225 34.9963 83.2401 34.3369 83.2401 33.5729H85.0211C85.0211 33.9963 85.1258 34.3661 85.335 34.6824C85.5491 34.9939 85.8411 35.2372 86.211 35.4124C86.5808 35.5876 87.0018 35.6751 87.4738 35.6751C87.9945 35.6751 88.4373 35.5657 88.8023 35.3467C89.1673 35.1277 89.4447 34.8065 89.6345 34.3831C89.8291 33.9549 89.9264 33.4318 89.9264 32.8137V22.1272ZM141.073 29.6019C141.073 31.1786 140.788 32.5412 140.219 33.6897C139.649 34.8381 138.868 35.7238 137.875 36.3467C136.883 36.9696 135.749 37.281 134.474 37.281C133.199 37.281 132.065 36.9696 131.072 36.3467C130.08 35.7238 129.298 34.8381 128.729 33.6897C128.16 32.5412 127.875 31.1786 127.875 29.6019C127.875 28.0252 128.16 26.6626 128.729 25.5142C129.298 24.3657 130.08 23.48 131.072 22.8571C132.065 22.2342 133.199 21.9228 134.474 21.9228C135.749 21.9228 136.883 22.2342 137.875 22.8571C138.868 23.48 139.649 24.3657 140.219 25.5142C140.788 26.6626 141.073 28.0252 141.073 29.6019ZM139.321 29.6019C139.321 28.3075 139.104 27.215 138.671 26.3244C138.243 25.4339 137.661 24.7599 136.926 24.3025C136.197 23.845 135.379 23.6163 134.474 23.6163C133.569 23.6163 132.749 23.845 132.014 24.3025C131.284 24.7599 130.702 25.4339 130.269 26.3244C129.841 27.215 129.627 28.3075 129.627 29.6019C129.627 30.8964 129.841 31.9889 130.269 32.8794C130.702 33.77 131.284 34.444 132.014 34.9014C132.749 35.3588 133.569 35.5876 134.474 35.5876C135.379 35.5876 136.197 35.3588 136.926 34.9014C137.661 34.444 138.243 33.77 138.671 32.8794C139.104 31.9889 139.321 30.8964 139.321 29.6019ZM177.211 37.0767V22.1272H182.262C183.43 22.1272 184.389 22.3267 185.138 22.7257C185.888 23.1199 186.442 23.6625 186.803 24.3535C187.163 25.0446 187.343 25.8305 187.343 26.7113C187.343 27.5921 187.163 28.3732 186.803 29.0545C186.442 29.7357 185.89 30.271 185.146 30.6604C184.401 31.0448 183.45 31.237 182.291 31.237H178.204V29.6019H182.233C183.031 29.6019 183.673 29.4851 184.16 29.2515C184.652 29.018 185.007 28.687 185.226 28.2588C185.45 27.8257 185.562 27.3099 185.562 26.7113C185.562 26.1127 185.45 25.5896 185.226 25.1419C185.002 24.6942 184.644 24.3487 184.153 24.1054C183.661 23.8572 183.012 23.7331 182.204 23.7331H179.021V37.0767H177.211ZM184.248 30.3611L187.927 37.0767H185.824L182.204 30.3611H184.248ZM235.308 22.1272V37.0767H233.556L225.41 25.339H225.264V37.0767H223.454V22.1272H225.206L233.381 33.8941H233.527V22.1272H235.308ZM272.638 37.0767H270.74L276.229 22.1272H278.098L283.587 37.0767H281.69L277.222 24.4922H277.105L272.638 37.0767ZM273.339 31.237H280.989V32.8429H273.339V31.237ZM323.624 37.0767H319.01V22.1272H323.828C325.278 22.1272 326.519 22.4265 327.551 23.025C328.583 23.6187 329.373 24.4728 329.923 25.5872C330.473 26.6967 330.748 28.0252 330.748 29.5727C330.748 31.13 330.471 32.4706 329.916 33.5948C329.361 34.714 328.553 35.5754 327.492 36.1788C326.432 36.7774 325.142 37.0767 323.624 37.0767ZM320.821 35.4708H323.507C324.743 35.4708 325.767 35.2323 326.58 34.7554C327.393 34.2785 327.999 33.5996 328.398 32.7188C328.797 31.838 328.996 30.7893 328.996 29.5727C328.996 28.3659 328.799 27.3269 328.405 26.4558C328.011 25.5799 327.422 24.9083 326.638 24.4411C325.855 23.9691 324.879 23.7331 323.711 23.7331H320.821V35.4708ZM366.79 37.0767H364.892L370.381 22.1272H372.25L377.739 37.0767H375.841L371.374 24.4922H371.257L366.79 37.0767ZM367.49 31.237H375.14V32.8429H367.49V31.237Z" fill="#BA8E60"></path><defs><linearGradient id="paint0_linear_1945_11754" x1="533.234" y1="39.7273" x2="543.717" y2="43.2714" gradientUnits="userSpaceOnUse"><stop stop-color="#803E1C"></stop><stop offset="0.08" stop-color="#965833"></stop><stop offset="0.26" stop-color="#C28E62"></stop><stop offset="0.39" stop-color="#DEB07F"></stop><stop offset="0.46" stop-color="#E9BD8A"></stop><stop offset="0.51" stop-color="#E5B986"></stop><stop offset="0.56" stop-color="#DAAD7B"></stop><stop offset="0.61" stop-color="#C89869"></stop><stop offset="0.66" stop-color="#AE7C4F"></stop><stop offset="0.71" stop-color="#8F5A30"></stop><stop offset="1" stop-color="#835045"></stop></linearGradient><linearGradient id="paint1_linear_1945_11754" x1="535.011" y1="44.4401" x2="539.017" y2="45.7945" gradientUnits="userSpaceOnUse"><stop stop-color="#803E1C"></stop><stop offset="0.04" stop-color="#9A5D37"></stop><stop offset="0.08" stop-color="#B27B51"></stop><stop offset="0.13" stop-color="#C69366"></stop><stop offset="0.19" stop-color="#D6A676"></stop><stop offset="0.25" stop-color="#E1B381"></stop><stop offset="0.33" stop-color="#E7BB88"></stop><stop offset="0.49" stop-color="#E9BD8A"></stop><stop offset="0.57" stop-color="#E5B986"></stop><stop offset="0.65" stop-color="#DAAD7B"></stop><stop offset="0.73" stop-color="#C89869"></stop><stop offset="0.81" stop-color="#AE7C4F"></stop><stop offset="0.89" stop-color="#8F5A30"></stop><stop offset="1" stop-color="#36180F"></stop></linearGradient><linearGradient id="paint2_linear_1945_11754" x1="537.218" y1="44.7639" x2="536.76" y2="45.9379" gradientUnits="userSpaceOnUse"><stop stop-color="#43290F"></stop><stop offset="0.08" stop-color="#493017"></stop><stop offset="0.19" stop-color="#59422B"></stop><stop offset="0.33" stop-color="#74614E"></stop><stop offset="0.5" stop-color="#998B7D"></stop><stop offset="0.67" stop-color="#C9C1BA"></stop><stop offset="0.85" stop-color="white"></stop></linearGradient><linearGradient id="paint3_linear_1945_11754" x1="535.073" y1="43.1585" x2="539.734" y2="44.7341" gradientUnits="userSpaceOnUse"><stop stop-color="#803E1C"></stop><stop offset="0.04" stop-color="#9A5D37"></stop><stop offset="0.08" stop-color="#B27B51"></stop><stop offset="0.13" stop-color="#C69366"></stop><stop offset="0.19" stop-color="#D6A676"></stop><stop offset="0.25" stop-color="#E1B381"></stop><stop offset="0.33" stop-color="#E7BB88"></stop><stop offset="0.49" stop-color="#E9BD8A"></stop><stop offset="0.57" stop-color="#E5B986"></stop><stop offset="0.65" stop-color="#DAAD7B"></stop><stop offset="0.73" stop-color="#C89869"></stop><stop offset="0.81" stop-color="#AE7C4F"></stop><stop offset="0.89" stop-color="#8F5A30"></stop><stop offset="1" stop-color="#36180F"></stop></linearGradient><radialGradient id="paint4_radial_1945_11754" cx="0" cy="0" r="1" gradientUnits="userSpaceOnUse" gradientTransform="translate(529.408 67.8623) rotate(18.68) scale(23.6289 23.6289)"><stop stop-color="#28130E"></stop><stop offset="0.56" stop-color="#381B11"></stop><stop offset="0.81" stop-color="#36180F"></stop><stop offset="0.87" stop-color="#AE7C4F"></stop><stop offset="0.88" stop-color="#C89869"></stop><stop offset="0.89" stop-color="#DAAD7B"></stop><stop offset="0.9" stop-color="#E5B986"></stop><stop offset="0.91" stop-color="#E9BD8A"></stop><stop offset="0.94" stop-color="#E7BB88"></stop><stop offset="0.95" stop-color="#E1B381"></stop><stop offset="0.96" stop-color="#D6A676"></stop><stop offset="0.97" stop-color="#C69366"></stop><stop offset="0.98" stop-color="#B27B51"></stop><stop offset="0.99" stop-color="#803E1C"></stop></radialGradient><radialGradient id="paint5_radial_1945_11754" cx="0" cy="0" r="1" gradientUnits="userSpaceOnUse" gradientTransform="translate(530.523 70.0451) rotate(18.68) scale(21.8277 21.8277)"><stop offset="0.4" stop-color="#EEE9E0"></stop><stop offset="0.65" stop-color="#EDE7DE"></stop><stop offset="0.74" stop-color="#E8E2D7"></stop><stop offset="0.81" stop-color="#DFD8CC"></stop><stop offset="0.86" stop-color="#D2C9BB"></stop><stop offset="0.9" stop-color="#C2B7A5"></stop><stop offset="0.94" stop-color="#AD9F89"></stop><stop offset="0.98" stop-color="#96856A"></stop><stop offset="1" stop-color="#816D4E"></stop></radialGradient><linearGradient id="paint6_linear_1945_11754" x1="522.05" y1="89.6227" x2="526.093" y2="77.6661" gradientUnits="userSpaceOnUse"><stop stop-color="#929497"></stop><stop offset="0.16" stop-color="#9A9B9E"></stop><stop offset="0.39" stop-color="#AEB0B2"></stop><stop offset="0.68" stop-color="#D0D1D2"></stop><stop offset="1" stop-color="white"></stop></linearGradient><radialGradient id="paint7_radial_1945_11754" cx="0" cy="0" r="1" gradientUnits="userSpaceOnUse" gradientTransform="translate(529.544 67.5733) rotate(63.68) scale(1.20081)"><stop offset="0.16" stop-color="#F2E4D0"></stop><stop offset="0.33" stop-color="#F0E2CC"></stop><stop offset="0.5" stop-color="#EADBC1"></stop><stop offset="0.65" stop-color="#E1CFAF"></stop><stop offset="0.8" stop-color="#D3BE95"></stop><stop offset="0.95" stop-color="#C2A974"></stop><stop offset="1" stop-color="#BAA066"></stop></radialGradient><linearGradient id="paint8_linear_1945_11754" x1="535.461" y1="49.6957" x2="531.66" y2="60.9367" gradientUnits="userSpaceOnUse"><stop offset="0.23" stop-color="white"></stop><stop offset="1" stop-color="white"></stop></linearGradient></defs></svg>