<svg xmlns="http://www.w3.org/2000/svg" width="10" height="13" viewBox="0 0 10 13" fill="none"><path d="M5.88382 0.655725C6.11434 0.523185 6.4066 0.546576 6.60831 0.714215C6.81413 0.877948 6.88001 1.15086 6.77298 1.38476C6.05258 2.9871 6.24195 3.75121 6.41896 4.06309C6.6083 4.39058 6.91295 4.47634 7.03644 4.49585C7.36988 4.55431 7.62099 3.93055 7.6251 3.92665C7.70332 3.70832 7.91326 3.55628 8.15613 3.53679C8.40314 3.5212 8.62954 3.63425 8.74891 3.83699C9.8398 5.71999 10.128 7.48606 9.60103 9.09227C8.83124 11.447 6.57951 12.5464 6.48481 12.5932C6.39838 12.6361 6.29957 12.6556 6.20901 12.6556C6.0567 12.6556 5.91261 12.6049 5.79736 12.5074C5.60799 12.3476 5.53802 12.0942 5.62448 11.8681C5.81382 11.3807 6.14726 9.96945 5.45569 9.2794C5.03169 8.85837 4.73529 8.47239 4.53359 8.14102C2.87873 10.6049 3.76379 11.3768 3.78025 11.3963C3.78437 11.3963 3.78437 11.4002 3.78849 11.4002C4.06841 11.5835 4.13429 11.946 3.94492 12.2111C3.75143 12.4762 3.37272 12.5464 3.08867 12.3671C3.08867 12.3632 3.08455 12.3632 3.08046 12.3593C1.07568 11.0299 0.0877304 9.48994 0.14537 7.77455C0.268862 3.95003 5.6533 0.788288 5.88382 0.655725Z" fill="white"></path></svg>