<svg xmlns="http://www.w3.org/2000/svg" width="19" height="18" viewBox="0 0 19 18" fill="none"><path d="M9.39453 0.896492C7.91115 0.896641 6.45573 1.30018 5.18407 2.06392C3.9124 2.82765 2.87237 3.92283 2.1753 5.23222C1.47822 6.54161 1.15035 8.01592 1.22677 9.49733C1.30319 10.9787 1.78104 12.4115 2.60915 13.6422L1.21509 17.2554L4.93495 15.9253C6.00179 16.6217 7.21654 17.0592 8.48239 17.2031C9.74825 17.3469 11.0302 17.1931 12.2261 16.7538C13.4219 16.3145 14.4987 15.602 15.3704 14.673C16.2422 13.7439 16.8849 12.6241 17.2474 11.4028C17.6098 10.1814 17.6819 8.89227 17.4579 7.63811C17.234 6.38395 16.7202 5.19944 15.9574 4.179C15.1947 3.15855 14.2042 2.33037 13.0647 1.76048C11.9253 1.19058 10.6685 0.894728 9.39453 0.896492Z" stroke="#271911" stroke-linecap="round" stroke-linejoin="round"></path><path d="M7.61635 10.8541C8.54098 11.7787 10.5823 12.9879 11.5283 12.9879C11.9432 12.9922 12.3469 12.8529 12.6709 12.5936C12.995 12.3344 13.2195 11.9711 13.3064 11.5654V10.8541C13.3064 10.8541 12.4315 10.4274 11.8839 10.1429C11.3362 9.85835 10.4614 10.8541 10.4614 10.8541C9.79572 10.6373 9.18781 10.2725 8.68323 9.78722C8.19794 9.28264 7.8332 8.67473 7.61635 8.00908C7.61635 8.00908 8.6121 7.13424 8.3276 6.58657C8.0431 6.03891 7.61635 5.16406 7.61635 5.16406H6.90509C6.49931 5.25097 6.13604 5.47546 5.8768 5.79951C5.61757 6.12355 5.4783 6.52724 5.48258 6.9422C5.48258 7.88817 6.69171 9.92948 7.61635 10.8541Z" fill="#271911"></path></svg>