<svg width="62" height="26" viewBox="0 0 62 26" fill="none" xmlns="http://www.w3.org/2000/svg">
<path d="M1.57388 12.6452C1.46178 13.2422 1.401 13.8469 1.3931 14.4537L1.38836 14.4696C1.14995 15.0493 0.849966 15.604 0.494718 16.1255C0.455246 15.5647 0.460773 15.0017 0.511297 14.4416C0.656554 12.85 1.33073 11.0014 2.70831 9.62207C2.14938 10.5585 1.76493 11.5818 1.57388 12.6452Z" fill="#5AA394"/>
<path d="M1.86647 14.4886C2.26119 14.8869 3.07589 15.2443 4.13769 15.4794C4.81661 15.6283 5.50973 15.7137 6.20602 15.7326C4.08558 14.1999 3.06405 12.4125 3.03879 9.97508C2.54776 10.8321 2.20909 11.761 2.03699 12.7238C1.92805 13.3065 1.87121 13.8968 1.86568 14.4886H1.86647Z" fill="#5AA394"/>
<path d="M1.88242 15.0927C1.91718 15.7176 2.01983 16.3384 2.18872 16.9429C3.32473 17.7742 5.01018 18.2896 6.97588 18.4053C8.16952 18.4763 9.36788 18.3947 10.5394 18.1619C10.1447 17.9352 9.71129 17.6964 9.2321 17.4515C8.41029 17.0766 7.61612 16.6489 6.8551 16.172C6.0404 16.2226 4.98965 16.1304 4.03206 15.9188C3.46075 15.7934 2.53367 15.5353 1.88242 15.0927Z" fill="#5AA394"/>
<path d="M1.24962 19.3563C1.49908 18.7713 1.71302 18.1727 1.89065 17.5636C2.15353 18.3246 2.51667 19.0502 2.97139 19.7228C3.07323 20.0478 3.40163 21.2019 3.329 22.4663C2.42825 21.5714 1.72171 20.5141 1.24962 19.3563Z" fill="#5AA394"/>
<path d="M6.89491 23.2196C8.14065 23.8991 9.49217 24.3843 10.8974 24.6556C10.9413 24.6642 10.9852 24.6725 11.0291 24.6808C11.0773 24.6899 11.1257 24.699 11.1737 24.7085C11.2905 24.7281 11.4066 24.7455 11.5226 24.7614C10.8721 24.9979 10.0479 25.0977 9.02166 25.0108C6.89807 24.8362 5.1313 24.0434 3.76557 22.8712C3.83978 22.1608 3.81531 21.4443 3.69294 20.7399C3.69039 20.7259 3.688 20.712 3.68563 20.6981C3.68287 20.6819 3.68012 20.6658 3.67716 20.65C4.5787 21.6861 5.66891 22.5568 6.89491 23.2196Z" fill="#5AA394"/>
<path d="M9.15302 21.5482C8.60436 21.5172 8.05807 21.4567 7.51652 21.3653C7.0168 21.2806 6.52182 21.1695 6.03474 21.0327C5.31319 20.8317 4.61296 20.5679 3.94272 20.2437C3.95528 20.2586 3.96772 20.273 3.98017 20.2875C4.00061 20.3112 4.0211 20.335 4.04219 20.3609C4.90663 21.3547 5.95343 22.1898 7.12969 22.8254C8.33201 23.4814 9.63616 23.95 10.9924 24.213C11.4148 24.2969 11.8434 24.3513 12.2745 24.3763C13.0047 23.8729 13.3797 23.127 13.4539 22.3002C13.4981 21.9094 13.4752 21.5149 13.3868 21.131C12.1529 21.4832 10.6695 21.6336 9.15302 21.5482Z" fill="#5AA394"/>
<path d="M1.63588 16.6843C1.54272 16.283 1.4772 15.8756 1.43852 15.466C1.19774 15.9369 0.904068 16.382 0.56303 16.7924C0.649869 17.4424 0.799073 18.0825 1.00748 18.7068C1.23405 18.1127 1.42747 17.5074 1.58693 16.8929L1.63588 16.6843Z" fill="#5AA394"/>
<path d="M4.07658 18.3583C5.00733 18.6387 5.97123 18.8064 6.94619 18.8556C8.33876 18.9425 9.73686 18.8231 11.0915 18.5019C12.2149 19.2229 12.9144 19.9091 13.2451 20.7019C12.0697 21.0382 10.6423 21.1811 9.17715 21.0987C8.1564 21.0428 7.14513 20.8758 6.16386 20.6006C5.15416 20.3218 4.18947 19.9099 3.29819 19.377C2.939 18.8299 2.64296 18.2472 2.41481 17.6388C2.93742 17.9403 3.49476 18.1822 4.07658 18.3583Z" fill="#5AA394"/>
<path d="M60.7136 12.6452C60.8257 13.2422 60.8865 13.8469 60.8944 14.4537L60.8991 14.4696C61.1375 15.0493 61.4375 15.604 61.7928 16.1255C61.8322 15.5647 61.8267 15.0017 61.7762 14.4416C61.6309 12.85 60.9568 11.0014 59.5792 9.62207C60.1381 10.5585 60.5226 11.5818 60.7136 12.6452Z" fill="#5AA394"/>
<path d="M60.421 14.4886C60.0263 14.8869 59.2116 15.2443 58.1498 15.4794C57.4709 15.6283 56.7778 15.7137 56.0815 15.7326C58.2019 14.1999 59.2234 12.4125 59.2487 9.97508C59.7397 10.8321 60.0784 11.761 60.2505 12.7238C60.3595 13.3065 60.4163 13.8968 60.4218 14.4886H60.421Z" fill="#5AA394"/>
<path d="M60.4051 15.0927C60.3703 15.7176 60.2677 16.3384 60.0988 16.9429C58.9628 17.7742 57.2773 18.2896 55.3116 18.4053C54.118 18.4763 52.9196 18.3947 51.7481 18.1619C52.1428 17.9352 52.5762 17.6964 53.0554 17.4515C53.8772 17.0766 54.6714 16.6489 55.4324 16.172C56.2471 16.2226 57.2978 16.1304 58.2554 15.9188C58.8268 15.7934 59.7538 15.5353 60.4051 15.0927Z" fill="#5AA394"/>
<path d="M61.0379 19.3563C60.7884 18.7713 60.5745 18.1727 60.3969 17.5636C60.134 18.3246 59.7708 19.0502 59.3161 19.7228C59.2143 20.0478 58.8859 21.2019 58.9585 22.4663C59.8592 21.5714 60.5658 20.5141 61.0379 19.3563Z" fill="#5AA394"/>
<path d="M55.3925 23.2195C54.1468 23.899 52.7953 24.3842 51.3901 24.6555C51.3461 24.6641 51.3022 24.6724 51.2584 24.6807L51.2575 24.6808C51.2095 24.6899 51.1615 24.6989 51.1138 24.7084C50.9969 24.7281 50.8809 24.7454 50.7648 24.7613C51.4153 24.9979 52.2395 25.0976 53.2658 25.0107C55.3894 24.8361 57.1561 24.0433 58.5219 22.8711C58.4476 22.1607 58.4721 21.4442 58.5945 20.7398C58.597 20.7259 58.5994 20.7119 58.6018 20.698C58.6046 20.6818 58.6073 20.6657 58.6103 20.6499C57.7087 21.6861 56.6185 22.5567 55.3925 23.2195Z" fill="#5AA394"/>
<path d="M53.1345 21.5482C53.6831 21.5172 54.2294 21.4567 54.771 21.3653C55.2707 21.2806 55.7657 21.1695 56.2528 21.0327C56.9743 20.8317 57.6745 20.5679 58.3448 20.2437C58.3322 20.2586 58.3198 20.273 58.3073 20.2875C58.2869 20.3112 58.2664 20.335 58.2453 20.3609C57.3809 21.3547 56.3341 22.1898 55.1578 22.8254C53.9555 23.4814 52.6513 23.95 51.2951 24.213C50.8727 24.2969 50.4441 24.3513 50.013 24.3763C49.2828 23.8729 48.9078 23.127 48.8336 22.3002C48.7894 21.9094 48.8123 21.5149 48.9007 21.131C50.1346 21.4832 51.618 21.6336 53.1345 21.5482Z" fill="#5AA394"/>
<path d="M60.6516 16.6843C60.7448 16.283 60.8103 15.8756 60.849 15.466C61.0898 15.9369 61.3834 16.382 61.7245 16.7924C61.6376 17.4424 61.4884 18.0825 61.28 18.7068C61.0534 18.1127 60.86 17.5074 60.7006 16.8929L60.6516 16.6843Z" fill="#5AA394"/>
<path d="M58.2109 18.3583C57.2802 18.6387 56.3163 18.8064 55.3413 18.8556C53.9487 18.9425 52.5506 18.8231 51.196 18.5019C50.0726 19.2229 49.3731 19.9091 49.0424 20.7019C50.2178 21.0382 51.6452 21.1811 53.1104 21.0987C54.1311 21.0428 55.1424 20.8758 56.1236 20.6006C57.1333 20.3218 58.098 19.9099 58.9893 19.377C59.3485 18.8299 59.6445 18.2472 59.8727 17.6388C59.3501 17.9403 58.7927 18.1822 58.2109 18.3583Z" fill="#5AA394"/>
<path fill-rule="evenodd" clip-rule="evenodd" d="M22.366 10.3584H16.6884L12.3807 19.1333C12.635 19.3552 12.8545 19.5782 13.0406 19.806L13.0586 19.807C13.4517 20.2105 13.6303 20.6467 13.7567 21.2102C13.851 21.6306 13.8754 22.0626 13.8283 22.4905C13.7491 23.3959 13.3491 24.2127 12.5702 24.7639C12.2668 24.9577 12.0176 25.0972 11.79 25.1976H13.57L14.5378 23.133H20.0003L20.2369 25.1976H24.194L24.323 24.5094L22.366 10.3584ZM16.0217 20.0146L18.0218 15.7779L18.6454 13.8424H19.1401L19.1186 15.7779L19.6132 20.0146H16.0217Z" fill="#BFE4DC"/>
<path fill-rule="evenodd" clip-rule="evenodd" d="M33.6104 10.3584H27.6317L25.008 25.1976H29.2232L29.8684 21.5201L31.6534 21.4986C35.718 21.477 38.4708 19.692 39.073 16.2296C39.7397 12.2724 37.7611 10.3584 33.6104 10.3584ZM32.7502 13.4768C34.2986 13.4768 35.0083 14.423 34.7503 15.993C34.4707 17.606 33.5244 18.4017 31.8899 18.4017H30.4275L31.2878 13.4768H32.7502Z" fill="#BFE4DC"/>
<path fill-rule="evenodd" clip-rule="evenodd" d="M43.786 10.3584H49.4636L50.597 18.5543C50.0128 18.9589 49.551 19.3578 49.2032 19.7724L49.1839 19.7734C48.7813 20.176 48.5984 20.6113 48.4689 21.1735C48.3723 21.5929 48.3473 22.024 48.3956 22.4509C48.4767 23.3543 48.8864 24.1693 49.6842 24.7193C50.0452 24.9438 50.3314 25.0953 50.5948 25.1976H47.3345L47.0979 23.133H41.6354L40.6676 25.1976H36.7105L36.818 24.5524L43.786 10.3584ZM45.1193 15.7779L43.1193 20.0146H46.7108L46.2162 15.7779L46.2377 13.8424H45.743L45.1193 15.7779Z" fill="#BFE4DC"/>
<path d="M31.0528 0.0419922L32.2131 2.49835L34.9078 2.84277L32.9302 4.70531L33.4353 7.37453L31.0528 6.06929L28.6704 7.37453L29.1755 4.70531L27.1979 2.84277L29.8926 2.49835L31.0528 0.0419922Z" fill="#D4AF37"/>
</svg>
