<svg xmlns="http://www.w3.org/2000/svg" width="46" height="31" viewBox="0 0 46 31" fill="none"><path d="M39.7539 11.7812C41.4238 12.3379 42.7598 13.3398 43.7617 14.7871C44.7637 16.123 45.2646 17.626 45.2646 19.2959C45.376 20.9658 44.9307 22.6357 43.9287 24.3057C43.0381 25.8643 41.5908 27.2002 39.5869 28.3135C36.3584 29.9834 33.5195 30.4287 31.0703 29.6494C28.6211 28.7588 26.8955 27.4229 25.8936 25.6416C25.3369 24.751 24.8916 23.5264 24.5576 21.9678C24.335 20.4092 24.2236 18.7949 24.2236 17.125C24.335 15.3438 24.5576 13.6182 24.8916 11.9482C25.2256 10.2783 25.7266 8.88672 26.3945 7.77344C26.9512 6.99414 27.6191 6.15918 28.3984 5.26855C29.0664 4.48926 29.8457 3.70996 30.7363 2.93066C31.7383 2.15137 32.8516 1.42773 34.0762 0.759766L39.9209 1.09375C39.1416 1.98438 38.418 2.81934 37.75 3.59863C37.1934 4.2666 36.6924 4.87891 36.2471 5.43555C35.8018 5.99219 35.3564 6.49316 34.9111 6.93848C34.1318 7.71777 33.5195 8.49707 33.0742 9.27637C32.6289 9.94434 32.2393 10.668 31.9053 11.4473C31.6826 12.2266 31.6826 13.0059 31.9053 13.7852C33.3525 12.2266 35.0225 11.4473 36.915 11.4473C37.8057 11.4473 38.752 11.5586 39.7539 11.7812ZM16.709 12.6162C18.2676 13.5068 19.3809 14.7314 20.0488 16.29C20.8281 17.7373 21.1064 19.2959 20.8838 20.9658C20.6611 22.6357 19.9375 24.1943 18.7129 25.6416C17.5996 27.0889 15.9297 28.2021 13.7031 28.9814C10.252 30.0947 7.41309 30.0391 5.18652 28.8145C2.95996 27.4785 1.45703 25.8643 0.677734 23.9717C0.34375 22.9697 0.176758 21.6895 0.176758 20.1309C0.176758 18.5723 0.34375 16.958 0.677734 15.2881C1.01172 13.6182 1.45703 12.0039 2.01367 10.4453C2.57031 8.88672 3.29395 7.60645 4.18457 6.60449C4.85254 5.8252 5.63184 5.10156 6.52246 4.43359C7.30176 3.87695 8.19238 3.26465 9.19434 2.59668C10.3076 1.92871 11.5322 1.31641 12.8682 0.759766L18.7129 2.2627C17.8223 3.04199 16.9873 3.70996 16.208 4.2666C15.54 4.82324 14.9277 5.32422 14.3711 5.76953C13.8145 6.21484 13.2578 6.66016 12.7012 7.10547C11.9219 7.77344 11.2539 8.44141 10.6973 9.10938C10.1406 9.66602 9.63965 10.334 9.19434 11.1133C8.74902 11.7812 8.58203 12.5049 8.69336 13.2842C9.58398 12.6162 10.4746 12.2266 11.3652 12.1152C12.3672 11.8926 13.2578 11.8369 14.0371 11.9482C14.9277 12.0596 15.8184 12.2822 16.709 12.6162Z" fill="#0B6754"></path></svg>