<svg width="91" height="36" viewBox="0 0 91 36" fill="none" xmlns="http://www.w3.org/2000/svg">
<path d="M3.59693 3.07661C3.40953 3.49283 3.31518 3.93773 3.31387 4.41131C3.30731 10.0583 3.30535 15.6199 3.30797 21.0961C3.30797 21.6083 3.4495 22.9691 4.17682 22.9791C5.18328 22.9911 5.23832 21.7224 5.24028 20.958C5.24422 19.1544 5.24028 17.4208 5.22849 15.7573C5.2286 15.7209 5.23909 15.6854 5.25866 15.6551C5.27822 15.6249 5.30601 15.6013 5.33857 15.5872L8.02966 14.4126C8.11091 14.3779 8.15154 14.4052 8.15154 14.4946C8.16464 16.8358 8.16202 19.1584 8.14367 21.4623C8.12991 23.3453 7.58934 24.9361 5.61967 25.4363C3.75026 25.9126 1.31668 25.4123 0.660126 23.3773C0.487141 22.8437 0.400649 22.2874 0.400649 21.7084C0.396718 16.0468 0.398028 10.1183 0.40458 3.92306C0.405891 3.46148 0.465518 2.99123 0.583462 2.51231C1.12404 0.309158 3.26472 -0.0610358 5.20883 0.187094C6.49049 0.351181 7.61686 1.16561 7.92941 2.4763C8.06832 3.0566 8.1404 3.60355 8.14564 4.11716C8.16005 5.5966 8.16333 7.23079 8.15547 9.01973C8.15551 9.04367 8.1466 9.06672 8.13052 9.0842C8.11445 9.10167 8.09244 9.11225 8.06898 9.11378C7.06645 9.16848 6.16877 9.50532 5.37592 10.1243C5.3626 10.1347 5.34669 10.1411 5.32998 10.1429C5.31327 10.1446 5.29642 10.1415 5.28132 10.1341C5.26621 10.1266 5.25346 10.115 5.24447 10.1005C5.23549 10.0861 5.23064 10.0694 5.23046 10.0523C5.24225 8.41541 5.24684 6.6845 5.24422 4.85955C5.24422 4.24589 5.16886 3.68693 5.01816 3.18267C4.82748 2.53433 3.87213 2.47229 3.59693 3.07661Z" fill="#5AA394"/>
<path d="M50.8061 25.3263C48.6595 24.5459 48.457 22.743 48.457 20.7279C48.457 15.1317 48.4551 9.75017 48.4511 4.58346C48.4492 2.41232 49.1254 0.549341 51.5216 0.187151C52.129 0.0971032 52.9959 0.0850971 53.5837 0.245181C55.3266 0.718763 56.2007 1.88071 56.2059 3.73101C56.223 9.60609 56.2243 15.4298 56.2099 21.2022C56.2073 22.1173 56.0638 22.9664 55.7794 23.7495C55.0835 25.6705 52.3983 25.9046 50.8061 25.3263ZM53.1925 22.3928C53.3327 21.9045 53.4035 21.3076 53.4048 20.6019C53.4087 14.7935 53.4054 9.48803 53.395 4.68551C53.3936 4.23594 53.3275 3.78304 53.1964 3.3268C52.9153 2.34028 51.7457 2.47435 51.5275 3.34481C51.4541 3.6383 51.4168 3.93645 51.4155 4.23928C51.3801 10.9882 51.3853 16.7558 51.4312 21.5424C51.4332 21.9065 51.441 22.3148 51.6671 22.6149C52.0838 23.1672 52.9821 23.1312 53.1925 22.3928Z" fill="#5AA394"/>
<path d="M73.3135 23.9575C72.6432 25.5483 70.2843 25.8185 68.8591 25.4583C66.6202 24.892 66.0874 23.2131 66.0855 21.132C66.0802 15.1609 66.0829 9.53058 66.0933 4.24114C66.0992 2.02197 67.0919 0.345094 69.4508 0.148991C69.9894 0.104968 70.7305 0.0989645 71.2239 0.239038C72.9734 0.731296 73.8495 1.93193 73.8521 3.84093C73.8613 9.15305 73.86 14.9494 73.8482 21.2301C73.8468 22.2039 73.6686 23.113 73.3135 23.9575ZM69.1166 22.2206C69.2267 22.8949 70.0681 23.2611 70.5732 22.7909C70.9487 22.4407 70.9998 21.5742 70.9998 21.068C71.0011 15.4944 71.0011 10.0422 70.9998 4.71139C70.9998 4.17244 70.9317 3.68551 70.7954 3.25062C70.4671 2.21207 69.1815 2.59227 69.099 3.58279C69.0675 3.979 69.0066 4.37721 69.0066 4.77342C68.9974 11.3836 68.9993 16.7811 69.0125 20.9659C69.0138 21.3728 69.0485 21.791 69.1166 22.2206Z" fill="#5AA394"/>
<path d="M84.8937 2.98657C84.6086 2.51032 83.8302 2.53033 83.5923 3.05061C83.3604 3.55487 83.2975 4.13918 83.2955 4.69347C83.2837 10.151 83.2831 15.6252 83.2935 21.1161C83.2949 21.5617 83.3813 22.0199 83.553 22.4908C83.84 23.2852 84.8504 23.0491 85.0411 22.3207C85.1433 21.9298 85.1997 21.5597 85.2101 21.2101C85.2586 19.5333 85.2671 17.7123 85.2357 15.7473C85.2344 15.6632 85.2717 15.6052 85.3477 15.5732L87.97 14.4406C88.0932 14.3872 88.1555 14.4286 88.1568 14.5646C88.1777 16.9286 88.1712 19.1204 88.1371 21.1401C88.1017 23.2992 87.6791 25.0462 85.3359 25.4964C84.205 25.7138 83.1979 25.6151 82.3146 25.2002C80.6044 24.3958 80.3449 22.779 80.3371 21.0961C80.3056 15.5919 80.3076 10.0223 80.343 4.38731C80.3482 3.52686 80.4832 2.71977 80.7479 1.96604C81.088 1.00353 82.1809 0.355191 83.095 0.213116C84.9035 -0.0630287 87.168 0.247134 87.8088 2.15814C88.012 2.76379 88.1214 3.44281 88.1371 4.19521C88.1712 5.7747 88.1771 7.38488 88.1548 9.02574C88.1543 9.05019 88.1447 9.07353 88.1279 9.09101C88.1111 9.10848 88.0884 9.11878 88.0644 9.11979C87.0514 9.15981 86.1504 9.49799 85.3615 10.1343C85.3505 10.1429 85.3373 10.1481 85.3235 10.1495C85.3097 10.1508 85.2958 10.1483 85.2833 10.142C85.2709 10.1358 85.2604 10.1262 85.253 10.1142C85.2456 10.1022 85.2417 10.0884 85.2416 10.0743C85.2508 8.45077 85.2475 6.82525 85.2318 5.19773C85.2259 4.5554 85.2318 3.55087 84.8937 2.98657Z" fill="#5AA394"/>
<path d="M15.7215 12.2195C16.4999 12.4056 17.0385 12.8258 17.1349 13.6702C17.2004 14.2372 17.2325 14.7755 17.2312 15.2851C17.2299 18.3573 17.2397 21.2916 17.2607 24.0877C17.2725 25.6658 17.6283 27.1073 18.3281 28.412C18.6124 28.9389 18.4696 29.1223 17.8995 28.9622C17.6623 28.8942 17.4854 28.8442 17.3688 28.8122C16.804 28.6521 16.3564 28.3259 16.0262 27.8337C15.5452 27.1173 15.0636 26.4236 14.5814 25.7526C14.4569 25.5778 14.2151 25.417 13.856 25.2703C13.8411 25.2641 13.8277 25.2545 13.817 25.2422C13.8063 25.2299 13.7984 25.2153 13.7941 25.1995C13.7897 25.1837 13.7889 25.1671 13.7918 25.1509C13.7947 25.1347 13.8012 25.1194 13.8108 25.1062C14.1266 24.6793 14.2872 24.2264 14.2924 23.7475C14.3226 20.8353 14.3226 17.8004 14.2924 14.6427C14.2846 13.8823 13.4688 13.7162 12.8161 13.8003C12.7506 13.8083 12.7179 13.8456 12.7179 13.9123C12.7179 17.1767 12.7166 20.4698 12.7139 23.7915C12.7139 24.2898 12.9184 24.69 13.2525 25.0422C13.3823 25.1783 13.3541 25.2463 13.168 25.2463L9.09698 25.2483C8.84799 25.2496 8.82506 25.1763 9.02818 25.0282C9.51306 24.676 9.75681 24.1491 9.75943 23.4473C9.78302 17.2561 9.79088 10.3685 9.78302 2.78451C9.78106 1.89404 9.70243 1.33775 9.07732 0.759443C8.85978 0.558004 8.89844 0.456617 9.1933 0.455283C11.1184 0.452615 12.9852 0.463287 14.7937 0.4873C15.9417 0.503308 16.6552 1.10096 16.9344 2.28024C17.1204 3.06599 17.2174 3.74368 17.2253 4.31331C17.2489 5.7514 17.2522 7.2235 17.2351 8.72963C17.2214 10.0243 16.9619 11.4491 15.7058 12.0774C15.5813 12.1401 15.5865 12.1874 15.7215 12.2195ZM13.4452 10.6326C14.0801 10.6426 14.375 10.1764 14.3809 9.57807C14.3979 7.67441 14.3959 5.78942 14.375 3.9231C14.3632 2.89857 13.4924 2.84654 12.7454 2.92058C12.6746 2.92725 12.6392 2.9666 12.6392 3.03864L12.6412 10.5046C12.6412 10.6086 12.6923 10.6573 12.7945 10.6506C13.0147 10.636 13.2316 10.63 13.4452 10.6326Z" fill="#5AA394"/>
<path d="M22.4367 9.55199C22.6699 8.06455 22.9202 6.58177 23.1876 5.10366C23.4589 3.59887 23.7026 2.1321 23.2819 0.597294C23.2777 0.580995 23.2772 0.563925 23.2803 0.547404C23.2835 0.530883 23.2902 0.515352 23.3001 0.502009C23.31 0.488667 23.3227 0.47787 23.3373 0.470451C23.3518 0.463032 23.3679 0.459189 23.3842 0.459221L27.2547 0.463223C27.2682 0.463539 27.2814 0.467792 27.2926 0.475479C27.3038 0.483167 27.3126 0.493966 27.318 0.506599C27.3234 0.519232 27.3251 0.53317 27.3229 0.546761C27.3208 0.560352 27.3148 0.573028 27.3058 0.583287C27.0044 0.918129 26.8039 1.32101 26.7043 1.79192C25.8734 5.76467 24.9967 9.93086 24.0741 14.2905C23.9352 14.9428 23.8671 15.5838 23.8697 16.2135C23.8802 18.4827 23.8815 20.7906 23.8736 23.1371C23.8697 23.9429 24.1154 24.5712 24.6108 25.0221C24.7746 25.1715 24.7464 25.2462 24.5262 25.2462H20.1938C20.0103 25.2462 19.9867 25.1835 20.123 25.0581C20.8248 24.4098 20.9231 23.7575 20.925 22.833C20.929 20.7012 20.9349 18.5747 20.9427 16.4536C20.9453 15.8293 20.8805 15.203 20.7481 14.5746C19.7666 9.89484 18.8872 5.6833 18.1101 1.94C18.0066 1.43974 17.7825 0.97149 17.4378 0.535261C17.433 0.528997 17.43 0.521456 17.4292 0.513519C17.4284 0.505582 17.4298 0.497579 17.4333 0.490443C17.4368 0.483306 17.4422 0.477334 17.449 0.473222C17.4557 0.469111 17.4634 0.467031 17.4712 0.467226L21.4243 0.463223C21.5095 0.463223 21.539 0.504578 21.5128 0.587288C21.2402 1.46775 21.1491 2.21081 21.2395 2.81646C21.5986 5.19237 21.961 7.43822 22.3266 9.554C22.3288 9.56703 22.3354 9.57872 22.3453 9.58703C22.3552 9.59535 22.3678 9.59977 22.3808 9.59953C22.3939 9.5993 22.4066 9.59441 22.4168 9.58573C22.427 9.57705 22.434 9.56512 22.4367 9.55199Z" fill="#5AA394"/>
<path d="M32.1435 15.7512C32.1186 15.7522 32.0951 15.763 32.0779 15.7813C32.0607 15.7996 32.0511 15.8239 32.0511 15.8492C32.0471 18.4373 32.0498 20.9032 32.0589 23.2471C32.0629 23.9702 32.3151 24.5678 32.8157 25.0401C32.9612 25.1775 32.9343 25.2462 32.7351 25.2462L28.3496 25.2482C28.1989 25.2482 28.1786 25.1955 28.2887 25.0901C28.9688 24.4498 29.132 23.6213 29.132 22.7409C29.1306 16.4149 29.132 9.93014 29.1359 3.28666C29.1359 2.29413 29.073 1.34764 28.3181 0.617254C28.2041 0.50653 28.2258 0.451834 28.383 0.453168C30.0775 0.463841 31.7516 0.46184 33.4055 0.447166C35.0075 0.435159 36.1614 0.877392 36.4858 2.57428C36.6221 3.29066 36.6922 3.91899 36.6961 4.45927C36.7118 6.78583 36.7105 9.23845 36.6922 11.8171C36.6863 12.6576 36.6352 13.8822 36.0965 14.5846C35.1019 15.8793 33.5588 15.6732 32.1435 15.7512ZM31.941 3.25064V12.7676C31.941 12.7989 31.9532 12.829 31.975 12.8511C31.9967 12.8733 32.0262 12.8857 32.057 12.8857H32.804C33.0714 12.8857 33.3279 12.778 33.517 12.5862C33.7061 12.3944 33.8124 12.1344 33.8124 11.8632V4.15511C33.8124 3.88392 33.7061 3.62383 33.517 3.43207C33.3279 3.24031 33.0714 3.13258 32.804 3.13258H32.057C32.0262 3.13258 31.9967 3.14501 31.975 3.16715C31.9532 3.1893 31.941 3.21932 31.941 3.25064Z" fill="#5AA394"/>
<path d="M40.9615 2.94653C39.5875 2.85248 38.4788 2.94853 37.7023 4.33125C37.5949 4.52202 37.5418 4.50801 37.5431 4.28923L37.547 0.57128C37.547 0.496574 37.5837 0.459221 37.6571 0.459221L47.4229 0.461222C47.5054 0.461222 47.5467 0.502577 47.5467 0.585287L47.5546 4.18718C47.5546 4.46999 47.4832 4.49 47.3403 4.24721C46.8233 3.37675 46.0174 2.91651 45.0365 2.93252C44.7259 2.93786 44.4317 2.94052 44.1539 2.94052C44.0739 2.94052 44.0339 2.98121 44.0339 3.06259C44.0339 9.96221 44.0346 16.635 44.0359 23.0811C44.0359 23.8348 44.3019 24.5058 44.834 25.0942C44.8458 25.1073 44.8536 25.1237 44.8564 25.1414C44.8593 25.159 44.857 25.177 44.8499 25.1934C44.8428 25.2097 44.8312 25.2236 44.8165 25.2333C44.8019 25.2431 44.7847 25.2482 44.7672 25.2482L40.3502 25.2502C40.1431 25.2502 40.1202 25.1842 40.2814 25.0521C40.8108 24.6186 41.0762 24.0156 41.0775 23.2432C41.0867 16.0154 41.088 9.29386 41.0814 3.0786C41.0814 2.99589 41.0414 2.95186 40.9615 2.94653Z" fill="#5AA394"/>
<path d="M60.4675 22.7451C61.0231 22.7491 61.6338 22.7691 62.2995 22.8051C63.8544 22.8892 64.3262 22.0808 64.8117 20.7461C64.9952 20.2418 65.0863 20.2585 65.085 20.7961L65.0712 25.1324C65.0712 25.1626 65.0594 25.1916 65.0384 25.213C65.0174 25.2344 64.9889 25.2464 64.9592 25.2464H57.5405C57.5225 25.2464 57.5047 25.2428 57.4881 25.2359C57.4715 25.2289 57.4565 25.2187 57.4439 25.2059C57.4313 25.193 57.4213 25.1778 57.4146 25.161C57.4079 25.1443 57.4046 25.1264 57.4049 25.1084C57.4101 24.1412 57.4081 23.1687 57.399 22.1908C57.3937 21.6452 57.4756 20.9949 57.6447 20.2398C58.9447 14.4274 60.2185 8.65105 61.4661 2.9107C61.4678 2.90284 61.4678 2.89468 61.4661 2.88682C61.4644 2.87895 61.4609 2.87159 61.456 2.86525C61.4511 2.85892 61.4449 2.85379 61.4378 2.85023C61.4307 2.84666 61.4229 2.84476 61.415 2.84467C60.8698 2.82065 60.3135 2.82532 59.746 2.85867C58.6786 2.92071 58.201 3.81518 57.9022 4.71965C57.7803 5.08784 57.7194 5.07717 57.7194 4.68763L57.7213 0.545459C57.7213 0.525292 57.7292 0.505951 57.7432 0.491691C57.7572 0.477431 57.7762 0.469419 57.796 0.469419L64.8078 0.457413C64.8266 0.457413 64.8446 0.465003 64.8578 0.478513C64.8711 0.492023 64.8786 0.510346 64.8786 0.529451C64.8668 1.33788 64.9218 2.11628 64.741 2.93271C63.2968 9.44813 61.8513 16.0256 60.4046 22.6651C60.4025 22.6747 60.4026 22.6846 60.4048 22.6942C60.407 22.7037 60.4113 22.7127 60.4173 22.7203C60.4233 22.728 60.431 22.7342 60.4396 22.7385C60.4483 22.7428 60.4578 22.745 60.4675 22.7451Z" fill="#5AA394"/>
<path d="M74.8625 25.0501C75.2596 24.6259 75.5702 24.0836 75.6075 23.4953C75.6482 22.835 75.6691 22.2073 75.6705 21.6123C75.6862 15.5278 75.6875 9.63805 75.6744 3.94306C75.6724 2.83648 75.7393 1.49178 74.9058 0.67535C74.759 0.532608 74.7872 0.461238 74.9903 0.461238L79.368 0.459236C79.382 0.458941 79.3956 0.462925 79.4073 0.470689C79.4189 0.478454 79.428 0.489654 79.4335 0.502892C79.4389 0.516129 79.4405 0.530817 79.4379 0.545118C79.4354 0.559419 79.4288 0.572701 79.4191 0.583302C78.621 1.42374 78.5817 2.31821 78.5817 3.40678C78.5725 9.66874 78.5693 15.8513 78.5719 21.9545C78.5719 23.1471 78.5463 24.1917 79.425 25.1302C79.4342 25.1401 79.4403 25.1525 79.4426 25.1658C79.445 25.1792 79.4435 25.193 79.4383 25.2055C79.4331 25.2181 79.4244 25.2288 79.4133 25.2363C79.4022 25.2439 79.3892 25.2481 79.3759 25.2482L74.9451 25.2462C74.7682 25.2462 74.7407 25.1809 74.8625 25.0501Z" fill="#5AA394"/>
<path d="M89.246 1.06541L88.8646 1.07942C88.8523 1.07996 88.8401 1.07799 88.8285 1.07363C88.817 1.06927 88.8064 1.0626 88.7974 1.05403C88.7885 1.04545 88.7813 1.03514 88.7763 1.02369C88.7713 1.01225 88.7686 0.999899 88.7683 0.987374L88.7644 0.719232C88.7641 0.706714 88.7663 0.694269 88.7708 0.682627C88.7754 0.670984 88.7821 0.660378 88.7907 0.651432C88.7993 0.642486 88.8096 0.635378 88.821 0.630527C88.8323 0.625676 88.8445 0.623179 88.8568 0.623182L90.3075 0.621181C90.3203 0.621385 90.333 0.624311 90.3447 0.629773C90.3563 0.635235 90.3667 0.643113 90.3752 0.652904C90.3838 0.662695 90.3902 0.674184 90.3941 0.686638C90.398 0.699092 90.3993 0.712238 90.3979 0.725236L90.3704 0.999379C90.3679 1.02326 90.3565 1.04526 90.3386 1.06089C90.3207 1.07652 90.2976 1.08458 90.2741 1.08342L89.9006 1.06942C89.8881 1.06888 89.8757 1.07091 89.864 1.07539C89.8523 1.07988 89.8417 1.08672 89.8327 1.09551C89.8237 1.10429 89.8165 1.11485 89.8117 1.12653C89.8068 1.13821 89.8042 1.15077 89.8043 1.16347L89.7944 2.78632C89.7944 2.81092 89.785 2.83454 89.7681 2.85212C89.7512 2.8697 89.7282 2.87984 89.704 2.88037L89.4327 2.88237C89.4204 2.88263 89.4082 2.8804 89.3968 2.87579C89.3853 2.87118 89.3749 2.8643 89.3661 2.85554C89.3573 2.84678 89.3504 2.83632 89.3456 2.82478C89.3408 2.81323 89.3384 2.80084 89.3384 2.78832L89.3423 1.15946C89.3423 1.14677 89.3398 1.1342 89.3349 1.12252C89.33 1.11084 89.3229 1.10029 89.3139 1.0915C89.3049 1.08272 89.2942 1.07588 89.2826 1.07139C89.2709 1.06691 89.2585 1.06487 89.246 1.06541Z" fill="#5AA394"/>
<path d="M5.20499 27.307L14.4125 27.309C14.4271 27.309 14.4416 27.3128 14.4543 27.3202C14.4671 27.3276 14.4777 27.3382 14.4852 27.351L14.7683 27.8233C14.7759 27.8363 14.78 27.8512 14.7802 27.8664C14.7803 27.8816 14.7765 27.8966 14.7691 27.9098C14.7617 27.9231 14.751 27.9341 14.7381 27.9417C14.7252 27.9493 14.7105 27.9533 14.6956 27.9533H5.19713C5.18586 27.9533 5.17471 27.951 5.16432 27.9466C5.15394 27.9421 5.14453 27.9356 5.13666 27.9274C5.12878 27.9192 5.1226 27.9095 5.11847 27.8988C5.11434 27.8881 5.11234 27.8767 5.1126 27.8653L5.12047 27.391C5.12098 27.3686 5.13011 27.3472 5.14591 27.3315C5.16171 27.3158 5.18291 27.307 5.20499 27.307Z" fill="#5AA394"/>
<path d="M83.7478 27.9533H19.2206C19.2077 27.9533 19.1952 27.9496 19.1843 27.9425C19.1735 27.9354 19.165 27.9253 19.1597 27.9133L18.9434 27.4291C18.9388 27.4187 18.9369 27.4073 18.9377 27.396C18.9385 27.3846 18.9421 27.3737 18.9482 27.3641C18.9543 27.3546 18.9626 27.3467 18.9724 27.3413C18.9822 27.3359 18.9932 27.333 19.0044 27.333L83.7537 27.371C83.7626 27.371 83.7715 27.3729 83.7797 27.3764C83.7879 27.3799 83.7954 27.3851 83.8016 27.3917C83.8079 27.3982 83.8128 27.4059 83.816 27.4144C83.8192 27.4229 83.8208 27.432 83.8205 27.4411L83.8146 27.8873C83.8141 27.905 83.8068 27.9218 83.7943 27.9341C83.7819 27.9465 83.7652 27.9533 83.7478 27.9533Z" fill="#5AA394"/>
<path d="M6.34094 32.452L7.58132 32.448C7.59413 32.448 7.60682 32.4506 7.61864 32.4556C7.63045 32.4607 7.64116 32.4681 7.65013 32.4774C7.6591 32.4867 7.66615 32.4978 7.67088 32.5099C7.6756 32.522 7.6779 32.535 7.67764 32.548L7.67371 33.0583C7.67371 33.0713 7.67115 33.0842 7.66619 33.0963C7.66123 33.1083 7.65396 33.1192 7.6448 33.1283C7.63565 33.1375 7.6248 33.1446 7.61288 33.1495C7.60097 33.1543 7.58823 33.1566 7.57542 33.1563L6.34291 33.1523C6.31736 33.1523 6.29286 33.1627 6.2748 33.1811C6.25673 33.1994 6.24658 33.2244 6.24658 33.2504L6.25248 34.3089C6.25248 34.3349 6.26263 34.3599 6.28069 34.3783C6.29876 34.3967 6.32326 34.407 6.3488 34.407L8.0983 34.399C8.12351 34.399 8.14772 34.409 8.16573 34.427C8.18374 34.445 8.19411 34.4694 8.19463 34.495L8.20249 34.9953C8.20275 35.0084 8.20045 35.0213 8.19573 35.0334C8.191 35.0456 8.18395 35.0566 8.17498 35.0659C8.16601 35.0753 8.1553 35.0827 8.14349 35.0877C8.13167 35.0928 8.11898 35.0954 8.10617 35.0954L5.25192 35.1074C5.22638 35.1074 5.20188 35.097 5.18381 35.0786C5.16575 35.0603 5.1556 35.0353 5.1556 35.0093L5.15953 30.7491C5.15953 30.7231 5.16968 30.6981 5.18775 30.6797C5.20581 30.6614 5.23031 30.651 5.25586 30.651H7.98233C7.99514 30.651 8.00783 30.6536 8.01965 30.6587C8.03146 30.6637 8.04217 30.6711 8.05114 30.6804C8.06011 30.6898 8.06716 30.7008 8.07189 30.7129C8.07661 30.7251 8.07891 30.738 8.07865 30.7511L8.06489 31.2193C8.06437 31.245 8.054 31.2694 8.03599 31.2874C8.01798 31.3053 7.99378 31.3154 7.96857 31.3154L6.34684 31.3114C6.32129 31.3114 6.29679 31.3217 6.27873 31.3401C6.26066 31.3585 6.25052 31.3834 6.25052 31.4094L6.24462 32.3539C6.24462 32.3799 6.25477 32.4049 6.27283 32.4232C6.29089 32.4416 6.31539 32.452 6.34094 32.452Z" fill="#5AA394"/>
<path d="M13.7676 30.6512L14.6837 30.6452C14.7009 30.6452 14.7174 30.6522 14.7295 30.6646C14.7417 30.677 14.7485 30.6938 14.7485 30.7113L14.7544 35.0375C14.7544 35.0551 14.7476 35.0719 14.7354 35.0842C14.7233 35.0966 14.7068 35.1036 14.6896 35.1036L13.7853 35.0996C13.7735 35.0994 13.762 35.096 13.7519 35.0897C13.7419 35.0833 13.7337 35.0743 13.7283 35.0636L12.5332 32.6003C12.5269 32.5863 12.5161 32.5751 12.5026 32.5683C12.4891 32.5616 12.4737 32.5599 12.4591 32.5634C12.4445 32.567 12.4315 32.5756 12.4224 32.5878C12.4134 32.6 12.4087 32.615 12.4093 32.6303L12.4604 35.0295C12.4607 35.0382 12.4593 35.0469 12.4563 35.055C12.4532 35.0631 12.4487 35.0705 12.4428 35.0768C12.437 35.0831 12.43 35.0882 12.4222 35.0918C12.4144 35.0953 12.406 35.0973 12.3975 35.0976L11.4658 35.1116C11.4571 35.1118 11.4484 35.1103 11.4403 35.1071C11.4322 35.1039 11.4249 35.0991 11.4186 35.093C11.4124 35.0868 11.4074 35.0794 11.4041 35.0713C11.4007 35.0631 11.3989 35.0544 11.3989 35.0456L11.4029 30.7133C11.4029 30.6958 11.4097 30.679 11.4219 30.6666C11.434 30.6542 11.4505 30.6472 11.4677 30.6472L12.429 30.6552C12.4408 30.6554 12.4524 30.6588 12.4624 30.6652C12.4725 30.6715 12.4806 30.6805 12.486 30.6913L13.6222 32.9204C13.6291 32.9334 13.64 32.9436 13.6533 32.9495C13.6666 32.9554 13.6814 32.9565 13.6954 32.9529C13.7094 32.9492 13.7218 32.9408 13.7306 32.9292C13.7394 32.9175 13.7442 32.9031 13.7441 32.8884L13.7047 30.7173C13.7047 30.7001 13.7113 30.6836 13.723 30.6713C13.7348 30.6589 13.7508 30.6518 13.7676 30.6512Z" fill="#5AA394"/>
<path d="M17.7306 31.2292L17.7149 30.7509C17.7143 30.738 17.7164 30.725 17.7209 30.7129C17.7254 30.7008 17.7323 30.6897 17.7411 30.6804C17.7499 30.671 17.7605 30.6636 17.7722 30.6585C17.7839 30.6535 17.7965 30.6508 17.8092 30.6509L20.8404 30.6489C20.8654 30.6489 20.8894 30.659 20.9071 30.677C20.9248 30.695 20.9348 30.7194 20.9348 30.7449L20.9328 31.2232C20.9328 31.2358 20.9303 31.2483 20.9256 31.2599C20.9209 31.2716 20.9139 31.2822 20.9051 31.2911C20.8964 31.3 20.886 31.3071 20.8745 31.3119C20.8631 31.3167 20.8508 31.3192 20.8384 31.3192L20.001 31.3092C19.9883 31.3089 19.9757 31.3113 19.9639 31.3161C19.952 31.3209 19.9413 31.3282 19.9323 31.3373C19.9233 31.3465 19.9162 31.3574 19.9115 31.3694C19.9067 31.3814 19.9044 31.3943 19.9047 31.4073L19.9106 35.0111C19.9106 35.0238 19.9082 35.0363 19.9034 35.0479C19.8987 35.0596 19.8917 35.0701 19.883 35.0791C19.8742 35.088 19.8638 35.0951 19.8524 35.0999C19.8409 35.1047 19.8286 35.1072 19.8162 35.1072L18.855 35.1012C18.8426 35.1012 18.8303 35.0987 18.8189 35.0939C18.8075 35.0891 18.797 35.082 18.7883 35.0731C18.7795 35.0641 18.7726 35.0536 18.7678 35.0419C18.7631 35.0302 18.7607 35.0178 18.7607 35.0051L18.7705 31.4053C18.7705 31.3925 18.768 31.3798 18.7631 31.368C18.7582 31.3562 18.7511 31.3456 18.7422 31.3366C18.7332 31.3277 18.7225 31.3206 18.7109 31.3159C18.6992 31.3112 18.6867 31.3089 18.6742 31.3092L17.8269 31.3212C17.8022 31.3218 17.7783 31.3124 17.7603 31.2952C17.7423 31.278 17.7316 31.2543 17.7306 31.2292Z" fill="#5AA394"/>
<path d="M25.0883 32.4518L26.3522 32.4458C26.3746 32.4458 26.3961 32.4549 26.412 32.471C26.4278 32.4871 26.4368 32.509 26.4368 32.5318L26.4328 33.0701C26.4328 33.0929 26.4239 33.1148 26.4081 33.131C26.3922 33.1471 26.3707 33.1562 26.3483 33.1562L25.0942 33.1542C25.0831 33.1542 25.0721 33.1564 25.0618 33.1607C25.0516 33.165 25.0422 33.1714 25.0344 33.1794C25.0265 33.1874 25.0203 33.1968 25.0161 33.2073C25.0118 33.2177 25.0096 33.2289 25.0096 33.2402L25.0195 34.3188C25.0195 34.3416 25.0284 34.3635 25.0442 34.3796C25.0601 34.3958 25.0816 34.4048 25.104 34.4048L26.8574 34.4028C26.8795 34.4028 26.9007 34.4116 26.9165 34.4273C26.9323 34.443 26.9414 34.4644 26.9419 34.4869L26.9596 35.0131C26.9599 35.0246 26.9579 35.036 26.9538 35.0467C26.9496 35.0574 26.9435 35.0671 26.9356 35.0753C26.9277 35.0835 26.9183 35.09 26.9079 35.0945C26.8975 35.0989 26.8864 35.1012 26.8751 35.1012L24.0071 35.1032C23.996 35.1032 23.985 35.101 23.9748 35.0966C23.9645 35.0923 23.9552 35.086 23.9473 35.078C23.9395 35.07 23.9333 35.0605 23.929 35.0501C23.9248 35.0396 23.9226 35.0284 23.9226 35.0171V30.7369C23.9226 30.7256 23.9248 30.7144 23.929 30.704C23.9333 30.6935 23.9395 30.684 23.9473 30.6761C23.9552 30.6681 23.9645 30.6617 23.9748 30.6574C23.985 30.6531 23.996 30.6509 24.0071 30.6509L26.7454 30.6489C26.7678 30.6489 26.7893 30.6579 26.8051 30.6741C26.821 30.6902 26.8299 30.7121 26.8299 30.7349L26.8358 31.2232C26.8358 31.2345 26.8336 31.2456 26.8294 31.2561C26.8251 31.2665 26.8189 31.276 26.811 31.284C26.8032 31.292 26.7939 31.2983 26.7836 31.3027C26.7734 31.307 26.7624 31.3092 26.7513 31.3092L25.1001 31.3192C25.078 31.3192 25.0568 31.328 25.041 31.3437C25.0252 31.3594 25.016 31.3808 25.0155 31.4032L25.0037 32.3638C25.0035 32.3752 25.0055 32.3866 25.0096 32.3973C25.0137 32.408 25.0199 32.4177 25.0278 32.4259C25.0357 32.4341 25.0451 32.4406 25.0555 32.4451C25.0658 32.4495 25.077 32.4518 25.0883 32.4518Z" fill="#5AA394"/>
<path d="M32.853 33.2342L33.6825 35.0431C33.6851 35.0492 33.6862 35.0558 33.6857 35.0623C33.6851 35.0689 33.683 35.0753 33.6795 35.0808C33.676 35.0863 33.6713 35.0909 33.6656 35.0941C33.6599 35.0973 33.6536 35.0991 33.6471 35.0992L32.5935 35.1012C32.5542 35.1012 32.5266 35.0818 32.5109 35.0431C32.3091 34.5469 32.1047 34.0339 31.8976 33.5043C31.8092 33.2762 31.5359 33.1922 31.3393 33.3042C31.2804 33.3376 31.2515 33.3883 31.2529 33.4563L31.2843 34.9591C31.2869 35.0538 31.2424 35.1012 31.1506 35.1012L30.2621 35.1032C30.1887 35.1032 30.152 35.0665 30.152 34.9931L30.1678 30.7689C30.1678 30.6942 30.2051 30.6555 30.2798 30.6528C30.939 30.6342 31.5752 30.6362 32.1885 30.6588C33.0692 30.6922 33.522 31.1204 33.5469 31.9435C33.5613 32.4651 33.349 32.838 32.91 33.0621C32.8366 33.0995 32.8176 33.1568 32.853 33.2342ZM31.2568 31.4332L31.2607 32.5018C31.261 32.5197 31.2647 32.5373 31.2716 32.5537C31.2786 32.5701 31.2887 32.585 31.3013 32.5974C31.3139 32.6099 31.3287 32.6197 31.345 32.6263C31.3614 32.6329 31.3788 32.6361 31.3964 32.6359L31.7895 32.6339C31.9531 32.6327 32.1096 32.5781 32.2247 32.482C32.3397 32.386 32.4037 32.2563 32.4028 32.1216V31.7974C32.4024 31.7307 32.3859 31.6646 32.3545 31.6031C32.323 31.5417 32.2771 31.4859 32.2194 31.4391C32.1617 31.3922 32.0934 31.3552 32.0183 31.3302C31.9431 31.3052 31.8627 31.2926 31.7816 31.2932L31.3885 31.2952C31.3709 31.2954 31.3536 31.2992 31.3375 31.3063C31.3214 31.3134 31.3068 31.3236 31.2945 31.3364C31.2823 31.3493 31.2727 31.3644 31.2662 31.381C31.2597 31.3976 31.2565 31.4154 31.2568 31.4332Z" fill="#5AA394"/>
<path d="M38.6539 31.4133L38.6657 34.9871C38.6657 35.0158 38.6545 35.0433 38.6346 35.0635C38.6147 35.0838 38.5877 35.0952 38.5596 35.0952L37.6101 35.1032C37.5958 35.1035 37.5817 35.1008 37.5684 35.0954C37.5552 35.0899 37.5432 35.0818 37.5331 35.0716C37.523 35.0613 37.515 35.049 37.5097 35.0356C37.5043 35.0221 37.5017 35.0077 37.502 34.9931L37.5138 31.4293C37.5138 31.4006 37.5026 31.3731 37.4827 31.3529C37.4628 31.3326 37.4358 31.3212 37.4076 31.3212L36.5958 31.3192C36.568 31.3192 36.5413 31.3081 36.5214 31.2883C36.5016 31.2684 36.4902 31.2415 36.4896 31.2132L36.4857 30.7589C36.4854 30.7446 36.488 30.7303 36.4932 30.7169C36.4984 30.7036 36.5062 30.6915 36.5161 30.6812C36.526 30.671 36.5378 30.6628 36.5508 30.6573C36.5638 30.6517 36.5777 30.6489 36.5919 30.6489H39.5817C39.5958 30.6489 39.6098 30.6517 39.6228 30.6573C39.6358 30.6628 39.6476 30.671 39.6575 30.6812C39.6674 30.6915 39.6752 30.7036 39.6804 30.7169C39.6856 30.7303 39.6881 30.7446 39.6879 30.7589L39.6741 31.2212C39.6739 31.2353 39.6709 31.2493 39.6653 31.2624C39.6597 31.2754 39.6517 31.2871 39.6417 31.297C39.6316 31.3068 39.6198 31.3146 39.6068 31.3198C39.5938 31.3249 39.58 31.3275 39.566 31.3272L38.764 31.3052C38.7497 31.3047 38.7355 31.3071 38.7222 31.3122C38.7088 31.3174 38.6967 31.3253 38.6864 31.3354C38.6761 31.3455 38.6679 31.3576 38.6623 31.371C38.6568 31.3843 38.6539 31.3987 38.6539 31.4133Z" fill="#5AA394"/>
<path d="M44.4233 34.1311L43.4443 34.1331C43.4232 34.1332 43.4027 34.1409 43.3866 34.1548C43.3704 34.1687 43.3596 34.1879 43.3559 34.2091L43.2124 35.0255C43.2087 35.0468 43.1978 35.066 43.1817 35.0799C43.1655 35.0938 43.1451 35.1014 43.1239 35.1016L42.1981 35.1056C42.1841 35.1058 42.1702 35.1027 42.1576 35.0965C42.145 35.0903 42.134 35.0812 42.1255 35.07C42.1169 35.0587 42.111 35.0456 42.1082 35.0316C42.1055 35.0177 42.1059 35.0033 42.1096 34.9895L43.2183 30.7173C43.2234 30.6979 43.2347 30.6807 43.2503 30.6685C43.2659 30.6562 43.285 30.6494 43.3048 30.6493L44.5648 30.6452C44.5849 30.645 44.6045 30.6515 44.6205 30.6638C44.6365 30.6762 44.648 30.6936 44.6533 30.7133L45.7619 34.9895C45.7656 35.0033 45.766 35.0177 45.7633 35.0316C45.7605 35.0456 45.7547 35.0587 45.7461 35.07C45.7375 35.0812 45.7265 35.0903 45.7139 35.0965C45.7013 35.1027 45.6875 35.1058 45.6735 35.1056L44.7555 35.0996C44.7346 35.0995 44.7144 35.0921 44.6983 35.0786C44.6821 35.0651 44.6711 35.0464 44.667 35.0255L44.5117 34.2051C44.5076 34.1843 44.4966 34.1655 44.4805 34.152C44.4644 34.1385 44.4441 34.1311 44.4233 34.1311ZM43.5524 33.3767C43.5507 33.3856 43.5509 33.3948 43.5531 33.4036C43.5552 33.4125 43.5593 33.4207 43.5649 33.4278C43.5705 33.4348 43.5776 33.4405 43.5856 33.4445C43.5937 33.4485 43.6025 33.4506 43.6114 33.4507L44.2581 33.4527C44.2673 33.4527 44.2763 33.4505 44.2845 33.4464C44.2927 33.4423 44.2999 33.4364 44.3056 33.4291C44.3112 33.4218 44.3152 33.4133 44.3172 33.4042C44.3192 33.3952 44.3192 33.3857 44.3171 33.3767L43.9967 31.8519C43.9935 31.8385 43.9861 31.8266 43.9756 31.818C43.965 31.8095 43.952 31.8047 43.9385 31.8044C43.925 31.8042 43.9118 31.8086 43.901 31.8168C43.8902 31.825 43.8824 31.8366 43.8788 31.8499L43.5524 33.3767Z" fill="#5AA394"/>
<path d="M50.0274 35.0017C50.0274 35.0282 50.0171 35.0537 49.9986 35.0724C49.9802 35.0912 49.9552 35.1017 49.9291 35.1017H49.0052C48.9792 35.1017 48.9542 35.0912 48.9357 35.0724C48.9173 35.0537 48.9069 35.0282 48.9069 35.0017V30.7475C48.9069 30.7209 48.9173 30.6955 48.9357 30.6767C48.9542 30.658 48.9792 30.6474 49.0052 30.6474H49.9291C49.9552 30.6474 49.9802 30.658 49.9986 30.6767C50.0171 30.6955 50.0274 30.7209 50.0274 30.7475V35.0017Z" fill="#5AA394"/>
<path d="M54.5724 32.7023L54.6019 35.0015C54.6019 35.0286 54.5914 35.0546 54.5726 35.0737C54.5538 35.0928 54.5283 35.1036 54.5017 35.1036H53.6623C53.5955 35.1036 53.5621 35.0696 53.5621 35.0015L53.564 30.7513C53.564 30.6846 53.5974 30.6512 53.6643 30.6512H54.4997C54.5797 30.6512 54.6386 30.6879 54.6766 30.7613L55.7637 32.8724C55.8436 33.0272 55.8823 33.0172 55.8797 32.8424L55.86 30.7333C55.86 30.6773 55.8875 30.6492 55.9426 30.6492L56.8055 30.6452C56.8737 30.6452 56.9077 30.6793 56.9077 30.7473V34.9535C56.9077 35.0522 56.8586 35.1022 56.7603 35.1036H56.0644C55.9661 35.1036 55.8954 35.0589 55.8521 34.9695L54.7317 32.6623C54.6216 32.4355 54.5685 32.4489 54.5724 32.7023Z" fill="#5AA394"/>
<path d="M61.2206 32.1035L61.2363 35.001C61.2363 35.069 61.2029 35.1031 61.1361 35.1031L60.34 35.1011C60.2718 35.1011 60.2377 35.0657 60.2377 34.995L60.2476 30.8028C60.2489 30.7028 60.2987 30.6521 60.397 30.6507H61.5862C61.6662 30.6494 61.7179 30.6881 61.7415 30.7668L62.3607 32.8979C62.4171 33.0927 62.4734 33.0927 62.5298 32.8979L63.151 30.7588C63.1706 30.6881 63.2165 30.6527 63.2885 30.6527L64.527 30.6467C64.5977 30.6454 64.6331 30.6807 64.6331 30.7528L64.637 34.995C64.637 35.0657 64.6023 35.1011 64.5329 35.1011H63.7937C63.6994 35.1011 63.6522 35.053 63.6522 34.957L63.6581 32.0515C63.6581 32.0168 63.6417 32.0001 63.609 32.0014C63.5788 32.0014 63.5605 32.0161 63.5539 32.0455C63.3259 32.9619 63.071 33.9278 62.7893 34.943C62.7696 35.0097 62.7283 35.055 62.6654 35.0791C62.4885 35.1444 62.3306 35.1317 62.1917 35.041C62.1379 35.005 62.1032 34.955 62.0875 34.8909C61.8477 33.9211 61.5875 32.9873 61.3071 32.0895C61.2481 31.9 61.2193 31.9047 61.2206 32.1035Z" fill="#5AA394"/>
<path d="M69.2405 34.399L70.9448 34.411C70.9729 34.411 70.9999 34.4224 71.0198 34.4426C71.0397 34.4629 71.0509 34.4904 71.0509 34.5191L71.047 34.9873C71.047 35.016 71.0358 35.0434 71.0159 35.0637C70.996 35.084 70.969 35.0954 70.9408 35.0954L68.0787 35.1034C68.0506 35.1034 68.0236 35.092 68.0037 35.0717C67.9838 35.0514 67.9726 35.024 67.9726 34.9953L67.9745 30.7591C67.9745 30.7304 67.9857 30.7029 68.0056 30.6827C68.0255 30.6624 68.0525 30.651 68.0807 30.651H70.8209C70.8349 30.651 70.8487 30.6538 70.8615 30.6593C70.8744 30.6647 70.8861 30.6726 70.896 30.6827C70.9058 30.6927 70.9137 30.7046 70.919 30.7177C70.9243 30.7308 70.9271 30.7449 70.9271 30.7591V31.2073C70.9271 31.2215 70.9243 31.2356 70.919 31.2487C70.9137 31.2618 70.9058 31.2737 70.896 31.2837C70.8861 31.2938 70.8744 31.3017 70.8615 31.3072C70.8487 31.3126 70.8349 31.3154 70.8209 31.3154L69.2306 31.3074C69.2025 31.3074 69.1755 31.3188 69.1556 31.339C69.1357 31.3593 69.1245 31.3868 69.1245 31.4154V32.3419C69.1245 32.3561 69.1272 32.3702 69.1326 32.3833C69.1379 32.3964 69.1457 32.4083 69.1556 32.4183C69.1654 32.4284 69.1771 32.4363 69.19 32.4417C69.2029 32.4472 69.2167 32.45 69.2306 32.45L70.416 32.458C70.4299 32.4582 70.4437 32.4613 70.4565 32.467C70.4692 32.4726 70.4808 32.4808 70.4905 32.491C70.5001 32.5013 70.5077 32.5133 70.5128 32.5265C70.5179 32.5397 70.5204 32.5538 70.5202 32.568L70.5064 33.0423C70.5054 33.0702 70.4938 33.0967 70.474 33.1161C70.4542 33.1355 70.4277 33.1464 70.4003 33.1463L69.2287 33.1543C69.2009 33.1549 69.1744 33.1665 69.1549 33.1867C69.1354 33.2069 69.1245 33.2341 69.1245 33.2624L69.1343 34.2929C69.1348 34.3212 69.1462 34.3482 69.1661 34.3681C69.186 34.3879 69.2126 34.399 69.2405 34.399Z" fill="#5AA394"/>
<path d="M75.2441 32.6683L75.2677 34.9615C75.269 35.0549 75.2238 35.1016 75.1321 35.1016L74.3399 35.1036C74.2639 35.1036 74.2259 35.0656 74.2259 34.9895L74.2435 30.7573C74.2435 30.6866 74.2783 30.6513 74.3477 30.6513L75.1891 30.6473C75.2611 30.6473 75.3142 30.6806 75.3483 30.7473L76.4766 32.9625C76.5369 33.0799 76.567 33.0725 76.567 32.9405L76.5533 30.7573C76.552 30.6866 76.586 30.6513 76.6555 30.6513L77.4673 30.6453C77.5499 30.6439 77.5912 30.6853 77.5912 30.7693L77.5833 34.9595C77.5833 35.0543 77.5368 35.1016 77.4438 35.1016L76.7282 35.1036C76.6286 35.1036 76.5566 35.0583 76.512 34.9675L75.3817 32.6343C75.2874 32.4409 75.2415 32.4522 75.2441 32.6683Z" fill="#5AA394"/>
<path d="M82.7077 31.4573L82.7195 35.0171C82.7195 35.0678 82.6946 35.0939 82.6448 35.0952L81.7052 35.1052C81.6253 35.1065 81.5853 35.0658 81.5853 34.9831L81.5774 31.4413C81.5775 31.4223 81.5737 31.4036 81.5664 31.3863C81.559 31.3689 81.5482 31.3533 81.5347 31.3405C81.5212 31.3277 81.5053 31.318 81.4879 31.3119C81.4706 31.3058 81.4522 31.3035 81.4339 31.3052C81.164 31.3239 80.9143 31.3299 80.685 31.3232C80.5985 31.3205 80.5553 31.2745 80.5553 31.1851C80.5553 31.1798 80.5553 31.0471 80.5553 30.7869C80.554 30.6949 80.5992 30.6489 80.6909 30.6489L83.6297 30.6509C83.7188 30.6509 83.764 30.6969 83.7653 30.7889L83.7673 31.1931C83.7686 31.2732 83.7293 31.3132 83.6493 31.3132H82.8493C82.7549 31.3132 82.7077 31.3612 82.7077 31.4573Z" fill="#5AA394"/>
</svg>
