<svg width="62" height="25" viewBox="0 0 62 25" fill="none" xmlns="http://www.w3.org/2000/svg">
<path d="M30.9572 0.237305L32.0995 2.65555L34.7524 2.99463L32.8055 4.82827L33.3028 7.45608L30.9572 6.17109L28.6117 7.45608L29.109 4.82827L27.1621 2.99463L29.815 2.65555L30.9572 0.237305Z" fill="#D4AF37"/>
<path fill-rule="evenodd" clip-rule="evenodd" d="M1.21006 12.6451C1.0997 13.2329 1.03985 13.8282 1.03208 14.4257L1.02742 14.4413C0.792705 15.012 0.497372 15.5581 0.147636 16.0715C0.108776 15.5194 0.114217 14.9651 0.163957 14.4137C0.30696 12.8468 0.970682 11.0268 2.32688 9.66895C1.77663 10.5908 1.39814 11.5983 1.21006 12.6451ZM1.4981 14.4598C1.8867 14.8519 2.68876 15.2039 3.73408 15.4353C4.40247 15.5819 5.08484 15.6659 5.77033 15.6845C3.68279 14.1756 2.6771 12.4159 2.65223 10.0164C2.16882 10.8601 1.83541 11.7746 1.66598 12.7225C1.55873 13.2961 1.50277 13.8772 1.49733 14.4598H1.4981ZM1.51372 15.0553L1.51369 15.0547H1.51292L1.51372 15.0553ZM1.51372 15.0553C1.54795 15.6704 1.64897 16.2811 1.81524 16.8762C2.93362 17.6946 4.59292 18.2021 6.52813 18.3159C7.70324 18.3858 8.88302 18.3055 10.0364 18.0763C9.64778 17.8531 9.2211 17.618 8.74934 17.3769C7.94029 17.0079 7.15843 16.5867 6.40922 16.1172C5.60716 16.1671 4.57272 16.0763 3.62998 15.868C3.06753 15.7445 2.15486 15.4909 1.51372 15.0553ZM0.890826 19.252C1.13642 18.6761 1.34704 18.0868 1.52191 17.4871C1.78071 18.2364 2.13822 18.9507 2.58588 19.6129C2.68614 19.9328 3.00945 21.069 2.93795 22.3138C2.05117 21.4328 1.35559 20.3919 0.890826 19.252ZM6.44853 23.0558C7.67494 23.7247 9.00549 24.2023 10.3889 24.4695C10.4322 24.478 10.4755 24.4861 10.5188 24.4943C10.5663 24.5032 10.6137 24.5122 10.6609 24.5215C10.7759 24.5409 10.8902 24.558 11.0044 24.5736C10.364 24.8065 9.55263 24.9047 8.54228 24.8192C6.45164 24.6473 4.71228 23.8668 3.36774 22.7128C3.4408 22.0133 3.41671 21.308 3.29624 20.6145C3.29373 20.6008 3.29138 20.587 3.28904 20.5733L3.28904 20.5733L3.28904 20.5733L3.28902 20.5732L3.28902 20.5732C3.28631 20.5573 3.28361 20.5415 3.2807 20.526C4.16825 21.5461 5.24155 22.4032 6.44853 23.0558ZM8.67161 21.4099C8.13146 21.3794 7.59364 21.3199 7.06049 21.2298C6.56853 21.1465 6.08123 21.0371 5.6017 20.9025C4.89135 20.7045 4.20198 20.4449 3.54215 20.1257C3.5545 20.1403 3.56675 20.1545 3.57901 20.1688L3.57904 20.1688L3.57905 20.1688L3.57906 20.1688L3.57907 20.1688L3.57908 20.1689C3.59918 20.1922 3.61933 20.2156 3.64007 20.241C4.4911 21.2194 5.52165 22.0416 6.67967 22.6673C7.86333 23.3132 9.14725 23.7745 10.4825 24.0334C10.8983 24.116 11.3203 24.1696 11.7446 24.1941C12.4635 23.6986 12.8327 22.9642 12.9057 22.1502C12.9493 21.7656 12.9267 21.3772 12.8397 20.9992C11.6249 21.3459 10.1646 21.494 8.67161 21.4099ZM1.27109 16.6219C1.17938 16.2268 1.11488 15.8257 1.07679 15.4224C0.83975 15.886 0.550635 16.3242 0.214888 16.7283C0.300379 17.3681 0.447268 17.9983 0.652447 18.6129C0.875501 18.0281 1.06591 17.4321 1.22291 16.8272L1.27109 16.6219ZM3.67392 18.2698C4.59023 18.5459 5.53918 18.7111 6.49901 18.7594C7.86998 18.845 9.24639 18.7274 10.58 18.4112C11.686 19.121 12.3746 19.7966 12.7002 20.5771C11.543 20.9082 10.1378 21.0489 8.69536 20.9678C7.69045 20.9127 6.69487 20.7483 5.72882 20.4774C4.73479 20.2029 3.78506 19.7974 2.90761 19.2728C2.55399 18.7341 2.26254 18.1605 2.03794 17.5615C2.55244 17.8584 3.10113 18.0965 3.67392 18.2698Z" fill="#5AA394"/>
<path fill-rule="evenodd" clip-rule="evenodd" d="M60.3808 12.6451C60.4911 13.2329 60.551 13.8282 60.5587 14.4257L60.5634 14.4413C60.7981 15.012 61.0934 15.5581 61.4432 16.0715C61.482 15.5194 61.4766 14.9651 61.4269 14.4137C61.2839 12.8468 60.6201 11.0268 59.2639 9.66895C59.8142 10.5908 60.1927 11.5983 60.3808 12.6451ZM60.0927 14.4598C59.7041 14.8519 58.902 15.2039 57.8567 15.4353C57.1883 15.5819 56.506 15.6659 55.8205 15.6845C57.908 14.1756 58.9137 12.4159 58.9386 10.0164C59.422 10.8601 59.7554 11.7746 59.9248 12.7225C60.0321 13.2961 60.088 13.8772 60.0935 14.4598H60.0927ZM60.0771 15.0553L60.0771 15.0547H60.0779L60.0771 15.0553ZM60.0771 15.0553C60.0429 15.6704 59.9418 16.2811 59.7756 16.8762C58.6572 17.6946 56.9979 18.2021 55.0627 18.3159C53.8876 18.3858 52.7078 18.3055 51.5544 18.0763C51.943 17.8531 52.3697 17.618 52.8415 17.3769C53.6505 17.0079 54.4324 16.5867 55.1816 16.1172C55.9837 16.1671 57.0181 16.0763 57.9608 15.868C58.5233 15.7445 59.4359 15.4909 60.0771 15.0553ZM60.7 19.252C60.4544 18.6761 60.2438 18.0868 60.0689 17.4871C59.8101 18.2364 59.4526 18.9507 59.0049 19.6129C58.9047 19.9328 58.5814 21.069 58.6529 22.3138C59.5396 21.4328 60.2352 20.3919 60.7 19.252ZM55.1423 23.0558C53.9159 23.7247 52.5853 24.2023 51.2019 24.4695C51.1586 24.478 51.1153 24.4861 51.0721 24.4943C51.0245 24.5032 50.9771 24.5122 50.9299 24.5215C50.8149 24.5409 50.7006 24.558 50.5864 24.5736C51.2268 24.8065 52.0382 24.9047 53.0485 24.8192C55.1392 24.6473 56.8785 23.8668 58.2231 22.7128C58.15 22.0133 58.1741 21.308 58.2946 20.6145C58.2971 20.6008 58.2994 20.587 58.3018 20.5733L58.3018 20.5733L58.3018 20.5733L58.3018 20.5732L58.3018 20.5732C58.3045 20.5573 58.3072 20.5415 58.3101 20.526C57.4226 21.5461 56.3493 22.4032 55.1423 23.0558ZM52.9192 21.4099C53.4593 21.3794 53.9972 21.3199 54.5303 21.2298C55.0223 21.1465 55.5096 21.0371 55.9891 20.9025C56.6995 20.7045 57.3888 20.4449 58.0487 20.1257C58.0363 20.1403 58.0241 20.1545 58.0118 20.1688L58.0118 20.1688L58.0118 20.1688L58.0117 20.1688L58.0117 20.1688L58.0117 20.1689C57.9916 20.1922 57.9715 20.2156 57.9507 20.241C57.0997 21.2194 56.0692 22.0416 54.9111 22.6673C53.7275 23.3132 52.4436 23.7745 51.1083 24.0334C50.6925 24.116 50.2705 24.1696 49.8462 24.1941C49.1273 23.6986 48.7581 22.9642 48.6851 22.1502C48.6415 21.7656 48.6641 21.3772 48.7511 20.9992C49.9659 21.3459 51.4262 21.494 52.9192 21.4099ZM60.3197 16.6219C60.4114 16.2268 60.4759 15.8257 60.514 15.4224C60.7511 15.886 61.0402 16.3242 61.3759 16.7283C61.2904 17.3681 61.1435 17.9983 60.9384 18.6129C60.7153 18.0281 60.5249 17.4321 60.3679 16.8272L60.3197 16.6219ZM57.9169 18.2698C57.0006 18.5459 56.0516 18.7111 55.0918 18.7594C53.7208 18.845 52.3444 18.7274 51.0108 18.4112C49.9048 19.121 49.2162 19.7966 48.8906 20.5771C50.0478 20.9082 51.453 21.0489 52.8955 20.9678C53.9004 20.9127 54.8959 20.7483 55.862 20.4774C56.856 20.2029 57.8057 19.7974 58.6832 19.2728C59.0368 18.7341 59.3283 18.1605 59.5529 17.5615C59.0384 17.8584 58.4897 18.0965 57.9169 18.2698Z" fill="#5AA394"/>
<path d="M25.4752 10.3945H30.9376C33.2454 10.3945 34.9604 11.0509 36.0826 12.3847C37.2047 13.7186 37.5646 15.4971 37.1835 17.7202C36.4001 22.484 33.3301 25.0035 28.4393 25.0035H22.8921L25.4752 10.3945ZM32.8432 17.6143C33.2454 15.1583 32.3985 13.6551 30.4718 13.6551H29.0321L27.6136 21.743H29.0533C31.0223 21.743 32.4409 20.2185 32.8432 17.6143Z" fill="#BFE4DC"/>
<path d="M42.5986 10.3945H48.1882L49.4585 19.101L48.9419 19.8113C47.6931 21.5283 48.285 23.9557 50.184 24.9052L46.0921 25.0035L45.8592 22.971H40.4814L39.5286 25.0035H35.6329L35.7388 24.3683L42.5986 10.3945ZM43.9113 15.73L41.9423 19.901H45.4781L44.9911 15.73L45.0123 13.8245H44.5253L43.9113 15.73Z" fill="#BFE4DC"/>
<path d="M23.8199 13.8245L24.4339 10.3945H14.0594L12.4563 19.4637C12.9399 19.9474 13.5446 21.2776 13.1818 22.7286C12.8027 24.2448 11.5556 24.8498 11.229 25.0035H15.5838L16.4095 20.3456H21.8085L22.3802 17.1485H16.9812L17.574 13.8245H23.8199Z" fill="#BFE4DC"/>
</svg>
