<svg width="42" height="41" viewBox="0 0 42 41" fill="none" xmlns="http://www.w3.org/2000/svg">
<path d="M37.4605 10.7163L37.4297 11.0023C37.4215 11.0703 37.3873 11.1216 37.3272 11.1563L20.6013 20.5803L3.41406 10.9143L20.4578 1.2983C20.5521 1.24497 20.6464 1.24497 20.7407 1.2983L37.4605 10.7163Z" fill="#78C1B2"/>
<path d="M3.41406 10.9141L20.6013 20.5801C20.5985 26.6627 20.5931 32.7427 20.5849 38.8201C20.5849 39.2321 20.6928 39.5461 20.9088 39.7621C20.8295 39.8261 20.7523 39.8687 20.6771 39.8901C20.606 39.9101 20.5391 39.9021 20.4762 39.8661C14.8032 36.6621 9.15133 33.4774 3.52066 30.3121C3.49203 30.2957 3.46827 30.2723 3.45174 30.2443C3.4352 30.2162 3.42645 30.1844 3.42636 30.1521L3.41406 10.9141ZM8.70306 16.1941C8.70281 16.1831 8.69966 16.1723 8.69391 16.1629C8.68817 16.1534 8.68002 16.1456 8.67026 16.1401L5.84536 14.5541C5.8355 14.5485 5.82432 14.5455 5.81292 14.5455C5.80153 14.5454 5.79032 14.5482 5.78039 14.5537C5.77046 14.5591 5.76215 14.567 5.75629 14.5766C5.75043 14.5861 5.74721 14.5969 5.74696 14.6081L5.74491 28.4521C5.74517 28.4631 5.74832 28.4738 5.75406 28.4833C5.75981 28.4927 5.76795 28.5006 5.77771 28.5061L18.4078 35.6241C18.4176 35.6296 18.4288 35.6326 18.4402 35.6326C18.4516 35.6327 18.4628 35.6299 18.4727 35.6244C18.4827 35.619 18.491 35.6111 18.4968 35.6016C18.5027 35.592 18.5059 35.5812 18.5062 35.5701L18.5123 32.3401C18.5124 32.3287 18.5094 32.3176 18.5037 32.3077C18.4979 32.2979 18.4896 32.2897 18.4795 32.2841L8.73791 26.8001C8.72815 26.7946 8.72001 26.7867 8.71426 26.7773C8.70852 26.7678 8.70537 26.7571 8.70511 26.7461L8.70306 16.1941ZM12.2352 18.0881C12.2248 18.082 12.213 18.0787 12.2009 18.0786C12.1888 18.0785 12.1769 18.0816 12.1664 18.0875C12.1559 18.0935 12.1473 18.102 12.1414 18.1123C12.1354 18.1226 12.1324 18.1343 12.1327 18.1461L12.1368 26.5381C12.1366 26.5497 12.1395 26.5612 12.1452 26.5714C12.151 26.5816 12.1594 26.5901 12.1696 26.5961L18.4078 30.1961C18.4181 30.2021 18.43 30.2054 18.4421 30.2055C18.4542 30.2056 18.4661 30.2025 18.4766 30.1966C18.487 30.1907 18.4957 30.1821 18.5016 30.1718C18.5075 30.1615 18.5105 30.1499 18.5103 30.1381L18.5082 21.7341C18.5085 21.7224 18.5056 21.7109 18.4998 21.7008C18.4941 21.6906 18.4856 21.6821 18.4754 21.6761L12.2352 18.0881Z" fill="#468F80"/>
<path d="M16.2225 26.0104L14.3406 24.9144C14.3292 24.9079 14.3197 24.8986 14.3132 24.8873C14.3067 24.8761 14.3034 24.8633 14.3037 24.8504L14.3181 22.3324C14.3181 22.3198 14.3216 22.3074 14.3281 22.2965C14.3346 22.2856 14.3439 22.2766 14.3551 22.2703C14.3663 22.264 14.379 22.2607 14.392 22.2607C14.4049 22.2608 14.4176 22.2641 14.4288 22.2704L16.2902 23.3484C16.3011 23.3545 16.3101 23.3632 16.3166 23.3737C16.3231 23.3842 16.3267 23.3962 16.3271 23.4084L16.3353 25.9484C16.3354 25.9613 16.332 25.974 16.3254 25.9852C16.3188 25.9964 16.3092 26.0056 16.2977 26.012C16.2862 26.0183 16.2731 26.0215 16.2599 26.0212C16.2467 26.0209 16.2338 26.0172 16.2225 26.0104Z" fill="#468F80"/>
<path fill-rule="evenodd" clip-rule="evenodd" d="M37.8009 11.0763C37.8009 10.8823 37.6348 10.7683 37.4606 10.7163L37.4298 11.0023C37.4216 11.0703 37.3874 11.1216 37.3273 11.1563L20.6014 20.5803C20.5986 26.663 20.5932 32.743 20.585 38.8203C20.585 39.2323 20.6929 39.5463 20.9089 39.7623L30.1441 34.5583C30.161 34.5485 30.175 34.5345 30.1847 34.5177C30.1944 34.5009 30.1995 34.4818 30.1995 34.4623L30.2036 21.0123C30.2033 20.9981 30.1992 20.9843 30.1919 20.9721C30.1845 20.9599 30.1739 20.9498 30.1614 20.9428C30.1488 20.9357 30.1345 20.932 30.12 20.9319C30.1055 20.9318 30.0912 20.9354 30.0785 20.9423L27.4156 22.4463C27.4072 22.4508 27.3979 22.4531 27.3884 22.453C27.3789 22.4529 27.3695 22.4504 27.3613 22.4458C27.3531 22.4412 27.3462 22.4346 27.3413 22.4266C27.3365 22.4186 27.3338 22.4096 27.3336 22.4003L27.3315 19.2283C27.3315 19.1536 27.365 19.097 27.432 19.0583L35.6279 14.4423C35.6413 14.4349 35.6564 14.431 35.6718 14.431C35.6872 14.4309 35.7023 14.4347 35.7155 14.442C35.7288 14.4493 35.7398 14.4598 35.7475 14.4725C35.7551 14.4852 35.7591 14.4996 35.7591 14.5143L35.757 17.5783C35.7571 17.6312 35.7429 17.6831 35.7159 17.7287C35.6889 17.7744 35.65 17.8122 35.6033 17.8383L33.3278 19.1063C33.2403 19.1543 33.1966 19.2276 33.1966 19.3263V32.6963C33.1966 32.7963 33.241 32.8216 33.3298 32.7723L37.6574 30.3363C37.7016 30.3114 37.7384 30.2755 37.7639 30.2323C37.7895 30.1892 37.8029 30.1402 37.8029 30.0903C37.8015 23.8023 37.8009 17.4643 37.8009 11.0763ZM28.9963 32.2553C28.9909 32.2648 28.9831 32.2727 28.9736 32.2783L22.7354 35.8803C22.7259 35.8859 22.7149 35.889 22.7038 35.8892C22.6926 35.8894 22.6816 35.8867 22.6718 35.8815C22.6621 35.8762 22.6539 35.8685 22.6481 35.8592C22.6424 35.8498 22.6393 35.8392 22.6391 35.8283L22.6432 27.4203C22.643 27.4095 22.6458 27.3988 22.6512 27.3893C22.6565 27.3798 22.6644 27.3719 22.6739 27.3663L28.9059 23.7703C28.9155 23.7647 28.9264 23.7616 28.9375 23.7614C28.9487 23.7612 28.9597 23.7639 28.9695 23.7692C28.9792 23.7744 28.9874 23.7821 28.9932 23.7914C28.9989 23.8008 29.0021 23.8114 29.0023 23.8223L29.0043 32.2243C29.0045 32.2351 29.0017 32.2458 28.9963 32.2553ZM24.9248 31.6878L26.8005 30.6038C26.8107 30.5978 26.8192 30.5893 26.8249 30.5791C26.8307 30.5689 26.8336 30.5575 26.8333 30.5458L26.8415 28.0098C26.8418 27.998 26.8388 27.9864 26.8329 27.9761C26.8269 27.9658 26.8183 27.9572 26.8078 27.9513C26.7974 27.9454 26.7854 27.9423 26.7733 27.9424C26.7612 27.9425 26.7494 27.9457 26.739 27.9518L24.8653 29.0218C24.8551 29.0278 24.8467 29.0363 24.8409 29.0465C24.8352 29.0567 24.8323 29.0682 24.8325 29.0798L24.8223 31.6318C24.8224 31.6435 24.8256 31.6549 24.8317 31.6649C24.8378 31.6749 24.8465 31.6832 24.8569 31.6888C24.8673 31.6945 24.879 31.6974 24.891 31.6972C24.9029 31.6971 24.9145 31.6938 24.9248 31.6878Z" fill="#5AA394"/>
</svg>
