<svg width="30" height="38" viewBox="0 0 30 38" fill="none" xmlns="http://www.w3.org/2000/svg">
<g clip-path="url(#clip0_302_84)">
<path d="M17.7819 14.381V16.9269C17.7819 17.0307 17.7478 17.1174 17.6625 17.2042C17.5944 17.2909 17.509 17.3255 17.3896 17.3255H12.0886C11.9692 17.3255 11.8839 17.2909 11.799 17.2042C11.731 17.1174 11.6969 17.0312 11.6969 16.9269V14.381C11.6969 14.2597 11.731 14.1905 11.799 14.1038C11.8844 14.0171 11.9692 13.9825 12.0886 13.9825H12.3615C12.8559 13.9655 14.3558 13.7574 14.3558 12.2852V12.008C14.3385 10.7608 12.4977 9.77384 10.2986 9.77384C8.09956 9.77384 6.29277 10.7608 6.24144 12.008V12.3714C6.29277 13.7915 7.74134 13.9649 8.25301 13.9819H8.52586C8.62798 13.9819 8.71335 14.0165 8.79872 14.1033C8.88409 14.19 8.91812 14.2591 8.91812 14.3805V16.9264C8.91812 17.0301 8.88409 17.1169 8.79872 17.2036C8.71335 17.2903 8.62852 17.3249 8.52586 17.3249H3.20708C3.10496 17.3249 3.01959 17.2903 2.93423 17.2036C2.84886 17.1169 2.83211 17.0307 2.83211 16.9264V14.3805C2.83211 14.2591 2.8494 14.19 2.93423 14.1033C3.01905 14.0165 3.10442 13.9819 3.20708 13.9819H3.49668C3.97378 13.9649 5.38884 13.7915 5.47421 12.4235V7.14173C5.47421 5.65248 3.99107 5.47902 3.49668 5.462H3.18979C3.07038 5.462 2.93423 5.39284 2.8829 5.28909C2.83157 5.16777 2.79753 5.06403 2.83157 4.94271C3.05363 4.24996 3.4459 2.96876 3.63338 2.41434C3.68471 2.24143 3.82087 2.12012 3.99161 2.12012H5.88376C6.00317 2.12012 6.07125 2.1547 6.15662 2.24143C6.24198 2.32816 6.27602 2.41434 6.27602 2.51864V9.09976C7.12809 7.61051 8.62852 6.62354 10.3332 6.62354C12.924 6.62354 15.089 8.92684 15.1403 11.8708V12.4598C15.2597 13.7931 16.6402 13.9666 17.1178 13.9836H17.3907C17.5101 13.9836 17.5955 14.0182 17.6635 14.1049C17.7489 14.1916 17.7829 14.2608 17.7829 14.3821L17.7819 14.381Z" fill="#5AA394"/>
<path d="M11.7712 24.8382L12.4331 25.7758C12.6735 26.1222 12.814 26.6316 12.814 27.0597V31.9095C12.814 32.3377 12.6735 32.8674 12.4331 33.1935L11.7712 34.131C11.4502 34.5998 10.8889 34.9056 10.3669 34.9056H7.1575C6.65609 34.9056 6.09472 34.5998 5.77323 34.131L5.11136 33.1935C4.87038 32.8674 4.71045 32.3377 4.71045 31.9095V27.0597C4.71045 26.6316 4.87092 26.1222 5.11136 25.7758L5.77323 24.8382C6.09418 24.3897 6.65555 24.084 7.1575 24.084H10.3669C10.8883 24.084 11.4502 24.3897 11.7712 24.8382ZM10.247 27.3858L9.98601 27.0394H7.53896L7.29852 27.3858V31.584L7.53896 31.9507H9.98601L10.247 31.584V27.3858Z" fill="#5AA394"/>
<path d="M25.6766 17.4396H21.3709V15.2625H19.208V8.69073H21.3709V6.51367H25.6766V8.69073H27.8194V15.2625H25.6766V17.4396ZM25.6766 15.2625V8.69073H21.3709V15.2625H25.6766Z" fill="#5AA394"/>
<path d="M16.613 26.0416C17.055 24.9009 18.0837 24.1889 19.2902 24.1889H22.3219L22.8179 22.9083L22.8357 22.8622L23.1475 22.0569L23.5446 21.0315L23.6186 20.841L24.0146 19.8184H27.3613C26.727 20.179 26.3639 20.5863 26.1083 21.245L25.7939 22.0563L24.1757 26.2342L23.812 27.1724L23.5159 27.937L23.3566 28.3493L23.3198 28.4442L23.2377 28.6561L21.7794 32.4218L21.2537 33.7798L21.1797 33.9703C21.09 34.2042 21.1197 34.4512 21.2645 34.6631C21.4093 34.8755 21.6287 34.993 21.8788 34.993H19.2324C18.9817 34.993 18.7623 34.8755 18.6175 34.6631C18.4733 34.4512 18.443 34.2042 18.5327 33.9703L18.6067 33.7798L18.6894 33.5658L18.6964 33.5482L18.7634 33.3758L18.7856 33.3187L18.8007 33.2792L17.3035 34.5505C17.2062 34.6329 17.1171 34.7053 17.0344 34.7685C16.902 34.8618 16.7616 34.9364 16.6162 34.993C16.1797 35.162 15.6993 35.1631 15.2595 34.993C15.1007 34.932 14.9472 34.8481 14.803 34.7427C13.9244 34.0982 13.8758 33.0849 14.1459 32.3943C14.1913 32.278 14.2362 32.1643 14.2783 32.0556L14.8581 30.5686L15.3146 29.39L15.5983 28.6567L16.2942 26.8606L16.6114 26.0421L16.613 26.0416ZM21.8496 25.4092C22.2722 24.3092 20.9257 24.2422 19.9883 25.0595C19.6484 25.356 19.3767 25.7408 19.2005 26.1953L18.9428 26.8606L18.2469 28.6567L17.6801 30.1201L16.7729 32.4613C16.6222 32.8521 16.7464 33.2825 17.0814 33.5279C17.873 34.1081 19.0379 32.6694 19.2891 32.0205L19.7857 30.7382L20.5918 28.6572L21.345 26.7129L21.8496 25.4098V25.4092Z" fill="#5AA394"/>
</g>
<defs>
<clipPath id="clip0_302_84">
<rect width="25" height="33" fill="white" transform="translate(2.81885 2.12012)"/>
</clipPath>
</defs>
</svg>
