<svg width="116" height="23" viewBox="0 0 116 23" fill="none" xmlns="http://www.w3.org/2000/svg">
<path d="M16.2793 1.13525H27.2695V3.68844H23.2931V10.394H20.2687V3.68844H16.2793V1.13525Z" fill="#141414"/>
<path d="M28.5439 5.86802V1.13525H31.5684V5.76464C31.5684 6.92535 32.0832 8.09856 34.1681 8.09856C36.253 8.09856 36.7549 6.91237 36.7549 5.76464V1.13525H39.7923V5.86802C39.7923 8.97607 38.1191 10.6522 34.1686 10.6522C30.2181 10.6522 28.5449 8.97559 28.5449 5.86802H28.5439Z" fill="#141414"/>
<path d="M41.168 1.13525H47.77C50.447 1.13525 52.3899 3.06961 52.3899 5.75165C52.3899 8.43369 50.4466 10.394 47.77 10.394H41.168V1.13477V1.13525ZM46.5474 7.84084C48.3746 7.84084 49.2628 7.1446 49.2628 5.75165C49.2628 4.3587 48.3746 3.68843 46.5474 3.68843H44.1924V7.84084H46.5474Z" fill="#141414"/>
<path d="M53.6641 1.13525H56.6885V10.3945H53.6641V1.13525Z" fill="#141414"/>
<path d="M57.9624 5.76466C57.9624 2.82441 60.5103 0.916016 64.4354 0.916016C68.3605 0.916016 70.9213 2.82441 70.9213 5.76466C70.9213 8.7049 68.3859 10.6522 64.4354 10.6522C60.4849 10.6522 57.9624 8.73087 57.9624 5.76466ZM64.4354 8.09858C66.4814 8.09858 67.7813 7.17011 67.7813 5.76466C67.7813 4.35921 66.4814 3.45621 64.4354 3.45621C62.3894 3.45621 61.1154 4.37171 61.1154 5.76466C61.1154 7.15761 62.4153 8.09858 64.4354 8.09858Z" fill="#141414"/>
<path d="M20.3736 14.9203V22.0798H17.3492V15.8382H11.9194V22.0798H8.89498V22.0664H4.44114V15.8378H3.03906V22.0664H0.0146484V12.8071H7.46459V19.0357H8.89498V14.7987C9.05045 13.787 9.85082 12.9802 10.859 12.8201H11.1651V12.8066H18.2916C18.3242 12.8095 18.3569 12.8148 18.389 12.8201C18.6136 12.8557 18.8252 12.922 19.0243 13.0168C19.0325 13.0206 19.0416 13.0249 19.0498 13.0288C19.7705 13.3812 20.2901 14.088 20.3736 14.9194V14.9203Z" fill="#141414"/>
<path d="M26.0207 12.8057H29.8814L34.6045 22.0649H31.3742L30.5633 20.3498H25.3254L24.502 22.0649H21.2847L26.0207 12.8057ZM29.5211 18.1702L27.9381 14.8559L26.3551 18.1702H29.5211Z" fill="#141414"/>
<path d="M35.6333 12.8057H43.1619C45.6974 12.8057 46.9584 13.7731 46.9584 15.6425C46.9584 16.9191 46.2636 17.7572 45.0151 18.1313C46.1993 18.2087 46.9454 18.892 46.9454 20.0272V22.0649H43.921V20.5176C43.921 19.6925 43.6893 19.4473 42.8659 19.4473H38.6577V22.0649H35.6333V12.8057ZM42.4412 17.0225C43.2521 17.0225 43.8054 16.8677 43.8054 16.12C43.8054 15.3723 43.2521 15.23 42.4412 15.23H38.6577V17.0225H42.4412Z" fill="#141414"/>
<path d="M52.8517 12.8057H56.7125L61.4355 22.0649H58.2052L57.3943 20.3498H52.1564L51.333 22.0649H48.1157L52.8517 12.8057ZM56.3521 18.1702L54.7691 14.8559L53.1862 18.1702H56.3521Z" fill="#141414"/>
<path d="M61.3071 17.4351C61.3071 14.4948 63.7394 12.5864 67.4457 12.5864C70.8688 12.5864 73.2752 14.1727 73.5199 16.5455H70.3026C70.1481 15.7459 69.0411 15.1271 67.4457 15.1271C65.6309 15.1271 64.4601 16.0556 64.4601 17.4355C64.4601 18.8155 65.6314 19.7695 67.4457 19.7695C69.0416 19.7695 70.1481 19.1507 70.3026 18.3381H73.5199C73.2752 20.7369 70.8688 22.3227 67.4457 22.3227C63.7394 22.3227 61.3071 20.4013 61.3071 17.4351Z" fill="#141414"/>
<path d="M74.7935 17.5384V12.8057H77.8179V17.4351C77.8179 18.5958 78.3327 19.769 80.4176 19.769C82.5025 19.769 83.0044 18.5823 83.0044 17.4351V12.8057H86.0413V17.5384C86.0413 20.646 84.3681 22.3226 80.4176 22.3226C76.4671 22.3226 74.7939 20.646 74.7939 17.5384H74.7935Z" fill="#141414"/>
<path d="M87.4312 17.5384H90.4556C90.4556 18.6087 90.8418 19.7695 92.7976 19.7695C94.7535 19.7695 95.1272 18.5958 95.1272 17.5384V15.3588H91.6652V12.8057H98.1641V17.5384C98.1641 20.646 96.6071 22.3226 92.7976 22.3226C88.9882 22.3226 87.4312 20.659 87.4312 17.5384Z" fill="#141414"/>
<path d="M103.015 12.8057H106.876L111.599 22.0649H108.368L107.557 20.3498H102.32L101.496 22.0649H98.2788L103.015 12.8057ZM106.515 18.1702L104.932 14.8559L103.349 18.1702H106.515Z" fill="#141414"/>
<path d="M112.86 19.7178H116V22.0647H112.86V19.7178Z" fill="#141414"/>
<path d="M12.2713 6.76403V8.10072H0.034068V10.6977L10.7776 10.7116C10.7973 10.7116 10.817 10.7126 10.8361 10.7145C10.9398 10.7246 11.0583 10.7159 11.1648 10.7159C11.2819 10.7159 11.3966 10.7097 11.5094 10.6977C11.5986 10.6885 11.6874 10.6765 11.7747 10.6602C13.0707 10.4169 14.0995 9.41097 14.3802 8.12572C14.3821 8.11755 14.3831 8.10937 14.3855 8.1012C14.4311 7.88002 14.4556 7.65307 14.4556 7.41843C14.4556 7.18379 14.4311 6.95684 14.3855 6.73566C14.3855 6.73566 14.3706 6.67988 14.373 6.67652C14.1504 5.6538 13.5184 4.88304 12.5933 4.45414C12.564 4.43972 12.5333 4.42673 12.5026 4.41327C12.4681 4.39885 12.4335 4.3849 12.398 4.37048C12.2934 4.32864 12.1864 4.29306 12.077 4.26373C12.0751 4.26373 12.0741 4.26277 12.0732 4.26277C12.0233 4.24835 11.9724 4.23633 11.9215 4.22527C11.887 4.21709 11.8524 4.20988 11.8179 4.20411C11.7997 4.20123 11.7814 4.1969 11.7632 4.19498C11.7358 4.18969 11.7095 4.18584 11.6821 4.18151L11.6639 4.17863C11.6394 4.17574 11.6149 4.17238 11.5905 4.16949C11.5794 4.16757 11.5669 4.16661 11.5559 4.16565C11.4398 4.15218 11.3213 4.14641 11.2013 4.14641C11.0813 4.14641 10.9105 4.13583 10.8107 4.14112H1.66839V3.70501H14.3994V1.10808L2.9961 1.10423C2.939 1.10038 2.88526 1.10183 2.82624 1.10183C2.76722 1.10183 2.70916 1.10375 2.65254 1.10808C1.32099 1.18837 0.237999 2.19282 0.0345483 3.49105C0.011996 3.63482 0 3.78243 0 3.93341C0 4.08439 0.011996 4.232 0.0345483 4.37673C0.225523 5.60139 1.19095 6.53563 2.4179 6.70921C2.54697 6.72844 2.68037 6.73758 2.81424 6.73758H2.81616C2.95147 6.73758 3.09447 6.75633 3.2245 6.73758H7.94465" fill="#141414"/>
</svg>
