<svg width="90" height="18" viewBox="0 0 90 18" fill="none" xmlns="http://www.w3.org/2000/svg">
<path d="M12.9507 0.354004H21.4229V2.36693H18.3575V7.6536H16.026V2.36693H12.9507V0.354004Z" fill="#5AA394"/>
<path d="M22.4023 4.08531V0.354004H24.7338V4.0038C24.7338 4.91891 25.1307 5.84387 26.738 5.84387C28.3452 5.84387 28.7321 4.90867 28.7321 4.0038V0.354004H31.0736V4.08531C31.0736 6.53569 29.7837 7.85717 26.7383 7.85717C23.6929 7.85717 22.4031 6.53531 22.4031 4.08531H22.4023Z" fill="#5AA394"/>
<path d="M32.1338 0.354383H37.2233C39.2869 0.354383 40.7847 1.87943 40.7847 3.99395C40.7847 6.10847 39.2866 7.65398 37.2233 7.65398H32.1338V0.354004V0.354383ZM36.2808 5.64106C37.6893 5.64106 38.374 5.09215 38.374 3.99395C38.374 2.89575 37.6893 2.36731 36.2808 2.36731H34.4653V5.64106H36.2808Z" fill="#5AA394"/>
<path d="M41.7686 0.354004H44.1V7.65398H41.7686V0.354004Z" fill="#5AA394"/>
<path d="M45.0835 4.0043C45.0835 1.68622 47.0477 0.181641 50.0735 0.181641C53.0993 0.181641 55.0734 1.68622 55.0734 4.0043C55.0734 6.32239 53.1189 7.85767 50.0735 7.85767C47.0281 7.85767 45.0835 6.34286 45.0835 4.0043ZM50.0735 5.84437C51.6507 5.84437 52.6528 5.11236 52.6528 4.0043C52.6528 2.89625 51.6507 2.18433 50.0735 2.18433C48.4962 2.18433 47.5141 2.9061 47.5141 4.0043C47.5141 5.1025 48.5162 5.84437 50.0735 5.84437Z" fill="#5AA394"/>
<path d="M16.1057 11.2221V16.8666H13.7742V11.9458H9.58838V16.8666H7.25689V16.856H3.82347V11.9454H2.74262V16.856H0.411133V9.55604H6.15422V14.4667H7.25689V11.1262C7.37674 10.3286 7.99374 9.69251 8.7709 9.56628H9.0069V9.55566H14.5007C14.5258 9.55794 14.551 9.56211 14.5758 9.56628C14.7489 9.59433 14.912 9.64664 15.0655 9.72132C15.0718 9.72436 15.0788 9.72777 15.0851 9.7308C15.6407 10.0087 16.0413 10.5659 16.1057 11.2213V11.2221Z" fill="#5AA394"/>
<path d="M20.4556 9.55469H23.4318L27.0728 16.8547H24.5826L23.9575 15.5025H19.9196L19.2849 16.8547H16.8047L20.4556 9.55469ZM23.154 13.7841L21.9337 11.1711L20.7134 13.7841H23.154Z" fill="#5AA394"/>
<path d="M27.8687 9.55469H33.6724C35.627 9.55469 36.5991 10.3174 36.5991 11.7913C36.5991 12.7977 36.0634 13.4585 35.101 13.7534C36.0139 13.8144 36.5891 14.3531 36.5891 15.2481V16.8547H34.2576V15.6348C34.2576 14.9843 34.0789 14.7909 33.4442 14.7909H30.2001V16.8547H27.8687V9.55469ZM33.1168 12.8792C33.7419 12.8792 34.1684 12.7572 34.1684 12.1677C34.1684 11.5782 33.7419 11.466 33.1168 11.466H30.2001V12.8792H33.1168Z" fill="#5AA394"/>
<path d="M41.1412 9.55469H44.1174L47.7583 16.8547H45.2681L44.643 15.5025H40.6052L39.9704 16.8547H37.4902L41.1412 9.55469ZM43.8396 13.7841L42.6193 11.1711L41.399 13.7841H43.8396Z" fill="#5AA394"/>
<path d="M47.6616 13.2045C47.6616 10.8864 49.5367 9.38184 52.3938 9.38184C55.0326 9.38184 56.8877 10.6324 57.0763 12.5032H54.5962C54.4771 11.8728 53.6237 11.3849 52.3938 11.3849C50.9948 11.3849 50.0922 12.1169 50.0922 13.2049C50.0922 14.2928 50.9952 15.0449 52.3938 15.0449C53.6241 15.0449 54.4771 14.5571 54.5962 13.9164H57.0763C56.8877 15.8077 55.0326 17.0579 52.3938 17.0579C49.5367 17.0579 47.6616 15.5431 47.6616 13.2045Z" fill="#5AA394"/>
<path d="M58.0557 13.286V9.55469H60.3872V13.2045C60.3872 14.1196 60.7841 15.0446 62.3913 15.0446C63.9985 15.0446 64.3854 14.109 64.3854 13.2045V9.55469H66.7265V13.286C66.7265 15.736 65.4367 17.0579 62.3913 17.0579C59.3459 17.0579 58.056 15.736 58.056 13.286H58.0557Z" fill="#5AA394"/>
<path d="M67.7959 13.286H70.1274C70.1274 14.1298 70.4252 15.0449 71.9329 15.0449C73.4406 15.0449 73.7287 14.1196 73.7287 13.286V11.5676H71.0599V9.55469H76.0698V13.286C76.0698 15.736 74.8695 17.0579 71.9329 17.0579C68.9962 17.0579 67.7959 15.7462 67.7959 13.286Z" fill="#5AA394"/>
<path d="M79.8125 9.55469H82.7888L86.4297 16.8547H83.9395L83.3144 15.5025H79.2766L78.6418 16.8547H76.1616L79.8125 9.55469ZM82.511 13.7841L81.2907 11.1711L80.0704 13.7841H82.511Z" fill="#5AA394"/>
<path d="M87.3979 15.0049H89.8186V16.8552H87.3979V15.0049Z" fill="#5AA394"/>
<path d="M9.85829 4.7924V5.84625H0.4247V7.89367L8.70679 7.90466C8.72195 7.90466 8.73712 7.90542 8.75191 7.90694C8.83181 7.9149 8.92318 7.90808 9.0053 7.90808C9.09555 7.90808 9.18396 7.90315 9.27089 7.89367C9.33969 7.88647 9.40812 7.87699 9.47544 7.8641C10.4745 7.67229 11.2676 6.87925 11.484 5.86596C11.4855 5.85952 11.4862 5.85307 11.4881 5.84663C11.5232 5.67225 11.5421 5.49332 11.5421 5.30833C11.5421 5.12334 11.5232 4.94441 11.4881 4.77004C11.4881 4.77004 11.4766 4.72606 11.4785 4.72341C11.3068 3.9171 10.8197 3.30943 10.1065 2.97129C10.0839 2.95992 10.0603 2.94968 10.0366 2.93907C10.0099 2.9277 9.98332 2.9167 9.95594 2.90533C9.87531 2.87235 9.79282 2.8443 9.70848 2.82118C9.707 2.82118 9.70626 2.82042 9.70552 2.82042C9.66705 2.80905 9.62784 2.79957 9.58863 2.79085C9.562 2.7844 9.53537 2.77872 9.50873 2.77417C9.49468 2.7719 9.48062 2.76848 9.46656 2.76697C9.44548 2.7628 9.42514 2.75976 9.40405 2.75635L9.38999 2.75408C9.37113 2.7518 9.35226 2.74915 9.3334 2.74688C9.32489 2.74536 9.31527 2.7446 9.30677 2.74384C9.21725 2.73323 9.12589 2.72868 9.03341 2.72868C8.94094 2.72868 8.80925 2.72034 8.73231 2.72451H1.68458V2.38068H11.4988V0.333261L2.7081 0.330229C2.66408 0.327196 2.62265 0.328334 2.57716 0.328334C2.53166 0.328334 2.4869 0.329849 2.44325 0.333261C1.41678 0.396568 0.581909 1.18847 0.42507 2.21199C0.407685 2.32534 0.398438 2.44171 0.398438 2.56075C0.398438 2.67978 0.407685 2.79616 0.42507 2.91026C0.572291 3.87578 1.31653 4.61234 2.26237 4.74919C2.36187 4.76435 2.46471 4.77155 2.56791 4.77155H2.56939C2.6737 4.77155 2.78393 4.78633 2.88417 4.77155H6.52289" fill="#5AA394"/>
</svg>
