<svg width="85" height="18" viewBox="0 0 85 18" fill="none" xmlns="http://www.w3.org/2000/svg">
<g clip-path="url(#clip0_302_113)">
<path d="M84.8125 10.3143C84.8128 8.86734 84.8128 7.42006 84.8099 5.97278C84.8061 4.18116 84.2426 2.68874 83.1809 1.6572C82.1187 0.624484 80.5814 0.0865861 78.8522 0.137042C77.0078 0.193103 75.1287 0.179531 73.3108 0.166843C72.5034 0.160942 71.6959 0.155336 70.8885 0.155336C70.6922 0.155336 70.4952 0.162712 70.303 0.175105C70.2375 0.179236 70.1728 0.183366 70.1084 0.186907L69.8733 0.19871V3.48127L80.3072 3.48186H80.3839C80.5664 3.48186 80.7369 3.48127 80.9077 3.49278C81.2219 3.51432 81.283 3.64769 81.2824 3.87046C81.2807 4.46354 81.281 5.05632 81.2816 5.68096V6.2463H80.7845C80.0806 6.24601 79.3781 6.24424 78.6753 6.24187C77.1166 6.23627 75.505 6.23066 73.9186 6.25928C70.8732 6.31475 68.8319 8.06919 68.4577 10.9522C68.1009 13.7007 69.6276 16.1049 72.1706 16.7986C72.9551 17.0128 73.7311 17.1199 74.4789 17.1196C75.2783 17.1196 76.0458 16.9975 76.7574 16.7532C77.6871 16.4339 78.5686 15.9556 79.421 15.4933C79.7672 15.3053 80.1252 15.1111 80.4791 14.9317C80.7322 14.8034 80.9826 14.6606 81.2483 14.5092C81.2657 14.4992 81.2833 14.4889 81.3012 14.4788V16.7237H81.549C81.8062 16.7237 82.0596 16.7219 82.31 16.7201C82.9082 16.716 83.4734 16.7127 84.0445 16.731C84.2111 16.7358 84.4554 16.7245 84.6268 16.5575C84.7972 16.3911 84.8196 16.1512 84.8187 15.9385C84.8119 14.0637 84.8122 12.1891 84.8125 10.3143ZM80.1723 11.5002C80.0294 11.5793 79.8874 11.6604 79.7458 11.7415C79.62 11.8132 79.4942 11.8849 79.3681 11.9555C77.2365 13.1442 74.9571 13.7197 72.5298 13.6822L72.4781 13.6813C72.0481 13.6748 71.9017 13.5284 71.8982 13.1018C71.8879 11.9286 71.8882 10.9685 71.9002 10.08C71.9052 9.69941 72.0501 9.54391 72.4002 9.54391H72.4011L75.6096 9.54598C77.5005 9.54686 79.3913 9.54804 81.2766 9.54982C81.3362 10.8546 81.3303 10.8578 80.1723 11.5002Z" fill="#5AA394"/>
<path d="M31.9917 11.3349C31.9856 13.6993 30.7076 15.6414 28.6568 16.4026C27.9214 16.6756 27.1281 16.834 26.3618 16.8603C25.5021 16.8901 24.5959 16.9048 23.6027 16.9048C22.7741 16.9048 21.8847 16.8945 20.9103 16.8741C18.1777 16.8163 16.2715 15.459 15.5429 13.0516C15.4288 12.6748 15.3118 12.229 15.3098 11.7767C15.2942 8.78974 15.2942 5.75296 15.2945 2.81621V0.759035C15.2942 0.68527 15.3018 0.610914 15.3113 0.526821L15.3433 0.1875H18.764V12.7238C18.7643 13.475 18.8161 13.5275 19.5521 13.5281C22.2712 13.5299 24.9906 13.5299 27.7098 13.5281C28.444 13.5275 28.5034 13.4671 28.504 12.7217C28.506 9.8856 28.5057 7.04976 28.5054 4.21362V0.194286H31.9453L31.9612 0.426205C31.9647 0.481972 31.9697 0.536263 31.9741 0.589375C31.9844 0.708875 31.9938 0.822769 31.9938 0.936958L31.9953 3.31663C31.9973 5.9896 31.9991 8.66227 31.9917 11.3349Z" fill="#5AA394"/>
<path d="M66.5754 13.0244C66.5683 13.2687 66.3558 13.5207 66.1592 13.6343C65.8323 13.8222 65.506 14.0122 65.1798 14.202C64.0293 14.8714 62.8395 15.564 61.6285 16.1718C60.7908 16.592 59.9008 16.7433 59.3012 16.7964C57.5732 16.9496 55.7867 17.1077 54.0701 16.3515C52.1678 15.5135 51.1173 13.9691 51.0324 11.8854C50.9504 9.86956 50.9471 7.74039 51.0221 5.18456C51.1041 2.40508 53.0431 0.362658 55.7382 0.217488C57.132 0.142542 58.5434 0.120117 59.9467 0.120117C61.0063 0.120117 62.0612 0.1331 63.1011 0.145493C64.1478 0.15818 65.2297 0.171458 66.2982 0.171458H66.5457V3.47969H62.7989C60.2867 3.47881 57.7754 3.47881 55.2635 3.48028C54.7258 3.48068 54.4567 3.75282 54.4564 4.29672C54.4555 7.10335 54.4555 9.91057 54.4566 12.7175C54.4569 13.4947 54.4881 13.5248 55.2961 13.5257C55.6435 13.5263 55.9907 13.5298 56.3381 13.533C57.2102 13.5419 58.1125 13.5508 58.9932 13.5089C59.5161 13.4838 60.0525 13.3439 60.4646 13.125C61.6711 12.4835 62.8807 11.7942 64.0505 11.1274C64.5208 10.8592 64.9911 10.5913 65.4631 10.3251C65.6027 10.2464 65.7441 10.1711 65.9187 10.0779L66.5889 9.71819L66.5903 10.8958C66.5927 11.6331 66.5948 12.3298 66.5754 13.0244Z" fill="#5AA394"/>
<path d="M41.3123 0.148438C41.3417 0.150208 41.3717 0.153158 41.4011 0.154929C42.9613 0.149323 44.5214 0.151388 46.0466 0.154044C46.9796 0.154929 47.9122 0.156699 48.844 0.156699H48.8448C48.9327 0.156699 49.0203 0.164961 49.1156 0.174993C49.1567 0.178534 49.1996 0.183255 49.2446 0.186796L49.4724 0.205089V3.48146H39.8236C39.6407 3.48323 39.4576 3.485 39.2766 3.48706C38.9291 3.49061 38.5826 3.49444 38.2349 3.49444C37.4266 3.49533 37.3954 3.52572 37.3954 4.30321C37.3945 7.10954 37.3945 9.91706 37.3954 12.7234C37.3954 12.9869 37.3954 13.1651 37.4227 13.2861C37.4227 13.287 37.4236 13.2878 37.4236 13.2887C37.4942 13.4897 37.6649 13.5248 38.0656 13.5266C38.3821 13.5283 38.6993 13.5313 39.0158 13.5348C39.1913 13.5366 39.368 13.5384 39.5452 13.5404C39.9541 13.5413 40.3617 13.5413 40.7706 13.5404C41.5251 13.5413 42.2796 13.5413 43.0339 13.5413H49.4838V16.8489H39.1693C38.9747 16.8489 38.7786 16.833 38.587 16.7985L38.565 16.7955C36.5127 16.6442 34.9152 15.3846 34.2695 13.5422C34.2686 13.5386 34.2668 13.5348 34.266 13.5313C34.0611 13.0016 33.9459 12.4333 33.935 11.8459C33.8903 9.39008 33.8903 7.21989 33.9341 5.21406C33.9532 4.36487 34.1719 3.56998 34.5449 2.87393C34.5669 2.83085 34.5907 2.78954 34.6143 2.74734C34.6207 2.73554 34.6272 2.72433 34.6342 2.71253C34.6554 2.67476 34.678 2.63817 34.701 2.60158C34.711 2.58417 34.7221 2.56677 34.7339 2.54936C34.7577 2.5107 34.7824 2.47323 34.808 2.43546C34.8373 2.39327 34.8664 2.35108 34.8976 2.30977C34.9032 2.30151 34.9085 2.29324 34.9149 2.28498C35.7947 1.07051 37.1885 0.262627 38.7851 0.178239L41.312 0.148733L41.3123 0.148438Z" fill="#5AA394"/>
<path d="M7.29484 10.4544C8.24277 7.03262 9.19098 3.61049 10.1418 0.177734H13.7848C12.677 4.0519 11.5771 7.89744 10.4652 11.7858H9.20186C9.19833 11.8082 9.1948 11.8309 9.19128 11.8533C9.41202 11.941 9.64011 12.0136 9.85232 12.1189C10.6324 12.5063 11.202 13.0728 11.3008 13.9875C11.409 14.9887 10.9431 15.7083 10.1366 16.2338C9.39761 16.7154 8.55756 16.9258 7.699 16.9482C6.0527 16.9907 4.40464 16.9606 2.72454 16.9606V14.089C3.80385 14.089 4.87169 14.1103 5.93807 14.0805C6.50976 14.0645 7.08733 14.0026 7.64668 13.886C8.19985 13.7707 8.50936 13.3821 8.52288 12.9445C8.53699 12.4916 8.28303 12.1127 7.66402 12.018C6.74167 11.8772 5.79992 11.8474 4.86522 11.8109C4.05574 11.7793 4.04428 11.8073 3.8253 11.0316C2.82095 7.4755 1.82306 3.91765 0.824873 0.360083C0.812234 0.314938 0.823403 0.262712 0.823403 0.186291H4.42786C5.34727 3.60193 6.26962 7.0273 7.19168 10.4524C7.22606 10.4533 7.26045 10.4539 7.29484 10.4547V10.4544Z" fill="#5AA394"/>
</g>
<defs>
<clipPath id="clip0_302_113">
<rect width="84" height="17" fill="white" transform="translate(0.818848 0.120117)"/>
</clipPath>
</defs>
</svg>
