<svg width="84" height="18" viewBox="0 0 84 18" fill="none" xmlns="http://www.w3.org/2000/svg">
<g clip-path="url(#clip0_94_6916)">
<path d="M83.9937 10.3143C83.994 8.86734 83.994 7.42006 83.991 5.97278C83.9872 4.18116 83.4238 2.68874 82.3621 1.6572C81.2998 0.624484 79.7626 0.0865861 78.0334 0.137042C76.189 0.193103 74.3099 0.179531 72.4919 0.166843C71.6845 0.160942 70.8771 0.155336 70.0697 0.155336C69.8733 0.155336 69.6764 0.162712 69.4842 0.175105C69.4186 0.179236 69.3539 0.183366 69.2896 0.186907L69.0544 0.19871V3.48127L79.4883 3.48186H79.565C79.7476 3.48186 79.9181 3.48127 80.0888 3.49278C80.403 3.51432 80.4642 3.64769 80.4636 3.87046C80.4618 4.46354 80.4621 5.05632 80.4627 5.68096V6.2463H79.9657C79.2617 6.24601 78.5592 6.24424 77.8564 6.24187C76.2977 6.23627 74.6861 6.23066 73.0998 6.25928C70.0544 6.31475 68.013 8.06919 67.6389 10.9522C67.282 13.7007 68.8087 16.1049 71.3518 16.7986C72.1363 17.0128 72.9123 17.1199 73.66 17.1196C74.4595 17.1196 75.2269 16.9975 75.9385 16.7532C76.8682 16.4339 77.7497 15.9556 78.6021 15.4933C78.9484 15.3053 79.3064 15.1111 79.6603 14.9317C79.9134 14.8034 80.1638 14.6606 80.4295 14.5092C80.4468 14.4992 80.4645 14.4889 80.4824 14.4788V16.7237H80.7302C80.9874 16.7237 81.2407 16.7219 81.4912 16.7201C82.0893 16.716 82.6545 16.7127 83.2256 16.731C83.3923 16.7358 83.6366 16.7245 83.8079 16.5575C83.9784 16.3911 84.0007 16.1512 83.9999 15.9385C83.9931 14.0637 83.9934 12.1891 83.9937 10.3143ZM79.3534 11.5002C79.2106 11.5793 79.0686 11.6604 78.9269 11.7415C78.8011 11.8132 78.6753 11.8849 78.5492 11.9555C76.4177 13.1442 74.1382 13.7197 71.711 13.6822L71.6592 13.6813C71.2292 13.6748 71.0828 13.5284 71.0793 13.1018C71.069 11.9286 71.0693 10.9685 71.0814 10.08C71.0864 9.69941 71.2313 9.54391 71.5813 9.54391H71.5822L74.7908 9.54598C76.6816 9.54686 78.5725 9.54804 80.4577 9.54982C80.5174 10.8546 80.5115 10.8578 79.3534 11.5002Z" fill="#3E00FF"/>
<path d="M31.1729 11.334C31.1667 13.6983 29.8887 15.6404 27.838 16.4017C27.1026 16.6746 26.3092 16.833 25.543 16.8593C24.6832 16.8891 23.777 16.9039 22.7839 16.9039C21.9553 16.9039 21.0658 16.8935 20.0915 16.8732C17.3588 16.8153 15.4527 15.458 14.724 13.0506C14.61 12.6738 14.493 12.228 14.4909 11.7757C14.4754 8.78876 14.4754 5.75198 14.4757 2.81523V0.758059C14.4754 0.684293 14.483 0.609937 14.4924 0.525845L14.5244 0.186523H17.9452V12.7228C17.9455 13.4741 17.9972 13.5266 18.7332 13.5272C21.4524 13.5289 24.1718 13.5289 26.8909 13.5272C27.6252 13.5266 27.6845 13.4661 27.6851 12.7208C27.6872 9.88462 27.6869 7.04878 27.6866 4.21264V0.19331H31.1265L31.1423 0.425229C31.1459 0.480995 31.1508 0.535287 31.1553 0.588398C31.1655 0.707898 31.175 0.821792 31.175 0.935981L31.1764 3.31566C31.1785 5.98862 31.1802 8.6613 31.1729 11.334Z" fill="#3E00FF"/>
<path d="M65.7565 13.0239C65.7494 13.2682 65.5369 13.5202 65.3403 13.6338C65.0135 13.8217 64.6872 14.0117 64.3609 14.2015C63.2105 14.871 62.0207 15.5635 60.8097 16.1713C59.972 16.5915 59.082 16.7428 58.4823 16.7959C56.7543 16.9491 54.9678 17.1072 53.2513 16.351C51.349 15.513 50.2985 13.9687 50.2135 11.8849C50.1315 9.86907 50.1283 7.7399 50.2032 5.18407C50.2852 2.40459 52.2243 0.36217 54.9193 0.216999C56.3131 0.142054 57.7246 0.119629 59.1278 0.119629C60.1874 0.119629 61.2423 0.132612 62.2823 0.145004C63.3289 0.157692 64.4109 0.17097 65.4793 0.17097H65.7268V3.47921H61.9801C59.4679 3.47832 56.9566 3.47832 54.4446 3.4798C53.9069 3.48019 53.6379 3.75233 53.6375 4.29623C53.6366 7.10286 53.6366 9.91008 53.6378 12.717C53.6381 13.4942 53.6693 13.5243 54.4773 13.5252C54.8247 13.5258 55.1718 13.5293 55.5192 13.5326C56.3913 13.5414 57.2937 13.5503 58.1743 13.5084C58.6972 13.4833 59.2336 13.3434 59.6457 13.1245C60.8523 12.483 62.0618 11.7938 63.2317 11.1269C63.7019 10.8587 64.1722 10.5908 64.6443 10.3246C64.7839 10.2459 64.9253 10.1706 65.0999 10.0774L65.77 9.7177L65.7715 10.8953C65.7738 11.6327 65.7759 12.3293 65.7565 13.0239Z" fill="#3E00FF"/>
<path d="M40.4935 0.147949C40.5229 0.14972 40.5528 0.15267 40.5822 0.154441C42.1424 0.148834 43.7026 0.1509 45.2278 0.153555C46.1607 0.154441 47.0934 0.156211 48.0251 0.156211H48.026C48.1139 0.156211 48.2015 0.164473 48.2967 0.174505C48.3379 0.178046 48.3808 0.182767 48.4257 0.186307L48.6535 0.204601V3.48097H39.0047C38.8219 3.48274 38.6388 3.48451 38.4577 3.48658C38.1103 3.49012 37.7637 3.49395 37.416 3.49395C36.6077 3.49484 36.5766 3.52523 36.5766 4.30272C36.5757 7.10905 36.5757 9.91657 36.5766 12.7229C36.5766 12.9864 36.5766 13.1646 36.6039 13.2856C36.6039 13.2865 36.6048 13.2874 36.6048 13.2882C36.6753 13.4892 36.8461 13.5243 37.2467 13.5261C37.5633 13.5278 37.8804 13.5308 38.197 13.5343C38.3725 13.5361 38.5491 13.5379 38.7264 13.5399C39.1352 13.5408 39.5429 13.5408 39.9518 13.5399C40.7063 13.5408 41.4608 13.5408 42.215 13.5408H48.665V16.8485H38.3504C38.1558 16.8485 37.9598 16.8325 37.7682 16.798L37.7461 16.7951C35.6939 16.6437 34.0964 15.3841 33.4506 13.5417C33.4497 13.5382 33.448 13.5343 33.4471 13.5308C33.2422 13.0011 33.127 12.4329 33.1161 11.8454C33.0715 9.38959 33.0715 7.21941 33.1153 5.21357C33.1344 4.36439 33.353 3.56949 33.726 2.87344C33.7481 2.83036 33.7719 2.78905 33.7954 2.74686C33.8019 2.73505 33.8083 2.72384 33.8154 2.71204C33.8366 2.67427 33.8592 2.63768 33.8821 2.60109C33.8921 2.58369 33.9033 2.56628 33.915 2.54887C33.9388 2.51022 33.9635 2.47274 33.9891 2.43498C34.0185 2.39278 34.0476 2.35059 34.0788 2.30928C34.0843 2.30102 34.0896 2.29276 34.0961 2.28449C34.9758 1.07002 36.3696 0.262138 37.9663 0.17775L40.4932 0.148244L40.4935 0.147949Z" fill="#3E00FF"/>
<path d="M6.476 10.454C7.42392 7.03213 8.37213 3.61 9.323 0.177246H12.966C11.8581 4.05141 10.7583 7.89695 9.64632 11.7853H8.38301C8.37948 11.8077 8.37596 11.8304 8.37243 11.8529C8.59317 11.9405 8.82126 12.0131 9.03347 12.1184C9.81356 12.5058 10.3832 13.0723 10.482 13.987C10.5901 14.9882 10.1242 15.7078 9.3177 16.2333C8.57877 16.7149 7.73872 16.9253 6.88015 16.9477C5.23385 16.9902 3.58579 16.9601 1.90569 16.9601V14.0885C2.985 14.0885 4.05284 14.1098 5.11922 14.08C5.69091 14.064 6.26848 14.0021 6.82783 13.8855C7.381 13.7702 7.69051 13.3816 7.70403 12.944C7.71814 12.4911 7.46419 12.1122 6.84517 12.0175C5.92282 11.8768 4.98107 11.8469 4.04638 11.8104C3.2369 11.7788 3.22543 11.8068 3.00646 11.0311C2.0021 7.47502 1.00421 3.91716 0.00602539 0.359594C-0.00661356 0.31445 0.00455575 0.262224 0.00455575 0.185803H3.60901C4.52842 3.60144 5.45077 7.02682 6.37283 10.4519C6.40722 10.4528 6.44161 10.4534 6.476 10.4543V10.454Z" fill="#3E00FF"/>
</g>
<defs>
<clipPath id="clip0_94_6916">
<rect width="84" height="17" fill="white" transform="translate(0 0.119629)"/>
</clipPath>
</defs>
</svg>
