<svg width="1068" height="324" viewBox="0 0 1068 324" fill="none" xmlns="http://www.w3.org/2000/svg">
<path d="M84.6709 322.567V298.732H93.7509C96.2479 298.732 98.0639 299.413 99.6529 300.548C101.015 301.683 101.696 303.499 101.696 305.769C101.696 307.585 101.242 309.174 100.107 310.309C98.9719 311.444 97.6099 312.125 95.7939 312.579L101.015 322.567H97.8369L92.6159 312.806H87.1679V322.567H84.6709ZM87.3949 310.309H93.5239C95.1129 310.309 96.4749 309.855 97.3829 309.174C98.2909 308.493 98.7449 307.358 98.7449 305.769C98.7449 302.818 96.9289 301.229 93.2969 301.229H87.1679V310.309H87.3949Z" fill="#7C7C7C"/>
<path d="M125.985 322.567V298.732H128.709V322.567H125.985Z" fill="#7C7C7C"/>
<path d="M153.452 314.395L156.403 313.941C156.857 316.211 157.311 318.027 158.446 318.935C159.581 319.843 160.943 320.524 163.213 320.524C165.029 320.524 166.391 320.07 167.299 319.389C168.207 318.481 168.661 317.573 168.661 316.438C168.661 315.303 168.207 314.395 167.526 313.714C166.845 313.033 165.029 312.352 162.305 311.444C159.581 310.536 157.765 309.628 156.63 308.72C155.495 307.812 154.814 306.45 154.814 304.634C154.814 302.818 155.495 301.456 156.857 300.321C158.219 299.186 160.035 298.505 162.305 298.505C164.575 298.505 166.391 298.959 167.98 300.094C169.569 301.229 170.477 302.818 170.704 304.861L167.753 305.542C167.526 304.18 166.845 303.045 166.164 302.137C165.256 301.456 164.121 301.002 162.305 301.002C160.716 301.002 159.581 301.229 158.9 301.91C158.219 302.591 157.765 303.499 157.765 304.407C157.765 305.315 158.219 305.996 158.9 306.677C159.581 307.358 161.17 308.039 163.667 308.72C166.845 309.628 168.888 310.763 170.023 311.898C171.158 313.033 171.612 314.395 171.612 316.211C171.612 318.254 170.931 319.843 169.342 321.205C167.753 322.567 165.937 323.248 163.213 323.248C157.311 323.021 154.133 320.297 153.452 314.395Z" fill="#7C7C7C"/>
<path d="M195.22 322.567V298.732H209.521V301.229H197.944V308.947H208.386V311.444H197.944V319.843H209.521V322.34H195.22V322.567Z" fill="#7C7C7C"/>
<path d="M262.639 322.567V298.732H265.817L276.713 317.8V298.732H279.437V322.567H276.486L265.59 303.499V322.567H262.639Z" fill="#7C7C7C"/>
<path d="M305.315 322.567V298.732H319.616V301.229H308.039V308.947H318.481V311.444H308.039V319.843H319.616V322.34H305.315V322.567Z" fill="#7C7C7C"/>
<path d="M347.31 322.567L342.997 298.732H345.948L349.58 318.254L355.482 298.732H358.433L364.335 318.254L367.74 298.732H370.691L366.378 322.567H362.973L357.071 302.818L351.169 322.567H347.31Z" fill="#7C7C7C"/>
<path d="M427.895 322.567V312.579L420.177 298.732H423.355L429.484 309.855L435.613 298.732H438.791L431.073 312.579V322.567H427.895Z" fill="#7C7C7C"/>
<path d="M468.982 323.021C467.62 323.021 466.485 322.794 465.35 322.34C464.215 321.886 463.08 321.205 462.172 320.297C461.264 319.389 460.356 318.027 459.902 316.438C459.448 314.849 458.994 312.806 458.994 310.536C458.994 306.677 459.902 303.726 461.945 301.456C463.988 299.413 466.258 298.278 468.982 298.278C471.706 298.278 473.976 299.413 476.019 301.456C478.062 303.499 478.97 306.677 478.97 310.536C478.97 312.806 478.743 314.622 478.062 316.211C477.608 317.8 476.7 319.162 475.792 320.07C474.884 320.978 473.749 321.659 472.614 322.113C471.479 322.794 470.344 323.021 468.982 323.021ZM468.982 320.524C471.025 320.524 472.614 319.616 473.976 318.027C475.338 316.438 476.019 313.941 476.019 310.763C476.019 307.585 475.338 305.315 473.976 303.499C472.614 301.91 471.025 301.002 468.982 301.002C466.939 301.002 465.35 301.91 463.988 303.499C462.626 305.088 461.945 307.585 461.945 310.536C461.945 313.714 462.626 316.211 463.988 318.027C465.123 319.616 466.939 320.524 468.982 320.524Z" fill="#7C7C7C"/>
<path d="M503.486 322.567V298.732H512.566C515.063 298.732 516.879 299.413 518.468 300.548C520.057 301.683 520.511 303.499 520.511 305.769C520.511 307.585 520.057 309.174 518.922 310.309C517.787 311.444 516.425 312.125 514.609 312.579L519.83 322.567H516.652L511.431 312.806H506.21V322.567H503.486ZM506.437 310.309H512.566C514.155 310.309 515.517 309.855 516.425 309.174C517.333 308.493 517.787 307.358 517.787 305.769C517.787 302.818 515.971 301.229 512.339 301.229H506.21L506.437 310.309Z" fill="#7C7C7C"/>
<path d="M544.346 322.567V298.732H547.07V310.309L556.604 298.732H560.236L551.61 309.174L561.144 322.567H557.739L549.567 311.217L547.07 314.395V322.567H544.346Z" fill="#7C7C7C"/>
<path d="M629.925 321.432L626.52 318.481C626.066 319.843 625.158 320.751 623.796 321.659C622.434 322.567 620.845 323.021 618.802 323.021C616.532 323.021 614.489 322.34 612.9 321.205C611.311 320.07 610.403 318.254 610.403 316.211C610.403 313.033 611.992 310.763 614.943 308.72C613.354 307.131 612.673 305.542 612.673 303.953C612.673 302.364 613.127 301.002 614.489 299.867C615.624 298.732 617.213 298.278 619.029 298.278C620.845 298.278 622.207 298.732 623.342 299.64C624.477 300.548 625.158 301.91 625.612 303.499L623.115 303.953C622.661 301.683 621.299 300.775 619.256 300.775C618.121 300.775 617.213 301.002 616.759 301.683C616.305 302.364 615.851 303.045 615.851 303.953C615.851 304.634 616.078 305.315 616.305 305.769C616.532 306.223 617.213 306.904 617.894 307.358L624.931 313.487V309.174H627.428V315.53L631.741 319.162L629.925 321.432ZM624.477 316.892L617.213 310.536C614.716 311.898 613.354 313.714 613.354 316.211C613.354 317.573 613.808 318.708 614.943 319.389C616.078 320.07 617.44 320.524 619.256 320.524C620.618 320.524 621.753 320.297 622.661 319.616C623.569 318.708 624.25 317.8 624.477 316.892Z" fill="#7C7C7C"/>
<path d="M683.043 322.567V298.732H692.123C694.62 298.732 696.436 299.413 697.798 300.548C699.16 301.683 700.068 303.726 700.068 305.996C700.068 308.266 699.387 310.082 698.025 311.444C696.663 312.806 694.62 313.26 692.35 313.26H685.994V322.34L683.043 322.567ZM685.767 310.763H691.896C693.485 310.763 694.62 310.309 695.528 309.628C696.436 308.72 696.89 307.585 696.89 306.223C696.89 304.634 696.436 303.499 695.301 302.591C694.393 301.91 693.031 301.456 691.442 301.456H685.313V310.763H685.767Z" fill="#7C7C7C"/>
<path d="M719.136 322.567L727.762 298.732H730.486L739.112 322.567H736.161L734.345 317.8H723.676L721.86 322.567H719.136ZM724.584 315.53H733.664L729.124 302.591L724.584 315.53Z" fill="#7C7C7C"/>
<path d="M762.493 322.567V298.732H771.573C774.07 298.732 775.886 299.413 777.475 300.548C779.064 301.683 779.518 303.499 779.518 305.769C779.518 307.585 779.064 309.174 777.929 310.309C776.794 311.444 775.432 312.125 773.616 312.579L778.837 322.567H775.659L770.438 312.806H764.99V322.567H762.493ZM765.217 310.309H771.346C772.935 310.309 774.297 309.855 775.205 309.174C776.113 308.493 776.567 307.358 776.567 305.769C776.567 302.818 774.751 301.229 771.119 301.229H764.99L765.217 310.309Z" fill="#7C7C7C"/>
<path d="M808.801 322.567V301.456H801.31V298.959H818.789V301.456H811.525V322.567H808.801Z" fill="#7C7C7C"/>
<path d="M842.397 322.567V298.732H845.575L856.471 317.8V298.732H859.195V322.567H856.244L845.348 303.499V322.567H842.397Z" fill="#7C7C7C"/>
<path d="M885.073 322.567V298.732H899.374V301.229H888.024V308.947H898.466V311.444H888.024V319.843H899.374V322.34H885.073V322.567Z" fill="#7C7C7C"/>
<path d="M924.344 322.567V298.732H933.424C935.921 298.732 937.737 299.413 939.326 300.548C940.915 301.683 941.369 303.499 941.369 305.769C941.369 307.585 940.915 309.174 939.78 310.309C938.645 311.444 937.283 312.125 935.467 312.579L940.688 322.567H937.51L932.289 312.806H926.841V322.567H924.344ZM927.068 310.309H933.197C934.786 310.309 936.148 309.855 937.056 309.174C937.964 308.493 938.418 307.358 938.418 305.769C938.418 302.818 936.602 301.229 932.97 301.229H926.841L927.068 310.309Z" fill="#7C7C7C"/>
<path d="M964.069 314.395L967.02 313.941C967.247 316.211 967.928 318.027 969.063 318.935C969.971 320.07 971.56 320.524 973.83 320.524C975.646 320.524 977.008 320.07 977.916 319.389C978.824 318.481 979.278 317.573 979.278 316.438C979.278 315.303 978.824 314.395 978.143 313.714C977.235 313.033 975.646 312.352 972.695 311.444C969.971 310.536 968.155 309.628 967.02 308.72C965.885 307.812 965.204 306.45 965.204 304.634C965.204 302.818 965.885 301.456 967.247 300.321C968.609 299.186 970.425 298.505 972.695 298.505C974.965 298.505 976.781 298.959 978.37 300.094C979.959 301.229 980.64 302.818 981.094 304.861L978.143 305.542C977.916 304.18 977.235 303.045 976.554 302.137C975.646 301.456 974.511 301.002 972.695 301.002C971.106 301.002 969.971 301.229 969.29 301.91C968.609 302.591 968.155 303.499 968.155 304.407C968.155 305.315 968.609 305.996 969.29 306.677C969.971 307.358 971.56 308.039 974.057 308.72C977.235 309.628 979.278 310.763 980.413 311.898C981.548 313.033 982.002 314.395 982.002 316.211C982.002 318.254 981.321 319.843 979.732 321.205C978.143 322.567 976.327 323.248 973.603 323.248C967.928 323.021 964.75 320.297 964.069 314.395Z" fill="#7C7C7C"/>
<path d="M407.465 219.736H397.931L263.32 17.706V207.705H294.419V215.65H222.006V207.705H253.105V11.35H222.006V3.40503H303.272L397.25 142.329V11.35H366.832V3.40503H439.245V11.35H407.465V219.736Z" fill="#7C7C7C"/>
<path d="M71.959 207.478H103.512V215.423H0V207.478H31.553V11.35H0V3.40503H106.463C141.194 3.40503 182.281 7.49103 182.281 51.756C182.281 87.622 144.372 100.107 114.862 103.285V103.739C164.348 111.457 175.471 138.016 175.471 189.772C175.471 200.895 176.379 213.607 207.024 207.932V215.65C198.171 217.92 189.318 219.509 180.011 219.509C148.004 219.509 131.206 203.392 131.206 170.931C131.206 144.599 126.666 124.85 118.494 117.813C109.641 110.095 99.426 106.463 89.665 106.463H72.186L71.959 207.478ZM71.959 98.291H98.064C126.666 98.291 138.47 84.671 138.47 56.069C138.47 20.43 128.028 11.35 99.653 11.35H71.959V98.291Z" fill="#7C7C7C"/>
<path d="M510.296 215.423V207.478H543.892V119.175L477.381 11.35H454.227V3.40503H557.512V11.35H524.824L579.077 102.604L630.152 11.35H597.01V3.40503H665.337V11.35H639.913L584.525 112.365V207.705H619.71V215.65L510.296 215.423Z" fill="#7C7C7C"/>
<path d="M875.993 3.40503H978.597C1019 3.40503 1067.35 11.577 1067.35 61.971C1067.35 106.463 1021.05 119.402 984.499 119.402H948.179V207.705H981.775V215.65H875.993V207.705H907.546V11.35H875.993V3.40503ZM985.18 111.23C1016.05 111.23 1022.41 87.395 1022.41 61.29C1022.41 38.363 1020.82 11.123 985.18 11.123H947.952V111.23H985.18Z" fill="#7C7C7C"/>
<path d="M773.389 196.809C753.64 212.699 728.216 221.779 702.338 221.779C666.699 221.779 634.238 202.03 634.238 163.213C634.238 123.261 671.012 106.917 701.884 93.978C693.939 81.039 684.178 62.425 684.178 47.216C684.178 15.436 711.191 0 740.02 0C763.628 0 794.954 8.853 794.954 37.909C794.954 63.56 763.401 78.315 743.198 85.806L795.635 159.808C811.298 141.648 820.378 116.224 820.151 92.162H789.052V84.217H859.876V92.162H829.685C829.685 116.678 818.562 149.366 801.083 167.526L828.323 207.478H859.876V215.423H786.101L773.389 196.809ZM706.651 100.561C686.675 109.414 671.466 116.678 671.466 141.194C671.466 155.722 681 174.79 689.172 186.594C698.025 199.079 707.332 208.159 723.449 208.159C740.247 208.159 755.229 199.987 768.168 189.318L706.651 100.561ZM738.431 78.996C758.18 73.548 766.125 59.928 766.125 40.179C766.125 21.111 759.542 7.491 738.885 7.491C724.357 7.491 713.234 16.117 713.234 31.326C713.234 39.271 717.093 48.578 722.768 56.523L738.431 78.996Z" fill="#3D3D3D"/>
</svg>
