<svg width="766" height="766" viewBox="0 0 766 766" fill="none" xmlns="http://www.w3.org/2000/svg">
<g clip-path="url(#clip0_793_1406)">
<path d="M368.518 0.0466309H397.961C500.433 5.71184 586.529 44.0418 656.247 115.036C723.71 183.717 760.296 267.707 766 367.01V398.009C760.356 500.102 722.283 585.956 651.789 655.576C583.007 723.458 498.757 760.281 399.038 766.048H366.663C292.217 762.057 226.279 740.205 168.849 700.488C127.118 671.624 92.698 637.192 65.5888 597.197C25.2342 537.672 3.37119 470.867 0 396.781V366.56C7.26103 252.837 53.3208 160.258 138.179 88.8248C203.249 34.0479 280.028 4.45513 368.518 0.0466309ZM555.558 481.73C554.821 484.143 554.024 484.172 553.165 481.819C536.988 437.695 520.212 392.522 502.838 346.304C489.972 312.042 462.353 303.065 428.57 302.917C398.389 302.797 368.149 302.816 337.849 302.977C337.739 302.972 337.631 302.998 337.536 303.046C337.44 303.096 337.356 303.168 337.294 303.257C337.232 303.345 337.191 303.448 337.179 303.556C337.167 303.664 337.181 303.772 337.22 303.874L380.247 421.168C380.647 422.245 380.666 423.342 380.307 424.46L362.414 482.149C361.715 484.382 360.968 484.402 360.171 482.209C342.177 433.077 325.581 388.173 310.381 347.501C298.711 316.262 274.683 303.755 242.367 303.216C210.57 302.678 178.215 302.627 145.301 303.065C144.363 303.085 144.054 303.535 144.373 304.413L218.759 507.252C219.118 508.229 219.816 508.72 220.853 508.72H368.159C369.494 508.72 370.354 508.081 370.732 506.805L388.446 448.186C388.965 446.451 389.533 446.432 390.15 448.127L411.785 507.312C412.125 508.25 412.802 508.72 413.82 508.72H561.873C562.254 508.717 562.625 508.595 562.931 508.368C563.237 508.143 563.465 507.824 563.58 507.463L626.054 303.635C626.195 303.156 626.016 302.905 625.518 302.886C617.597 302.627 612.589 302.706 610.495 303.125C610.277 303.185 610.138 303.324 610.076 303.544L555.558 481.73Z" fill="black"/>
</g>
<defs>
<clipPath id="clip0_793_1406">
<rect width="766" height="766" fill="white"/>
</clipPath>
</defs>
</svg>
