<svg xmlns="http://www.w3.org/2000/svg" width="18" height="22" viewBox="0 0 18 22" fill="none"><g clip-path="url(#clip0_813_1853)"><path d="M16.3687 12.8545C16.3855 13.7456 15.928 14.398 15.0151 14.4185C13.7524 14.4476 13.0537 14.9401 12.5917 16.0731C12.1723 17.1025 11.3222 17.3239 10.3735 16.7126C9.42473 16.1002 8.63075 16.0731 7.64276 16.6607C6.46749 17.3595 5.74416 17.1241 5.22942 15.8636C4.82121 14.8645 4.21451 14.4638 3.11998 14.4606C2.09387 14.4574 1.5466 13.7931 1.57912 12.8081C1.58697 12.5618 1.63295 12.3058 1.71706 12.0736C1.99181 11.3165 1.73052 10.7851 1.07448 10.3261C0.136951 9.66938 -0.110888 8.80748 0.402733 8.06007C0.613564 7.75332 0.90626 7.48115 1.21353 7.25973C1.77986 6.85038 1.95256 6.35463 1.7294 5.71522C1.67108 5.54673 1.62398 5.37068 1.6038 5.19462C1.47034 3.9925 1.79668 3.43302 3.30839 3.19432C3.49118 3.16516 3.67958 3.17812 3.86574 3.16948C4.40516 3.14464 4.75841 2.88326 4.94457 2.39507C5.03429 2.16069 5.1397 1.93171 5.25745 1.70922C5.82266 0.653984 6.62225 0.423928 7.70107 1.00285C7.84686 1.08169 7.99825 1.15514 8.12946 1.25451C8.71598 1.69734 9.2823 1.62065 9.87218 1.24587C10.1615 1.06225 10.4834 0.902402 10.8131 0.804115C11.616 0.566498 12.0792 0.74255 12.5132 1.42192C12.687 1.6941 12.8485 1.98356 12.9528 2.2849C13.1939 2.97939 13.7243 3.19216 14.4185 3.18784C14.6024 3.18676 14.7897 3.20944 14.9691 3.24725C16.104 3.49026 16.6322 4.12859 16.307 5.18814C15.9784 6.26066 16.2364 6.94759 17.1358 7.63236C18.0677 8.34197 18.0195 9.48469 17.0573 10.1587C16.2027 10.7581 15.9033 11.4083 16.3115 12.3544C16.3799 12.5121 16.3519 12.7076 16.3664 12.8534L16.3687 12.8545ZM14.8189 8.84744C14.8166 5.73574 12.1767 3.17164 8.9997 3.19648C5.71051 3.22133 3.12559 5.70658 3.12447 8.84636C3.12223 11.9915 5.74079 14.5092 8.99522 14.4908C12.2295 14.4725 14.8211 11.9624 14.8189 8.84744Z" fill="#96B412"></path><path d="M3.65753 18.5557C2.877 18.6583 2.18395 18.7793 1.4853 18.8268C1.22736 18.8441 0.833739 18.7577 0.728323 18.5881C0.629637 18.4293 0.766452 18.0545 0.914483 17.8526C1.41465 17.1689 1.96639 16.5198 2.49796 15.8577C2.93644 15.3122 3.75173 15.4289 4.08255 16.0445C4.33376 16.5122 4.61412 16.9842 4.97634 17.373C5.59426 18.0351 6.42524 18.1723 7.44912 17.9703C6.55533 19.0882 5.75574 20.1056 4.92476 21.1004C4.81261 21.2343 4.49749 21.3509 4.36067 21.2926C4.18461 21.2181 4.01639 20.9718 3.97938 20.7753C3.84369 20.0602 3.76519 19.3344 3.65641 18.5557H3.65753Z" fill="#96B412"></path><path d="M10.5534 18.0368C12.4845 18.052 13.1888 17.5983 13.9435 15.9242C14.1263 15.5192 15.0459 15.3572 15.3307 15.7028C15.9543 16.4567 16.5655 17.2203 17.1508 18.0012C17.2596 18.147 17.3247 18.471 17.2361 18.5715C17.0981 18.7281 16.8043 18.8523 16.589 18.8361C15.8354 18.7799 15.0874 18.6579 14.2878 18.5553C14.1835 19.2692 14.1117 19.941 13.976 20.602C13.9245 20.8548 13.7764 21.2079 13.5813 21.2771C13.4075 21.3386 13.034 21.128 12.8759 20.939C12.0976 20.0134 11.3608 19.0543 10.5534 18.0368Z" fill="#96B412"></path><path d="M9.08195 13.4309C6.53291 13.5195 4.31582 11.5224 4.2048 9.03716C4.09378 6.52707 6.19424 4.34423 8.79934 4.26215C11.3708 4.18114 13.6384 6.17712 13.7359 8.60837C13.8413 11.2124 11.7913 13.3369 9.08195 13.4309ZM8.18704 10.1097C7.93808 9.7889 7.76874 9.47027 7.5052 9.26722C7.31792 9.12249 6.95906 9.0242 6.75271 9.09873C6.37367 9.2359 6.42974 9.58584 6.62711 9.8645C6.9613 10.3354 7.30783 10.8009 7.6779 11.2459C8.01434 11.6509 8.33395 11.6509 8.67599 11.2286C9.55183 10.1496 10.412 9.05877 11.262 7.96141C11.4673 7.69679 11.6097 7.36305 11.2329 7.11787C10.8942 6.89645 10.6251 7.02714 10.3862 7.33712C9.68192 8.24979 8.9541 9.14625 8.18704 10.1097Z" fill="#96B412"></path></g><defs><clipPath id="clip0_813_1853"><rect width="17.6694" height="20.6143" fill="white" transform="translate(0.139679 0.692871)"></rect></clipPath></defs></svg>