<svg xmlns="http://www.w3.org/2000/svg" width="18" height="22" viewBox="0 0 18 22" fill="none"><path fill-rule="evenodd" clip-rule="evenodd" d="M6.5106 1.14895C5.8707 2.19603 7.09229 3.01042 8.89562 2.77774C11.2224 2.54506 11.1061 0.91627 8.72111 0.683583C7.73219 0.567244 6.74327 0.799926 6.5106 1.14895ZM9.70999 1.73066C9.70999 2.02152 9.18645 2.31237 8.5466 2.31237C7.9067 2.31237 7.38316 2.02152 7.38316 1.73066C7.38316 1.38163 7.9067 1.14895 8.5466 1.14895C9.18645 1.14895 9.70999 1.38163 9.70999 1.73066ZM4.70537 4.87163C0.284397 6.79128 -1.46073 13.7718 1.38963 17.7856C5.17075 23.0791 14.0128 22.3229 16.4559 16.5058C19.7135 8.76907 12.3839 1.55588 4.70537 4.87163ZM13.1402 6.20958C15.4089 7.89651 16.805 10.9214 16.4559 13.5391C15.2343 23.6027 0.866106 22.8465 0.749762 12.7247C0.633423 6.32589 8.02112 2.48662 13.1402 6.20958ZM6.91664 13.2488C6.80028 12.609 7.55649 11.7364 8.95259 10.8056C12.0357 8.76967 12.3847 8.94419 10.6977 11.7364C9.1853 14.2959 7.26566 15.0521 6.91664 13.2488ZM7.84736 13.5397C8.3709 13.8887 9.01079 13.3652 9.94151 11.7364C10.5232 10.8056 10.2905 10.8638 8.60356 12.1436C7.7892 12.7253 7.49833 13.3652 7.84736 13.5397Z" fill="#FF7373"></path></svg>