<svg xmlns="http://www.w3.org/2000/svg" width="6" height="7" viewBox="0 0 6 7" fill="none"><g clip-path="url(#clip0_970_1853)"><path d="M5.51074 4.12973C5.51646 4.4323 5.36109 4.65383 5.05111 4.6608C4.62232 4.6707 4.38508 4.83794 4.22819 5.22267C4.08576 5.5722 3.79711 5.64738 3.47495 5.4398C3.15279 5.23184 2.88317 5.22267 2.54768 5.42219C2.1486 5.65949 1.90298 5.57953 1.72819 5.15152C1.58957 4.81227 1.38355 4.6762 1.01189 4.6751C0.663448 4.674 0.477614 4.44844 0.488657 4.11396C0.491323 4.03033 0.506936 3.94341 0.535497 3.86456C0.628794 3.60746 0.540066 3.42701 0.317294 3.27114C-0.00106103 3.04815 -0.0852195 2.75547 0.0891903 2.50168C0.160782 2.39752 0.260173 2.30509 0.364514 2.22991C0.556822 2.0909 0.615466 1.92256 0.539685 1.70544C0.519883 1.64822 0.503889 1.58844 0.497035 1.52866C0.451719 1.12045 0.562534 0.930471 1.07586 0.849417C1.13793 0.839514 1.20191 0.843916 1.26512 0.840982C1.44829 0.832546 1.56825 0.74379 1.63146 0.578014C1.66192 0.498427 1.69772 0.420673 1.73771 0.345121C1.92963 -0.0132049 2.20115 -0.0913249 2.56748 0.105259C2.61699 0.132033 2.6684 0.156972 2.71295 0.190714C2.91211 0.341086 3.10442 0.315046 3.30473 0.18778C3.40298 0.125431 3.51227 0.0711502 3.62422 0.037775C3.89688 -0.0429125 4.05416 0.0168696 4.20153 0.247562C4.26055 0.339986 4.31539 0.438278 4.35081 0.540604C4.43268 0.776432 4.6128 0.848684 4.84852 0.847216C4.91097 0.84685 4.97457 0.854552 5.0355 0.867388C5.42087 0.94991 5.60023 1.16667 5.4898 1.52646C5.37822 1.89065 5.46581 2.12391 5.77122 2.35644C6.08767 2.5974 6.07129 2.98543 5.74456 3.21429C5.45439 3.41784 5.35271 3.63863 5.49132 3.95992C5.51455 4.01346 5.50503 4.07985 5.50998 4.12936L5.51074 4.12973ZM4.98447 2.76904C4.98371 1.71241 4.08729 0.841715 3.00846 0.850151C1.89155 0.858586 1.01379 1.7025 1.01341 2.76868C1.01265 3.83669 1.90183 4.69161 3.00694 4.68537C4.10518 4.67914 4.98523 3.82678 4.98447 2.76904Z" fill="#347B43"></path><path d="M1.19451 6.06557C0.929468 6.10041 0.694129 6.14149 0.456886 6.15762C0.369301 6.16349 0.235637 6.13415 0.199842 6.07657C0.16633 6.02266 0.212789 5.89539 0.263056 5.82681C0.432896 5.59465 0.620253 5.37422 0.800755 5.1494C0.949651 4.96418 1.2265 5.00379 1.33884 5.21285C1.42414 5.37166 1.51934 5.53193 1.64234 5.66396C1.85216 5.88879 2.13434 5.93537 2.48202 5.86678C2.17852 6.24638 1.907 6.59187 1.62482 6.92966C1.58674 6.97513 1.47973 7.01474 1.43328 6.99494C1.37349 6.96963 1.31637 6.88601 1.3038 6.81926C1.25772 6.57646 1.23107 6.33 1.19413 6.06557H1.19451Z" fill="#347B43"></path><path d="M3.53613 5.88934C4.19188 5.89447 4.43103 5.74043 4.68731 5.17195C4.74938 5.03442 5.06165 4.9794 5.15837 5.09677C5.3701 5.35277 5.57764 5.61207 5.77642 5.87724C5.81336 5.92675 5.83545 6.03678 5.80536 6.07089C5.75852 6.12407 5.65875 6.16624 5.58564 6.16074C5.32973 6.14167 5.07574 6.10023 4.80422 6.06538C4.76881 6.30781 4.74443 6.53594 4.69836 6.7604C4.68084 6.84622 4.63057 6.96615 4.56431 6.98962C4.50529 7.01053 4.37848 6.93901 4.32478 6.87483C4.0605 6.56051 3.81031 6.23483 3.53613 5.88934Z" fill="#347B43"></path><path d="M3.03647 4.32518C2.17089 4.35525 1.41803 3.67711 1.38034 2.8332C1.34264 1.98084 2.05589 1.23962 2.9405 1.21175C3.81369 1.18424 4.58369 1.86201 4.61682 2.68759C4.65261 3.57185 3.9565 4.29327 3.03647 4.32518ZM2.73258 3.19739C2.64804 3.08846 2.59054 2.98027 2.50105 2.91132C2.43746 2.86217 2.3156 2.8288 2.24553 2.8541C2.11682 2.90068 2.13586 3.01951 2.20288 3.11414C2.31636 3.27404 2.43403 3.43212 2.5597 3.58322C2.67394 3.72076 2.78247 3.72076 2.89861 3.57735C3.19602 3.21096 3.4881 2.84053 3.77676 2.4679C3.84644 2.37805 3.89481 2.26472 3.76685 2.18146C3.65185 2.10628 3.56046 2.15065 3.47934 2.25591C3.2402 2.56583 2.99305 2.87024 2.73258 3.19739Z" fill="#347B43"></path></g><defs><clipPath id="clip0_970_1853"><rect width="6" height="7" fill="white"></rect></clipPath></defs></svg>