<svg xmlns="http://www.w3.org/2000/svg" width="107" height="49" viewBox="0 0 107 49" fill="none"><path d="M99.6439 16.8027C99.6513 17.1066 99.641 17.4107 99.6131 17.7134C99.8587 17.4163 100.142 17.1519 100.455 16.9266C100.556 16.798 100.898 16.3357 101.084 15.7569C100.538 16.0072 100.049 16.3628 99.6439 16.8027Z" fill="white"></path><path d="M102.765 16.0163C103.424 15.9203 104.095 15.9291 104.752 16.0427C104.796 16.05 104.839 16.058 104.881 16.0652C104.936 16.0759 104.989 16.0876 105.042 16.0999C104.8 15.885 104.459 15.7023 103.998 15.5695C103.045 15.2924 102.141 15.352 101.345 15.6487C101.254 15.9795 101.12 16.2965 100.945 16.5917C100.938 16.6043 100.93 16.6171 100.923 16.6294C101.494 16.3159 102.118 16.1082 102.765 16.0163Z" fill="white"></path><path d="M102.714 16.9513C102.966 17.001 103.213 17.0653 103.457 17.1433C104.131 17.3588 104.75 17.6745 105.225 18.0388C105.33 17.8816 105.408 17.7086 105.456 17.5261C105.567 17.1431 105.533 16.7461 105.302 16.3983C105.11 16.3373 104.915 16.2899 104.717 16.2569C104.082 16.1477 103.434 16.1395 102.798 16.2322C102.177 16.3202 101.578 16.5193 101.031 16.82C101.009 16.833 100.989 16.8438 100.968 16.8559C101.315 16.8227 101.665 16.8217 102.013 16.8524C102.248 16.8726 102.483 16.9056 102.714 16.9513Z" fill="white"></path><path d="M99.1836 18.8194C99.1837 18.8193 99.1837 18.8193 99.1837 18.8192C99.5432 18.7298 99.9905 18.7696 100.26 18.809C100.713 18.8744 101.186 19.0089 101.531 19.168C101.944 19.0816 102.363 19.0228 102.785 18.9924C103.036 18.9628 103.265 18.9284 103.476 18.8928C103.007 18.5924 102.5 18.3553 101.969 18.1873C101.095 17.9102 100.273 17.8591 99.636 18.0415C99.4583 18.2841 99.3067 18.545 99.1837 18.8192C99.1836 18.8192 99.1834 18.8192 99.1833 18.8193L99.1836 18.8194Z" fill="white"></path><path d="M100.231 19.0238C99.7285 18.9514 99.3127 18.9753 99.0724 19.0877L99.0721 19.0876C98.9724 19.3537 98.8952 19.6278 98.842 19.9071C98.7506 20.3675 98.7375 20.8404 98.803 21.3067C99.2346 20.2186 99.9871 19.5885 101.173 19.2565C100.867 19.1484 100.551 19.0707 100.231 19.0238Z" fill="white"></path><path d="M98.627 19.8648C98.6813 19.5785 98.7593 19.2973 98.8606 19.024L98.8612 19.0161C98.8577 18.7164 98.823 18.4176 98.7586 18.1245C98.6447 18.3692 98.5499 18.6224 98.4752 18.8819C98.2637 19.6195 98.2377 20.5608 98.5984 21.4095C98.517 20.8963 98.5265 20.3733 98.627 19.8648Z" fill="white"></path><path d="M99.0546 18.5776C99.1421 18.4005 99.2408 18.2289 99.3506 18.0646L99.3653 17.9629C99.402 17.6609 99.4224 17.3572 99.4265 17.0531C99.2282 17.298 99.0529 17.5599 98.9029 17.8366C98.9803 18.0776 99.0312 18.3263 99.0546 18.5776Z" fill="white"></path><path d="M100.701 17.723C101.154 17.7532 101.602 17.8393 102.034 17.9804C102.654 18.1746 103.241 18.4621 103.774 18.8327C104.387 18.6976 104.809 18.5072 105.09 18.2072C104.637 17.8598 104.041 17.5569 103.39 17.3486C102.937 17.2028 102.469 17.1084 101.995 17.0674C101.508 17.0234 101.018 17.0466 100.538 17.1362C100.288 17.3213 100.058 17.5329 99.8543 17.7674C100.133 17.7197 100.417 17.7046 100.701 17.723Z" fill="white"></path><path d="M103.92 26.3188C103.913 26.0147 103.923 25.7105 103.951 25.4076C103.706 25.7048 103.422 25.9694 103.108 26.1948C103.008 26.3235 102.666 26.786 102.479 27.3651C103.025 27.1147 103.515 26.7589 103.92 26.3188Z" fill="white"></path><path d="M100.798 27.1056C100.139 27.2017 99.4672 27.1929 98.8092 27.0793C98.7659 27.0719 98.7229 27.0639 98.6799 27.0567C98.6257 27.046 98.5723 27.0343 98.5191 27.022C98.7611 27.237 99.1023 27.4198 99.5636 27.5526C100.517 27.83 101.422 27.7703 102.219 27.4734C102.309 27.1424 102.443 26.8253 102.618 26.5299C102.626 26.5173 102.633 26.5045 102.641 26.4922C102.07 26.8059 101.445 27.0137 100.798 27.1056Z" fill="white"></path><path d="M100.848 26.1701C100.597 26.1204 100.349 26.056 100.105 25.978C99.4307 25.7624 98.8116 25.4465 98.3358 25.082C98.2311 25.2393 98.153 25.4124 98.1047 25.595C97.9942 25.9782 98.0285 26.3755 98.2592 26.7235C98.4509 26.7845 98.6467 26.8318 98.8449 26.8649C99.4801 26.9741 100.128 26.9824 100.764 26.8896C101.385 26.8015 101.985 26.6024 102.532 26.3015C102.554 26.2885 102.575 26.2777 102.596 26.2656C102.248 26.2988 101.898 26.2998 101.55 26.2691C101.314 26.2489 101.08 26.2158 100.848 26.1701Z" fill="white"></path><path d="M104.381 24.301C104.381 24.301 104.381 24.3011 104.381 24.3012C104.021 24.3906 103.574 24.3508 103.303 24.3114C102.851 24.2459 102.378 24.1113 102.032 23.9522C101.619 24.0386 101.2 24.0974 100.778 24.1279C100.527 24.1574 100.297 24.192 100.086 24.2275C100.556 24.5281 101.063 24.7654 101.594 24.9334C102.469 25.2107 103.291 25.2618 103.928 25.0793C104.106 24.8365 104.258 24.5756 104.381 24.3012C104.381 24.3012 104.381 24.3011 104.381 24.3011L104.381 24.301Z" fill="white"></path><path d="M103.333 24.0964C103.836 24.1689 104.252 24.145 104.492 24.0325L104.493 24.0326C104.592 23.7663 104.67 23.4922 104.723 23.2126C104.814 22.7521 104.827 22.2788 104.762 21.8123C104.33 22.901 103.577 23.5314 102.39 23.8636C102.696 23.9717 103.012 24.0495 103.333 24.0964Z" fill="white"></path><path d="M104.938 23.255C104.884 23.5415 104.806 23.8228 104.704 24.0962L104.703 24.1041C104.707 24.404 104.742 24.703 104.806 24.9963C104.92 24.7514 105.015 24.498 105.09 24.2385C105.301 23.5004 105.327 22.5586 104.967 21.7094C105.048 22.2229 105.038 22.7462 104.938 23.255Z" fill="white"></path><path d="M104.51 24.5429C104.423 24.7201 104.324 24.8918 104.214 25.0562L104.199 25.1579C104.162 25.4601 104.142 25.764 104.138 26.0683C104.336 25.8233 104.512 25.5612 104.662 25.2843C104.584 25.0432 104.533 24.7944 104.51 24.5429Z" fill="white"></path><path d="M102.863 25.3979C102.41 25.3678 101.962 25.2816 101.529 25.1404C100.909 24.9462 100.321 24.6585 99.7877 24.2876C99.1746 24.4228 98.752 24.6134 98.4713 24.9135C98.9244 25.2612 99.5204 25.5642 100.172 25.7726C100.625 25.9185 101.094 26.0129 101.568 26.0539C102.055 26.0979 102.546 26.0748 103.026 25.9851C103.276 25.7999 103.506 25.5882 103.71 25.3536C103.431 25.4013 103.146 25.4164 102.863 25.3979Z" fill="white"></path><path d="M9.72 28.1575C4.4325 28.1575 0.8325 24.3775 0.8325 19.405C0.8325 14.4325 4.815 10.6525 9.72 10.6525C15.165 10.6525 18.585 14.725 18.585 19.36C18.585 24.0625 14.985 28.1575 9.72 28.1575ZM9.72 27.8875C13.635 27.8875 15.9075 24.715 15.9075 19.405C15.9075 14.1175 13.6575 10.9225 9.72 10.9225C5.7825 10.9225 3.51 14.095 3.51 19.405C3.51 24.6925 5.76 27.8875 9.72 27.8875ZM33.2761 28V10.945L35.8186 10.4275V28H33.2761ZM29.2036 28.18C26.3011 28.18 23.6911 25.8625 23.6911 22.1275C23.6911 18.2575 26.4586 15.76 29.4061 15.76C31.4311 15.76 33.5461 16.9525 33.5461 20.395H33.2761C33.2761 17.425 31.5886 16.165 29.9011 16.165C27.8086 16.165 26.3011 18.325 26.3011 22.1275C26.3011 24.76 27.2911 27.7075 29.9686 27.685C31.5436 27.6625 33.2761 26.3125 33.2761 23.3425L33.5461 23.32C33.5461 26.9425 31.2286 28.18 29.2036 28.18ZM42.972 28.18C39.912 28.18 37.1445 25.975 37.1445 22.1275C37.1445 18.2575 40.0695 15.7375 43.512 15.7375C46.9995 15.76 48.5295 17.965 47.8545 19.855H38.8995V19.585H44.0295C45.087 19.585 45.762 19.27 45.762 18.1675C45.762 16.9975 45.042 16.0075 43.512 16.0075C41.127 16.0075 39.7995 18.3475 39.7995 21.655C39.7995 25.4575 41.532 27.5725 44.232 27.5725C45.897 27.5725 47.562 26.5375 48.057 24.1975L48.3045 24.2425C47.787 26.74 45.852 28.18 42.972 28.18ZM53.0058 28.1575C50.4183 28.1575 48.7758 26.5375 48.7758 24.0625H49.0458C49.0458 26.3575 50.5533 27.8875 52.9383 27.8875C55.2783 27.8875 56.4033 26.4925 56.4033 25.12C56.4033 21.7 49.2258 23.635 49.2258 19.1575C49.2258 17.335 50.4858 15.7375 53.0283 15.7375C55.3233 15.7375 56.3358 16.8625 56.3358 18.1675H56.0658C56.0658 16.9975 55.1658 16.0075 53.0283 16.0075C51.1833 16.0075 50.3058 16.9075 50.3058 17.875C50.3058 20.8 57.3933 19.27 57.3933 23.59C57.3933 26.0425 55.7283 28.1575 53.0058 28.1575ZM56.0658 18.1675H56.3358C56.3358 18.64 56.2233 18.955 56.0658 19.2025L55.8183 19.0675C55.9308 18.8875 56.0658 18.595 56.0658 18.1675ZM69.621 28.1575C67.1235 28 65.571 27.0775 65.571 24.805V19.7425C65.571 17.6725 64.6485 16.2775 62.4435 16.2325C60.3735 16.21 59.1135 17.6725 59.1135 19.36C59.1135 20.3275 59.496 21.07 59.9235 21.565L59.7435 21.745C59.316 21.295 58.8435 20.44 58.8435 19.36C58.8435 17.38 60.351 15.76 63.2535 15.7375C65.9535 15.7375 68.1135 17.11 68.1135 20.2375V24.085C68.1135 26.74 68.5185 27.73 69.666 27.9325L69.621 28.1575ZM60.936 28.1575C59.271 28.1575 57.9885 27.28 57.9885 25.66C57.9885 23.7025 59.7885 21.835 65.571 21.5875V21.8575C61.4085 21.8575 60.531 23.815 60.531 25.2325C60.531 26.47 61.2285 27.3475 62.466 27.3475C63.996 27.3475 65.571 25.6825 65.571 22.96H65.8185C65.8185 25.615 64.401 28.1575 60.936 28.1575ZM70.4753 28V15.9175C70.4753 12.295 71.9153 10.27 74.6828 10.27C76.8428 10.27 78.0353 11.6425 78.0353 13.015H77.7653C77.7653 11.8 76.6853 10.54 74.7053 10.54C72.9053 10.54 71.4878 11.5075 71.4878 13.6C71.4878 14.725 72.0728 15.8275 73.0403 16.1875V28H70.4753ZM69.0578 16.435V16.165H76.4153V16.435H69.0578ZM77.2757 28V16.3675L79.8407 15.85V28H77.2757ZM78.5807 14.4325C77.7032 14.4325 77.0507 13.78 77.0507 12.925C77.0507 12.0925 77.7032 11.4625 78.5807 11.4625C79.4132 11.4625 80.0657 12.0925 80.0657 12.925C80.0657 13.78 79.4132 14.4325 78.5807 14.4325ZM87.9715 28.1575C84.4615 28.1575 81.604 25.66 81.604 21.8575C81.604 18.5275 84.394 15.715 87.9715 15.715C91.549 15.715 94.339 18.5275 94.339 21.8575C94.339 25.66 91.504 28.1575 87.9715 28.1575ZM87.9715 27.8875C90.604 27.8875 91.684 24.535 91.684 21.8575C91.684 19.0675 90.6715 15.985 87.9715 15.985C85.294 15.985 84.2815 19.0675 84.2815 21.8575C84.2815 24.535 85.339 27.8875 87.9715 27.8875ZM10.1925 48V30.945L12.735 30.4275V48H10.1925ZM6.12 48.18C3.2175 48.18 0.6075 45.8625 0.6075 42.1275C0.6075 38.2575 3.375 35.76 6.3225 35.76C8.3475 35.76 10.4625 36.9525 10.4625 40.395H10.1925C10.1925 37.425 8.505 36.165 6.8175 36.165C4.725 36.165 3.2175 38.325 3.2175 42.1275C3.2175 44.76 4.2075 47.7075 6.885 47.685C8.46 47.6625 10.1925 46.3125 10.1925 43.3425L10.4625 43.32C10.4625 46.9425 8.145 48.18 6.12 48.18ZM20.4284 48.1575C16.9184 48.1575 14.0609 45.66 14.0609 41.8575C14.0609 38.5275 16.8509 35.715 20.4284 35.715C24.0059 35.715 26.7959 38.5275 26.7959 41.8575C26.7959 45.66 23.9609 48.1575 20.4284 48.1575ZM20.4284 47.8875C23.0609 47.8875 24.1409 44.535 24.1409 41.8575C24.1409 39.0675 23.1284 35.985 20.4284 35.985C17.7509 35.985 16.7384 39.0675 16.7384 41.8575C16.7384 44.535 17.7959 47.8875 20.4284 47.8875ZM31.6361 48.1575C29.0486 48.1575 27.4061 46.5375 27.4061 44.0625H27.6761C27.6761 46.3575 29.1836 47.8875 31.5686 47.8875C33.9086 47.8875 35.0336 46.4925 35.0336 45.12C35.0336 41.7 27.8561 43.635 27.8561 39.1575C27.8561 37.335 29.1161 35.7375 31.6586 35.7375C33.9536 35.7375 34.9661 36.8625 34.9661 38.1675H34.6961C34.6961 36.9975 33.7961 36.0075 31.6586 36.0075C29.8136 36.0075 28.9361 36.9075 28.9361 37.875C28.9361 40.8 36.0236 39.27 36.0236 43.59C36.0236 46.0425 34.3586 48.1575 31.6361 48.1575ZM34.6961 38.1675H34.9661C34.9661 38.64 34.8536 38.955 34.6961 39.2025L34.4486 39.0675C34.5611 38.8875 34.6961 38.595 34.6961 38.1675ZM42.8623 48C42.7498 45.3675 47.9923 37.65 50.0173 34.0725L51.2548 31.9125L51.0523 32.655H41.1523L40.9948 30.81H51.7723V31.5075L50.1073 34.5225C46.8673 40.395 45.8098 44.1975 45.8548 48H42.8623ZM62.0408 48.18C58.9808 48.18 56.2133 45.975 56.2133 42.1275C56.2133 38.2575 59.1383 35.7375 62.5808 35.7375C66.0683 35.76 67.5983 37.965 66.9233 39.855H57.9683V39.585H63.0983C64.1558 39.585 64.8308 39.27 64.8308 38.1675C64.8308 36.9975 64.1108 36.0075 62.5808 36.0075C60.1958 36.0075 58.8683 38.3475 58.8683 41.655C58.8683 45.4575 60.6008 47.5725 63.3008 47.5725C64.9658 47.5725 66.6308 46.5375 67.1258 44.1975L67.3733 44.2425C66.8558 46.74 64.9208 48.18 62.0408 48.18ZM68.587 48V36.3L71.1295 35.7825V48H68.587ZM71.1295 40.7325L70.8145 40.62C71.0395 37.515 72.6595 35.7375 74.8195 35.7375C75.247 35.7375 75.7645 35.805 76.147 35.9175L76.057 36.1875C75.697 36.075 75.202 36.0075 74.7745 36.0075C72.727 36.0075 71.197 37.9425 71.1295 40.7325ZM77.1625 48V36.3L79.705 35.7825V48H77.1625ZM79.705 40.7325L79.39 40.62C79.615 37.515 81.235 35.7375 83.395 35.7375C83.8225 35.7375 84.34 35.805 84.7225 35.9175L84.6325 36.1875C84.2725 36.075 83.7775 36.0075 83.35 36.0075C81.3025 36.0075 79.7725 37.9425 79.705 40.7325ZM90.2189 48.1575C86.7089 48.1575 83.8514 45.66 83.8514 41.8575C83.8514 38.5275 86.6414 35.715 90.2189 35.715C93.7964 35.715 96.5864 38.5275 96.5864 41.8575C96.5864 45.66 93.7514 48.1575 90.2189 48.1575ZM90.2189 47.8875C92.8514 47.8875 93.9314 44.535 93.9314 41.8575C93.9314 39.0675 92.9189 35.985 90.2189 35.985C87.5414 35.985 86.5289 39.0675 86.5289 41.8575C86.5289 44.535 87.5864 47.8875 90.2189 47.8875ZM101.426 48.1575C98.839 48.1575 97.1965 46.5375 97.1965 44.0625H97.4665C97.4665 46.3575 98.974 47.8875 101.359 47.8875C103.699 47.8875 104.824 46.4925 104.824 45.12C104.824 41.7 97.6465 43.635 97.6465 39.1575C97.6465 37.335 98.9065 35.7375 101.449 35.7375C103.744 35.7375 104.756 36.8625 104.756 38.1675H104.486C104.486 36.9975 103.586 36.0075 101.449 36.0075C99.604 36.0075 98.7265 36.9075 98.7265 37.875C98.7265 40.8 105.814 39.27 105.814 43.59C105.814 46.0425 104.149 48.1575 101.426 48.1575ZM104.486 38.1675H104.756C104.756 38.64 104.644 38.955 104.486 39.2025L104.239 39.0675C104.351 38.8875 104.486 38.595 104.486 38.1675Z" fill="white"></path><path d="M3.71887 0.8319H4.1458L5.11201 5.97753L5.10452 6H4.84986L4.60269 4.67427H1.91378L1.19474 6H0.93259L0.94008 5.97004L3.71887 0.8319ZM3.83871 1.10154L2.04111 4.43459H4.55775L3.93608 1.10154L3.92859 1.0566H3.85369L3.83871 1.10154ZM6.2423 6H5.98015L6.89393 0.8319H7.35082L9.32818 5.65546L9.36563 5.76032H9.43304L9.45551 5.65546L10.3019 0.8319H10.5565L9.64276 6H9.18587L7.20851 1.18393L7.17106 1.07158H7.11114L7.08867 1.18393L6.2423 6ZM13.2976 0.8319H13.7245L14.6907 5.97753L14.6832 6H14.4286L14.1814 4.67427H11.4925L10.7735 6H10.5113L10.5188 5.97004L13.2976 0.8319ZM13.4174 1.10154L11.6198 4.43459H14.1365L13.5148 1.10154L13.5073 1.0566H13.4324L13.4174 1.10154ZM15.4933 0.8319H19.0885L19.0435 1.07158H17.3733L16.5044 6H16.2498L17.1186 1.07158H15.4483L15.4933 0.8319ZM20.8709 6.05992C20.1743 6.05992 19.6875 5.81275 19.3954 5.31092C19.1033 4.80909 19.0359 4.15746 19.1782 3.34854C19.3205 2.59205 19.6201 1.97038 20.077 1.49102C20.5414 1.01166 21.1106 0.77198 21.7847 0.77198C22.4888 0.77198 22.9906 1.02664 23.2827 1.52847C23.5748 2.0303 23.6497 2.68942 23.4999 3.49834C23.3576 4.26981 23.058 4.88399 22.5936 5.35586C22.1292 5.82773 21.5525 6.05992 20.8709 6.05992ZM23.2378 3.47587C23.3726 2.73436 23.3127 2.13516 23.0505 1.69325C22.7958 1.24385 22.3614 1.01915 21.7472 1.01915C21.1555 1.01915 20.6462 1.23636 20.2343 1.67078C19.8223 2.09771 19.5602 2.66695 19.4403 3.37101C19.313 4.08256 19.3804 4.67427 19.6276 5.13116C19.8822 5.58805 20.3092 5.81275 20.9084 5.81275C21.5076 5.81275 22.0169 5.60303 22.4288 5.1761C22.8408 4.74917 23.1104 4.18742 23.2378 3.47587ZM24.317 6H24.0624L24.9686 0.86935H25.4705L26.4067 5.67793L26.4142 5.76032H26.4891L26.5266 5.67793L29.163 0.86935H29.6499L28.7436 6H28.4889L29.3353 1.19891L29.3503 1.10903H29.2829L29.2454 1.19891L26.609 6H26.197L25.2533 1.19891L25.2458 1.10903H25.1784L25.1634 1.19891L24.317 6ZM30.4341 6H30.1869L31.1007 0.8319H31.3479L30.4341 6ZM34.0955 0.8319H34.5224L35.4886 5.97753L35.4812 6H35.2265L34.9793 4.67427H32.2904L31.5714 6H31.3092L31.3167 5.97004L34.0955 0.8319ZM34.2153 1.10154L32.4177 4.43459H34.9344L34.3127 1.10154L34.3052 1.0566H34.2303L34.2153 1.10154ZM38.8672 0.8319H40.3502C41.601 0.8319 42.1403 1.48353 41.9381 2.62201C41.7583 3.66312 40.9419 4.29228 39.721 4.29228H38.5076L38.208 6H37.9534L38.8672 0.8319ZM41.6684 2.62201C41.8482 1.58839 41.3913 1.07158 40.2903 1.07158H39.0769L38.5526 4.0526H39.766C40.8071 4.0526 41.5186 3.49085 41.6684 2.62201ZM44.3492 0.8319H44.7761L45.7423 5.97753L45.7348 6H45.4802L45.233 4.67427H42.5441L41.8251 6H41.5629L41.5704 5.97004L44.3492 0.8319ZM44.469 1.10154L42.6714 4.43459H45.1881L44.5664 1.10154L44.5589 1.0566H44.484L44.469 1.10154ZM47.5243 0.8319H49.1346C50.2656 0.8319 50.8124 1.25883 50.6626 2.15763C50.6026 2.51715 50.4379 2.81675 50.1757 3.05643C49.9136 3.28862 49.6065 3.42344 49.2544 3.4534H49.247V3.46838C49.9885 3.55826 50.2506 3.99268 50.1008 4.79411L49.9735 5.52064C49.936 5.72287 49.936 5.88016 49.9735 5.97753L49.966 6H49.7113C49.6814 5.88016 49.6814 5.72287 49.7188 5.52064L49.8462 4.8016C49.9136 4.41212 49.8761 4.11252 49.7188 3.91029C49.569 3.70057 49.232 3.59571 48.7077 3.59571L47.2846 3.6032L46.8651 6H46.6105L47.5243 0.8319ZM50.3929 2.16512C50.5203 1.39365 50.0409 1.06409 49.0747 1.06409H47.734L47.3295 3.36352H48.6403C49.6065 3.36352 50.2656 2.91412 50.3929 2.16512ZM53.4378 0.8319H53.8648L54.831 5.97753L54.8235 6H54.5688L54.3217 4.67427H51.6328L50.9137 6H50.6516L50.6591 5.97004L53.4378 0.8319ZM53.5577 1.10154L51.7601 4.43459H54.2767L53.6551 1.10154L53.6476 1.0566H53.5727L53.5577 1.10154ZM59.5202 0.8319H59.9472L60.9134 5.97753L60.9059 6H60.6512L60.4041 4.67427H57.7152L56.9961 6H56.734L56.7415 5.97004L59.5202 0.8319ZM59.6401 1.10154L57.8425 4.43459H60.3591L59.7375 1.10154L59.73 1.0566H59.6551L59.6401 1.10154ZM62.6953 0.8319H64.3057C65.4366 0.8319 65.9834 1.25883 65.8336 2.15763C65.7737 2.51715 65.6089 2.81675 65.3468 3.05643C65.0846 3.28862 64.7775 3.42344 64.4255 3.4534H64.418V3.46838C65.1595 3.55826 65.4217 3.99268 65.2719 4.79411L65.1445 5.52064C65.1071 5.72287 65.1071 5.88016 65.1445 5.97753L65.137 6H64.8824C64.8524 5.88016 64.8524 5.72287 64.8899 5.52064L65.0172 4.8016C65.0846 4.41212 65.0472 4.11252 64.8899 3.91029C64.7401 3.70057 64.403 3.59571 63.8787 3.59571L62.4556 3.6032L62.0362 6H61.7815L62.6953 0.8319ZM65.564 2.16512C65.6913 1.39365 65.2119 1.06409 64.2457 1.06409H62.905L62.5006 3.36352H63.8113C64.7775 3.36352 65.4366 2.91412 65.564 2.16512ZM66.4724 0.8319H70.0676L70.0226 1.07158H68.3524L67.4835 6H67.2289L68.0977 1.07158H66.4274L66.4724 0.8319ZM70.2473 6H70.0001L70.9139 0.8319H71.1611L70.2473 6ZM73.3394 6.03745C72.2309 6.03745 71.6467 5.52064 71.6766 4.62933H71.9687C71.9613 5.37084 72.4481 5.79028 73.3769 5.79028C73.8487 5.79028 74.2457 5.68542 74.5678 5.46821C74.8898 5.251 75.0771 4.98136 75.1295 4.6518C75.2419 4.09005 74.9348 3.70806 74.2232 3.51332L73.1671 3.26615C72.4856 3.06392 72.1934 2.65946 72.3058 2.05277C72.3732 1.67827 72.5829 1.37118 72.935 1.1315C73.287 0.89182 73.7139 0.77198 74.2157 0.77198C75.2044 0.77198 75.7886 1.24385 75.7587 2.15014H75.4741C75.4741 1.37867 74.9797 1.01166 74.1633 1.01166C73.7514 1.01166 73.3918 1.10903 73.0997 1.31126C72.8076 1.506 72.6279 1.75317 72.5754 2.05277C72.493 2.53962 72.7327 2.86918 73.302 3.02647L74.3655 3.27364C75.1745 3.50583 75.519 3.96272 75.3992 4.65929C75.3318 5.05626 75.1071 5.38582 74.7326 5.64797C74.3655 5.91012 73.9012 6.03745 73.3394 6.03745ZM76.6017 0.8319H80.1969L80.152 1.07158H78.4817L77.6129 6H77.3582L78.227 1.07158H76.5568L76.6017 0.8319ZM81.9513 0.8319H82.3783L83.3445 5.97753L83.337 6H83.0823L82.8352 4.67427H80.1462L79.4272 6H79.1651L79.1725 5.97004L81.9513 0.8319ZM82.0712 1.10154L80.2736 4.43459H82.7902L82.1685 1.10154L82.1611 1.0566H82.0862L82.0712 1.10154ZM85.8679 6.03745C84.7594 6.03745 84.1752 5.52064 84.2051 4.62933H84.4972C84.4897 5.37084 84.9766 5.79028 85.9053 5.79028C86.3772 5.79028 86.7742 5.68542 87.0963 5.46821C87.4183 5.251 87.6056 4.98136 87.658 4.6518C87.7704 4.09005 87.4633 3.70806 86.7517 3.51332L85.6956 3.26615C85.014 3.06392 84.7219 2.65946 84.8343 2.05277C84.9017 1.67827 85.1114 1.37118 85.4634 1.1315C85.8155 0.89182 86.2424 0.77198 86.7442 0.77198C87.7329 0.77198 88.3171 1.24385 88.2872 2.15014H88.0025C88.0025 1.37867 87.5082 1.01166 86.6918 1.01166C86.2798 1.01166 85.9203 1.10903 85.6282 1.31126C85.3361 1.506 85.1563 1.75317 85.1039 2.05277C85.0215 2.53962 85.2612 2.86918 85.8304 3.02647L86.894 3.27364C87.7029 3.50583 88.0475 3.96272 87.9276 4.65929C87.8602 5.05626 87.6355 5.38582 87.261 5.64797C86.894 5.91012 86.4296 6.03745 85.8679 6.03745Z" fill="white"></path><path d="M91.5 4L106 3.99997" stroke="#55DC62" stroke-width="0.5" stroke-linecap="round"></path><g opacity="0.7"><path fill-rule="evenodd" clip-rule="evenodd" d="M80.452 42L59.3354 35.841L60.8833 35.3895L81.9999 41.5485L103.116 35.3895L104.664 35.841L83.5478 42L104.664 48.159L103.116 48.6104L81.9999 42.4514L60.8833 48.6104L59.3354 48.159L80.452 42Z" fill="#CD0000"></path><path fill-rule="evenodd" clip-rule="evenodd" d="M60.8834 35L82 41.159L103.117 35L106 35.841L84.8834 42L106 48.159L103.117 49L82 42.841L60.8834 49L58 48.159L79.1166 42L58 35.841L60.8834 35ZM103.117 35.7791L82 41.9381L60.8834 35.7791L60.671 35.841L81.7876 42L60.671 48.159L60.8834 48.2209L82 42.0619L103.117 48.2209L103.329 48.159L82.2124 42L103.329 35.841L103.117 35.7791Z" fill="#CD0000"></path></g></svg>