<svg xmlns="http://www.w3.org/2000/svg" width="118" height="46" viewBox="0 0 118 46" fill="none"><path d="M108.955 19.308C108.946 18.9397 108.958 18.5713 108.992 18.2044C108.695 18.5644 108.352 18.8848 107.972 19.1578C107.85 19.3137 107.436 19.8738 107.21 20.5751C107.871 20.2719 108.464 19.841 108.955 19.308Z" fill="#6A9B6A"></path><path d="M105.173 20.2608C104.375 20.3772 103.562 20.3666 102.765 20.2289C102.713 20.22 102.661 20.2103 102.608 20.2016C102.543 20.1886 102.478 20.1745 102.414 20.1596C102.707 20.42 103.12 20.6413 103.679 20.8022C104.834 21.1381 105.93 21.0658 106.894 20.7063C107.004 20.3054 107.166 19.9213 107.378 19.5636C107.387 19.5483 107.396 19.5329 107.405 19.518C106.714 19.8978 105.958 20.1495 105.173 20.2608Z" fill="#6A9B6A"></path><path d="M105.234 19.1278C104.93 19.0677 104.63 18.9897 104.334 18.8953C103.518 18.6341 102.768 18.2516 102.192 17.8101C102.065 18.0007 101.97 18.2103 101.912 18.4314C101.778 18.8955 101.82 19.3766 102.099 19.798C102.331 19.8719 102.568 19.9293 102.808 19.9694C103.577 20.1016 104.362 20.1116 105.133 19.9992C105.885 19.8926 106.611 19.6514 107.274 19.287C107.301 19.2713 107.325 19.2581 107.351 19.2435C106.93 19.2837 106.506 19.2849 106.084 19.2477C105.799 19.2232 105.515 19.1832 105.234 19.1278Z" fill="#6A9B6A"></path><path d="M109.513 16.8642C109.513 16.8643 109.513 16.8644 109.513 16.8645C109.077 16.9728 108.535 16.9246 108.208 16.8769C107.659 16.7976 107.087 16.6346 106.668 16.4418C106.168 16.5465 105.66 16.6177 105.149 16.6546C104.845 16.6904 104.567 16.7322 104.312 16.7753C104.88 17.1393 105.494 17.4266 106.138 17.6301C107.197 17.966 108.192 18.0279 108.965 17.8068C109.18 17.5128 109.364 17.1968 109.513 16.8645C109.513 16.8645 109.513 16.8644 109.513 16.8644L109.513 16.8642Z" fill="#6A9B6A"></path><path d="M108.244 16.6165C108.852 16.7042 109.356 16.6753 109.647 16.5391L109.648 16.5393C109.769 16.2168 109.862 15.8847 109.927 15.5462C110.037 14.9884 110.053 14.4153 109.974 13.8503C109.451 15.1688 108.539 15.9323 107.102 16.3346C107.473 16.4655 107.855 16.5597 108.244 16.6165Z" fill="#6A9B6A"></path><path d="M110.187 15.5975C110.121 15.9444 110.027 16.2851 109.904 16.6163L109.903 16.6259C109.908 16.989 109.95 17.3511 110.028 17.7063C110.166 17.4098 110.281 17.1029 110.371 16.7885C110.627 15.8947 110.659 14.7541 110.222 13.7257C110.32 14.3476 110.309 14.9813 110.187 15.5975Z" fill="#6A9B6A"></path><path d="M109.669 17.1573C109.563 17.3719 109.443 17.5798 109.31 17.7788L109.293 17.902C109.248 18.268 109.223 18.636 109.218 19.0046C109.459 18.7078 109.671 18.3904 109.853 18.0551C109.759 17.7631 109.697 17.4618 109.669 17.1573Z" fill="#6A9B6A"></path><path d="M107.674 18.1927C107.126 18.1562 106.583 18.0519 106.059 17.8808C105.308 17.6456 104.596 17.2972 103.95 16.8481C103.208 17.0118 102.696 17.2426 102.356 17.6061C102.904 18.0271 103.626 18.3941 104.415 18.6465C104.964 18.8231 105.532 18.9375 106.106 18.9871C106.696 19.0405 107.291 19.0124 107.871 18.9038C108.175 18.6795 108.453 18.4231 108.7 18.139C108.362 18.1968 108.018 18.2151 107.674 18.1927Z" fill="#6A9B6A"></path><path d="M96.6367 12.0075C96.6458 12.3757 96.6333 12.7442 96.5995 13.111C96.8971 12.751 97.24 12.4307 97.6202 12.1576C97.7418 12.0018 98.156 11.4417 98.3822 10.7403C97.7207 11.0436 97.1275 11.4745 96.6367 12.0075Z" fill="#6A9B6A"></path><path d="M100.419 11.0546C101.217 10.9383 102.03 10.9489 102.827 11.0865C102.879 11.0954 102.931 11.1051 102.983 11.1138C103.049 11.1268 103.114 11.1409 103.178 11.1558C102.885 10.8955 102.472 10.6741 101.913 10.5132C100.758 10.1774 99.662 10.2496 98.6976 10.6092C98.5882 11.01 98.4255 11.3941 98.2137 11.7518C98.2045 11.7671 98.1957 11.7826 98.1866 11.7975C98.8781 11.4176 99.6343 11.1659 100.419 11.0546Z" fill="#6A9B6A"></path><path d="M100.358 12.1876C100.662 12.2478 100.962 12.3257 101.258 12.4202C102.074 12.6813 102.824 13.0638 103.4 13.5053C103.527 13.3148 103.621 13.1052 103.68 12.884C103.814 12.42 103.772 11.9388 103.493 11.5174C103.261 11.4435 103.024 11.3862 102.784 11.3461C102.014 11.2138 101.23 11.2038 100.459 11.3162C99.7067 11.4228 98.9808 11.6641 98.3177 12.0285C98.2912 12.0441 98.2665 12.0573 98.2408 12.0719C98.6616 12.0318 99.0856 12.0305 99.5076 12.0677C99.7927 12.0922 100.077 12.1322 100.358 12.1876Z" fill="#6A9B6A"></path><path d="M96.0791 14.4512C96.0791 14.4511 96.0792 14.451 96.0792 14.4509C96.5147 14.3427 97.0568 14.3908 97.3839 14.4386C97.9325 14.5178 98.5051 14.6809 98.9236 14.8736C99.4241 14.7689 99.9318 14.6977 100.443 14.6608C100.747 14.625 101.025 14.5832 101.28 14.5401C100.712 14.1761 100.098 13.8888 99.4542 13.6853C98.3948 13.3494 97.3994 13.2875 96.6273 13.5086C96.4119 13.8026 96.2282 14.1186 96.0792 14.4509C96.079 14.451 96.0788 14.451 96.0787 14.451L96.0791 14.4512Z" fill="#6A9B6A"></path><path d="M97.3477 14.6989C96.7393 14.6112 96.2355 14.6401 95.9443 14.7763L95.9439 14.7762C95.8231 15.0987 95.7296 15.4307 95.6651 15.7692C95.5544 16.327 95.5385 16.9001 95.6179 17.4651C96.1409 16.1466 97.0526 15.3832 98.4899 14.9808C98.1192 14.8499 97.7363 14.7557 97.3477 14.6989Z" fill="#6A9B6A"></path><path d="M95.4046 15.7179C95.4704 15.371 95.5649 15.0303 95.6876 14.6992L95.6884 14.6896C95.6841 14.3264 95.6421 13.9644 95.5641 13.6091C95.426 13.9056 95.3112 14.2125 95.2207 14.5269C94.9643 15.4207 94.9328 16.5613 95.3699 17.5897C95.2713 16.9678 95.2829 16.3341 95.4046 15.7179Z" fill="#6A9B6A"></path><path d="M95.9227 14.1582C96.0287 13.9436 96.1484 13.7356 96.2814 13.5366L96.2992 13.4134C96.3437 13.0474 96.3685 12.6794 96.3734 12.3109C96.133 12.6076 95.9206 12.925 95.739 13.2603C95.8327 13.5523 95.8943 13.8536 95.9227 14.1582Z" fill="#6A9B6A"></path><path d="M97.9174 13.1227C98.4662 13.1592 99.0089 13.2636 99.5326 13.4346C100.284 13.6698 100.996 14.0182 101.642 14.4674C102.384 14.3036 102.896 14.0728 103.236 13.7094C102.687 13.2884 101.965 12.9213 101.177 12.6689C100.627 12.4923 100.06 12.3779 99.4855 12.3283C98.8955 12.275 98.3013 12.303 97.7205 12.4116C97.4169 12.6359 97.1391 12.8923 96.8917 13.1764C97.23 13.1186 97.5741 13.1003 97.9174 13.1227Z" fill="#6A9B6A"></path><path d="M10.7525 21.4657C9.74051 22.55 8.27672 23.0921 6.36115 23.0921C4.44558 23.0921 2.98179 22.55 1.95172 21.4657C0.921644 20.3633 0.415643 18.755 0.415643 16.6406C0.415643 14.5262 0.921644 12.9179 1.95172 11.8155C2.98179 10.7132 4.44558 10.153 6.36115 10.153C8.27672 10.153 9.74051 10.7132 10.7525 11.8155C11.7826 12.9179 12.2886 14.5262 12.2886 16.6406C12.2886 18.755 11.7826 20.3633 10.7525 21.4657ZM6.36115 19.8754C7.53579 19.8754 8.07794 18.8815 8.07794 16.6406C8.07794 14.3455 7.53579 13.3516 6.36115 13.3516C5.20458 13.3516 4.62629 14.454 4.62629 16.6406C4.62629 18.7911 5.20458 19.8754 6.36115 19.8754ZM16.5621 10.3879H21.9293C26.0315 10.3879 27.9109 12.3215 27.9109 16.6406C27.9109 20.9235 26.0496 22.8572 21.9293 22.8572H16.5621V10.3879ZM20.6101 19.6766H21.7124C23.1039 19.6766 23.6641 18.7911 23.6641 16.6225C23.6641 14.4359 23.1039 13.5504 21.7124 13.5504H20.6101V19.6766ZM32.437 17.9598V19.8031H37.8223V22.8572H28.4793V10.3879H37.7319V13.4962H32.437V15.1768H36.991V17.9598H32.437ZM43.3023 23.074C39.8506 23.074 38.0435 21.7367 37.8989 19.0441H41.8927C42.0192 19.9296 42.5433 20.3814 43.483 20.3814C44.2962 20.3814 44.6938 20.0742 44.6938 19.4417C44.6938 18.8815 44.3324 18.5742 43.3204 18.2851L41.4048 17.8514C39.1097 17.2912 37.9712 16.0442 37.9712 14.1106C37.9712 11.6529 39.9049 10.153 43.3565 10.153C46.6816 10.153 48.4526 11.6167 48.5791 14.0925H44.6396C44.5492 13.2793 44.0794 12.8637 43.23 12.8637C42.5071 12.8637 42.1457 13.1528 42.1457 13.713C42.1457 14.2371 42.471 14.4901 43.3384 14.7612L45.2721 15.231C47.7479 15.8455 48.9767 17.0924 48.9767 18.9718C48.9767 21.5922 46.9166 23.074 43.3023 23.074ZM52.3501 10.3879H57.8258L61.422 22.1885V22.8572H57.5728L57.1752 21.3934H52.9826L52.567 22.8572H48.7539V22.2066L52.3501 10.3879ZM54.5549 15.7009L53.8139 18.3935H56.3439L55.603 15.7009L55.2958 13.7672H54.844L54.5549 15.7009ZM70.8155 10.3879V13.7492H65.7555V16.0442H70.1288V19.1887H65.7555V22.8572H61.7075V10.3879H70.8155ZM75.4517 22.8572H71.4037V10.3879H75.4517V22.8572ZM86.4486 21.4657C85.4366 22.55 83.9728 23.0921 82.0572 23.0921C80.1416 23.0921 78.6778 22.55 77.6478 21.4657C76.6177 20.3633 76.1117 18.755 76.1117 16.6406C76.1117 14.5262 76.6177 12.9179 77.6478 11.8155C78.6778 10.7132 80.1416 10.153 82.0572 10.153C83.9728 10.153 85.4366 10.7132 86.4486 11.8155C87.4786 12.9179 87.9846 14.5262 87.9846 16.6406C87.9846 18.755 87.4786 20.3633 86.4486 21.4657ZM82.0572 19.8754C83.2318 19.8754 83.774 18.8815 83.774 16.6406C83.774 14.3455 83.2318 13.3516 82.0572 13.3516C80.9006 13.3516 80.3223 14.454 80.3223 16.6406C80.3223 18.7911 80.9006 19.8754 82.0572 19.8754ZM0.686715 26.3879H6.05393C10.1562 26.3879 12.0356 28.3215 12.0356 32.6406C12.0356 36.9235 10.1742 38.8572 6.05393 38.8572H0.686715V26.3879ZM4.73472 35.6766H5.83708C7.22858 35.6766 7.78879 34.7911 7.78879 32.6225C7.78879 30.4359 7.22858 29.5504 5.83708 29.5504H4.73472V35.6766ZM22.6698 37.4657C21.6578 38.55 20.194 39.0921 18.2784 39.0921C16.3628 39.0921 14.8991 38.55 13.869 37.4657C12.8389 36.3633 12.3329 34.755 12.3329 32.6406C12.3329 30.5262 12.8389 28.9179 13.869 27.8155C14.8991 26.7132 16.3628 26.153 18.2784 26.153C20.194 26.153 21.6578 26.7132 22.6698 27.8155C23.6999 28.9179 24.2059 30.5262 24.2059 32.6406C24.2059 34.755 23.6999 36.3633 22.6698 37.4657ZM18.2784 35.8754C19.4531 35.8754 19.9952 34.8815 19.9952 32.6406C19.9952 30.3455 19.4531 29.3516 18.2784 29.3516C17.1218 29.3516 16.5436 30.454 16.5436 32.6406C16.5436 34.7911 17.1218 35.8754 18.2784 35.8754ZM29.7741 39.074C26.3225 39.074 24.5153 37.7367 24.3708 35.0441H28.3645C28.491 35.9296 29.0151 36.3814 29.9548 36.3814C30.768 36.3814 31.1656 36.0742 31.1656 35.4417C31.1656 34.8815 30.8042 34.5742 29.7922 34.2851L27.8766 33.8514C25.5815 33.2912 24.443 32.0442 24.443 30.1106C24.443 27.6529 26.3767 26.153 29.8283 26.153C33.1535 26.153 34.9245 27.6167 35.051 30.0925H31.1114C31.021 29.2793 30.5512 28.8637 29.7018 28.8637C28.979 28.8637 28.6175 29.1528 28.6175 29.713C28.6175 30.2371 28.9428 30.4901 29.8103 30.7612L31.7439 31.231C34.2197 31.8455 35.4485 33.0924 35.4485 34.9718C35.4485 37.5922 33.3884 39.074 29.7741 39.074ZM44.4486 38.8572H40.1837V38.0801L44.8281 30.472L45.8581 29.8576V29.4781L44.5028 29.5865H39.5512V26.3698H49.9784V29.207L44.4486 38.8572ZM58.5883 33.9598V35.8031H63.9736V38.8572H54.6307V26.3879H63.8833V29.4962H58.5883V31.1768H63.1423V33.9598H58.5883ZM75.363 35.6585V37.05C75.3811 37.7187 75.363 37.9175 75.7606 38.2608V38.8572H71.6764C71.3511 38.568 71.1885 38.0982 71.1885 37.4476V36.02C71.1885 35.2248 70.7909 34.8634 69.9054 34.8634H68.4959V38.8572H64.4479V26.3879H71.2246C74.0619 26.3879 75.4534 27.5806 75.4534 29.6588C75.4534 30.8515 75.0377 31.7912 74.1884 32.4599L72.58 32.3153V32.749C74.4594 32.9117 75.363 33.7791 75.363 35.6585ZM68.4959 31.9177H70.05C70.8632 31.9177 71.2608 31.466 71.2608 30.5805C71.2608 29.7311 70.8632 29.3155 70.05 29.3155H68.4959V31.9177ZM86.9979 35.6585V37.05C87.016 37.7187 86.9979 37.9175 87.3955 38.2608V38.8572H83.3113C82.986 38.568 82.8234 38.0982 82.8234 37.4476V36.02C82.8234 35.2248 82.4258 34.8634 81.5403 34.8634H80.1308V38.8572H76.0828V26.3879H82.8595C85.6968 26.3879 87.0883 27.5806 87.0883 29.6588C87.0883 30.8515 86.6726 31.7912 85.8233 32.4599L84.2149 32.3153V32.749C86.0943 32.9117 86.9979 33.7791 86.9979 35.6585ZM80.1308 31.9177H81.6849C82.4981 31.9177 82.8957 31.466 82.8957 30.5805C82.8957 29.7311 82.4981 29.3155 81.6849 29.3155H80.1308V31.9177ZM97.6952 37.4657C96.6832 38.55 95.2194 39.0921 93.3039 39.0921C91.3883 39.0921 89.9245 38.55 88.8944 37.4657C87.8643 36.3633 87.3583 34.755 87.3583 32.6406C87.3583 30.5262 87.8643 28.9179 88.8944 27.8155C89.9245 26.7132 91.3883 26.153 93.3039 26.153C95.2194 26.153 96.6832 26.7132 97.6952 27.8155C98.7253 28.9179 99.2313 30.5262 99.2313 32.6406C99.2313 34.755 98.7253 36.3633 97.6952 37.4657ZM93.3039 35.8754C94.4785 35.8754 95.0206 34.8815 95.0206 32.6406C95.0206 30.3455 94.4785 29.3516 93.3039 29.3516C92.1473 29.3516 91.569 30.454 91.569 32.6406C91.569 34.7911 92.1473 35.8754 93.3039 35.8754ZM104.8 39.074C101.348 39.074 99.5408 37.7367 99.3962 35.0441H103.39C103.516 35.9296 104.041 36.3814 104.98 36.3814C105.793 36.3814 106.191 36.0742 106.191 35.4417C106.191 34.8815 105.83 34.5742 104.818 34.2851L102.902 33.8514C100.607 33.2912 99.4685 32.0442 99.4685 30.1106C99.4685 27.6529 101.402 26.153 104.854 26.153C108.179 26.153 109.95 27.6167 110.076 30.0925H106.137C106.046 29.2793 105.577 28.8637 104.727 28.8637C104.004 28.8637 103.643 29.1528 103.643 29.713C103.643 30.2371 103.968 30.4901 104.836 30.7612L106.769 31.231C109.245 31.8455 110.474 33.0924 110.474 34.9718C110.474 37.5922 108.414 39.074 104.8 39.074Z" fill="#142A14"></path><path d="M3.42448 0.339695H5.91009L6.59096 5.69648L6.54174 6H4.79443L4.72881 5.33553H2.82563L2.52211 6H0.791203L0.840423 5.70468L3.42448 0.339695ZM3.99871 2.75148L3.44088 3.97377H4.59755L4.4745 2.75148L4.49091 1.87372H4.28583L3.99871 2.75148ZM8.3038 6H6.67133L7.67214 0.339695H9.37023L10.5351 2.38233L10.6664 3.13703H10.9125L10.9535 2.30029L11.2406 0.339695H12.8731L11.8722 6H10.1906L9.02569 3.94916L8.89444 3.18625H8.64834L8.61552 4.0312L8.3038 6ZM14.6445 0.339695H17.1301L17.811 5.69648L17.7617 6H16.0144L15.9488 5.33553H14.0456L13.7421 6H12.0112L12.0604 5.70468L14.6445 0.339695ZM15.2187 2.75148L14.6609 3.97377H15.8175L15.6945 2.75148L15.7109 1.87372H15.5058L15.2187 2.75148ZM18.1904 0.339695H22.8417L22.5545 1.93114H21.16L20.4381 6H18.6005L19.3224 1.93114H17.9032L18.1904 0.339695ZM24.8115 6.09844C23.9337 6.09844 23.3021 5.82773 22.9001 5.29451C22.4981 4.7613 22.3833 4.01479 22.5474 3.07141C22.8837 1.23386 23.9583 0.241255 25.6236 0.241255C27.453 0.241255 28.2651 1.3323 27.978 3.14524C27.6744 5.0156 26.5424 6.09844 24.8115 6.09844ZM25.033 4.64645C25.5826 4.64645 25.9271 4.14604 26.0748 3.14524C26.2143 2.17724 26.0174 1.69325 25.476 1.69325C24.9591 1.69325 24.6228 2.15263 24.4587 3.07961C24.2783 4.12143 24.4669 4.64645 25.033 4.64645ZM29.1744 6H27.5091L28.5099 0.339695H31.258L31.2744 3.12063L31.2416 3.7851H31.4549L31.6518 3.12063L32.6526 0.339695H35.3105L34.3097 6H32.6854L33.3089 3.0632L33.4401 2.34131H33.2104L33.0053 2.98117L31.8159 6H30.0439L29.9209 2.98117L29.9455 2.34131H29.7158L29.5845 3.0632L29.1744 6ZM36.584 6H34.7465L35.7473 0.339695H37.5849L36.584 6ZM39.4099 0.339695H41.8955L42.5764 5.69648L42.5272 6H40.7799L40.7142 5.33553H38.8111L38.5075 6H36.7766L36.8259 5.70468L39.4099 0.339695ZM39.9841 2.75148L39.4263 3.97377H40.583L40.4599 2.75148L40.4763 1.87372H40.2713L39.9841 2.75148ZM45.3421 0.339695H47.7457C49.3618 0.339695 50.1411 1.078 49.8868 2.62843C49.6489 3.99838 48.5825 4.66286 46.9828 4.67106L46.4086 4.67926L46.1789 6H44.3413L45.3421 0.339695ZM48 2.52999C48.0903 2.00497 47.8606 1.69325 47.3684 1.69325H46.9336L46.6547 3.31751H47.0894C47.6145 3.31751 47.918 3.055 48 2.52999ZM51.4813 0.339695H53.9669L54.6478 5.69648L54.5986 6H52.8513L52.7856 5.33553H50.8825L50.5789 6H48.848L48.8973 5.70468L51.4813 0.339695ZM52.0555 2.75148L51.4977 3.97377H52.6544L52.5313 2.75148L52.5477 1.87372H52.3427L52.0555 2.75148ZM55.729 0.339695H58.5509C59.9291 0.339695 60.6182 0.922132 60.4623 1.93114C60.3885 2.44795 60.1178 2.84171 59.6584 3.09602L58.9447 3.03039L58.9119 3.23547C59.806 3.32571 60.0767 3.76049 59.9373 4.54801L59.8224 5.17967C59.7568 5.44217 59.765 5.62265 59.9045 5.72929L59.8635 6H58.0095C57.8783 5.86054 57.8454 5.64726 57.9029 5.36014L58.0177 4.71208C58.0751 4.35933 57.9111 4.18706 57.5173 4.18706H56.8856L56.5657 6H54.7282L55.729 0.339695ZM58.4935 2.25928C58.5509 1.86552 58.3869 1.66864 58.0095 1.66864H57.3368L57.1235 2.84992H57.8208C58.19 2.84992 58.4361 2.62843 58.4935 2.25928ZM62.3969 0.339695H64.8825L65.5634 5.69648L65.5141 6H63.7668L63.7012 5.33553H61.798L61.4945 6H59.7636L59.8128 5.70468L62.3969 0.339695ZM62.9711 2.75148L62.4133 3.97377H63.57L63.4469 2.75148L63.4633 1.87372H63.2582L62.9711 2.75148ZM69.7155 0.339695H72.2011L72.882 5.69648L72.8327 6H71.0854L71.0198 5.33553H69.1166L68.8131 6H67.0822L67.1314 5.70468L69.7155 0.339695ZM70.2897 2.75148L69.7319 3.97377H70.8886L70.7655 2.75148L70.7819 1.87372H70.5768L70.2897 2.75148ZM73.9631 0.339695H76.7851C78.1633 0.339695 78.8523 0.922132 78.6965 1.93114C78.6226 2.44795 78.3519 2.84171 77.8925 3.09602L77.1789 3.03039L77.146 3.23547C78.0402 3.32571 78.3109 3.76049 78.1715 4.54801L78.0566 5.17967C77.991 5.44217 77.9992 5.62265 78.1386 5.72929L78.0976 6H76.2437C76.1124 5.86054 76.0796 5.64726 76.137 5.36014L76.2519 4.71208C76.3093 4.35933 76.1452 4.18706 75.7515 4.18706H75.1198L74.7999 6H72.9623L73.9631 0.339695ZM76.7277 2.25928C76.7851 1.86552 76.621 1.66864 76.2437 1.66864H75.571L75.3577 2.84992H76.055C76.4241 2.84992 76.6702 2.62843 76.7277 2.25928ZM79.0396 0.339695H83.6909L83.4038 1.93114H82.0092L81.2873 6H79.4498L80.1717 1.93114H78.7525L79.0396 0.339695ZM84.7553 6H82.9177L83.9185 0.339695H85.7561L84.7553 6ZM87.614 6.09844C86.0061 6.09844 85.2842 5.45858 85.4401 4.2691H87.253C87.2366 4.67106 87.4417 4.87614 87.8683 4.87614C88.1964 4.87614 88.4507 4.70387 88.4835 4.46598C88.5327 4.22808 88.3605 4.0476 87.9585 3.92455L87.1218 3.72767C86.1291 3.46517 85.7026 2.88273 85.8584 1.98036C85.9487 1.44715 86.2358 1.02878 86.7116 0.708845C87.1874 0.388915 87.7862 0.233052 88.5081 0.233052C90.1078 0.233052 90.8461 0.897522 90.682 2.02138H88.8937C88.9183 1.65223 88.7296 1.46355 88.344 1.46355C88.0077 1.46355 87.8272 1.5866 87.7862 1.8245C87.7452 2.04599 87.9011 2.21826 88.2456 2.3249L89.0906 2.53819C90.1652 2.82531 90.6246 3.41595 90.4687 4.31011C90.3785 4.84333 90.0667 5.27811 89.5499 5.60624C89.0331 5.93437 88.3933 6.09844 87.614 6.09844ZM91.0069 0.339695H95.6582L95.371 1.93114H93.9765L93.2546 6H91.417L92.1389 1.93114H90.7197L91.0069 0.339695ZM96.7263 0.339695H99.2119L99.8927 5.69648L99.8435 6H98.0962L98.0306 5.33553H96.1274L95.8239 6H94.093L94.1422 5.70468L96.7263 0.339695ZM97.3005 2.75148L96.7427 3.97377H97.8993L97.7763 2.75148L97.7927 1.87372H97.5876L97.3005 2.75148ZM102.393 6.09844C100.785 6.09844 100.063 5.45858 100.219 4.2691H102.032C102.016 4.67106 102.221 4.87614 102.647 4.87614C102.976 4.87614 103.23 4.70387 103.263 4.46598C103.312 4.22808 103.14 4.0476 102.738 3.92455L101.901 3.72767C100.908 3.46517 100.482 2.88273 100.638 1.98036C100.728 1.44715 101.015 1.02878 101.491 0.708845C101.967 0.388915 102.565 0.233052 103.287 0.233052C104.887 0.233052 105.625 0.897522 105.461 2.02138H103.673C103.697 1.65223 103.509 1.46355 103.123 1.46355C102.787 1.46355 102.606 1.5866 102.565 1.8245C102.524 2.04599 102.68 2.21826 103.025 2.3249L103.87 2.53819C104.944 2.82531 105.404 3.41595 105.248 4.31011C105.158 4.84333 104.846 5.27811 104.329 5.60624C103.812 5.93437 103.172 6.09844 102.393 6.09844Z" fill="#142A14"></path><path d="M107.333 3.38086L110.619 3.38086" stroke="#158220" stroke-width="0.54762" stroke-linecap="round"></path><g opacity="0.7"><path fill-rule="evenodd" clip-rule="evenodd" d="M80.8889 33.4046L56.3157 28.1045L58.117 27.716L82.6901 33.0161L107.263 27.716L109.065 28.1045L84.4914 33.4046L109.065 38.7047L107.263 39.0932L82.6901 33.7931L58.117 39.0932L56.3157 38.7047L80.8889 33.4046Z" fill="#CD0000"></path><path fill-rule="evenodd" clip-rule="evenodd" d="M58.1171 27.3809L82.6903 32.681L107.264 27.3809L110.619 28.1046L86.0457 33.4047L110.619 38.7048L107.264 39.4285L82.6903 34.1284L58.1171 39.4285L54.7617 38.7048L79.3349 33.4047L54.7617 28.1046L58.1171 27.3809ZM107.264 28.0513L82.6903 33.3514L58.1171 28.0513L57.87 28.1046L82.4432 33.4047L57.87 38.7048L58.1171 38.7581L82.6903 33.458L107.264 38.7581L107.511 38.7048L82.9375 33.4047L107.511 28.1046L107.264 28.0513Z" fill="#CD0000"></path></g></svg>