<svg width="36" height="25" viewBox="0 0 36 25" fill="none" xmlns="http://www.w3.org/2000/svg">
<path d="M30.4955 2.09371C28.1302 1.10151 25.6333 0.397618 23.0684 0C22.7174 0.574897 22.3998 1.16639 22.117 1.772C19.3849 1.39477 16.6065 1.39477 13.8744 1.772C13.5915 1.16645 13.2739 0.574966 12.9231 0C10.3565 0.400976 7.85792 1.10654 5.4903 2.0989C0.789968 8.47084 -0.484218 14.6845 0.152875 20.81C2.90551 22.6735 5.98649 24.0907 9.26189 25C9.99941 24.0911 10.652 23.1269 11.2128 22.1176C10.1477 21.7531 9.11965 21.3034 8.14061 20.7737C8.39828 20.6024 8.65028 20.426 8.89379 20.2548C11.7426 21.4823 14.8519 22.1188 18 22.1188C21.1481 22.1188 24.2574 21.4823 27.1062 20.2548C27.3525 20.439 27.6045 20.6154 27.8593 20.7737C26.8784 21.3042 25.8485 21.7548 24.7815 22.1202C25.3416 23.129 25.9942 24.0924 26.7324 25C30.0106 24.0943 33.0939 22.6778 35.8471 20.8126C36.5946 13.709 34.5701 7.55241 30.4955 2.09371ZM12.0198 17.0429C10.2444 17.0429 8.7777 15.5666 8.7777 13.7505C8.7777 11.9344 10.1935 10.4452 12.0141 10.4452C13.8348 10.4452 15.2902 11.9344 15.2591 13.7505C15.2279 15.5666 13.8291 17.0429 12.0198 17.0429ZM23.9802 17.0429C22.202 17.0429 20.7409 15.5666 20.7409 13.7505C20.7409 11.9344 22.1567 10.4452 23.9802 10.4452C25.8037 10.4452 27.2477 11.9344 27.2166 13.7505C27.1854 15.5666 25.7895 17.0429 23.9802 17.0429Z" fill="#ABAAB3"/>
</svg>
