<svg width="23" height="23" viewBox="0 0 23 23" fill="none" xmlns="http://www.w3.org/2000/svg">
<path d="M7.08783 7.08783C8.1984 5.97726 9.54947 5.42198 11.1411 5.42198C12.7326 5.42198 14.0837 5.97726 15.1943 7.08783C16.3048 8.1984 16.8601 9.54947 16.8601 11.1411C16.8601 12.7326 16.3048 14.0837 15.1943 15.1943C14.0837 16.3048 12.7326 16.8601 11.1411 16.8601C9.54947 16.8601 8.1984 16.3048 7.08783 15.1943C5.97726 14.0837 5.42198 12.7326 5.42198 11.1411C5.42198 9.54947 5.97726 8.1984 7.08783 7.08783ZM8.50611 13.776C9.23469 14.5069 10.113 14.8724 11.1411 14.8724C12.1691 14.8724 13.0474 14.5069 13.776 13.776C14.5069 13.0474 14.8724 12.1691 14.8724 11.1411C14.8724 10.113 14.5069 9.23469 13.776 8.50611C13.0474 7.77516 12.1691 7.40968 11.1411 7.40968C10.113 7.40968 9.23469 7.77516 8.50611 8.50611C7.77516 9.23469 7.40968 10.113 7.40968 11.1411C7.40968 12.1691 7.77516 13.0474 8.50611 13.776ZM18.0308 4.25128C18.2784 4.50122 18.4022 4.80893 18.4022 5.1744C18.4022 5.53752 18.2784 5.85229 18.0308 6.11874C17.7809 6.38282 17.4744 6.51486 17.1112 6.51486C16.7458 6.51486 16.4298 6.38282 16.1634 6.11874C15.8993 5.85229 15.7672 5.53752 15.7672 5.1744C15.7672 4.80893 15.8993 4.50122 16.1634 4.25128C16.4298 4.00371 16.7458 3.87992 17.1112 3.87992C17.4744 3.87992 17.7809 4.00371 18.0308 4.25128ZM22.2326 6.56438C22.2656 7.46038 22.2821 8.98594 22.2821 11.1411C22.2821 13.2962 22.2656 14.8217 22.2326 15.7177C22.1336 17.7408 21.5288 19.3076 20.4182 20.4182C19.3076 21.5288 17.7408 22.1171 15.7177 22.1831C14.8217 22.2491 13.2962 22.2821 11.1411 22.2821C8.98594 22.2821 7.46038 22.2491 6.56438 22.1831C4.54131 22.084 2.97448 21.4875 1.86392 20.3934C0.753347 19.2994 0.165053 17.7408 0.0990316 15.7177C0.0330105 14.8217 0 13.2962 0 11.1411C0 8.98594 0.0330105 7.44387 0.0990316 6.51486C0.198063 4.5248 0.794611 2.98274 1.88867 1.88867C2.98274 0.7616 4.54131 0.148547 6.56438 0.0495157C7.46038 0.0165052 8.98594 0 11.1411 0C13.2962 0 14.8217 0.0165052 15.7177 0.0495157C17.7408 0.148547 19.3076 0.753348 20.4182 1.86392C21.5288 2.97448 22.1336 4.54131 22.2326 6.56438ZM19.8452 17.7054C19.9443 17.4413 20.0268 17.1018 20.0928 16.6868C20.1588 16.2718 20.2083 15.7743 20.2413 15.1943C20.2767 14.6142 20.2944 14.1415 20.2944 13.776C20.2944 13.4129 20.2944 12.8989 20.2944 12.2339C20.2944 11.5714 20.2944 11.1988 20.2944 11.1163C20.2944 11.0338 20.2944 10.6695 20.2944 10.0234C20.2944 9.37499 20.2944 8.86922 20.2944 8.50611C20.2944 8.14063 20.2767 7.66787 20.2413 7.08783C20.2083 6.50779 20.1588 6.01027 20.0928 5.59528C20.0268 5.18029 19.9443 4.84076 19.8452 4.57667C19.4467 3.54863 18.7335 2.83537 17.7054 2.43688C17.4413 2.33785 17.1018 2.25533 16.6868 2.18931C16.2718 2.12328 15.7743 2.07377 15.1943 2.04076C14.6142 2.00775 14.1497 1.99124 13.8008 1.99124C13.4541 1.99124 12.9401 1.99124 12.2587 1.99124C11.5796 1.99124 11.2071 1.99124 11.1411 1.99124C11.075 1.99124 10.7107 1.99124 10.0482 1.99124C9.38324 1.99124 8.86922 1.99124 8.50611 1.99124C8.14063 1.99124 7.66787 2.00775 7.08783 2.04076C6.50779 2.07377 6.01027 2.12328 5.59528 2.18931C5.18029 2.25533 4.84076 2.33785 4.57667 2.43688C3.54863 2.83537 2.83537 3.54863 2.43688 4.57667C2.33785 4.84076 2.25533 5.18029 2.18931 5.59528C2.12328 6.01027 2.07377 6.50779 2.04076 7.08783C2.00775 7.66787 1.99124 8.13238 1.99124 8.48135C1.99124 8.82796 1.99124 9.34198 1.99124 10.0234C1.99124 10.7025 1.99124 11.075 1.99124 11.1411C1.99124 11.2071 1.99124 11.5714 1.99124 12.2339C1.99124 12.8989 1.99124 13.4129 1.99124 13.776C1.99124 14.1415 2.00775 14.6142 2.04076 15.1943C2.07377 15.7743 2.12328 16.2718 2.18931 16.6868C2.25533 17.1018 2.33785 17.4413 2.43688 17.7054C2.86838 18.7335 3.58164 19.4467 4.57667 19.8452C4.84076 19.9443 5.18029 20.0268 5.59528 20.0928C6.01027 20.1588 6.50779 20.2083 7.08783 20.2413C7.66787 20.2767 8.13238 20.2944 8.48135 20.2944C8.82796 20.2944 9.34198 20.2944 10.0234 20.2944C10.7025 20.2944 11.075 20.2944 11.1411 20.2944C11.2401 20.2944 11.6126 20.2944 12.2587 20.2944C12.9071 20.2944 13.4129 20.2944 13.776 20.2944C14.1415 20.2944 14.6142 20.2767 15.1943 20.2413C15.7743 20.2083 16.2718 20.1588 16.6868 20.0928C17.1018 20.0268 17.4413 19.9443 17.7054 19.8452C18.7335 19.4137 19.4467 18.7005 19.8452 17.7054Z" fill="#ABAAB3"/>
</svg>
