<svg xmlns="http://www.w3.org/2000/svg" width="155" height="40" viewBox="0 0 155 40" fill="none"><path d="M70.3312 23.3573L72.4176 31.386L72.2065 32.534H65.613L64.6265 27.2106L64.5918 25.1214H63.8858L62.581 32.534H56.06L60.5371 7.47729H67.0597L64.4863 21.8499H65.1907L65.966 19.7622L68.5394 14.6815H75.4134L75.2022 15.8295L70.3312 23.3573ZM2.83641 24.3638C2.48184 25.6177 2.05478 26.8497 1.5568 28.0538C2.49917 30.437 3.90958 32.6134 5.70766 34.4553C5.85264 31.8527 5.19707 29.4772 4.99378 28.8083C4.08608 27.4238 3.36118 25.9303 2.83641 24.3638ZM20.8187 38.962C18.0137 38.4035 15.3158 37.4048 12.829 36.0062C10.3817 34.6419 8.20542 32.8498 6.40577 30.7171C6.4168 30.7777 6.42626 30.84 6.43729 30.9022C6.68155 32.352 6.7304 33.8268 6.58227 35.2891C9.30853 37.7019 12.8353 39.3338 17.0744 39.6931C19.1231 39.872 20.7683 39.6667 22.0668 39.1798C21.8352 39.1471 21.6035 39.1113 21.3703 39.0709C21.1875 39.0335 21.0031 38.9993 20.8187 38.962ZM17.3345 32.5652C16.2392 32.5014 15.1487 32.3769 14.0677 32.1887C13.0701 32.0145 12.0821 31.7858 11.1098 31.5042C9.66941 31.0904 8.27161 30.5475 6.93369 29.8801C6.99987 29.961 7.06449 30.0357 7.13225 30.1212C8.85783 32.1669 10.9474 33.8859 13.2955 35.1942C15.6956 36.5445 18.2989 37.509 21.0063 38.0504C21.8494 38.223 22.7051 38.335 23.5655 38.3864C25.0232 37.3503 25.7717 35.8149 25.9198 34.113C26.0081 33.3088 25.9624 32.4967 25.7859 31.7064C23.3228 32.4314 20.3617 32.7409 17.3345 32.5652ZM41.5888 21.2307C41.5179 19.9442 41.3114 18.667 40.9726 17.4225C38.7049 15.7113 35.3404 14.6504 31.4165 14.4139C29.0322 14.2661 26.6384 14.4341 24.2998 14.9133C25.0878 15.38 25.9529 15.8715 26.9095 16.3756C28.55 17.1472 30.1337 18.0277 31.6545 19.0093C33.2808 18.905 35.3783 19.0948 37.2898 19.5304C38.4291 19.7887 40.2808 20.3191 41.5809 21.2307H41.5888ZM2.82223 19.2784C2.89157 20.5649 3.09643 21.8421 3.43367 23.0866C5.70135 24.7978 9.06585 25.8588 12.9898 26.0968C15.3725 26.243 17.7647 26.075 20.1033 25.5959C19.3153 25.1292 18.4502 24.6376 17.4936 24.1336C15.8531 23.362 14.2678 22.4815 12.7487 21.4999C11.1224 21.6041 9.02487 21.4143 7.11334 20.9787C5.9724 20.7205 4.12075 20.19 2.82065 19.2784H2.82223ZM2.79071 18.0339C3.57865 18.8537 5.20495 19.5895 7.32451 20.0733C8.67976 20.3798 10.0634 20.5556 11.4533 20.5945C7.2205 17.4396 5.18131 13.7605 5.13089 8.74358C4.15069 10.5077 3.47464 12.4196 3.1311 14.4015C2.91363 15.6009 2.80017 16.8158 2.78913 18.0339H2.79071ZM1.84518 17.9623C1.86094 16.7131 1.98229 15.4686 2.20606 14.2397C2.58742 12.0509 3.35487 9.94454 4.47059 8.01709C1.72069 10.8561 0.374893 14.6613 0.0849314 17.9374C-0.0159246 19.0902 -0.0269558 20.2491 0.051838 21.4034C0.760982 20.33 1.35981 19.1882 1.83573 17.995L1.84518 17.9623ZM41.6093 22.4737C40.8213 21.6539 39.195 20.9181 37.0755 20.4342C35.7202 20.1278 34.3366 19.952 32.9467 19.9131C37.1795 23.068 39.2187 26.7471 39.2691 31.764C40.2477 30.003 40.9253 28.0942 41.2705 26.1139C41.4879 24.9129 41.603 23.6949 41.6124 22.4753H41.6093V22.4737ZM2.3274 22.5546C2.14145 21.7285 2.01065 20.8901 1.93343 20.0469C1.45279 21.0161 0.866566 21.9323 0.185787 22.777C0.359134 24.1149 0.656974 25.4325 1.07301 26.7175C1.52528 25.4948 1.91137 24.2487 2.2297 22.9839L2.3274 22.5546ZM31.5694 4.50912C34.0167 5.87342 36.193 7.66552 37.9926 9.79831C37.9832 9.73764 37.9721 9.67541 37.9611 9.61318C37.7168 8.16332 37.668 6.68857 37.8161 5.22627C35.093 2.81191 31.5662 1.18782 27.3271 0.820684C25.2785 0.641785 23.6332 0.848685 22.3347 1.3356C22.7476 1.39161 23.1636 1.46161 23.5828 1.54717C26.3879 2.10876 29.0858 3.10748 31.5725 4.50756H31.5694V4.50912ZM12.9299 27.024C10.9837 26.9228 9.05954 26.5775 7.20159 26.0003C6.04017 25.6379 4.9276 25.1401 3.88437 24.5194C4.3398 25.7717 4.93075 26.9711 5.64777 28.0974C7.42694 29.1941 9.35266 30.0419 11.3682 30.6159C13.327 31.1822 15.3457 31.526 17.3833 31.6411C20.3081 31.8107 23.1573 31.5167 25.5038 30.8244C24.8435 29.1925 23.4473 27.78 21.2048 26.2959C18.5006 26.9571 15.7097 27.2029 12.9299 27.024ZM31.4701 13.4899C33.4163 13.591 35.342 13.9348 37.2 14.5135C38.3614 14.8759 39.4739 15.3737 40.5172 15.9944C40.0618 14.7421 39.4708 13.5427 38.7538 12.4165C36.9746 11.3197 35.0489 10.4719 33.0333 9.89787C31.0745 9.33161 29.0574 8.98782 27.0198 8.8727C24.0934 8.70313 21.2442 8.99715 18.8977 9.68941C19.558 11.3213 20.959 12.7354 23.1967 14.2179C25.8994 13.5552 28.6902 13.3078 31.4701 13.4852V13.4899ZM42.4681 20.4607C42.9488 19.4931 43.535 18.5799 44.2142 17.7368C44.0456 16.3974 43.7509 15.0766 43.3364 13.7916C42.8841 15.0144 42.4981 16.2605 42.1797 17.5252L42.0789 17.9545C42.2632 18.779 42.3925 19.6144 42.4681 20.456V20.4607ZM41.5651 16.15C41.9197 14.8962 42.3468 13.6641 42.8447 12.46C41.9024 10.0768 40.492 7.90042 38.6939 6.05854C38.5489 8.66113 39.2045 11.0366 39.4078 11.7055C40.3155 13.0885 41.0404 14.5804 41.5651 16.1453V16.15ZM27.075 7.94398C29.1835 8.06221 31.2715 8.41689 33.2997 9.00182C34.7353 9.41562 36.1315 9.96009 37.4663 10.6259C37.4001 10.545 37.3355 10.4703 37.2677 10.3848C35.5406 8.34067 33.4525 6.62324 31.1045 5.31494C28.7044 3.96464 26.1011 3.00014 23.3937 2.45878C22.5506 2.28454 21.6965 2.17254 20.8361 2.12276C19.3784 3.15882 18.6298 4.69424 18.4723 6.39611C18.384 7.20038 18.4297 8.01243 18.6062 8.80269C21.0724 8.07776 24.0398 7.76819 27.075 7.94398ZM44.3497 19.1135C43.6406 20.1869 43.0417 21.3287 42.5658 22.5219L42.5532 22.5546C42.539 23.8007 42.4208 25.0436 42.1986 26.2695C41.8173 28.4583 41.0498 30.5646 39.9341 32.492C42.6809 29.6499 44.0314 25.8448 44.3166 22.5686C44.4175 21.419 44.4285 20.2647 44.3497 19.1135ZM84.1217 7.47729H77.8182L76.9026 12.698H83.2061L84.1217 7.47729ZM76.5417 14.6815L73.3695 32.534H79.673L82.8531 14.6815H76.5417ZM86.818 4.55734L81.8193 32.534H88.1969L93.1956 4.55734H86.818ZM95.9108 1.14581L90.2975 32.534H96.6168L102.225 1.14581H95.9108ZM108.901 27.3833C108.808 27.4066 108.713 27.4238 108.619 27.4362C108.526 27.4486 108.431 27.4533 108.337 27.4533C107.936 27.4533 107.637 27.3786 107.437 27.2277C107.226 27.052 107.114 26.7859 107.137 26.5137C107.137 26.3986 107.137 26.2819 107.155 26.1652C107.172 26.0486 107.185 25.9335 107.208 25.8183C107.229 25.8012 107.241 25.7748 107.243 25.7483V25.6783L108.42 19.1353H110.67L111.446 14.6815H109.208L109.996 10.2961H103.692L102.905 14.6815H101.215L100.44 19.1353H102.117L100.656 27.3491C100.602 27.6011 100.568 27.8578 100.55 28.1145C100.527 28.4163 100.516 28.7072 100.516 28.9841C100.516 30.1912 100.891 31.1433 101.642 31.8387C102.394 32.534 103.522 32.8825 105.027 32.8825C105.628 32.8856 106.228 32.8561 106.825 32.7954C107.325 32.7456 107.82 32.6585 108.305 32.534L109.251 27.3491C109.197 27.3491 109.145 27.3553 109.093 27.3662C109.03 27.3786 108.965 27.3849 108.901 27.3833ZM121.981 14.2988C121.068 14.2832 120.171 14.5384 119.407 15.0299C118.643 15.5277 118.014 16.2029 117.574 16.9963C117.324 17.4334 117.117 17.8939 116.958 18.3699H116.299L117.322 15.7253L117.499 14.6815H112.919L109.745 32.534H116.057L117.502 24.2891C117.711 23.1488 118.164 22.2839 118.859 21.6974C119.524 21.1156 120.386 20.7983 121.275 20.8092C121.741 20.8014 122.206 20.8729 122.649 21.0192L123.741 14.6846C123.298 14.4279 122.709 14.2988 121.973 14.2988H121.981ZM138.267 18.6313C138.526 20.0578 138.478 21.8608 138.125 24.0433L138.02 24.7387H129.264C129.189 25.2707 129.138 25.739 129.118 26.1388C129.083 26.8342 129.118 27.3631 129.242 27.7224C129.334 28.0647 129.66 28.2918 130.017 28.2622C130.345 28.2622 130.623 28.0818 130.846 27.7224C131.114 27.2371 131.299 26.7113 131.392 26.1668H137.731C137.399 28.088 136.365 29.8226 134.822 31.0391C133.264 32.2914 131.344 32.9183 129.064 32.9167C127.348 32.9167 125.982 32.534 124.967 31.7687C123.952 31.0033 123.296 29.8957 123.002 28.4474C122.696 26.996 122.731 25.2147 123.107 23.1053C123.46 21.1343 124.024 19.4993 124.8 18.1972C125.575 16.8952 126.557 15.9213 127.743 15.2742C128.93 14.6255 130.369 14.3019 132.061 14.3003C133.896 14.3003 135.323 14.6628 136.346 15.3893C137.369 16.1158 138.009 17.1954 138.267 18.6313ZM130.106 20.6691C130.027 20.8885 129.948 21.1358 129.885 21.4003H132.407C132.484 20.9849 132.54 20.5665 132.574 20.1465C132.608 19.6129 132.556 19.2302 132.416 18.9984C132.277 18.765 132.017 18.6281 131.743 18.6468C131.381 18.653 131.045 18.835 130.845 19.1337C130.525 19.6082 130.276 20.1247 130.106 20.6691ZM154.689 24.0449L154.584 24.7403H145.833C145.757 25.2723 145.707 25.7405 145.686 26.1403C145.652 26.8357 145.686 27.3646 145.811 27.724C145.902 28.0662 146.229 28.2934 146.586 28.2638C146.914 28.2638 147.191 28.0834 147.415 27.724C147.683 27.2386 147.867 26.7128 147.96 26.1684H154.306C153.974 28.0896 152.94 29.8241 151.397 31.0406C149.834 32.2945 147.913 32.9214 145.634 32.9198C143.918 32.9198 142.555 32.5372 141.545 31.7718C140.535 31.0064 139.876 29.8988 139.57 28.4474C139.265 26.996 139.299 25.2147 139.676 23.1053C140.029 21.1343 140.593 19.4993 141.369 18.1972C142.144 16.8952 143.126 15.9213 144.312 15.2742C145.499 14.6255 146.938 14.3019 148.63 14.3003C150.464 14.3003 151.892 14.6628 152.915 15.3893C153.938 16.1158 154.577 17.1938 154.836 18.625C155.094 20.0547 155.047 21.8608 154.694 24.0433H154.689V24.0449ZM146.674 20.6691C146.596 20.8885 146.517 21.1358 146.454 21.4003H148.975C149.052 20.9849 149.109 20.5665 149.142 20.1465C149.177 19.6129 149.125 19.2302 148.985 18.9984C148.846 18.7666 148.588 18.6328 148.315 18.6499C147.953 18.6561 147.617 18.8382 147.417 19.1368C147.095 19.6098 146.846 20.1262 146.674 20.6691ZM56.0774 22.5484C55.8394 21.6368 55.373 20.7983 54.7206 20.1122C54.0618 19.4153 53.1683 18.835 52.0416 18.3715L49.3972 17.3276C48.8094 17.1114 48.2784 16.766 47.8466 16.318C47.4936 15.9244 47.3754 15.4251 47.4936 14.8215C47.5519 14.5244 47.678 14.2459 47.8639 14.0048C48.0325 13.7901 48.2469 13.6174 48.4943 13.4992C48.7543 13.3794 49.0379 13.3203 49.3248 13.3234C49.8653 13.3234 50.2592 13.5101 50.5067 13.8803C50.7541 14.2506 50.8061 14.879 50.6642 15.7595H57.2215C57.6217 13.3747 57.2167 11.508 56.0049 10.1592C54.793 8.81047 52.7901 8.13688 49.9945 8.13688C48.458 8.11977 46.9357 8.41378 45.519 9.00182C44.605 9.38762 43.7651 9.92431 43.0339 10.5886C44.854 14.3392 45.623 18.5037 45.259 22.6464C45.259 22.707 45.2448 22.7677 45.2385 22.8284L46.8585 23.4506C47.4841 23.6855 48.0499 24.0542 48.5147 24.5303C48.8914 24.9456 49.008 25.4668 48.8677 26.0968C48.8063 26.4001 48.6865 26.6895 48.5147 26.9493C48.3509 27.192 48.1271 27.3895 47.8639 27.5233C47.585 27.6649 47.2745 27.7364 46.9609 27.7318C46.474 27.7567 46.0044 27.542 45.7097 27.1577C45.4166 26.7751 45.3409 26.131 45.4812 25.2256H44.8382C44.2678 27.7069 43.1536 30.0341 41.573 32.044C42.7329 32.6227 44.2063 32.9167 46.0091 32.9167C47.6496 32.9385 49.2775 32.6196 50.7872 31.9833C52.1661 31.4046 53.3874 30.5133 54.3502 29.3808C55.2627 28.3105 55.8772 27.024 56.131 25.6472C56.3453 24.622 56.3264 23.5642 56.0774 22.5468V22.5484Z" fill="#5A5A5A"></path></svg>