<svg width="28" height="20" viewBox="0 0 28 20" fill="none" xmlns="http://www.w3.org/2000/svg">
<path d="M26.6077 2.9851C26.7751 3.61465 26.9 4.47646 26.9826 5.57053C27.0651 6.66459 27.1229 7.61011 27.1559 8.40707V9.54947C27.1559 12.5346 26.9731 14.7392 26.6077 16.1634C26.2776 17.3918 25.4653 18.1876 24.1708 18.5507C23.5412 18.7181 22.3481 18.8431 20.5915 18.9256C18.8349 19.0082 17.2268 19.0659 15.7672 19.0989H13.5779C7.9072 19.0989 4.37625 18.9162 2.98509 18.5507C1.69061 18.1876 0.878316 17.3918 0.548211 16.1634C0.3808 15.5338 0.255832 14.6637 0.173305 13.5532C0.0907789 12.4426 0.0330105 11.5065 0 10.7449V9.54947C0 6.59739 0.182737 4.40926 0.548211 2.9851C0.713263 2.38855 1.01154 1.87453 1.44303 1.44303C1.87453 1.01154 2.38855 0.713263 2.98509 0.548211C3.61465 0.3808 4.80775 0.255832 6.56438 0.173305C8.32337 0.0907789 9.93145 0.0330105 11.3886 0H13.5779C19.2487 0 22.7796 0.182737 24.1708 0.548211C24.7673 0.713263 25.2813 1.01154 25.7128 1.44303C26.1443 1.87453 26.4426 2.38855 26.6077 2.9851ZM10.7944 5.52101V13.6275L17.9035 9.54947L10.7944 5.52101Z" fill="#ABAAB3"/>
</svg>
