<svg xmlns="http://www.w3.org/2000/svg" width="54" height="54" viewBox="0 0 54 54" fill="none"><path d="M22 4.00023C20.5333 6.40023 23.3333 8.2669 27.4667 7.73356C32.8 7.20023 32.5333 3.4669 27.0667 2.93356C24.8 2.6669 22.5333 3.20023 22 4.00023ZM29.3333 5.33356C29.3333 6.00023 28.1333 6.6669 26.6667 6.6669C25.2 6.6669 24 6.00023 24 5.33356C24 4.53356 25.2 4.00023 26.6667 4.00023C28.1333 4.00023 29.3333 4.53356 29.3333 5.33356Z" fill="white"></path><path d="M17.8662 12.5336C7.73291 16.9336 3.73291 32.9336 10.2662 42.1336C18.9329 54.2669 39.1996 52.5336 44.7996 39.2003C52.2662 21.4669 35.4662 4.93359 17.8662 12.5336ZM37.1996 15.6003C42.3996 19.4669 45.5996 26.4003 44.7996 32.4003C41.9996 55.4669 9.06624 53.7336 8.79957 30.5336C8.53291 15.8669 25.4662 7.06692 37.1996 15.6003Z" fill="white"></path><path d="M27.5997 26.1335C24.3997 28.2669 22.6664 30.2669 22.9331 31.7335C23.7331 35.8669 28.1331 34.1335 31.5997 28.2669C35.4664 21.8669 34.6664 21.4669 27.5997 26.1335ZM29.8664 28.2669C27.7331 32.0002 26.2664 33.2002 25.0664 32.4002C24.2664 32.0002 24.9331 30.5335 26.7997 29.2002C30.6664 26.2669 31.1997 26.1335 29.8664 28.2669Z" fill="white"></path></svg>