<svg xmlns="http://www.w3.org/2000/svg" width="312" height="58" viewBox="0 0 312 58" fill="none"><path d="M284.738 14.0591C284.738 9.49079 284.736 4.92246 284.731 0.35413C284.731 0.0753613 284.788 -0.000563494 285.077 3.14177e-06C290.218 0.010202 295.359 0.00340266 300.5 0.00850204C303.276 -0.00433657 305.958 1.01987 308.026 2.88271C310.095 4.74555 311.402 7.31444 311.696 10.0918C311.989 12.8691 311.248 15.6572 309.615 17.9159C307.982 20.1746 305.574 21.7433 302.857 22.3179C302.059 22.4828 301.246 22.566 300.431 22.5661C296.15 22.568 291.87 22.5657 287.59 22.5593C287.276 22.5593 287.201 22.6415 287.205 22.9508C287.221 24.5685 287.208 26.1861 287.217 27.8038C287.217 28.0349 287.168 28.1182 286.922 28.1109C286.311 28.091 285.699 28.091 285.088 28.1109C284.811 28.1211 284.731 28.0542 284.731 27.763C284.743 24.5843 284.739 21.4063 284.739 18.2276L284.738 14.0591ZM287.211 11.2765C287.211 14.0897 287.216 16.9029 287.204 19.7155C287.204 20.0079 287.289 20.064 287.562 20.0634C291.852 20.0543 296.143 20.0528 300.433 20.0589C302.749 20.0589 304.969 19.1336 306.606 17.4866C308.243 15.8396 309.163 13.6058 309.163 11.2765C309.163 8.94731 308.243 6.71349 306.606 5.06648C304.969 3.41947 302.749 2.49419 300.433 2.49419C296.143 2.49022 291.852 2.49759 287.562 2.48399C287.238 2.48399 287.201 2.59164 287.203 2.87041C287.213 5.67283 287.213 8.47468 287.213 11.2765H287.211Z" fill="white"></path><path d="M254.443 49.4446V50.5631C254.443 52.9213 254.436 55.2795 254.452 57.6377C254.452 57.9516 254.365 58.0105 254.08 57.9986C253.537 57.9739 252.993 57.9739 252.45 57.9986C252.168 58.0122 252.125 57.9091 252.127 57.6586C252.139 56.3373 252.133 55.016 252.133 53.6924C252.133 47.5863 252.13 41.48 252.125 35.3736C252.125 35.0557 252.21 34.977 252.512 34.9917C253.066 35.0166 253.622 35.0115 254.176 34.9917C254.41 34.9838 254.453 35.0659 254.449 35.2784C254.437 35.9583 254.445 36.6382 254.445 37.3896C256.662 35.1231 259.288 34.1231 262.371 34.5707C263.518 34.7315 264.621 35.1221 265.616 35.7194C266.61 36.3168 267.475 37.1088 268.16 38.0485C269.539 39.8907 270.159 42.1971 269.89 44.4875C269.621 46.7779 268.485 48.8758 266.717 50.3444C264.95 51.813 262.687 52.539 260.401 52.3714C258.115 52.2038 255.981 51.1554 254.443 49.4446ZM267.632 43.4312C267.633 42.1183 267.248 40.8345 266.523 39.7423C265.799 38.6502 264.769 37.7988 263.564 37.2959C262.358 36.7931 261.032 36.6614 259.752 36.9176C258.472 37.1738 257.296 37.8063 256.374 38.7351C255.451 39.6639 254.824 40.8471 254.57 42.135C254.317 43.4229 254.449 44.7575 254.95 45.9699C255.45 47.1822 256.297 48.2178 257.384 48.9455C258.47 49.6732 259.746 50.0602 261.051 50.0577C262.797 50.0557 264.471 49.3568 265.705 48.1144C266.939 46.872 267.632 45.1877 267.633 43.4312H267.632Z" fill="white"></path><path d="M282.26 44.5877C279.804 44.5877 277.347 44.5945 274.89 44.5792C274.587 44.5792 274.591 44.6857 274.645 44.9095C274.983 46.4052 275.828 47.7359 277.035 48.6732C278.242 49.6105 279.735 50.096 281.259 50.0463C282.369 50.0357 283.457 49.7336 284.415 49.1698C285.373 48.606 286.168 47.8001 286.722 46.832C286.74 46.7842 286.767 46.7406 286.803 46.7042C286.839 46.6678 286.881 46.6393 286.929 46.6205C286.976 46.6017 287.027 46.5931 287.077 46.5952C287.128 46.5972 287.178 46.61 287.223 46.6325C287.762 46.8025 288.308 46.9532 288.857 47.0711C289.163 47.1363 289.138 47.249 289.02 47.4705C288.09 49.3213 286.551 50.7903 284.666 51.627C282.78 52.4637 280.664 52.6163 278.679 52.0588C276.693 51.5013 274.962 50.2682 273.779 48.5698C272.597 46.8714 272.037 44.8129 272.194 42.7454C272.352 40.6778 273.217 38.7293 274.643 37.2321C276.069 35.7348 277.967 34.7817 280.014 34.5351C282.06 34.2885 284.128 34.7638 285.865 35.8799C287.602 36.996 288.901 38.6838 289.539 40.6555C289.92 41.8388 290.054 43.0882 289.933 44.3259C289.912 44.5525 289.832 44.5928 289.627 44.5922C287.172 44.5854 284.717 44.5839 282.26 44.5877ZM274.597 42.2493C274.688 42.2544 274.755 42.2618 274.822 42.2618C278.977 42.2618 283.132 42.2642 287.287 42.2691C287.568 42.2691 287.578 42.162 287.517 41.9552C287.448 41.7156 287.395 41.4691 287.305 41.2374C286.313 38.6831 284.479 37.1368 281.763 36.8428C280.564 36.6861 279.345 36.878 278.25 37.3958C277.155 37.9137 276.231 38.7359 275.586 39.7653C275.072 40.5066 274.734 41.3563 274.597 42.2493Z" fill="white"></path><path d="M295.143 36.6773C296.558 35.2011 298.471 34.3117 300.506 34.1843C301.763 34.0826 303.027 34.2823 304.193 34.7672C305.359 35.2521 306.395 36.0083 307.214 36.9737C308.594 38.5272 309.331 40.5527 309.274 42.6352C309.266 45.5853 309.268 48.5352 309.279 51.4849C309.279 51.7535 309.241 51.86 308.941 51.8447C308.387 51.8167 307.831 51.8167 307.277 51.8447C306.993 51.8583 306.956 51.7524 306.956 51.5048C306.964 48.4753 306.966 45.4457 306.961 42.4159C306.968 40.8981 306.397 39.4353 305.366 38.3277C304.334 37.22 302.92 36.5515 301.415 36.4593C299.909 36.3671 298.425 36.8582 297.268 37.8318C296.11 38.8055 295.367 40.1878 295.191 41.6952C295.157 41.9659 295.14 42.2387 295.141 42.5116C295.141 45.5067 295.136 48.5023 295.148 51.498C295.148 51.7864 295.077 51.8572 294.797 51.8459C294.22 51.826 293.642 51.826 293.065 51.8459C292.869 51.8504 292.825 51.7858 292.825 51.5977C292.83 46.1534 292.83 40.7091 292.825 35.2648C292.825 35.0614 292.864 34.99 293.082 34.9962C293.693 35.0121 294.304 35.0081 294.915 34.9962C295.09 34.9934 295.15 35.0381 295.145 35.2229C295.134 35.6841 295.143 36.1476 295.143 36.6773Z" fill="white"></path><path d="M277.727 28.0848C277.646 28.0083 277.572 27.942 277.502 27.8718L273.109 23.4523C270.948 21.278 268.785 19.1049 266.622 16.9329C266.453 16.7629 266.411 16.6723 266.61 16.4853C267.107 16.0191 267.587 15.5359 268.051 15.0365C268.242 14.8314 268.343 14.8257 268.546 15.032C271.244 17.7619 273.947 20.4855 276.656 23.203C277.577 24.1288 278.493 25.0591 279.422 25.9793C279.586 26.1414 279.607 26.2314 279.43 26.4014C278.913 26.8955 278.416 27.4111 277.909 27.9177C277.856 27.9692 277.797 28.0208 277.727 28.0848Z" fill="white"></path><path d="M264.946 11.3593C264.857 11.4561 264.807 11.5134 264.753 11.5672C264.233 12.0913 263.708 12.6092 263.196 13.1412C263.062 13.2812 262.989 13.2817 262.855 13.1412C262.415 12.6817 261.961 12.2347 261.513 11.7853C258.328 8.58063 255.14 5.37782 251.951 2.17689C251.726 1.95025 251.748 1.83693 251.963 1.63635C252.463 1.15827 252.952 0.667046 253.427 0.163185C253.563 0.0215339 253.631 0.0311661 253.765 0.163185C257.427 3.85479 261.092 7.54337 264.76 11.2289C264.818 11.2779 264.88 11.3215 264.946 11.3593Z" fill="white"></path><path d="M279.613 1.91455C279.532 2.00124 279.464 2.0766 279.393 2.14799L272.575 9.00842C271.223 10.3683 269.866 11.7281 268.52 13.0953C268.34 13.2789 268.252 13.2812 268.077 13.0953C267.614 12.5952 267.133 12.1129 266.635 11.6494C266.398 11.4318 266.461 11.3298 266.653 11.1394C269.884 7.90033 273.111 4.65672 276.333 1.40858C276.749 0.989858 277.17 0.575105 277.579 0.149586C277.692 0.0362658 277.751 0.0181345 277.871 0.141654C278.4 0.687859 278.941 1.2233 279.476 1.76327C279.523 1.80577 279.562 1.85733 279.613 1.91455Z" fill="white"></path><path d="M264.894 16.678C264.882 16.7913 264.792 16.8349 264.732 16.8961C264.062 17.576 263.39 18.2529 262.717 18.9268C259.763 21.8977 256.812 24.8708 253.863 27.8463C253.638 28.0763 253.525 28.0531 253.324 27.8361C252.849 27.3323 252.361 26.8411 251.86 26.3629C251.718 26.2252 251.731 26.1527 251.865 26.0184C255.526 22.3427 259.184 18.6633 262.839 14.9804C262.971 14.8473 263.045 14.7951 263.203 14.9617C263.709 15.4972 264.238 16.0133 264.758 16.5369C264.805 16.5822 264.851 16.6321 264.894 16.678Z" fill="white"></path><path d="M227.114 39.608V26.483H229.341V39.608H227.114ZM221.665 34.1591V31.9318H234.79V34.1591H221.665Z" fill="white"></path><mask id="mask0_20423_999" style="mask-type:luminance" maskUnits="userSpaceOnUse" x="99" y="0" width="107" height="44"><path d="M205.435 0H99.4346V44H205.435V0Z" fill="white"></path><path d="M133.22 38.0611C134.089 40.436 133.046 42 130.498 42H126.327C124.763 42 123.605 40.9574 123.431 39.3934C122.967 35.2807 122.388 31.226 121.635 27.1712C120.477 33.543 117.696 42.4634 109.818 42.4634C104.142 42.4634 101.593 36.8447 101.593 31.9211C101.593 22.7689 109.587 12.5162 113.178 3.42204C113.641 2.26354 114.742 1.45264 115.958 1.45264H122.214C123.778 1.45264 124.937 2.55314 125.111 4.11714C126.269 16.6868 128.934 26.4761 133.22 38.0611ZM120.94 24.0433C119.376 16.9185 117.059 10.0255 114.51 3.19034C113.699 11.4736 111.382 20.2782 111.382 28.5614C111.382 30.5888 112.599 37.0764 115.553 37.0764C118.913 37.0764 120.65 26.3603 120.94 24.0433ZM158.985 18.888C158.985 21.8421 157.305 24.2171 154.177 24.2171C151.397 24.2171 148.964 22.2476 148.964 19.3514C148.964 17.8453 149.659 16.3972 149.659 14.9491C149.659 14.4277 149.427 14.1381 148.848 14.1381C147.574 14.1381 146.357 15.8759 145.836 16.8606C145.199 20.394 145.025 23.9274 145.025 27.5188C145.025 31.168 145.257 34.7594 145.894 38.2928C146.299 40.5519 145.257 42 142.94 42H139.638C137.379 42 136.278 40.5519 136.684 38.3507C137.379 34.7594 137.611 31.168 137.611 27.5188C137.611 24.1012 137.437 20.8574 136.742 17.5557C136.336 15.5862 137.205 14.0802 139.175 13.7906L145.836 12.7479C146.357 12.6321 146.647 12.9217 146.531 13.5009L146.299 14.4277C147.69 13.0955 149.543 12.5741 151.455 12.5741C155.394 12.5741 158.985 14.4857 158.985 18.888ZM162.921 36.9026C162.921 36.2075 162.979 35.5124 163.094 34.8173C163.558 31.7473 163.905 28.7352 163.905 25.6073C163.905 23.4061 163.732 19.8148 162.747 16.9764C161.704 14.1381 162.341 12.5741 165.933 10.6047C167.439 9.79384 168.771 8.75114 170.161 7.53474C170.972 6.83964 171.551 6.43414 171.957 6.43414C172.478 6.43414 172.71 7.18714 172.478 8.69324C172.304 10.1413 172.189 11.5894 172.073 13.0375H176.649C176.938 13.0375 177.112 13.2113 177.112 13.5009C177.112 13.7906 176.938 13.9643 176.649 13.9643H172.015C171.899 15.5862 171.899 17.1502 171.899 18.7721C171.899 23.5799 172.189 28.5035 172.826 33.3113C173.115 35.3386 173.637 39.3355 176.475 39.3355C177.112 39.3355 177.749 39.1617 178.387 38.8721C178.676 38.7562 178.85 38.8721 178.85 39.1617C178.85 39.4513 178.676 39.7989 178.387 39.9726C175.722 41.6525 173.347 42.4634 170.045 42.4634C166.222 42.4634 162.921 41.3628 162.921 36.9026ZM202.512 33.7167C202.744 33.485 203.092 33.3113 203.381 33.3113C203.671 33.3113 203.845 33.543 203.787 33.8326C202.165 39.4513 197.647 42.4634 191.796 42.4634C183.223 42.4634 178.242 35.6862 178.242 27.5188C178.242 19.7568 183.05 12.5741 191.391 12.5741C197.357 12.5741 203.613 15.8179 203.613 22.4793C203.613 28.5035 198.168 31.5156 192.723 31.5156C191.333 31.5156 190 31.2839 188.668 30.9943C189.421 33.8905 192.26 37.3081 195.445 37.3081C198.226 37.3081 200.775 35.802 202.512 33.7167ZM188.147 29.2565C189.016 29.7778 190 30.1833 191.043 30.1833C194.287 30.1833 194.287 26.3603 194.287 23.9854C194.287 22.3635 193.65 13.6168 191.275 13.6168C188.61 13.6168 187.973 23.6378 187.973 25.3176C187.973 26.592 188.031 27.9242 188.147 29.2565Z" fill="black"></path></mask><g mask="url(#mask0_20423_999)"><path d="M133.22 38.061L134.406 37.6272L134.404 37.6229L133.22 38.061ZM123.431 39.3933L124.686 39.2539L124.685 39.2519L123.431 39.3933ZM121.635 27.1711L122.876 26.9406L120.393 26.9453L121.635 27.1711ZM113.178 3.42194L112.006 2.95304L112.004 2.95824L113.178 3.42194ZM125.111 4.11704L126.368 4.00114L126.367 3.98934L126.365 3.97764L125.111 4.11704ZM120.94 24.0432L122.193 24.1998L122.22 23.9844L122.173 23.7725L120.94 24.0432ZM114.51 3.19024L115.693 2.74914L113.254 3.06724L114.51 3.19024ZM133.22 38.061L132.034 38.4948C132.394 39.4786 132.249 39.9884 132.098 40.2081C131.953 40.4204 131.545 40.7373 130.498 40.7373V41.9999V43.2625C131.999 43.2625 133.386 42.7974 134.182 41.634C134.973 40.478 134.915 39.0184 134.406 37.6272L133.22 38.061ZM130.498 41.9999V40.7373H126.327V41.9999V43.2625H130.498V41.9999ZM126.327 41.9999V40.7373C125.413 40.7373 124.789 40.1846 124.686 39.2539L123.431 39.3933L122.176 39.5327C122.42 41.7299 124.113 43.2625 126.327 43.2625V41.9999ZM123.431 39.3933L124.685 39.2519C124.219 35.1147 123.636 31.0297 122.876 26.9406L121.635 27.1711L120.394 27.4017C121.14 31.422 121.715 35.4466 122.176 39.5346L123.431 39.3933ZM121.635 27.1711L120.393 26.9453C119.821 30.0881 118.869 33.7283 117.165 36.5547C115.484 39.3432 113.172 41.2007 109.818 41.2007V42.4633V43.7259C114.343 43.7259 117.36 41.1232 119.328 37.8585C121.273 34.6318 122.29 30.6259 122.877 27.397L121.635 27.1711ZM109.818 42.4633V41.2007C107.468 41.2007 105.779 40.0656 104.628 38.3381C103.448 36.569 102.856 34.1917 102.856 31.921H101.593H100.33C100.33 34.5738 101.012 37.4677 102.526 39.7388C104.068 42.0516 106.492 43.7259 109.818 43.7259V42.4633ZM101.593 31.921H102.856C102.856 27.67 104.723 23.054 107.166 18.2191C109.551 13.4989 112.53 8.49984 114.352 3.88574L113.178 3.42194L112.004 2.95824C110.235 7.43824 107.422 12.1126 104.912 17.0804C102.46 21.9334 100.33 27.0198 100.33 31.921H101.593ZM113.178 3.42194L114.35 3.89084C114.642 3.16074 115.311 2.71504 115.958 2.71504V1.45254V0.189941C114.173 0.189941 112.641 1.36624 112.006 2.95304L113.178 3.42194ZM115.958 1.45254V2.71504H122.214V1.45254V0.189941H115.958V1.45254ZM122.214 1.45254V2.71504C123.094 2.71504 123.748 3.29044 123.856 4.25644L125.111 4.11704L126.365 3.97764C126.125 1.81574 124.463 0.189941 122.214 0.189941V1.45254ZM125.111 4.11704L123.853 4.23294C125.025 16.9417 127.723 26.8418 132.036 38.4991L133.22 38.061L134.404 37.6229C130.145 26.1103 127.514 16.4317 126.368 4.00114L125.111 4.11704ZM120.94 24.0432L122.173 23.7725C120.591 16.5628 118.25 9.60594 115.693 2.74914L114.51 3.19024L113.327 3.63134C115.868 10.4448 118.161 17.274 119.707 24.3139L120.94 24.0432ZM114.51 3.19024L113.254 3.06724C112.853 7.15854 112.082 11.3646 111.395 15.6771C110.713 19.9575 110.12 24.3131 110.12 28.5613H111.382H112.645C112.645 24.5263 113.21 20.338 113.889 16.0744C114.563 11.843 115.356 7.50524 115.767 3.31324L114.51 3.19024ZM111.382 28.5613H110.12C110.12 29.729 110.452 32.0018 111.172 34.0058C111.532 35.0098 112.021 36.0369 112.682 36.8358C113.347 37.6392 114.3 38.3389 115.553 38.3389V37.0763V35.8137C115.329 35.8137 115.022 35.7024 114.628 35.226C114.23 34.7452 113.861 34.0236 113.548 33.1524C112.921 31.4057 112.645 29.421 112.645 28.5613H111.382ZM115.553 37.0763V38.3389C117.105 38.3389 118.172 37.1253 118.847 36.0269C119.572 34.8476 120.15 33.3133 120.607 31.7914C121.526 28.7297 122.043 25.3953 122.193 24.1998L120.94 24.0432L119.687 23.8866C119.547 25.0081 119.051 28.1902 118.188 31.0658C117.754 32.5125 117.25 33.8021 116.696 34.7044C116.091 35.6877 115.68 35.8137 115.553 35.8137V37.0763ZM145.836 16.8605L144.72 16.2697L144.628 16.4432L144.593 16.6364L145.836 16.8605ZM145.894 38.2927L147.137 38.0697L147.136 38.0686L145.894 38.2927ZM136.684 38.3506L135.444 38.1107L135.442 38.1219L136.684 38.3506ZM136.742 17.5556L135.505 17.8102L135.506 17.8157L136.742 17.5556ZM139.175 13.7905L139.358 15.0397L139.37 15.0379L139.175 13.7905ZM145.836 12.7478L146.031 13.9952L146.071 13.989L146.11 13.9803L145.836 12.7478ZM146.531 13.5008L147.756 13.8071L147.763 13.7779L147.769 13.7485L146.531 13.5008ZM146.299 14.4276L145.074 14.1214L144.013 18.3675L147.173 15.3392L146.299 14.4276ZM158.985 18.8879H157.722C157.722 20.1373 157.367 21.1599 156.788 21.847C156.232 22.5074 155.392 22.9544 154.177 22.9544V24.217V25.4795C156.09 25.4795 157.654 24.739 158.72 23.4735C159.763 22.2345 160.247 20.5926 160.247 18.8879H158.985ZM154.177 24.217V22.9544C151.957 22.9544 150.226 21.4208 150.226 19.3513H148.964H147.701C147.701 23.0742 150.836 25.4795 154.177 25.4795V24.217ZM148.964 19.3513H150.226C150.226 18.7701 150.361 18.1742 150.54 17.4203C150.706 16.7201 150.922 15.8478 150.922 14.949H149.659H148.396C148.396 15.4983 148.264 16.0741 148.083 16.8365C147.915 17.5452 147.701 18.4264 147.701 19.3513H148.964ZM149.659 14.949H150.922C150.922 14.5289 150.831 13.9484 150.387 13.4797C149.931 12.9977 149.332 12.8754 148.848 12.8754V14.138V15.4006C148.944 15.4006 148.75 15.4232 148.554 15.2163C148.371 15.0228 148.396 14.8477 148.396 14.949H149.659ZM148.848 14.138V12.8754C147.665 12.8754 146.725 13.6477 146.143 14.2613C145.514 14.9253 145.017 15.709 144.72 16.2697L145.836 16.8605L146.952 17.4512C147.176 17.0272 147.548 16.4497 147.976 15.9986C148.451 15.4972 148.757 15.4006 148.848 15.4006V14.138ZM145.836 16.8605L144.593 16.6364C143.938 20.2732 143.762 23.8896 143.762 27.5187H145.025H146.288C146.288 23.965 146.46 20.5146 147.078 17.0846L145.836 16.8605ZM145.025 27.5187H143.762C143.762 31.22 143.997 34.8897 144.651 38.5168L145.894 38.2927L147.136 38.0686C146.516 34.6288 146.288 31.1159 146.288 27.5187H145.025ZM145.894 38.2927L144.651 38.5168C144.816 39.4373 144.645 39.9553 144.44 40.2199C144.251 40.4639 143.841 40.7373 142.94 40.7373V41.9999V43.2625C144.355 43.2625 145.626 42.8118 146.436 41.767C147.23 40.7427 147.377 39.4082 147.137 38.0697L145.894 38.2927ZM142.94 41.9999V40.7373H139.638V41.9999V43.2625H142.94V41.9999ZM139.638 41.9999V40.7373C138.774 40.7373 138.352 40.4686 138.15 40.2147C137.939 39.9492 137.766 39.4454 137.925 38.5794L136.684 38.3506L135.442 38.1219C135.196 39.457 135.371 40.7778 136.174 41.7867C136.985 42.8071 138.242 43.2625 139.638 43.2625V41.9999ZM136.684 38.3506L137.923 38.5905C138.638 34.8966 138.873 31.2202 138.873 27.5187H137.611H136.348C136.348 31.1156 136.119 34.622 135.444 38.1107L136.684 38.3506ZM137.611 27.5187H138.873C138.873 24.061 138.698 20.7191 137.977 17.2955L136.742 17.5556L135.506 17.8157C136.176 20.9955 136.348 24.1412 136.348 27.5187H137.611ZM136.742 17.5556L137.978 17.301C137.822 16.5434 137.941 16.027 138.138 15.7133C138.321 15.4211 138.673 15.1406 139.358 15.0397L139.175 13.7905L138.991 12.5413C137.707 12.7301 136.64 13.3473 135.998 14.3729C135.369 15.377 135.256 16.5983 135.505 17.8102L136.742 17.5556ZM139.175 13.7905L139.37 15.0379L146.031 13.9952L145.836 12.7478L145.641 11.5004L138.979 12.5431L139.175 13.7905ZM145.836 12.7478L146.11 13.9803C146.109 13.9805 146.094 13.9839 146.065 13.985C146.036 13.986 145.99 13.9847 145.931 13.9728C145.805 13.9474 145.643 13.8769 145.505 13.7306C145.225 13.4351 145.313 13.1536 145.293 13.2532L146.531 13.5008L147.769 13.7485C147.865 13.2688 147.866 12.5529 147.34 11.9968C146.793 11.4169 146.055 11.4058 145.562 11.5153L145.836 12.7478ZM146.531 13.5008L145.306 13.1946L145.074 14.1214L146.299 14.4276L147.524 14.7339L147.756 13.8071L146.531 13.5008ZM146.299 14.4276L147.173 15.3392C148.261 14.2969 149.761 13.8366 151.455 13.8366V12.574V11.3115C149.325 11.3115 147.118 11.8939 145.426 13.5161L146.299 14.4276ZM151.455 12.574V13.8366C153.243 13.8366 154.835 14.2736 155.946 15.0952C157.008 15.8805 157.722 17.079 157.722 18.8879H158.985H160.247C160.247 16.2944 159.166 14.336 157.448 13.065C155.778 11.8303 153.606 11.3115 151.455 11.3115V12.574ZM163.094 34.8172L164.34 35.0248L164.341 35.0152L164.343 35.0057L163.094 34.8172ZM162.747 16.9763L163.94 16.5625L163.936 16.5517L163.932 16.541L162.747 16.9763ZM165.933 10.6046L165.334 9.49294L165.326 9.49764L165.933 10.6046ZM170.161 7.53464L169.339 6.57594L169.33 6.58444L170.161 7.53464ZM172.478 8.69314L171.23 8.50114L171.227 8.52184L171.225 8.54264L172.478 8.69314ZM172.073 13.0374L170.814 12.9368L170.705 14.3H172.073V13.0374ZM172.015 13.9642V12.7017H170.839L170.755 13.8743L172.015 13.9642ZM172.826 33.3112L171.574 33.4771L171.576 33.4897L172.826 33.3112ZM178.387 38.872L177.918 37.6997L177.891 37.7105L177.864 37.7225L178.387 38.872ZM178.387 39.9725L177.737 38.8899L177.725 38.897L177.713 38.9045L178.387 39.9725ZM162.921 36.9025H164.183C164.183 36.2779 164.235 35.6522 164.34 35.0248L163.094 34.8172L161.849 34.6096C161.722 35.3724 161.658 36.1369 161.658 36.9025H162.921ZM163.094 34.8172L164.343 35.0057C164.81 31.9102 165.168 28.8269 165.168 25.6072H163.905H162.643C162.643 28.6433 162.306 31.5841 161.846 34.6288L163.094 34.8172ZM163.905 25.6072H165.168C165.168 23.382 164.998 19.6117 163.94 16.5625L162.747 16.9763L161.554 17.3902C162.466 20.0176 162.643 23.43 162.643 25.6072H163.905ZM162.747 16.9763L163.932 16.541C163.457 15.2472 163.481 14.5496 163.739 14.0126C164.036 13.3977 164.785 12.674 166.54 11.7116L165.933 10.6046L165.326 9.49764C163.489 10.5046 162.124 11.5476 161.465 12.9167C160.767 14.3637 160.994 15.8671 161.562 17.4117L162.747 16.9763ZM165.933 10.6046L166.531 11.7163C168.16 10.8393 169.575 9.72514 170.993 8.48484L170.161 7.53464L169.33 6.58444C167.967 7.77694 166.717 8.74804 165.334 9.49294L165.933 10.6046ZM170.161 7.53464L170.983 8.49324C171.378 8.15454 171.67 7.92794 171.887 7.78994C171.994 7.72254 172.056 7.69324 172.082 7.68294C172.111 7.67174 172.061 7.69664 171.957 7.69664V6.43404V5.17144C171.378 5.17144 170.875 5.44194 170.535 5.65744C170.159 5.89594 169.754 6.21954 169.339 6.57594L170.161 7.53464ZM171.957 6.43404V7.69664C171.747 7.69664 171.532 7.60654 171.385 7.45484C171.268 7.33464 171.26 7.24414 171.275 7.30504C171.308 7.43864 171.337 7.80634 171.23 8.50114L172.478 8.69314L173.726 8.88514C173.851 8.07384 173.88 7.31204 173.725 6.69264C173.646 6.37694 173.496 6.00414 173.197 5.69564C172.866 5.35564 172.427 5.17144 171.957 5.17144V6.43404ZM172.478 8.69314L171.225 8.54264C171.047 10.0197 170.93 11.4927 170.814 12.9368L172.073 13.0374L173.331 13.1381C173.447 11.6859 173.561 10.2627 173.732 8.84354L172.478 8.69314ZM172.073 13.0374V14.3H176.649V13.0374V11.7749H172.073V13.0374ZM176.649 13.0374V14.3C176.54 14.3 176.306 14.2626 176.096 14.0533C175.887 13.8441 175.85 13.6092 175.85 13.5008H177.112H178.375C178.375 13.1029 178.25 12.6363 177.882 12.2678C177.513 11.8992 177.047 11.7749 176.649 11.7749V13.0374ZM177.112 13.5008H175.85C175.85 13.3925 175.887 13.1576 176.096 12.9484C176.306 12.7391 176.54 12.7017 176.649 12.7017V13.9642V15.2268C177.047 15.2268 177.513 15.1025 177.882 14.7339C178.25 14.3654 178.375 13.8988 178.375 13.5008H177.112ZM176.649 13.9642V12.7017H172.015V13.9642V15.2268H176.649V13.9642ZM172.015 13.9642L170.755 13.8743C170.636 15.5483 170.636 17.1567 170.636 18.772H171.899H173.162C173.162 17.1435 173.162 15.624 173.274 14.0542L172.015 13.9642ZM171.899 18.772H170.636C170.636 23.6293 170.929 28.6087 171.574 33.4771L172.826 33.3112L174.077 33.1453C173.448 28.3981 173.162 23.5303 173.162 18.772H171.899ZM172.826 33.3112L171.576 33.4897C171.715 34.4644 171.934 36.14 172.529 37.5687C173.123 38.9961 174.288 40.5979 176.475 40.5979V39.3354V38.0728C175.824 38.0728 175.309 37.6762 174.86 36.5984C174.412 35.5218 174.226 34.1853 174.076 33.1326L172.826 33.3112ZM176.475 39.3354V40.5979C177.343 40.5979 178.161 40.3614 178.909 40.0214L178.387 38.872L177.864 37.7225C177.338 37.9618 176.881 38.0728 176.475 38.0728V39.3354ZM178.387 38.872L178.855 40.0442C178.834 40.0526 178.467 40.196 178.049 39.9299C177.61 39.6503 177.587 39.2257 177.587 39.1616H178.85H180.113C180.113 38.8078 180.003 38.1805 179.405 37.7995C178.827 37.432 178.228 37.5754 177.918 37.6997L178.387 38.872ZM178.85 39.1616H177.587C177.587 39.1098 177.595 39.0735 177.601 39.0526C177.606 39.031 177.614 39.0149 177.621 39.002C177.632 38.9818 177.662 38.9346 177.737 38.8899L178.387 39.9725L179.036 41.0552C179.726 40.6411 180.113 39.8706 180.113 39.1616H178.85ZM178.387 39.9725L177.713 38.9045C175.223 40.4742 173.079 41.2007 170.045 41.2007V42.4633V43.7259C173.615 43.7259 176.221 42.8305 179.06 41.0406L178.387 39.9725ZM170.045 42.4633V41.2007C168.209 41.2007 166.724 40.9274 165.729 40.2915C164.841 39.7239 164.183 38.7671 164.183 36.9025H162.921H161.658C161.658 39.4982 162.651 41.3217 164.37 42.4195C165.981 43.449 168.059 43.7259 170.045 43.7259V42.4633ZM202.512 33.7166L201.619 32.8239L201.579 32.8644L201.542 32.9084L202.512 33.7166ZM203.787 33.8325L205 34.1826L205.014 34.1319L205.025 34.0801L203.787 33.8325ZM188.668 30.9942L188.936 29.7604L186.929 29.3241L187.446 31.3119L188.668 30.9942ZM188.147 29.2564L186.889 29.3658L186.945 30.0076L187.497 30.3391L188.147 29.2564ZM202.512 33.7166L203.405 34.6094C203.408 34.6065 203.416 34.5988 203.43 34.5892C203.443 34.5798 203.457 34.5721 203.468 34.5669C203.479 34.5616 203.481 34.5619 203.472 34.5642C203.467 34.5655 203.457 34.5678 203.443 34.5698C203.429 34.5718 203.408 34.5737 203.381 34.5737V33.3112V32.0486C202.668 32.0486 202.017 32.4262 201.619 32.8239L202.512 33.7166ZM203.381 33.3112V34.5737C203.172 34.5737 202.903 34.4788 202.713 34.233C202.532 33.9971 202.517 33.7434 202.549 33.5849L203.787 33.8325L205.025 34.0801C205.114 33.632 205.041 33.1176 204.715 32.6934C204.381 32.2594 203.88 32.0486 203.381 32.0486V33.3112ZM203.787 33.8325L202.574 33.4823C201.836 36.0384 200.46 37.9462 198.649 39.2231C196.832 40.505 194.505 41.2007 191.796 41.2007V42.4633V43.7259C194.938 43.7259 197.795 42.9156 200.105 41.2867C202.421 39.6529 204.116 37.2453 205 34.1826L203.787 33.8325ZM191.796 42.4633V41.2007C187.871 41.2007 184.837 39.6624 182.765 37.2342C180.674 34.7846 179.504 31.3546 179.504 27.5187H178.242H176.979C176.979 31.8502 178.3 35.8925 180.844 38.8733C183.406 41.8756 187.148 43.7259 191.796 43.7259V42.4633ZM178.242 27.5187H179.504C179.504 20.1949 183.98 13.8366 191.391 13.8366V12.574V11.3115C182.119 11.3115 176.979 19.3186 176.979 27.5187H178.242ZM191.391 12.574V13.8366C194.168 13.8366 196.953 14.5954 199.007 16.0573C201.023 17.4922 202.35 19.6032 202.35 22.4792H203.613H204.875C204.875 18.6938 203.074 15.8523 200.471 13.9999C197.906 12.1746 194.58 11.3115 191.391 11.3115V12.574ZM203.613 22.4792H202.35C202.35 25.0578 201.207 26.9523 199.46 28.2403C197.677 29.5553 195.233 30.2529 192.723 30.2529V31.5155V32.7781C195.658 32.7781 198.658 31.9696 200.959 30.2725C203.297 28.5485 204.875 25.9248 204.875 22.4792H203.613ZM192.723 31.5155V30.2529C191.469 30.2529 190.241 30.044 188.936 29.7604L188.668 30.9942L188.4 32.2279C189.76 32.5236 191.197 32.7781 192.723 32.7781V31.5155ZM188.668 30.9942L187.446 31.3119C187.882 32.989 188.899 34.7606 190.246 36.1246C191.587 37.4813 193.397 38.5706 195.445 38.5706V37.308V36.0454C194.308 36.0454 193.106 35.4259 192.043 34.3498C190.986 33.2808 190.207 31.8955 189.89 30.6765L188.668 30.9942ZM195.445 37.308V38.5706C198.688 38.5706 201.566 36.8238 203.482 34.5249L202.512 33.7166L201.542 32.9084C199.983 34.7801 197.764 36.0454 195.445 36.0454V37.308ZM188.147 29.2564L187.497 30.3391C188.462 30.9179 189.678 31.4458 191.043 31.4458V30.1832V28.9206C190.323 28.9206 189.57 28.6376 188.796 28.1738L188.147 29.2564ZM191.043 30.1832V31.4458C192.123 31.4458 193.035 31.1191 193.746 30.5027C194.433 29.9069 194.837 29.1236 195.083 28.3637C195.561 26.886 195.55 25.1251 195.55 23.9853H194.287H193.024C193.024 25.2203 193.013 26.5584 192.68 27.586C192.521 28.0787 192.317 28.3996 192.091 28.5948C191.89 28.7695 191.585 28.9206 191.043 28.9206V30.1832ZM194.287 23.9853H195.55C195.55 23.0986 195.383 20.427 194.912 17.956C194.677 16.7279 194.352 15.4629 193.892 14.4757C193.663 13.9837 193.367 13.4876 192.975 13.0986C192.569 12.697 191.998 12.3541 191.275 12.3541V13.6167V14.8793C191.146 14.8793 191.114 14.8097 191.198 14.8928C191.294 14.9885 191.438 15.1884 191.603 15.5418C191.93 16.2452 192.21 17.2682 192.431 18.4295C192.872 20.7373 193.024 23.25 193.024 23.9853H194.287ZM191.275 13.6167V12.3541C190.505 12.3541 189.899 12.7267 189.467 13.1657C189.048 13.5921 188.731 14.1396 188.483 14.6907C187.986 15.7974 187.634 17.2222 187.382 18.6119C186.876 21.4075 186.711 24.4084 186.711 25.3175H187.973H189.236C189.236 24.5468 189.389 21.6973 189.867 19.0625C190.107 17.737 190.415 16.5515 190.786 15.7267C190.973 15.3122 191.143 15.0636 191.269 14.9354C191.382 14.8199 191.378 14.8793 191.275 14.8793V13.6167ZM187.973 25.3175H186.711C186.711 26.6293 186.77 27.9981 186.889 29.3658L188.147 29.2564L189.405 29.147C189.292 27.8502 189.236 26.5544 189.236 25.3175H187.973Z" fill="#1BAEBF"></path></g><path d="M87.7039 43.5297C85.7924 43.5297 84.6339 42.2553 84.8656 40.3438C85.5028 34.4934 86.3137 28.5851 86.3137 22.6767C86.3137 17.0001 85.5607 11.3814 84.8656 5.76257C84.6339 4.08277 85.6186 2.80847 87.2984 2.51887L91.8166 1.82377C94.0177 1.47617 95.35 2.75057 95.1183 5.00957C94.7128 8.71677 94.3074 12.424 94.0757 16.1312C95.7555 14.9148 97.7829 14.1038 99.8682 14.1038C104.502 14.1038 108.151 16.5946 108.151 21.6341C108.151 24.5882 107.225 27.5424 107.225 30.6124C107.225 33.7404 107.688 36.9263 108.267 39.9963C108.673 42.1395 107.572 43.5297 105.429 43.5297H101.664C99.5785 43.5297 98.42 42.1395 98.8255 40.0542C99.8102 34.6093 100.621 29.0485 100.621 23.6035C100.621 21.6341 100.563 15.6099 97.6091 15.6099C96.2189 15.6099 94.8866 16.7105 93.9598 17.6952C93.9019 19.3171 93.844 20.939 93.844 22.5609C93.844 28.5271 94.5391 34.4355 95.1762 40.3438C95.4079 42.2553 94.2494 43.5297 92.3379 43.5297H87.7039Z" fill="url(#paint0_linear_20423_999)"></path><path d="M73.7869 43.5297C71.8754 43.5297 70.7169 42.2553 70.9486 40.3438C71.5858 34.4934 72.3967 28.5851 72.3967 22.6767C72.3967 17.0001 71.6437 11.3814 70.9486 5.76257C70.7169 4.08277 71.7016 2.80847 73.3814 2.51887L77.8996 1.82377C80.1007 1.47617 81.433 2.75057 81.2013 5.00957C80.5641 10.86 79.927 16.7105 79.927 22.5609C79.927 28.5271 80.6221 34.4355 81.2592 40.3438C81.4909 42.2553 80.3324 43.5297 78.4209 43.5297H73.7869Z" fill="url(#paint1_linear_20423_999)"></path><path d="M60.2752 43.5296C58.0161 43.5296 56.9155 42.0815 57.321 39.8804C58.0161 36.289 58.2478 32.6977 58.2478 29.0484C58.2478 25.6308 58.074 22.387 57.3789 19.0853C56.9735 17.1159 57.8423 15.6098 59.8118 15.3202L62.9977 14.7989C65.6043 14.3934 66.8786 15.8415 66.4732 18.4481C65.836 21.9816 65.6622 25.515 65.6622 29.0484C65.6622 32.6977 65.8939 36.289 66.5311 39.8224C66.9366 42.0815 65.8939 43.5296 63.5769 43.5296H60.2752Z" fill="url(#paint2_linear_20423_999)"></path><path d="M54.5001 20.4173C54.5001 23.3715 52.8202 25.7464 49.6923 25.7464C46.9119 25.7464 44.479 23.777 44.479 20.8807C44.479 19.3747 45.1741 17.9266 45.1741 16.4784C45.1741 15.9571 44.9424 15.6675 44.3632 15.6675C43.0888 15.6675 41.8724 17.4052 41.3511 18.39C40.7139 21.9234 40.5401 25.4568 40.5401 29.0481C40.5401 32.6974 40.7718 36.2888 41.409 39.8222C41.8145 42.0812 40.7718 43.5294 38.4548 43.5294H35.1531C32.8941 43.5294 31.7935 42.0812 32.199 39.8801C32.8941 36.2888 33.1258 32.6974 33.1258 29.0481C33.1258 25.6306 32.952 22.3868 32.2569 19.0851C31.8514 17.1156 32.7203 15.6096 34.6897 15.3199L41.3511 14.2773C41.8724 14.1614 42.162 14.4511 42.0462 15.0303L41.8145 15.9571C43.2047 14.6248 45.0583 14.1035 46.9698 14.1035C50.9087 14.1035 54.5001 16.015 54.5001 20.4173Z" fill="url(#paint3_linear_20423_999)"></path><path d="M27.2687 12.9455C27.2687 19.2014 21.708 20.7074 16.6685 21.8659C22.5189 22.7927 29.6437 25.4573 29.6437 32.5241C29.6437 41.2129 18.3483 43.5299 11.6869 43.5299H2.94029C0.912915 43.5299 -0.245583 42.1976 0.0440409 40.2281C0.797065 34.4356 1.31839 28.6432 1.31839 22.7927C1.31839 17.232 0.797065 11.787 0.0440409 6.28412C-0.187659 4.31472 0.912915 2.98242 2.94029 2.98242H11.1656C17.6532 2.98242 27.2687 4.60432 27.2687 12.9455ZM8.90655 26.442C12.382 20.8233 17.7111 21.2867 17.7111 12.8297C17.7111 8.77492 15.7417 4.14092 11.0498 4.14092H10.4126C9.4858 10.3389 8.84863 16.5369 8.84863 22.7927C8.84863 24.0092 8.84863 25.2256 8.90655 26.442ZM10.4126 42.3714H11.6869C17.4215 42.3714 19.7964 37.6215 19.7964 32.5241C19.7964 29.4541 19.333 23.1403 15.0466 23.1403C10.9918 23.1403 9.2541 28.4115 9.2541 31.7711C9.2541 35.1887 9.9492 38.9538 10.4126 42.3714Z" fill="url(#paint4_linear_20423_999)"></path><path d="M17.1294 57.5746C14.774 57.5746 13.1904 56.0411 13.1904 53.7458C13.1904 51.4705 14.764 49.957 17.1194 49.957C18.3322 49.957 19.3145 50.358 20.0462 51.1498L19.1541 52.0519C18.7331 51.5106 18.0215 51.1297 17.1395 51.1297C15.646 51.1297 14.6537 52.1822 14.6537 53.7558C14.6537 55.3495 15.6661 56.4019 17.1595 56.4019C18.1618 56.4019 18.8534 55.9509 19.3245 55.2292L20.2767 56.0812C19.5651 57.0534 18.4826 57.5746 17.1294 57.5746ZM28.2444 57.5746C25.909 57.5746 24.3454 56.0511 24.3454 53.7658C24.3454 51.4806 25.909 49.957 28.2444 49.957C30.5697 49.957 32.1333 51.4806 32.1333 53.7658C32.1333 56.0511 30.5697 57.5746 28.2444 57.5746ZM28.2444 56.4019C29.6977 56.4019 30.6699 55.3495 30.6699 53.7658C30.6699 52.1822 29.6977 51.1297 28.2444 51.1297C26.791 51.1297 25.8087 52.1822 25.8087 53.7658C25.8087 55.3495 26.791 56.4019 28.2444 56.4019ZM37.0575 57.4744V50.0573H37.9395L42.6103 55.0788L42.5802 50.0573H43.9935V57.4744H43.1215L38.4507 52.4528L38.4707 57.4744H37.0575ZM52.8555 57.5746C50.5001 57.5746 48.9164 56.0411 48.9164 53.7458C48.9164 51.4705 50.4901 49.957 52.8455 49.957C54.0583 49.957 55.0406 50.358 55.7723 51.1498L54.8802 52.0519C54.4592 51.5106 53.7476 51.1297 52.8656 51.1297C51.3721 51.1297 50.3798 52.1822 50.3798 53.7558C50.3798 55.3495 51.3922 56.4019 52.8856 56.4019C53.8879 56.4019 54.5795 55.9509 55.0506 55.2292L56.0028 56.0812C55.2911 57.0534 54.2086 57.5746 52.8555 57.5746ZM63.8366 57.5746C61.8821 57.5746 60.5791 56.4119 60.5791 54.6679V50.0573H61.9924V54.6078C61.9924 55.6802 62.7341 56.4019 63.8366 56.4019C64.9291 56.4019 65.6608 55.6802 65.6608 54.6078V50.0573H67.0741V54.6679C67.0741 56.4119 65.7811 57.5746 63.8366 57.5746ZM76.9735 57.4744L75.2796 54.7481H73.7661V57.4744H72.3529V50.0573H75.46C77.0237 50.0573 78.056 50.9994 78.056 52.4027C78.056 53.3649 77.5449 54.1066 76.6829 54.4775L78.6374 57.4744H76.9735ZM73.7661 51.23V53.5754H75.1994C76.0414 53.5754 76.6027 53.1043 76.6027 52.4027C76.6027 51.7011 76.0815 51.23 75.2997 51.23H73.7661ZM85.5988 57.5746C84.5764 57.5746 83.6243 57.2539 82.9627 56.6424L83.494 55.6903C84.1254 56.2115 84.827 56.4019 85.5086 56.4019C86.4407 56.4019 86.982 56.0812 86.982 55.5098C86.982 54.9085 86.3606 54.6479 85.4284 54.3872L85.0074 54.267C83.7846 53.9362 82.8725 53.425 82.8725 52.2122C82.8725 50.8591 83.965 49.957 85.6188 49.957C86.571 49.957 87.413 50.2377 88.1246 50.809L87.4932 51.7913C86.9419 51.3503 86.3505 51.1297 85.6289 51.1297C84.8471 51.1297 84.3359 51.4605 84.3359 51.9817C84.3359 52.5731 84.9273 52.7836 85.6589 52.994L86.0899 53.1143C87.2326 53.425 88.4454 54.0465 88.4454 55.3795C88.4454 56.6926 87.3027 57.5746 85.5988 57.5746ZM96.8286 57.5746C94.4932 57.5746 92.9296 56.0511 92.9296 53.7658C92.9296 51.4806 94.4932 49.957 96.8286 49.957C99.154 49.957 100.718 51.4806 100.718 53.7658C100.718 56.0511 99.154 57.5746 96.8286 57.5746ZM96.8286 56.4019C98.2819 56.4019 99.2542 55.3495 99.2542 53.7658C99.2542 52.1822 98.2819 51.1297 96.8286 51.1297C95.3752 51.1297 94.393 52.1822 94.393 53.7658C94.393 55.3495 95.3752 56.4019 96.8286 56.4019ZM111.727 57.4744V50.0573H112.609L117.28 55.0788L117.25 50.0573H118.663V57.4744H117.791L113.12 52.4528L113.14 57.4744H111.727ZM129.259 57.4744L128.658 56.001H125.24L124.638 57.4744H123.125L126.292 50.0573H127.605L130.772 57.4744H129.259ZM125.721 54.8283H128.186L126.954 51.8113L125.721 54.8283ZM138.494 57.5746C136.138 57.5746 134.555 56.0411 134.555 53.7458C134.555 51.4705 136.128 49.957 138.484 49.957C139.697 49.957 140.679 50.358 141.411 51.1498L140.519 52.0519C140.098 51.5106 139.386 51.1297 138.504 51.1297C137.011 51.1297 136.018 52.1822 136.018 53.7558C136.018 55.3495 137.031 56.4019 138.524 56.4019C139.526 56.4019 140.218 55.9509 140.689 55.2292L141.641 56.0812C140.93 57.0534 139.847 57.5746 138.494 57.5746ZM146.308 57.4744V50.0573H147.721V57.4744H146.308ZM156.545 57.5746C154.21 57.5746 152.646 56.0511 152.646 53.7658C152.646 51.4806 154.21 49.957 156.545 49.957C158.871 49.957 160.434 51.4806 160.434 53.7658C160.434 56.0511 158.871 57.5746 156.545 57.5746ZM156.545 56.4019C157.998 56.4019 158.971 55.3495 158.971 53.7658C158.971 52.1822 157.998 51.1297 156.545 51.1297C155.092 51.1297 154.11 52.1822 154.11 53.7658C154.11 55.3495 155.092 56.4019 156.545 56.4019ZM165.358 57.4744V50.0573H166.24L170.911 55.0788L170.881 50.0573H172.294V57.4744H171.422L166.751 52.4528L166.772 57.4744H165.358ZM182.89 57.4744L182.289 56.001H178.871L178.27 57.4744H176.756L179.923 50.0573H181.237L184.404 57.4744H182.89ZM179.352 54.8283H181.818L180.585 51.8113L179.352 54.8283ZM190.285 56.3017H193.563V57.4744H188.872V50.0573H190.285V56.3017Z" fill="white"></path><path d="M56.209 5.78039C58.963 6.62979 62.5663 4.72519 63.4157 1.97119C62.5663 4.72519 64.4709 8.32849 67.2249 9.17779C64.4709 8.32849 60.8676 10.2331 60.0182 12.9871C60.8676 10.2331 58.963 6.62979 56.209 5.78039Z" fill="#52DBA7"></path><defs><linearGradient id="paint0_linear_20423_999" x1="53.446" y1="-12.6276" x2="53.446" y2="59.1747" gradientUnits="userSpaceOnUse"><stop stop-color="#26835F"></stop><stop offset="0.548077" stop-color="#64FFC4"></stop><stop offset="1" stop-color="#227253"></stop></linearGradient><linearGradient id="paint1_linear_20423_999" x1="53.4446" y1="-12.6276" x2="53.4446" y2="59.1747" gradientUnits="userSpaceOnUse"><stop stop-color="#26835F"></stop><stop offset="0.548077" stop-color="#64FFC4"></stop><stop offset="1" stop-color="#227253"></stop></linearGradient><linearGradient id="paint2_linear_20423_999" x1="53.4457" y1="-12.6277" x2="53.4457" y2="59.1746" gradientUnits="userSpaceOnUse"><stop stop-color="#26835F"></stop><stop offset="0.548077" stop-color="#64FFC4"></stop><stop offset="1" stop-color="#227253"></stop></linearGradient><linearGradient id="paint3_linear_20423_999" x1="53.4463" y1="-12.6279" x2="53.4463" y2="59.1744" gradientUnits="userSpaceOnUse"><stop stop-color="#26835F"></stop><stop offset="0.548077" stop-color="#64FFC4"></stop><stop offset="1" stop-color="#227253"></stop></linearGradient><linearGradient id="paint4_linear_20423_999" x1="53.4455" y1="-12.6274" x2="53.4455" y2="59.1749" gradientUnits="userSpaceOnUse"><stop stop-color="#26835F"></stop><stop offset="0.548077" stop-color="#64FFC4"></stop><stop offset="1" stop-color="#227253"></stop></linearGradient></defs></svg>