<svg xmlns="http://www.w3.org/2000/svg" width="1027" height="1027" viewBox="0 0 1027 1027" fill="none"><path d="M561.484 265.477C561.484 189.642 561.446 113.807 561.371 37.9724C561.371 33.3448 562.312 32.0844 567.137 32.0938C653.001 32.2631 738.856 32.1502 824.721 32.2349C871.084 32.0218 915.876 49.0236 950.421 79.9471C984.966 110.871 1006.8 153.514 1011.71 199.618C1016.61 245.722 1004.22 292.005 976.952 329.5C949.681 366.995 909.465 393.035 864.093 402.574C850.757 405.312 837.178 406.692 823.564 406.694C752.081 406.725 680.598 406.688 609.114 406.581C603.875 406.581 602.624 407.945 602.681 413.08C602.954 439.934 602.737 466.787 602.888 493.64C602.888 497.477 602.07 498.86 597.959 498.738C587.751 498.409 577.534 498.409 567.325 498.738C562.697 498.907 561.362 497.797 561.371 492.963C561.569 440.197 561.493 387.44 561.493 334.675L561.484 265.477ZM602.784 219.286C602.784 265.985 602.86 312.684 602.662 359.374C602.662 364.227 604.082 365.158 608.644 365.149C680.297 364.998 751.952 364.973 823.611 365.074C862.276 365.074 899.358 349.714 926.699 322.373C954.039 295.033 969.399 257.951 969.399 219.286C969.399 180.62 954.039 143.538 926.699 116.198C899.358 88.8574 862.276 73.4976 823.611 73.4976C751.958 73.4318 680.297 73.554 608.644 73.3283C603.236 73.3283 602.625 75.1154 602.643 79.743C602.813 126.263 602.813 172.775 602.813 219.286H602.784Z" fill="white"></path><path d="M55.5337 852.877V871.444C55.5337 910.591 55.4115 949.737 55.6842 988.883C55.6842 994.094 54.2169 995.072 49.4577 994.875C40.3889 994.466 31.3064 994.466 22.2376 994.875C17.5348 995.101 16.8105 993.389 16.8482 989.231C17.0457 967.297 16.9422 945.363 16.9422 923.392C16.9422 822.03 16.8983 720.665 16.8105 619.297C16.8105 614.02 18.2308 612.713 23.2817 612.957C32.5274 613.371 41.8202 613.286 51.0754 612.957C54.9788 612.826 55.6936 614.189 55.6278 617.716C55.4209 629.003 55.5525 640.29 55.5525 652.762C92.5827 615.139 136.441 598.538 187.928 605.969C207.085 608.637 225.512 615.121 242.119 625.038C258.725 634.954 273.174 648.101 284.609 663.701C307.643 694.282 317.994 732.568 313.507 770.589C309.02 808.611 290.04 843.436 260.52 867.814C231 892.193 193.215 904.246 155.031 901.463C116.847 898.681 81.2079 881.278 55.5337 852.877ZM275.796 753.055C275.82 731.26 269.377 709.949 257.281 691.819C245.186 673.689 227.983 659.555 207.851 651.208C187.718 642.861 165.561 640.675 144.186 644.928C122.81 649.181 103.178 659.681 87.7732 675.098C72.3688 690.516 61.8857 710.158 57.6512 731.537C53.4166 752.916 55.6212 775.071 63.9856 795.196C72.35 815.322 86.4982 832.512 104.639 844.592C122.779 856.672 144.096 863.097 165.891 863.054C195.047 863.022 223 851.42 243.609 830.796C264.219 810.172 275.802 782.212 275.815 753.055H275.796Z" fill="white"></path><path d="M520.098 772.258C479.071 772.258 438.043 772.371 397.016 772.117C391.946 772.117 392.012 773.885 392.915 777.6C398.561 802.429 412.673 824.518 432.828 840.078C452.984 855.637 477.926 863.696 503.375 862.872C521.913 862.697 540.083 857.681 556.086 848.322C572.089 838.963 585.369 825.585 594.61 809.514C594.91 808.72 595.372 807.997 595.968 807.393C596.563 806.788 597.278 806.315 598.068 806.003C598.857 805.691 599.702 805.548 600.55 805.583C601.398 805.617 602.229 805.828 602.991 806.203C611.983 809.025 621.097 811.527 630.267 813.483C635.384 814.565 634.97 816.436 632.995 820.114C617.47 850.836 591.768 875.221 560.272 889.111C528.777 903 493.438 905.534 460.284 896.279C427.129 887.025 398.211 866.555 378.463 838.362C358.714 810.168 349.357 775.997 351.988 741.675C354.619 707.354 369.074 675.008 392.89 650.154C416.705 625.3 448.404 609.477 482.582 605.384C516.76 601.29 551.299 609.18 580.31 627.708C609.321 646.235 631.006 674.253 641.667 706.982C648.019 726.626 650.26 747.366 648.251 767.912C647.884 771.675 646.558 772.343 643.134 772.333C602.138 772.22 561.126 772.195 520.098 772.258ZM392.115 733.441C393.639 733.525 394.758 733.648 395.878 733.648C465.266 733.648 534.655 733.688 604.044 733.77C608.747 733.77 608.916 731.992 607.9 728.559C606.734 724.58 605.859 720.489 604.354 716.642C587.782 674.241 557.157 648.573 511.803 643.692C491.769 641.09 471.409 644.276 453.128 652.872C434.846 661.469 419.406 675.117 408.632 692.206C400.054 704.512 394.405 718.616 392.115 733.441Z" fill="white"></path><path d="M735.255 640.939C758.886 616.434 790.839 601.669 824.816 599.554C845.822 597.865 866.929 601.181 886.405 609.23C905.881 617.279 923.171 629.832 936.856 645.858C959.896 671.647 972.205 705.27 971.262 739.839C971.13 788.812 971.156 837.781 971.337 886.747C971.337 891.205 970.698 892.973 965.694 892.719C956.438 892.254 947.165 892.254 937.91 892.719C933.16 892.945 932.539 891.186 932.548 887.076C932.68 836.787 932.708 786.495 932.633 736.199C932.744 711.004 923.208 686.722 905.982 668.334C888.756 649.947 865.147 638.85 839.998 637.319C814.848 635.789 790.067 643.941 770.739 660.103C751.41 676.266 739 699.213 736.054 724.235C735.482 728.73 735.202 733.258 735.217 737.789C735.217 787.507 735.142 837.235 735.339 886.963C735.339 891.75 734.154 892.926 729.48 892.738C719.842 892.409 710.195 892.409 700.557 892.738C697.275 892.813 696.541 891.741 696.541 888.618C696.623 798.242 696.623 707.866 696.541 617.49C696.541 614.114 697.199 612.928 700.83 613.032C711.035 613.295 721.25 613.229 731.455 613.032C734.371 612.985 735.368 613.728 735.283 616.794C735.114 624.45 735.255 632.144 735.255 640.939Z" fill="white"></path><path d="M444.393 498.304C443.039 497.034 441.806 495.933 440.631 494.767L367.266 421.403C331.174 385.31 295.059 349.236 258.922 313.181C256.101 310.359 255.405 308.854 258.734 305.751C267.027 298.011 275.052 289.99 282.794 281.7C285.983 278.295 287.666 278.201 291.062 281.625C336.115 326.942 381.262 372.155 426.503 417.264C441.882 432.633 457.185 448.077 472.695 463.352C475.432 466.042 475.789 467.538 472.826 470.359C464.201 478.561 455.896 487.12 447.431 495.529C446.547 496.385 445.559 497.241 444.393 498.304Z" fill="white"></path><path d="M230.94 220.662C229.445 222.27 228.608 223.22 227.714 224.114C219.033 232.814 210.257 241.411 201.707 250.243C199.469 252.566 198.246 252.575 196.008 250.243C188.671 242.615 181.09 235.194 173.603 227.735C120.405 174.536 67.1718 121.369 13.9043 68.2335C10.142 64.4712 10.5182 62.5901 14.1018 59.2605C22.4659 51.3243 30.6203 43.1699 38.5565 34.8057C40.8233 32.4543 41.9708 32.6142 44.2 34.8057C105.362 96.0868 166.571 157.318 227.827 218.499C228.798 219.311 229.84 220.035 230.94 220.662Z" fill="white"></path><path d="M475.883 63.8746C474.528 65.3136 473.4 66.5646 472.214 67.7497L358.34 181.634C335.766 204.207 313.099 226.781 290.619 249.477C287.619 252.524 286.142 252.562 283.226 249.477C275.502 241.175 267.467 233.168 259.138 225.474C255.178 221.862 256.232 220.169 259.449 217.008C313.412 163.239 367.3 109.395 421.113 55.4753C428.064 48.5245 435.081 41.6395 441.919 34.5759C443.8 32.6947 444.787 32.3938 446.791 34.4442C455.632 43.5113 464.662 52.3996 473.606 61.3633C474.378 62.0687 475.046 62.9246 475.883 63.8746Z" fill="white"></path><path d="M230.075 308.953C229.868 310.834 228.372 311.558 227.366 312.574C216.173 323.861 204.952 335.097 193.703 346.284C144.379 395.601 95.0906 444.956 45.8362 494.348C42.0739 498.167 40.1927 497.781 36.8443 494.179C28.9057 485.817 20.7514 477.662 12.3896 469.724C10.0193 467.438 10.2262 466.234 12.4648 464.005C73.6205 402.987 134.714 341.91 195.744 280.773C197.945 278.563 199.186 277.698 201.82 280.463C210.285 289.351 219.117 297.92 227.789 306.611C228.589 307.363 229.35 308.191 230.075 308.953Z" fill="white"></path></svg>