<svg xmlns="http://www.w3.org/2000/svg" width="58" height="131" viewBox="0 0 58 131" fill="none"><mask id="path-1-outside-1_2753_759" maskUnits="userSpaceOnUse" x="0" y="0" width="58" height="131" fill="black"><rect fill="white" width="58" height="131"></rect><path d="M56.0796 1.6825V129H29.2236V34.6309H28.0424C27.1307 36.04 25.5143 37.4698 23.1934 38.9204C20.914 40.3709 17.9921 41.5936 14.4279 42.5882C10.9051 43.5829 6.80213 44.0802 2.1189 44.0802V22.6949C6.2219 22.6949 9.93119 21.9903 13.2467 20.5812C16.6038 19.1306 19.5049 17.3071 21.9501 15.1105C24.3953 12.914 26.281 10.6138 27.6073 8.21001C28.9335 5.80623 29.638 3.63039 29.7209 1.6825H56.0796Z"></path></mask><path d="M56.0796 1.6825H57.287V0.475181H56.0796V1.6825ZM56.0796 129V130.207H57.287V129H56.0796ZM29.2236 129H28.0163V130.207H29.2236V129ZM29.2236 34.6309H30.4309V33.4236H29.2236V34.6309ZM28.0424 34.6309V33.4236H27.3856L27.0288 33.975L28.0424 34.6309ZM23.1934 38.9204L22.5535 37.8965L22.5452 37.9018L23.1934 38.9204ZM14.4279 42.5882L14.1034 41.4253L14.0998 41.4263L14.4279 42.5882ZM2.1189 44.0802H0.911577V45.2875H2.1189V44.0802ZM2.1189 22.6949V21.4875H0.911577V22.6949H2.1189ZM13.2467 20.5812L13.719 21.6924L13.7256 21.6895L13.2467 20.5812ZM21.9501 15.1105L22.7569 16.0087L22.7569 16.0087L21.9501 15.1105ZM27.6073 8.21001L28.6644 8.79324L28.6644 8.79324L27.6073 8.21001ZM29.7209 1.6825V0.475181H28.5639L28.5147 1.63117L29.7209 1.6825ZM54.8723 1.6825V129H57.287V1.6825H54.8723ZM56.0796 127.793H29.2236V130.207H56.0796V127.793ZM30.4309 129V34.6309H28.0163V129H30.4309ZM29.2236 33.4236H28.0424V35.8382H29.2236V33.4236ZM27.0288 33.975C26.2551 35.1706 24.8078 36.4877 22.5535 37.8966L23.8333 39.9442C26.2208 38.452 28.0062 36.9093 29.0561 35.2868L27.0288 33.975ZM22.5452 37.9018C20.3953 39.27 17.5923 40.4517 14.1034 41.4253L14.7524 43.7511C18.392 42.7354 21.4327 41.4719 23.8416 39.939L22.5452 37.9018ZM14.0998 41.4263C10.7087 42.3838 6.72047 42.8729 2.1189 42.8729V45.2875C6.88378 45.2875 11.1015 44.782 14.756 43.7501L14.0998 41.4263ZM3.32622 44.0802V22.6949H0.911577V44.0802H3.32622ZM2.1189 23.9022C6.36174 23.9022 10.2347 23.1731 13.719 21.6923L12.7745 19.4701C9.62765 20.8075 6.08206 21.4875 2.1189 21.4875V23.9022ZM13.7256 21.6895C17.1892 20.1929 20.2042 18.3018 22.7569 16.0087L21.1433 14.2124C18.8056 16.3124 16.0183 18.0684 12.7679 19.4729L13.7256 21.6895ZM22.7569 16.0087C25.2833 13.7392 27.2615 11.336 28.6644 8.79324L26.5502 7.62678C25.3006 9.89162 23.5073 12.0888 21.1433 14.2124L22.7569 16.0087ZM28.6644 8.79324C30.0463 6.28857 30.8338 3.92834 30.9272 1.73383L28.5147 1.63117C28.4423 3.33244 27.8207 5.32389 26.5502 7.62678L28.6644 8.79324ZM29.7209 2.88982H56.0796V0.475181H29.7209V2.88982Z" fill="url(#paint0_linear_2753_759)" mask="url(#path-1-outside-1_2753_759)"></path><defs><linearGradient id="paint0_linear_2753_759" x1="-19.3297" y1="56.1262" x2="68.7827" y2="55.229" gradientUnits="userSpaceOnUse"><stop stop-color="#6557DA"></stop><stop offset="1" stop-color="#00004E"></stop></linearGradient></defs></svg>