<svg xmlns="http://www.w3.org/2000/svg" width="95" height="133" viewBox="0 0 95 133" fill="none"><mask id="path-1-outside-1_2753_760" maskUnits="userSpaceOnUse" x="0" y="0" width="95" height="133" fill="black"><rect fill="white" width="95" height="133"></rect><path d="M2.68555 131V111.604L48.0051 69.6414C51.8594 65.9114 55.0921 62.5544 57.7031 59.5704C60.3556 56.5864 62.3656 53.6646 63.7333 50.8049C65.101 47.9038 65.7848 44.7747 65.7848 41.4177C65.7848 37.6877 64.9352 34.4758 63.236 31.7819C61.5367 29.0465 59.2158 26.9536 56.2733 25.503C53.3307 24.011 49.9944 23.265 46.2644 23.265C42.3687 23.265 38.9702 24.0525 36.0691 25.6274C33.168 27.2023 30.93 29.461 29.3551 32.4035C27.7802 35.3461 26.9927 38.8482 26.9927 42.9097H1.44221C1.44221 34.5794 3.32794 27.3473 7.09939 21.2135C10.8708 15.0797 16.155 10.3343 22.9519 6.97734C29.7488 3.62033 37.5818 1.94183 46.4509 1.94183C55.5687 1.94183 63.5053 3.55817 70.2608 6.79084C77.0577 9.98207 82.3419 14.4166 86.1133 20.0945C89.8848 25.7724 91.7705 32.2792 91.7705 39.6149C91.7705 44.4224 90.8173 49.1678 88.9108 53.8511C87.0458 58.5343 83.7095 63.7356 78.902 69.4549C74.0944 75.1328 67.3182 81.9504 58.5735 89.9078L39.9856 108.123V108.993H93.449V131H2.68555Z"></path></mask><path d="M2.68555 131H1.47823V132.207H2.68555V131ZM2.68555 111.604L1.86528 110.718L1.47823 111.076V111.604H2.68555ZM48.0051 69.6414L48.8254 70.5273L48.8351 70.5183L48.8447 70.509L48.0051 69.6414ZM57.7031 59.5704L56.8007 58.7683L56.7945 58.7754L57.7031 59.5704ZM63.7333 50.8049L64.8225 51.3258L64.8253 51.3197L63.7333 50.8049ZM63.236 31.7819L62.2104 32.419L62.2148 32.426L63.236 31.7819ZM56.2733 25.503L55.7273 26.5799L55.7395 26.5859L56.2733 25.503ZM29.3551 32.4035L30.4195 32.9732L30.4195 32.9732L29.3551 32.4035ZM26.9927 42.9097V44.117H28.2001V42.9097H26.9927ZM1.44221 42.9097H0.234892V44.117H1.44221V42.9097ZM7.09939 21.2135L8.12785 21.8459L8.12785 21.8459L7.09939 21.2135ZM22.9519 6.97734L22.4173 5.89485L22.4173 5.89485L22.9519 6.97734ZM70.2608 6.79084L69.7396 7.87992L69.7477 7.8837L70.2608 6.79084ZM86.1133 20.0945L85.1076 20.7625L85.1076 20.7625L86.1133 20.0945ZM88.9108 53.8511L87.7926 53.3959L87.7892 53.4044L88.9108 53.8511ZM78.902 69.4549L79.8234 70.2351L79.8262 70.2318L78.902 69.4549ZM58.5735 89.9078L57.7609 89.0148L57.7444 89.0298L57.7284 89.0455L58.5735 89.9078ZM39.9856 108.123L39.1406 107.26L38.7783 107.615V108.123H39.9856ZM39.9856 108.993H38.7783V110.2H39.9856V108.993ZM93.449 108.993H94.6563V107.786H93.449V108.993ZM93.449 131V132.207H94.6563V131H93.449ZM3.89287 131V111.604H1.47823V131H3.89287ZM3.50581 112.49L48.8254 70.5273L47.1848 68.7555L1.86528 110.718L3.50581 112.49ZM48.8447 70.509C52.7153 66.7633 55.9726 63.3815 58.6117 60.3654L56.7945 58.7754C54.2116 61.7273 51.0036 65.0596 47.1655 68.7738L48.8447 70.509ZM58.6055 60.3725C61.3145 57.3248 63.3953 54.3099 64.8225 51.3258L62.6441 50.284C61.336 53.0192 59.3966 55.848 56.8008 58.7683L58.6055 60.3725ZM64.8253 51.3197C66.2725 48.2501 66.9921 44.9442 66.9921 41.4177H64.5775C64.5775 44.6052 63.9295 47.5575 62.6412 50.2901L64.8253 51.3197ZM66.9921 41.4177C66.9921 37.4994 66.0975 34.0555 64.2571 31.1378L62.2148 32.426C63.7729 34.896 64.5775 37.876 64.5775 41.4177H66.9921ZM64.2615 31.1448C62.4409 28.2141 59.948 25.9685 56.8071 24.4201L55.7395 26.5859C58.4837 27.9387 60.6326 29.879 62.2104 32.419L64.2615 31.1448ZM56.8193 24.4262C53.6865 22.8378 50.1592 22.0577 46.2644 22.0577V24.4724C49.8297 24.4724 52.9749 25.1843 55.7273 26.5798L56.8193 24.4262ZM46.2644 22.0577C42.2038 22.0577 38.6004 22.8795 35.4931 24.5663L36.6451 26.6884C39.34 25.2255 42.5336 24.4724 46.2644 24.4724V22.0577ZM35.4931 24.5663C32.3822 26.2551 29.9755 28.6857 28.2906 31.8338L30.4195 32.9732C31.8844 30.2362 33.9537 28.1495 36.6451 26.6884L35.4931 24.5663ZM28.2906 31.8338C26.6037 34.9858 25.7854 38.6921 25.7854 42.9097H28.2001C28.2001 39.0042 28.9567 35.7064 30.4195 32.9732L28.2906 31.8338ZM26.9927 41.7024H1.44221V44.117H26.9927V41.7024ZM2.64953 42.9097C2.64953 34.767 4.49072 27.7612 8.12785 21.8459L6.07092 20.5812C2.16516 26.9334 0.234892 34.3918 0.234892 42.9097H2.64953ZM8.12785 21.8459C11.7739 15.9161 16.8821 11.3218 23.4866 8.05982L22.4173 5.89485C15.428 9.34689 9.96777 14.2434 6.07092 20.5812L8.12785 21.8459ZM23.4866 8.05982C30.0911 4.7978 37.7358 3.14915 46.4509 3.14915V0.734512C37.4278 0.734512 29.4065 2.44287 22.4173 5.89485L23.4866 8.05982ZM46.4509 3.14915C55.4269 3.14915 63.1784 4.74015 69.7397 7.87989L70.7819 5.70179C63.8323 2.37618 55.7106 0.734512 46.4509 0.734512V3.14915ZM69.7477 7.8837C76.3656 10.9909 81.4706 15.287 85.1076 20.7625L87.119 19.4265C83.2131 13.5462 77.7498 8.97326 70.7739 5.69798L69.7477 7.8837ZM85.1076 20.7625C88.7375 26.2272 90.5632 32.4979 90.5632 39.6149H92.9778C92.9778 32.0605 91.0321 25.3176 87.119 19.4265L85.1076 20.7625ZM90.5632 39.6149C90.5632 44.2584 89.6433 48.8496 87.7926 53.3959L90.029 54.3063C91.9912 49.4861 92.9778 44.5865 92.9778 39.6149H90.5632ZM87.7892 53.4044C85.989 57.9249 82.7384 63.0146 77.9778 68.6781L79.8262 70.2318C84.6807 64.4565 88.1027 59.1437 90.0325 54.2977L87.7892 53.4044ZM77.9806 68.6748C73.2205 74.2966 66.4867 81.0748 57.7609 89.0148L59.386 90.8007C68.1498 82.8261 74.9683 75.969 79.8234 70.2351L77.9806 68.6748ZM57.7284 89.0455L39.1406 107.26L40.8306 108.985L59.4185 90.7701L57.7284 89.0455ZM38.7783 108.123V108.993H41.1929V108.123H38.7783ZM39.9856 110.2H93.449V107.786H39.9856V110.2ZM92.2417 108.993V131H94.6563V108.993H92.2417ZM93.449 129.793H2.68555V132.207H93.449V129.793Z" fill="url(#paint0_linear_2753_760)" mask="url(#path-1-outside-1_2753_760)"></path><defs><linearGradient id="paint0_linear_2753_760" x1="-24.4891" y1="58.1262" x2="93.3383" y2="56.5216" gradientUnits="userSpaceOnUse"><stop stop-color="#6557DA"></stop><stop offset="1" stop-color="#00004E"></stop></linearGradient></defs></svg>