<svg xmlns="http://www.w3.org/2000/svg" width="101" height="132" viewBox="0 0 101 132" fill="none"><mask id="path-1-outside-1_2753_761" maskUnits="userSpaceOnUse" x="0" y="0" width="101" height="132" fill="black"><rect fill="white" width="101" height="132"></rect><path d="M1.38827 93.0055H28.5551C28.8038 96.1967 29.8814 98.9735 31.7878 101.336C33.7357 103.657 36.2845 105.439 39.4343 106.682C42.5841 107.925 46.0654 108.547 49.8783 108.547C54.0228 108.547 57.6492 107.843 60.7575 106.433C63.9073 105.024 66.3732 102.994 68.1554 100.341C69.9375 97.6887 70.8285 94.5596 70.8285 90.954C70.8285 87.4312 69.9375 84.3021 68.1554 81.5668C66.3732 78.79 63.7001 76.6142 60.1358 75.0393C56.5716 73.4229 52.1578 72.6148 46.8943 72.6148H33.1555V53.9026L61.3792 24.5599V23.6895H7.79145V1.6825H94.4519V21.0785L60.2602 55.6432V56.6379C66.9742 57.301 72.7557 58.7516 77.6047 60.9896C82.4952 63.2276 86.4946 66.0251 89.6029 69.3821C92.7112 72.6976 95.0321 76.3655 96.5656 80.3856C98.099 84.4057 98.8657 88.5294 98.8657 92.7568C98.8657 100.258 96.7106 106.869 92.4004 112.588C88.1316 118.307 82.3087 122.763 74.9315 125.954C67.5544 129.145 59.1826 130.741 49.8162 130.741C40.4912 130.741 32.223 129.166 25.0116 126.016C17.8417 122.866 12.1638 118.473 7.97795 112.837C3.8335 107.159 1.63694 100.548 1.38827 93.0055Z"></path></mask><path d="M1.38827 93.0055V91.7981H0.140492L0.181605 93.0452L1.38827 93.0055ZM28.5551 93.0055L29.7588 92.9117L29.672 91.7981H28.5551V93.0055ZM31.7878 101.336L30.8483 102.094L30.8556 102.103L30.863 102.112L31.7878 101.336ZM39.4343 106.682L39.8776 105.559L39.8776 105.559L39.4343 106.682ZM60.7575 106.433L60.2645 105.331L60.259 105.334L60.7575 106.433ZM68.1554 100.341L67.1532 99.6678L67.1532 99.6678L68.1554 100.341ZM68.1554 81.5668L67.1393 82.2189L67.1438 82.2258L68.1554 81.5668ZM60.1358 75.0393L59.6372 76.1389L59.6479 76.1436L60.1358 75.0393ZM33.1555 72.6148H31.9482V73.8221H33.1555V72.6148ZM33.1555 53.9026L32.2853 53.0656L31.9482 53.4162V53.9026H33.1555ZM61.3792 24.5599L62.2493 25.3968L62.5865 25.0463V24.5599H61.3792ZM61.3792 23.6895H62.5865V22.4822H61.3792V23.6895ZM7.79145 23.6895H6.58412V24.8969H7.79145V23.6895ZM7.79145 1.6825V0.475181H6.58412V1.6825H7.79145ZM94.4519 1.6825H95.6592V0.475181H94.4519V1.6825ZM94.4519 21.0785L95.3102 21.9276L95.6592 21.5748V21.0785H94.4519ZM60.2602 55.6432L59.4019 54.7942L59.0529 55.147V55.6432H60.2602ZM60.2602 56.6379H59.0529V57.7319L60.1415 57.8394L60.2602 56.6379ZM77.6047 60.9896L77.0988 62.0858L77.1023 62.0874L77.6047 60.9896ZM89.6029 69.3821L88.717 70.2024L88.7221 70.2078L89.6029 69.3821ZM96.5656 80.3856L97.6936 79.9553L97.6936 79.9553L96.5656 80.3856ZM92.4004 112.588L91.4362 111.861L91.4329 111.866L92.4004 112.588ZM74.9315 125.954L75.4109 127.062L75.4109 127.062L74.9315 125.954ZM25.0116 126.016L24.526 127.121L24.5284 127.122L25.0116 126.016ZM7.97795 112.837L7.00274 113.548L7.00868 113.556L7.97795 112.837ZM1.38827 94.2128H28.5551V91.7981H1.38827V94.2128ZM27.3515 93.0992C27.618 96.5196 28.7801 99.5313 30.8483 102.094L32.7273 100.578C30.9826 98.4156 29.9896 95.8738 29.7588 92.9117L27.3515 93.0992ZM30.863 102.112C32.9547 104.604 35.6767 106.497 38.991 107.805L39.8776 105.559C36.8923 104.381 34.5167 102.709 32.7126 100.56L30.863 102.112ZM38.991 107.805C42.2986 109.111 45.9327 109.754 49.8783 109.754V107.34C46.1982 107.34 42.8696 106.74 39.8776 105.559L38.991 107.805ZM49.8783 109.754C54.1586 109.754 57.9612 109.027 61.256 107.533L60.259 105.334C57.3371 106.658 53.887 107.34 49.8783 107.34V109.754ZM61.2505 107.536C64.5897 106.042 67.2391 103.87 69.1575 101.014L67.1532 99.6678C65.5074 102.117 63.2249 104.007 60.2645 105.331L61.2505 107.536ZM69.1575 101.014C71.0901 98.138 72.0358 94.7676 72.0358 90.954H69.6212C69.6212 94.3516 68.7849 97.2393 67.1532 99.6678L69.1575 101.014ZM72.0358 90.954C72.0358 87.2165 71.0869 83.8547 69.1669 80.9077L67.1438 82.2258C68.788 84.7495 69.6212 87.6459 69.6212 90.954H72.0358ZM69.1714 80.9147C67.2397 77.9048 64.3647 75.5879 60.6238 73.9349L59.6479 76.1436C63.0355 77.6404 65.5068 79.6752 67.1393 82.2189L69.1714 80.9147ZM60.6345 73.9397C56.8695 72.2323 52.2736 71.4074 46.8943 71.4074V73.8221C52.042 73.8221 56.2738 74.6135 59.6372 76.1388L60.6345 73.9397ZM46.8943 71.4074H33.1555V73.8221H46.8943V71.4074ZM34.3628 72.6148V53.9026H31.9482V72.6148H34.3628ZM34.0256 54.7395L62.2493 25.3968L60.509 23.7229L32.2853 53.0656L34.0256 54.7395ZM62.5865 24.5599V23.6895H60.1719V24.5599H62.5865ZM61.3792 22.4822H7.79145V24.8969H61.3792V22.4822ZM8.99877 23.6895V1.6825H6.58412V23.6895H8.99877ZM7.79145 2.88982H94.4519V0.475181H7.79145V2.88982ZM93.2446 1.6825V21.0785H95.6592V1.6825H93.2446ZM93.5936 20.2295L59.4019 54.7942L61.1185 56.4923L95.3102 21.9276L93.5936 20.2295ZM59.0529 55.6432V56.6379H61.4675V55.6432H59.0529ZM60.1415 57.8394C66.7552 58.4926 72.3994 59.9169 77.0988 62.0858L78.1106 59.8934C73.112 57.5863 67.1932 56.1095 60.3788 55.4364L60.1415 57.8394ZM77.1023 62.0874C81.8729 64.2706 85.7342 66.9809 88.717 70.2024L90.4888 68.5618C87.2549 65.0693 83.1174 62.1846 78.1071 59.8918L77.1023 62.0874ZM88.7221 70.2078C91.7292 73.4154 93.9631 76.9506 95.4375 80.8159L97.6936 79.9553C96.1011 75.7804 93.6932 71.9799 90.4837 68.5564L88.7221 70.2078ZM95.4375 80.8159C96.9195 84.7011 97.6584 88.6792 97.6584 92.7568H100.073C100.073 88.3797 99.2785 84.1103 97.6936 79.9553L95.4375 80.8159ZM97.6584 92.7568C97.6584 100.009 95.5808 106.362 91.4362 111.861L93.3646 113.315C97.8404 107.375 100.073 100.507 100.073 92.7568H97.6584ZM91.4329 111.866C87.3056 117.396 81.6606 121.728 74.4522 124.846L75.4109 127.062C82.9567 123.798 88.9576 119.219 93.3679 113.31L91.4329 111.866ZM74.4522 124.846C67.2493 127.962 59.0447 129.533 49.8162 129.533V131.948C59.3205 131.948 67.8595 130.329 75.4109 127.062L74.4522 124.846ZM49.8162 129.533C40.6272 129.533 32.5283 127.982 25.4949 124.91L24.5284 127.122C31.9177 130.35 40.3551 131.948 49.8162 131.948V129.533ZM25.4972 124.911C18.4966 121.835 12.9941 117.566 8.94721 112.117L7.00868 113.556C11.3335 119.38 17.1868 123.897 24.526 127.121L25.4972 124.911ZM8.95312 112.125C4.96218 106.657 2.83624 100.285 2.59494 92.9657L0.181605 93.0452C0.437638 100.812 2.70481 107.66 7.00277 113.548L8.95312 112.125Z" fill="url(#paint0_linear_2753_761)" mask="url(#path-1-outside-1_2753_761)"></path><defs><linearGradient id="paint0_linear_2753_761" x1="-24.0833" y1="56.1262" x2="97.9885" y2="54.4039" gradientUnits="userSpaceOnUse"><stop stop-color="#6557DA"></stop><stop offset="1" stop-color="#00004E"></stop></linearGradient></defs></svg>