<svg xmlns="http://www.w3.org/2000/svg" width="106" height="131" viewBox="0 0 106 131" fill="none"><mask id="path-1-outside-1_2753_762" maskUnits="userSpaceOnUse" x="0" y="0" width="106" height="131" fill="black"><rect fill="white" width="106" height="131"></rect><path d="M1.56989 106.62V85.4211L49.1275 1.6825H75.051L28.6124 84.0534V85.0481H104.207V106.62H1.56989ZM62.6798 129V100.341L63.4258 90.7675V49.4266H87.9817V129H62.6798Z"></path></mask><path d="M1.56989 106.62H0.362573V107.827H1.56989V106.62ZM1.56989 85.4211L0.520067 84.8249L0.362573 85.1022V85.4211H1.56989ZM49.1275 1.6825V0.475181H48.4247L48.0776 1.08628L49.1275 1.6825ZM75.051 1.6825L76.1027 2.27542L77.1176 0.475181H75.051V1.6825ZM28.6124 84.0534L27.5607 83.4605L27.4051 83.7366V84.0534H28.6124ZM28.6124 85.0481H27.4051V86.2554H28.6124V85.0481ZM104.207 85.0481H105.415V83.8408H104.207V85.0481ZM104.207 106.62V107.827H105.415V106.62H104.207ZM62.6798 129H61.4725V130.207H62.6798V129ZM62.6798 100.341L61.4761 100.247L61.4725 100.294V100.341H62.6798ZM63.4258 90.7675L64.6295 90.8612L64.6331 90.8144V90.7675H63.4258ZM63.4258 49.4266V48.2192H62.2185V49.4266H63.4258ZM87.9817 49.4266H89.189V48.2192H87.9817V49.4266ZM87.9817 129V130.207H89.189V129H87.9817ZM2.77722 106.62V85.4211H0.362573V106.62H2.77722ZM2.61972 86.0173L50.1773 2.27873L48.0776 1.08628L0.520067 84.8249L2.61972 86.0173ZM49.1275 2.88982H75.051V0.475181H49.1275V2.88982ZM73.9993 1.08958L27.5607 83.4605L29.6641 84.6464L76.1027 2.27542L73.9993 1.08958ZM27.4051 84.0534V85.0481H29.8198V84.0534H27.4051ZM28.6124 86.2554H104.207V83.8408H28.6124V86.2554ZM103 85.0481V106.62H105.415V85.0481H103ZM104.207 105.413H1.56989V107.827H104.207V105.413ZM63.8871 129V100.341H61.4725V129H63.8871ZM63.8835 100.435L64.6295 90.8612L62.2221 90.6737L61.4761 100.247L63.8835 100.435ZM64.6331 90.7675V49.4266H62.2185V90.7675H64.6331ZM63.4258 50.6339H87.9817V48.2192H63.4258V50.6339ZM86.7744 49.4266V129H89.189V49.4266H86.7744ZM87.9817 127.793H62.6798V130.207H87.9817V127.793Z" fill="url(#paint0_linear_2753_762)" mask="url(#path-1-outside-1_2753_762)"></path><defs><linearGradient id="paint0_linear_2753_762" x1="-24.6775" y1="56.1262" x2="101.638" y2="54.282" gradientUnits="userSpaceOnUse"><stop stop-color="#6557DA"></stop><stop offset="1" stop-color="#00004E"></stop></linearGradient></defs></svg>