<svg xmlns="http://www.w3.org/2000/svg" width="124" height="108" viewBox="0 0 124 108" fill="none"><path fill-rule="evenodd" clip-rule="evenodd" d="M116.499 54.9963C116.857 54.9963 117.21 55.0214 117.555 55.0701C118.284 57.7746 120.673 59.7983 123.562 59.9822C123.84 60.7657 123.991 61.6092 123.991 62.4881V99.6106C123.991 103.748 120.637 107.102 116.499 107.102H8.15786C4.02023 107.102 0.666016 103.748 0.666016 99.6106V62.4881C0.666016 61.6093 0.81734 60.7658 1.09535 59.9823C3.98443 59.7987 6.37344 57.7748 7.10297 55.07C7.44762 55.0214 7.7998 54.9963 8.15786 54.9963H116.499ZM10.6656 59.9959C11.586 59.9959 12.3321 59.2497 12.3321 58.3293C12.3321 57.4089 11.586 56.6628 10.6656 56.6628C9.74516 56.6628 8.99902 57.4089 8.99902 58.3293C8.99902 59.2497 9.74516 59.9959 10.6656 59.9959ZM115.658 58.3293C115.658 59.2497 114.912 59.9959 113.992 59.9959C113.071 59.9959 112.325 59.2497 112.325 58.3293C112.325 57.4089 113.071 56.6628 113.992 56.6628C114.912 56.6628 115.658 57.4089 115.658 58.3293Z" fill="#00C0D1"></path><path fill-rule="evenodd" clip-rule="evenodd" d="M8.15786 0C4.02023 0 0.666016 3.35422 0.666016 7.49185V44.6143C0.666016 45.327 0.765526 46.0164 0.95141 46.6694C3.93117 46.7949 6.4051 48.8763 7.12238 51.663H117.535C118.252 48.8765 120.726 46.7951 123.705 46.6694C123.891 46.0164 123.991 45.3269 123.991 44.6143V7.49184C123.991 3.35421 120.637 0 116.499 0H8.15786ZM113.992 49.9966C114.912 49.9966 115.658 49.2504 115.658 48.33C115.658 47.4096 114.912 46.6635 113.992 46.6635C113.071 46.6635 112.325 47.4096 112.325 48.33C112.325 49.2504 113.071 49.9966 113.992 49.9966ZM12.3321 48.33C12.3321 49.2504 11.586 49.9966 10.6656 49.9966C9.74516 49.9966 8.99902 49.2504 8.99902 48.33C8.99902 47.4096 9.74516 46.6635 10.6656 46.6635C11.586 46.6635 12.3321 47.4096 12.3321 48.33Z" fill="#00C0D1"></path></svg>