<svg xmlns="http://www.w3.org/2000/svg" width="17" height="17" viewBox="0 0 17 17" fill="none"><path d="M7.98357 16.5725C7.88111 16.5725 7.8128 16.5042 7.8128 16.4017V9.43435C7.8128 9.33188 7.74449 9.26358 7.64203 9.26358H0.674675C0.572214 9.26358 0.503906 9.19527 0.503906 9.09281V7.89743C0.503906 7.79497 0.572214 7.72666 0.674675 7.72666H7.64203C7.74449 7.72666 7.8128 7.65835 7.8128 7.55589V0.639763C7.8128 0.537302 7.88111 0.468994 7.98357 0.468994L9.16187 0.468994C9.26433 0.468994 9.33264 0.537302 9.33264 0.639763V7.55589C9.33264 7.65835 9.40095 7.72666 9.50341 7.72666H16.4366C16.5391 7.72666 16.6074 7.79497 16.6074 7.89743V9.09281C16.6074 9.19527 16.5391 9.26358 16.4366 9.26358H9.50341C9.40095 9.26358 9.33264 9.33188 9.33264 9.43435V16.4017C9.33264 16.5042 9.26433 16.5725 9.16187 16.5725H7.98357Z" fill="#7F70FF"></path></svg>