<svg xmlns="http://www.w3.org/2000/svg" width="564" height="148" viewBox="0 0 564 148" fill="none"><path d="M1.53144 19.5089V4.60845H4.92543L9.89225 18.9708H8.77472L13.7002 4.60845H17.1355V19.5089H14.9626V5.49833H15.2937L10.4924 19.5089H8.05039L3.24913 5.62251H3.58025V19.5089H1.53144ZM31.1739 19.5089V4.60845H33.3676V19.5089H31.1739ZM47.3969 19.5089V4.60845H49.9424L57.8479 17.3566L57.3513 17.4601V4.60845H59.4622V19.5089H56.9167L49.0111 6.76073L49.5078 6.65726V19.5089H47.3969ZM73.5027 19.5089V4.60845H75.6963V19.5089H73.5027ZM96.286 19.7159C95.2512 19.7159 94.2924 19.5296 93.4094 19.1571C92.5264 18.7708 91.7607 18.2396 91.1122 17.5636C90.4776 16.8737 89.9809 16.0597 89.6222 15.1216C89.2635 14.1834 89.0841 13.1555 89.0841 12.038C89.0841 10.9204 89.2566 9.89949 89.6015 8.97511C89.9602 8.03693 90.4569 7.22982 91.0915 6.55378C91.74 5.86395 92.5057 5.33277 93.3887 4.96026C94.2717 4.58775 95.2306 4.4015 96.2653 4.4015C97.4242 4.4015 98.4659 4.63604 99.3903 5.10513C100.315 5.56042 101.067 6.20887 101.646 7.05047C102.239 7.89207 102.605 8.87164 102.743 9.98917H100.591C100.411 8.81645 99.9352 7.90586 99.1626 7.25742C98.4038 6.59517 97.4449 6.26405 96.286 6.26405C95.3064 6.26405 94.4372 6.5055 93.6784 6.98838C92.9334 7.45747 92.3539 8.12661 91.94 8.99581C91.5261 9.8512 91.3192 10.8653 91.3192 12.038C91.3192 13.1969 91.5261 14.2179 91.94 15.1009C92.3677 15.9701 92.9541 16.6461 93.6991 17.129C94.4441 17.6119 95.3064 17.8533 96.286 17.8533C97.4449 17.8533 98.4107 17.5291 99.1833 16.8806C99.9697 16.2184 100.446 15.3009 100.611 14.1282H102.784C102.632 15.2595 102.26 16.246 101.667 17.0876C101.073 17.9154 100.315 18.5638 99.3903 19.0329C98.4797 19.4882 97.4449 19.7159 96.286 19.7159ZM121.807 19.7159C119.903 19.7159 118.441 19.1571 117.42 18.0396C116.399 16.922 115.889 15.3285 115.889 13.259V4.60845H118.082V13.5073C118.082 14.9284 118.407 16.0114 119.055 16.7565C119.703 17.4877 120.621 17.8533 121.807 17.8533C123.022 17.8533 123.953 17.4877 124.601 16.7565C125.25 16.0252 125.574 14.9422 125.574 13.5073V4.60845H127.768V13.3004C127.768 15.3423 127.25 16.922 126.215 18.0396C125.195 19.1571 123.725 19.7159 121.807 19.7159ZM141.431 19.5089V4.60845H147.309C148.385 4.60845 149.302 4.7878 150.061 5.14652C150.82 5.49144 151.406 5.98122 151.82 6.61587C152.234 7.23672 152.441 7.97485 152.441 8.83024C152.441 9.68564 152.234 10.4307 151.82 11.0653C151.406 11.7 150.82 12.1966 150.061 12.5554C149.302 12.9141 148.385 13.0934 147.309 13.0934H143.087V11.3137H147.247C148.24 11.3137 148.992 11.0998 149.502 10.6721C150.027 10.2306 150.289 9.62356 150.289 8.85094C150.289 8.07832 150.034 7.47816 149.523 7.05047C149.013 6.62277 148.254 6.40892 147.247 6.40892H143.625V19.5089H141.431ZM150.041 19.5089L142.777 11.9966H145.446L153.186 19.5089H150.041ZM171.201 19.6952C169.407 19.6952 167.973 19.2675 166.896 18.4121C165.82 17.5567 165.192 16.3357 165.013 14.749H167.145C167.269 15.7838 167.683 16.5702 168.386 17.1083C169.09 17.6464 170.042 17.9154 171.242 17.9154C172.249 17.9154 173.008 17.7291 173.519 17.3566C174.043 16.9841 174.305 16.4529 174.305 15.7631C174.305 15.1422 174.133 14.6525 173.788 14.2937C173.443 13.9212 172.898 13.6177 172.153 13.3832L169.566 12.5554C168.242 12.1277 167.269 11.5896 166.648 10.9411C166.027 10.2927 165.717 9.47179 165.717 8.47843C165.717 7.63683 165.924 6.9125 166.338 6.30544C166.765 5.69839 167.359 5.2293 168.117 4.89818C168.89 4.55326 169.787 4.3808 170.808 4.3808C172.381 4.3808 173.636 4.78091 174.574 5.58112C175.526 6.36753 176.071 7.46437 176.209 8.87164H174.078C173.912 7.93346 173.553 7.25052 173.001 6.82282C172.45 6.38133 171.691 6.16058 170.725 6.16058C169.814 6.16058 169.104 6.33994 168.593 6.69865C168.083 7.05736 167.828 7.56095 167.828 8.20939C167.828 8.73367 167.993 9.17516 168.324 9.53388C168.669 9.8788 169.235 10.1754 170.021 10.4238L172.732 11.293C173.988 11.6931 174.912 12.238 175.506 12.9279C176.113 13.6177 176.416 14.4869 176.416 15.5355C176.416 16.8599 175.961 17.8878 175.05 18.619C174.14 19.3365 172.857 19.6952 171.201 19.6952ZM196.305 19.7159C195.243 19.7159 194.27 19.5296 193.387 19.1571C192.504 18.7708 191.738 18.2327 191.09 17.5429C190.441 16.853 189.931 16.039 189.558 15.1009C189.2 14.1627 189.02 13.1279 189.02 11.9966C189.02 10.5065 189.331 9.18896 189.952 8.04383C190.573 6.8987 191.428 6.00881 192.518 5.37416C193.622 4.72572 194.877 4.4015 196.284 4.4015C197.719 4.4015 198.982 4.72572 200.072 5.37416C201.162 6.00881 202.017 6.8987 202.638 8.04383C203.272 9.18896 203.59 10.5134 203.59 12.0173C203.59 13.1348 203.403 14.1696 203.031 15.1216C202.672 16.0597 202.169 16.8737 201.52 17.5636C200.872 18.2396 200.099 18.7708 199.202 19.1571C198.319 19.5296 197.354 19.7159 196.305 19.7159ZM196.284 17.8533C197.278 17.8533 198.154 17.605 198.913 17.1083C199.671 16.5978 200.265 15.9011 200.692 15.0181C201.134 14.1351 201.355 13.121 201.355 11.9759C201.355 10.8446 201.141 9.8512 200.713 8.99581C200.285 8.12661 199.692 7.45747 198.933 6.98838C198.175 6.5055 197.292 6.26405 196.284 6.26405C195.277 6.26405 194.394 6.5055 193.635 6.98838C192.89 7.45747 192.304 8.11971 191.876 8.97511C191.462 9.83051 191.255 10.8308 191.255 11.9759C191.255 13.1348 191.469 14.1558 191.897 15.0388C192.325 15.9218 192.911 16.6116 193.656 17.1083C194.415 17.605 195.291 17.8533 196.284 17.8533Z" fill="white"></path><path d="M238.964 19.7159C237.405 19.7159 236.06 19.4054 234.928 18.7846C233.797 18.1499 232.921 17.2669 232.3 16.1356C231.693 15.0043 231.39 13.6729 231.39 12.1415C231.39 10.6238 231.693 9.28554 232.3 8.12661C232.921 6.95389 233.776 6.04331 234.866 5.39486C235.956 4.73262 237.212 4.4015 238.633 4.4015C239.764 4.4015 240.785 4.61534 241.696 5.04304C242.62 5.45694 243.372 6.03641 243.951 6.78143C244.545 7.52645 244.897 8.38875 245.007 9.36832H242.813C242.675 8.41634 242.234 7.66442 241.489 7.11255C240.744 6.54689 239.812 6.26405 238.695 6.26405C237.674 6.26405 236.784 6.5055 236.025 6.98838C235.266 7.47127 234.673 8.14731 234.245 9.0165C233.832 9.88569 233.625 10.9136 233.625 12.1001C233.625 13.3004 233.838 14.3351 234.266 15.2043C234.694 16.0597 235.315 16.722 236.129 17.1911C236.957 17.6464 237.95 17.874 239.109 17.874C239.937 17.874 240.668 17.7567 241.302 17.5222C241.937 17.2876 242.489 16.9427 242.958 16.4874L245.09 17.2945C244.317 18.0947 243.427 18.7018 242.42 19.1157C241.413 19.5158 240.261 19.7159 238.964 19.7159ZM242.896 17.2945V12.7209L243.538 13.3625H239.088V11.5413H245.09V17.2945H242.896ZM258.722 19.5089V4.60845H264.6C265.676 4.60845 266.593 4.7878 267.352 5.14652C268.111 5.49144 268.697 5.98122 269.111 6.61587C269.525 7.23672 269.732 7.97485 269.732 8.83024C269.732 9.68564 269.525 10.4307 269.111 11.0653C268.697 11.7 268.111 12.1966 267.352 12.5554C266.593 12.9141 265.676 13.0934 264.6 13.0934H260.378V11.3137H264.538C265.531 11.3137 266.283 11.0998 266.793 10.6721C267.318 10.2306 267.58 9.62356 267.58 8.85094C267.58 8.07832 267.325 7.47816 266.814 7.05047C266.304 6.62277 265.545 6.40892 264.538 6.40892H260.916V19.5089H258.722ZM267.332 19.5089L260.068 11.9966H262.737L270.477 19.5089H267.332ZM282.504 19.5089L288.113 4.60845H290.017L284.657 19.5089H282.504ZM294.031 19.5089L288.671 4.60845H290.679L296.308 19.5089H294.031ZM285.34 13.5694H293.328V15.3906H285.34V13.5694ZM311.133 19.5089V6.40892H306.104V4.60845H318.355V6.40892H313.327V19.5089H311.133ZM337.074 19.7159C335.17 19.7159 333.708 19.1571 332.687 18.0396C331.666 16.922 331.156 15.3285 331.156 13.259V4.60845H333.349V13.5073C333.349 14.9284 333.673 16.0114 334.322 16.7565C334.97 17.4877 335.888 17.8533 337.074 17.8533C338.288 17.8533 339.22 17.4877 339.868 16.7565C340.517 16.0252 340.841 14.9422 340.841 13.5073V4.60845H343.035V13.3004C343.035 15.3423 342.517 16.922 341.482 18.0396C340.461 19.1571 338.992 19.7159 337.074 19.7159ZM356.921 19.5089V4.60845H359.115V19.5089H356.921ZM377.304 19.5089V6.40892H372.275V4.60845H384.526V6.40892H379.498V19.5089H377.304ZM403.225 19.7159C402.163 19.7159 401.19 19.5296 400.307 19.1571C399.424 18.7708 398.659 18.2327 398.01 17.5429C397.362 16.853 396.851 16.039 396.479 15.1009C396.12 14.1627 395.941 13.1279 395.941 11.9966C395.941 10.5065 396.251 9.18896 396.872 8.04383C397.493 6.8987 398.348 6.00881 399.438 5.37416C400.542 4.72572 401.797 4.4015 403.205 4.4015C404.639 4.4015 405.902 4.72572 406.992 5.37416C408.082 6.00881 408.937 6.8987 409.558 8.04383C410.193 9.18896 410.51 10.5134 410.51 12.0173C410.51 13.1348 410.324 14.1696 409.951 15.1216C409.592 16.0597 409.089 16.8737 408.44 17.5636C407.792 18.2396 407.019 18.7708 406.123 19.1571C405.24 19.5296 404.274 19.7159 403.225 19.7159ZM403.205 17.8533C404.198 17.8533 405.074 17.605 405.833 17.1083C406.592 16.5978 407.185 15.9011 407.613 15.0181C408.054 14.1351 408.275 13.121 408.275 11.9759C408.275 10.8446 408.061 9.8512 407.633 8.99581C407.206 8.12661 406.612 7.45747 405.853 6.98838C405.095 6.5055 404.212 6.26405 403.205 6.26405C402.197 6.26405 401.314 6.5055 400.556 6.98838C399.811 7.45747 399.224 8.11971 398.796 8.97511C398.383 9.83051 398.176 10.8308 398.176 11.9759C398.176 13.1348 398.389 14.1558 398.817 15.0388C399.245 15.9218 399.831 16.6116 400.576 17.1083C401.335 17.605 402.211 17.8533 403.205 17.8533Z" fill="#2D9E2D"></path><path d="M35.1516 72.9906H14.0607C5.62426 72.9906 0 67.3663 0 58.9299V54.4104C0 45.9741 5.62426 40.3498 14.0607 40.3498H34.6495V47.8823H14.0607C10.4451 47.8823 8.03466 50.4936 8.03466 54.4104V58.9299C8.03466 62.8468 10.4451 65.4581 14.0607 65.4581H35.1516V72.9906Z" fill="white"></path><path d="M39.1572 72.9906V40.3498H63.914C69.6387 40.3498 74.3088 44.7186 74.3088 51.297C74.3088 57.1724 70.643 61.2399 65.8724 62.1438L73.5054 72.9906H63.7131L56.1806 62.2945H47.1919V72.9906H39.1572ZM47.1919 54.762H61.4032C64.7175 54.762 66.2742 53.4061 66.2742 51.297C66.2742 49.2381 64.7175 47.8823 61.4032 47.8823H47.1919V54.762Z" fill="white"></path><path d="M78.3399 72.9906V40.3498H86.3746V72.9906H78.3399Z" fill="white"></path><path d="M124.728 65.4581V72.9906H91.3845V40.3498H124.728V47.8823H99.4191V52.9039H122.72V60.4364H99.4191V65.4581H124.728Z" fill="white"></path><path d="M141.797 72.9906V40.3498H166.554C172.279 40.3498 176.949 44.7186 176.949 51.297C176.949 57.9256 172.279 62.2945 166.554 62.2945H149.832V72.9906H141.797ZM149.832 54.762H164.043C167.357 54.762 168.914 53.4061 168.914 51.297C168.914 49.2381 167.357 47.8823 164.043 47.8823H149.832V54.762Z" fill="white"></path><path d="M214.324 65.4581V72.9906H180.98V40.3498H214.324V47.8823H189.015V52.9039H212.315V60.4364H189.015V65.4581H214.324Z" fill="white"></path><path d="M218.348 72.9906V40.3498H243.105C248.83 40.3498 253.5 44.7186 253.5 51.297C253.5 57.1724 249.834 61.2399 245.063 62.1438L252.696 72.9906H242.904L235.372 62.2945H226.383V72.9906H218.348ZM226.383 54.762H240.594C243.908 54.762 245.465 53.4061 245.465 51.297C245.465 49.2381 243.908 47.8823 240.594 47.8823H226.383V54.762Z" fill="white"></path><path d="M257.38 72.9906V65.4581H278.973C281.836 65.4581 282.79 64.5542 282.79 62.9473C282.79 61.2901 281.836 60.4364 278.973 60.4364H267.675C260.142 60.4364 256.527 55.8667 256.527 50.0918C256.527 44.2667 260.142 40.3498 267.875 40.3498H288.966V47.8823H267.875C265.013 47.8823 264.059 48.736 264.059 50.3931C264.059 52 265.013 52.9039 267.875 52.9039H279.174C286.707 52.9039 290.322 57.4737 290.322 63.2486C290.322 69.0737 286.707 72.9906 278.973 72.9906H257.38Z" fill="white"></path><path d="M293.355 58.9299V54.4104C293.355 45.9741 298.98 40.3498 307.416 40.3498H317.961C326.398 40.3498 332.022 45.9741 332.022 54.4104V58.9299C332.022 67.3663 326.398 72.9906 317.961 72.9906H307.416C298.98 72.9906 293.355 67.3663 293.355 58.9299ZM301.39 58.9299C301.39 62.8468 303.8 65.4581 307.416 65.4581H317.961C321.577 65.4581 323.987 62.8468 323.987 58.9299V54.4104C323.987 50.4936 321.577 47.8823 317.961 47.8823H307.416C303.8 47.8823 301.39 50.4936 301.39 54.4104V58.9299Z" fill="white"></path><path d="M336.043 72.9906V40.3498H350.807L363.16 68.7222V40.3498H371.195V72.9906H356.783L344.078 43.8147V72.9906H336.043Z" fill="white"></path><path d="M372.692 72.9906L387.154 40.3498H397.8L412.262 72.9906H403.525L392.477 48.0329L381.429 72.9906H372.692Z" fill="white"></path><path d="M444.403 72.9906H426.828C418.391 72.9906 412.767 67.3663 412.767 58.9299V54.4104C412.767 45.9741 418.391 40.3498 426.828 40.3498H447.416V47.8823H426.828C423.212 47.8823 420.802 50.4936 420.802 54.4104V58.9299C420.802 62.8468 423.212 65.4581 426.828 65.4581H441.39V60.4364H428.836V52.9039H444.403C447.416 52.9039 449.425 54.9126 449.425 57.9256V67.9689C449.425 70.9819 447.416 72.9906 444.403 72.9906Z" fill="white"></path><path d="M486.788 65.4581V72.9906H453.444V40.3498H486.788V47.8823H461.479V52.9039H484.78V60.4364H461.479V65.4581H486.788Z" fill="white"></path><path d="M490.813 72.9906V40.3498H505.576L517.93 68.7222V40.3498H525.964V72.9906H511.552L498.847 43.8147V72.9906H490.813Z" fill="white"></path><path d="M530.825 72.9906V65.4581H552.419C555.281 65.4581 556.235 64.5542 556.235 62.9473C556.235 61.2901 555.281 60.4364 552.419 60.4364H541.12C533.587 60.4364 529.972 55.8667 529.972 50.0918C529.972 44.2667 533.587 40.3498 541.321 40.3498H562.412V47.8823H541.321C538.458 47.8823 537.504 48.736 537.504 50.3931C537.504 52 538.458 52.9039 541.321 52.9039H552.619C560.152 52.9039 563.768 57.4737 563.768 63.2486C563.768 69.0737 560.152 72.9906 552.419 72.9906H530.825Z" fill="white"></path><path d="M0 136.647V84.844H39.2906C48.3761 84.844 55.7879 91.7776 55.7879 102.218C55.7879 112.738 48.3761 119.672 39.2906 119.672H12.7515V136.647H0ZM12.7515 107.717H35.3058C40.5658 107.717 43.0364 105.565 43.0364 102.218C43.0364 98.9504 40.5658 96.7985 35.3058 96.7985H12.7515V107.717Z" fill="#00E449"></path><path d="M124.293 136.647V84.844H163.584C172.669 84.844 180.081 91.7776 180.081 102.218C180.081 111.542 174.263 117.998 166.692 119.432L178.806 136.647H163.265L151.31 119.672H137.045V136.647H124.293ZM137.045 107.717H159.599C164.859 107.717 167.329 105.565 167.329 102.218C167.329 98.9504 164.859 96.7985 159.599 96.7985H137.045V107.717Z" fill="#00E449"></path><path d="M180.9 136.647L203.853 84.844H220.748L243.701 136.647H229.834L212.3 97.0376L194.767 136.647H180.9Z" fill="#00E449"></path><path d="M297.083 84.844H309.835V114.332C309.835 127.721 300.908 136.647 287.519 136.647H265.204V124.692H287.519C293.258 124.692 297.083 120.548 297.083 114.332V84.844Z" fill="#00E449"></path><path d="M430.99 136.647H403.096C389.707 136.647 380.78 127.721 380.78 114.332V107.159C380.78 93.7701 389.707 84.844 403.096 84.844H435.771V96.7985H403.096C397.357 96.7985 393.532 100.943 393.532 107.159V114.332C393.532 120.548 397.357 124.692 403.096 124.692H426.208V116.723H406.284V104.768H430.99C435.771 104.768 438.959 107.956 438.959 112.738V128.677C438.959 133.459 435.771 136.647 430.99 136.647Z" fill="#00E449"></path><path d="M443.744 114.332V107.159C443.744 93.7701 452.67 84.844 466.059 84.844H482.796C496.185 84.844 505.111 93.7701 505.111 107.159V114.332C505.111 127.721 496.185 136.647 482.796 136.647H466.059C452.67 136.647 443.744 127.721 443.744 114.332ZM456.496 114.332C456.496 120.548 460.321 124.692 466.059 124.692H482.796C488.534 124.692 492.359 120.548 492.359 114.332V107.159C492.359 100.943 488.534 96.7985 482.796 96.7985H466.059C460.321 96.7985 456.496 100.943 456.496 107.159V114.332Z" fill="#00E449"></path><path d="M511.254 136.647V124.692H545.524C550.066 124.692 551.58 123.258 551.58 120.708C551.58 118.078 550.066 116.723 545.524 116.723H527.592C515.637 116.723 509.899 109.47 509.899 100.305C509.899 91.0604 515.637 84.844 527.91 84.844H561.383V96.7985H527.91C523.368 96.7985 521.853 98.1534 521.853 100.783C521.853 103.334 523.368 104.768 527.91 104.768H545.842C557.797 104.768 563.535 112.021 563.535 121.186C563.535 130.431 557.797 136.647 545.524 136.647H511.254Z" fill="#00E449"></path><path d="M53.502 136.712L76.4547 84.9093H93.3505L116.303 136.712H95.8119H84.9026L79.3708 147.491L75.3206 136.712L79.3708 125.803H98.3152L84.9026 97.1029L67.3692 136.712H53.502Z" fill="#00E449"></path><path fill-rule="evenodd" clip-rule="evenodd" d="M314.626 107.159V114.332C314.626 127.721 323.552 136.647 336.941 136.647H353.678C367.067 136.647 375.993 127.721 375.993 114.332V107.159C375.993 93.7701 367.067 84.844 353.678 84.844H336.941C323.552 84.844 314.626 93.7701 314.626 107.159ZM337.125 97.9744L359.225 108.426V113.391L337.125 123.582L333.095 120.185L333.095 101.371L337.125 97.9744Z" fill="#00E449"></path></svg>