<svg xmlns="http://www.w3.org/2000/svg" width="15" height="16" viewBox="0 0 15 16" fill="none"><path d="M5.40996 8.21748L5.40802 8.21597C5.35449 8.17433 5.30828 8.08593 5.30828 8.00558C5.30828 7.92109 5.33853 7.8514 5.41205 7.79203L13.6076 1.35266L13.616 1.34607L13.6241 1.33913C13.6622 1.3065 13.7195 1.28384 13.7867 1.28384C13.8192 1.28384 13.8577 1.29052 13.8949 1.30912C14.0099 1.36664 14.0674 1.47336 14.0674 1.56457L14.0674 14.4466C14.0674 14.5343 14.0143 14.6363 13.908 14.6951C13.8045 14.7342 13.6896 14.718 13.6022 14.6542L5.40996 8.21748ZM13.5059 3.16506L13.5059 2.13504L12.6966 2.7722L6.54839 7.61272L6.0494 8.00558L6.54839 8.39843L12.6966 13.239L13.5059 13.8761L13.5059 12.8461L13.5059 3.16506ZM1.40463 14.1343L1.40463 1.74023C1.40463 1.52842 1.57114 1.36191 1.78295 1.36191C1.99477 1.36191 2.16127 1.52842 2.16127 1.74023L2.16127 14.1343C2.16127 14.3461 1.99477 14.5126 1.78295 14.5126C1.57114 14.5126 1.40463 14.3461 1.40463 14.1343Z" fill="white" stroke="white"></path></svg>