<svg xmlns="http://www.w3.org/2000/svg" width="15" height="16" viewBox="0 0 15 16" fill="none"><path d="M9.56269 7.78252L9.56464 7.78403C9.61817 7.82567 9.66438 7.91407 9.66438 7.99442C9.66438 8.07891 9.63413 8.1486 9.56061 8.20797L1.36505 14.6473L1.35666 14.6539L1.34856 14.6609C1.3105 14.6935 1.2532 14.7162 1.186 14.7162C1.15341 14.7162 1.11501 14.7095 1.0778 14.6909C0.962763 14.6334 0.905273 14.5266 0.905273 14.4354V1.55341C0.905273 1.46574 0.958386 1.36375 1.06466 1.30489C1.16818 1.26582 1.28305 1.28202 1.37048 1.34578L9.56269 7.78252ZM1.46673 12.8349V13.865L2.27603 13.2278L8.42426 8.38728L8.92325 7.99442L8.42426 7.60157L2.27603 2.76105L1.46673 2.12389V3.1539V12.8349ZM13.568 1.8657V14.2598C13.568 14.4716 13.4015 14.6381 13.1897 14.6381C12.9779 14.6381 12.8114 14.4716 12.8114 14.2598V1.8657C12.8114 1.65389 12.9779 1.48738 13.1897 1.48738C13.4015 1.48738 13.568 1.65389 13.568 1.8657Z" fill="white" stroke="white"></path></svg>