<svg xmlns="http://www.w3.org/2000/svg" width="14" height="13" viewBox="0 0 14 13" fill="none"><path d="M12.4629 12.702C12.3905 12.7744 12.2939 12.7744 12.2214 12.702L7.29474 7.77529C7.22229 7.70284 7.12569 7.70284 7.05324 7.77529L2.12657 12.702C2.05412 12.7744 1.95752 12.7744 1.88507 12.702L1.0398 11.8567C0.967354 11.7842 0.967354 11.6876 1.03981 11.6152L5.96647 6.68853C6.03892 6.61608 6.03892 6.51948 5.96647 6.44703L1.07603 1.55659C1.00358 1.48414 1.00358 1.38753 1.07603 1.31508L1.90922 0.481896C1.98167 0.409446 2.07827 0.409445 2.15072 0.481896L7.04116 5.37234C7.11361 5.44479 7.21021 5.44479 7.28266 5.37234L12.1852 0.469822C12.2576 0.397371 12.3542 0.397371 12.4267 0.469822L13.2719 1.31508C13.3444 1.38753 13.3444 1.48414 13.2719 1.55659L8.36943 6.4591C8.29698 6.53155 8.29698 6.62815 8.36943 6.70061L13.2961 11.6273C13.3685 11.6997 13.3685 11.7963 13.2961 11.8688L12.4629 12.702Z" fill="white"></path></svg>