<svg xmlns="http://www.w3.org/2000/svg" width="12" height="7" viewBox="0 0 12 7" fill="none"><path d="M7.73818 0.0844061C7.62495 0.197222 7.62455 0.380485 7.73737 0.493774L10.3907 3.15793L0.289474 3.15793C0.129605 3.15793 -1.57677e-07 3.28754 -1.50689e-07 3.44741C-1.43701e-07 3.60727 0.129605 3.73688 0.289474 3.73688L10.3907 3.73688L7.73737 6.40104C7.62458 6.5143 7.62495 6.69762 7.73818 6.81041C7.85147 6.92322 8.03476 6.92285 8.14758 6.80956L11.2922 3.65214C11.4041 3.54417 11.4041 3.35064 11.2922 3.24267L8.14758 0.0852485C8.03474 -0.0280409 7.85145 -0.0284097 7.73818 0.0844061Z" fill="white"></path></svg>