<svg xmlns="http://www.w3.org/2000/svg" width="16" height="17" viewBox="0 0 16 17" fill="none"><path d="M10.8803 0.000763979C11.2025 0.0204107 11.4511 0.289631 11.4425 0.609627V1.4679C14.0017 1.70998 15.3109 3.08909 15.3109 5.56856V12.4274C15.3109 15.1857 13.6984 16.5868 10.5253 16.5868H4.78557C1.61245 16.5868 0 15.1857 0 12.4274V5.56856C0 3.91803 0.576931 2.73698 1.76038 2.04742L1.84339 2.0013C2.01495 1.92322 2.21616 1.93038 2.38341 2.02505C2.57853 2.1355 2.69375 2.346 2.68084 2.56845C2.66793 2.79089 2.52912 2.9869 2.32252 3.07442C1.53848 3.52924 1.16866 4.32149 1.16866 5.56856V5.78863H11.9602C12.2829 5.78863 12.5446 6.04809 12.5446 6.36815C12.5446 6.68821 12.2829 6.94767 11.9602 6.94767H1.16866V12.4274C1.16866 14.5328 2.21897 15.4057 4.78557 15.4204H10.5253C13.0549 15.4204 14.1348 14.5254 14.1348 12.4201V5.56122C14.1348 3.7273 13.3138 2.83968 11.4425 2.62694V3.18446C11.3993 3.48162 11.137 3.69855 10.8345 3.68723C10.532 3.67591 10.2869 3.43998 10.2664 3.14044V0.558277L10.2772 0.46655C10.3013 0.346348 10.3634 0.235944 10.4557 0.152112C10.5711 0.0473212 10.7241 -0.00719707 10.8803 0.000763979ZM11.2169 11.7741L11.3111 11.78C11.4726 11.7998 11.6241 11.872 11.741 11.9868C11.8813 12.1246 11.9602 12.3123 11.9602 12.5081C11.9602 12.9133 11.6291 13.2417 11.2206 13.2417C10.8121 13.2417 10.4809 12.9133 10.4809 12.5081C10.4809 12.103 10.8121 11.7746 11.2206 11.7746L11.2169 11.7741ZM7.67023 11.7746L7.76301 11.7803C8.12772 11.8255 8.40988 12.1342 8.40988 12.5081C8.40988 12.9133 8.07873 13.2417 7.67023 13.2417C7.26173 13.2417 6.93057 12.9133 6.93057 12.5081C6.93057 12.103 7.26173 11.7746 7.67023 11.7746ZM4.12373 11.7741L4.21779 11.78C4.37929 11.7998 4.53076 11.872 4.64769 11.9868C4.788 12.1246 4.86693 12.3123 4.86693 12.5081C4.86693 12.9133 4.53578 13.2417 4.12728 13.2417C3.71878 13.2417 3.38762 12.9133 3.38762 12.5081C3.38762 12.103 3.71878 11.7746 4.12728 11.7746L4.12373 11.7741ZM11.2169 8.80343L11.3111 8.80908C11.4726 8.82882 11.6241 8.90103 11.741 9.01585C11.8813 9.15363 11.9602 9.34134 11.9602 9.53717C11.9602 9.94231 11.6291 10.2707 11.2206 10.2707C10.8121 10.2707 10.4809 9.94231 10.4809 9.53717C10.4809 9.13203 10.8121 8.8036 11.2206 8.8036L11.2169 8.80343ZM7.67023 8.8036L7.76301 8.80932C8.12772 8.85458 8.40988 9.1632 8.40988 9.53717C8.40988 9.94231 8.07873 10.2707 7.67023 10.2707C7.26173 10.2707 6.93057 9.94231 6.93057 9.53717C6.93057 9.13203 7.26173 8.8036 7.67023 8.8036ZM4.12373 8.80343L4.21779 8.80908C4.37929 8.82882 4.53076 8.90103 4.64769 9.01585C4.788 9.15363 4.86693 9.34134 4.86693 9.53717C4.86693 9.94231 4.53578 10.2707 4.12728 10.2707C3.71878 10.2707 3.38762 9.94231 3.38762 9.53717C3.38762 9.13203 3.71878 8.8036 4.12728 8.8036L4.12373 8.80343ZM4.45643 0.088281C4.75767 0.088281 5.01082 0.312732 5.04445 0.609627V1.40922H8.38769C8.71041 1.40922 8.97202 1.66868 8.97202 1.98874C8.97202 2.3088 8.71041 2.56826 8.38769 2.56826H5.02966V3.14778C5.02967 3.30276 4.96709 3.45128 4.85591 3.56018C4.74472 3.66907 4.59419 3.72926 4.43793 3.7273L4.35249 3.71898C4.07409 3.67127 3.86462 3.42886 3.86835 3.14044V0.609627L3.88486 0.522884C3.95314 0.270087 4.18531 0.088281 4.45643 0.088281Z" fill="white"></path></svg>