<svg xmlns="http://www.w3.org/2000/svg" width="25" height="25" viewBox="0 0 25 25" fill="none"><path fill-rule="evenodd" clip-rule="evenodd" d="M12.1064 22.2271C17.6294 22.2271 22.1064 17.7501 22.1064 12.2271C22.1064 6.70405 17.6294 2.22705 12.1064 2.22705C6.58345 2.22705 2.10645 6.70405 2.10645 12.2271C2.10645 17.7501 6.58345 22.2271 12.1064 22.2271ZM15.6424 8.69105C15.8302 8.50354 16.0848 8.39831 16.3502 8.39849C16.6155 8.39868 16.8699 8.50428 17.0574 8.69205C17.245 8.87982 17.3502 9.13439 17.35 9.39976C17.3498 9.66512 17.2442 9.91954 17.0564 10.1071L11.4034 15.7601L11.3994 15.7641C11.3068 15.8572 11.1966 15.9312 11.0753 15.9816C10.954 16.0321 10.8239 16.0581 10.6924 16.0581C10.561 16.0581 10.4309 16.0321 10.3096 15.9816C10.1883 15.9312 10.0781 15.8572 9.98545 15.7641L9.98145 15.7601L7.15645 12.9351C7.06094 12.8428 6.98475 12.7325 6.93234 12.6105C6.87993 12.4885 6.85235 12.3572 6.85119 12.2245C6.85004 12.0917 6.87534 11.96 6.92562 11.8371C6.9759 11.7142 7.05016 11.6025 7.14405 11.5087C7.23794 11.4148 7.3496 11.3405 7.47249 11.2902C7.59539 11.2399 7.72707 11.2146 7.85985 11.2158C7.99263 11.217 8.12385 11.2445 8.24585 11.2969C8.36785 11.3494 8.4782 11.4255 8.57045 11.5211L10.6924 13.6421L15.6424 8.69205V8.69105Z" fill="#00B087"></path></svg>