<svg xmlns="http://www.w3.org/2000/svg" width="13" height="13" viewBox="0 0 13 13" fill="none"><path d="M11.8936 12.4017C11.8211 12.4741 11.7245 12.4741 11.6521 12.4017L6.7254 7.475C6.65295 7.40255 6.55635 7.40255 6.4839 7.475L1.55723 12.4017C1.48478 12.4741 1.38818 12.4741 1.31573 12.4017L0.470469 11.5564C0.398018 11.484 0.398018 11.3874 0.470469 11.3149L5.39714 6.38824C5.46959 6.31579 5.46959 6.21918 5.39714 6.14673L0.506695 1.25629C0.434244 1.18384 0.434244 1.08724 0.506695 1.01479L1.33988 0.181603C1.41233 0.109153 1.50893 0.109152 1.58138 0.181603L6.47183 5.07204C6.54428 5.14449 6.64088 5.1445 6.71333 5.07204L11.6158 0.169529C11.6883 0.0970781 11.7849 0.0970778 11.8573 0.169529L12.7026 1.01479C12.7751 1.08724 12.7751 1.18384 12.7026 1.25629L7.80009 6.15881C7.72764 6.23126 7.72764 6.32786 7.80009 6.40031L12.7268 11.327C12.7992 11.3994 12.7992 11.496 12.7268 11.5685L11.8936 12.4017Z" fill="#B0C3E8"></path></svg>