<svg width="730" height="743" viewBox="0 0 730 743" fill="none" xmlns="http://www.w3.org/2000/svg">
<g style="mix-blend-mode:screen">
<circle cx="372.169" cy="371.256" r="179.181" fill="url(#paint0_linear_1499_3122)" stroke="#008C8F" stroke-width="2.22018"/>
<path d="M333.996 396.579H335.03L339.504 407.493L339.588 407.73H339.724L339.775 407.493L341.707 396.579H342.283L340.215 408.272H339.165L334.708 397.376L334.623 397.122H334.488L334.437 397.376L332.522 408.272H331.929L333.996 396.579ZM342.689 408.205L348.976 396.579H349.942L352.129 408.222L352.112 408.272H351.535L350.976 405.273H344.892L343.266 408.272H342.672L342.689 408.205ZM350.874 404.731L349.451 397.189V397.088H349.282L349.248 397.189L345.18 404.731H350.874ZM357.468 408.205L363.755 396.579H364.721L366.907 408.222L366.89 408.272H366.314L365.755 405.273H359.671L358.044 408.272H357.451L357.468 408.205ZM365.653 404.731L364.229 397.189V397.088H364.06L364.026 397.189L359.959 404.731H365.653ZM371.447 396.579H375.074C377.423 396.579 378.598 397.376 378.598 398.969C378.598 399.15 378.581 399.353 378.548 399.579C378.412 400.392 378.045 401.07 377.446 401.613C376.847 402.144 376.153 402.443 375.362 402.511H375.345L375.328 402.545C376.028 402.635 376.542 402.855 376.87 403.205C377.198 403.556 377.361 404.042 377.361 404.663C377.361 404.889 377.333 405.183 377.277 405.544L376.989 407.188C376.955 407.391 376.938 407.595 376.938 407.798C376.938 407.956 376.955 408.097 376.989 408.222L376.972 408.272H376.395C376.362 408.137 376.345 407.99 376.345 407.832C376.345 407.628 376.367 407.414 376.412 407.188L376.7 405.561C376.757 405.245 376.785 404.968 376.785 404.731C376.785 404.121 376.587 403.652 376.192 403.324C375.797 402.996 375.107 402.833 374.125 402.833L370.905 402.85L369.956 408.272H369.38L371.447 396.579ZM373.972 402.307C375.068 402.307 375.966 402.07 376.667 401.596C377.367 401.11 377.791 400.443 377.938 399.596C377.971 399.404 377.988 399.229 377.988 399.071C377.988 398.381 377.729 397.884 377.209 397.579C376.689 397.263 375.938 397.105 374.955 397.105H371.922L371.006 402.307H373.972ZM384.179 397.122H380.4L380.501 396.579H388.619L388.517 397.122H384.755L382.789 408.272H382.213L384.179 397.122ZM391.008 396.579H398.007L397.905 397.122H391.483L390.618 402.036H396.109L396.007 402.578H390.517L389.619 407.73H396.126L396.024 408.272H388.941L391.008 396.579Z" fill="url(#paint1_linear_1499_3122)"/>
<g filter="url(#filter0_d_1499_3122)">
<path d="M479.802 365.24C480.064 364.327 479.762 363.346 479.032 362.738L469.904 355.147C469.474 354.789 468.932 354.594 468.373 354.594H258.447C257.317 354.594 256.341 355.384 256.106 356.489L249.644 386.858C249.327 388.347 250.463 389.749 251.985 389.749H470.952C472.019 389.749 472.957 389.043 473.252 388.017L479.802 365.24Z" fill="#D9D9D9"/>
<path d="M479.802 365.24C480.064 364.327 479.762 363.346 479.032 362.738L469.904 355.147C469.474 354.789 468.932 354.594 468.373 354.594H258.447C257.317 354.594 256.341 355.384 256.106 356.489L249.644 386.858C249.327 388.347 250.463 389.749 251.985 389.749H470.952C472.019 389.749 472.957 389.043 473.252 388.017L479.802 365.24Z" fill="url(#paint2_linear_1499_3122)"/>
</g>
<path d="M252.925 385.627L266.489 358.08H277.425L281.223 385.544L280.972 386.879H273.334L272.834 382.872H262.232L260.354 386.879H252.716L252.925 385.627ZM272.124 376.82L271.122 368.64L271.164 364.842H270.246L268.994 368.64L265.112 376.82H272.124ZM288.7 358.08H296.338L303.141 371.144L303.684 374.441H304.811L304.978 370.81L306.981 358.08H314.16L309.068 386.879H301.472L294.752 373.773L294.168 370.434H293.041L292.874 374.149L290.787 386.879H283.608L288.7 358.08ZM311.863 385.627L325.428 358.08H336.363L340.161 385.544L339.911 386.879H332.273L331.772 382.872H321.171L319.292 386.879H311.654L311.863 385.627ZM331.062 376.82L330.061 368.64L330.102 364.842H329.184L327.932 368.64L324.05 376.82H331.062ZM349.794 364.883H342.198L343.408 358.08H366.364L365.153 364.883H357.641L353.717 386.879H345.871L349.794 364.883ZM376.4 387.338C372.643 387.338 369.777 386.337 367.802 384.333C365.826 382.302 364.838 379.505 364.838 375.944C364.838 374.664 364.964 373.342 365.214 371.979C366.049 367.471 367.816 363.951 370.515 361.419C373.242 358.887 376.692 357.621 380.866 357.621C384.733 357.621 387.655 358.609 389.631 360.584C391.606 362.532 392.594 365.287 392.594 368.848C392.594 369.906 392.483 371.144 392.26 372.563C391.509 377.182 389.742 380.799 386.959 383.415C384.177 386.03 380.657 387.338 376.4 387.338ZM377.36 380.952C379.057 380.952 380.462 380.215 381.575 378.74C382.688 377.266 383.481 375.137 383.954 372.354C384.121 371.269 384.205 370.295 384.205 369.433C384.205 367.652 383.857 366.302 383.161 365.384C382.466 364.466 381.436 364.007 380.073 364.007C378.403 364.007 377.012 364.675 375.899 366.01C374.814 367.346 374.049 369.321 373.603 371.937C373.381 373.273 373.269 374.4 373.269 375.318C373.269 377.126 373.603 378.518 374.271 379.492C374.967 380.465 375.996 380.952 377.36 380.952ZM398.343 358.122H410.489L411.407 374.316L411.282 377.196H412.242L413.16 374.316L419.797 358.122H431.567L426.475 386.879H419.338L422.76 370.017L423.303 366.845H422.259L421.341 369.683L413.912 386.879H405.981L404.604 369.683L404.688 366.845H403.644L403.06 370.017L400.556 386.879H393.251L398.343 358.122ZM436.01 358.08H444.024L438.932 386.879H430.918L436.01 358.08ZM441.968 385.627L455.532 358.08H466.468L470.266 385.544L470.015 386.879H462.377L461.877 382.872H451.275L449.397 386.879H441.759L441.968 385.627ZM461.167 376.82L460.165 368.64L460.207 364.842H459.289L458.037 368.64L454.155 376.82H461.167Z" fill="url(#paint3_linear_1499_3122)"/>
<path d="M300.046 337.905H301.775V345.86H300.046V337.905ZM311.184 337.905H312.913L315.934 342.528L316.188 343.254H316.441L316.337 342.47L316.291 337.905H317.836V345.86H316.118L313.121 341.225L312.856 340.51H312.613L312.706 341.294L312.74 345.86H311.184V337.905ZM328.916 339.323H326.679V337.905H332.767V339.323H330.541V345.86H328.916V339.323ZM341.613 337.905H347.021V339.277H343.216V341.144H346.467V342.447H343.216V344.499H347.078V345.86H341.613V337.905ZM356.119 337.905H357.848L360.869 342.528L361.122 343.254H361.376L361.272 342.47L361.226 337.905H362.771V345.86H361.053L358.056 341.225L357.79 340.51H357.548L357.641 341.294L357.675 345.86H356.119V337.905ZM375.073 345.964C374.074 345.964 373.297 345.764 372.744 345.364C372.198 344.957 371.891 344.357 371.821 343.566H373.551C373.612 343.965 373.778 344.265 374.047 344.465C374.323 344.665 374.688 344.765 375.142 344.765C375.565 344.765 375.903 344.672 376.157 344.488C376.41 344.296 376.537 344.038 376.537 343.715C376.537 343.439 376.441 343.212 376.249 343.035C376.064 342.858 375.757 342.712 375.326 342.597L373.92 342.274C372.605 341.936 371.948 341.21 371.948 340.095C371.948 339.38 372.221 338.815 372.767 338.4C373.32 337.985 374.089 337.778 375.073 337.778C376.003 337.778 376.733 337.985 377.263 338.4C377.801 338.808 378.101 339.384 378.163 340.13H376.456C376.395 339.73 376.237 339.438 375.984 339.254C375.73 339.069 375.411 338.977 375.027 338.977C374.627 338.977 374.312 339.065 374.081 339.242C373.851 339.411 373.735 339.646 373.735 339.945C373.735 340.184 373.812 340.383 373.966 340.545C374.127 340.699 374.385 340.825 374.738 340.925L376.157 341.26C376.925 341.459 377.482 341.748 377.828 342.124C378.182 342.501 378.359 342.97 378.359 343.531C378.359 344.292 378.067 344.888 377.482 345.318C376.906 345.748 376.103 345.964 375.073 345.964ZM387.405 337.905H389.134V345.86H387.405V337.905ZM398.001 338.181V337.905H399.776L401.437 343.485L401.54 344.292H401.759L401.863 343.485L403.523 337.905H405.276V338.17L402.82 345.86H400.445L398.001 338.181ZM417.169 345.987C416.009 345.987 415.117 345.633 414.494 344.926C413.872 344.219 413.561 343.208 413.561 341.894C413.561 340.572 413.872 339.557 414.494 338.85C415.117 338.135 416.009 337.778 417.169 337.778C418.33 337.778 419.218 338.135 419.833 338.85C420.455 339.557 420.766 340.572 420.766 341.894C420.766 343.208 420.459 344.219 419.844 344.926C419.229 345.633 418.338 345.987 417.169 345.987ZM417.169 344.58C417.769 344.58 418.218 344.353 418.518 343.9C418.818 343.439 418.968 342.766 418.968 341.882C418.968 340.991 418.818 340.318 418.518 339.865C418.218 339.403 417.769 339.173 417.169 339.173C416.577 339.173 416.128 339.403 415.82 339.865C415.513 340.326 415.359 341.002 415.359 341.894C415.359 342.77 415.513 343.439 415.82 343.9C416.128 344.353 416.577 344.58 417.169 344.58Z" fill="url(#paint4_linear_1499_3122)"/>
<g filter="url(#filter1_d_1499_3122)">
<path d="M251.331 350.462C251.344 349.889 251.761 349.405 252.326 349.308L264.238 347.26C264.467 347.22 264.702 347.248 264.915 347.34L267.706 348.542C268.172 348.743 268.461 349.216 268.428 349.723L267.903 357.622C267.866 358.172 267.458 358.627 266.915 358.722L252.519 361.261C251.774 361.392 251.096 360.809 251.113 360.053L251.331 350.462Z" fill="url(#paint5_linear_1499_3122)"/>
</g>
<path d="M253.393 351.569L256.142 351.084C257.217 350.895 258.091 351.022 258.762 351.465C259.434 351.909 259.853 352.6 260.018 353.539C260.069 353.827 260.093 354.12 260.091 354.417C260.104 355.734 259.781 356.798 259.12 357.609C258.457 358.413 257.497 358.926 256.24 359.148L253.39 359.65L253.393 351.569ZM256.257 357.716C256.901 357.602 257.399 357.284 257.752 356.761C258.104 356.231 258.275 355.545 258.267 354.703C258.259 354.431 258.239 354.208 258.208 354.034C258.107 353.459 257.884 353.037 257.54 352.77C257.195 352.495 256.742 352.407 256.182 352.506L255.126 352.692L255.122 357.916L256.257 357.716ZM260.368 350.339L265.684 349.402L265.684 350.795L261.947 351.454L261.94 353.341L265.143 352.776L265.144 354.111L261.941 354.676L261.934 356.762L265.751 356.089L265.737 357.473L260.365 358.42L260.368 350.339Z" fill="white"/>
<path d="M253.393 351.569L256.142 351.084C257.217 350.895 258.091 351.022 258.762 351.465C259.434 351.909 259.853 352.6 260.018 353.539C260.069 353.827 260.093 354.12 260.091 354.417C260.104 355.734 259.781 356.798 259.12 357.609C258.457 358.413 257.497 358.926 256.24 359.148L253.39 359.65L253.393 351.569ZM256.257 357.716C256.901 357.602 257.399 357.284 257.752 356.761C258.104 356.231 258.275 355.545 258.267 354.703C258.259 354.431 258.239 354.208 258.208 354.034C258.107 353.459 257.884 353.037 257.54 352.77C257.195 352.495 256.742 352.407 256.182 352.506L255.126 352.692L255.122 357.916L256.257 357.716ZM260.368 350.339L265.684 349.402L265.684 350.795L261.947 351.454L261.94 353.341L265.143 352.776L265.144 354.111L261.941 354.676L261.934 356.762L265.751 356.089L265.737 357.473L260.365 358.42L260.368 350.339Z" fill="url(#paint6_linear_1499_3122)"/>
<circle cx="372.169" cy="371.256" r="213.497" stroke="url(#paint7_linear_1499_3122)" stroke-width="2.22018"/>
<circle cx="372.169" cy="371.256" r="249.77" stroke="url(#paint8_linear_1499_3122)" stroke-width="2.22018"/>
<circle cx="372.169" cy="371.256" r="289.464" stroke="url(#paint9_linear_1499_3122)" stroke-width="2.22018"/>
<circle cx="372.169" cy="371.256" r="329.696" stroke="url(#paint10_linear_1499_3122)" stroke-width="2.22018"/>
<circle cx="98.0968" cy="240.958" r="82.0895" fill="black"/>
<circle cx="98.0968" cy="240.958" r="82.0895" fill="url(#paint11_linear_1499_3122)"/>
<circle cx="98.0968" cy="240.958" r="82.0895" stroke="#008C8F" stroke-width="2.22018"/>
<path d="M39.3906 236.266C37.579 236.266 36.1803 235.634 35.1945 234.368C34.2088 233.103 33.7159 231.371 33.7159 229.173C33.7159 226.961 34.2221 225.236 35.2345 223.998C36.2469 222.745 37.6989 222.119 39.5905 222.119C41.1357 222.119 42.3879 222.539 43.347 223.378C44.3061 224.204 44.8856 225.35 45.0854 226.815H43.4469C43.2604 225.776 42.8275 224.963 42.1481 224.377C41.4821 223.778 40.6362 223.478 39.6104 223.478C38.2517 223.478 37.206 223.984 36.4733 224.997C35.7407 226.009 35.3743 227.414 35.3743 229.213C35.3743 230.998 35.7407 232.396 36.4733 233.409C37.2193 234.408 38.2717 234.908 39.6304 234.908C40.8826 234.908 41.8217 234.501 42.4478 233.689C43.0872 232.863 43.4403 231.724 43.5069 230.272H39.3107V229.133H45.1054V236.086H43.8465V234.668L44.0064 233.449H43.7666C43.4203 234.301 42.8874 234.987 42.1681 235.507C41.4621 236.013 40.5363 236.266 39.3906 236.266ZM48.0191 226.036H49.278V226.895L49.198 227.914H49.3379C49.551 227.288 49.9174 226.788 50.4369 226.415C50.9697 226.042 51.6358 225.856 52.435 225.856C52.9679 225.856 53.4341 225.936 53.8338 226.096V227.534C53.3808 227.374 52.9079 227.295 52.4151 227.295C51.4959 227.295 50.7832 227.594 50.277 228.194C49.7842 228.78 49.5377 229.612 49.5377 230.691V236.086H48.0191V226.036ZM59.1456 236.266C58.0399 236.266 57.1807 235.96 56.568 235.347C55.9552 234.734 55.6488 233.835 55.6488 232.65V226.036H57.1674V232.41C57.1674 233.262 57.3672 233.915 57.7669 234.368C58.1798 234.808 58.7793 235.027 59.5652 235.027C60.4577 235.027 61.1704 234.754 61.7032 234.208C62.2361 233.662 62.5025 232.896 62.5025 231.91V226.036H64.0211V236.086H62.7623V235.127L62.8422 234.228H62.7223C62.4559 234.814 62.0163 235.3 61.4035 235.687C60.8041 236.073 60.0514 236.266 59.1456 236.266ZM66.7519 226.036H68.0107V227.055L67.9308 227.954H68.0906C68.3837 227.341 68.8366 226.842 69.4494 226.455C70.0622 226.056 70.8015 225.856 71.6673 225.856C72.9995 225.856 74.0252 226.329 74.7445 227.275C75.4772 228.207 75.8435 229.466 75.8435 231.051C75.8435 232.65 75.4772 233.922 74.7445 234.868C74.0119 235.8 72.9795 236.266 71.6474 236.266C70.7815 236.266 70.0355 236.073 69.4094 235.687C68.7967 235.287 68.3504 234.774 68.0707 234.148H67.9308L68.0107 234.808L68.2905 235.407V239.643H66.7519V226.036ZM71.2677 235.067C72.2402 235.067 72.9861 234.714 73.5057 234.008C74.0252 233.289 74.2849 232.31 74.2849 231.071C74.2849 229.832 74.0185 228.86 73.4857 228.154C72.9661 227.434 72.2268 227.075 71.2677 227.075C70.3352 227.075 69.6026 227.428 69.0697 228.134C68.5369 228.826 68.2705 229.806 68.2705 231.071C68.2705 232.35 68.5369 233.336 69.0697 234.028C69.6026 234.721 70.3352 235.067 71.2677 235.067ZM82.6602 236.266C81.1682 236.266 80.016 235.807 79.2034 234.888C78.3908 233.955 77.9845 232.676 77.9845 231.051C77.9845 229.426 78.3908 228.154 79.2034 227.235C80.016 226.315 81.1682 225.856 82.6602 225.856C84.1521 225.856 85.2978 226.315 86.097 227.235C86.9096 228.154 87.3159 229.426 87.3159 231.051C87.3159 232.676 86.9163 233.955 86.117 234.888C85.3177 235.807 84.1655 236.266 82.6602 236.266ZM82.6602 235.067C83.6859 235.067 84.4652 234.714 84.998 234.008C85.5309 233.302 85.7973 232.317 85.7973 231.051C85.7973 229.786 85.5309 228.806 84.998 228.114C84.4652 227.408 83.6859 227.055 82.6602 227.055C81.6345 227.055 80.8485 227.408 80.3024 228.114C79.7695 228.82 79.5031 229.799 79.5031 231.051C79.5031 232.317 79.7762 233.302 80.3223 234.008C80.8685 234.714 81.6478 235.067 82.6602 235.067ZM95.0574 222.299H99.833C103.869 222.299 105.887 224.59 105.887 229.173C105.887 233.782 103.869 236.086 99.833 236.086H95.0574V222.299ZM99.773 234.748C101.292 234.748 102.411 234.268 103.13 233.309C103.849 232.35 104.209 230.978 104.209 229.193C104.209 225.49 102.73 223.638 99.773 223.638H96.6559V234.748H99.773ZM108.847 226.036H110.365V236.086H108.847V226.036ZM108.707 221.7H110.485V224.137H108.707V221.7ZM117.147 236.266C114.563 236.266 113.124 235.247 112.831 233.209H114.33C114.609 234.528 115.555 235.187 117.167 235.187C117.98 235.187 118.626 235.027 119.105 234.708C119.585 234.388 119.825 233.942 119.825 233.369C119.825 232.476 119.159 231.904 117.826 231.651L115.668 231.271C114.803 231.098 114.15 230.791 113.71 230.352C113.284 229.912 113.071 229.373 113.071 228.733C113.071 227.867 113.43 227.175 114.15 226.655C114.869 226.122 115.848 225.856 117.087 225.856C118.273 225.856 119.225 226.109 119.944 226.615C120.664 227.108 121.07 227.834 121.163 228.793H119.685C119.591 228.18 119.312 227.714 118.845 227.394C118.393 227.075 117.786 226.915 117.027 226.915C116.255 226.915 115.642 227.068 115.189 227.374C114.736 227.668 114.509 228.06 114.509 228.553C114.509 229.339 115.142 229.852 116.408 230.092L118.506 230.472C119.478 230.671 120.198 231.004 120.664 231.471C121.13 231.937 121.363 232.51 121.363 233.189C121.35 234.122 120.97 234.868 120.224 235.427C119.478 235.987 118.453 236.266 117.147 236.266ZM128.166 236.266C126.648 236.266 125.482 235.807 124.669 234.888C123.857 233.955 123.45 232.676 123.45 231.051C123.45 229.426 123.857 228.154 124.669 227.235C125.495 226.315 126.667 225.856 128.186 225.856C129.425 225.856 130.437 226.169 131.223 226.795C132.009 227.408 132.469 228.274 132.602 229.393H131.043C130.897 228.647 130.577 228.067 130.084 227.654C129.591 227.241 128.952 227.035 128.166 227.035C127.127 227.035 126.334 227.388 125.788 228.094C125.255 228.786 124.989 229.766 124.989 231.031C124.989 232.31 125.262 233.302 125.808 234.008C126.354 234.714 127.14 235.067 128.166 235.067C128.925 235.067 129.552 234.868 130.044 234.468C130.551 234.055 130.884 233.469 131.043 232.71H132.602C132.455 233.815 131.996 234.688 131.223 235.327C130.451 235.953 129.432 236.266 128.166 236.266ZM139.229 236.266C137.737 236.266 136.585 235.807 135.772 234.888C134.96 233.955 134.554 232.676 134.554 231.051C134.554 229.426 134.96 228.154 135.772 227.235C136.585 226.315 137.737 225.856 139.229 225.856C140.721 225.856 141.867 226.315 142.666 227.235C143.479 228.154 143.885 229.426 143.885 231.051C143.885 232.676 143.485 233.955 142.686 234.888C141.887 235.807 140.734 236.266 139.229 236.266ZM139.229 235.067C140.255 235.067 141.034 234.714 141.567 234.008C142.1 233.302 142.366 232.317 142.366 231.051C142.366 229.786 142.1 228.806 141.567 228.114C141.034 227.408 140.255 227.055 139.229 227.055C138.203 227.055 137.418 227.408 136.871 228.114C136.339 228.82 136.072 229.799 136.072 231.051C136.072 232.317 136.345 233.302 136.891 234.008C137.438 234.714 138.217 235.067 139.229 235.067ZM146.327 226.036H147.586V226.895L147.506 227.914H147.646C147.859 227.288 148.225 226.788 148.745 226.415C149.278 226.042 149.944 225.856 150.743 225.856C151.276 225.856 151.742 225.936 152.142 226.096V227.534C151.689 227.374 151.216 227.295 150.723 227.295C149.804 227.295 149.091 227.594 148.585 228.194C148.092 228.78 147.846 229.612 147.846 230.691V236.086H146.327V226.036ZM157.579 236.246C156.26 236.246 155.235 235.78 154.502 234.848C153.783 233.902 153.423 232.643 153.423 231.071C153.423 229.473 153.789 228.207 154.522 227.275C155.255 226.329 156.28 225.856 157.599 225.856C158.465 225.856 159.204 226.056 159.817 226.455C160.443 226.842 160.896 227.348 161.176 227.974H161.316L161.236 227.315L160.976 226.715V221.7H162.495V236.086H161.236V235.067L161.316 234.168H161.156C160.863 234.781 160.41 235.281 159.797 235.667C159.184 236.053 158.445 236.246 157.579 236.246ZM157.979 235.047C158.911 235.047 159.644 234.701 160.177 234.008C160.709 233.302 160.976 232.31 160.976 231.031C160.976 229.766 160.709 228.786 160.177 228.094C159.644 227.401 158.911 227.055 157.979 227.055C157.006 227.055 156.26 227.414 155.741 228.134C155.221 228.84 154.961 229.812 154.961 231.051C154.961 232.29 155.221 233.269 155.741 233.988C156.274 234.694 157.02 235.047 157.979 235.047ZM61.721 260.246C60.2157 260.246 59.0701 259.793 58.2842 258.888C57.4983 257.968 57.1053 256.696 57.1053 255.071C57.1053 253.446 57.5049 252.174 58.3042 251.255C59.1168 250.322 60.2491 249.856 61.701 249.856C63.1264 249.856 64.2187 250.302 64.978 251.195C65.7373 252.074 66.117 253.313 66.117 254.911V255.231H58.6439C58.6705 256.47 58.9436 257.422 59.4631 258.088C59.996 258.741 60.7686 259.067 61.781 259.067C62.527 259.067 63.1331 258.888 63.5993 258.528C64.0789 258.155 64.3986 257.635 64.5584 256.969H66.0371C65.8639 257.995 65.4043 258.801 64.6583 259.387C63.9123 259.96 62.9332 260.246 61.721 260.246ZM64.5984 254.212C64.5318 253.186 64.2454 252.394 63.7392 251.834C63.2463 251.261 62.5536 250.975 61.6611 250.975C60.7819 250.975 60.0892 251.255 59.583 251.814C59.0901 252.374 58.7904 253.173 58.6838 254.212H64.5984ZM67.1039 259.887L70.5807 255.011L67.1838 250.235V250.036H68.8023L71.6197 254.012L71.7196 254.372H71.9394L72.0194 254.012L74.8568 250.036H76.4553V250.235L73.0584 255.011L76.5352 259.887V260.086H74.8767L71.9994 256.03L71.8995 255.651H71.6997L71.5997 256.03L68.7224 260.086H67.1039V259.887ZM82.2709 260.266C80.7523 260.266 79.5867 259.807 78.7741 258.888C77.9615 257.955 77.5552 256.676 77.5552 255.051C77.5552 253.426 77.9615 252.154 78.7741 251.235C79.6 250.315 80.7722 249.856 82.2908 249.856C83.5297 249.856 84.5421 250.169 85.328 250.795C86.114 251.408 86.5736 252.274 86.7068 253.393H85.1482C85.0017 252.647 84.682 252.067 84.1891 251.654C83.6962 251.241 83.0568 251.035 82.2709 251.035C81.2318 251.035 80.4392 251.388 79.8931 252.094C79.3602 252.786 79.0938 253.766 79.0938 255.031C79.0938 256.31 79.3669 257.302 79.913 258.008C80.4592 258.714 81.2451 259.067 82.2709 259.067C83.0302 259.067 83.6563 258.868 84.1491 258.468C84.6553 258.055 84.9884 257.469 85.1482 256.71H86.7068C86.5602 257.815 86.1007 258.688 85.328 259.327C84.5554 259.953 83.5364 260.266 82.2709 260.266ZM89.2777 245.7H90.7763V260.086H89.2777V245.7ZM97.3526 260.266C96.247 260.266 95.3878 259.96 94.775 259.347C94.1622 258.734 93.8558 257.835 93.8558 256.65V250.036H95.3744V256.41C95.3744 257.262 95.5742 257.915 95.9739 258.368C96.3868 258.808 96.9863 259.027 97.7722 259.027C98.6647 259.027 99.3774 258.754 99.9103 258.208C100.443 257.662 100.71 256.896 100.71 255.91V250.036H102.228V260.086H100.969V259.127L101.049 258.228H100.929C100.663 258.814 100.223 259.3 99.6105 259.687C99.0111 260.073 98.2584 260.266 97.3526 260.266ZM108.795 260.266C106.211 260.266 104.772 259.247 104.479 257.209H105.978C106.258 258.528 107.203 259.187 108.815 259.187C109.628 259.187 110.274 259.027 110.754 258.708C111.233 258.388 111.473 257.942 111.473 257.369C111.473 256.476 110.807 255.904 109.475 255.651L107.317 255.271C106.451 255.098 105.798 254.791 105.359 254.352C104.932 253.912 104.719 253.373 104.719 252.733C104.719 251.867 105.079 251.175 105.798 250.655C106.517 250.122 107.497 249.856 108.735 249.856C109.921 249.856 110.873 250.109 111.593 250.615C112.312 251.108 112.718 251.834 112.812 252.793H111.333C111.24 252.18 110.96 251.714 110.494 251.394C110.041 251.075 109.435 250.915 108.675 250.915C107.903 250.915 107.29 251.068 106.837 251.374C106.384 251.668 106.158 252.06 106.158 252.553C106.158 253.339 106.791 253.852 108.056 254.092L110.154 254.472C111.127 254.671 111.846 255.004 112.312 255.471C112.778 255.937 113.011 256.51 113.011 257.189C112.998 258.122 112.619 258.868 111.873 259.427C111.127 259.987 110.101 260.266 108.795 260.266ZM115.598 250.036H117.117V260.086H115.598V250.036ZM115.458 245.7H117.237V248.137H115.458V245.7ZM119.263 250.235V250.036H120.821L123.839 258.068L123.899 258.568H124.138L124.198 258.068L127.236 250.036H128.734V250.216L124.978 260.086H123.059L119.263 250.235ZM134.448 260.266C132.956 260.266 131.804 259.807 130.992 258.888C130.179 257.955 129.773 256.676 129.773 255.051C129.773 253.426 130.179 252.154 130.992 251.235C131.804 250.315 132.956 249.856 134.448 249.856C135.94 249.856 137.086 250.315 137.885 251.235C138.698 252.154 139.104 253.426 139.104 255.051C139.104 256.676 138.705 257.955 137.905 258.888C137.106 259.807 135.954 260.266 134.448 260.266ZM134.448 259.067C135.474 259.067 136.253 258.714 136.786 258.008C137.319 257.302 137.586 256.317 137.586 255.051C137.586 253.786 137.319 252.806 136.786 252.114C136.253 251.408 135.474 251.055 134.448 251.055C133.423 251.055 132.637 251.408 132.091 252.114C131.558 252.82 131.291 253.799 131.291 255.051C131.291 256.317 131.564 257.302 132.111 258.008C132.657 258.714 133.436 259.067 134.448 259.067Z" fill="white"/>
<circle cx="646.242" cy="240.958" r="82.0895" fill="black"/>
<circle cx="646.242" cy="240.958" r="82.0895" fill="url(#paint12_linear_1499_3122)"/>
<circle cx="646.242" cy="240.958" r="82.0895" stroke="#008C8F" stroke-width="2.22018"/>
<path d="M593.698 223.658H589.462V222.3H599.433V223.658H595.217V236.087H593.698V223.658ZM600.37 226.036H601.629V226.895L601.549 227.914H601.689C601.902 227.288 602.268 226.789 602.788 226.416C603.321 226.043 603.987 225.856 604.786 225.856C605.319 225.856 605.785 225.936 606.185 226.096V227.535C605.732 227.375 605.259 227.295 604.766 227.295C603.847 227.295 603.134 227.595 602.628 228.194C602.135 228.78 601.889 229.613 601.889 230.692V236.087H600.37V226.036ZM610.741 236.267C609.702 236.267 608.882 236.027 608.283 235.547C607.697 235.068 607.404 234.408 607.404 233.569C607.404 232.783 607.677 232.151 608.223 231.671C608.769 231.191 609.675 230.865 610.94 230.692L614.397 230.292V229.473C614.397 228.647 614.164 228.028 613.698 227.615C613.232 227.188 612.572 226.975 611.72 226.975C610.92 226.975 610.294 227.168 609.841 227.555C609.389 227.941 609.149 228.507 609.122 229.253H607.623C607.65 228.134 608.03 227.288 608.762 226.716C609.495 226.143 610.507 225.856 611.8 225.856C613.172 225.856 614.197 226.169 614.877 226.795C615.569 227.422 615.916 228.327 615.916 229.513V236.087H614.657V235.048L614.777 234.169H614.577C614.284 234.781 613.811 235.288 613.158 235.687C612.519 236.074 611.713 236.267 610.741 236.267ZM608.922 233.429C608.922 233.976 609.115 234.402 609.502 234.708C609.888 235.001 610.421 235.148 611.1 235.148C612.099 235.148 612.899 234.861 613.498 234.289C614.098 233.716 614.397 232.956 614.397 232.011V231.291L611.18 231.651C610.394 231.758 609.821 231.957 609.462 232.25C609.102 232.53 608.922 232.923 608.922 233.429ZM618.654 226.036H619.913V226.975L619.813 227.874H619.973C620.239 227.288 620.679 226.809 621.292 226.436C621.918 226.049 622.69 225.856 623.61 225.856C624.742 225.856 625.621 226.163 626.247 226.775C626.887 227.388 627.206 228.287 627.206 229.473V236.087H625.688V229.733C625.688 228.854 625.474 228.194 625.048 227.755C624.635 227.315 624.022 227.095 623.21 227.095C622.291 227.095 621.551 227.368 620.992 227.914C620.446 228.461 620.173 229.233 620.173 230.232V236.087H618.654V226.036ZM633.789 236.267C631.204 236.267 629.766 235.248 629.473 233.21H630.971C631.251 234.528 632.197 235.188 633.809 235.188C634.621 235.188 635.267 235.028 635.747 234.708C636.227 234.388 636.466 233.942 636.466 233.369C636.466 232.477 635.8 231.904 634.468 231.651L632.31 231.271C631.444 231.098 630.792 230.792 630.352 230.352C629.926 229.913 629.713 229.373 629.713 228.734C629.713 227.868 630.072 227.175 630.792 226.656C631.511 226.123 632.49 225.856 633.729 225.856C634.914 225.856 635.867 226.109 636.586 226.616C637.306 227.109 637.712 227.835 637.805 228.794H636.326C636.233 228.181 635.953 227.715 635.487 227.395C635.034 227.075 634.428 226.915 633.669 226.915C632.896 226.915 632.283 227.069 631.831 227.375C631.378 227.668 631.151 228.061 631.151 228.554C631.151 229.34 631.784 229.853 633.049 230.092L635.148 230.472C636.12 230.672 636.839 231.005 637.306 231.471C637.772 231.937 638.005 232.51 638.005 233.19C637.992 234.122 637.612 234.868 636.866 235.428C636.12 235.987 635.094 236.267 633.789 236.267ZM640.392 226.036H641.611V226.995L641.511 227.815H641.651C641.891 227.228 642.283 226.756 642.83 226.396C643.389 226.036 644.069 225.856 644.868 225.856C645.587 225.856 646.193 226.016 646.686 226.336C647.179 226.642 647.519 227.075 647.705 227.635L647.625 228.054H647.745C647.985 227.402 648.398 226.875 648.984 226.476C649.583 226.063 650.316 225.856 651.182 225.856C652.181 225.856 652.96 226.136 653.52 226.696C654.093 227.255 654.379 228.054 654.379 229.093V236.067H652.9V229.333C652.9 227.828 652.194 227.075 650.782 227.075C649.97 227.075 649.324 227.328 648.844 227.835C648.365 228.327 648.125 229.013 648.125 229.893V236.087H646.646V229.333C646.646 228.587 646.466 228.028 646.107 227.655C645.747 227.268 645.214 227.075 644.508 227.075C643.696 227.075 643.056 227.328 642.59 227.835C642.124 228.327 641.891 229.027 641.891 229.933V236.087H640.392V226.036ZM657.334 226.036H658.853V236.087H657.334V226.036ZM657.194 221.7H658.973V224.138H657.194V221.7ZM665.634 236.267C663.05 236.267 661.611 235.248 661.318 233.21H662.817C663.097 234.528 664.043 235.188 665.654 235.188C666.467 235.188 667.113 235.028 667.593 234.708C668.072 234.388 668.312 233.942 668.312 233.369C668.312 232.477 667.646 231.904 666.314 231.651L664.156 231.271C663.29 231.098 662.637 230.792 662.198 230.352C661.771 229.913 661.558 229.373 661.558 228.734C661.558 227.868 661.918 227.175 662.637 226.656C663.357 226.123 664.336 225.856 665.575 225.856C666.76 225.856 667.713 226.109 668.432 226.616C669.151 227.109 669.558 227.835 669.651 228.794H668.172C668.079 228.181 667.799 227.715 667.333 227.395C666.88 227.075 666.274 226.915 665.515 226.915C664.742 226.915 664.129 227.069 663.676 227.375C663.223 227.668 662.997 228.061 662.997 228.554C662.997 229.34 663.63 229.853 664.895 230.092L666.993 230.472C667.966 230.672 668.685 231.005 669.151 231.471C669.617 231.937 669.851 232.51 669.851 233.19C669.837 234.122 669.458 234.868 668.712 235.428C667.966 235.987 666.94 236.267 665.634 236.267ZM676.074 236.267C673.49 236.267 672.051 235.248 671.758 233.21H673.257C673.536 234.528 674.482 235.188 676.094 235.188C676.907 235.188 677.553 235.028 678.032 234.708C678.512 234.388 678.752 233.942 678.752 233.369C678.752 232.477 678.086 231.904 676.753 231.651L674.595 231.271C673.73 231.098 673.077 230.792 672.637 230.352C672.211 229.913 671.998 229.373 671.998 228.734C671.998 227.868 672.357 227.175 673.077 226.656C673.796 226.123 674.775 225.856 676.014 225.856C677.2 225.856 678.152 226.109 678.871 226.616C679.591 227.109 679.997 227.835 680.09 228.794H678.612C678.518 228.181 678.239 227.715 677.772 227.395C677.32 227.075 676.713 226.915 675.954 226.915C675.182 226.915 674.569 227.069 674.116 227.375C673.663 227.668 673.436 228.061 673.436 228.554C673.436 229.34 674.069 229.853 675.335 230.092L677.433 230.472C678.405 230.672 679.125 231.005 679.591 231.471C680.057 231.937 680.29 232.51 680.29 233.19C680.277 234.122 679.897 234.868 679.151 235.428C678.405 235.987 677.38 236.267 676.074 236.267ZM685.555 236.267C684.516 236.267 683.696 236.027 683.097 235.547C682.511 235.068 682.218 234.408 682.218 233.569C682.218 232.783 682.491 232.151 683.037 231.671C683.583 231.191 684.489 230.865 685.754 230.692L689.211 230.292V229.473C689.211 228.647 688.978 228.028 688.512 227.615C688.046 227.188 687.386 226.975 686.534 226.975C685.734 226.975 685.108 227.168 684.655 227.555C684.202 227.941 683.963 228.507 683.936 229.253H682.437C682.464 228.134 682.844 227.288 683.576 226.716C684.309 226.143 685.321 225.856 686.614 225.856C687.986 225.856 689.011 226.169 689.691 226.795C690.383 227.422 690.73 228.327 690.73 229.513V236.087H689.471V235.048L689.591 234.169H689.391C689.098 234.781 688.625 235.288 687.972 235.687C687.333 236.074 686.527 236.267 685.555 236.267ZM683.736 233.429C683.736 233.976 683.929 234.402 684.316 234.708C684.702 235.001 685.235 235.148 685.914 235.148C686.913 235.148 687.713 234.861 688.312 234.289C688.911 233.716 689.211 232.956 689.211 232.011V231.291L685.994 231.651C685.208 231.758 684.635 231.957 684.276 232.25C683.916 232.53 683.736 232.923 683.736 233.429ZM687.972 224.597C687.666 224.597 687.4 224.544 687.173 224.438C686.96 224.331 686.694 224.171 686.374 223.958C686.107 223.785 685.901 223.665 685.754 223.598C685.621 223.518 685.461 223.479 685.275 223.479C684.968 223.479 684.742 223.585 684.595 223.798C684.449 223.998 684.382 224.251 684.396 224.558H683.536C683.496 223.985 683.623 223.499 683.916 223.099C684.222 222.699 684.682 222.499 685.295 222.499C685.601 222.499 685.861 222.553 686.074 222.659C686.287 222.766 686.54 222.919 686.833 223.119C687.06 223.279 687.253 223.399 687.413 223.479C687.573 223.558 687.739 223.598 687.912 223.598C688.205 223.598 688.425 223.499 688.572 223.299C688.718 223.086 688.785 222.832 688.772 222.539H689.671C689.697 223.112 689.564 223.598 689.271 223.998C688.978 224.398 688.545 224.597 687.972 224.597ZM697.844 236.267C696.352 236.267 695.2 235.807 694.387 234.888C693.575 233.956 693.168 232.677 693.168 231.052C693.168 229.426 693.575 228.154 694.387 227.235C695.2 226.316 696.352 225.856 697.844 225.856C699.336 225.856 700.482 226.316 701.281 227.235C702.093 228.154 702.5 229.426 702.5 231.052C702.5 232.677 702.1 233.956 701.301 234.888C700.502 235.807 699.349 236.267 697.844 236.267ZM697.844 235.068C698.87 235.068 699.649 234.715 700.182 234.009C700.715 233.303 700.981 232.317 700.981 231.052C700.981 229.786 700.715 228.807 700.182 228.114C699.649 227.408 698.87 227.055 697.844 227.055C696.818 227.055 696.032 227.408 695.486 228.114C694.953 228.82 694.687 229.799 694.687 231.052C694.687 232.317 694.96 233.303 695.506 234.009C696.052 234.715 696.832 235.068 697.844 235.068ZM618.565 260.267C617.526 260.267 616.707 260.027 616.108 259.547C615.522 259.068 615.229 258.408 615.229 257.569C615.229 256.783 615.502 256.151 616.048 255.671C616.594 255.191 617.5 254.865 618.765 254.692L622.222 254.292V253.473C622.222 252.647 621.989 252.028 621.523 251.615C621.056 251.188 620.397 250.975 619.545 250.975C618.745 250.975 618.119 251.168 617.666 251.555C617.213 251.941 616.974 252.507 616.947 253.253H615.448C615.475 252.134 615.855 251.288 616.587 250.716C617.32 250.143 618.332 249.856 619.624 249.856C620.997 249.856 622.022 250.169 622.702 250.795C623.394 251.422 623.741 252.327 623.741 253.513V260.087H622.482V259.048L622.602 258.169H622.402C622.109 258.781 621.636 259.288 620.983 259.687C620.344 260.074 619.538 260.267 618.565 260.267ZM616.747 257.429C616.747 257.976 616.94 258.402 617.327 258.708C617.713 259.001 618.246 259.148 618.925 259.148C619.924 259.148 620.723 258.861 621.323 258.289C621.922 257.716 622.222 256.956 622.222 256.011V255.291L619.005 255.651C618.219 255.758 617.646 255.957 617.287 256.25C616.927 256.53 616.747 256.923 616.747 257.429ZM630.855 260.267C629.363 260.267 628.211 259.807 627.398 258.888C626.586 257.956 626.179 256.677 626.179 255.052C626.179 253.426 626.586 252.154 627.398 251.235C628.211 250.316 629.363 249.856 630.855 249.856C632.347 249.856 633.492 250.316 634.292 251.235C635.104 252.154 635.511 253.426 635.511 255.052C635.511 256.677 635.111 257.956 634.312 258.888C633.512 259.807 632.36 260.267 630.855 260.267ZM630.855 259.068C631.881 259.068 632.66 258.715 633.193 258.009C633.726 257.303 633.992 256.317 633.992 255.052C633.992 253.786 633.726 252.807 633.193 252.114C632.66 251.408 631.881 251.055 630.855 251.055C629.829 251.055 629.043 251.408 628.497 252.114C627.964 252.82 627.698 253.799 627.698 255.052C627.698 256.317 627.971 257.303 628.517 258.009C629.063 258.715 629.843 259.068 630.855 259.068ZM641.973 250.236V250.036H643.532L646.549 258.069L646.609 258.568H646.849L646.909 258.069L649.946 250.036H651.445V250.216L647.688 260.087H645.77L641.973 250.236ZM653.607 250.036H655.126V260.087H653.607V250.036ZM653.467 245.7H655.246V248.138H653.467V245.7ZM657.272 250.236V250.036H658.83L661.847 258.069L661.907 258.568H662.147L662.207 258.069L665.244 250.036H666.743V250.216L662.986 260.087H661.068L657.272 250.236ZM672.457 260.267C670.965 260.267 669.813 259.807 669 258.888C668.188 257.956 667.782 256.677 667.782 255.052C667.782 253.426 668.188 252.154 669 251.235C669.813 250.316 670.965 249.856 672.457 249.856C673.949 249.856 675.095 250.316 675.894 251.235C676.707 252.154 677.113 253.426 677.113 255.052C677.113 256.677 676.713 257.956 675.914 258.888C675.115 259.807 673.963 260.267 672.457 260.267ZM672.457 259.068C673.483 259.068 674.262 258.715 674.795 258.009C675.328 257.303 675.594 256.317 675.594 255.052C675.594 253.786 675.328 252.807 674.795 252.114C674.262 251.408 673.483 251.055 672.457 251.055C671.432 251.055 670.646 251.408 670.099 252.114C669.567 252.82 669.3 253.799 669.3 255.052C669.3 256.317 669.573 257.303 670.119 258.009C670.666 258.715 671.445 259.068 672.457 259.068Z" fill="white"/>
<path d="M454.259 83.7624C454.259 129.099 417.506 165.852 372.169 165.852C326.832 165.852 290.08 129.099 290.08 83.7624C290.08 38.4256 326.832 1.67285 372.169 1.67285C417.506 1.67285 454.259 38.4256 454.259 83.7624Z" fill="black"/>
<path d="M454.259 83.7624C454.259 129.099 417.506 165.852 372.169 165.852C326.832 165.852 290.08 129.099 290.08 83.7624C290.08 38.4256 326.832 1.67285 372.169 1.67285C417.506 1.67285 454.259 38.4256 454.259 83.7624Z" fill="url(#paint13_linear_1499_3122)"/>
<path d="M454.259 83.7624C454.259 129.099 417.506 165.852 372.169 165.852C326.832 165.852 290.08 129.099 290.08 83.7624C290.08 38.4256 326.832 1.67285 372.169 1.67285C417.506 1.67285 454.259 38.4256 454.259 83.7624Z" stroke="#008C8F" stroke-width="2.22018"/>
<circle cx="633.439" cy="519.502" r="82.0895" transform="rotate(-180 633.439 519.502)" fill="black"/>
<circle cx="633.439" cy="519.502" r="82.0895" transform="rotate(-180 633.439 519.502)" fill="url(#paint14_linear_1499_3122)"/>
<circle cx="633.439" cy="519.502" r="82.0895" transform="rotate(-180 633.439 519.502)" stroke="#008C8F" stroke-width="2.22018"/>
<path d="M575.315 500.213H576.913V514H575.315V500.213ZM580.181 503.949H581.44V504.888L581.34 505.788H581.5C581.766 505.201 582.206 504.722 582.818 504.349C583.445 503.963 584.217 503.769 585.136 503.769C586.269 503.769 587.148 504.076 587.774 504.689C588.413 505.301 588.733 506.201 588.733 507.386V514H587.214V507.646C587.214 506.767 587.001 506.107 586.575 505.668C586.162 505.228 585.549 505.008 584.737 505.008C583.818 505.008 583.078 505.281 582.519 505.828C581.973 506.374 581.7 507.146 581.7 508.145V514H580.181V503.949ZM595.475 514.16C593.544 514.16 592.578 513.194 592.578 511.263V510.403V505.068H590.7V503.949H592.578V501.212H594.097V503.949H597.314V505.068H594.097V510.323V511.043C594.097 511.682 594.243 512.148 594.536 512.441C594.843 512.734 595.309 512.881 595.935 512.881C596.428 512.881 596.907 512.814 597.374 512.681V513.92C596.774 514.08 596.141 514.16 595.475 514.16ZM603.737 514.16C602.232 514.16 601.086 513.707 600.3 512.801C599.514 511.882 599.121 510.61 599.121 508.985C599.121 507.359 599.521 506.087 600.32 505.168C601.133 504.236 602.265 503.769 603.717 503.769C605.142 503.769 606.235 504.216 606.994 505.108C607.753 505.987 608.133 507.226 608.133 508.825V509.144H600.66C600.687 510.383 600.96 511.336 601.479 512.002C602.012 512.655 602.785 512.981 603.797 512.981C604.543 512.981 605.149 512.801 605.615 512.441C606.095 512.068 606.415 511.549 606.574 510.883H608.053C607.88 511.909 607.42 512.715 606.674 513.301C605.928 513.873 604.949 514.16 603.737 514.16ZM606.614 508.125C606.548 507.1 606.261 506.307 605.755 505.748C605.262 505.175 604.57 504.888 603.677 504.888C602.798 504.888 602.105 505.168 601.599 505.728C601.106 506.287 600.806 507.086 600.7 508.125H606.614ZM610.524 503.949H611.783V504.808L611.703 505.828H611.843C612.056 505.201 612.422 504.702 612.942 504.329C613.475 503.956 614.141 503.769 614.94 503.769C615.473 503.769 615.939 503.849 616.339 504.009V505.448C615.886 505.288 615.413 505.208 614.92 505.208C614.001 505.208 613.288 505.508 612.782 506.107C612.289 506.693 612.043 507.526 612.043 508.605V514H610.524V503.949ZM620.895 514.18C619.855 514.18 619.036 513.94 618.437 513.46C617.851 512.981 617.558 512.322 617.558 511.482C617.558 510.696 617.831 510.064 618.377 509.584C618.923 509.105 619.829 508.778 621.094 508.605L624.551 508.205V507.386C624.551 506.56 624.318 505.941 623.852 505.528C623.386 505.102 622.726 504.888 621.874 504.888C621.074 504.888 620.448 505.082 619.995 505.468C619.542 505.854 619.303 506.42 619.276 507.166H617.777C617.804 506.047 618.184 505.201 618.916 504.629C619.649 504.056 620.661 503.769 621.954 503.769C623.326 503.769 624.351 504.082 625.031 504.709C625.723 505.335 626.07 506.24 626.07 507.426V514H624.811V512.961L624.931 512.082H624.731C624.438 512.695 623.965 513.201 623.312 513.6C622.673 513.987 621.867 514.18 620.895 514.18ZM619.076 511.342C619.076 511.889 619.269 512.315 619.656 512.621C620.042 512.914 620.575 513.061 621.254 513.061C622.253 513.061 623.053 512.774 623.652 512.202C624.251 511.629 624.551 510.87 624.551 509.924V509.204L621.334 509.564C620.548 509.671 619.975 509.87 619.616 510.164C619.256 510.443 619.076 510.836 619.076 511.342ZM632.585 518.456C631.905 518.456 631.312 518.383 630.806 518.236L630.786 517.397C631.039 517.49 631.332 517.557 631.665 517.597C631.998 517.65 632.311 517.677 632.605 517.677C633.084 517.677 633.444 517.59 633.684 517.417C633.937 517.257 634.063 517.037 634.063 516.757C634.063 516.265 633.684 516.018 632.924 516.018H631.346V515.858L632.505 514.14C631.212 513.993 630.22 513.467 629.527 512.561C628.848 511.655 628.508 510.457 628.508 508.965C628.508 507.339 628.915 506.067 629.727 505.148C630.553 504.229 631.725 503.769 633.244 503.769C634.483 503.769 635.495 504.082 636.281 504.709C637.067 505.321 637.527 506.187 637.66 507.306H636.101C635.955 506.56 635.635 505.981 635.142 505.568C634.649 505.155 634.01 504.948 633.224 504.948C632.185 504.948 631.392 505.301 630.846 506.007C630.313 506.7 630.047 507.679 630.047 508.945C630.047 510.223 630.32 511.216 630.866 511.922C631.412 512.628 632.198 512.981 633.224 512.981C633.983 512.981 634.609 512.781 635.102 512.381C635.608 511.969 635.941 511.382 636.101 510.623H637.66C637.513 511.702 637.074 512.555 636.341 513.181C635.608 513.807 634.636 514.14 633.424 514.18L632.684 515.279H633.204C633.817 515.279 634.276 515.405 634.583 515.658C634.902 515.925 635.062 516.285 635.062 516.737C635.062 517.284 634.842 517.703 634.403 517.996C633.977 518.303 633.37 518.456 632.585 518.456ZM642.788 514.18C641.749 514.18 640.93 513.94 640.331 513.46C639.745 512.981 639.452 512.322 639.452 511.482C639.452 510.696 639.725 510.064 640.271 509.584C640.817 509.105 641.723 508.778 642.988 508.605L646.445 508.205V507.386C646.445 506.56 646.212 505.941 645.746 505.528C645.279 505.102 644.62 504.888 643.768 504.888C642.968 504.888 642.342 505.082 641.889 505.468C641.436 505.854 641.197 506.42 641.17 507.166H639.671C639.698 506.047 640.078 505.201 640.81 504.629C641.543 504.056 642.555 503.769 643.847 503.769C645.22 503.769 646.245 504.082 646.925 504.709C647.617 505.335 647.964 506.24 647.964 507.426V514H646.705V512.961L646.825 512.082H646.625C646.332 512.695 645.859 513.201 645.206 513.6C644.567 513.987 643.761 514.18 642.788 514.18ZM640.97 511.342C640.97 511.889 641.163 512.315 641.55 512.621C641.936 512.914 642.469 513.061 643.148 513.061C644.147 513.061 644.946 512.774 645.546 512.202C646.145 511.629 646.445 510.87 646.445 509.924V509.204L643.228 509.564C642.442 509.671 641.869 509.87 641.51 510.164C641.15 510.443 640.97 510.836 640.97 511.342ZM645.206 502.511C644.9 502.511 644.633 502.457 644.407 502.351C644.194 502.244 643.927 502.084 643.608 501.871C643.341 501.698 643.135 501.578 642.988 501.511C642.855 501.432 642.695 501.392 642.509 501.392C642.202 501.392 641.976 501.498 641.829 501.711C641.683 501.911 641.616 502.164 641.629 502.471H640.77C640.73 501.898 640.857 501.412 641.15 501.012C641.456 500.612 641.916 500.413 642.529 500.413C642.835 500.413 643.095 500.466 643.308 500.572C643.521 500.679 643.774 500.832 644.067 501.032C644.294 501.192 644.487 501.312 644.647 501.392C644.807 501.472 644.973 501.511 645.146 501.511C645.439 501.511 645.659 501.412 645.806 501.212C645.952 500.999 646.019 500.746 646.005 500.452H646.905C646.931 501.025 646.798 501.511 646.505 501.911C646.212 502.311 645.779 502.511 645.206 502.511ZM655.078 514.18C653.586 514.18 652.434 513.72 651.621 512.801C650.808 511.869 650.402 510.59 650.402 508.965C650.402 507.339 650.808 506.067 651.621 505.148C652.434 504.229 653.586 503.769 655.078 503.769C656.57 503.769 657.715 504.229 658.515 505.148C659.327 506.067 659.734 507.339 659.734 508.965C659.734 510.59 659.334 511.869 658.535 512.801C657.735 513.72 656.583 514.18 655.078 514.18ZM655.078 512.981C656.104 512.981 656.883 512.628 657.416 511.922C657.949 511.216 658.215 510.23 658.215 508.965C658.215 507.699 657.949 506.72 657.416 506.027C656.883 505.321 656.104 504.968 655.078 504.968C654.052 504.968 653.266 505.321 652.72 506.027C652.187 506.733 651.921 507.712 651.921 508.965C651.921 510.23 652.194 511.216 652.74 511.922C653.286 512.628 654.065 512.981 655.078 512.981ZM671.312 514.16C669.806 514.16 668.661 513.707 667.875 512.801C667.089 511.882 666.696 510.61 666.696 508.985C666.696 507.359 667.095 506.087 667.895 505.168C668.707 504.236 669.84 503.769 671.292 503.769C672.717 503.769 673.809 504.216 674.569 505.108C675.328 505.987 675.708 507.226 675.708 508.825V509.144H668.234C668.261 510.383 668.534 511.336 669.054 512.002C669.586 512.655 670.359 512.981 671.371 512.981C672.117 512.981 672.724 512.801 673.19 512.441C673.669 512.068 673.989 511.549 674.149 510.883H675.628C675.454 511.909 674.995 512.715 674.249 513.301C673.503 513.873 672.524 514.16 671.312 514.16ZM674.189 508.125C674.122 507.1 673.836 506.307 673.33 505.748C672.837 505.175 672.144 504.888 671.252 504.888C670.372 504.888 669.68 505.168 669.174 505.728C668.681 506.287 668.381 507.086 668.274 508.125H674.189ZM678.099 503.949H679.317V504.908L679.218 505.728H679.357C679.597 505.141 679.99 504.669 680.536 504.309C681.096 503.949 681.775 503.769 682.574 503.769C683.294 503.769 683.9 503.929 684.393 504.249C684.886 504.555 685.225 504.988 685.412 505.548L685.332 505.967H685.452C685.692 505.315 686.105 504.788 686.691 504.389C687.29 503.976 688.023 503.769 688.889 503.769C689.888 503.769 690.667 504.049 691.226 504.609C691.799 505.168 692.086 505.967 692.086 507.006V513.98H690.607V507.246C690.607 505.741 689.901 504.988 688.489 504.988C687.676 504.988 687.03 505.241 686.551 505.748C686.071 506.24 685.831 506.927 685.831 507.806V514H684.353V507.246C684.353 506.5 684.173 505.941 683.813 505.568C683.454 505.181 682.921 504.988 682.215 504.988C681.402 504.988 680.763 505.241 680.297 505.748C679.83 506.24 679.597 506.94 679.597 507.846V514H678.099V503.949ZM589.914 538.16C587.983 538.16 587.017 537.194 587.017 535.263V534.403V529.068H585.139V527.949H587.017V525.212H588.535V527.949H591.752V529.068H588.535V534.323V535.043C588.535 535.682 588.682 536.148 588.975 536.441C589.281 536.734 589.748 536.881 590.374 536.881C590.867 536.881 591.346 536.814 591.812 536.681V537.92C591.213 538.08 590.58 538.16 589.914 538.16ZM598.176 538.16C596.67 538.16 595.525 537.707 594.739 536.801C593.953 535.882 593.56 534.61 593.56 532.985C593.56 531.359 593.96 530.087 594.759 529.168C595.571 528.236 596.704 527.769 598.156 527.769C599.581 527.769 600.673 528.216 601.433 529.108C602.192 529.987 602.572 531.226 602.572 532.825V533.144H595.099C595.125 534.383 595.398 535.336 595.918 536.002C596.451 536.655 597.223 536.981 598.236 536.981C598.982 536.981 599.588 536.801 600.054 536.441C600.534 536.068 600.853 535.549 601.013 534.883H602.492C602.319 535.909 601.859 536.715 601.113 537.301C600.367 537.873 599.388 538.16 598.176 538.16ZM601.053 532.125C600.987 531.1 600.7 530.307 600.194 529.748C599.701 529.175 599.008 528.888 598.116 528.888C597.237 528.888 596.544 529.168 596.038 529.728C595.545 530.287 595.245 531.086 595.139 532.125H601.053ZM604.963 527.949H606.182V528.908L606.082 529.728H606.222C606.461 529.141 606.854 528.669 607.401 528.309C607.96 527.949 608.639 527.769 609.439 527.769C610.158 527.769 610.764 527.929 611.257 528.249C611.75 528.555 612.09 528.988 612.276 529.548L612.196 529.967H612.316C612.556 529.315 612.969 528.788 613.555 528.389C614.154 527.976 614.887 527.769 615.753 527.769C616.752 527.769 617.531 528.049 618.091 528.609C618.664 529.168 618.95 529.967 618.95 531.006V537.98H617.471V531.246C617.471 529.741 616.765 528.988 615.353 528.988C614.541 528.988 613.895 529.241 613.415 529.748C612.935 530.24 612.696 530.927 612.696 531.806V538H611.217V531.246C611.217 530.5 611.037 529.941 610.678 529.568C610.318 529.181 609.785 528.988 609.079 528.988C608.266 528.988 607.627 529.241 607.161 529.748C606.695 530.24 606.461 530.94 606.461 531.846V538H604.963V527.949ZM621.705 527.949H622.964V528.968L622.884 529.867H623.044C623.337 529.255 623.79 528.755 624.403 528.369C625.015 527.969 625.755 527.769 626.621 527.769C627.953 527.769 628.978 528.242 629.698 529.188C630.43 530.121 630.797 531.379 630.797 532.965C630.797 534.563 630.43 535.835 629.698 536.781C628.965 537.714 627.933 538.18 626.601 538.18C625.735 538.18 624.989 537.987 624.363 537.6C623.75 537.201 623.304 536.688 623.024 536.062H622.884L622.964 536.721L623.244 537.321V541.557H621.705V527.949ZM626.221 536.981C627.193 536.981 627.939 536.628 628.459 535.922C628.978 535.203 629.238 534.223 629.238 532.985C629.238 531.746 628.972 530.773 628.439 530.067C627.919 529.348 627.18 528.988 626.221 528.988C625.289 528.988 624.556 529.341 624.023 530.047C623.49 530.74 623.224 531.719 623.224 532.985C623.224 534.263 623.49 535.249 624.023 535.942C624.556 536.635 625.289 536.981 626.221 536.981ZM637.614 538.18C636.122 538.18 634.969 537.72 634.157 536.801C633.344 535.869 632.938 534.59 632.938 532.965C632.938 531.339 633.344 530.067 634.157 529.148C634.969 528.229 636.122 527.769 637.614 527.769C639.105 527.769 640.251 528.229 641.05 529.148C641.863 530.067 642.269 531.339 642.269 532.965C642.269 534.59 641.87 535.869 641.07 536.801C640.271 537.72 639.119 538.18 637.614 538.18ZM637.614 536.981C638.639 536.981 639.419 536.628 639.951 535.922C640.484 535.216 640.751 534.23 640.751 532.965C640.751 531.699 640.484 530.72 639.951 530.027C639.419 529.321 638.639 528.968 637.614 528.968C636.588 528.968 635.802 529.321 635.256 530.027C634.723 530.733 634.456 531.712 634.456 532.965C634.456 534.23 634.729 535.216 635.276 535.922C635.822 536.628 636.601 536.981 637.614 536.981ZM649.531 527.949H650.79V528.808L650.71 529.828H650.85C651.063 529.201 651.429 528.702 651.949 528.329C652.482 527.956 653.148 527.769 653.947 527.769C654.48 527.769 654.946 527.849 655.346 528.009V529.448C654.893 529.288 654.42 529.208 653.927 529.208C653.008 529.208 652.295 529.508 651.789 530.107C651.296 530.693 651.05 531.526 651.05 532.605V538H649.531V527.949ZM661.243 538.16C659.737 538.16 658.592 537.707 657.806 536.801C657.02 535.882 656.627 534.61 656.627 532.985C656.627 531.359 657.027 530.087 657.826 529.168C658.638 528.236 659.771 527.769 661.223 527.769C662.648 527.769 663.74 528.216 664.5 529.108C665.259 529.987 665.639 531.226 665.639 532.825V533.144H658.166C658.192 534.383 658.465 535.336 658.985 536.002C659.518 536.655 660.29 536.981 661.303 536.981C662.049 536.981 662.655 536.801 663.121 536.441C663.601 536.068 663.92 535.549 664.08 534.883H665.559C665.386 535.909 664.926 536.715 664.18 537.301C663.434 537.873 662.455 538.16 661.243 538.16ZM664.12 532.125C664.053 531.1 663.767 530.307 663.261 529.748C662.768 529.175 662.075 528.888 661.183 528.888C660.304 528.888 659.611 529.168 659.105 529.728C658.612 530.287 658.312 531.086 658.205 532.125H664.12ZM670.907 538.18C669.868 538.18 669.049 537.94 668.449 537.46C667.863 536.981 667.57 536.322 667.57 535.482C667.57 534.696 667.843 534.064 668.389 533.584C668.936 533.105 669.841 532.778 671.107 532.605L674.564 532.205V531.386C674.564 530.56 674.331 529.941 673.864 529.528C673.398 529.102 672.739 528.888 671.886 528.888C671.087 528.888 670.461 529.082 670.008 529.468C669.555 529.854 669.315 530.42 669.289 531.166H667.79C667.817 530.047 668.196 529.201 668.929 528.629C669.662 528.056 670.674 527.769 671.966 527.769C673.338 527.769 674.364 528.082 675.043 528.709C675.736 529.335 676.082 530.24 676.082 531.426V538H674.823V536.961L674.943 536.082H674.744C674.45 536.695 673.978 537.201 673.325 537.6C672.685 537.987 671.88 538.18 670.907 538.18ZM669.089 535.342C669.089 535.889 669.282 536.315 669.668 536.621C670.055 536.914 670.587 537.061 671.267 537.061C672.266 537.061 673.065 536.774 673.665 536.202C674.264 535.629 674.564 534.87 674.564 533.924V533.204L671.347 533.564C670.561 533.671 669.988 533.87 669.628 534.164C669.269 534.443 669.089 534.836 669.089 535.342ZM679.14 523.613H680.639V538H679.14V523.613Z" fill="white"/>
<circle cx="83.8153" cy="519.502" r="82.0895" transform="rotate(-180 83.8153 519.502)" fill="black"/>
<circle cx="83.8153" cy="519.502" r="82.0895" transform="rotate(-180 83.8153 519.502)" fill="url(#paint15_linear_1499_3122)"/>
<circle cx="83.8153" cy="519.502" r="82.0895" transform="rotate(-180 83.8153 519.502)" stroke="#008C8F" stroke-width="2.22018"/>
<path d="M40.899 508.78L45.6346 495.213H47.9725L52.7081 508.78V509H51.1495L50.0905 505.943H43.4966L42.4376 509H40.899V508.78ZM49.6309 504.644L47.0133 497.111L46.9134 496.511H46.6537L46.5538 497.111L43.9362 504.644H49.6309ZM54.6746 498.949H55.8935V499.908L55.7935 500.728H55.9334C56.1732 500.141 56.5662 499.669 57.1123 499.309C57.6718 498.949 58.3512 498.769 59.1505 498.769C59.8698 498.769 60.4759 498.929 60.9688 499.249C61.4617 499.555 61.8013 499.988 61.9878 500.548L61.9079 500.967H62.0278C62.2676 500.315 62.6805 499.788 63.2667 499.389C63.8661 498.976 64.5988 498.769 65.4646 498.769C66.4637 498.769 67.243 499.049 67.8025 499.609C68.3753 500.168 68.6617 500.967 68.6617 502.006V508.98H67.1831V502.246C67.1831 500.741 66.477 499.988 65.065 499.988C64.2524 499.988 63.6064 500.241 63.1268 500.748C62.6472 501.24 62.4075 501.927 62.4075 502.806V509H60.9288V502.246C60.9288 501.5 60.749 500.941 60.3893 500.568C60.0296 500.181 59.4968 499.988 58.7908 499.988C57.9782 499.988 57.3388 500.241 56.8726 500.748C56.4063 501.24 56.1732 501.94 56.1732 502.846V509H54.6746V498.949ZM76.3324 509.16C75.4666 509.16 74.7273 508.967 74.1145 508.58C73.5017 508.194 73.0488 507.695 72.7557 507.082H72.5959L72.6758 507.981V509H71.417V494.613H72.9556V499.629L72.6758 500.228L72.5959 500.887H72.7358C73.0155 500.261 73.4618 499.755 74.0745 499.369C74.7006 498.969 75.4466 498.769 76.3125 498.769C77.6313 498.769 78.657 499.242 79.3896 500.188C80.1223 501.121 80.4886 502.386 80.4886 503.985C80.4886 505.557 80.1223 506.815 79.3896 507.761C78.6703 508.694 77.6512 509.16 76.3324 509.16ZM75.9328 507.961C76.8919 507.961 77.6313 507.595 78.1508 506.862C78.6836 506.129 78.95 505.164 78.95 503.965C78.9367 502.739 78.6703 501.767 78.1508 501.047C77.6446 500.328 76.9053 499.968 75.9328 499.968C74.987 499.968 74.2477 500.328 73.7149 501.047C73.1953 501.753 72.9356 502.699 72.9356 503.885C72.9356 505.15 73.1953 506.149 73.7149 506.882C74.2344 507.601 74.9737 507.961 75.9328 507.961ZM83.1491 498.949H84.6677V509H83.1491V498.949ZM83.0093 494.613H84.7876V497.051H83.0093V494.613ZM91.929 509.16C90.4237 509.16 89.2781 508.707 88.4922 507.801C87.7062 506.882 87.3133 505.61 87.3133 503.985C87.3133 502.359 87.7129 501.087 88.5122 500.168C89.3248 499.236 90.457 498.769 91.909 498.769C93.3344 498.769 94.4267 499.216 95.186 500.108C95.9453 500.987 96.325 502.226 96.325 503.825V504.144H88.8519C88.8785 505.383 89.1516 506.336 89.6711 507.002C90.2039 507.655 90.9766 507.981 91.989 507.981C92.735 507.981 93.3411 507.801 93.8073 507.441C94.2869 507.068 94.6066 506.549 94.7664 505.883H96.2451C96.0719 506.909 95.6123 507.715 94.8663 508.301C94.1203 508.873 93.1412 509.16 91.929 509.16ZM94.8064 503.125C94.7398 502.1 94.4534 501.307 93.9472 500.748C93.4543 500.175 92.7616 499.888 91.8691 499.888C90.9899 499.888 90.2972 500.168 89.791 500.728C89.2981 501.287 88.9984 502.086 88.8918 503.125H94.8064ZM98.7161 498.949H99.9749V499.888L99.875 500.788H100.035C100.301 500.201 100.741 499.722 101.354 499.349C101.98 498.963 102.752 498.769 103.671 498.769C104.804 498.769 105.683 499.076 106.309 499.689C106.948 500.301 107.268 501.201 107.268 502.386V509H105.75V502.646C105.75 501.767 105.536 501.107 105.11 500.668C104.697 500.228 104.084 500.008 103.272 500.008C102.353 500.008 101.613 500.281 101.054 500.828C100.508 501.374 100.235 502.146 100.235 503.145V509H98.7161V498.949ZM114.011 509.16C112.079 509.16 111.113 508.194 111.113 506.263V505.403V500.068H109.235V498.949H111.113V496.212H112.632V498.949H115.849V500.068H112.632V505.323V506.043C112.632 506.682 112.778 507.148 113.071 507.441C113.378 507.734 113.844 507.881 114.47 507.881C114.963 507.881 115.443 507.814 115.909 507.681V508.92C115.309 509.08 114.677 509.16 114.011 509.16ZM122.272 509.16C120.767 509.16 119.621 508.707 118.835 507.801C118.049 506.882 117.656 505.61 117.656 503.985C117.656 502.359 118.056 501.087 118.855 500.168C119.668 499.236 120.8 498.769 122.252 498.769C123.678 498.769 124.77 499.216 125.529 500.108C126.288 500.987 126.668 502.226 126.668 503.825V504.144H119.195C119.222 505.383 119.495 506.336 120.014 507.002C120.547 507.655 121.32 507.981 122.332 507.981C123.078 507.981 123.684 507.801 124.15 507.441C124.63 507.068 124.95 506.549 125.11 505.883H126.588C126.415 506.909 125.955 507.715 125.209 508.301C124.463 508.873 123.484 509.16 122.272 509.16ZM125.15 503.125C125.083 502.1 124.797 501.307 124.29 500.748C123.797 500.175 123.105 499.888 122.212 499.888C121.333 499.888 120.64 500.168 120.134 500.728C119.641 501.287 119.342 502.086 119.235 503.125H125.15ZM38.6557 521.211C38.6557 519.359 39.5616 518.433 41.3732 518.433C41.9594 518.433 42.4922 518.513 42.9718 518.673V519.892C42.5588 519.746 42.1392 519.672 41.7129 519.672C41.1934 519.672 40.8071 519.805 40.554 520.072C40.3009 520.338 40.1743 520.751 40.1743 521.311V522.949H42.8319V524.068H40.1743V533H38.6557V524.068H37.0172V522.949H38.6557V521.211ZM48.4939 533.18C47.0019 533.18 45.8496 532.72 45.037 531.801C44.2245 530.869 43.8182 529.59 43.8182 527.965C43.8182 526.339 44.2245 525.067 45.037 524.148C45.8496 523.229 47.0019 522.769 48.4939 522.769C49.9858 522.769 51.1314 523.229 51.9307 524.148C52.7433 525.067 53.1496 526.339 53.1496 527.965C53.1496 529.59 52.7499 530.869 51.9507 531.801C51.1514 532.72 49.9991 533.18 48.4939 533.18ZM48.4939 531.981C49.5196 531.981 50.2989 531.628 50.8317 530.922C51.3645 530.216 51.631 529.23 51.631 527.965C51.631 526.699 51.3645 525.72 50.8317 525.027C50.2989 524.321 49.5196 523.968 48.4939 523.968C47.4681 523.968 46.6822 524.321 46.136 525.027C45.6032 525.733 45.3368 526.712 45.3368 527.965C45.3368 529.23 45.6098 530.216 46.156 530.922C46.7022 531.628 47.4815 531.981 48.4939 531.981ZM60.0076 533.18C58.489 533.18 57.3234 532.72 56.5109 531.801C55.6983 530.869 55.292 529.59 55.292 527.965C55.292 526.339 55.6983 525.067 56.5109 524.148C57.3368 523.229 58.509 522.769 60.0276 522.769C61.2665 522.769 62.2789 523.082 63.0648 523.709C63.8508 524.321 64.3103 525.187 64.4435 526.306H62.885C62.7385 525.56 62.4187 524.981 61.9259 524.568C61.433 524.155 60.7936 523.948 60.0076 523.948C58.9686 523.948 58.176 524.301 57.6298 525.007C57.097 525.7 56.8306 526.679 56.8306 527.945C56.8306 529.223 57.1036 530.216 57.6498 530.922C58.196 531.628 58.9819 531.981 60.0076 531.981C60.7669 531.981 61.393 531.781 61.8859 531.381C62.3921 530.969 62.7251 530.382 62.885 529.623H64.4435C64.297 530.729 63.8374 531.601 63.0648 532.241C62.2922 532.867 61.2731 533.18 60.0076 533.18ZM69.5721 533.18C68.5331 533.18 67.7138 532.94 67.1144 532.46C66.5282 531.981 66.2352 531.322 66.2352 530.482C66.2352 529.696 66.5083 529.064 67.0544 528.584C67.6006 528.105 68.5064 527.778 69.7719 527.605L73.2287 527.205V526.386C73.2287 525.56 72.9956 524.941 72.5294 524.528C72.0631 524.102 71.4038 523.888 70.5512 523.888C69.7519 523.888 69.1259 524.082 68.6729 524.468C68.22 524.854 67.9802 525.42 67.9536 526.166H66.455C66.4816 525.047 66.8613 524.201 67.5939 523.629C68.3266 523.056 69.339 522.769 70.6311 522.769C72.0032 522.769 73.0289 523.082 73.7083 523.709C74.401 524.335 74.7473 525.24 74.7473 526.426V533H73.4885V531.961L73.6084 531.082H73.4086C73.1155 531.695 72.6426 532.201 71.9899 532.6C71.3505 532.987 70.5445 533.18 69.5721 533.18ZM67.7538 530.342C67.7538 530.889 67.9469 531.315 68.3332 531.621C68.7196 531.914 69.2524 532.061 69.9318 532.061C70.9309 532.061 71.7301 531.774 72.3296 531.202C72.929 530.629 73.2287 529.87 73.2287 528.924V528.204L70.0117 528.564C69.2258 528.671 68.653 528.87 68.2933 529.164C67.9336 529.443 67.7538 529.836 67.7538 530.342ZM81.3421 533.16C80.0233 533.16 78.9975 532.694 78.2649 531.761C77.5455 530.815 77.1859 529.557 77.1859 527.985C77.1859 526.386 77.5522 525.121 78.2849 524.188C79.0175 523.242 80.0432 522.769 81.362 522.769C82.2279 522.769 82.9672 522.969 83.58 523.369C84.2061 523.755 84.659 524.261 84.9387 524.887H85.0786L84.9987 524.228L84.7389 523.629V518.613H86.2575V533H84.9987V531.981L85.0786 531.082H84.9188C84.6257 531.695 84.1728 532.194 83.56 532.58C82.9472 532.967 82.2079 533.16 81.3421 533.16ZM81.7417 531.961C82.6742 531.961 83.4068 531.615 83.9397 530.922C84.4725 530.216 84.7389 529.223 84.7389 527.945C84.7389 526.679 84.4725 525.7 83.9397 525.007C83.4068 524.315 82.6742 523.968 81.7417 523.968C80.7692 523.968 80.0233 524.328 79.5037 525.047C78.9842 525.753 78.7245 526.726 78.7245 527.965C78.7245 529.203 78.9842 530.183 79.5037 530.902C80.0366 531.608 80.7826 531.961 81.7417 531.961ZM93.2378 533.18C91.7459 533.18 90.5936 532.72 89.781 531.801C88.9684 530.869 88.5621 529.59 88.5621 527.965C88.5621 526.339 88.9684 525.067 89.781 524.148C90.5936 523.229 91.7459 522.769 93.2378 522.769C94.7298 522.769 95.8754 523.229 96.6747 524.148C97.4872 525.067 97.8935 526.339 97.8935 527.965C97.8935 529.59 97.4939 530.869 96.6946 531.801C95.8954 532.72 94.7431 533.18 93.2378 533.18ZM93.2378 531.981C94.2635 531.981 95.0428 531.628 95.5757 530.922C96.1085 530.216 96.3749 529.23 96.3749 527.965C96.3749 526.699 96.1085 525.72 95.5757 525.027C95.0428 524.321 94.2635 523.968 93.2378 523.968C92.2121 523.968 91.4262 524.321 90.88 525.027C90.3472 525.733 90.0807 526.712 90.0807 527.965C90.0807 529.23 90.3538 530.216 90.9 530.922C91.4461 531.628 92.2254 531.981 93.2378 531.981ZM109.471 533.16C107.966 533.16 106.821 532.707 106.035 531.801C105.249 530.882 104.856 529.61 104.856 527.985C104.856 526.359 105.255 525.087 106.055 524.168C106.867 523.236 107.999 522.769 109.451 522.769C110.877 522.769 111.969 523.216 112.728 524.108C113.488 524.987 113.867 526.226 113.867 527.825V528.144H106.394C106.421 529.383 106.694 530.336 107.214 531.002C107.746 531.655 108.519 531.981 109.531 531.981C110.277 531.981 110.884 531.801 111.35 531.441C111.829 531.068 112.149 530.549 112.309 529.883H113.788C113.614 530.909 113.155 531.715 112.409 532.301C111.663 532.873 110.684 533.16 109.471 533.16ZM112.349 527.125C112.282 526.1 111.996 525.307 111.49 524.748C110.997 524.175 110.304 523.888 109.412 523.888C108.532 523.888 107.84 524.168 107.333 524.728C106.841 525.287 106.541 526.086 106.434 527.125H112.349ZM116.259 522.949H117.477V523.908L117.377 524.728H117.517C117.757 524.141 118.15 523.669 118.696 523.309C119.256 522.949 119.935 522.769 120.734 522.769C121.454 522.769 122.06 522.929 122.553 523.249C123.046 523.555 123.385 523.988 123.572 524.548L123.492 524.967H123.612C123.852 524.315 124.264 523.788 124.851 523.389C125.45 522.976 126.183 522.769 127.049 522.769C128.048 522.769 128.827 523.049 129.386 523.609C129.959 524.168 130.246 524.967 130.246 526.006V532.98H128.767V526.246C128.767 524.741 128.061 523.988 126.649 523.988C125.836 523.988 125.19 524.241 124.711 524.748C124.231 525.24 123.991 525.927 123.991 526.806V533H122.513V526.246C122.513 525.5 122.333 524.941 121.973 524.568C121.614 524.181 121.081 523.988 120.375 523.988C119.562 523.988 118.923 524.241 118.456 524.748C117.99 525.24 117.757 525.94 117.757 526.846V533H116.259V522.949ZM56.0172 558.18C54.4986 558.18 53.333 557.72 52.5204 556.801C51.7078 555.869 51.3015 554.59 51.3015 552.965C51.3015 551.339 51.7078 550.067 52.5204 549.148C53.3463 548.229 54.5185 547.769 56.0371 547.769C57.276 547.769 58.2884 548.082 59.0744 548.709C59.8603 549.321 60.3199 550.187 60.4531 551.306H58.8945C58.748 550.56 58.4283 549.981 57.9354 549.568C57.4425 549.155 56.8031 548.948 56.0172 548.948C54.9781 548.948 54.1855 549.301 53.6394 550.007C53.1065 550.7 52.8401 551.679 52.8401 552.945C52.8401 554.223 53.1132 555.216 53.6593 555.922C54.2055 556.628 54.9914 556.981 56.0172 556.981C56.7765 556.981 57.4026 556.781 57.8954 556.381C58.4016 555.969 58.7347 555.382 58.8945 554.623H60.4531C60.3066 555.729 59.847 556.601 59.0744 557.241C58.3017 557.867 57.2827 558.18 56.0172 558.18ZM62.7043 547.949H63.9631V548.808L63.8832 549.828H64.0231C64.2362 549.201 64.6025 548.702 65.1221 548.329C65.6549 547.956 66.321 547.769 67.1202 547.769C67.6531 547.769 68.1193 547.849 68.5189 548.009V549.448C68.066 549.288 67.5931 549.208 67.1002 549.208C66.1811 549.208 65.4684 549.508 64.9622 550.107C64.4693 550.693 64.2229 551.526 64.2229 552.605V558H62.7043V547.949ZM70.5338 547.949H72.0524V558H70.5338V547.949ZM70.3939 543.613H72.1723V546.051H70.3939V543.613ZM77.875 558.18C76.836 558.18 76.0167 557.94 75.4173 557.46C74.8311 556.981 74.5381 556.322 74.5381 555.482C74.5381 554.696 74.8112 554.064 75.3573 553.584C75.9035 553.105 76.8093 552.778 78.0748 552.605L81.5316 552.205V551.386C81.5316 550.56 81.2985 549.941 80.8323 549.528C80.3661 549.102 79.7067 548.888 78.8541 548.888C78.0548 548.888 77.4288 549.082 76.9758 549.468C76.5229 549.854 76.2831 550.42 76.2565 551.166H74.7579C74.7845 550.047 75.1642 549.201 75.8968 548.629C76.6295 548.056 77.6419 547.769 78.934 547.769C80.3061 547.769 81.3318 548.082 82.0112 548.709C82.7039 549.335 83.0502 550.24 83.0502 551.426V558H81.7914V556.961L81.9113 556.082H81.7115C81.4184 556.695 80.9455 557.201 80.2928 557.6C79.6534 557.987 78.8475 558.18 77.875 558.18ZM76.0567 555.342C76.0567 555.889 76.2498 556.315 76.6362 556.621C77.0225 556.914 77.5553 557.061 78.2347 557.061C79.2338 557.061 80.033 556.774 80.6325 556.202C81.2319 555.629 81.5316 554.87 81.5316 553.924V553.204L78.3146 553.564C77.5287 553.671 76.9559 553.87 76.5962 554.164C76.2365 554.443 76.0567 554.836 76.0567 555.342ZM89.565 562.456C88.8857 562.456 88.2929 562.383 87.7867 562.236L87.7667 561.397C88.0198 561.49 88.3128 561.557 88.6459 561.597C88.9789 561.65 89.2919 561.677 89.585 561.677C90.0646 561.677 90.4242 561.59 90.664 561.417C90.9171 561.257 91.0437 561.037 91.0437 560.757C91.0437 560.265 90.664 560.018 89.9047 560.018H88.3262V559.858L89.4851 558.14C88.193 557.993 87.2005 557.467 86.5078 556.561C85.8285 555.655 85.4888 554.457 85.4888 552.965C85.4888 551.339 85.8951 550.067 86.7077 549.148C87.5336 548.229 88.7058 547.769 90.2244 547.769C91.4633 547.769 92.4757 548.082 93.2616 548.709C94.0476 549.321 94.5071 550.187 94.6404 551.306H93.0818C92.9353 550.56 92.6156 549.981 92.1227 549.568C91.6298 549.155 90.9904 548.948 90.2044 548.948C89.1654 548.948 88.3728 549.301 87.8266 550.007C87.2938 550.7 87.0274 551.679 87.0274 552.945C87.0274 554.223 87.3004 555.216 87.8466 555.922C88.3928 556.628 89.1787 556.981 90.2044 556.981C90.9637 556.981 91.5898 556.781 92.0827 556.381C92.5889 555.969 92.9219 555.382 93.0818 554.623H94.6404C94.4938 555.702 94.0542 556.555 93.3216 557.181C92.5889 557.807 91.6165 558.14 90.4043 558.18L89.6649 559.279H90.1845C90.7972 559.279 91.2568 559.405 91.5632 559.658C91.8829 559.925 92.0427 560.285 92.0427 560.737C92.0427 561.284 91.823 561.703 91.3834 561.996C90.9571 562.303 90.351 562.456 89.565 562.456ZM99.7689 558.18C98.7299 558.18 97.9106 557.94 97.3112 557.46C96.7251 556.981 96.432 556.322 96.432 555.482C96.432 554.696 96.7051 554.064 97.2512 553.584C97.7974 553.105 98.7032 552.778 99.9687 552.605L103.426 552.205V551.386C103.426 550.56 103.192 549.941 102.726 549.528C102.26 549.102 101.601 548.888 100.748 548.888C99.9487 548.888 99.3227 549.082 98.8697 549.468C98.4168 549.854 98.177 550.42 98.1504 551.166H96.6518C96.6784 550.047 97.0581 549.201 97.7907 548.629C98.5234 548.056 99.5358 547.769 100.828 547.769C102.2 547.769 103.226 548.082 103.905 548.709C104.598 549.335 104.944 550.24 104.944 551.426V558H103.685V556.961L103.805 556.082H103.605C103.312 556.695 102.839 557.201 102.187 557.6C101.547 557.987 100.741 558.18 99.7689 558.18ZM97.9506 555.342C97.9506 555.889 98.1437 556.315 98.5301 556.621C98.9164 556.914 99.4492 557.061 100.129 557.061C101.128 557.061 101.927 556.774 102.526 556.202C103.126 555.629 103.426 554.87 103.426 553.924V553.204L100.209 553.564C99.4226 553.671 98.8498 553.87 98.4901 554.164C98.1304 554.443 97.9506 554.836 97.9506 555.342ZM102.187 546.511C101.88 546.511 101.614 546.457 101.387 546.351C101.174 546.244 100.908 546.084 100.588 545.871C100.322 545.698 100.115 545.578 99.9687 545.511C99.8355 545.432 99.6757 545.392 99.4892 545.392C99.1828 545.392 98.9563 545.498 98.8098 545.711C98.6633 545.911 98.5967 546.164 98.61 546.471H97.7508C97.7108 545.898 97.8374 545.412 98.1304 545.012C98.4368 544.612 98.8964 544.413 99.5092 544.413C99.8155 544.413 100.075 544.466 100.288 544.572C100.502 544.679 100.755 544.832 101.048 545.032C101.274 545.192 101.467 545.312 101.627 545.392C101.787 545.472 101.954 545.511 102.127 545.511C102.42 545.511 102.64 545.412 102.786 545.212C102.933 544.999 102.999 544.746 102.986 544.452H103.885C103.912 545.025 103.779 545.511 103.485 545.911C103.192 546.311 102.759 546.511 102.187 546.511ZM112.058 558.18C110.566 558.18 109.414 557.72 108.602 556.801C107.789 555.869 107.383 554.59 107.383 552.965C107.383 551.339 107.789 550.067 108.602 549.148C109.414 548.229 110.566 547.769 112.058 547.769C113.55 547.769 114.696 548.229 115.495 549.148C116.308 550.067 116.714 551.339 116.714 552.965C116.714 554.59 116.314 555.869 115.515 556.801C114.716 557.72 113.564 558.18 112.058 558.18ZM112.058 556.981C113.084 556.981 113.863 556.628 114.396 555.922C114.929 555.216 115.195 554.23 115.195 552.965C115.195 551.699 114.929 550.72 114.396 550.027C113.863 549.321 113.084 548.968 112.058 548.968C111.033 548.968 110.247 549.321 109.701 550.027C109.168 550.733 108.901 551.712 108.901 552.965C108.901 554.23 109.174 555.216 109.721 555.922C110.267 556.628 111.046 556.981 112.058 556.981Z" fill="white"/>
<circle cx="372.169" cy="659.61" r="82.0895" transform="rotate(-180 372.169 659.61)" fill="black"/>
<circle cx="372.169" cy="659.61" r="82.0895" transform="rotate(-180 372.169 659.61)" fill="url(#paint16_linear_1499_3122)"/>
<circle cx="372.169" cy="659.61" r="82.0895" transform="rotate(-180 372.169 659.61)" stroke="#008C8F" stroke-width="2.22018"/>
<path d="M319.178 654.878C317.592 654.878 316.347 654.545 315.441 653.879C314.535 653.213 314.002 652.241 313.843 650.962H315.501C315.661 651.854 316.054 652.527 316.68 652.98C317.319 653.433 318.172 653.659 319.238 653.659C320.25 653.659 321.069 653.426 321.695 652.96C322.335 652.494 322.654 651.868 322.654 651.082C322.654 650.442 322.441 649.916 322.015 649.503C321.602 649.077 320.943 648.737 320.037 648.484L317.299 647.865C315.248 647.345 314.222 646.199 314.222 644.428C314.222 643.708 314.415 643.076 314.802 642.53C315.188 641.97 315.748 641.537 316.48 641.231C317.226 640.924 318.099 640.771 319.098 640.771C320.523 640.771 321.669 641.104 322.535 641.77C323.414 642.423 323.927 643.369 324.073 644.608H322.435C322.288 643.715 321.915 643.056 321.316 642.629C320.73 642.203 319.984 641.99 319.078 641.99C318.092 641.99 317.313 642.203 316.74 642.629C316.167 643.056 315.881 643.622 315.881 644.328C315.881 645.447 316.593 646.193 318.019 646.566L320.776 647.205C321.988 647.525 322.881 647.998 323.454 648.624C324.04 649.237 324.333 650.009 324.333 650.942C324.333 651.728 324.126 652.42 323.714 653.02C323.301 653.606 322.701 654.066 321.915 654.399C321.143 654.718 320.23 654.878 319.178 654.878ZM330.339 654.918C329.234 654.918 328.375 654.612 327.762 653.999C327.149 653.386 326.843 652.487 326.843 651.301V644.688H328.361V651.062C328.361 651.914 328.561 652.567 328.961 653.02C329.374 653.459 329.973 653.679 330.759 653.679C331.652 653.679 332.364 653.406 332.897 652.86C333.43 652.314 333.696 651.548 333.696 650.562V644.688H335.215V654.738H333.956V653.779L334.036 652.88H333.916C333.65 653.466 333.21 653.952 332.597 654.339C331.998 654.725 331.245 654.918 330.339 654.918ZM337.946 644.688H339.205V645.707L339.125 646.606H339.284C339.578 645.993 340.03 645.493 340.643 645.107C341.256 644.708 341.995 644.508 342.861 644.508C344.193 644.508 345.219 644.981 345.938 645.926C346.671 646.859 347.037 648.118 347.037 649.703C347.037 651.301 346.671 652.574 345.938 653.519C345.206 654.452 344.173 654.918 342.841 654.918C341.975 654.918 341.229 654.725 340.603 654.339C339.991 653.939 339.544 653.426 339.265 652.8H339.125L339.205 653.459L339.484 654.059V658.295H337.946V644.688ZM342.462 653.719C343.434 653.719 344.18 653.366 344.7 652.66C345.219 651.941 345.479 650.962 345.479 649.723C345.479 648.484 345.212 647.512 344.68 646.806C344.16 646.086 343.421 645.727 342.462 645.727C341.529 645.727 340.796 646.08 340.264 646.786C339.731 647.478 339.464 648.457 339.464 649.723C339.464 651.002 339.731 651.987 340.264 652.68C340.796 653.373 341.529 653.719 342.462 653.719ZM353.854 654.918C352.362 654.918 351.21 654.459 350.397 653.539C349.585 652.607 349.178 651.328 349.178 649.703C349.178 648.078 349.585 646.806 350.397 645.886C351.21 644.967 352.362 644.508 353.854 644.508C355.346 644.508 356.492 644.967 357.291 645.886C358.103 646.806 358.51 648.078 358.51 649.703C358.51 651.328 358.11 652.607 357.311 653.539C356.512 654.459 355.359 654.918 353.854 654.918ZM353.854 653.719C354.88 653.719 355.659 653.366 356.192 652.66C356.725 651.954 356.991 650.968 356.991 649.703C356.991 648.437 356.725 647.458 356.192 646.766C355.659 646.06 354.88 645.707 353.854 645.707C352.828 645.707 352.042 646.06 351.496 646.766C350.963 647.472 350.697 648.451 350.697 649.703C350.697 650.968 350.97 651.954 351.516 652.66C352.062 653.366 352.842 653.719 353.854 653.719ZM360.952 644.688H362.211V645.547L362.131 646.566H362.271C362.484 645.94 362.85 645.44 363.37 645.067C363.903 644.694 364.569 644.508 365.368 644.508C365.901 644.508 366.367 644.588 366.767 644.747V646.186C366.314 646.026 365.841 645.946 365.348 645.946C364.429 645.946 363.716 646.246 363.21 646.846C362.717 647.432 362.47 648.264 362.47 649.343V654.738H360.952V644.688ZM372.597 654.898C370.666 654.898 369.7 653.932 369.7 652.001V651.142V645.807H367.822V644.688H369.7V641.95H371.219V644.688H374.436V645.807H371.219V651.062V651.781C371.219 652.42 371.365 652.887 371.658 653.18C371.965 653.473 372.431 653.619 373.057 653.619C373.55 653.619 374.029 653.553 374.496 653.419V654.658C373.896 654.818 373.263 654.898 372.597 654.898ZM380.859 654.898C379.354 654.898 378.208 654.445 377.422 653.539C376.636 652.62 376.243 651.348 376.243 649.723C376.243 648.098 376.643 646.826 377.442 645.906C378.255 644.974 379.387 644.508 380.839 644.508C382.264 644.508 383.357 644.954 384.116 645.846C384.875 646.726 385.255 647.965 385.255 649.563V649.883H377.782C377.809 651.122 378.082 652.074 378.601 652.74C379.134 653.393 379.907 653.719 380.919 653.719C381.665 653.719 382.271 653.539 382.737 653.18C383.217 652.807 383.537 652.287 383.696 651.621H385.175C385.002 652.647 384.542 653.453 383.796 654.039C383.05 654.612 382.071 654.898 380.859 654.898ZM383.736 648.864C383.67 647.838 383.383 647.045 382.877 646.486C382.384 645.913 381.692 645.627 380.799 645.627C379.92 645.627 379.227 645.906 378.721 646.466C378.228 647.025 377.928 647.825 377.822 648.864H383.736ZM392.466 644.688H393.725V645.707L393.645 646.606H393.805C394.098 645.993 394.551 645.493 395.163 645.107C395.776 644.708 396.515 644.508 397.381 644.508C398.713 644.508 399.739 644.981 400.459 645.926C401.191 646.859 401.557 648.118 401.557 649.703C401.557 651.301 401.191 652.574 400.459 653.519C399.726 654.452 398.693 654.918 397.361 654.918C396.495 654.918 395.75 654.725 395.123 654.339C394.511 653.939 394.064 653.426 393.785 652.8H393.645L393.725 653.459L394.004 654.059V658.295H392.466V644.688ZM396.982 653.719C397.954 653.719 398.7 653.366 399.22 652.66C399.739 651.941 399.999 650.962 399.999 649.723C399.999 648.484 399.733 647.512 399.2 646.806C398.68 646.086 397.941 645.727 396.982 645.727C396.049 645.727 395.317 646.08 394.784 646.786C394.251 647.478 393.984 648.457 393.984 649.723C393.984 651.002 394.251 651.987 394.784 652.68C395.317 653.373 396.049 653.719 396.982 653.719ZM406.876 654.918C405.837 654.918 405.017 654.678 404.418 654.199C403.832 653.719 403.539 653.06 403.539 652.221C403.539 651.435 403.812 650.802 404.358 650.322C404.904 649.843 405.81 649.516 407.075 649.343L410.532 648.944V648.124C410.532 647.298 410.299 646.679 409.833 646.266C409.367 645.84 408.707 645.627 407.855 645.627C407.055 645.627 406.429 645.82 405.976 646.206C405.523 646.592 405.284 647.159 405.257 647.905H403.758C403.785 646.786 404.165 645.94 404.897 645.367C405.63 644.794 406.642 644.508 407.935 644.508C409.307 644.508 410.332 644.821 411.012 645.447C411.704 646.073 412.051 646.979 412.051 648.164V654.738H410.792V653.699L410.912 652.82H410.712C410.419 653.433 409.946 653.939 409.293 654.339C408.654 654.725 407.848 654.918 406.876 654.918ZM405.057 652.081C405.057 652.627 405.25 653.053 405.637 653.36C406.023 653.653 406.556 653.799 407.235 653.799C408.234 653.799 409.034 653.513 409.633 652.94C410.232 652.367 410.532 651.608 410.532 650.662V649.943L407.315 650.302C406.529 650.409 405.956 650.609 405.597 650.902C405.237 651.182 405.057 651.575 405.057 652.081ZM414.789 644.688H416.048V645.547L415.968 646.566H416.108C416.321 645.94 416.687 645.44 417.207 645.067C417.74 644.694 418.406 644.508 419.205 644.508C419.738 644.508 420.204 644.588 420.604 644.747V646.186C420.151 646.026 419.678 645.946 419.185 645.946C418.266 645.946 417.553 646.246 417.047 646.846C416.554 647.432 416.308 648.264 416.308 649.343V654.738H414.789V644.688ZM425.16 654.918C424.12 654.918 423.301 654.678 422.702 654.199C422.116 653.719 421.823 653.06 421.823 652.221C421.823 651.435 422.096 650.802 422.642 650.322C423.188 649.843 424.094 649.516 425.359 649.343L428.816 648.944V648.124C428.816 647.298 428.583 646.679 428.117 646.266C427.651 645.84 426.991 645.627 426.139 645.627C425.339 645.627 424.713 645.82 424.26 646.206C423.807 646.592 423.568 647.159 423.541 647.905H422.042C422.069 646.786 422.449 645.94 423.181 645.367C423.914 644.794 424.926 644.508 426.219 644.508C427.591 644.508 428.616 644.821 429.296 645.447C429.988 646.073 430.335 646.979 430.335 648.164V654.738H429.076V653.699L429.196 652.82H428.996C428.703 653.433 428.23 653.939 427.577 654.339C426.938 654.725 426.132 654.918 425.16 654.918ZM423.341 652.081C423.341 652.627 423.534 653.053 423.921 653.36C424.307 653.653 424.84 653.799 425.519 653.799C426.518 653.799 427.318 653.513 427.917 652.94C428.516 652.367 428.816 651.608 428.816 650.662V649.943L425.599 650.302C424.813 650.409 424.24 650.609 423.881 650.902C423.521 651.182 423.341 651.575 423.341 652.081ZM337.419 668.688H338.678V669.707L338.598 670.606H338.758C339.051 669.993 339.504 669.493 340.116 669.107C340.729 668.708 341.468 668.508 342.334 668.508C343.666 668.508 344.692 668.981 345.412 669.926C346.144 670.859 346.511 672.118 346.511 673.703C346.511 675.301 346.144 676.574 345.412 677.519C344.679 678.452 343.646 678.918 342.314 678.918C341.448 678.918 340.703 678.725 340.076 678.339C339.464 677.939 339.017 677.426 338.738 676.8H338.598L338.678 677.459L338.957 678.059V682.295H337.419V668.688ZM341.935 677.719C342.907 677.719 343.653 677.366 344.173 676.66C344.692 675.941 344.952 674.962 344.952 673.723C344.952 672.484 344.686 671.512 344.153 670.806C343.633 670.086 342.894 669.727 341.935 669.727C341.002 669.727 340.27 670.08 339.737 670.786C339.204 671.478 338.937 672.457 338.937 673.723C338.937 675.002 339.204 675.987 339.737 676.68C340.27 677.373 341.002 677.719 341.935 677.719ZM348.951 668.688H350.21V669.547L350.13 670.566H350.27C350.483 669.94 350.849 669.44 351.369 669.067C351.902 668.694 352.568 668.508 353.367 668.508C353.9 668.508 354.366 668.588 354.766 668.747V670.186C354.313 670.026 353.84 669.946 353.347 669.946C352.428 669.946 351.715 670.246 351.209 670.846C350.716 671.432 350.47 672.264 350.47 673.343V678.738H348.951V668.688ZM359.322 678.918C358.283 678.918 357.463 678.678 356.864 678.199C356.278 677.719 355.985 677.06 355.985 676.221C355.985 675.435 356.258 674.802 356.804 674.322C357.35 673.843 358.256 673.516 359.521 673.343L362.978 672.944V672.124C362.978 671.298 362.745 670.679 362.279 670.266C361.813 669.84 361.153 669.627 360.301 669.627C359.502 669.627 358.875 669.82 358.423 670.206C357.97 670.592 357.73 671.159 357.703 671.905H356.205C356.231 670.786 356.611 669.94 357.344 669.367C358.076 668.794 359.089 668.508 360.381 668.508C361.753 668.508 362.778 668.821 363.458 669.447C364.151 670.073 364.497 670.979 364.497 672.164V678.738H363.238V677.699L363.358 676.82H363.158C362.865 677.433 362.392 677.939 361.739 678.339C361.1 678.725 360.294 678.918 359.322 678.918ZM357.503 676.081C357.503 676.627 357.697 677.053 358.083 677.36C358.469 677.653 359.002 677.799 359.681 677.799C360.68 677.799 361.48 677.513 362.079 676.94C362.679 676.367 362.978 675.608 362.978 674.662V673.943L359.761 674.302C358.975 674.409 358.403 674.609 358.043 674.902C357.683 675.182 357.503 675.575 357.503 676.081ZM371.231 678.898C369.3 678.898 368.334 677.932 368.334 676.001V675.142V669.807H366.456V668.688H368.334V665.95H369.853V668.688H373.07V669.807H369.853V675.062V675.781C369.853 676.42 369.999 676.887 370.292 677.18C370.599 677.473 371.065 677.619 371.691 677.619C372.184 677.619 372.664 677.553 373.13 677.419V678.658C372.53 678.818 371.898 678.898 371.231 678.898ZM375.689 668.688H377.208V678.738H375.689V668.688ZM375.549 664.352H377.328V666.789H375.549V664.352ZM384.569 678.918C383.05 678.918 381.885 678.459 381.072 677.539C380.26 676.607 379.853 675.328 379.853 673.703C379.853 672.078 380.26 670.806 381.072 669.886C381.898 668.967 383.07 668.508 384.589 668.508C385.828 668.508 386.84 668.821 387.626 669.447C388.412 670.06 388.872 670.925 389.005 672.044H387.446C387.3 671.298 386.98 670.719 386.487 670.306C385.994 669.893 385.355 669.687 384.569 669.687C383.53 669.687 382.737 670.04 382.191 670.746C381.658 671.438 381.392 672.417 381.392 673.683C381.392 674.962 381.665 675.954 382.211 676.66C382.757 677.366 383.543 677.719 384.569 677.719C385.328 677.719 385.954 677.519 386.447 677.12C386.953 676.707 387.286 676.121 387.446 675.361H389.005C388.858 676.467 388.399 677.34 387.626 677.979C386.853 678.605 385.834 678.918 384.569 678.918ZM394.133 678.918C393.094 678.918 392.275 678.678 391.676 678.199C391.09 677.719 390.796 677.06 390.796 676.221C390.796 675.435 391.07 674.802 391.616 674.322C392.162 673.843 393.068 673.516 394.333 673.343L397.79 672.944V672.124C397.79 671.298 397.557 670.679 397.091 670.266C396.624 669.84 395.965 669.627 395.112 669.627C394.313 669.627 393.687 669.82 393.234 670.206C392.781 670.592 392.542 671.159 392.515 671.905H391.016C391.043 670.786 391.423 669.94 392.155 669.367C392.888 668.794 393.9 668.508 395.192 668.508C396.564 668.508 397.59 668.821 398.27 669.447C398.962 670.073 399.309 670.979 399.309 672.164V678.738H398.05V677.699L398.17 676.82H397.97C397.677 677.433 397.204 677.939 396.551 678.339C395.912 678.725 395.106 678.918 394.133 678.918ZM392.315 676.081C392.315 676.627 392.508 677.053 392.895 677.36C393.281 677.653 393.814 677.799 394.493 677.799C395.492 677.799 396.291 677.513 396.891 676.94C397.49 676.367 397.79 675.608 397.79 674.662V673.943L394.573 674.302C393.787 674.409 393.214 674.609 392.855 674.902C392.495 675.182 392.315 675.575 392.315 676.081ZM402.047 668.688H403.306V669.547L403.226 670.566H403.366C403.579 669.94 403.945 669.44 404.465 669.067C404.997 668.694 405.664 668.508 406.463 668.508C406.996 668.508 407.462 668.588 407.862 668.747V670.186C407.409 670.026 406.936 669.946 406.443 669.946C405.524 669.946 404.811 670.246 404.305 670.846C403.812 671.432 403.565 672.264 403.565 673.343V678.738H402.047V668.688Z" fill="white"/>
<path d="M347.165 67.5641L354.059 58.1927H355.697V58.4325L349.383 66.9447L348.864 67.3842V67.5241L349.563 67.4442H355.198V64.2272L355.557 63.5478H356.696V67.4442H358.215V68.783H356.696V72H355.198V68.783H347.165V67.5641ZM360.855 57.6132H362.373V62.3888L362.134 63.0882L362.014 63.7876H362.174C362.44 63.2014 362.88 62.7219 363.492 62.3489C364.118 61.9626 364.891 61.7694 365.81 61.7694C366.943 61.7694 367.822 62.0758 368.448 62.6886C369.087 63.3013 369.407 64.2005 369.407 65.3861V72H367.888V65.6458C367.888 64.7667 367.675 64.1073 367.249 63.6677C366.836 63.2281 366.223 63.0083 365.411 63.0083C364.478 63.0083 363.739 63.2814 363.193 63.8275C362.646 64.3737 362.373 65.1396 362.373 66.1254V72H360.855V57.6132ZM380.849 72.1599C379.53 72.1599 378.504 71.6936 377.772 70.7611C377.052 69.8153 376.693 68.5565 376.693 66.9846C376.693 65.3861 377.059 64.1206 377.792 63.1881C378.524 62.2423 379.55 61.7694 380.869 61.7694C381.735 61.7694 382.474 61.9692 383.087 62.3689C383.713 62.7552 384.166 63.2614 384.445 63.8875H384.585L384.505 63.2281L384.246 62.6286V57.6132H385.764V72H384.505V70.9809L384.585 70.0818H384.425C384.132 70.6945 383.679 71.1941 383.067 71.5804C382.454 71.9667 381.715 72.1599 380.849 72.1599ZM381.248 70.961C382.181 70.961 382.914 70.6146 383.446 69.9219C383.979 69.2159 384.246 68.2235 384.246 66.9447C384.246 65.6792 383.979 64.7001 383.446 64.0074C382.914 63.3147 382.181 62.9683 381.248 62.9683C380.276 62.9683 379.53 63.328 379.01 64.0473C378.491 64.7533 378.231 65.7258 378.231 66.9646C378.231 68.2035 378.491 69.1826 379.01 69.9019C379.543 70.6079 380.289 70.961 381.248 70.961ZM392.685 72.1599C391.179 72.1599 390.034 71.7069 389.248 70.8011C388.462 69.8819 388.069 68.6098 388.069 66.9846C388.069 65.3594 388.468 64.0873 389.268 63.1681C390.08 62.2357 391.213 61.7694 392.665 61.7694C394.09 61.7694 395.182 62.2157 395.942 63.1082C396.701 63.9874 397.081 65.2262 397.081 66.8248V67.1445H389.607C389.634 68.3833 389.907 69.3358 390.427 70.0018C390.959 70.6546 391.732 70.9809 392.745 70.9809C393.49 70.9809 394.097 70.8011 394.563 70.4414C395.042 70.0684 395.362 69.5489 395.522 68.8829H397.001C396.827 69.9086 396.368 70.7145 395.622 71.3006C394.876 71.8734 393.897 72.1599 392.685 72.1599ZM395.562 66.1254C395.495 65.0997 395.209 64.3071 394.703 63.7476C394.21 63.1748 393.517 62.8884 392.625 62.8884C391.745 62.8884 391.053 63.1681 390.547 63.7276C390.054 64.2871 389.754 65.0864 389.647 66.1254H395.562ZM334.528 96.1798C333.009 96.1798 331.843 95.7203 331.031 94.8011C330.218 93.8686 329.812 92.5898 329.812 90.9646C329.812 89.3395 330.218 88.0673 331.031 87.1481C331.857 86.229 333.029 85.7694 334.548 85.7694C335.786 85.7694 336.799 86.0825 337.585 86.7086C338.371 87.3213 338.83 88.1872 338.963 89.3062H337.405C337.258 88.5602 336.939 87.9807 336.446 87.5678C335.953 87.1548 335.314 86.9483 334.528 86.9483C333.489 86.9483 332.696 87.3013 332.15 88.0074C331.617 88.7001 331.35 89.6792 331.35 90.9447C331.35 92.2235 331.624 93.2159 332.17 93.9219C332.716 94.6279 333.502 94.9809 334.528 94.9809C335.287 94.9809 335.913 94.7811 336.406 94.3815C336.912 93.9685 337.245 93.3824 337.405 92.6231H338.963C338.817 93.7288 338.357 94.6013 337.585 95.2407C336.812 95.8668 335.793 96.1798 334.528 96.1798ZM345.591 96.1798C344.099 96.1798 342.946 95.7203 342.134 94.8011C341.321 93.8686 340.915 92.5898 340.915 90.9646C340.915 89.3395 341.321 88.0673 342.134 87.1481C342.946 86.229 344.099 85.7694 345.591 85.7694C347.083 85.7694 348.228 86.229 349.027 87.1481C349.84 88.0673 350.246 89.3395 350.246 90.9646C350.246 92.5898 349.847 93.8686 349.047 94.8011C348.248 95.7203 347.096 96.1798 345.591 96.1798ZM345.591 94.9809C346.616 94.9809 347.396 94.6279 347.929 93.9219C348.461 93.2159 348.728 92.2301 348.728 90.9646C348.728 89.6991 348.461 88.72 347.929 88.0273C347.396 87.3213 346.616 86.9683 345.591 86.9683C344.565 86.9683 343.779 87.3213 343.233 88.0273C342.7 88.7334 342.434 89.7125 342.434 90.9646C342.434 92.2301 342.707 93.2159 343.253 93.9219C343.799 94.6279 344.578 94.9809 345.591 94.9809ZM352.688 85.9493H353.947V86.8884L353.847 87.7876H354.007C354.274 87.2014 354.713 86.7219 355.326 86.3489C355.952 85.9626 356.725 85.7694 357.644 85.7694C358.776 85.7694 359.655 86.0758 360.282 86.6886C360.921 87.3013 361.241 88.2005 361.241 89.3861V96H359.722V89.6458C359.722 88.7667 359.509 88.1073 359.083 87.6677C358.67 87.2281 358.057 87.0083 357.244 87.0083C356.325 87.0083 355.586 87.2814 355.026 87.8275C354.48 88.3737 354.207 89.1463 354.207 90.1454V96H352.688V85.9493ZM367.983 96.1599C366.051 96.1599 365.086 95.1941 365.086 93.2625V92.4033V87.0682H363.207V85.9493H365.086V83.2118H366.604V85.9493H369.821V87.0682H366.604V92.3234V93.0427C366.604 93.6821 366.751 94.1484 367.044 94.4414C367.35 94.7345 367.816 94.881 368.443 94.881C368.935 94.881 369.415 94.8144 369.881 94.6812V95.9201C369.282 96.0799 368.649 96.1599 367.983 96.1599ZM376.245 96.1599C374.739 96.1599 373.594 95.7069 372.808 94.8011C372.022 93.8819 371.629 92.6098 371.629 90.9846C371.629 89.3594 372.029 88.0873 372.828 87.1681C373.64 86.2357 374.773 85.7694 376.225 85.7694C377.65 85.7694 378.742 86.2157 379.502 87.1082C380.261 87.9874 380.641 89.2262 380.641 90.8248V91.1445H373.167C373.194 92.3833 373.467 93.3358 373.987 94.0018C374.52 94.6546 375.292 94.9809 376.305 94.9809C377.051 94.9809 377.657 94.8011 378.123 94.4414C378.602 94.0684 378.922 93.5489 379.082 92.8829H380.561C380.387 93.9086 379.928 94.7145 379.182 95.3006C378.436 95.8734 377.457 96.1599 376.245 96.1599ZM379.122 90.1254C379.055 89.0997 378.769 88.3071 378.263 87.7476C377.77 87.1748 377.077 86.8884 376.185 86.8884C375.305 86.8884 374.613 87.1681 374.107 87.7276C373.614 88.2871 373.314 89.0864 373.207 90.1254H379.122ZM386.528 96.1798C385.423 96.1798 384.564 95.8734 383.951 95.2607C383.338 94.6479 383.032 93.7487 383.032 92.5632V85.9493H384.55V92.3234C384.55 93.1759 384.75 93.8287 385.15 94.2816C385.563 94.7212 386.162 94.941 386.948 94.941C387.841 94.941 388.553 94.6679 389.086 94.1217C389.619 93.5756 389.885 92.8096 389.885 91.8238V85.9493H391.404V96H390.145V95.0409L390.225 94.1417H390.105C389.839 94.7278 389.399 95.2141 388.786 95.6004C388.187 95.9867 387.434 96.1798 386.528 96.1798ZM385.909 84.4107L388.387 81.6132H389.905V81.7931L387.108 84.6105H385.909V84.4107ZM397.991 96.1599C396.672 96.1599 395.647 95.6936 394.914 94.7611C394.195 93.8153 393.835 92.5565 393.835 90.9846C393.835 89.3861 394.201 88.1206 394.934 87.1881C395.667 86.2423 396.692 85.7694 398.011 85.7694C398.877 85.7694 399.616 85.9692 400.229 86.3689C400.855 86.7552 401.308 87.2614 401.588 87.8875H401.728L401.648 87.2281L401.388 86.6286V81.6132H402.907V96H401.648V94.9809L401.728 94.0818H401.568C401.275 94.6945 400.822 95.1941 400.209 95.5804C399.596 95.9667 398.857 96.1599 397.991 96.1599ZM398.391 94.961C399.323 94.961 400.056 94.6146 400.589 93.9219C401.122 93.2159 401.388 92.2235 401.388 90.9447C401.388 89.6792 401.122 88.7001 400.589 88.0074C400.056 87.3147 399.323 86.9683 398.391 86.9683C397.418 86.9683 396.672 87.328 396.153 88.0473C395.633 88.7533 395.374 89.7258 395.374 90.9646C395.374 92.2035 395.633 93.1826 396.153 93.9019C396.686 94.6079 397.432 94.961 398.391 94.961ZM409.887 96.1798C408.395 96.1798 407.243 95.7203 406.43 94.8011C405.618 93.8686 405.211 92.5898 405.211 90.9646C405.211 89.3395 405.618 88.0673 406.43 87.1481C407.243 86.229 408.395 85.7694 409.887 85.7694C411.379 85.7694 412.525 86.229 413.324 87.1481C414.136 88.0673 414.543 89.3395 414.543 90.9646C414.543 92.5898 414.143 93.8686 413.344 94.8011C412.544 95.7203 411.392 96.1798 409.887 96.1798ZM409.887 94.9809C410.913 94.9809 411.692 94.6279 412.225 93.9219C412.758 93.2159 413.024 92.2301 413.024 90.9646C413.024 89.6991 412.758 88.72 412.225 88.0273C411.692 87.3213 410.913 86.9683 409.887 86.9683C408.861 86.9683 408.075 87.3213 407.529 88.0273C406.996 88.7334 406.73 89.7125 406.73 90.9646C406.73 92.2301 407.003 93.2159 407.549 93.9219C408.095 94.6279 408.875 94.9809 409.887 94.9809Z" fill="white"/>
</g>
<defs>
<filter id="filter0_d_1499_3122" x="213.089" y="318.092" width="303.308" height="108.159" filterUnits="userSpaceOnUse" color-interpolation-filters="sRGB">
<feFlood flood-opacity="0" result="BackgroundImageFix"/>
<feColorMatrix in="SourceAlpha" type="matrix" values="0 0 0 0 0 0 0 0 0 0 0 0 0 0 0 0 0 0 127 0" result="hardAlpha"/>
<feOffset/>
<feGaussianBlur stdDeviation="18.251"/>
<feComposite in2="hardAlpha" operator="out"/>
<feColorMatrix type="matrix" values="0 0 0 0 0.227451 0 0 0 0 0.580392 0 0 0 0 0.588235 0 0 0 0.45 0"/>
<feBlend mode="normal" in2="BackgroundImageFix" result="effect1_dropShadow_1499_3122"/>
<feBlend mode="normal" in="SourceGraphic" in2="effect1_dropShadow_1499_3122" result="shape"/>
</filter>
<filter id="filter1_d_1499_3122" x="226.662" y="322.791" width="66.2198" height="62.9385" filterUnits="userSpaceOnUse" color-interpolation-filters="sRGB">
<feFlood flood-opacity="0" result="BackgroundImageFix"/>
<feColorMatrix in="SourceAlpha" type="matrix" values="0 0 0 0 0 0 0 0 0 0 0 0 0 0 0 0 0 0 127 0" result="hardAlpha"/>
<feOffset/>
<feGaussianBlur stdDeviation="12.2254"/>
<feComposite in2="hardAlpha" operator="out"/>
<feColorMatrix type="matrix" values="0 0 0 0 0.156863 0 0 0 0 0.156863 0 0 0 0 0.156863 0 0 0 0.9 0"/>
<feBlend mode="normal" in2="BackgroundImageFix" result="effect1_dropShadow_1499_3122"/>
<feBlend mode="normal" in="SourceGraphic" in2="effect1_dropShadow_1499_3122" result="shape"/>
</filter>
<linearGradient id="paint0_linear_1499_3122" x1="240.301" y1="220.776" x2="514.732" y2="484.878" gradientUnits="userSpaceOnUse">
<stop stop-color="#000507" stop-opacity="0"/>
<stop offset="1" stop-color="#002528"/>
</linearGradient>
<linearGradient id="paint1_linear_1499_3122" x1="364.322" y1="396.272" x2="364.322" y2="408.272" gradientUnits="userSpaceOnUse">
<stop offset="0.285" stop-color="#F5F5F5"/>
<stop offset="1" stop-color="#999999"/>
</linearGradient>
<linearGradient id="paint2_linear_1499_3122" x1="366.202" y1="390.759" x2="366.398" y2="352.562" gradientUnits="userSpaceOnUse">
<stop stop-color="#033233"/>
<stop offset="1" stop-color="#3A9496"/>
</linearGradient>
<linearGradient id="paint3_linear_1499_3122" x1="363.593" y1="348.879" x2="363.593" y2="398.879" gradientUnits="userSpaceOnUse">
<stop offset="0.285" stop-color="#F5F5F5"/>
<stop offset="1" stop-color="#999999"/>
</linearGradient>
<linearGradient id="paint4_linear_1499_3122" x1="360.267" y1="334.86" x2="360.267" y2="346.447" gradientUnits="userSpaceOnUse">
<stop offset="0.285" stop-color="#F5F5F5"/>
<stop offset="1" stop-color="#999999"/>
</linearGradient>
<linearGradient id="paint5_linear_1499_3122" x1="258.549" y1="348.206" x2="260.6" y2="359.836" gradientUnits="userSpaceOnUse">
<stop stop-color="#7A7A7A"/>
<stop offset="1" stop-color="#1E1E1E"/>
</linearGradient>
<linearGradient id="paint6_linear_1499_3122" x1="258.123" y1="347.646" x2="260.554" y2="361.433" gradientUnits="userSpaceOnUse">
<stop offset="0.285" stop-color="#F5F5F5"/>
<stop offset="1" stop-color="#999999"/>
</linearGradient>
<linearGradient id="paint7_linear_1499_3122" x1="536.863" y1="201.595" x2="182.76" y2="529.141" gradientUnits="userSpaceOnUse">
<stop stop-color="#01B6BA"/>
<stop offset="1" stop-color="#4F2850" stop-opacity="0"/>
</linearGradient>
<linearGradient id="paint8_linear_1499_3122" x1="564.991" y1="172.62" x2="150.412" y2="556.106" gradientUnits="userSpaceOnUse">
<stop stop-color="#01B6BA"/>
<stop offset="1" stop-color="#4F2850" stop-opacity="0"/>
</linearGradient>
<linearGradient id="paint9_linear_1499_3122" x1="595.771" y1="140.912" x2="115.012" y2="585.614" gradientUnits="userSpaceOnUse">
<stop stop-color="#01B6BA"/>
<stop offset="1" stop-color="#4F2850" stop-opacity="0"/>
</linearGradient>
<linearGradient id="paint10_linear_1499_3122" x1="626.97" y1="108.772" x2="79.1321" y2="615.522" gradientUnits="userSpaceOnUse">
<stop stop-color="#01B6BA"/>
<stop offset="1" stop-color="#4F2850" stop-opacity="0"/>
</linearGradient>
<linearGradient id="paint11_linear_1499_3122" x1="37.6835" y1="172.018" x2="163.41" y2="293.013" gradientUnits="userSpaceOnUse">
<stop stop-color="#000507" stop-opacity="0"/>
<stop offset="1" stop-color="#002528"/>
</linearGradient>
<linearGradient id="paint12_linear_1499_3122" x1="585.829" y1="172.018" x2="711.556" y2="293.013" gradientUnits="userSpaceOnUse">
<stop stop-color="#000507" stop-opacity="0"/>
<stop offset="1" stop-color="#002528"/>
</linearGradient>
<linearGradient id="paint13_linear_1499_3122" x1="311.756" y1="14.8219" x2="437.483" y2="135.817" gradientUnits="userSpaceOnUse">
<stop stop-color="#000507" stop-opacity="0"/>
<stop offset="1" stop-color="#002528"/>
</linearGradient>
<linearGradient id="paint14_linear_1499_3122" x1="573.026" y1="450.561" x2="698.753" y2="571.557" gradientUnits="userSpaceOnUse">
<stop stop-color="#000507" stop-opacity="0"/>
<stop offset="1" stop-color="#002528"/>
</linearGradient>
<linearGradient id="paint15_linear_1499_3122" x1="23.402" y1="450.561" x2="149.129" y2="571.557" gradientUnits="userSpaceOnUse">
<stop stop-color="#000507" stop-opacity="0"/>
<stop offset="1" stop-color="#002528"/>
</linearGradient>
<linearGradient id="paint16_linear_1499_3122" x1="311.755" y1="590.669" x2="437.482" y2="711.664" gradientUnits="userSpaceOnUse">
<stop stop-color="#000507" stop-opacity="0"/>
<stop offset="1" stop-color="#002528"/>
</linearGradient>
</defs>
</svg>
