<svg xmlns="http://www.w3.org/2000/svg" width="384" height="25" viewBox="0 0 384 25" fill="none"><g style="mix-blend-mode:screen"><path d="M19.316 19.504V10.2756C19.3155 10.2644 19.3175 10.2532 19.3216 10.2428C19.3256 10.2323 19.3318 10.2228 19.3398 10.2149C19.3476 10.207 19.3571 10.2007 19.3674 10.1966C19.3779 10.1925 19.3889 10.1906 19.4001 10.191H21.1617C21.1839 10.191 21.2054 10.1999 21.2212 10.2157C21.2369 10.2316 21.2458 10.2532 21.2458 10.2756V13.6011H21.273C21.5099 13.317 21.8087 13.0916 22.1461 12.9425C22.4837 12.7933 22.8508 12.7244 23.2192 12.741C24.6061 12.741 25.0513 13.653 25.0513 14.8625V19.504C25.0513 19.5151 25.0491 19.5261 25.0449 19.5363C25.0406 19.5466 25.0344 19.5559 25.0266 19.5638C25.0188 19.5717 25.0095 19.5778 24.9993 19.5821C24.9891 19.5864 24.9782 19.5885 24.9671 19.5885H23.2056C23.1945 19.5885 23.1836 19.5864 23.1734 19.5821C23.1631 19.5778 23.1539 19.5717 23.1461 19.5638C23.1383 19.5559 23.132 19.5466 23.1278 19.5363C23.1235 19.5261 23.1214 19.5151 23.1214 19.504V15.0345C23.1214 14.5102 22.5785 14.3492 22.2311 14.3492C21.8836 14.3492 21.2458 14.5785 21.2458 15.2338V19.504C21.2458 19.5264 21.2369 19.5479 21.2212 19.5638C21.2054 19.5797 21.1839 19.5885 21.1617 19.5885H19.4001C19.3777 19.5885 19.3564 19.5797 19.3406 19.5638C19.3248 19.5479 19.316 19.5264 19.316 19.504Z" fill="#959A9E"></path><path d="M33.3809 17.6845V14.5038H32.5666C32.5442 14.5038 32.5228 14.4948 32.5071 14.479C32.4912 14.4632 32.4824 14.4417 32.4824 14.4191V13.2779C32.4826 13.2604 32.4882 13.2434 32.4984 13.2292C32.5086 13.215 32.5229 13.2044 32.5394 13.1987L33.6251 12.8793L34.2033 11.0582C34.209 11.0463 34.2173 11.0359 34.2277 11.0279C34.238 11.0198 34.2502 11.0143 34.2629 11.0118H35.213C35.2242 11.0114 35.2352 11.0133 35.2456 11.0174C35.2561 11.0216 35.2654 11.0278 35.2734 11.0357C35.2813 11.0436 35.2874 11.0531 35.2915 11.0636C35.2956 11.074 35.2976 11.0852 35.2972 11.0964V12.8929H36.7221C36.7445 12.8929 36.7659 12.9018 36.7816 12.9177C36.7975 12.9336 36.8062 12.9551 36.8062 12.9776V14.4355C36.8062 14.4465 36.8041 14.4573 36.7999 14.4675C36.7956 14.4776 36.7894 14.4868 36.7814 14.4944C36.7737 14.5021 36.7643 14.5081 36.7541 14.5121C36.7439 14.5159 36.7331 14.5178 36.7221 14.5175H35.2972V17.4826C35.2972 17.7911 35.4708 17.9795 35.897 17.9795H36.7113C36.7336 17.9795 36.755 17.9883 36.7708 18.0041C36.7865 18.0201 36.7955 18.0416 36.7955 18.064C36.7955 18.0859 36.7955 19.0906 36.7955 19.3445C36.795 19.3616 36.7898 19.3783 36.78 19.3923C36.7704 19.4064 36.7569 19.4174 36.7412 19.4238C36.3155 19.6209 35.8526 19.7233 35.384 19.724C33.9644 19.724 33.3809 18.8777 33.3809 17.6845Z" fill="#959A9E"></path><path d="M60.9667 17.6852V14.5044H60.1525C60.1301 14.5044 60.1087 14.4955 60.093 14.4797C60.0771 14.4638 60.0684 14.4423 60.0684 14.4199V13.2786C60.0685 13.261 60.074 13.244 60.0844 13.2298C60.0946 13.2157 60.1089 13.205 60.1253 13.1994L61.2111 12.8799L61.7892 11.0588C61.7948 11.0423 61.8054 11.0279 61.8194 11.0176C61.8336 11.0073 61.8504 11.0017 61.8679 11.0015H62.8179C62.8291 11.0011 62.8402 11.0031 62.8505 11.0072C62.861 11.0113 62.8703 11.0175 62.8783 11.0255C62.8862 11.0334 62.8923 11.0429 62.8964 11.0533C62.9005 11.0638 62.9025 11.0749 62.9021 11.0861V12.8827H64.327C64.3494 12.8827 64.3708 12.8916 64.3865 12.9075C64.4024 12.9233 64.4112 12.9449 64.4112 12.9673V14.4253C64.4112 14.4363 64.409 14.4471 64.4048 14.4572C64.4005 14.4673 64.3943 14.4766 64.3864 14.4841C64.3786 14.4918 64.3692 14.4978 64.359 14.5017C64.3488 14.5057 64.3379 14.5075 64.327 14.5072H62.9021V17.4832C62.9021 17.7917 63.0758 17.9801 63.5019 17.9801H64.3162C64.3385 17.9801 64.3599 17.9891 64.3757 18.0049C64.3915 18.0207 64.4004 18.0422 64.4004 18.0647C64.4004 18.0865 64.4004 19.0913 64.4004 19.3453C64.4 19.3624 64.3947 19.3789 64.3849 19.393C64.3753 19.4071 64.3619 19.418 64.346 19.4244C63.9204 19.6216 63.4576 19.7241 62.9889 19.7248C61.5504 19.7248 60.9667 18.8783 60.9667 17.6852Z" fill="#959A9E"></path><path d="M37.9751 19.5052V12.9525C37.9751 12.9414 37.9774 12.9304 37.9816 12.9202C37.9857 12.9099 37.992 12.9005 37.9997 12.8927C38.0077 12.8848 38.0169 12.8786 38.0271 12.8743C38.0373 12.8701 38.0482 12.8679 38.0592 12.8679H39.6499C39.6672 12.8681 39.6842 12.8737 39.6982 12.884C39.7124 12.8942 39.723 12.9087 39.7286 12.9252L39.9132 13.5914H39.9404C40.175 13.3075 40.4719 13.0822 40.8077 12.933C41.1434 12.7837 41.509 12.7147 41.8756 12.7314C42.823 12.7314 43.2789 13.16 43.534 13.8235H43.5884C43.8098 13.4714 44.1202 13.1848 44.488 12.9929C44.8557 12.801 45.2674 12.7108 45.681 12.7314C47.0681 12.7314 47.5133 13.6433 47.5133 14.8528V19.4942C47.5133 19.5167 47.5043 19.5382 47.4886 19.5541C47.4728 19.57 47.4514 19.5789 47.4291 19.5789H45.6621C45.6398 19.5789 45.6184 19.57 45.6026 19.5541C45.5868 19.5382 45.5779 19.5167 45.5779 19.4942V15.0657C45.5779 14.5416 45.0866 14.3395 44.7392 14.3395C44.3374 14.3395 43.7403 14.5962 43.7132 15.1859V19.5052C43.7136 19.5164 43.7117 19.5276 43.7076 19.5381C43.7034 19.5485 43.6974 19.5579 43.6894 19.5659C43.6815 19.5739 43.6721 19.58 43.6616 19.5841C43.6513 19.5883 43.6403 19.5903 43.6291 19.5898H41.8566C41.8348 19.5891 41.8141 19.5798 41.7988 19.564C41.7837 19.5484 41.7752 19.5271 41.7752 19.5052V15.0657C41.7752 14.5416 41.2541 14.3395 40.874 14.3395C40.6249 14.338 40.3851 14.434 40.2051 14.6073C40.0254 14.7806 39.9197 15.0174 39.9105 15.2678V19.5052C39.9105 19.5271 39.902 19.5484 39.8868 19.564C39.8715 19.5798 39.8508 19.5891 39.829 19.5898H38.0619C38.0508 19.5903 38.0396 19.5883 38.0289 19.5841C38.0184 19.5801 38.0088 19.5739 38.0007 19.566C37.9927 19.5582 37.9861 19.5486 37.9818 19.5382C37.9774 19.5278 37.9751 19.5166 37.9751 19.5052Z" fill="#959A9E"></path><path d="M48.6779 14.3528V13.135C48.6786 13.1158 48.6857 13.0973 48.6981 13.0825C48.7102 13.0677 48.7271 13.0573 48.7458 13.0531C49.5936 12.8679 50.457 12.7646 51.3244 12.7446C53.0316 12.7446 54.0386 13.1596 54.0386 15.0135V19.5074C54.0386 19.53 54.0299 19.5515 54.014 19.5673C53.9983 19.5833 53.9769 19.5921 53.9545 19.5921H52.269C52.2507 19.5921 52.233 19.5858 52.2189 19.5744C52.2046 19.563 52.1945 19.5472 52.1903 19.5294L52.0083 18.8659H52.0844C51.604 19.5375 50.9661 19.7259 50.1843 19.7259C48.9304 19.7259 48.2627 18.7458 48.2627 17.5909C48.2627 15.8462 49.5302 15.4968 50.4774 15.4968H52.1061V15.0544C52.1061 14.5084 51.6989 14.3855 50.1517 14.3855C49.4976 14.3855 48.7947 14.4374 48.7648 14.4374C48.7422 14.4374 48.7206 14.4286 48.7043 14.4127C48.6881 14.3969 48.6786 14.3754 48.6779 14.3528ZM52.1034 16.6898H51.0448C50.483 16.6898 50.1192 16.9056 50.1192 17.509C50.1192 18.1588 50.5834 18.3061 51.0285 18.3061C51.1732 18.3141 51.3178 18.2912 51.4531 18.2391C51.5884 18.187 51.7113 18.1069 51.8137 18.0039C51.9161 17.9008 51.9957 17.7773 52.0476 17.6412C52.0993 17.5051 52.1221 17.3596 52.1142 17.2141V16.668L52.1034 16.6898Z" fill="#959A9E"></path><path d="M55.1626 19.5054V12.9528C55.1626 12.9308 55.1711 12.9097 55.1863 12.8939C55.2014 12.8781 55.2221 12.8689 55.2441 12.8682H56.8183C56.8377 12.8679 56.8566 12.8747 56.8716 12.8872C56.8865 12.8997 56.8965 12.9172 56.8998 12.9364L57.0871 13.9549H57.1141C57.311 13.5791 57.6081 13.2659 57.9719 13.0504C58.3358 12.8348 58.7521 12.7254 59.1743 12.7344C59.1967 12.7344 59.2181 12.7433 59.2338 12.7592C59.2495 12.7751 59.2585 12.7966 59.2585 12.819V14.6429C59.2585 14.6654 59.2495 14.6869 59.2338 14.7027C59.2181 14.7185 59.1967 14.7275 59.1743 14.7275H58.7238C57.5104 14.7275 57.0951 15.2162 57.0951 15.8197V19.4946C57.0951 19.5165 57.0866 19.5376 57.0715 19.5534C57.0563 19.5693 57.0355 19.5785 57.0137 19.5792H55.2521C55.2306 19.5808 55.2094 19.574 55.1928 19.5603C55.1761 19.5466 55.1653 19.5269 55.1626 19.5054Z" fill="#959A9E"></path><path d="M25.8691 16.234C25.8691 14.0988 26.6971 12.7446 29.0448 12.7446C31.3928 12.7446 32.2342 14.1098 32.2342 16.234C32.2342 18.3581 31.4064 19.7232 29.0448 19.7232C26.6835 19.7232 25.8691 18.3826 25.8691 16.234ZM27.9537 16.234C27.9537 17.3888 28.122 18.0959 29.0395 18.0959C29.9569 18.0959 30.1442 17.3888 30.1442 16.234C30.1442 15.079 29.9732 14.3828 29.0395 14.3828C28.1057 14.3828 27.9537 15.079 27.9537 16.234Z" fill="#959A9E"></path><path d="M15.6916 15.5682C15.7839 13.7416 15.1488 10.7547 13.6396 8.31113C13.5989 8.24833 13.531 8.2729 13.5446 8.33843C13.645 8.70974 13.6695 9.38412 13.0832 9.34316C12.0409 9.27218 13.1185 7.0279 10.8303 5.47163C10.8218 5.46354 10.8107 5.45879 10.799 5.45825C10.7873 5.45773 10.7758 5.46143 10.7666 5.46871C10.7573 5.47599 10.751 5.48636 10.7488 5.49791C10.7465 5.50948 10.7485 5.52147 10.7543 5.5317C10.9117 5.83204 11.004 6.76851 10.643 7.08797C10.3526 7.3446 9.82872 7.27634 9.30486 6.4327C8.95646 5.85075 8.77668 5.18245 8.78579 4.50319C8.7949 3.82394 8.99254 3.16075 9.35642 2.58848C9.39986 2.51748 9.34015 2.49018 9.29128 2.50656C6.14269 3.55226 5.51298 7.28727 4.84253 8.64694C4.73125 8.87629 4.63353 8.9937 4.44082 8.98277C3.8681 8.94455 4.28067 7.71319 4.47882 7.28454C4.48315 7.27414 4.48379 7.26256 4.48063 7.25173C4.47747 7.24092 4.47071 7.23151 4.46149 7.22511C4.45225 7.21872 4.44112 7.21569 4.42994 7.21658C4.41876 7.21745 4.40823 7.22218 4.4001 7.22993C2.56235 9.26142 1.38688 11.8101 1.03165 14.5335C1.03165 14.4706 1.0045 14.7573 0.988219 14.9675C0.988219 15.0495 0.98279 15.1323 0.971933 15.2159C0.971933 15.3142 0.971933 15.4126 0.971933 15.5136C0.955736 17.4792 1.71647 19.3708 3.08678 20.7722C4.4571 22.1736 6.32474 22.97 8.27884 22.9863C10.233 23.0027 12.1135 22.2374 13.5067 20.8591C14.8999 19.4807 15.6918 17.602 15.7079 15.6365C15.6943 15.6119 15.6916 15.59 15.6916 15.5682ZM8.29784 19.0111C7.62153 19.0073 6.96152 18.8016 6.40144 18.4203C5.84134 18.0389 5.40634 17.499 5.15151 16.8688C4.89669 16.2387 4.83349 15.5467 4.96992 14.8803C5.10635 14.214 5.43629 13.6033 5.91793 13.1257C6.39958 12.6482 7.01129 12.3251 7.67562 12.1974C8.33993 12.0697 9.02698 12.1432 9.64976 12.4085C10.2725 12.6738 10.803 13.1191 11.1741 13.6879C11.5451 14.2566 11.7401 14.9234 11.7342 15.6037C11.7263 16.5134 11.3601 17.383 10.716 18.0217C10.0719 18.6604 9.20231 19.0161 8.29784 19.0111Z" fill="#959A9E"></path><path d="M95.0759 17.7027L91.7934 14.4008C91.6734 14.2802 91.5317 14.2582 91.4553 14.2582C91.379 14.2582 91.2372 14.2802 91.1173 14.4008L87.8239 17.7137C87.453 18.0866 86.8751 18.69 84.9448 18.69L88.9907 22.7487C89.6041 23.3649 90.4357 23.711 91.3026 23.711C92.1696 23.711 93.0011 23.3649 93.6146 22.7487L97.6713 18.679C96.6791 18.679 95.8501 18.4815 95.0759 17.7027ZM87.8239 7.77525L91.1173 11.0881C91.2044 11.1758 91.3353 11.2307 91.4553 11.2307C91.5753 11.2307 91.7061 11.1758 91.7934 11.0881L95.0541 7.80817C95.8283 6.99642 96.7116 6.80994 97.7041 6.80994L93.6473 2.74026C93.0338 2.12398 92.2024 1.77783 91.3353 1.77783C90.4683 1.77783 89.6368 2.12398 89.0234 2.74026L84.9776 6.79897C86.8969 6.79897 87.4857 7.43521 87.8239 7.77525Z" fill="#959A9E"></path><path d="M101.248 10.3853L98.7947 7.90622H97.4206C96.8317 7.90622 96.2428 8.14756 95.8393 8.57535L92.5677 11.8662C92.2624 12.1734 91.8589 12.3269 91.4554 12.3269C91.0399 12.3211 90.6422 12.1563 90.343 11.8662L87.0496 8.54245C86.6352 8.12561 86.0681 7.88428 85.4684 7.88428H83.8652L81.368 10.4073C80.7553 11.0243 80.4111 11.8607 80.4111 12.7328C80.4111 13.6049 80.7553 14.4413 81.368 15.0583L83.8652 17.5813H85.4793C86.0681 17.5813 86.6352 17.3399 87.0605 16.9231L90.3539 13.6104C90.6592 13.3032 91.0628 13.1496 91.4663 13.1496C91.8698 13.1496 92.2733 13.3032 92.5786 13.6104L95.8611 16.9121C96.2755 17.329 96.8426 17.5704 97.4425 17.5704H98.8165L101.27 15.0912C101.885 14.4631 102.229 13.6155 102.224 12.7338C102.22 11.852 101.869 11.0077 101.248 10.3853Z" fill="#959A9E"></path><path d="M159.732 19.824L159.312 17.7103H154.616L153.869 19.8089L150.105 19.8165C151.897 15.4823 153.692 11.1496 155.492 6.81863C155.799 6.08401 156.342 5.71012 157.143 5.71386C157.756 5.71951 158.756 5.71951 160.143 5.71574L163.053 19.8183L159.732 19.824ZM155.673 14.815H158.699L157.568 9.51665L155.673 14.815ZM131.412 5.71198L135.196 5.71574L129.346 19.8259L125.515 19.8222C124.552 16.0951 123.6 12.3649 122.661 8.63172C122.474 7.88769 122.104 7.36725 121.393 7.12113C120.341 6.76682 119.285 6.42734 118.225 6.10279V5.71763H124.271C125.317 5.71763 125.928 6.2268 126.124 7.27143C126.322 8.31796 126.819 10.9822 127.618 15.264L131.412 5.71198ZM140.396 5.71574L137.404 19.8222L133.803 19.8183L136.791 5.71198L140.396 5.71574ZM147.699 5.45459C148.777 5.45459 150.135 5.79278 150.916 6.10279L150.285 9.02816C149.579 8.74258 148.417 8.3574 147.44 8.37055C146.02 8.39498 145.142 8.99434 145.142 9.56926C145.142 10.5049 146.666 10.9765 148.235 11.9986C150.027 13.1635 150.262 14.21 150.24 15.3467C150.215 17.7065 148.235 20.0345 144.059 20.0345C142.154 20.0063 141.466 19.8447 139.912 19.2905L140.57 16.2373C142.152 16.9042 142.822 17.1166 144.175 17.1166C145.413 17.1166 146.476 16.6131 146.485 15.7357C146.493 15.1118 146.112 14.8019 144.722 14.0315C143.332 13.2593 141.382 12.1903 141.408 10.0446C141.44 7.29773 144.027 5.45459 147.701 5.45459H147.699Z" fill="#959A9E"></path><path opacity="0.5" d="M196.536 21.6575C194.783 21.6578 193.07 21.1352 191.613 20.1561C190.155 19.1769 189.019 17.785 188.348 16.1564C187.677 14.5279 187.501 12.7357 187.843 11.0067C188.184 9.27764 189.028 7.68934 190.268 6.44262C191.506 5.1959 193.086 4.34676 194.804 4.00258C196.523 3.6584 198.305 3.83465 199.924 4.50903C201.544 5.18341 202.928 6.32564 203.901 7.79126C204.874 9.25688 205.394 10.9801 205.396 12.7429V12.7443C205.393 15.1073 204.459 17.3727 202.798 19.0437C201.137 20.7147 198.885 21.6547 196.536 21.6575Z" fill="#959A9E"></path><path d="M187.914 21.6575C186.161 21.6575 184.448 21.1347 182.991 20.1554C181.534 19.1759 180.398 17.784 179.727 16.1553C179.056 14.5266 178.881 12.7344 179.224 11.0054C179.565 9.2764 180.409 7.68821 181.648 6.44168C182.887 5.19515 184.467 4.34624 186.185 4.00232C187.904 3.6584 189.686 3.83492 191.305 4.50954C192.923 5.18416 194.307 6.32659 195.282 7.79235C196.255 9.25813 196.775 10.9814 196.775 12.7443C196.772 15.1074 195.837 17.3731 194.177 19.0441C192.515 20.7151 190.263 21.6551 187.914 21.6575Z" fill="#959A9E"></path><path d="M250.671 23.2598H223.487C222.933 23.2598 222.4 23.0382 222.008 22.6437C221.617 22.2493 221.396 21.7143 221.396 21.1564V12.3081H222.902L223.242 11.4808H224.003L224.341 12.3046H227.307V11.678L227.571 12.309H229.11L229.375 11.6674V12.3072H236.739V10.9541H236.879C236.978 10.9576 237.007 10.9663 237.007 11.1328V12.309H240.818V11.9944C241.207 12.1933 241.666 12.3099 242.152 12.3099L242.236 12.309H242.232H243.834L244.178 11.4852H244.939L245.273 12.309H248.363V11.5255L248.831 12.309H251.301V7.13461H248.856V7.74547L248.513 7.13461H245.999V7.74547L245.684 7.13461H242.288C241.774 7.10846 241.263 7.21495 240.799 7.44399L240.818 7.43609V7.13461H238.476V7.43609C238.193 7.21135 237.834 7.10383 237.474 7.13549H237.48H228.922L228.348 8.47203L227.757 7.13549H225.061V7.74636L224.765 7.13549H222.464L221.399 9.58946V4.33094C221.399 3.77309 221.618 3.23807 222.011 2.8436C222.403 2.44915 222.935 2.22754 223.49 2.22754H250.674C251.229 2.22754 251.76 2.44915 252.153 2.8436C252.545 3.23807 252.765 3.77309 252.765 4.33094V13.5158H251.133C251.107 13.5141 251.076 13.5141 251.045 13.5141C250.667 13.5141 250.317 13.628 250.024 13.8234L250.031 13.8191V13.5158H247.617C247.24 13.4949 246.867 13.6026 246.558 13.8217L246.564 13.8181V13.515H242.254V13.8181C241.902 13.6181 241.503 13.5136 241.098 13.515H241.064H241.066H238.222V13.8181C237.851 13.5789 237.411 13.4723 236.971 13.5158L236.98 13.515H233.798L233.07 14.3072L232.388 13.515H227.637V18.6928H232.299L233.05 17.8882L233.757 18.6928H236.631V17.4808H237.031C237.416 17.4959 237.802 17.4312 238.161 17.2905L238.142 17.2975V18.6947H240.512V17.3458H240.625C240.77 17.3458 240.785 17.351 240.785 17.4983V18.6955H247.988L248.076 18.6972C248.488 18.6972 248.873 18.5728 249.193 18.3598L249.186 18.3642V18.6955H251.47L251.579 18.6972C252.007 18.6972 252.414 18.6087 252.783 18.4483L252.763 18.4562V21.1573C252.763 21.7152 252.544 22.2501 252.151 22.6446C251.759 23.0392 251.228 23.2608 250.672 23.2608L250.671 23.2598ZM239.785 17.9672H238.898V14.2555H240.933C241.301 14.2213 241.671 14.2834 242.008 14.436L241.994 14.4308C242.266 14.5815 242.448 14.869 242.448 15.1986L242.447 15.2573V15.2546V15.2879C242.447 15.7139 242.192 16.0803 241.826 16.2397L241.819 16.2424C241.995 16.3054 242.141 16.4133 242.25 16.5527L242.251 16.5544C242.375 16.7591 242.426 16.9994 242.397 17.2371L242.399 17.2318V17.9663H241.513V17.5017C241.556 17.2489 241.505 16.9893 241.372 16.7708L241.375 16.7753C241.282 16.705 241.178 16.6543 241.064 16.626C240.952 16.598 240.836 16.5928 240.723 16.6114L240.727 16.6105H239.785V17.9663V17.9672ZM239.785 15.0224V15.8558H240.856C241.008 15.8699 241.161 15.8427 241.298 15.777L241.292 15.7796C241.348 15.7432 241.394 15.6932 241.427 15.6344C241.458 15.5754 241.475 15.5094 241.475 15.4423L241.474 15.422V15.4229C241.478 15.3559 241.464 15.2891 241.433 15.2301C241.4 15.1712 241.352 15.1226 241.294 15.0898L241.292 15.089C241.161 15.0296 241.015 15.0053 240.87 15.0189H240.874L239.785 15.0224ZM231.921 17.9663H228.43V14.2555H231.976L233.061 15.472L234.182 14.2555H237C238 14.2555 238.486 14.6561 238.486 15.4782C238.486 16.3151 237.983 16.7218 236.952 16.7218H235.849V17.9655H234.137L233.05 16.7393L231.922 17.9663H231.921ZM234.972 14.6534L233.618 16.117L234.972 17.628V14.6534ZM229.31 16.4545V17.1924H231.477L232.479 16.1039L231.516 15.0224H229.308V15.6972H231.245V16.4536L229.31 16.4545ZM235.849 15.0233V15.9681H236.988C237.337 15.9681 237.538 15.7893 237.538 15.4773C237.538 15.1793 237.351 15.0224 236.998 15.0224L235.849 15.0233ZM251.566 17.968H249.863V17.1706H251.559C251.687 17.1881 251.814 17.1547 251.918 17.0776L251.916 17.0785C251.949 17.0479 251.976 17.011 251.993 16.9698C252.011 16.9286 252.02 16.8841 252.02 16.8392V16.8365V16.8251C252.021 16.7808 252.011 16.7369 251.993 16.6967C251.974 16.6564 251.947 16.6208 251.913 16.592C251.823 16.5264 251.712 16.4971 251.602 16.5096H251.603L251.44 16.5043C250.644 16.4834 249.742 16.4589 249.742 15.3607C249.742 14.8261 250.075 14.2555 251.007 14.2555H252.763V15.0461H251.156C251.032 15.0321 250.906 15.0572 250.797 15.1179L250.8 15.1162C250.757 15.1447 250.723 15.1842 250.701 15.2308C250.678 15.2774 250.668 15.3293 250.672 15.3808V15.38V15.3897C250.672 15.4487 250.691 15.5062 250.725 15.554C250.76 15.6019 250.808 15.6376 250.864 15.656L250.867 15.6569C250.977 15.6912 251.092 15.7055 251.208 15.6991H251.205L251.683 15.7113C252.044 15.6751 252.404 15.783 252.686 16.0119L252.683 16.0101C252.71 16.0311 252.732 16.0539 252.752 16.0794L252.754 16.0803L252.763 17.493C252.618 17.6652 252.431 17.7986 252.221 17.8812C252.011 17.9639 251.785 17.9934 251.561 17.9672L251.566 17.968ZM248.125 17.968H246.408V17.1706H248.117C248.246 17.1874 248.375 17.154 248.478 17.0776L248.477 17.0785C248.509 17.0479 248.535 17.0108 248.553 16.9696C248.57 16.9284 248.58 16.884 248.58 16.8392V16.8365V16.8304C248.58 16.7854 248.57 16.7408 248.552 16.6997C248.533 16.6585 248.506 16.6219 248.472 16.592C248.38 16.5264 248.268 16.4971 248.156 16.5096H248.158L247.996 16.5043C247.201 16.4834 246.302 16.4589 246.302 15.3607C246.302 14.8261 246.632 14.2555 247.561 14.2555H249.329V15.0461H247.712C247.588 15.0323 247.464 15.0574 247.356 15.1179L247.359 15.1162C247.313 15.1478 247.277 15.1913 247.254 15.2422C247.23 15.2929 247.221 15.3491 247.227 15.4046C247.233 15.4602 247.254 15.5131 247.286 15.5578C247.32 15.6026 247.364 15.6374 247.417 15.6587L247.418 15.6596C247.53 15.6941 247.648 15.7083 247.764 15.7016H247.761L248.236 15.7139C248.598 15.6788 248.961 15.7868 249.246 16.0154L249.243 16.0127C249.338 16.1189 249.412 16.2439 249.457 16.3798C249.502 16.5157 249.519 16.6597 249.506 16.8023V16.7981C249.508 17.5719 249.042 17.9663 248.124 17.9663L248.125 17.968ZM245.88 17.968H242.934V14.2546H245.877V15.0214H243.814V15.6963H245.829V16.4528H243.814V17.1907L245.88 17.1942V17.9655V17.968ZM247.595 11.5824H245.8L245.458 10.7551H243.626L243.293 11.5824H242.261C241.798 11.607 241.342 11.4602 240.978 11.1697L240.984 11.1723C240.811 10.9808 240.679 10.7552 240.598 10.51C240.517 10.2648 240.488 10.0053 240.512 9.74809V9.7551C240.489 9.49312 240.52 9.22929 240.602 8.97965C240.685 8.73 240.816 8.49974 240.989 8.30288L240.988 8.30463C241.171 8.1437 241.384 8.02237 241.615 7.9482C241.848 7.87401 242.091 7.84856 242.334 7.87343L242.327 7.87256H243.181V8.66396H242.344C242.222 8.6481 242.097 8.6596 241.979 8.69762C241.862 8.73564 241.754 8.79927 241.664 8.88394L241.665 8.88307C241.479 9.12304 241.389 9.42436 241.411 9.72794V9.72355C241.384 10.0354 241.471 10.3467 241.656 10.5982L241.654 10.5947C241.826 10.7371 242.049 10.8057 242.271 10.7858H242.268H242.664L243.91 7.8673H245.235L246.727 11.373V7.8673H248.07L249.62 10.451V7.8673H250.525V11.5763H249.267L247.594 8.79104V11.5763L247.595 11.5824ZM244.548 8.49919L243.94 9.9786H245.157L244.548 8.49919ZM236.009 11.5807H235.128V7.86992H237.156C237.527 7.83127 237.901 7.89459 238.238 8.0531L238.224 8.04784C238.36 8.12327 238.473 8.23385 238.552 8.36809C238.63 8.50233 238.671 8.65534 238.673 8.81119L238.67 8.87256V8.86992V8.8971C238.67 9.09951 238.612 9.29764 238.503 9.4677C238.394 9.63778 238.239 9.77258 238.055 9.8559L238.048 9.85852C238.224 9.92513 238.371 10.032 238.483 10.1688L238.484 10.1705C238.609 10.3761 238.66 10.618 238.63 10.8568L238.632 10.8515V11.5798H237.742L237.738 11.1118V11.0417C237.77 10.8129 237.719 10.5802 237.596 10.3852L237.599 10.3896C237.507 10.3214 237.402 10.2723 237.29 10.2451C237.18 10.2179 237.063 10.2131 236.95 10.231L236.956 10.2301H236.011V11.5798L236.009 11.5807ZM236.009 8.64206V9.46589H237.079C237.231 9.48238 237.384 9.455 237.52 9.38701L237.515 9.38877C237.571 9.35464 237.617 9.30664 237.649 9.24938C237.681 9.19214 237.698 9.12756 237.698 9.06186L237.697 9.03732V9.03819C237.701 8.9716 237.687 8.90516 237.654 8.84706C237.622 8.78898 237.572 8.74178 237.514 8.71128L237.511 8.71042C237.379 8.6532 237.235 8.62913 237.09 8.6403H237.093L236.009 8.64206ZM226.673 11.5807H224.881L224.543 10.7534H222.705L222.364 11.5807H221.406L222.986 7.86992H224.295L225.795 11.3817V7.86992H227.233L228.386 10.3861L229.447 7.86992H230.915V11.5789H230.008L230.007 8.67623L228.729 11.5798H227.955L226.673 8.67185V11.5798V11.5807ZM223.62 8.49919L223.02 9.9786H224.224L223.62 8.49919ZM240.077 11.5798H239.177V7.86992H240.078V11.5789L240.077 11.5798ZM234.512 11.5798H231.572V7.86992H234.518V8.64117H232.455V9.30989H234.468V10.0715H232.453V10.8129H234.516V11.5789L234.512 11.5798Z" fill="#959A9E"></path><path fill-rule="evenodd" clip-rule="evenodd" d="M275.423 4.22266H279.45H307.637C306.976 7.49802 306.33 10.7004 305.686 13.8902C305.55 14.5611 305.414 15.2313 305.279 15.9016C305.248 16.0532 305.218 16.2056 305.187 16.358C305.017 17.2007 304.847 18.0489 304.67 18.8116C304.221 20.7499 302.556 21.2659 300.132 21.2659H268.783C269.159 19.4584 269.521 17.6114 269.887 15.753C270.332 13.4865 270.781 11.2031 271.258 8.95365C271.318 8.67481 271.372 8.39023 271.424 8.10507C271.525 7.56685 271.627 7.02657 271.77 6.51882C272.189 5.02959 273.644 4.30746 275.423 4.22266ZM294.093 13.9317C293.968 14.9569 295.188 14.8352 295.623 14.4063C295.944 14.0894 296.034 13.5238 296.106 13.0651C296.109 13.0507 296.112 13.0364 296.113 13.0221C295.116 12.8992 294.196 13.0801 294.093 13.9317ZM294.15 11.5231C294.186 11.38 294.222 11.2369 294.249 11.0845V11.0846C294.429 11.0793 294.633 11.0627 294.848 11.0451C295.833 10.965 297.044 10.8664 297.095 11.7568C297.113 12.0865 297.035 12.4442 296.956 12.8122C296.922 12.973 296.887 13.1357 296.858 13.299C296.854 13.325 296.85 13.3508 296.846 13.3766C296.744 13.9764 296.65 14.5254 296.643 15.1972H295.918C295.906 14.9548 295.94 14.7587 295.976 14.5645C295.629 15.1255 294.624 15.5338 293.798 15.1775C293.369 14.9923 293.145 14.3289 293.348 13.6549C293.648 12.6486 294.79 12.4138 296.192 12.5476L296.194 12.5431C296.255 12.3696 296.34 12.1355 296.29 11.9149C296.14 11.2453 294.59 11.631 294.093 11.7567C294.111 11.6778 294.13 11.6004 294.15 11.5231ZM300.665 13.8131C300.678 14.4005 300.961 14.7546 301.528 14.7423C302.559 14.7201 302.729 13.5953 302.885 12.5526C302.93 12.2512 302.976 11.9566 303.039 11.6975C302.729 11.5907 302.423 11.4915 302 11.5393C301.09 11.6417 300.642 12.7846 300.665 13.8131ZM303.117 11.1437C303.243 10.5584 303.34 9.94389 303.412 9.30504V9.30495H304.255C304.163 9.84054 304.059 10.3671 303.957 10.8936C303.688 12.2739 303.42 13.6541 303.314 15.1972H302.549C302.552 15.0318 302.576 14.8878 302.602 14.744C302.61 14.691 302.619 14.6382 302.627 14.5841C302.617 14.5497 302.575 14.6176 302.532 14.6875C302.511 14.7229 302.488 14.7587 302.47 14.7819C302.398 14.8737 302.286 15.0058 302.175 15.0785C301.61 15.4539 300.488 15.3471 300.095 14.9005C299.869 14.6414 299.806 14.2782 299.802 13.9119C299.78 12.0181 301.049 10.4837 303.117 11.1437ZM280.162 14.0899C280.25 14.9004 281.359 14.9078 281.81 14.4261C282.184 14.0271 282.494 13.0409 282.379 12.2511C282.246 11.3414 280.94 11.4074 280.497 11.9544C280.458 12.1431 280.427 12.3419 280.395 12.5479C280.371 12.696 280.346 12.8479 280.32 13.0024C280.301 13.1057 280.277 13.2093 280.254 13.3129C280.195 13.5753 280.135 13.837 280.162 14.0899ZM280.516 11.4438C280.893 11.1369 281.763 10.8142 282.477 11.0845C283.946 11.6407 283.102 14.4817 282.007 15.0785C281.476 15.3678 280.218 15.5109 280.025 14.7621C279.909 15.2486 279.835 15.7771 279.76 16.3055C279.726 16.5503 279.691 16.7953 279.652 17.0359H278.809C279.188 15.0843 279.546 13.1128 279.849 11.0845H280.575C280.572 11.1505 280.558 11.2064 280.545 11.2624C280.532 11.3184 280.519 11.3744 280.515 11.4405L280.516 11.4438ZM280.516 11.4438C280.514 11.4456 280.512 11.4474 280.509 11.4491C280.505 11.4528 280.501 11.4565 280.497 11.4602C280.507 11.4591 280.518 11.4573 280.516 11.4438ZM284.499 12.5081H286.479C286.659 11.7444 286.224 11.4961 285.617 11.5195C284.971 11.5444 284.561 12.049 284.499 12.5081ZM284.184 11.6183C284.551 11.2295 285.066 11.0527 285.676 11.0054C286.37 10.9515 287.055 11.0967 287.246 11.6579C287.354 11.9771 287.288 12.3211 287.223 12.6549C287.202 12.7657 287.181 12.8754 287.167 12.9826C286.256 12.9591 285.311 12.9535 284.4 12.9826C284.259 13.5898 284.262 14.2886 284.694 14.5645C285.268 14.9299 286.236 14.6363 286.794 14.4261C286.78 14.5108 286.763 14.5926 286.747 14.6744C286.719 14.8112 286.69 14.9478 286.676 15.0983C285.322 15.4303 283.63 15.4795 283.479 14.1097C283.371 13.1496 283.735 12.0952 284.184 11.6183ZM278.24 11.1437C278.238 11.1158 278.237 11.0878 278.26 11.0845H279.103C278.812 12.406 278.58 13.7867 278.377 15.1972H277.533C277.802 13.8797 278.054 12.5448 278.24 11.1437ZM298.665 11.737C298.907 11.3589 299.527 10.7286 300.273 11.1042C300.24 11.2118 300.22 11.3327 300.2 11.4536C300.186 11.5363 300.173 11.619 300.155 11.6975C298.835 11.3211 298.57 12.5728 298.39 13.7142C298.367 13.8558 298.343 13.9882 298.32 14.1164C298.255 14.4724 298.197 14.7965 298.193 15.1972H297.33C297.612 13.8672 297.854 12.4967 298.055 11.0845H298.802C298.771 11.1802 298.754 11.2901 298.737 11.3999C298.718 11.5181 298.7 11.6364 298.665 11.737ZM290.718 13.4374C290.698 13.6915 290.718 14.0259 290.796 14.2283C291.064 14.925 292.216 14.7611 292.818 14.4458C292.799 14.535 292.784 14.6275 292.768 14.7198C292.747 14.8419 292.727 14.9639 292.7 15.0785C291.598 15.4621 290.237 15.4077 289.933 14.4063C289.674 13.5504 290.041 12.1904 290.601 11.5985C291.172 10.9941 292.25 10.8778 293.386 11.0648C293.375 11.1564 293.359 11.2452 293.345 11.334C293.322 11.4653 293.301 11.5966 293.288 11.737C292.595 11.4929 291.727 11.421 291.286 11.8556C290.968 12.1705 290.762 12.866 290.718 13.4374ZM288.716 11.7766C288.99 11.2945 289.578 10.78 290.326 11.0845C290.316 11.1784 290.297 11.2643 290.279 11.3502C290.256 11.4603 290.234 11.5705 290.228 11.6975C289.436 11.4126 288.888 11.9348 288.678 12.5476C288.49 13.0956 288.41 13.8037 288.337 14.4557C288.308 14.7165 288.28 14.9682 288.246 15.1972H287.402C287.436 15.0181 287.47 14.8392 287.504 14.6604C287.728 13.4902 287.95 12.3201 288.109 11.0845H288.854C288.834 11.1757 288.818 11.2708 288.801 11.366C288.777 11.5073 288.753 11.6485 288.716 11.7766ZM276.337 11.7568C276.473 10.9845 276.608 10.2117 276.73 9.42364V9.42372H277.71C277.325 11.3021 276.999 13.2413 276.69 15.1973H275.728C275.814 14.6457 275.915 14.1089 276.017 13.5721C276.092 13.1668 276.169 12.7616 276.238 12.35C275.524 12.2814 274.647 12.3043 273.879 12.3244C273.801 12.3264 273.725 12.3284 273.648 12.3303C273.48 13.1162 273.351 13.9445 273.223 14.7728C273.202 14.9143 273.181 15.056 273.158 15.1973H272.197C272.458 13.8839 272.686 12.5366 272.914 11.1892C273.015 10.5997 273.114 10.0102 273.218 9.42356H274.158C274.08 9.79729 274.014 10.1818 273.946 10.5663C273.876 10.9604 273.808 11.3545 273.728 11.7369C274.399 11.7874 275.102 11.7759 275.802 11.7645C275.98 11.7616 276.159 11.7586 276.337 11.7568ZM279.26 9.42364C279.508 9.64503 279.291 10.1769 279.122 10.2936C279.016 10.3678 278.655 10.4532 278.495 10.2936C278.329 10.1297 278.427 9.68855 278.534 9.54225C278.6 9.45125 278.697 9.3932 278.867 9.36438C279.05 9.33317 279.182 9.35352 279.26 9.42364Z" fill="#959A9E"></path><path d="M338.567 7.4057C338.714 6.07208 338.45 5.12447 337.697 4.26029C336.793 3.22552 335.164 2.78223 333.077 2.78223H327.022C326.815 2.78231 326.615 2.85633 326.459 2.99098C326.302 3.12563 326.199 3.3121 326.166 3.5169L323.643 19.6037C323.632 19.6786 323.636 19.7549 323.656 19.8278C323.675 19.9006 323.712 19.9681 323.76 20.0256C323.81 20.0831 323.871 20.1293 323.939 20.1609C324.007 20.1926 324.081 20.209 324.157 20.209H327.569L327.318 21.8029C327.301 21.9145 327.308 22.0286 327.338 22.1373C327.369 22.2461 327.421 22.3468 327.495 22.4328C327.567 22.5187 327.658 22.5877 327.76 22.635C327.862 22.6823 327.974 22.7068 328.086 22.7069H331.238C331.769 22.7069 332.22 22.3209 332.305 21.7966L332.336 21.6347L332.929 17.8455L332.966 17.6413L332.968 17.6326C332.985 17.5293 333.036 17.4352 333.115 17.3674C333.194 17.2996 333.295 17.2624 333.398 17.2628H333.869C335.437 17.2628 336.871 16.944 338.01 16.1296C338.479 15.7935 338.891 15.3788 339.24 14.8783C339.818 14.0692 340.192 13.1313 340.329 12.145C340.628 10.5934 340.49 9.21126 339.623 8.21758C339.356 7.91775 339.037 7.66886 338.683 7.48291L338.567 7.40694V7.4057ZM329.26 13.765C329.383 13.7005 329.519 13.6668 329.658 13.6666H331.435C334.927 13.6666 337.658 12.2421 338.457 8.11797L338.46 8.09804C338.73 8.25245 338.956 8.43424 339.139 8.64344C339.815 9.41921 339.979 10.5548 339.696 12.018C339.36 13.7575 338.625 14.8907 337.637 15.5967C336.644 16.3065 335.358 16.6116 333.87 16.6116H333.4C333.143 16.6113 332.894 16.7031 332.699 16.8705C332.503 17.0381 332.373 17.2702 332.332 17.5256L332.295 17.7298L331.7 21.519L331.671 21.6808L331.67 21.6857C331.653 21.7888 331.601 21.8824 331.521 21.9499C331.443 22.0175 331.343 22.0545 331.239 22.0544H328.087C328.067 22.0544 328.049 22.0504 328.032 22.0423C328.015 22.0343 327.999 22.0226 327.987 22.0081C327.974 21.9936 327.965 21.9765 327.96 21.9579C327.955 21.9395 327.954 21.9202 327.957 21.9012L328.215 20.2576L329.26 13.765Z" fill="#959A9E"></path><path d="M356.472 2.22803H358.373V23.2609H356.472V2.22803Z" fill="#959A9E"></path><path d="M365.979 2.22803H367.88V21.3489H365.979V2.22803Z" fill="#959A9E"></path><path d="M360.274 2.22803H364.075V21.3489H360.274V2.22803Z" fill="#959A9E"></path><path d="M369.778 2.22803H373.579V21.3489H369.778V2.22803Z" fill="#959A9E"></path><path d="M375.479 2.22803H379.281V21.3489H375.479V2.22803Z" fill="#959A9E"></path><path d="M381.186 2.22803H383.085V23.2609H381.186V2.22803Z" fill="#959A9E"></path></g></svg>