<svg xmlns="http://www.w3.org/2000/svg" width="19" height="18" viewBox="0 0 19 18" fill="none"><path d="M12.4426 8.08343L12.2557 7.61968L12.2557 7.61968L12.4426 8.08343ZM12.4426 10.3725L12.2557 10.8362L12.2557 10.8362L12.4426 10.3725ZM16.9551 6.18506C16.9551 6.4612 17.1789 6.68506 17.4551 6.68506C17.7312 6.68506 17.9551 6.4612 17.9551 6.18506H16.9551ZM17.2768 3.33682L17.7508 3.17772L17.7508 3.17765L17.2768 3.33682ZM15.1182 1.17835L14.9591 1.65234L14.9591 1.65234L15.1182 1.17835ZM12.6128 0.5C12.3367 0.5 12.1128 0.723858 12.1128 1C12.1128 1.27614 12.3367 1.5 12.6128 1.5V0.5ZM1.67141 12.3129C1.67141 12.0367 1.44755 11.8129 1.17141 11.8129C0.895264 11.8129 0.671407 12.0367 0.671407 12.3129H1.67141ZM1.34976 15.1611L1.82375 15.0019L1.82374 15.0019L1.34976 15.1611ZM3.50823 17.3196L3.34906 17.7936L3.34913 17.7937L3.50823 17.3196ZM6.01365 17.9979C6.28979 17.9979 6.51365 17.7741 6.51365 17.4979C6.51365 17.2218 6.28979 16.9979 6.01365 16.9979V17.9979ZM12.4414 16.9979C12.1653 16.9979 11.9414 17.2218 11.9414 17.4979C11.9414 17.7741 12.1653 17.9979 12.4414 17.9979V16.9979ZM15.2896 17.3196L15.4487 17.7937L15.4488 17.7936L15.2896 17.3196ZM17.4482 15.1611L17.9222 15.3202L17.9222 15.3202L17.4482 15.1611ZM18.1265 12.6557C18.1265 12.3795 17.9026 12.1557 17.6265 12.1557C17.3503 12.1557 17.1265 12.3795 17.1265 12.6557H18.1265ZM6.18506 1.5C6.4612 1.5 6.68506 1.27614 6.68506 1C6.68506 0.723858 6.4612 0.5 6.18506 0.5V1.5ZM3.33682 1.17835L3.49599 1.65234L3.496 1.65234L3.33682 1.17835ZM1.17835 3.33682L1.65234 3.496L1.65234 3.49599L1.17835 3.33682ZM0.5 5.84224C0.5 6.11839 0.723858 6.34224 1 6.34224C1.27614 6.34224 1.5 6.11839 1.5 5.84224H0.5ZM11.2987 7.34181V10.9414H12.2987V7.34181H11.2987ZM11.2987 10.9414C11.2987 11.3279 10.9853 11.6412 10.5988 11.6412V12.6412C11.5376 12.6412 12.2987 11.8802 12.2987 10.9414H11.2987ZM10.5988 11.6412H6.99926V12.6412H10.5988V11.6412ZM6.99926 11.6412C6.61274 11.6412 6.29941 11.3279 6.29941 10.9414H5.29941C5.29941 11.8802 6.06046 12.6412 6.99926 12.6412V11.6412ZM6.29941 10.9414V7.34181H5.29941V10.9414H6.29941ZM6.29941 7.34181C6.29941 6.9553 6.61274 6.64197 6.99926 6.64197V5.64197C6.06046 5.64197 5.29941 6.40301 5.29941 7.34181H6.29941ZM6.99926 6.64197H10.5988V5.64197H6.99926V6.64197ZM10.5988 6.64197C10.9853 6.64197 11.2987 6.9553 11.2987 7.34181H12.2987C12.2987 6.40301 11.5376 5.64197 10.5988 5.64197V6.64197ZM12.157 8.73765L12.6295 8.54717L12.2557 7.61968L11.7831 7.81017L12.157 8.73765ZM12.6295 8.54717C12.9647 8.41205 13.1641 8.3331 13.308 8.29843C13.4419 8.26615 13.4076 8.30321 13.3493 8.26381L13.9088 7.435C13.6239 7.24268 13.3164 7.26778 13.0737 7.32626C12.841 7.38234 12.5604 7.49685 12.2557 7.61968L12.6295 8.54717ZM13.3493 8.26381C13.2909 8.2244 13.3124 8.17873 13.3326 8.31503C13.3542 8.46143 13.3555 8.67586 13.3555 9.03729H14.3555C14.3555 8.70874 14.3568 8.40568 14.3218 8.16886C14.2854 7.92195 14.1937 7.62732 13.9088 7.435L13.3493 8.26381ZM13.3555 9.03729V9.41863H14.3555V9.03729H13.3555ZM13.3555 9.41863C13.3555 9.78006 13.3542 9.99449 13.3326 10.1409C13.3124 10.2772 13.2909 10.2315 13.3493 10.1921L13.9088 11.0209C14.1937 10.8286 14.2854 10.534 14.3218 10.2871C14.3568 10.0502 14.3555 9.74718 14.3555 9.41863H13.3555ZM13.3493 10.1921C13.4076 10.1527 13.4419 10.1898 13.308 10.1575C13.1641 10.1228 12.9647 10.0439 12.6295 9.90875L12.2557 10.8362C12.5604 10.9591 12.841 11.0736 13.0737 11.1297C13.3164 11.1881 13.6239 11.2132 13.9088 11.0209L13.3493 10.1921ZM12.6295 9.90875L12.157 9.71827L11.7831 10.6458L12.2557 10.8362L12.6295 9.90875ZM17.9551 6.18506V5.84224H16.9551V6.18506H17.9551ZM17.9551 5.84224C17.9551 4.56621 17.9616 3.80575 17.7508 3.17772L16.8028 3.49593C16.9485 3.93007 16.9551 4.48585 16.9551 5.84224H17.9551ZM17.7508 3.17765C17.3591 2.0114 16.4437 1.09599 15.2774 0.704358L14.9591 1.65234C15.8285 1.94428 16.5109 2.62666 16.8028 3.49599L17.7508 3.17765ZM15.2774 0.704362C14.6493 0.493443 13.8888 0.5 12.6128 0.5V1.5C13.9692 1.5 14.525 1.50656 14.9591 1.65234L15.2774 0.704362ZM0.671407 12.3129V12.6557H1.67141V12.3129H0.671407ZM0.671407 12.6557C0.671407 13.9317 0.66485 14.6922 0.875769 15.3203L1.82374 15.0019C1.67796 14.5678 1.67141 14.0121 1.67141 12.6557H0.671407ZM0.875765 15.3202C1.2674 16.4865 2.1828 17.402 3.34906 17.7936L3.6674 16.8457C2.79806 16.5537 2.11569 15.8713 1.82375 15.0019L0.875765 15.3202ZM3.34913 17.7937C3.97716 18.0045 4.73761 17.9979 6.01365 17.9979V16.9979C4.65726 16.9979 4.10147 16.9914 3.66734 16.8456L3.34913 17.7937ZM12.4414 17.9979H12.7842V16.9979H12.4414V17.9979ZM12.7842 17.9979C14.0603 17.9979 14.8207 18.0045 15.4487 17.7937L15.1305 16.8456C14.6964 16.9914 14.1406 16.9979 12.7842 16.9979V17.9979ZM15.4488 17.7936C16.6151 17.402 17.5306 16.4866 17.9222 15.3202L16.9742 15.0019C16.6823 15.8713 15.9999 16.5537 15.1305 16.8457L15.4488 17.7936ZM17.9222 15.3202C18.133 14.6922 18.1265 13.9317 18.1265 12.6557H17.1265C17.1265 14.0121 17.1199 14.5678 16.9742 15.002L17.9222 15.3202ZM6.18506 0.5H5.84224V1.5H6.18506V0.5ZM5.84224 0.5C4.56622 0.5 3.80572 0.493443 3.17765 0.704362L3.496 1.65234C3.9301 1.50656 4.48583 1.5 5.84224 1.5V0.5ZM3.17765 0.70436C2.01141 1.096 1.096 2.01141 0.70436 3.17765L1.65234 3.49599C1.94427 2.62665 2.62665 1.94427 3.49599 1.65234L3.17765 0.70436ZM0.704362 3.17765C0.493443 3.80572 0.5 4.56622 0.5 5.84224H1.5C1.5 4.48583 1.50656 3.9301 1.65234 3.496L0.704362 3.17765Z" fill="#FF7B9C"></path></svg>