<svg xmlns="http://www.w3.org/2000/svg" width="705" height="1523" viewBox="0 0 705 1523" fill="none"><g opacity="0.5"><g style="mix-blend-mode:screen" filter="url(#filter0_f_1499_3273)"><path d="M820.558 356.97C606.237 490.22 538.931 407.7 532.069 349.784C440.048 357.555 474.381 413.81 556.575 523.204C622.33 610.72 768.669 551.96 833.619 511.64C994.678 473.063 1309.81 364.556 1281.87 239.144C1253.93 113.731 1164.89 153.719 1123.87 189.389C1112.06 189.728 1034.88 223.72 820.558 356.97Z" fill="url(#paint0_linear_1499_3273)"></path></g><g style="mix-blend-mode:screen" filter="url(#filter1_f_1499_3273)"><path d="M769.029 866.917C1004.77 564.942 1058.04 513.767 1073.09 654.996C1261.64 355.137 1478.45 775.539 1368.68 501.869C1280.87 282.933 688.843 366.742 639.903 581.158C576.573 858.613 193.274 799.691 241.231 1106.82C289.188 1413.95 388.974 1325.79 432.873 1243.32C446.699 1243.68 533.286 1168.89 769.029 866.917Z" fill="#0FB8C4"></path></g></g><defs><filter id="filter0_f_1499_3273" x="342.473" y="19.1043" width="1075.84" height="684.24" filterUnits="userSpaceOnUse" color-interpolation-filters="sRGB"><feGaussianBlur stdDeviation="67.35"></feGaussianBlur></filter><filter id="filter1_f_1499_3273" x="102.392" y="238.687" width="1430.63" height="1217.76" filterUnits="userSpaceOnUse" color-interpolation-filters="sRGB"><feGaussianBlur stdDeviation="67.35"></feGaussianBlur></filter><linearGradient id="paint0_linear_1499_3273" x1="863.389" y1="228.049" x2="892.305" y2="570.474" gradientUnits="userSpaceOnUse"><stop stop-color="#1E4B4C"></stop><stop offset="1" stop-color="#1CB0B4"></stop></linearGradient></defs></svg>