<svg xmlns="http://www.w3.org/2000/svg" width="789" height="1244" viewBox="0 0 789 1244" fill="none"><g opacity="0.5"><g style="mix-blend-mode:screen" filter="url(#filter0_f_1499_3276)"><path d="M160.23 299.962C-13.2602 407.826 -67.7429 341.028 -73.2979 294.146C-147.787 300.436 -119.996 345.973 -53.4608 434.527C-0.232902 505.37 118.227 457.804 170.803 425.166C301.178 393.938 556.273 306.104 533.654 204.584C511.035 103.064 438.963 135.433 405.754 164.308C396.201 164.583 333.721 192.098 160.23 299.962Z" fill="url(#paint0_linear_1499_3276)"></path></g><g style="mix-blend-mode:screen" filter="url(#filter1_f_1499_3276)"><path d="M118.517 712.757C309.348 468.313 352.467 426.887 364.649 541.211C517.283 298.479 692.786 638.788 603.931 417.256C532.846 240.03 53.6082 307.872 13.9914 481.439C-37.2728 706.035 -347.548 658.339 -308.728 906.955C-269.907 1155.57 -189.131 1084.21 -153.596 1017.45C-142.404 1017.74 -72.3131 957.202 118.517 712.757Z" fill="#0FB8C4"></path></g></g><defs><filter id="filter0_f_1499_3276" x="-252.435" y="0.802689" width="922.199" height="605.207" filterUnits="userSpaceOnUse" color-interpolation-filters="sRGB"><feGaussianBlur stdDeviation="67.35"></feGaussianBlur></filter><filter id="filter1_f_1499_3276" x="-446.778" y="178.552" width="1209.4" height="1037.08" filterUnits="userSpaceOnUse" color-interpolation-filters="sRGB"><feGaussianBlur stdDeviation="67.35"></feGaussianBlur></filter><linearGradient id="paint0_linear_1499_3276" x1="194.901" y1="195.603" x2="218.308" y2="472.791" gradientUnits="userSpaceOnUse"><stop stop-color="#1E4B4C"></stop><stop offset="1" stop-color="#1CB0B4"></stop></linearGradient></defs></svg>