<svg xmlns="http://www.w3.org/2000/svg" width="2019" height="1254" viewBox="0 0 2019 1254" fill="none"><path d="M-147.701 823.389L-35.3139 809.86C-29.25 809.13 -23.3679 807.31 -17.9511 804.489L121.625 731.78C131.012 726.889 141.695 725.06 152.175 726.549L230.324 737.647C242.872 739.429 255.632 736.447 266.09 729.288L384.201 648.436C403.092 635.504 428.306 636.837 445.728 651.69L638.28 815.841C655.526 830.544 680.435 832.014 699.292 819.443L791.101 758.237C804.606 749.234 821.605 747.241 836.826 752.877L925.554 785.729C938.353 790.468 952.522 789.846 964.856 784.004L1096.65 721.587C1115.83 712.505 1138.63 716.326 1153.8 731.164L1217.57 793.545C1234.7 810.299 1261.22 812.775 1281.15 799.481L1320.7 773.109C1334.71 763.762 1352.45 761.988 1368.04 768.374L1445.22 799.989C1460.13 806.096 1477.05 804.754 1490.81 796.374L1596.66 731.904C1605.93 726.258 1616.76 723.736 1627.57 724.709L1736.38 734.5C1742.58 735.058 1748.62 736.752 1754.21 739.499L1839.58 781.481C1858.09 790.584 1880.27 787.563 1895.68 773.839L1998.71 682.042C2015.26 667.293 2039.48 665.011 2058.49 676.408L2100.62 701.655C2212.87 768.926 2353.86 765.354 2462.56 692.487L2523.88 651.379C2544.63 637.471 2572.41 640.746 2589.36 659.095L2651.28 726.156C2664.21 740.156 2683.9 745.724 2702.24 740.567L2803.01 712.248C2810.61 710.11 2817.62 706.223 2823.45 700.898L2955.76 580.219" stroke="#01B6BA" stroke-width="6.75959" stroke-linecap="round" stroke-linejoin="round"></path><g filter="url(#filter0_f_1501_5576)"><path d="M-143.261 792.123L-23.4363 757.233C-20.238 756.302 -16.9557 755.688 -13.6369 755.401L119.217 743.896C128.522 743.091 137.869 744.871 146.226 749.041L162.966 757.394C247.75 799.699 346.399 804.471 434.871 770.547L522.919 736.786C540.943 729.874 561.329 733.799 575.499 746.909L618.59 786.776C678.914 842.587 771.442 844.473 833.991 791.168L862.343 767.006C920.657 717.309 1005.11 713.063 1068.11 756.66L1117.38 790.749C1133.94 802.208 1155.71 802.779 1172.85 792.202L1345.63 685.574C1364.15 674.147 1387.89 675.811 1404.64 689.709L1523.2 788.123L1676.06 649.237L1765.4 708.141C1780.87 718.341 1801.24 717.033 1815.28 704.937V704.937C1863.07 663.758 1929.4 651.656 1988.65 673.303L2093.32 711.541C2195.55 748.887 2309.5 734.72 2399.47 673.481L2427.62 654.321C2450.07 639.039 2480.58 644.165 2496.8 665.947L2512.37 686.84C2530.05 710.584 2564.24 714.185 2586.48 694.646L2670.95 620.449C2684.81 608.282 2704.17 604.594 2721.53 610.82L2802.77 639.965C2815.9 644.672 2830.38 643.768 2842.81 637.465L2955.76 580.219" stroke="#008488" stroke-width="6.75959" stroke-linecap="round" stroke-linejoin="round"></path></g><g opacity="0.542522" filter="url(#filter1_f_1501_5576)"><path d="M-128.643 742.069C-148.748 728.482 -124.496 718.571 -104.39 732.158L-19.1441 789.767C-17.4073 790.94 116.369 749.139 116.369 749.139C130.231 744.548 144.967 743.228 159.424 745.281L268.113 760.717C269.716 760.945 376.849 680.907 376.849 680.907C403.107 664.08 435.969 661.271 464.702 673.396L533.092 702.256C534.775 702.966 635.258 664.942 635.258 664.942C664.449 652.583 697.888 655.66 724.332 673.138L804.312 686.336C806.902 688.048 810.325 687.776 812.612 685.675L897.188 607.994C920.215 586.845 952.202 578.434 982.654 585.52L1086.87 604.111C1214.25 633.756 1663.48 441.276 1742 357.943C1742 357.943 1845.86 498.471 1877.71 532.102C1877.71 532.102 2021.99 429.614 2048.76 433.416C2091.36 439.466 2207.54 541.308 2207.54 541.308C2208.15 541.754 2447.22 402.319 2474.49 408.534C2512.11 417.108 2544.12 453.047 2565.17 474.847C2568.21 477.99 2696.42 440.052 2696.42 440.052C2728.78 415.661 2732.11 443.671 2765.62 466.457L2833.67 512.728C2835.83 514.193 2998.02 431.678 2998.02 431.678C3018.97 419.443 2859.36 564.761 2829.2 544.251L2718.44 477.316C2716.04 475.689 2592.92 557.27 2566.96 551.387C2545.46 546.517 2467.05 460.912 2467.05 460.912C2463.85 457.51 2267.68 622.605 2267.68 622.605C2245.01 624.574 2138.82 615.036 2120.39 601.688L2060.09 558.003C1997.35 512.545 1833.64 733.417 1806.41 759.399L1765.28 647.854C1765.28 647.854 1631.88 786.679 1557.54 791.468C1483.2 796.257 1389.14 713.748 1389.14 713.748L1249.15 674.055C1244.16 675.648 1239.05 676.823 1233.87 677.569L1101.1 696.678C1089.47 698.353 1077.62 697.845 1066.17 695.18L962.735 671.108C960.56 670.602 958.276 671.203 956.631 672.713L872.054 750.394C840.043 779.796 792.121 783.611 755.86 759.646L684.685 704.637C682.796 703.389 576.774 753.891 576.774 753.891C553.226 763.861 526.645 763.877 503.086 753.935L436.232 714.254C434.18 713.388 288.147 787.905 288.147 787.905C278.751 793.927 250.521 772.422 146.857 773.225C110.156 773.509 19.1055 807.43 19.1055 807.43C-8.75345 816.655 -28.2758 823.921 -52.5908 807.489L-128.643 742.069Z" fill="url(#paint0_linear_1501_5576)"></path></g><defs><filter id="filter0_f_1501_5576" x="-171.199" y="552.281" width="3154.89" height="305.581" filterUnits="userSpaceOnUse" color-interpolation-filters="sRGB"><feGaussianBlur stdDeviation="12.2787"></feGaussianBlur></filter><filter id="filter1_f_1501_5576" x="-355.871" y="138.256" width="3575.46" height="898.7" filterUnits="userSpaceOnUse" color-interpolation-filters="sRGB"><feGaussianBlur stdDeviation="109.843"></feGaussianBlur></filter><linearGradient id="paint0_linear_1501_5576" x1="1622.49" y1="-141.98" x2="993.934" y2="1297.86" gradientUnits="userSpaceOnUse"><stop stop-color="#008C8F" stop-opacity="0.389719"></stop><stop offset="0.445538" stop-color="#002A2E"></stop><stop offset="0.790756" stop-color="#6FBEDA"></stop><stop offset="1" stop-color="#008C8F" stop-opacity="0.4"></stop></linearGradient></defs></svg>