<svg xmlns="http://www.w3.org/2000/svg" width="3576" height="1231" viewBox="0 0 3576 1231" fill="none"><g filter="url(#filter0_f_1527_276)"><path d="M212.612 791.773L332.436 756.883C335.634 755.952 338.917 755.338 342.236 755.05L475.09 743.546C484.395 742.74 493.741 744.52 502.098 748.69L518.838 757.043C603.622 799.348 702.271 804.12 790.743 770.196L878.791 736.435C896.816 729.524 917.201 733.449 931.371 746.558L974.463 786.426C1034.79 842.236 1127.31 844.123 1189.86 790.817L1218.21 766.655C1276.53 716.958 1360.98 712.712 1423.99 756.309L1473.25 790.398C1489.81 801.857 1511.58 802.428 1528.72 791.852L1701.5 685.224C1720.02 673.796 1743.77 675.46 1760.51 689.358L1879.07 787.772L2031.93 648.887L2121.28 707.791C2136.75 717.991 2157.11 716.682 2171.15 704.586V704.586C2218.94 663.408 2285.27 651.306 2344.52 672.953L2449.19 711.191C2551.42 748.536 2665.37 734.369 2755.34 673.13L2783.49 653.971C2805.95 638.688 2836.45 643.815 2852.68 665.596L2868.24 686.49C2885.93 710.234 2920.11 713.834 2942.35 694.295L3026.83 620.099C3040.68 607.931 3060.04 604.244 3077.4 610.469L3158.65 639.614C3171.77 644.321 3186.25 643.417 3198.68 637.115L3311.63 579.868" stroke="#008488" stroke-width="6.75959" stroke-linecap="round" stroke-linejoin="round"></path></g><g opacity="0.542522" filter="url(#filter1_f_1527_276)"><path d="M227.23 741.718C207.124 728.131 231.377 718.221 251.482 731.808L336.728 789.416C338.465 790.59 472.241 748.788 472.241 748.788C486.103 744.198 500.839 742.878 515.296 744.931L623.985 760.366C625.588 760.594 732.721 680.557 732.721 680.557C758.979 663.73 791.841 660.92 820.574 673.045L888.964 701.905C890.647 702.615 991.131 664.591 991.131 664.591C1020.32 652.233 1053.76 655.31 1080.2 672.788L1160.18 685.986C1162.77 687.698 1166.2 687.425 1168.48 685.325L1253.06 607.644C1276.09 586.494 1308.07 578.083 1338.53 585.17L1442.74 603.761C1570.12 633.406 2019.35 440.926 2097.87 357.592C2097.87 357.592 2201.73 498.12 2233.59 531.751C2233.59 531.751 2377.86 429.264 2404.63 433.065C2447.23 439.115 2563.41 540.957 2563.41 540.957C2564.02 541.403 2803.09 401.969 2830.36 408.183C2867.98 416.758 2900 452.696 2921.04 474.497C2924.08 477.639 3052.29 439.702 3052.29 439.702C3084.65 415.311 3087.98 443.321 3121.5 466.106L3189.55 512.377C3191.7 513.842 3353.89 431.328 3353.89 431.328C3374.84 419.093 3215.23 564.41 3185.07 543.901L3074.31 476.966C3071.92 475.338 2948.8 556.92 2922.83 551.037C2901.33 546.166 2822.92 460.561 2822.92 460.561C2819.72 457.16 2623.55 622.254 2623.55 622.254C2600.88 624.223 2494.69 614.686 2476.27 601.337L2415.97 557.652C2353.22 512.194 2189.52 733.066 2162.29 759.048L2121.15 647.504C2121.15 647.504 1987.76 786.329 1913.41 791.118C1839.07 795.906 1745.02 713.398 1745.02 713.398L1605.03 673.705C1600.04 675.297 1594.92 676.472 1589.74 677.218L1456.98 696.327C1445.34 698.002 1433.49 697.494 1422.04 694.829L1318.61 670.757C1316.43 670.251 1314.15 670.852 1312.5 672.363L1227.93 750.044C1195.92 779.445 1147.99 783.261 1111.73 759.296L1040.56 704.287C1038.67 703.038 932.646 753.541 932.646 753.541C909.098 763.51 882.518 763.526 858.958 753.584L792.105 713.903C790.052 713.037 644.02 787.555 644.02 787.555C634.624 793.576 606.393 772.071 502.729 772.874C466.029 773.159 374.978 807.079 374.978 807.079C347.119 816.304 327.597 823.57 303.282 807.138L227.23 741.718Z" fill="url(#paint0_linear_1527_276)"></path></g><defs><filter id="filter0_f_1527_276" x="184.674" y="551.93" width="3154.89" height="305.581" filterUnits="userSpaceOnUse" color-interpolation-filters="sRGB"><feGaussianBlur stdDeviation="12.2787"></feGaussianBlur></filter><filter id="filter1_f_1527_276" x="0.00164795" y="137.906" width="3575.46" height="898.7" filterUnits="userSpaceOnUse" color-interpolation-filters="sRGB"><feGaussianBlur stdDeviation="109.843"></feGaussianBlur></filter><linearGradient id="paint0_linear_1527_276" x1="1978.37" y1="-142.33" x2="1349.81" y2="1297.51" gradientUnits="userSpaceOnUse"><stop stop-color="#008C8F" stop-opacity="0.389719"></stop><stop offset="0.445538" stop-color="#002A2E"></stop><stop offset="0.790756" stop-color="#6FBEDA"></stop><stop offset="1" stop-color="#008C8F" stop-opacity="0.4"></stop></linearGradient></defs></svg>