<svg xmlns="http://www.w3.org/2000/svg" width="3111" height="256" viewBox="0 0 3111 256" fill="none"><path d="M4 247.394L116.387 233.865C122.451 233.135 128.333 231.315 133.75 228.493L273.326 155.784C282.713 150.894 293.396 149.065 303.876 150.553L382.025 161.652C394.573 163.433 407.333 160.451 417.791 153.292L535.902 72.4401C554.793 59.5083 580.007 60.8417 597.429 75.6939L789.982 239.846C807.228 254.548 832.137 256.019 850.993 243.448L942.803 182.242C956.307 173.239 973.306 171.246 988.527 176.881L1077.26 209.733C1090.05 214.472 1104.22 213.85 1116.56 208.009L1248.35 145.591C1267.53 136.509 1290.33 140.331 1305.5 155.169L1369.27 217.549C1386.4 234.303 1412.92 236.779 1432.85 223.486L1472.4 197.113C1486.41 187.767 1504.16 185.992 1519.74 192.378L1596.92 223.993C1611.83 230.1 1628.75 228.758 1642.51 220.378L1748.36 155.908C1757.63 150.262 1768.47 147.741 1779.28 148.713L1888.08 158.504C1894.28 159.062 1900.32 160.757 1905.91 163.503L1991.28 205.486C2009.79 214.589 2031.98 211.567 2047.38 197.844L2150.41 106.046C2166.96 91.2973 2191.18 89.0155 2210.19 100.412L2252.32 125.66C2364.57 192.931 2505.56 189.359 2614.26 116.491L2675.58 75.3833C2696.33 61.4758 2724.11 64.7501 2741.06 83.0993L2802.98 150.16C2815.91 164.16 2835.6 169.728 2853.95 164.572L2954.71 136.252C2962.31 134.114 2969.32 130.228 2975.15 124.902L3107.46 4.22342" stroke="#01B6BA" stroke-width="6.75959" stroke-linecap="round" stroke-linejoin="round"></path></svg>