<svg xmlns="http://www.w3.org/2000/svg" width="341" height="88" viewBox="0 0 341 88" fill="none"><path d="M1.41133 3.48931H3.27229V14H1.41133V3.48931ZM14.2258 3.48931H16.5185L20.4339 11.2904L24.4238 3.48931H26.6719V14H24.9002V6.00532L20.8657 14H20.0171L15.9974 6.00532V14H14.2258V3.48931ZM37.6099 3.48931H45.2473V5.03762H39.4708V7.91094H45.2026V9.45926H39.4708V12.4517H45.2473V14H37.6099V3.48931ZM59.1374 9.74213H57.7082V14H55.8473V3.48931H60.9389C61.8222 3.48931 62.5566 3.62826 63.1422 3.90616C63.7377 4.18406 64.1546 4.60092 64.3928 5.15672C64.5714 5.5438 64.6608 6.00036 64.6608 6.52639C64.6608 7.11197 64.5665 7.60823 64.3779 8.01516C64.1397 8.55111 63.7675 8.96301 63.2613 9.25083C62.7651 9.53866 62.1497 9.69746 61.4153 9.72724L65.4052 14H63.0231L59.1374 9.74213ZM57.7082 8.22358H60.4773C61.0728 8.22358 61.5443 8.15907 61.8917 8.03004C62.249 7.90102 62.4921 7.68763 62.6212 7.38988C62.7204 7.18145 62.77 6.90851 62.77 6.57105C62.77 6.28323 62.7254 6.04502 62.636 5.85645C62.4971 5.54877 62.249 5.33041 61.8917 5.20139C61.5344 5.07236 61.0629 5.00785 60.4773 5.00785H57.7082V8.22358ZM79.612 14.268C78.4408 14.268 77.4532 14.0893 76.6493 13.732C75.8553 13.3747 75.2995 12.8437 74.9819 12.139C74.7834 11.6825 74.6841 11.1565 74.6841 10.5609H76.6493C76.6692 10.948 76.7337 11.2756 76.8428 11.5435C77.0314 11.9604 77.3639 12.2681 77.8403 12.4666C78.3267 12.6651 78.9321 12.7643 79.6566 12.7643C80.3017 12.7643 80.8576 12.6849 81.324 12.5261C81.8004 12.3574 82.118 12.1093 82.2768 11.7817C82.3562 11.5733 82.3959 11.3798 82.3959 11.2011C82.3959 11.0225 82.3562 10.8438 82.2768 10.6652C82.1677 10.427 81.9692 10.2334 81.6813 10.0845C81.4034 9.92574 81.0858 9.80168 80.7285 9.71235C80.3712 9.62303 79.9097 9.52874 79.344 9.42949L78.6591 9.2955C77.7361 9.10692 76.9818 8.86872 76.3962 8.58089C75.8106 8.28314 75.3987 7.87621 75.1605 7.3601C75.0216 7.05242 74.9521 6.70504 74.9521 6.31796C74.9521 5.93088 75.0315 5.55373 75.1903 5.1865C75.3789 4.76965 75.6816 4.41234 76.0985 4.11459C76.5153 3.81684 77.0116 3.59352 77.5872 3.44464C78.1728 3.29577 78.7981 3.22133 79.4631 3.22133C80.4953 3.22133 81.3836 3.39502 82.128 3.7424C82.8823 4.08978 83.4083 4.60092 83.7061 5.27583C83.8946 5.69268 83.9889 6.18397 83.9889 6.74971H82.0684C82.0585 6.5512 82.0386 6.37751 82.0089 6.22864C81.9791 6.07976 81.9344 5.94081 81.8749 5.81178C81.6962 5.4247 81.3985 5.14184 80.9816 4.96318C80.5747 4.77461 80.0635 4.68032 79.4482 4.68032C78.8527 4.68032 78.3316 4.76468 77.885 4.93341C77.4384 5.09221 77.1456 5.33041 77.0066 5.64802C76.9471 5.77704 76.9173 5.93088 76.9173 6.10954C76.9173 6.28819 76.9421 6.44203 76.9917 6.57105C77.091 6.78941 77.2696 6.96806 77.5277 7.10701C77.7857 7.24596 78.0785 7.3601 78.4061 7.44943C78.7435 7.53875 79.1901 7.638 79.7459 7.74718C79.8849 7.76703 80.0933 7.80673 80.3712 7.86628C81.0461 8.00523 81.6218 8.15411 82.0982 8.31291C82.5845 8.47171 83.0113 8.68014 83.3785 8.93819C83.7458 9.18632 84.0137 9.50392 84.1825 9.891C84.3313 10.2185 84.4058 10.6006 84.4058 11.0374C84.4058 11.4939 84.3214 11.9058 84.1527 12.273C83.8549 12.938 83.3041 13.4392 82.5002 13.7767C81.6962 14.1042 80.7335 14.268 79.612 14.268ZM102.255 11.484H96.6571L95.6149 14H93.62L98.116 3.48931H100.781L105.262 14H103.297L102.255 11.484ZM101.6 9.92078L99.4559 4.73987H99.4262L97.2972 9.92078H101.6ZM100.885 2.81936C100.568 2.81936 100.29 2.76974 100.051 2.67048C99.8132 2.56131 99.5502 2.40747 99.2624 2.20897C99.2028 2.16927 99.0937 2.09483 98.9349 1.98565C98.7761 1.87648 98.6371 1.80204 98.518 1.76234C98.4088 1.71271 98.2947 1.6879 98.1756 1.6879C97.9175 1.6879 97.724 1.78219 97.595 1.97076C97.4759 2.14942 97.4064 2.41243 97.3865 2.75981H96.0913C96.1409 2.01543 96.3246 1.44473 96.6422 1.04773C96.9697 0.640799 97.4362 0.437334 98.0416 0.437334C98.3394 0.437334 98.6024 0.486959 98.8307 0.586211C99.0589 0.675537 99.3368 0.829376 99.6644 1.04773C99.9423 1.24623 100.141 1.38022 100.26 1.4497C100.389 1.51917 100.538 1.55391 100.706 1.55391C100.935 1.55391 101.108 1.46458 101.228 1.28593C101.357 1.10728 101.436 0.844264 101.466 0.496884H102.791C102.761 1.23134 102.582 1.80204 102.255 2.20897C101.937 2.6159 101.481 2.81936 100.885 2.81936ZM120.094 14.268C118.824 14.268 117.747 14.0496 116.863 13.6129C115.98 13.1762 115.33 12.5509 114.913 11.7371C114.665 11.3401 114.476 10.8885 114.347 10.3823C114.228 9.87612 114.169 9.33023 114.169 8.74465C114.169 7.78192 114.338 6.91843 114.675 6.1542C115.092 5.22124 115.762 4.50167 116.685 3.99549C117.608 3.47938 118.749 3.22133 120.109 3.22133C121.459 3.22133 122.595 3.47442 123.518 3.9806C124.441 4.48678 125.106 5.19643 125.513 6.10954C125.861 6.89362 126.034 7.77199 126.034 8.74465C126.034 9.74709 125.856 10.6354 125.498 11.4095C125.081 12.3227 124.411 13.0273 123.488 13.5236C122.575 14.0199 121.444 14.268 120.094 14.268ZM120.109 12.6303C120.992 12.6303 121.737 12.4666 122.342 12.139C122.957 11.8016 123.404 11.3252 123.682 10.7098C123.93 10.1441 124.054 9.48904 124.054 8.74465C124.054 8.00027 123.93 7.34521 123.682 6.77948C123.404 6.16412 122.957 5.69268 122.342 5.36515C121.737 5.0277 120.992 4.85897 120.109 4.85897C119.216 4.85897 118.461 5.0277 117.846 5.36515C117.241 5.69268 116.804 6.16412 116.536 6.77948C116.288 7.34521 116.164 8.00027 116.164 8.74465C116.164 9.48904 116.288 10.1441 116.536 10.7098C116.804 11.3252 117.241 11.8016 117.846 12.139C118.461 12.4666 119.216 12.6303 120.109 12.6303Z" fill="white"></path><path d="M151.118 61.4411V38.5854H160.12V79.5036H151.527L136.621 54.6604V79.5036H127.677V48.1135H132.763L127.034 38.5854H137.732L151.118 61.4411Z" fill="url(#paint0_linear_14511_1507)"></path><path d="M192.347 47.0613H172.531V58.6353L176.506 54.8358H186.034V63.2532H172.531V71.0277H192.347V79.5036H171.771L163.529 71.203V46.4183L171.771 38.5854H192.347V47.0613Z" fill="url(#paint1_linear_14511_1507)"></path><path d="M210.917 55.1865H226.524V79.5036H217.522V75.2949L213.314 79.5036H202.441V79.4451L194.199 71.203V46.4183L202.441 38.6438V38.5854H223.426V47.0613H203.201V71.0277H217.522V63.6039H210.917V55.1865Z" fill="url(#paint2_linear_14511_1507)"></path><path d="M253.294 38.5854L261.536 46.4183V71.203L253.294 79.5036H237.336L229.094 71.203V46.4183L237.336 38.5854H253.294ZM238.096 71.0277H252.534V47.0613H238.096V71.0277Z" fill="url(#paint3_linear_14511_1507)"></path><path d="M273.276 75.2364L277.601 71.0277H293.384V79.5036H272.516L264.274 71.203V46.4183L272.516 38.5854H293.384V47.0613H273.276V75.2364Z" fill="url(#paint4_linear_14511_1507)"></path><path d="M304.819 79.5036H295.817V38.5854H304.819V79.5036Z" fill="url(#paint5_linear_14511_1507)"></path><path d="M332.404 38.5854L340.646 46.4183V71.203L332.404 79.5036H316.446L308.204 71.203V46.4183L316.446 38.5854H332.404ZM317.206 71.0277H331.644V47.0613H317.206V71.0277Z" fill="url(#paint6_linear_14511_1507)"></path><path d="M257.175 33.3233H233.443V25.5488H257.175V33.3233Z" fill="url(#paint7_linear_14511_1507)"></path><path d="M94.8953 42.6278H97.2992V56.2371H93.1634L87.6648 43.754L87.7594 47.0664V56.2371H85.3555V42.6278H89.5387L94.9899 54.9973L94.8953 51.3726V42.6278Z" fill="url(#paint8_linear_14511_1507)"></path><path d="M111.519 54.5809C110.27 55.8806 108.623 56.5305 106.579 56.5305C104.541 56.5305 102.895 55.8806 101.639 54.5809C100.39 53.2812 99.7651 51.565 99.7651 49.4325C99.7651 47.2999 100.39 45.5869 101.639 44.2935C102.895 42.9937 104.541 42.3439 106.579 42.3439C108.623 42.3439 110.27 42.9937 111.519 44.2935C112.775 45.5869 113.403 47.2999 113.403 49.4325C113.403 51.565 112.775 53.2812 111.519 54.5809ZM103.276 53.237C103.97 54.0194 105.071 54.4105 106.579 54.4105C108.093 54.4105 109.194 54.0194 109.882 53.237C110.576 52.4483 110.923 51.1833 110.923 49.4419C110.923 47.6942 110.576 46.426 109.882 45.6374C109.194 44.8487 108.093 44.4544 106.579 44.4544C105.071 44.4544 103.97 44.8487 103.276 45.6374C102.589 46.426 102.245 47.6942 102.245 49.4419C102.245 51.1833 102.589 52.4483 103.276 53.237Z" fill="url(#paint9_linear_14511_1507)"></path><path d="M85.488 76.2023C83.7025 76.2023 82.264 75.7764 81.1724 74.9246C80.0809 74.0665 79.5352 72.9403 79.5352 71.5459H81.9769C81.9769 72.4608 82.2576 73.1264 82.8192 73.5429C83.3807 73.9593 84.2766 74.1675 85.507 74.1675C87.7657 74.1675 88.8951 73.5712 88.8951 72.3788C88.8951 72.0318 88.8162 71.7447 88.6585 71.5175C88.5071 71.2904 88.1285 71.0475 87.5228 70.7888C86.9171 70.5301 86.0433 70.2935 84.9013 70.079C83.1283 69.7572 81.8475 69.2967 81.0589 68.6973C80.2765 68.0916 79.8853 67.2524 79.8853 66.1798C79.8853 64.9243 80.3869 63.9179 81.3901 63.1608C82.3996 62.3974 83.7277 62.0156 85.3745 62.0156C87.0654 62.0156 88.4314 62.4541 89.4724 63.3311C90.5135 64.2081 91.034 65.3628 91.034 66.795H88.5922C88.5922 65.8233 88.3367 65.123 87.8257 64.694C87.3146 64.2649 86.4818 64.0504 85.3272 64.0504C83.2955 64.0504 82.2829 64.6561 82.2892 65.8675C82.2892 66.2398 82.3807 66.5395 82.5637 66.7666C82.7529 66.9937 83.1378 67.2209 83.7183 67.448C84.305 67.6751 85.16 67.8991 86.283 68.12C88.0812 68.4544 89.3651 68.9402 90.1349 69.5774C90.9109 70.2084 91.299 71.0664 91.299 72.1516C91.299 73.3693 90.7658 74.3505 89.6995 75.095C88.6333 75.8332 87.2294 76.2023 85.488 76.2023Z" fill="url(#paint10_linear_14511_1507)"></path><path d="M95.9984 73.893H102.955V75.9089H93.5756V62.2996H102.841V64.3154H95.9984V68.0632H102.472V69.9938H95.9984V73.893Z" fill="url(#paint11_linear_14511_1507)"></path><path d="M105.326 71.2147V62.2996H107.749V71.1011C107.749 72.1485 108.01 72.9119 108.534 73.3914C109.058 73.8709 109.9 74.1107 111.061 74.1107C112.228 74.1107 113.074 73.8709 113.597 73.3914C114.121 72.9119 114.383 72.1485 114.383 71.1011V62.2996H116.787V71.2147C116.787 72.7163 116.263 73.9246 115.216 74.8394C114.168 75.748 112.783 76.2023 111.061 76.2023C109.345 76.2023 107.96 75.748 106.906 74.8394C105.853 73.9246 105.326 72.7163 105.326 71.2147Z" fill="url(#paint12_linear_14511_1507)"></path><path d="M47.4968 30.8083L59.2877 40.3738C60.0428 40.9864 60.5813 41.8252 60.8239 42.7668L70.8887 81.826C71.6291 84.6995 69.4594 87.4993 66.4921 87.4993H12.286C10.0298 87.4993 8.11594 85.8426 7.79258 83.6097L0.751053 34.9849C0.354561 32.247 2.47797 29.7939 5.24447 29.7939H44.6364C45.678 29.7939 46.6879 30.1521 47.4968 30.8083Z" fill="url(#paint13_linear_14511_1507)" stroke="url(#paint14_linear_14511_1507)" stroke-width="0.26181"></path><path d="M24.5043 80.3214H14.918L9.15918 37.1299H18.7454L24.5043 80.3214Z" fill="url(#paint15_linear_14511_1507)"></path><path d="M32.6209 37.1299H48.1829L66.5159 80.3214H55.996L51.6106 68.9065L48.2906 72.4852H37.2727L36.3878 80.3214H25.8056L32.6209 37.1299ZM38.2327 64.2788H49.8731L42.6166 45.3363H40.4379L38.2327 64.2788Z" fill="url(#paint16_linear_14511_1507)"></path><defs><linearGradient id="paint0_linear_14511_1507" x1="190.2" y1="25.52" x2="190.2" y2="79.5034" gradientUnits="userSpaceOnUse"><stop stop-color="white"></stop><stop offset="1" stop-color="#C1D5FF"></stop></linearGradient><linearGradient id="paint1_linear_14511_1507" x1="190.2" y1="25.52" x2="190.2" y2="79.5034" gradientUnits="userSpaceOnUse"><stop stop-color="white"></stop><stop offset="1" stop-color="#C1D5FF"></stop></linearGradient><linearGradient id="paint2_linear_14511_1507" x1="190.2" y1="25.52" x2="190.2" y2="79.5034" gradientUnits="userSpaceOnUse"><stop stop-color="white"></stop><stop offset="1" stop-color="#C1D5FF"></stop></linearGradient><linearGradient id="paint3_linear_14511_1507" x1="190.2" y1="25.52" x2="190.2" y2="79.5034" gradientUnits="userSpaceOnUse"><stop stop-color="white"></stop><stop offset="1" stop-color="#C1D5FF"></stop></linearGradient><linearGradient id="paint4_linear_14511_1507" x1="190.2" y1="25.52" x2="190.2" y2="79.5034" gradientUnits="userSpaceOnUse"><stop stop-color="white"></stop><stop offset="1" stop-color="#C1D5FF"></stop></linearGradient><linearGradient id="paint5_linear_14511_1507" x1="190.2" y1="25.52" x2="190.2" y2="79.5034" gradientUnits="userSpaceOnUse"><stop stop-color="white"></stop><stop offset="1" stop-color="#C1D5FF"></stop></linearGradient><linearGradient id="paint6_linear_14511_1507" x1="190.2" y1="25.52" x2="190.2" y2="79.5034" gradientUnits="userSpaceOnUse"><stop stop-color="white"></stop><stop offset="1" stop-color="#C1D5FF"></stop></linearGradient><linearGradient id="paint7_linear_14511_1507" x1="190.2" y1="25.52" x2="190.2" y2="79.5034" gradientUnits="userSpaceOnUse"><stop stop-color="white"></stop><stop offset="1" stop-color="#C1D5FF"></stop></linearGradient><linearGradient id="paint8_linear_14511_1507" x1="190.2" y1="25.52" x2="190.2" y2="79.5034" gradientUnits="userSpaceOnUse"><stop stop-color="white"></stop><stop offset="1" stop-color="#C1D5FF"></stop></linearGradient><linearGradient id="paint9_linear_14511_1507" x1="190.2" y1="25.52" x2="190.2" y2="79.5034" gradientUnits="userSpaceOnUse"><stop stop-color="white"></stop><stop offset="1" stop-color="#C1D5FF"></stop></linearGradient><linearGradient id="paint10_linear_14511_1507" x1="190.2" y1="25.52" x2="190.2" y2="79.5034" gradientUnits="userSpaceOnUse"><stop stop-color="white"></stop><stop offset="1" stop-color="#C1D5FF"></stop></linearGradient><linearGradient id="paint11_linear_14511_1507" x1="190.2" y1="25.52" x2="190.2" y2="79.5034" gradientUnits="userSpaceOnUse"><stop stop-color="white"></stop><stop offset="1" stop-color="#C1D5FF"></stop></linearGradient><linearGradient id="paint12_linear_14511_1507" x1="190.2" y1="25.52" x2="190.2" y2="79.5034" gradientUnits="userSpaceOnUse"><stop stop-color="white"></stop><stop offset="1" stop-color="#C1D5FF"></stop></linearGradient><linearGradient id="paint13_linear_14511_1507" x1="12.8611" y1="26.5969" x2="39.1463" y2="101.374" gradientUnits="userSpaceOnUse"><stop stop-color="#3665FF"></stop><stop offset="1" stop-color="#002169"></stop></linearGradient><linearGradient id="paint14_linear_14511_1507" x1="-0.000708119" y1="29.794" x2="73.9766" y2="88.9249" gradientUnits="userSpaceOnUse"><stop stop-color="white" stop-opacity="0.5"></stop><stop offset="0.751389" stop-color="white" stop-opacity="0"></stop></linearGradient><linearGradient id="paint15_linear_14511_1507" x1="33.4683" y1="37.1068" x2="33.4683" y2="80.3212" gradientUnits="userSpaceOnUse"><stop stop-color="white"></stop><stop offset="1" stop-color="#C1D5FF"></stop></linearGradient><linearGradient id="paint16_linear_14511_1507" x1="33.4683" y1="37.1068" x2="33.4683" y2="80.3212" gradientUnits="userSpaceOnUse"><stop stop-color="white"></stop><stop offset="1" stop-color="#C1D5FF"></stop></linearGradient></defs></svg>