<svg xmlns="http://www.w3.org/2000/svg" width="335" height="120" viewBox="0 0 335 120" fill="none"><path d="M44.6187 86.8582H45.7593L50.6955 98.8997L50.789 99.1614H50.9386L50.9947 98.8997L53.1262 86.8582H53.762L51.4808 99.7598H50.3216L45.404 87.737L45.3105 87.4566H45.161L45.1049 87.737L42.992 99.7598H42.3376L44.6187 86.8582ZM54.2104 99.685L61.1473 86.8582H62.2131L64.6251 99.7037L64.6064 99.7598H63.9707L63.3537 96.4502H56.6411L54.8461 99.7598H54.1917L54.2104 99.685ZM63.2415 95.8519L61.6709 87.5314V87.4192H61.4839L61.4465 87.5314L56.959 95.8519H63.2415ZM70.5163 99.685L77.4532 86.8582H78.519L80.931 99.7037L80.9123 99.7598H80.2766L79.6595 96.4502H72.947L71.152 99.7598H70.4976L70.5163 99.685ZM79.5473 95.8519L77.9767 87.5314V87.4192H77.7897L77.7523 87.5314L73.2649 95.8519H79.5473ZM85.9403 86.8582H89.9416C92.5344 86.8582 93.8307 87.737 93.8307 89.4946C93.8307 89.6941 93.812 89.9185 93.7747 90.1678C93.6251 91.0653 93.22 91.8132 92.5593 92.4115C91.8986 92.9974 91.132 93.3277 90.2595 93.4025H90.2408L90.2221 93.4399C90.9949 93.5396 91.5621 93.7827 91.9236 94.1691C92.2851 94.5555 92.4658 95.0915 92.4658 95.7771C92.4658 96.0264 92.4346 96.3505 92.3723 96.7494L92.0545 98.5631C92.0171 98.7875 91.9984 99.0119 91.9984 99.2362C91.9984 99.4107 92.0171 99.5666 92.0545 99.7037L92.0358 99.7598H91.4C91.3626 99.6102 91.3439 99.4481 91.3439 99.2736C91.3439 99.0492 91.3689 98.8124 91.4187 98.5631L91.7366 96.7681C91.7989 96.4191 91.8301 96.1137 91.8301 95.8519C91.8301 95.1788 91.6119 94.6615 91.1757 94.3C90.7394 93.9385 89.979 93.7578 88.8945 93.7578L85.3419 93.7765L84.2948 99.7598H83.6591L85.9403 86.8582ZM88.7262 93.1781C89.9354 93.1781 90.9263 92.9163 91.6992 92.3928C92.472 91.8568 92.9395 91.1214 93.1015 90.1865C93.1389 89.9746 93.1576 89.7813 93.1576 89.6068C93.1576 88.8464 92.8709 88.298 92.2975 87.9614C91.7241 87.6124 90.8952 87.4379 89.8107 87.4379H86.4638L85.4541 93.1781H88.7262ZM99.9876 87.4566H95.818L95.9302 86.8582H104.886L104.774 87.4566H100.623L98.4544 99.7598H97.8186L99.9876 87.4566ZM107.523 86.8582H115.245L115.133 87.4566H108.047L107.093 92.879H113.151L113.039 93.4773H106.981L105.99 99.1614H113.17L113.058 99.7598H105.242L107.523 86.8582Z" fill="url(#paint0_linear_1499_3222)"></path><g filter="url(#filter0_d_1499_3222)"><path d="M294.624 52.52C294.914 51.5129 294.58 50.4297 293.774 49.7596L283.703 41.3837C283.228 40.9893 282.631 40.7733 282.014 40.7733L50.3914 40.7733C49.1447 40.7733 48.0678 41.6452 47.8083 42.8647L40.6792 76.3717C40.3296 78.0147 41.5825 79.5622 43.2623 79.5622H284.859C286.037 79.5622 287.072 78.7827 287.397 77.6511L294.624 52.52Z" fill="#D9D9D9"></path><path d="M294.624 52.52C294.914 51.5129 294.58 50.4297 293.774 49.7596L283.703 41.3837C283.228 40.9893 282.631 40.7733 282.014 40.7733L50.3914 40.7733C49.1447 40.7733 48.0678 41.6452 47.8083 42.8647L40.6792 76.3717C40.3296 78.0147 41.5825 79.5622 43.2623 79.5622H284.859C286.037 79.5622 287.072 78.7827 287.397 77.6511L294.624 52.52Z" fill="url(#paint1_linear_1499_3222)"></path></g><path d="M44.2984 75.0866L59.2652 44.6926H71.3307L75.5214 74.9945L75.245 76.4681H66.8176L66.265 72.0472H54.5679L52.4956 76.4681H44.0682L44.2984 75.0866ZM65.4821 65.3697L64.3769 56.3436L64.4229 52.153H63.4098L62.0283 56.3436L57.7455 65.3697H65.4821ZM83.7714 44.6926H92.1988L99.7052 59.1067L100.304 62.7448H101.547L101.731 58.7383L103.942 44.6926H111.863L106.245 76.4681H97.8632L90.4489 62.008L89.8041 58.3239H88.5608L88.3765 62.4224L86.074 76.4681H78.1531L83.7714 44.6926ZM109.328 75.0866L124.295 44.6926H136.36L140.551 74.9945L140.275 76.4681H131.847L131.295 72.0472H119.598L117.525 76.4681H109.098L109.328 75.0866ZM130.512 65.3697L129.407 56.3436L129.453 52.153H128.44L127.058 56.3436L122.775 65.3697H130.512ZM151.179 52.199H142.798L144.133 44.6926H169.462L168.126 52.199H159.837L155.508 76.4681H146.85L151.179 52.199ZM180.535 76.9747C176.39 76.9747 173.228 75.8695 171.048 73.659C168.869 71.4178 167.779 68.3324 167.779 64.4027C167.779 62.9904 167.917 61.5321 168.193 60.0278C169.114 55.0542 171.064 51.1705 174.042 48.3767C177.05 45.5829 180.857 44.1861 185.462 44.1861C189.73 44.1861 192.953 45.2759 195.133 47.4557C197.313 49.6048 198.403 52.6442 198.403 56.5739C198.403 57.7405 198.28 59.1067 198.034 60.6725C197.206 65.7688 195.256 69.76 192.186 72.6459C189.116 75.5318 185.232 76.9747 180.535 76.9747ZM181.594 69.9288C183.467 69.9288 185.017 69.1153 186.245 67.4881C187.473 65.8609 188.348 63.5123 188.87 60.4422C189.054 59.2449 189.147 58.1704 189.147 57.2186C189.147 55.2538 188.763 53.7648 187.995 52.7516C187.228 51.7385 186.092 51.2319 184.587 51.2319C182.745 51.2319 181.21 51.9688 179.982 53.4424C178.785 54.916 177.941 57.0958 177.449 59.9817C177.204 61.4554 177.081 62.6987 177.081 63.7119C177.081 65.7074 177.449 67.2425 178.186 68.317C178.954 69.3916 180.09 69.9288 181.594 69.9288ZM204.746 44.7387H218.147L219.161 62.6066L219.022 65.7842H220.082L221.095 62.6066L228.417 44.7387H241.403L235.785 76.4681H227.91L231.687 57.8633L232.285 54.3634H231.134L230.121 57.4949L221.924 76.4681H213.174L211.654 57.4949L211.746 54.3634H210.595L209.95 57.8633L207.187 76.4681H199.128L204.746 44.7387ZM246.306 44.6926H255.148L249.53 76.4681H240.688L246.306 44.6926ZM252.879 75.0866L267.846 44.6926H279.911L284.102 74.9945L283.826 76.4681H275.398L274.846 72.0472H263.149L261.076 76.4681H252.649L252.879 75.0866ZM274.063 65.3697L272.958 56.3436L273.004 52.153H271.991L270.609 56.3436L266.326 65.3697H274.063Z" fill="url(#paint2_linear_1499_3222)"></path><path d="M41.3152 21.2226H43.2234V30H41.3152V21.2226ZM53.6042 21.2226H55.5123L58.8452 26.3236L59.125 27.1251H59.4049L59.2904 26.26L59.2395 21.2226H60.9441V30H59.0487L55.7413 24.8862L55.4487 24.0975H55.1816L55.2833 24.9625L55.3215 30H53.6042V21.2226ZM73.1688 22.7872H70.7009V21.2226H77.4176V22.7872H74.9624V30H73.1688V22.7872ZM87.1785 21.2226H93.1446V22.7363H88.9467V24.7971H92.534V26.2346H88.9467V28.4989H93.2082V30H87.1785V21.2226ZM103.183 21.2226H105.091L108.424 26.3236L108.704 27.1251H108.984L108.869 26.26L108.818 21.2226H110.523V30H108.628L105.32 24.8862L105.028 24.0975H104.76L104.862 24.9625L104.9 30H103.183V21.2226ZM124.096 30.1145C122.994 30.1145 122.137 29.894 121.526 29.453C120.924 29.0035 120.585 28.342 120.509 27.4685H122.417C122.485 27.9095 122.667 28.2403 122.964 28.4608C123.269 28.6813 123.672 28.7915 124.172 28.7915C124.639 28.7915 125.012 28.6897 125.292 28.4862C125.572 28.2742 125.712 27.9901 125.712 27.6339C125.712 27.3286 125.606 27.0784 125.394 26.8834C125.19 26.6883 124.851 26.5272 124.376 26.4L122.824 26.0438C121.374 25.6706 120.649 24.8692 120.649 23.6395C120.649 22.8508 120.95 22.2275 121.552 21.7696C122.162 21.3116 123.011 21.0826 124.096 21.0826C125.122 21.0826 125.928 21.3116 126.513 21.7696C127.107 22.219 127.437 22.8551 127.505 23.6777H125.623C125.555 23.2367 125.381 22.9144 125.101 22.7109C124.821 22.5074 124.469 22.4056 124.045 22.4056C123.604 22.4056 123.256 22.5031 123.002 22.6982C122.748 22.8848 122.62 23.1434 122.62 23.4742C122.62 23.7371 122.705 23.9576 122.875 24.1356C123.053 24.3053 123.337 24.4452 123.727 24.5554L125.292 24.9243C126.14 25.1448 126.755 25.4629 127.136 25.8784C127.526 26.294 127.721 26.8113 127.721 27.4304C127.721 28.27 127.399 28.9272 126.755 29.4021C126.119 29.877 125.232 30.1145 124.096 30.1145ZM137.703 21.2226H139.611V30H137.703V21.2226ZM149.394 21.5279V21.2226H151.353L153.185 27.3795L153.299 28.27H153.541L153.655 27.3795L155.487 21.2226H157.421V21.5151L154.711 30H152.091L149.394 21.5279ZM170.543 30.1399C169.263 30.1399 168.279 29.7498 167.592 28.9696C166.905 28.1894 166.562 27.0742 166.562 25.624C166.562 24.1653 166.905 23.0459 167.592 22.2657C168.279 21.477 169.263 21.0826 170.543 21.0826C171.824 21.0826 172.803 21.477 173.482 22.2657C174.169 23.0459 174.512 24.1653 174.512 25.624C174.512 27.0742 174.173 28.1894 173.495 28.9696C172.816 29.7498 171.832 30.1399 170.543 30.1399ZM170.543 28.588C171.205 28.588 171.701 28.3378 172.032 27.8374C172.362 27.3286 172.528 26.5865 172.528 25.6113C172.528 24.6275 172.362 23.8855 172.032 23.3851C171.701 22.8763 171.205 22.6219 170.543 22.6219C169.89 22.6219 169.394 22.8763 169.055 23.3851C168.716 23.894 168.546 24.6402 168.546 25.624C168.546 26.5908 168.716 27.3286 169.055 27.8374C169.394 28.3378 169.89 28.588 170.543 28.588Z" fill="url(#paint3_linear_1499_3222)"></path><g filter="url(#filter1_d_1499_3222)"><path d="M42.5403 40.6278C42.5547 39.9954 43.0149 39.4618 43.6383 39.3546L56.7811 37.0948C57.0336 37.0513 57.2932 37.0822 57.5284 37.1835L60.6076 38.5099C61.122 38.7315 61.441 39.2532 61.4039 39.8122L60.8247 48.5276C60.7843 49.1351 60.3344 49.6365 59.7348 49.7423L43.851 52.543C43.0292 52.6879 42.2803 52.0448 42.2993 51.2105L42.5403 40.6278Z" fill="url(#paint4_linear_1499_3222)"></path></g><path d="M44.6183 40.7295L47.651 40.1948C48.8374 39.9856 49.8011 40.1258 50.5422 40.6153C51.2832 41.1049 51.7451 41.8677 51.9277 42.9037C51.9837 43.2212 52.0104 43.5438 52.0079 43.8716C52.023 45.3248 51.6658 46.4991 50.9363 47.3944C50.2054 48.2814 49.1465 48.8471 47.7596 49.0917L44.6141 49.6463L44.6183 40.7295ZM47.7783 47.5119C48.4884 47.3867 49.0382 47.0356 49.4275 46.4587C49.8153 45.8735 50.0049 45.1164 49.9962 44.1876C49.9864 43.8878 49.9645 43.6418 49.9307 43.4497C49.8187 42.8147 49.573 42.3498 49.1937 42.0549C48.8129 41.7516 48.3133 41.6544 47.6951 41.7635L46.5296 41.969L46.5251 47.7329L47.7783 47.5119ZM52.3143 39.3725L58.1794 38.3383L58.1791 39.8761L54.0561 40.6031L54.0484 42.6848L57.5825 42.0617L57.5837 43.5346L54.0497 44.1577L54.042 46.4592L58.2528 45.7167L58.2378 47.2441L52.3101 48.2893L52.3143 39.3725Z" fill="#D9D9D9"></path><path d="M44.6183 40.7295L47.651 40.1948C48.8374 39.9856 49.8011 40.1258 50.5422 40.6153C51.2832 41.1049 51.7451 41.8677 51.9277 42.9037C51.9837 43.2212 52.0104 43.5438 52.0079 43.8716C52.023 45.3248 51.6658 46.4991 50.9363 47.3944C50.2054 48.2814 49.1465 48.8471 47.7596 49.0917L44.6141 49.6463L44.6183 40.7295ZM47.7783 47.5119C48.4884 47.3867 49.0382 47.0356 49.4275 46.4587C49.8153 45.8735 50.0049 45.1164 49.9962 44.1876C49.9864 43.8878 49.9645 43.6418 49.9307 43.4497C49.8187 42.8147 49.573 42.3498 49.1937 42.0549C48.8129 41.7516 48.3133 41.6544 47.6951 41.7635L46.5296 41.969L46.5251 47.7329L47.7783 47.5119ZM52.3143 39.3725L58.1794 38.3383L58.1791 39.8761L54.0561 40.6031L54.0484 42.6848L57.5825 42.0617L57.5837 43.5346L54.0497 44.1577L54.042 46.4592L58.2528 45.7167L58.2378 47.2441L52.3101 48.2893L52.3143 39.3725Z" fill="url(#paint5_linear_1499_3222)"></path><defs><filter id="filter0_d_1499_3222" x="0.345707" y="0.498905" width="334.656" height="119.338" filterUnits="userSpaceOnUse" color-interpolation-filters="sRGB"><feGaussianBlur stdDeviation="20.1372"></feGaussianBlur></filter><filter id="filter1_d_1499_3222" x="15.3211" y="10.098" width="73.0634" height="69.4432" filterUnits="userSpaceOnUse" color-interpolation-filters="sRGB"><feGaussianBlur stdDeviation="13.4889"></feGaussianBlur></filter><linearGradient id="paint0_linear_1499_3222" x1="101.832" y1="86.7598" x2="101.832" y2="99.7598" gradientUnits="userSpaceOnUse"><stop offset="0.285" stop-color="#F5F5F5"></stop><stop offset="1" stop-color="#999999"></stop></linearGradient><linearGradient id="paint1_linear_1499_3222" x1="169.283" y1="80.6759" x2="169.5" y2="38.5318" gradientUnits="userSpaceOnUse"><stop stop-color="#033233"></stop><stop offset="1" stop-color="#3A9496"></stop></linearGradient><linearGradient id="paint2_linear_1499_3222" x1="166.088" y1="34.4681" x2="166.088" y2="89.4681" gradientUnits="userSpaceOnUse"><stop offset="0.285" stop-color="#F5F5F5"></stop><stop offset="1" stop-color="#999999"></stop></linearGradient><linearGradient id="paint3_linear_1499_3222" x1="107.76" y1="19" x2="107.76" y2="31.7849" gradientUnits="userSpaceOnUse"><stop offset="0.285" stop-color="#F5F5F5"></stop><stop offset="1" stop-color="#999999"></stop></linearGradient><linearGradient id="paint4_linear_1499_3222" x1="50.5044" y1="38.1393" x2="52.7669" y2="50.9709" gradientUnits="userSpaceOnUse"><stop stop-color="#7A7A7A"></stop><stop offset="1" stop-color="#1E1E1E"></stop></linearGradient><linearGradient id="paint5_linear_1499_3222" x1="50.3067" y1="37.4729" x2="52.9114" y2="52.245" gradientUnits="userSpaceOnUse"><stop offset="0.285" stop-color="#F5F5F5"></stop><stop offset="1" stop-color="#999999"></stop></linearGradient></defs></svg>