<svg xmlns="http://www.w3.org/2000/svg" width="379" height="136" viewBox="0 0 379 136" fill="none"><path d="M150.907 98.7622H152.194L157.767 112.357L157.873 112.652H158.042L158.105 112.357L160.511 98.7622H161.229L158.654 113.328H157.345L151.793 99.7544L151.688 99.4377H151.519L151.456 99.7544L149.07 113.328H148.331L150.907 98.7622ZM161.735 113.243L169.567 98.7622H170.77L173.493 113.264L173.472 113.328H172.755L172.058 109.591H164.48L162.453 113.328H161.714L161.735 113.243ZM171.931 108.916L170.158 99.5222V99.3955H169.947L169.905 99.5222L164.839 108.916H171.931ZM180.144 113.243L187.976 98.7622H189.179L191.902 113.264L191.881 113.328H191.163L190.467 109.591H182.888L180.862 113.328H180.123L180.144 113.243ZM190.34 108.916L188.567 99.5222V99.3955H188.356L188.314 99.5222L183.247 108.916H190.34ZM197.557 98.7622H202.075C205.002 98.7622 206.466 99.7544 206.466 101.739C206.466 101.964 206.444 102.217 206.402 102.499C206.233 103.512 205.776 104.356 205.03 105.032C204.284 105.693 203.419 106.066 202.434 106.15H202.413L202.391 106.193C203.264 106.305 203.904 106.58 204.312 107.016C204.721 107.452 204.925 108.057 204.925 108.831C204.925 109.113 204.889 109.479 204.819 109.929L204.46 111.977C204.418 112.23 204.397 112.483 204.397 112.737C204.397 112.934 204.418 113.11 204.46 113.264L204.439 113.328H203.721C203.679 113.159 203.658 112.976 203.658 112.779C203.658 112.525 203.686 112.258 203.742 111.977L204.101 109.95C204.172 109.556 204.207 109.211 204.207 108.916C204.207 108.156 203.961 107.572 203.468 107.164C202.975 106.756 202.117 106.552 200.893 106.552L196.882 106.573L195.7 113.328H194.982L197.557 98.7622ZM200.703 105.897C202.068 105.897 203.187 105.602 204.059 105.011C204.932 104.405 205.459 103.575 205.642 102.52C205.684 102.28 205.706 102.062 205.706 101.865C205.706 101.007 205.382 100.388 204.735 100.008C204.087 99.6136 203.151 99.4166 201.927 99.4166H198.148L197.009 105.897H200.703ZM213.416 99.4377H208.709L208.836 98.7622H218.947L218.82 99.4377H214.134L211.685 113.328H210.968L213.416 99.4377ZM221.924 98.7622H230.642L230.515 99.4377H222.515L221.438 105.559H228.278L228.151 106.235H221.312L220.193 112.652H228.299L228.172 113.328H219.348L221.924 98.7622Z" fill="url(#paint0_linear_1501_5405)"></path><g filter="url(#filter0_d_1501_5405)"><path d="M332.529 59.6723C332.856 58.5353 332.48 57.3124 331.57 56.5559L320.2 47.0998C319.664 46.6545 318.99 46.4106 318.293 46.4106L56.7986 46.4106C55.3911 46.4106 54.1753 47.395 53.8824 48.7717L45.8338 86.6C45.4391 88.4549 46.8537 90.2021 48.7501 90.2021H321.505C322.834 90.2021 324.003 89.322 324.37 88.0445L332.529 59.6723Z" fill="#D9D9D9"></path><path d="M332.529 59.6723C332.856 58.5353 332.48 57.3124 331.57 56.5559L320.2 47.0998C319.664 46.6545 318.99 46.4106 318.293 46.4106L56.7986 46.4106C55.3911 46.4106 54.1753 47.395 53.8824 48.7717L45.8338 86.6C45.4391 88.4549 46.8537 90.2021 48.7501 90.2021H321.505C322.834 90.2021 324.003 89.322 324.37 88.0445L332.529 59.6723Z" fill="url(#paint1_linear_1501_5405)"></path></g><path d="M49.9202 85.7328L66.8172 51.4189H80.4387L85.1699 85.6288L84.858 87.2925H75.3437L74.7198 82.3014H61.5142L59.1746 87.2925H49.6603L49.9202 85.7328ZM73.8359 74.7627L72.5882 64.5726L72.6401 59.8414H71.4964L69.9366 64.5726L65.1015 74.7627H73.8359ZM94.4839 51.4189H103.998L112.473 67.692L113.149 71.7993H114.552L114.76 67.2761L117.256 51.4189H126.198L119.855 87.2925H110.393L102.023 70.9674L101.295 66.8082H99.891L99.683 71.4353L97.0835 87.2925H88.1411L94.4839 51.4189ZM123.337 85.7328L140.234 51.4189H153.855L158.586 85.6288L158.274 87.2925H148.76L148.136 82.3014H134.931L132.591 87.2925H123.077L123.337 85.7328ZM147.252 74.7627L146.005 64.5726L146.057 59.8414H144.913L143.353 64.5726L138.518 74.7627H147.252ZM170.585 59.8934H161.123L162.631 51.4189H191.226L189.718 59.8934H180.359L175.472 87.2925H165.698L170.585 59.8934ZM203.727 87.8644C199.048 87.8644 195.478 86.6166 193.017 84.1211C190.556 81.5908 189.325 78.1075 189.325 73.6709C189.325 72.0766 189.481 70.4302 189.793 68.7318C190.833 63.1168 193.034 58.7323 196.396 55.5782C199.793 52.4241 204.091 50.847 209.29 50.847C214.108 50.847 217.747 52.0775 220.208 54.5384C222.669 56.9646 223.899 60.396 223.899 64.8325C223.899 66.1496 223.761 67.692 223.483 69.4597C222.547 75.2133 220.347 79.7192 216.88 82.9773C213.414 86.2353 209.03 87.8644 203.727 87.8644ZM204.923 79.9098C207.037 79.9098 208.787 78.9913 210.174 77.1543C211.56 75.3173 212.548 72.6658 213.137 69.1997C213.345 67.848 213.449 66.6349 213.449 65.5604C213.449 63.3421 213.016 61.6611 212.149 60.5173C211.283 59.3735 210 58.8016 208.302 58.8016C206.222 58.8016 204.489 59.6335 203.103 61.2972C201.751 62.9609 200.798 65.4218 200.243 68.6798C199.966 70.3435 199.828 71.7473 199.828 72.8911C199.828 75.144 200.243 76.877 201.075 78.0901C201.942 79.3033 203.224 79.9098 204.923 79.9098ZM231.061 51.4709H246.19L247.334 71.6433L247.178 75.2307H248.374L249.518 71.6433L257.784 51.4709H272.445L266.103 87.2925H257.212L261.475 66.2883L262.151 62.337H260.852L259.708 65.8723L250.453 87.2925H240.575L238.86 65.8723L238.963 62.337H237.664L236.936 66.2883L233.816 87.2925H224.718L231.061 51.4709ZM277.98 51.4189H287.963L281.62 87.2925H271.638L277.98 51.4189ZM285.401 85.7328L302.298 51.4189H315.92L320.651 85.6288L320.339 87.2925H310.825L310.201 82.3014H296.995L294.656 87.2925H285.141L285.401 85.7328ZM309.317 74.7627L308.069 64.5726L308.121 59.8414H306.977L305.418 64.5726L300.583 74.7627H309.317Z" fill="url(#paint2_linear_1501_5405)"></path><path d="M108.617 24.9196H110.771V34.8291H108.617V24.9196ZM122.49 24.9196H124.645L128.407 30.6786L128.723 31.5834H129.039L128.91 30.6068L128.853 24.9196H130.777V34.8291H128.637L124.903 29.0558L124.573 28.1654H124.271L124.386 29.1419L124.429 34.8291H122.49V24.9196ZM144.578 26.6861H141.792V24.9196H149.375V26.6861H146.603V34.8291H144.578V26.6861ZM160.395 24.9196H167.13V26.6287H162.391V28.9552H166.441V30.5781H162.391V33.1344H167.202V34.8291H160.395V24.9196ZM178.463 24.9196H180.618L184.38 30.6786L184.696 31.5834H185.012L184.883 30.6068L184.826 24.9196H186.75V34.8291H184.61L180.876 29.0558L180.546 28.1654H180.244L180.359 29.1419L180.402 34.8291H178.463V24.9196ZM202.074 34.9584C200.829 34.9584 199.862 34.7094 199.173 34.2116C198.493 33.7041 198.11 32.9573 198.024 31.9712H200.178C200.254 32.469 200.46 32.8424 200.795 33.0914C201.14 33.3403 201.595 33.4648 202.16 33.4648C202.686 33.4648 203.108 33.3499 203.424 33.1201C203.739 32.8807 203.897 32.56 203.897 32.1579C203.897 31.8132 203.778 31.5307 203.538 31.3105C203.309 31.0903 202.926 30.9084 202.389 30.7648L200.637 30.3627C199 29.9414 198.182 29.0366 198.182 27.6483C198.182 26.7579 198.521 26.0542 199.201 25.5372C199.891 25.0202 200.848 24.7617 202.074 24.7617C203.232 24.7617 204.142 25.0202 204.802 25.5372C205.472 26.0446 205.846 26.7627 205.922 27.6914H203.797C203.72 27.1936 203.524 26.8297 203.208 26.5999C202.892 26.3702 202.495 26.2553 202.016 26.2553C201.518 26.2553 201.126 26.3654 200.838 26.5856C200.551 26.7962 200.408 27.0882 200.408 27.4616C200.408 27.7584 200.503 28.0074 200.695 28.2084C200.896 28.3999 201.217 28.5579 201.657 28.6824L203.424 29.0989C204.381 29.3478 205.075 29.7068 205.506 30.176C205.946 30.6451 206.167 31.2291 206.167 31.9281C206.167 32.8759 205.803 33.6179 205.075 34.1541C204.357 34.6903 203.357 34.9584 202.074 34.9584ZM217.435 24.9196H219.589V34.8291H217.435V24.9196ZM230.634 25.2643V24.9196H232.845L234.914 31.8706L235.043 32.8759H235.316L235.445 31.8706L237.513 24.9196H239.696V25.25L236.637 34.8291H233.678L230.634 25.2643ZM254.511 34.9871C253.065 34.9871 251.955 34.5467 251.179 33.6658C250.404 32.785 250.016 31.526 250.016 29.8887C250.016 28.2419 250.404 26.9781 251.179 26.0973C251.955 25.2069 253.065 24.7617 254.511 24.7617C255.957 24.7617 257.063 25.2069 257.828 26.0973C258.604 26.9781 258.992 28.2419 258.992 29.8887C258.992 31.526 258.609 32.785 257.843 33.6658C257.077 34.5467 255.966 34.9871 254.511 34.9871ZM254.511 33.235C255.258 33.235 255.818 32.9525 256.191 32.3876C256.565 31.8132 256.751 30.9754 256.751 29.8744C256.751 28.7637 256.565 27.926 256.191 27.3611C255.818 26.7866 255.258 26.4994 254.511 26.4994C253.774 26.4994 253.214 26.7866 252.831 27.3611C252.448 27.9356 252.256 28.7781 252.256 29.8887C252.256 30.9802 252.448 31.8132 252.831 32.3876C253.214 32.9525 253.774 33.235 254.511 33.235Z" fill="url(#paint3_linear_1501_5405)"></path><g filter="url(#filter1_d_1501_5405)"><path d="M47.9353 41.2638C47.9516 40.5499 48.4711 39.9475 49.1749 39.8264L64.0127 37.2751C64.2977 37.2261 64.5908 37.2609 64.8564 37.3753L68.3327 38.8728C68.9135 39.123 69.2736 39.712 69.2317 40.343L68.5777 50.1825C68.5322 50.8683 68.0242 51.4344 67.3473 51.5538L49.4151 54.7157C48.4873 54.8793 47.6418 54.1532 47.6632 53.2114L47.9353 41.2638Z" fill="url(#paint4_linear_1501_5405)"></path></g><path d="M50.382 41.9513L53.8059 41.3476C55.1453 41.1114 56.2333 41.2697 57.0699 41.8224C57.9065 42.3752 58.4279 43.2363 58.6342 44.4059C58.6974 44.7644 58.7276 45.1286 58.7247 45.4987C58.7417 47.1393 58.3384 48.465 57.5149 49.4758C56.6898 50.4771 55.4943 51.1159 53.9285 51.3919L50.3773 52.0181L50.382 41.9513ZM53.9496 49.6085C54.7513 49.4671 55.372 49.0707 55.8115 48.4194C56.2493 47.7587 56.4633 46.904 56.4535 45.8554C56.4425 45.5169 56.4178 45.2393 56.3796 45.0223C56.2532 44.3055 55.9758 43.7805 55.5475 43.4476C55.1176 43.1052 54.5536 42.9955 53.8556 43.1186L52.5398 43.3506L52.5348 49.8579L53.9496 49.6085ZM59.0706 40.4193L65.6921 39.2518L65.6918 40.9878L61.037 41.8086L61.0283 44.1588L65.0182 43.4553L65.0196 45.1181L61.0298 45.8217L61.0211 48.4199L65.775 47.5817L65.7581 49.3061L59.0659 50.4861L59.0706 40.4193Z" fill="white"></path><path d="M50.382 41.9513L53.8059 41.3476C55.1453 41.1114 56.2333 41.2697 57.0699 41.8224C57.9065 42.3752 58.4279 43.2363 58.6342 44.4059C58.6974 44.7644 58.7276 45.1286 58.7247 45.4987C58.7417 47.1393 58.3384 48.465 57.5149 49.4758C56.6898 50.4771 55.4943 51.1159 53.9285 51.3919L50.3773 52.0181L50.382 41.9513ZM53.9496 49.6085C54.7513 49.4671 55.372 49.0707 55.8115 48.4194C56.2493 47.7587 56.4633 46.904 56.4535 45.8554C56.4425 45.5169 56.4178 45.2393 56.3796 45.0223C56.2532 44.3055 55.9758 43.7805 55.5475 43.4476C55.1176 43.1052 54.5536 42.9955 53.8556 43.1186L52.5398 43.3506L52.5348 49.8579L53.9496 49.6085ZM59.0706 40.4193L65.6921 39.2518L65.6918 40.9878L61.037 41.8086L61.0283 44.1588L65.0182 43.4553L65.0196 45.1181L61.0298 45.8217L61.0211 48.4199L65.775 47.5817L65.7581 49.3061L59.0659 50.4861L59.0706 40.4193Z" fill="url(#paint5_linear_1501_5405)"></path><defs><filter id="filter0_d_1501_5405" x="0.299061" y="0.942127" width="377.815" height="134.729" filterUnits="userSpaceOnUse" color-interpolation-filters="sRGB"><feGaussianBlur stdDeviation="22.7343"></feGaussianBlur></filter><filter id="filter1_d_1501_5405" x="17.2056" y="6.79644" width="82.4862" height="78.3993" filterUnits="userSpaceOnUse" color-interpolation-filters="sRGB"><feGaussianBlur stdDeviation="15.2285"></feGaussianBlur></filter><linearGradient id="paint0_linear_1501_5405" x1="188.683" y1="98.3276" x2="188.683" y2="113.328" gradientUnits="userSpaceOnUse"><stop offset="0.285" stop-color="#F5F5F5"></stop><stop offset="1" stop-color="#999999"></stop></linearGradient><linearGradient id="paint1_linear_1501_5405" x1="191.024" y1="91.4594" x2="191.268" y2="43.8801" gradientUnits="userSpaceOnUse"><stop stop-color="#033233"></stop><stop offset="1" stop-color="#3A9496"></stop></linearGradient><linearGradient id="paint2_linear_1501_5405" x1="187.376" y1="39.2925" x2="187.376" y2="102.292" gradientUnits="userSpaceOnUse"><stop offset="0.285" stop-color="#F5F5F5"></stop><stop offset="1" stop-color="#999999"></stop></linearGradient><linearGradient id="paint3_linear_1501_5405" x1="183.63" y1="21.8291" x2="183.63" y2="36.2628" gradientUnits="userSpaceOnUse"><stop offset="0.285" stop-color="#F5F5F5"></stop><stop offset="1" stop-color="#999999"></stop></linearGradient><linearGradient id="paint4_linear_1501_5405" x1="56.9265" y1="38.4543" x2="59.4808" y2="52.9408" gradientUnits="userSpaceOnUse"><stop stop-color="#7A7A7A"></stop><stop offset="1" stop-color="#1E1E1E"></stop></linearGradient><linearGradient id="paint5_linear_1501_5405" x1="56.6719" y1="37.7077" x2="59.6239" y2="54.4494" gradientUnits="userSpaceOnUse"><stop offset="0.285" stop-color="#F5F5F5"></stop><stop offset="1" stop-color="#999999"></stop></linearGradient></defs></svg>