<svg width="335" height="120" viewBox="0 0 335 120" fill="none" xmlns="http://www.w3.org/2000/svg">
<path d="M44.6187 86.9582H45.7593L50.6955 98.9996L50.789 99.2614H50.9386L50.9947 98.9996L53.1262 86.9582H53.762L51.4808 99.8597H50.3216L45.404 87.837L45.3105 87.5565H45.161L45.1049 87.837L42.992 99.8597H42.3376L44.6187 86.9582ZM54.2104 99.7849L61.1473 86.9582H62.2131L64.6251 99.8036L64.6064 99.8597H63.9707L63.3537 96.5502H56.6411L54.8461 99.8597H54.1917L54.2104 99.7849ZM63.2415 95.9519L61.6709 87.6313V87.5192H61.4839L61.4465 87.6313L56.959 95.9519H63.2415ZM70.5163 99.7849L77.4532 86.9582H78.519L80.931 99.8036L80.9123 99.8597H80.2766L79.6595 96.5502H72.947L71.152 99.8597H70.4976L70.5163 99.7849ZM79.5473 95.9519L77.9767 87.6313V87.5192H77.7897L77.7523 87.6313L73.2649 95.9519H79.5473ZM85.9403 86.9582H89.9416C92.5344 86.9582 93.8307 87.837 93.8307 89.5946C93.8307 89.7941 93.812 90.0184 93.7747 90.2677C93.6251 91.1652 93.22 91.9132 92.5593 92.5115C91.8986 93.0973 91.132 93.4277 90.2595 93.5025H90.2408L90.2221 93.5399C90.9949 93.6396 91.5621 93.8827 91.9236 94.2691C92.2851 94.6555 92.4658 95.1915 92.4658 95.8771C92.4658 96.1264 92.4346 96.4505 92.3723 96.8494L92.0545 98.6631C92.0171 98.8875 91.9984 99.1118 91.9984 99.3362C91.9984 99.5107 92.0171 99.6665 92.0545 99.8036L92.0358 99.8597H91.4C91.3626 99.7102 91.3439 99.5481 91.3439 99.3736C91.3439 99.1492 91.3689 98.9124 91.4187 98.6631L91.7366 96.8681C91.7989 96.5191 91.8301 96.2137 91.8301 95.9519C91.8301 95.2788 91.6119 94.7615 91.1757 94.4C90.7394 94.0385 89.979 93.8577 88.8945 93.8577L85.3419 93.8764L84.2948 99.8597H83.6591L85.9403 86.9582ZM88.7262 93.2781C89.9354 93.2781 90.9263 93.0163 91.6992 92.4928C92.472 91.9568 92.9395 91.2213 93.1015 90.2864C93.1389 90.0745 93.1576 89.8813 93.1576 89.7068C93.1576 88.9464 92.8709 88.398 92.2975 88.0614C91.7241 87.7124 90.8952 87.5379 89.8107 87.5379H86.4638L85.4541 93.2781H88.7262ZM99.9876 87.5565H95.818L95.9302 86.9582H104.886L104.774 87.5565H100.623L98.4544 99.8597H97.8186L99.9876 87.5565ZM107.523 86.9582H115.245L115.133 87.5565H108.047L107.093 92.9789H113.151L113.039 93.5773H106.981L105.99 99.2614H113.17L113.058 99.8597H105.242L107.523 86.9582Z" fill="url(#paint0_linear_1499_3222)"/>
<g filter="url(#filter0_d_1499_3222)">
<path d="M294.624 52.62C294.914 51.6128 294.58 50.5297 293.774 49.8596L283.703 41.4837C283.228 41.0893 282.631 40.8733 282.014 40.8733L50.3914 40.8733C49.1447 40.8733 48.0678 41.7452 47.8083 42.9646L40.6792 76.4716C40.3296 78.1146 41.5825 79.6622 43.2623 79.6622H284.859C286.037 79.6622 287.072 78.8827 287.397 77.7511L294.624 52.62Z" fill="#D9D9D9"/>
<path d="M294.624 52.62C294.914 51.6128 294.58 50.5297 293.774 49.8596L283.703 41.4837C283.228 41.0893 282.631 40.8733 282.014 40.8733L50.3914 40.8733C49.1447 40.8733 48.0678 41.7452 47.8083 42.9646L40.6792 76.4716C40.3296 78.1146 41.5825 79.6622 43.2623 79.6622H284.859C286.037 79.6622 287.072 78.8827 287.397 77.7511L294.624 52.62Z" fill="url(#paint1_linear_1499_3222)"/>
</g>
<path d="M44.2984 75.1866L59.2652 44.7926H71.3307L75.5214 75.0945L75.245 76.5681H66.8176L66.265 72.1472H54.5679L52.4956 76.5681H44.0682L44.2984 75.1866ZM65.4821 65.4697L64.3769 56.4436L64.4229 52.2529H63.4098L62.0283 56.4436L57.7455 65.4697H65.4821ZM83.7714 44.7926H92.1988L99.7052 59.2067L100.304 62.8448H101.547L101.731 58.8383L103.942 44.7926H111.863L106.245 76.5681H97.8632L90.4489 62.108L89.8041 58.4238H88.5608L88.3765 62.5224L86.074 76.5681H78.1531L83.7714 44.7926ZM109.328 75.1866L124.295 44.7926H136.36L140.551 75.0945L140.275 76.5681H131.847L131.295 72.1472H119.598L117.525 76.5681H109.098L109.328 75.1866ZM130.512 65.4697L129.407 56.4436L129.453 52.2529H128.44L127.058 56.4436L122.775 65.4697H130.512ZM151.179 52.299H142.798L144.133 44.7926H169.462L168.126 52.299H159.837L155.508 76.5681H146.85L151.179 52.299ZM180.535 77.0747C176.39 77.0747 173.228 75.9694 171.048 73.759C168.869 71.5178 167.779 68.4324 167.779 64.5026C167.779 63.0904 167.917 61.6321 168.193 60.1277C169.114 55.1542 171.064 51.2705 174.042 48.4767C177.05 45.6829 180.857 44.286 185.462 44.286C189.73 44.286 192.953 45.3759 195.133 47.5557C197.313 49.7048 198.403 52.7441 198.403 56.6739C198.403 57.8405 198.28 59.2067 198.034 60.7725C197.206 65.8688 195.256 69.8599 192.186 72.7458C189.116 75.6317 185.232 77.0747 180.535 77.0747ZM181.594 70.0288C183.467 70.0288 185.017 69.2152 186.245 67.5881C187.473 65.9609 188.348 63.6123 188.87 60.5422C189.054 59.3449 189.147 58.2703 189.147 57.3186C189.147 55.3537 188.763 53.8647 187.995 52.8516C187.228 51.8385 186.092 51.3319 184.587 51.3319C182.745 51.3319 181.21 52.0687 179.982 53.5424C178.785 55.016 177.941 57.1958 177.449 60.0817C177.204 61.5553 177.081 62.7987 177.081 63.8119C177.081 65.8074 177.449 67.3425 178.186 68.417C178.954 69.4915 180.09 70.0288 181.594 70.0288ZM204.746 44.8386H218.147L219.161 62.7066L219.022 65.8842H220.082L221.095 62.7066L228.417 44.8386H241.403L235.785 76.5681H227.91L231.687 57.9633L232.285 54.4634H231.134L230.121 57.5949L221.924 76.5681H213.174L211.654 57.5949L211.746 54.4634H210.595L209.95 57.9633L207.187 76.5681H199.128L204.746 44.8386ZM246.306 44.7926H255.148L249.53 76.5681H240.688L246.306 44.7926ZM252.879 75.1866L267.846 44.7926H279.911L284.102 75.0945L283.826 76.5681H275.398L274.846 72.1472H263.149L261.076 76.5681H252.649L252.879 75.1866ZM274.063 65.4697L272.958 56.4436L273.004 52.2529H271.991L270.609 56.4436L266.326 65.4697H274.063Z" fill="url(#paint2_linear_1499_3222)"/>
<path d="M41.3152 21.3225H43.2234V30.1H41.3152V21.3225ZM53.6042 21.3225H55.5123L58.8452 26.4236L59.125 27.225H59.4049L59.2904 26.36L59.2395 21.3225H60.9441V30.1H59.0487L55.7413 24.9862L55.4487 24.1975H55.1816L55.2833 25.0625L55.3215 30.1H53.6042V21.3225ZM73.1688 22.8872H70.7009V21.3225H77.4176V22.8872H74.9624V30.1H73.1688V22.8872ZM87.1785 21.3225H93.1446V22.8363H88.9467V24.8971H92.534V26.3346H88.9467V28.5989H93.2082V30.1H87.1785V21.3225ZM103.183 21.3225H105.091L108.424 26.4236L108.704 27.225H108.984L108.869 26.36L108.818 21.3225H110.523V30.1H108.628L105.32 24.9862L105.028 24.1975H104.76L104.862 25.0625L104.9 30.1H103.183V21.3225ZM124.096 30.2145C122.994 30.2145 122.137 29.994 121.526 29.553C120.924 29.1035 120.585 28.442 120.509 27.5685H122.417C122.485 28.0095 122.667 28.3402 122.964 28.5607C123.269 28.7812 123.672 28.8915 124.172 28.8915C124.639 28.8915 125.012 28.7897 125.292 28.5862C125.572 28.3742 125.712 28.0901 125.712 27.7339C125.712 27.4286 125.606 27.1784 125.394 26.9833C125.19 26.7883 124.851 26.6272 124.376 26.5L122.824 26.1438C121.374 25.7706 120.649 24.9692 120.649 23.7395C120.649 22.9508 120.95 22.3275 121.552 21.8695C122.162 21.4116 123.011 21.1826 124.096 21.1826C125.122 21.1826 125.928 21.4116 126.513 21.8695C127.107 22.319 127.437 22.955 127.505 23.7777H125.623C125.555 23.3367 125.381 23.0144 125.101 22.8109C124.821 22.6073 124.469 22.5056 124.045 22.5056C123.604 22.5056 123.256 22.6031 123.002 22.7982C122.748 22.9847 122.62 23.2434 122.62 23.5741C122.62 23.837 122.705 24.0575 122.875 24.2356C123.053 24.4052 123.337 24.5452 123.727 24.6554L125.292 25.0243C126.14 25.2448 126.755 25.5628 127.136 25.9784C127.526 26.3939 127.721 26.9113 127.721 27.5303C127.721 28.3699 127.399 29.0272 126.755 29.5021C126.119 29.977 125.232 30.2145 124.096 30.2145ZM137.703 21.3225H139.611V30.1H137.703V21.3225ZM149.394 21.6278V21.3225H151.353L153.185 27.4795L153.299 28.3699H153.541L153.655 27.4795L155.487 21.3225H157.421V21.6151L154.711 30.1H152.091L149.394 21.6278ZM170.543 30.2399C169.263 30.2399 168.279 29.8498 167.592 29.0696C166.905 28.2894 166.562 27.1742 166.562 25.724C166.562 24.2653 166.905 23.1459 167.592 22.3656C168.279 21.5769 169.263 21.1826 170.543 21.1826C171.824 21.1826 172.803 21.5769 173.482 22.3656C174.169 23.1459 174.512 24.2653 174.512 25.724C174.512 27.1742 174.173 28.2894 173.495 29.0696C172.816 29.8498 171.832 30.2399 170.543 30.2399ZM170.543 28.688C171.205 28.688 171.701 28.4378 172.032 27.9374C172.362 27.4286 172.528 26.6865 172.528 25.7113C172.528 24.7275 172.362 23.9854 172.032 23.4851C171.701 22.9763 171.205 22.7218 170.543 22.7218C169.89 22.7218 169.394 22.9763 169.055 23.4851C168.716 23.9939 168.546 24.7402 168.546 25.724C168.546 26.6908 168.716 27.4286 169.055 27.9374C169.394 28.4378 169.89 28.688 170.543 28.688Z" fill="url(#paint3_linear_1499_3222)"/>
<g filter="url(#filter1_d_1499_3222)">
<path d="M42.5403 40.7277C42.5547 40.0953 43.0149 39.5617 43.6383 39.4545L56.7811 37.1946C57.0336 37.1512 57.2932 37.182 57.5284 37.2834L60.6076 38.6098C61.122 38.8314 61.441 39.3531 61.4039 39.912L60.8247 48.6275C60.7843 49.235 60.3344 49.7364 59.7348 49.8421L43.851 52.6429C43.0292 52.7878 42.2803 52.1447 42.2993 51.3104L42.5403 40.7277Z" fill="url(#paint4_linear_1499_3222)"/>
</g>
<path d="M44.6183 40.8294L47.651 40.2946C48.8374 40.0854 49.8011 40.2256 50.5422 40.7152C51.2832 41.2048 51.7451 41.9676 51.9277 43.0036C51.9837 43.3211 52.0104 43.6437 52.0079 43.9715C52.023 45.4247 51.6658 46.599 50.9363 47.4943C50.2054 48.3812 49.1465 48.947 47.7596 49.1915L44.6141 49.7462L44.6183 40.8294ZM47.7783 47.6118C48.4884 47.4866 49.0382 47.1355 49.4275 46.5586C49.8153 45.9733 50.0049 45.2163 49.9962 44.2875C49.9864 43.9877 49.9645 43.7417 49.9307 43.5495C49.8187 42.9146 49.573 42.4496 49.1937 42.1547C48.8129 41.8514 48.3133 41.7543 47.6951 41.8633L46.5296 42.0688L46.5251 47.8328L47.7783 47.6118ZM52.3143 39.4724L58.1794 38.4382L58.1791 39.9759L54.0561 40.7029L54.0484 42.7847L57.5825 42.1615L57.5837 43.6344L54.0497 44.2576L54.042 46.559L58.2528 45.8165L58.2378 47.3439L52.3101 48.3892L52.3143 39.4724Z" fill="#D9D9D9"/>
<path d="M44.6183 40.8294L47.651 40.2946C48.8374 40.0854 49.8011 40.2256 50.5422 40.7152C51.2832 41.2048 51.7451 41.9676 51.9277 43.0036C51.9837 43.3211 52.0104 43.6437 52.0079 43.9715C52.023 45.4247 51.6658 46.599 50.9363 47.4943C50.2054 48.3812 49.1465 48.947 47.7596 49.1915L44.6141 49.7462L44.6183 40.8294ZM47.7783 47.6118C48.4884 47.4866 49.0382 47.1355 49.4275 46.5586C49.8153 45.9733 50.0049 45.2163 49.9962 44.2875C49.9864 43.9877 49.9645 43.7417 49.9307 43.5495C49.8187 42.9146 49.573 42.4496 49.1937 42.1547C48.8129 41.8514 48.3133 41.7543 47.6951 41.8633L46.5296 42.0688L46.5251 47.8328L47.7783 47.6118ZM52.3143 39.4724L58.1794 38.4382L58.1791 39.9759L54.0561 40.7029L54.0484 42.7847L57.5825 42.1615L57.5837 43.6344L54.0497 44.2576L54.042 46.559L58.2528 45.8165L58.2378 47.3439L52.3101 48.3892L52.3143 39.4724Z" fill="url(#paint5_linear_1499_3222)"/>
<defs>
<filter id="filter0_d_1499_3222" x="0.345707" y="0.598881" width="334.656" height="119.338" filterUnits="userSpaceOnUse" color-interpolation-filters="sRGB">
<feFlood flood-opacity="0" result="BackgroundImageFix"/>
<feColorMatrix in="SourceAlpha" type="matrix" values="0 0 0 0 0 0 0 0 0 0 0 0 0 0 0 0 0 0 127 0" result="hardAlpha"/>
<feOffset/>
<feGaussianBlur stdDeviation="20.1372"/>
<feComposite in2="hardAlpha" operator="out"/>
<feColorMatrix type="matrix" values="0 0 0 0 0.227451 0 0 0 0 0.580392 0 0 0 0 0.588235 0 0 0 0.45 0"/>
<feBlend mode="normal" in2="BackgroundImageFix" result="effect1_dropShadow_1499_3222"/>
<feBlend mode="normal" in="SourceGraphic" in2="effect1_dropShadow_1499_3222" result="shape"/>
</filter>
<filter id="filter1_d_1499_3222" x="15.3211" y="10.1978" width="73.0634" height="69.4432" filterUnits="userSpaceOnUse" color-interpolation-filters="sRGB">
<feFlood flood-opacity="0" result="BackgroundImageFix"/>
<feColorMatrix in="SourceAlpha" type="matrix" values="0 0 0 0 0 0 0 0 0 0 0 0 0 0 0 0 0 0 127 0" result="hardAlpha"/>
<feOffset/>
<feGaussianBlur stdDeviation="13.4889"/>
<feComposite in2="hardAlpha" operator="out"/>
<feColorMatrix type="matrix" values="0 0 0 0 0.156863 0 0 0 0 0.156863 0 0 0 0 0.156863 0 0 0 0.9 0"/>
<feBlend mode="normal" in2="BackgroundImageFix" result="effect1_dropShadow_1499_3222"/>
<feBlend mode="normal" in="SourceGraphic" in2="effect1_dropShadow_1499_3222" result="shape"/>
</filter>
<linearGradient id="paint0_linear_1499_3222" x1="101.832" y1="86.8597" x2="101.832" y2="99.8597" gradientUnits="userSpaceOnUse">
<stop offset="0.285" stop-color="#F5F5F5"/>
<stop offset="1" stop-color="#999999"/>
</linearGradient>
<linearGradient id="paint1_linear_1499_3222" x1="169.283" y1="80.7759" x2="169.5" y2="38.6318" gradientUnits="userSpaceOnUse">
<stop stop-color="#033233"/>
<stop offset="1" stop-color="#3A9496"/>
</linearGradient>
<linearGradient id="paint2_linear_1499_3222" x1="166.088" y1="34.5681" x2="166.088" y2="89.5681" gradientUnits="userSpaceOnUse">
<stop offset="0.285" stop-color="#F5F5F5"/>
<stop offset="1" stop-color="#999999"/>
</linearGradient>
<linearGradient id="paint3_linear_1499_3222" x1="107.76" y1="19.1" x2="107.76" y2="31.8848" gradientUnits="userSpaceOnUse">
<stop offset="0.285" stop-color="#F5F5F5"/>
<stop offset="1" stop-color="#999999"/>
</linearGradient>
<linearGradient id="paint4_linear_1499_3222" x1="50.5044" y1="38.2391" x2="52.7669" y2="51.0707" gradientUnits="userSpaceOnUse">
<stop stop-color="#7A7A7A"/>
<stop offset="1" stop-color="#1E1E1E"/>
</linearGradient>
<linearGradient id="paint5_linear_1499_3222" x1="50.3067" y1="37.5727" x2="52.9114" y2="52.3448" gradientUnits="userSpaceOnUse">
<stop offset="0.285" stop-color="#F5F5F5"/>
<stop offset="1" stop-color="#999999"/>
</linearGradient>
</defs>
</svg>
