<svg xmlns="http://www.w3.org/2000/svg" width="17" height="17" viewBox="0 0 17 17" fill="none"><path d="M8.33806 16.7246C8.2356 16.7246 8.16729 16.6563 8.16729 16.5538V9.58644C8.16729 9.48398 8.09899 9.41568 7.99653 9.41568H1.02917C0.926706 9.41568 0.858398 9.34737 0.858398 9.24491V8.04953C0.858398 7.94707 0.926706 7.87876 1.02917 7.87876H7.99653C8.09899 7.87876 8.16729 7.81045 8.16729 7.70799V0.791862C8.16729 0.689401 8.2356 0.621094 8.33806 0.621094H9.51637C9.61883 0.621094 9.68713 0.689401 9.68713 0.791862V7.70799C9.68713 7.81045 9.75544 7.87876 9.8579 7.87876H16.7911C16.8936 7.87876 16.9619 7.94707 16.9619 8.04953V9.24491C16.9619 9.34737 16.8936 9.41568 16.7911 9.41568H9.8579C9.75544 9.41568 9.68713 9.48398 9.68713 9.58644V16.5538C9.68713 16.6563 9.61883 16.7246 9.51637 16.7246H8.33806Z" fill="#546485"></path></svg>