<svg xmlns="http://www.w3.org/2000/svg" width="12" height="19" viewBox="0 0 12 19" fill="none"><path d="M2.96685 1C1.88199 1 1 1.8809 1 2.96576V15.8463C1 16.9311 1.88199 17.8131 2.96685 17.8131H9.34039C10.4252 17.8131 11.3062 16.9311 11.3062 15.8463V2.96685C11.3062 1.88199 10.4242 1.00108 9.33931 1.00108H2.96793L2.96685 1ZM2.96685 1.54243H9.34039C10.1247 1.54243 10.7637 2.18033 10.7637 2.96576V14.0183H1.54243V2.96576C1.54243 2.17924 2.18141 1.54243 2.96685 1.54243ZM5.05086 3.1925V3.73493H7.23793V3.1925H5.05086ZM1.54243 14.5607H10.7637V15.8485C10.7637 16.6339 10.1258 17.2729 9.34039 17.2729H2.96576C2.58826 17.2723 2.2264 17.122 1.95957 16.855C1.69273 16.5879 1.54272 16.226 1.54243 15.8485V14.5607Z" fill="white" stroke="white" stroke-width="0.5"></path></svg>