<svg xmlns="http://www.w3.org/2000/svg" width="22" height="22" viewBox="0 0 22 22" fill="none"><path d="M0.679305 14.2605L2.43989 16.0207C2.56345 16.1442 2.73102 16.2136 2.90574 16.2136C3.08045 16.2136 3.24802 16.1442 3.37158 16.0207C3.55467 15.8366 3.77247 15.6906 4.01236 15.5913C4.25225 15.4919 4.50946 15.4411 4.76911 15.4419C5.85927 15.4419 6.74582 16.3284 6.74582 17.4186C6.74646 17.6783 6.6956 17.9356 6.59619 18.1755C6.49677 18.4154 6.35078 18.6333 6.16664 18.8164C6.04312 18.94 5.97373 19.1076 5.97373 19.2823C5.97373 19.457 6.04312 19.6246 6.16664 19.7481L7.92723 21.5084C8.05605 21.6372 8.2244 21.7014 8.39308 21.7014C8.56176 21.7014 8.73043 21.6372 8.85892 21.5084L21.3781 8.98923C21.4394 8.92814 21.488 8.85554 21.5212 8.7756C21.5544 8.69566 21.5715 8.60995 21.5715 8.52339C21.5715 8.43683 21.5544 8.35112 21.5212 8.27118C21.488 8.19124 21.4394 8.11864 21.3781 8.05754L19.6175 6.29729C19.4939 6.17376 19.3264 6.10437 19.1516 6.10437C18.9769 6.10437 18.8094 6.17376 18.6858 6.29729C18.5027 6.48139 18.2849 6.62735 18.045 6.72671C17.8051 6.82607 17.5479 6.87686 17.2883 6.87613C16.1981 6.87613 15.3116 5.98958 15.3116 4.89942C15.3116 4.37131 15.5175 3.87516 15.8907 3.50156C16.0143 3.378 16.0836 3.21044 16.0836 3.03572C16.0836 2.861 16.0143 2.69344 15.8907 2.56987L14.1301 0.809617C14.0066 0.686092 13.839 0.616699 13.6643 0.616699C13.4896 0.616699 13.322 0.686092 13.1985 0.809617L0.679305 13.3288C0.617984 13.3899 0.569328 13.4625 0.536129 13.5424C0.50293 13.6223 0.48584 13.708 0.48584 13.7946C0.48584 13.8812 0.50293 13.9669 0.536129 14.0468C0.569328 14.1268 0.617984 14.1994 0.679305 14.2605ZM9.05198 6.81947L9.57449 7.34198C9.70297 7.47079 9.87165 7.53503 10.0403 7.53503C10.209 7.53503 10.3777 7.47079 10.5062 7.34198C10.6297 7.21841 10.6991 7.05085 10.6991 6.87613C10.6991 6.70141 10.6297 6.53385 10.5062 6.41029L9.98367 5.88778L13.6643 2.20715L14.5393 3.08184C14.182 3.62053 13.9921 4.25298 13.9937 4.89942C13.9937 6.71602 15.4717 8.19394 17.2883 8.19394C17.9346 8.19573 18.5669 8.006 19.1055 7.64869L19.9802 8.52339L16.2999 12.204L15.7774 11.6815C15.7166 11.6186 15.6439 11.5684 15.5635 11.5338C15.4831 11.4993 15.3967 11.4811 15.3092 11.4804C15.2217 11.4796 15.1349 11.4963 15.054 11.5294C14.973 11.5625 14.8994 11.6115 14.8375 11.6733C14.7757 11.7352 14.7267 11.8088 14.6936 11.8898C14.6605 11.9707 14.6438 12.0575 14.6446 12.145C14.6453 12.2325 14.6635 12.3189 14.698 12.3993C14.7326 12.4797 14.7828 12.5524 14.8457 12.6132L15.3682 13.1357L8.39308 20.1108L7.51805 19.2362C7.87541 18.6975 8.06525 18.065 8.06362 17.4186C8.06362 15.602 6.58571 14.1241 4.76911 14.1241C4.1228 14.1223 3.49044 14.312 2.95186 14.6693L2.07717 13.7946L9.05198 6.81947Z" fill="#01BA4B"></path></svg>