<svg xmlns="http://www.w3.org/2000/svg" width="23" height="23" viewBox="0 0 23 23" fill="none"><path d="M0.106445 11.2075C0.106445 17.2719 5.02257 22.188 11.0869 22.188C17.1513 22.188 22.0674 17.2719 22.0674 11.2075C22.0674 5.14317 17.1513 0.227051 11.0869 0.227051C5.02257 0.227051 0.106445 5.14317 0.106445 11.2075Z" fill="#790002"></path><path fill-rule="evenodd" clip-rule="evenodd" d="M15.8463 6.32115C16.1411 6.61588 16.1411 7.09374 15.8463 7.38848L7.35577 15.879C7.06103 16.1738 6.58317 16.1738 6.28843 15.879C5.9937 15.5843 5.9937 15.1065 6.28843 14.8117L14.779 6.32115C15.0737 6.02641 15.5516 6.02641 15.8463 6.32115Z" fill="#050E0D"></path><path fill-rule="evenodd" clip-rule="evenodd" d="M6.28843 6.32115C6.58317 6.02641 7.06103 6.02641 7.35577 6.32115L15.8463 14.8117C16.1411 15.1065 16.1411 15.5843 15.8463 15.879C15.5516 16.1738 15.0737 16.1738 14.779 15.879L6.28843 7.38848C5.9937 7.09374 5.9937 6.61588 6.28843 6.32115Z" fill="#050E0D"></path><path fill-rule="evenodd" clip-rule="evenodd" d="M15.8463 6.32115C16.1411 6.61588 16.1411 7.09374 15.8463 7.38848L7.35577 15.879C7.06103 16.1738 6.58317 16.1738 6.28843 15.879C5.9937 15.5843 5.9937 15.1065 6.28843 14.8117L14.779 6.32115C15.0737 6.02641 15.5516 6.02641 15.8463 6.32115Z" stroke="black" stroke-width="0.5" stroke-linecap="round" stroke-linejoin="round"></path><path fill-rule="evenodd" clip-rule="evenodd" d="M6.28843 6.32115C6.58317 6.02641 7.06103 6.02641 7.35577 6.32115L15.8463 14.8117C16.1411 15.1065 16.1411 15.5843 15.8463 15.879C15.5516 16.1738 15.0737 16.1738 14.779 15.879L6.28843 7.38848C5.9937 7.09374 5.9937 6.61588 6.28843 6.32115Z" stroke="black" stroke-width="0.5" stroke-linecap="round" stroke-linejoin="round"></path></svg>