<svg xmlns="http://www.w3.org/2000/svg" width="84" height="91" viewBox="0 0 84 91" fill="none"><path d="M3.2 73.86L44.288 43.652C48.384 40.58 51.6693 37.6787 54.144 34.948C56.6187 32.132 57.856 29.188 57.856 26.116C57.856 23.8973 57.0453 22.1053 55.424 20.74C53.8027 19.2893 51.6267 18.564 48.896 18.564C45.312 18.564 42.368 19.716 40.064 22.02C37.8453 24.324 36.224 27.4813 35.2 31.492H9.856C12.416 21.8493 17.408 14.2973 24.832 8.836C32.256 3.37466 41.472 0.643997 52.48 0.643997C61.7813 0.643997 69.248 2.52133 74.88 6.27599C80.512 9.94533 83.328 15.236 83.328 22.148C83.328 23.8547 83.2427 25.1773 83.072 26.116C82.2187 31.492 80 36.3987 76.416 40.836C72.832 45.2733 68.0107 49.924 61.952 54.788L47.744 65.924L37.632 70.66L37.376 72.964L48 70.916H75.264L71.808 90.5H0.256L3.2 73.86Z" fill="#64FFC4"></path></svg>