<svg xmlns="http://www.w3.org/2000/svg" width="82" height="93" viewBox="0 0 82 93" fill="none"><path d="M34.248 92.036C22.8987 92.036 14.3653 89.7747 8.648 85.252C2.93067 80.644 0.072 74.2867 0.072 66.18C0.072 64.5587 0.114667 63.3213 0.2 62.468H26.44C25.928 69.892 29.2987 73.604 36.552 73.604C40.648 73.604 43.8907 72.58 46.28 70.532C48.6693 68.3987 49.864 65.7107 49.864 62.468C49.864 59.5667 48.8827 57.5187 46.92 56.324C44.9573 55.1293 42.0987 54.532 38.344 54.532H27.336L30.408 36.356H41.544C45.64 36.356 48.8827 35.4173 51.272 33.54C53.7467 31.6627 54.984 29.188 54.984 26.116C54.984 23.812 54.1733 22.02 52.552 20.74C50.9307 19.46 48.6267 18.82 45.64 18.82C42.2267 18.82 39.3253 19.6733 36.936 21.38C34.632 23.0867 33.096 25.4333 32.328 28.42H7.24C9.88533 19.6307 14.8347 12.804 22.088 7.93999C29.4267 3.076 38.728 0.643997 49.992 0.643997C60.0613 0.643997 67.8693 2.436 73.416 6.02C78.9627 9.604 81.736 14.5107 81.736 20.74C81.736 24.9213 80.5413 28.8467 78.152 32.516C75.7627 36.1853 72.776 38.7453 69.192 40.196L59.08 39.044L58.568 42.116C64.6267 43.3107 69.2347 45.5293 72.392 48.772C75.5493 52.0147 77.128 56.196 77.128 61.316C77.128 62.7667 77 64.26 76.744 65.796C75.3787 74.0733 70.8987 80.516 63.304 85.124C55.7093 89.732 46.024 92.036 34.248 92.036Z" fill="#64FFC4"></path></svg>