<svg width="709" height="599" viewBox="0 0 709 599" fill="none" xmlns="http://www.w3.org/2000/svg">
<g filter="url(#filter0_d_3253_4504)">
<path d="M370.366 204.408V204.408C369.875 238.244 342.048 265.276 308.212 264.786L149.835 262.491C91.23 261.642 43.2658 308.916 43.2657 367.528L43.2653 555.445" stroke="url(#paint0_linear_3253_4504)" stroke-width="3.98915" stroke-linecap="round"/>
</g>
<path d="M378.037 204.519V204.519C377.546 238.356 404.578 266.183 438.415 266.673L599.835 269.012C657.252 269.844 703.361 316.626 703.361 374.049L703.36 564.753" stroke="url(#paint1_linear_3253_4504)" stroke-width="3.98915" stroke-linecap="round"/>
<path d="M373.612 204.546L373.612 534.5" stroke="url(#paint2_linear_3253_4504)" stroke-width="3.98915" stroke-linecap="round"/>
<g filter="url(#filter1_d_3253_4504)">
<rect x="242.615" y="132.546" width="259" height="93" rx="10.3" fill="#2BAE7C"/>
<rect x="228.687" y="118.632" width="288.549" height="121.004" rx="12.6351" stroke="#64FFC4" stroke-width="1.32972"/>
<rect x="212.731" y="106.665" width="319.132" height="144.939" rx="18.6351" stroke="#26835F" stroke-width="1.32972"/>
<mask id="path-7-outside-1_3253_4504" maskUnits="userSpaceOnUse" x="368.681" y="160.881" width="84" height="35" fill="black">
<rect fill="white" x="368.681" y="160.881" width="84" height="35"/>
<path d="M395.522 190.776C396.207 192.648 395.385 193.881 393.376 193.881H390.089C388.856 193.881 387.943 193.059 387.806 191.826C387.441 188.585 386.984 185.389 386.391 182.193C385.478 187.215 383.286 194.246 377.077 194.246C372.603 194.246 370.594 189.818 370.594 185.937C370.594 178.723 376.894 170.642 379.725 163.474C380.09 162.561 380.958 161.922 381.916 161.922H386.847C388.08 161.922 388.993 162.789 389.13 164.022C390.043 173.929 392.143 181.645 395.522 190.776ZM385.843 179.728C384.61 174.112 382.784 168.679 380.775 163.292C380.136 169.82 378.31 176.76 378.31 183.289C378.31 184.887 379.268 190 381.597 190C384.245 190 385.614 181.554 385.843 179.728ZM415.829 175.664C415.829 177.993 414.505 179.865 412.04 179.865C409.848 179.865 407.931 178.312 407.931 176.029C407.931 174.842 408.479 173.701 408.479 172.56C408.479 172.149 408.296 171.92 407.84 171.92C406.835 171.92 405.876 173.29 405.465 174.066C404.963 176.851 404.826 179.636 404.826 182.467C404.826 185.343 405.009 188.174 405.511 190.959C405.831 192.739 405.009 193.881 403.183 193.881H400.58C398.8 193.881 397.932 192.739 398.252 191.005C398.8 188.174 398.982 185.343 398.982 182.467C398.982 179.773 398.845 177.217 398.298 174.614C397.978 173.062 398.663 171.875 400.215 171.647L405.465 170.825C405.876 170.733 406.105 170.962 406.013 171.418L405.831 172.149C406.926 171.099 408.387 170.688 409.894 170.688C412.999 170.688 415.829 172.194 415.829 175.664ZM418.931 189.863C418.931 189.315 418.977 188.767 419.068 188.22C419.434 185.8 419.708 183.426 419.708 180.96C419.708 179.225 419.571 176.395 418.794 174.158C417.973 171.92 418.475 170.688 421.305 169.135C422.493 168.496 423.543 167.674 424.638 166.716C425.278 166.168 425.734 165.848 426.054 165.848C426.465 165.848 426.647 166.442 426.465 167.629C426.328 168.77 426.236 169.912 426.145 171.053H429.752C429.98 171.053 430.117 171.19 430.117 171.418C430.117 171.647 429.98 171.784 429.752 171.784H426.099C426.008 173.062 426.008 174.295 426.008 175.573C426.008 179.362 426.236 183.243 426.738 187.033C426.967 188.63 427.378 191.781 429.615 191.781C430.117 191.781 430.619 191.644 431.121 191.415C431.35 191.324 431.487 191.415 431.487 191.644C431.487 191.872 431.35 192.146 431.121 192.283C429.021 193.607 427.149 194.246 424.547 194.246C421.534 194.246 418.931 193.379 418.931 189.863ZM450.137 187.352C450.32 187.169 450.594 187.033 450.822 187.033C451.05 187.033 451.187 187.215 451.141 187.443C449.863 191.872 446.302 194.246 441.691 194.246C434.934 194.246 431.007 188.904 431.007 182.467C431.007 176.349 434.797 170.688 441.371 170.688C446.074 170.688 451.004 173.244 451.004 178.495C451.004 183.243 446.713 185.617 442.421 185.617C441.325 185.617 440.275 185.435 439.225 185.206C439.819 187.489 442.056 190.183 444.567 190.183C446.759 190.183 448.767 188.996 450.137 187.352ZM438.814 183.837C439.499 184.248 440.275 184.567 441.097 184.567C443.654 184.567 443.654 181.554 443.654 179.682C443.654 178.404 443.152 171.51 441.28 171.51C439.18 171.51 438.677 179.408 438.677 180.732C438.677 181.736 438.723 182.787 438.814 183.837Z"/>
</mask>
<path d="M395.522 190.776L396.456 190.434L396.455 190.431L395.522 190.776ZM387.806 191.826L388.795 191.716L388.795 191.715L387.806 191.826ZM386.391 182.193L387.369 182.011L385.412 182.015L386.391 182.193ZM379.725 163.474L378.801 163.105L378.799 163.109L379.725 163.474ZM389.13 164.022L390.121 163.931L390.12 163.921L390.119 163.912L389.13 164.022ZM385.843 179.728L386.83 179.851L386.851 179.681L386.815 179.514L385.843 179.728ZM380.775 163.292L381.707 162.944L379.785 163.195L380.775 163.292ZM395.522 190.776L394.587 191.118C394.871 191.894 394.756 192.295 394.638 192.469C394.523 192.636 394.202 192.886 393.376 192.886V193.881V194.876C394.559 194.876 395.653 194.509 396.28 193.592C396.904 192.681 396.858 191.531 396.456 190.434L395.522 190.776ZM393.376 193.881V192.886H390.089V193.881V194.876H393.376V193.881ZM390.089 193.881V192.886C389.368 192.886 388.877 192.45 388.795 191.716L387.806 191.826L386.817 191.936C387.009 193.668 388.344 194.876 390.089 194.876V193.881ZM387.806 191.826L388.795 191.715C388.427 188.454 387.968 185.234 387.369 182.011L386.391 182.193L385.412 182.375C386.001 185.544 386.454 188.716 386.817 191.938L387.806 191.826ZM386.391 182.193L385.412 182.015C384.961 184.492 384.211 187.361 382.868 189.589C381.543 191.787 379.72 193.251 377.077 193.251V194.246V195.241C380.643 195.241 383.021 193.19 384.572 190.617C386.105 188.073 386.907 184.916 387.37 182.371L386.391 182.193ZM377.077 194.246V193.251C375.224 193.251 373.893 192.356 372.985 190.995C372.056 189.6 371.589 187.727 371.589 185.937H370.594H369.599C369.599 188.028 370.136 190.309 371.329 192.099C372.545 193.922 374.455 195.241 377.077 195.241V194.246ZM370.594 185.937H371.589C371.589 182.586 373.061 178.948 374.986 175.137C376.866 171.417 379.214 167.477 380.651 163.84L379.725 163.474L378.799 163.109C377.405 166.64 375.188 170.324 373.21 174.24C371.277 178.065 369.599 182.074 369.599 185.937H370.594ZM379.725 163.474L380.649 163.844C380.879 163.268 381.406 162.917 381.916 162.917V161.922V160.927C380.509 160.927 379.301 161.854 378.801 163.105L379.725 163.474ZM381.916 161.922V162.917H386.847V161.922V160.927H381.916V161.922ZM386.847 161.922V162.917C387.541 162.917 388.056 163.37 388.141 164.132L389.13 164.022L390.119 163.912C389.93 162.208 388.619 160.927 386.847 160.927V161.922ZM389.13 164.022L388.139 164.113C389.062 174.13 391.189 181.933 394.588 191.122L395.522 190.776L396.455 190.431C393.098 181.357 391.024 173.728 390.121 163.931L389.13 164.022ZM385.843 179.728L386.815 179.514C385.567 173.832 383.723 168.348 381.707 162.944L380.775 163.292L379.843 163.639C381.845 169.009 383.653 174.392 384.871 179.941L385.843 179.728ZM380.775 163.292L379.785 163.195C379.469 166.419 378.861 169.734 378.32 173.134C377.782 176.507 377.314 179.94 377.314 183.289H378.31H379.305C379.305 180.108 379.75 176.807 380.285 173.447C380.817 170.112 381.442 166.693 381.765 163.389L380.775 163.292ZM378.31 183.289H377.314C377.314 184.209 377.576 186.001 378.143 187.58C378.428 188.371 378.813 189.181 379.334 189.811C379.858 190.444 380.609 190.995 381.597 190.995V190V189.005C381.42 189.005 381.178 188.917 380.868 188.542C380.554 188.163 380.263 187.594 380.017 186.907C379.522 185.531 379.305 183.966 379.305 183.289H378.31ZM381.597 190V190.995C382.82 190.995 383.661 190.039 384.193 189.173C384.764 188.244 385.221 187.034 385.58 185.835C386.304 183.421 386.712 180.793 386.83 179.851L385.843 179.728L384.855 179.604C384.745 180.488 384.354 182.996 383.674 185.263C383.332 186.403 382.935 187.419 382.498 188.131C382.021 188.906 381.697 189.005 381.597 189.005V190ZM405.465 174.066L404.586 173.601L404.514 173.737L404.486 173.89L405.465 174.066ZM405.511 190.959L406.491 190.783L406.49 190.782L405.511 190.959ZM398.252 191.005L397.275 190.815L397.273 190.824L398.252 191.005ZM398.298 174.614L397.323 174.815L397.324 174.819L398.298 174.614ZM400.215 171.647L400.36 172.631L400.369 172.63L400.215 171.647ZM405.465 170.825L405.619 171.808L405.651 171.803L405.681 171.796L405.465 170.825ZM406.013 171.418L406.979 171.66L406.984 171.637L406.989 171.613L406.013 171.418ZM405.831 172.149L404.865 171.907L404.029 175.254L406.519 172.867L405.831 172.149ZM415.829 175.664H414.834C414.834 176.649 414.554 177.455 414.098 177.997C413.66 178.517 412.998 178.869 412.04 178.869V179.865V180.86C413.547 180.86 414.78 180.276 415.62 179.279C416.443 178.302 416.824 177.008 416.824 175.664H415.829ZM412.04 179.865V178.869C410.29 178.869 408.926 177.661 408.926 176.029H407.931H406.936C406.936 178.964 409.407 180.86 412.04 180.86V179.865ZM407.931 176.029H408.926C408.926 175.571 409.032 175.102 409.173 174.508C409.304 173.956 409.474 173.268 409.474 172.56H408.479H407.484C407.484 172.993 407.379 173.446 407.237 174.047C407.104 174.606 406.936 175.3 406.936 176.029H407.931ZM408.479 172.56H409.474C409.474 172.229 409.403 171.771 409.053 171.402C408.693 171.022 408.221 170.925 407.84 170.925V171.92V172.916C407.915 172.916 407.762 172.933 407.608 172.77C407.463 172.618 407.484 172.48 407.484 172.56H408.479ZM407.84 171.92V170.925C406.907 170.925 406.166 171.534 405.708 172.018C405.212 172.541 404.82 173.159 404.586 173.601L405.465 174.066L406.345 174.532C406.522 174.198 406.815 173.743 407.152 173.387C407.527 172.992 407.768 172.916 407.84 172.916V171.92ZM405.465 174.066L404.486 173.89C403.969 176.756 403.831 179.607 403.831 182.467H404.826H405.821C405.821 179.666 405.957 176.946 406.445 174.243L405.465 174.066ZM404.826 182.467H403.831C403.831 185.384 404.016 188.277 404.532 191.136L405.511 190.959L406.49 190.782C406.002 188.071 405.821 185.302 405.821 182.467H404.826ZM405.511 190.959L404.532 191.135C404.662 191.86 404.527 192.269 404.365 192.478C404.216 192.67 403.893 192.886 403.183 192.886V193.881V194.876C404.298 194.876 405.3 194.521 405.938 193.697C406.564 192.89 406.68 191.838 406.491 190.783L405.511 190.959ZM403.183 193.881V192.886H400.58V193.881V194.876H403.183V193.881ZM400.58 193.881V192.886C399.9 192.886 399.567 192.674 399.407 192.474C399.241 192.265 399.105 191.867 399.231 191.185L398.252 191.005L397.273 190.824C397.079 191.877 397.217 192.918 397.85 193.713C398.489 194.517 399.48 194.876 400.58 194.876V193.881ZM398.252 191.005L399.229 191.194C399.792 188.282 399.977 185.384 399.977 182.467H398.982H397.987C397.987 185.302 397.807 188.066 397.275 190.815L398.252 191.005ZM398.982 182.467H399.977C399.977 179.742 399.839 177.108 399.271 174.409L398.298 174.614L397.324 174.819C397.851 177.325 397.987 179.805 397.987 182.467H398.982ZM398.298 174.614L399.272 174.413C399.149 173.816 399.243 173.409 399.398 173.162C399.542 172.932 399.819 172.711 400.36 172.631L400.215 171.647L400.07 170.662C399.058 170.811 398.217 171.297 397.711 172.106C397.215 172.897 397.126 173.86 397.323 174.815L398.298 174.614ZM400.215 171.647L400.369 172.63L405.619 171.808L405.465 170.825L405.312 169.842L400.061 170.663L400.215 171.647ZM405.465 170.825L405.681 171.796C405.681 171.796 405.669 171.799 405.646 171.8C405.623 171.801 405.587 171.8 405.54 171.79C405.441 171.77 405.313 171.715 405.204 171.599C404.984 171.366 405.053 171.145 405.037 171.223L406.013 171.418L406.989 171.613C407.065 171.235 407.065 170.671 406.651 170.233C406.22 169.776 405.638 169.767 405.25 169.853L405.465 170.825ZM406.013 171.418L405.048 171.177L404.865 171.907L405.831 172.149L406.796 172.39L406.979 171.66L406.013 171.418ZM405.831 172.149L406.519 172.867C407.377 172.046 408.559 171.683 409.894 171.683V170.688V169.693C408.215 169.693 406.476 170.152 405.142 171.43L405.831 172.149ZM409.894 170.688V171.683C411.303 171.683 412.559 172.027 413.434 172.675C414.271 173.294 414.834 174.239 414.834 175.664H415.829H416.824C416.824 173.62 415.972 172.077 414.618 171.075C413.302 170.102 411.589 169.693 409.894 169.693V170.688ZM419.068 188.22L420.05 188.383L420.051 188.376L420.052 188.368L419.068 188.22ZM418.794 174.158L419.735 173.831L419.732 173.823L419.729 173.814L418.794 174.158ZM421.305 169.135L420.834 168.259L420.827 168.263L421.305 169.135ZM424.638 166.716L423.991 165.96L423.983 165.967L424.638 166.716ZM426.465 167.629L425.481 167.478L425.478 167.494L425.477 167.51L426.465 167.629ZM426.145 171.053L425.153 170.974L425.067 172.048H426.145V171.053ZM426.099 171.784V170.788H425.173L425.107 171.713L426.099 171.784ZM426.738 187.033L425.752 187.163L425.753 187.173L426.738 187.033ZM431.121 191.415L430.752 190.491L430.731 190.5L430.71 190.51L431.121 191.415ZM431.121 192.283L430.609 191.43L430.6 191.435L430.591 191.441L431.121 192.283ZM418.931 189.863H419.927C419.927 189.371 419.968 188.878 420.05 188.383L419.068 188.22L418.087 188.056C417.987 188.657 417.936 189.26 417.936 189.863H418.931ZM419.068 188.22L420.052 188.368C420.421 185.928 420.703 183.498 420.703 180.96H419.708H418.712C418.712 183.353 418.447 185.671 418.084 188.071L419.068 188.22ZM419.708 180.96H420.703C420.703 179.206 420.568 176.235 419.735 173.831L418.794 174.158L417.854 174.484C418.573 176.555 418.712 179.244 418.712 180.96H419.708ZM418.794 174.158L419.729 173.814C419.354 172.795 419.373 172.245 419.577 171.822C419.81 171.337 420.401 170.767 421.784 170.008L421.305 169.135L420.827 168.263C419.379 169.057 418.304 169.879 417.784 170.958C417.234 172.098 417.413 173.283 417.86 174.501L418.794 174.158ZM421.305 169.135L421.777 170.012C423.061 169.32 424.176 168.442 425.294 167.465L424.638 166.716L423.983 165.967C422.909 166.907 421.924 167.672 420.834 168.259L421.305 169.135ZM424.638 166.716L425.286 167.471C425.597 167.204 425.827 167.026 425.999 166.917C426.083 166.864 426.132 166.841 426.152 166.833C426.175 166.824 426.136 166.843 426.054 166.843V165.848V164.853C425.598 164.853 425.201 165.066 424.933 165.236C424.636 165.424 424.318 165.679 423.991 165.96L424.638 166.716ZM426.054 165.848V166.843C425.889 166.843 425.719 166.772 425.603 166.653C425.511 166.558 425.504 166.487 425.516 166.535C425.543 166.64 425.565 166.93 425.481 167.478L426.465 167.629L427.448 167.78C427.547 167.141 427.569 166.54 427.447 166.052C427.385 165.803 427.267 165.509 427.031 165.266C426.771 164.998 426.424 164.853 426.054 164.853V165.848ZM426.465 167.629L425.477 167.51C425.337 168.674 425.244 169.835 425.153 170.974L426.145 171.053L427.137 171.132C427.229 169.988 427.318 168.866 427.453 167.747L426.465 167.629ZM426.145 171.053V172.048H429.752V171.053V170.058H426.145V171.053ZM429.752 171.053V172.048C429.666 172.048 429.481 172.019 429.316 171.854C429.151 171.689 429.122 171.504 429.122 171.418H430.117H431.112C431.112 171.105 431.014 170.737 430.724 170.446C430.433 170.156 430.065 170.058 429.752 170.058V171.053ZM430.117 171.418H429.122C429.122 171.333 429.151 171.148 429.316 170.983C429.481 170.818 429.666 170.788 429.752 170.788V171.784V172.779C430.065 172.779 430.433 172.681 430.724 172.39C431.014 172.1 431.112 171.732 431.112 171.418H430.117ZM429.752 171.784V170.788H426.099V171.784V172.779H429.752V171.784ZM426.099 171.784L425.107 171.713C425.012 173.032 425.013 174.3 425.013 175.573H426.008H427.003C427.003 174.289 427.004 173.092 427.092 171.854L426.099 171.784ZM426.008 175.573H425.013C425.013 179.401 425.243 183.326 425.752 187.163L426.738 187.033L427.725 186.902C427.229 183.16 427.003 179.323 427.003 175.573H426.008ZM426.738 187.033L425.753 187.173C425.863 187.941 426.036 189.262 426.505 190.388C426.973 191.513 427.891 192.776 429.615 192.776V191.781V190.786C429.102 190.786 428.696 190.473 428.342 189.623C427.989 188.775 427.842 187.721 427.724 186.892L426.738 187.033ZM429.615 191.781V192.776C430.299 192.776 430.944 192.589 431.533 192.321L431.121 191.415L430.71 190.51C430.295 190.698 429.935 190.786 429.615 190.786V191.781ZM431.121 191.415L431.491 192.339C431.474 192.346 431.185 192.459 430.855 192.249C430.509 192.029 430.492 191.694 430.492 191.644H431.487H432.482C432.482 191.365 432.396 190.87 431.924 190.57C431.469 190.281 430.997 190.394 430.752 190.491L431.121 191.415ZM431.487 191.644H430.492C430.492 191.603 430.497 191.574 430.502 191.558C430.507 191.541 430.512 191.528 430.518 191.518C430.526 191.502 430.551 191.465 430.609 191.43L431.121 192.283L431.633 193.136C432.177 192.81 432.482 192.203 432.482 191.644H431.487ZM431.121 192.283L430.591 191.441C428.628 192.678 426.938 193.251 424.547 193.251V194.246V195.241C427.361 195.241 429.414 194.536 431.652 193.125L431.121 192.283ZM424.547 194.246V193.251C423.099 193.251 421.929 193.035 421.145 192.534C420.445 192.087 419.927 191.333 419.927 189.863H418.931H417.936C417.936 191.909 418.719 193.346 420.073 194.212C421.344 195.023 422.981 195.241 424.547 195.241V194.246ZM450.137 187.352L449.433 186.648L449.401 186.68L449.373 186.715L450.137 187.352ZM451.141 187.443L452.098 187.719L452.109 187.679L452.117 187.639L451.141 187.443ZM439.225 185.206L439.437 184.234L437.855 183.89L438.262 185.457L439.225 185.206ZM438.814 183.837L437.823 183.923L437.867 184.429L438.302 184.69L438.814 183.837ZM450.137 187.352L450.841 188.056C450.843 188.053 450.85 188.047 450.86 188.04C450.871 188.032 450.882 188.026 450.89 188.022C450.899 188.018 450.901 188.018 450.894 188.02C450.89 188.021 450.882 188.023 450.871 188.025C450.859 188.026 450.843 188.028 450.822 188.028V187.033V186.037C450.26 186.037 449.747 186.335 449.433 186.648L450.137 187.352ZM450.822 187.033V188.028C450.657 188.028 450.445 187.953 450.296 187.759C450.153 187.573 450.141 187.373 450.166 187.248L451.141 187.443L452.117 187.639C452.188 187.285 452.13 186.88 451.873 186.546C451.61 186.204 451.215 186.037 450.822 186.037V187.033ZM451.141 187.443L450.185 187.167C449.604 189.182 448.519 190.686 447.092 191.692C445.66 192.703 443.825 193.251 441.691 193.251V194.246V195.241C444.167 195.241 446.419 194.603 448.239 193.319C450.065 192.031 451.401 190.133 452.098 187.719L451.141 187.443ZM441.691 194.246V193.251C438.597 193.251 436.205 192.038 434.572 190.125C432.925 188.194 432.002 185.49 432.002 182.467H431.007H430.012C430.012 185.881 431.053 189.067 433.058 191.417C435.077 193.783 438.027 195.241 441.691 195.241V194.246ZM431.007 182.467H432.002C432.002 176.694 435.53 171.683 441.371 171.683V170.688V169.693C434.063 169.693 430.012 176.004 430.012 182.467H431.007ZM441.371 170.688V171.683C443.56 171.683 445.755 172.281 447.374 173.433C448.964 174.564 450.009 176.228 450.009 178.495H451.004H452C452 175.511 450.58 173.272 448.528 171.812C446.506 170.373 443.885 169.693 441.371 169.693V170.688ZM451.004 178.495H450.009C450.009 180.527 449.108 182.021 447.732 183.036C446.326 184.072 444.4 184.622 442.421 184.622V185.617V186.612C444.735 186.612 447.099 185.975 448.913 184.637C450.755 183.279 452 181.211 452 178.495H451.004ZM442.421 185.617V184.622C441.433 184.622 440.465 184.457 439.437 184.234L439.225 185.206L439.014 186.179C440.086 186.412 441.218 186.612 442.421 186.612V185.617ZM439.225 185.206L438.262 185.457C438.606 186.779 439.407 188.175 440.469 189.25C441.526 190.319 442.952 191.178 444.567 191.178V190.183V189.188C443.671 189.188 442.723 188.699 441.885 187.851C441.053 187.009 440.438 185.917 440.188 184.956L439.225 185.206ZM444.567 190.183V191.178C447.122 191.178 449.392 189.801 450.902 187.989L450.137 187.352L449.373 186.715C448.143 188.19 446.395 189.188 444.567 189.188V190.183ZM438.814 183.837L438.302 184.69C439.063 185.146 440.021 185.562 441.097 185.562V184.567V183.572C440.53 183.572 439.936 183.349 439.326 182.983L438.814 183.837ZM441.097 184.567V185.562C441.948 185.562 442.667 185.305 443.227 184.819C443.769 184.349 444.087 183.732 444.281 183.133C444.658 181.968 444.649 180.58 444.649 179.682H443.654H442.659C442.659 180.655 442.65 181.71 442.388 182.52C442.262 182.908 442.101 183.161 441.923 183.315C441.765 183.453 441.524 183.572 441.097 183.572V184.567ZM443.654 179.682H444.649C444.649 178.983 444.518 176.877 444.146 174.93C443.962 173.962 443.705 172.965 443.343 172.187C443.162 171.799 442.929 171.408 442.62 171.101C442.3 170.785 441.849 170.514 441.28 170.514V171.51V172.505C441.178 172.505 441.153 172.45 441.219 172.515C441.295 172.591 441.409 172.748 441.538 173.027C441.797 173.581 442.017 174.388 442.191 175.303C442.539 177.122 442.659 179.102 442.659 179.682H443.654ZM441.28 171.51V170.514C440.673 170.514 440.195 170.808 439.855 171.154C439.525 171.49 439.275 171.922 439.08 172.356C438.687 173.228 438.411 174.351 438.212 175.447C437.812 177.65 437.682 180.015 437.682 180.732H438.677H439.673C439.673 180.125 439.794 177.879 440.17 175.802C440.36 174.757 440.602 173.823 440.895 173.173C441.042 172.846 441.176 172.65 441.275 172.549C441.364 172.458 441.361 172.505 441.28 172.505V171.51ZM438.677 180.732H437.682C437.682 181.766 437.729 182.845 437.823 183.923L438.814 183.837L439.806 183.75C439.717 182.728 439.673 181.707 439.673 180.732H438.677Z" fill="#E6E6E6" mask="url(#path-7-outside-1_3253_4504)"/>
<path d="M359.647 195.225C358.141 195.225 357.228 194.221 357.41 192.714C357.912 188.103 358.552 183.446 358.552 178.789C358.552 174.315 357.958 169.886 357.41 165.458C357.228 164.134 358.004 163.129 359.328 162.901L362.889 162.353C364.624 162.079 365.674 163.084 365.491 164.864C365.172 167.786 364.852 170.708 364.67 173.63C365.994 172.671 367.591 172.032 369.235 172.032C372.888 172.032 375.764 173.995 375.764 177.967C375.764 180.296 375.033 182.624 375.033 185.044C375.033 187.509 375.399 190.02 375.855 192.44C376.175 194.129 375.307 195.225 373.618 195.225H370.65C369.007 195.225 368.094 194.129 368.413 192.486C369.189 188.194 369.829 183.811 369.829 179.52C369.829 177.967 369.783 173.219 367.454 173.219C366.359 173.219 365.309 174.087 364.578 174.863C364.533 176.141 364.487 177.42 364.487 178.698C364.487 183.4 365.035 188.057 365.537 192.714C365.72 194.221 364.806 195.225 363.3 195.225H359.647Z" fill="white"/>
<path d="M348.68 195.225C347.173 195.225 346.26 194.221 346.442 192.714C346.945 188.103 347.584 183.446 347.584 178.789C347.584 174.315 346.99 169.886 346.442 165.458C346.26 164.134 347.036 163.129 348.36 162.901L351.921 162.353C353.656 162.079 354.706 163.084 354.524 164.864C354.021 169.475 353.519 174.087 353.519 178.698C353.519 183.4 354.067 188.057 354.569 192.714C354.752 194.221 353.839 195.225 352.332 195.225H348.68Z" fill="white"/>
<path d="M338.028 195.225C336.248 195.225 335.38 194.084 335.7 192.349C336.248 189.518 336.43 186.687 336.43 183.811C336.43 181.117 336.294 178.561 335.746 175.958C335.426 174.406 336.111 173.219 337.663 172.991L340.174 172.58C342.229 172.26 343.233 173.402 342.914 175.456C342.411 178.241 342.274 181.026 342.274 183.811C342.274 186.687 342.457 189.518 342.959 192.303C343.279 194.084 342.457 195.225 340.631 195.225H338.028Z" fill="white"/>
<path d="M333.478 177.008C333.478 179.337 332.154 181.209 329.688 181.209C327.497 181.209 325.579 179.656 325.579 177.374C325.579 176.187 326.127 175.045 326.127 173.904C326.127 173.493 325.944 173.265 325.488 173.265C324.483 173.265 323.525 174.634 323.114 175.411C322.612 178.196 322.475 180.98 322.475 183.811C322.475 186.687 322.657 189.518 323.159 192.303C323.479 194.084 322.657 195.225 320.831 195.225H318.229C316.448 195.225 315.581 194.084 315.9 192.349C316.448 189.518 316.631 186.687 316.631 183.811C316.631 181.117 316.494 178.561 315.946 175.958C315.626 174.406 316.311 173.219 317.863 172.991L323.114 172.169C323.525 172.078 323.753 172.306 323.662 172.762L323.479 173.493C324.575 172.443 326.036 172.032 327.542 172.032C330.647 172.032 333.478 173.539 333.478 177.008Z" fill="white"/>
<path d="M312.013 171.119C312.013 176.05 307.63 177.237 303.658 178.15C308.27 178.881 313.885 180.981 313.885 186.551C313.885 193.399 304.982 195.225 299.732 195.225H292.838C291.24 195.225 290.327 194.175 290.555 192.623C291.149 188.058 291.56 183.492 291.56 178.881C291.56 174.498 291.149 170.206 290.555 165.869C290.373 164.317 291.24 163.266 292.838 163.266H299.321C304.435 163.266 312.013 164.545 312.013 171.119ZM297.541 181.757C300.28 177.328 304.48 177.694 304.48 171.028C304.48 167.832 302.928 164.18 299.23 164.18H298.728C297.997 169.065 297.495 173.95 297.495 178.881C297.495 179.839 297.495 180.798 297.541 181.757ZM298.728 194.312H299.732C304.252 194.312 306.124 190.569 306.124 186.551C306.124 184.131 305.759 179.155 302.38 179.155C299.184 179.155 297.814 183.309 297.814 185.957C297.814 188.651 298.362 191.619 298.728 194.312Z" fill="white"/>
<path d="M304.022 206.625C302.165 206.625 300.917 205.416 300.917 203.607C300.917 201.814 302.157 200.621 304.014 200.621C304.97 200.621 305.744 200.937 306.321 201.561L305.617 202.272C305.286 201.845 304.725 201.545 304.029 201.545C302.852 201.545 302.07 202.375 302.07 203.615C302.07 204.871 302.868 205.7 304.045 205.7C304.835 205.7 305.38 205.345 305.752 204.776L306.502 205.448C305.941 206.214 305.088 206.625 304.022 206.625ZM312.782 206.625C310.942 206.625 309.709 205.424 309.709 203.623C309.709 201.822 310.942 200.621 312.782 200.621C314.615 200.621 315.847 201.822 315.847 203.623C315.847 205.424 314.615 206.625 312.782 206.625ZM312.782 205.7C313.928 205.7 314.694 204.871 314.694 203.623C314.694 202.375 313.928 201.545 312.782 201.545C311.637 201.545 310.863 202.375 310.863 203.623C310.863 204.871 311.637 205.7 312.782 205.7ZM319.729 206.546V200.7H320.424L324.105 204.658L324.082 200.7H325.195V206.546H324.508L320.827 202.588L320.843 206.546H319.729ZM332.18 206.625C330.324 206.625 329.076 205.416 329.076 203.607C329.076 201.814 330.316 200.621 332.173 200.621C333.128 200.621 333.903 200.937 334.479 201.561L333.776 202.272C333.444 201.845 332.884 201.545 332.188 201.545C331.011 201.545 330.229 202.375 330.229 203.615C330.229 204.871 331.027 205.7 332.204 205.7C332.994 205.7 333.539 205.345 333.911 204.776L334.661 205.448C334.1 206.214 333.247 206.625 332.18 206.625ZM340.836 206.625C339.295 206.625 338.268 205.708 338.268 204.334V200.7H339.382V204.286C339.382 205.132 339.967 205.7 340.836 205.7C341.697 205.7 342.273 205.132 342.273 204.286V200.7H343.387V204.334C343.387 205.708 342.368 206.625 340.836 206.625ZM351.19 206.546L349.855 204.397H348.662V206.546H347.548V200.7H349.997C351.229 200.7 352.043 201.442 352.043 202.548C352.043 203.307 351.64 203.891 350.961 204.184L352.501 206.546H351.19ZM348.662 201.624V203.473H349.792C350.455 203.473 350.898 203.101 350.898 202.548C350.898 201.995 350.487 201.624 349.871 201.624H348.662ZM357.988 206.625C357.182 206.625 356.432 206.372 355.911 205.89L356.329 205.14C356.827 205.55 357.38 205.7 357.917 205.7C358.652 205.7 359.078 205.448 359.078 204.997C359.078 204.523 358.589 204.318 357.854 204.113L357.522 204.018C356.558 203.757 355.839 203.354 355.839 202.398C355.839 201.332 356.701 200.621 358.004 200.621C358.755 200.621 359.418 200.842 359.979 201.292L359.481 202.066C359.047 201.719 358.581 201.545 358.012 201.545C357.396 201.545 356.993 201.806 356.993 202.217C356.993 202.683 357.459 202.849 358.036 203.014L358.375 203.109C359.276 203.354 360.232 203.844 360.232 204.895C360.232 205.93 359.331 206.625 357.988 206.625ZM366.839 206.625C364.999 206.625 363.766 205.424 363.766 203.623C363.766 201.822 364.999 200.621 366.839 200.621C368.672 200.621 369.905 201.822 369.905 203.623C369.905 205.424 368.672 206.625 366.839 206.625ZM366.839 205.7C367.985 205.7 368.751 204.871 368.751 203.623C368.751 202.375 367.985 201.545 366.839 201.545C365.694 201.545 364.92 202.375 364.92 203.623C364.92 204.871 365.694 205.7 366.839 205.7ZM378.582 206.546V200.7H379.277L382.958 204.658L382.935 200.7H384.049V206.546H383.361L379.68 202.588L379.696 206.546H378.582ZM392.4 206.546L391.926 205.384H389.232L388.758 206.546H387.565L390.062 200.7L391.097 200.7L393.593 206.546H392.4ZM389.612 204.46H391.555L390.583 202.082L389.612 204.46ZM399.679 206.625C397.823 206.625 396.575 205.416 396.575 203.607C396.575 201.814 397.815 200.621 399.671 200.621C400.627 200.621 401.401 200.937 401.978 201.561L401.275 202.272C400.943 201.845 400.382 201.545 399.687 201.545C398.51 201.545 397.728 202.375 397.728 203.615C397.728 204.871 398.526 205.7 399.703 205.7C400.493 205.7 401.038 205.345 401.409 204.776L402.16 205.448C401.599 206.214 400.746 206.625 399.679 206.625ZM405.838 206.546V200.7H406.952V206.546H405.838ZM413.907 206.625C412.066 206.625 410.834 205.424 410.834 203.623C410.834 201.822 412.066 200.621 413.907 200.621C415.74 200.621 416.972 201.822 416.972 203.623C416.972 205.424 415.74 206.625 413.907 206.625ZM413.907 205.7C415.052 205.7 415.819 204.871 415.819 203.623C415.819 202.375 415.052 201.545 413.907 201.545C412.761 201.545 411.987 202.375 411.987 203.623C411.987 204.871 412.761 205.7 413.907 205.7ZM420.853 206.546V200.7H421.549L425.23 204.658L425.206 200.7H426.32V206.546H425.633L421.951 202.588L421.967 206.546H420.853ZM434.672 206.546L434.198 205.384H431.504L431.03 206.546H429.837L432.333 200.7H433.368L435.865 206.546H434.672ZM431.883 204.46H433.827L432.855 202.082L431.883 204.46ZM440.501 205.621H443.084V206.546H439.387V200.7H440.501V205.621Z" fill="white"/>
<path d="M334.823 165.471C336.994 166.141 339.834 164.64 340.503 162.469C339.834 164.64 341.335 167.48 343.506 168.149C341.335 167.48 338.495 168.981 337.826 171.152C338.495 168.981 336.994 166.141 334.823 165.471Z" fill="white"/>
</g>
<defs>
<filter id="filter0_d_3253_4504" x="0.0492477" y="161.192" width="413.532" height="437.469" filterUnits="userSpaceOnUse" color-interpolation-filters="sRGB">
<feFlood flood-opacity="0" result="BackgroundImageFix"/>
<feColorMatrix in="SourceAlpha" type="matrix" values="0 0 0 0 0 0 0 0 0 0 0 0 0 0 0 0 0 0 127 0" result="hardAlpha"/>
<feOffset/>
<feGaussianBlur stdDeviation="20.6106"/>
<feComposite in2="hardAlpha" operator="out"/>
<feColorMatrix type="matrix" values="0 0 0 0 0.192157 0 0 0 0 0.490196 0 0 0 0 0.443137 0 0 0 1 0"/>
<feBlend mode="screen" in2="BackgroundImageFix" result="effect1_dropShadow_3253_4504"/>
<feBlend mode="normal" in="SourceGraphic" in2="effect1_dropShadow_3253_4504" result="shape"/>
</filter>
<filter id="filter1_d_3253_4504" x="101.434" y="0.686349" width="541.727" height="367.534" filterUnits="userSpaceOnUse" color-interpolation-filters="sRGB">
<feFlood flood-opacity="0" result="BackgroundImageFix"/>
<feColorMatrix in="SourceAlpha" type="matrix" values="0 0 0 0 0 0 0 0 0 0 0 0 0 0 0 0 0 0 127 0" result="hardAlpha"/>
<feOffset dy="5.31887"/>
<feGaussianBlur stdDeviation="55.3163"/>
<feComposite in2="hardAlpha" operator="out"/>
<feColorMatrix type="matrix" values="0 0 0 0 0.393329 0 0 0 0 1 0 0 0 0 0.767443 0 0 0 0.21 0"/>
<feBlend mode="normal" in2="BackgroundImageFix" result="effect1_dropShadow_3253_4504"/>
<feBlend mode="normal" in="SourceGraphic" in2="effect1_dropShadow_3253_4504" result="shape"/>
</filter>
<linearGradient id="paint0_linear_3253_4504" x1="207.26" y1="202.045" x2="197.446" y2="879.43" gradientUnits="userSpaceOnUse">
<stop stop-color="#227253"/>
<stop offset="1" stop-color="#64FFC4"/>
</linearGradient>
<linearGradient id="paint1_linear_3253_4504" x1="541.146" y1="206.883" x2="529.548" y2="1007.42" gradientUnits="userSpaceOnUse">
<stop stop-color="#227253"/>
<stop offset="1" stop-color="#64FFC4"/>
</linearGradient>
<linearGradient id="paint2_linear_3253_4504" x1="362.74" y1="1000.49" x2="374.277" y2="204.174" gradientUnits="userSpaceOnUse">
<stop stop-color="#64FFC4"/>
<stop offset="1" stop-color="#64FFC4"/>
</linearGradient>
</defs>
</svg>
