<svg width="548" height="452" viewBox="0 0 548 452" fill="none" xmlns="http://www.w3.org/2000/svg">
<g filter="url(#filter0_d_3253_4360)">
<path d="M275.546 208.546L275.545 332.5" stroke="url(#paint0_linear_3253_4360)" stroke-width="3.98915" stroke-linecap="round"/>
<g filter="url(#filter1_d_3253_4360)">
<rect x="144.549" y="136.546" width="259" height="93" rx="10.3" fill="#2BAE7C"/>
<rect x="130.621" y="122.632" width="288.549" height="121.004" rx="12.6351" stroke="#64FFC4" stroke-width="1.32972"/>
<rect x="114.665" y="110.665" width="319.132" height="144.939" rx="18.6351" stroke="#26835F" stroke-width="1.32972"/>
<mask id="path-5-outside-1_3253_4360" maskUnits="userSpaceOnUse" x="270.614" y="164.881" width="84" height="35" fill="black">
<rect fill="white" x="270.614" y="164.881" width="84" height="35"/>
<path d="M297.455 194.776C298.14 196.648 297.318 197.881 295.31 197.881H292.022C290.79 197.881 289.877 197.059 289.74 195.826C289.374 192.585 288.918 189.389 288.324 186.193C287.411 191.215 285.22 198.246 279.01 198.246C274.536 198.246 272.527 193.818 272.527 189.937C272.527 182.723 278.828 174.642 281.659 167.474C282.024 166.561 282.891 165.922 283.85 165.922H288.781C290.013 165.922 290.927 166.789 291.064 168.022C291.977 177.929 294.077 185.645 297.455 194.776ZM287.776 183.728C286.544 178.112 284.717 172.679 282.709 167.292C282.069 173.82 280.243 180.76 280.243 187.289C280.243 188.887 281.202 194 283.53 194C286.178 194 287.548 185.554 287.776 183.728ZM317.763 179.664C317.763 181.993 316.439 183.865 313.973 183.865C311.782 183.865 309.864 182.312 309.864 180.029C309.864 178.842 310.412 177.701 310.412 176.56C310.412 176.149 310.23 175.92 309.773 175.92C308.769 175.92 307.81 177.29 307.399 178.066C306.897 180.851 306.76 183.636 306.76 186.467C306.76 189.343 306.942 192.174 307.445 194.959C307.764 196.739 306.942 197.881 305.116 197.881H302.514C300.733 197.881 299.866 196.739 300.185 195.005C300.733 192.174 300.916 189.343 300.916 186.467C300.916 183.773 300.779 181.217 300.231 178.614C299.912 177.062 300.596 175.875 302.149 175.647L307.399 174.825C307.81 174.733 308.038 174.962 307.947 175.418L307.764 176.149C308.86 175.099 310.321 174.688 311.828 174.688C314.932 174.688 317.763 176.194 317.763 179.664ZM320.865 193.863C320.865 193.315 320.911 192.767 321.002 192.22C321.367 189.8 321.641 187.426 321.641 184.96C321.641 183.225 321.504 180.395 320.728 178.158C319.906 175.92 320.408 174.688 323.239 173.135C324.426 172.496 325.476 171.674 326.572 170.716C327.211 170.168 327.668 169.848 327.987 169.848C328.398 169.848 328.581 170.442 328.398 171.629C328.261 172.77 328.17 173.912 328.079 175.053H331.685C331.914 175.053 332.051 175.19 332.051 175.418C332.051 175.647 331.914 175.784 331.685 175.784H328.033C327.942 177.062 327.942 178.295 327.942 179.573C327.942 183.362 328.17 187.243 328.672 191.033C328.9 192.63 329.311 195.781 331.548 195.781C332.051 195.781 332.553 195.644 333.055 195.415C333.283 195.324 333.42 195.415 333.42 195.644C333.42 195.872 333.283 196.146 333.055 196.283C330.955 197.607 329.083 198.246 326.481 198.246C323.467 198.246 320.865 197.379 320.865 193.863ZM352.071 191.352C352.253 191.169 352.527 191.033 352.755 191.033C352.984 191.033 353.121 191.215 353.075 191.443C351.797 195.872 348.236 198.246 343.624 198.246C336.867 198.246 332.941 192.904 332.941 186.467C332.941 180.349 336.73 174.688 343.305 174.688C348.007 174.688 352.938 177.244 352.938 182.495C352.938 187.243 348.646 189.617 344.355 189.617C343.259 189.617 342.209 189.435 341.159 189.206C341.752 191.489 343.99 194.183 346.501 194.183C348.692 194.183 350.701 192.996 352.071 191.352ZM340.748 187.837C341.433 188.248 342.209 188.567 343.031 188.567C345.588 188.567 345.588 185.554 345.588 183.682C345.588 182.404 345.085 175.51 343.213 175.51C341.113 175.51 340.611 183.408 340.611 184.732C340.611 185.736 340.657 186.787 340.748 187.837Z"/>
</mask>
<path d="M297.455 194.776L298.39 194.434L298.389 194.431L297.455 194.776ZM289.74 195.826L290.729 195.716L290.728 195.715L289.74 195.826ZM288.324 186.193L289.303 186.011L287.345 186.015L288.324 186.193ZM281.659 167.474L280.735 167.105L280.733 167.109L281.659 167.474ZM291.064 168.022L292.055 167.931L292.054 167.921L292.053 167.912L291.064 168.022ZM287.776 183.728L288.764 183.851L288.785 183.681L288.748 183.514L287.776 183.728ZM282.709 167.292L283.641 166.944L281.718 167.195L282.709 167.292ZM297.455 194.776L296.521 195.118C296.804 195.894 296.69 196.295 296.571 196.469C296.457 196.636 296.135 196.886 295.31 196.886V197.881V198.876C296.493 198.876 297.587 198.509 298.214 197.592C298.837 196.681 298.791 195.531 298.39 194.434L297.455 194.776ZM295.31 197.881V196.886H292.022V197.881V198.876H295.31V197.881ZM292.022 197.881V196.886C291.302 196.886 290.81 196.45 290.729 195.716L289.74 195.826L288.751 195.936C288.943 197.668 290.278 198.876 292.022 198.876V197.881ZM289.74 195.826L290.728 195.715C290.361 192.454 289.901 189.234 289.303 186.011L288.324 186.193L287.346 186.375C287.934 189.544 288.388 192.716 288.751 195.938L289.74 195.826ZM288.324 186.193L287.345 186.015C286.895 188.492 286.144 191.361 284.801 193.589C283.476 195.787 281.654 197.251 279.01 197.251V198.246V199.241C282.576 199.241 284.954 197.19 286.506 194.617C288.039 192.073 288.841 188.916 289.303 186.371L288.324 186.193ZM279.01 198.246V197.251C277.158 197.251 275.827 196.356 274.919 194.995C273.99 193.6 273.523 191.727 273.523 189.937H272.527H271.532C271.532 192.028 272.07 194.309 273.263 196.099C274.478 197.922 276.389 199.241 279.01 199.241V198.246ZM272.527 189.937H273.523C273.523 186.586 274.994 182.948 276.92 179.137C278.799 175.417 281.148 171.477 282.584 167.84L281.659 167.474L280.733 167.109C279.338 170.64 277.121 174.324 275.143 178.24C273.211 182.065 271.532 186.074 271.532 189.937H272.527ZM281.659 167.474L282.582 167.844C282.813 167.268 283.34 166.917 283.85 166.917V165.922V164.927C282.443 164.927 281.235 165.854 280.735 167.105L281.659 167.474ZM283.85 165.922V166.917H288.781V165.922V164.927H283.85V165.922ZM288.781 165.922V166.917C289.474 166.917 289.99 167.37 290.075 168.132L291.064 168.022L292.053 167.912C291.863 166.208 290.553 164.927 288.781 164.927V165.922ZM291.064 168.022L290.073 168.113C290.996 178.13 293.122 185.933 296.522 195.122L297.455 194.776L298.389 194.431C295.031 185.357 292.958 177.728 292.055 167.931L291.064 168.022ZM287.776 183.728L288.748 183.514C287.501 177.832 285.656 172.348 283.641 166.944L282.709 167.292L281.776 167.639C283.779 173.009 285.586 178.392 286.804 183.941L287.776 183.728ZM282.709 167.292L281.718 167.195C281.402 170.419 280.795 173.734 280.253 177.134C279.716 180.507 279.248 183.94 279.248 187.289H280.243H281.238C281.238 184.108 281.684 180.807 282.219 177.447C282.75 174.112 283.376 170.693 283.699 167.389L282.709 167.292ZM280.243 187.289H279.248C279.248 188.209 279.51 190.001 280.077 191.58C280.361 192.371 280.747 193.181 281.268 193.811C281.792 194.444 282.543 194.995 283.53 194.995V194V193.005C283.354 193.005 283.112 192.917 282.801 192.542C282.488 192.163 282.197 191.594 281.95 190.907C281.456 189.531 281.238 187.966 281.238 187.289H280.243ZM283.53 194V194.995C284.754 194.995 285.594 194.039 286.127 193.173C286.698 192.244 287.154 191.034 287.514 189.835C288.238 187.421 288.646 184.793 288.764 183.851L287.776 183.728L286.789 183.604C286.678 184.488 286.288 186.996 285.608 189.263C285.266 190.403 284.868 191.419 284.431 192.131C283.955 192.906 283.631 193.005 283.53 193.005V194ZM307.399 178.066L306.52 177.601L306.447 177.737L306.42 177.89L307.399 178.066ZM307.445 194.959L308.424 194.783L308.424 194.782L307.445 194.959ZM300.185 195.005L299.208 194.815L299.207 194.824L300.185 195.005ZM300.231 178.614L299.256 178.815L299.257 178.819L300.231 178.614ZM302.149 175.647L302.293 176.631L302.303 176.63L302.149 175.647ZM307.399 174.825L307.553 175.808L307.584 175.803L307.615 175.796L307.399 174.825ZM307.947 175.418L308.912 175.66L308.918 175.637L308.923 175.613L307.947 175.418ZM307.764 176.149L306.799 175.907L305.962 179.254L308.453 176.867L307.764 176.149ZM317.763 179.664H316.768C316.768 180.649 316.488 181.455 316.031 181.997C315.593 182.517 314.931 182.869 313.973 182.869V183.865V184.86C315.481 184.86 316.714 184.276 317.554 183.279C318.376 182.302 318.758 181.008 318.758 179.664H317.763ZM313.973 183.865V182.869C312.224 182.869 310.86 181.661 310.86 180.029H309.864H308.869C308.869 182.964 311.34 184.86 313.973 184.86V183.865ZM309.864 180.029H310.86C310.86 179.571 310.965 179.102 311.107 178.508C311.238 177.956 311.407 177.268 311.407 176.56H310.412H309.417C309.417 176.993 309.313 177.446 309.17 178.047C309.037 178.606 308.869 179.3 308.869 180.029H309.864ZM310.412 176.56H311.407C311.407 176.229 311.336 175.771 310.986 175.402C310.626 175.022 310.154 174.925 309.773 174.925V175.92V176.916C309.849 176.916 309.696 176.933 309.542 176.77C309.397 176.618 309.417 176.48 309.417 176.56H310.412ZM309.773 175.92V174.925C308.841 174.925 308.1 175.534 307.641 176.018C307.145 176.541 306.754 177.159 306.52 177.601L307.399 178.066L308.279 178.532C308.455 178.198 308.749 177.743 309.086 177.387C309.46 176.992 309.701 176.916 309.773 176.916V175.92ZM307.399 178.066L306.42 177.89C305.903 180.756 305.765 183.607 305.765 186.467H306.76H307.755C307.755 183.666 307.891 180.946 308.378 178.243L307.399 178.066ZM306.76 186.467H305.765C305.765 189.384 305.95 192.277 306.465 195.136L307.445 194.959L308.424 194.782C307.935 192.071 307.755 189.302 307.755 186.467H306.76ZM307.445 194.959L306.465 195.135C306.595 195.86 306.46 196.269 306.299 196.478C306.15 196.67 305.827 196.886 305.116 196.886V197.881V198.876C306.232 198.876 307.233 198.521 307.872 197.697C308.498 196.89 308.614 195.838 308.424 194.783L307.445 194.959ZM305.116 197.881V196.886H302.514V197.881V198.876H305.116V197.881ZM302.514 197.881V196.886C301.833 196.886 301.5 196.674 301.341 196.474C301.174 196.265 301.038 195.867 301.164 195.185L300.185 195.005L299.207 194.824C299.013 195.877 299.151 196.918 299.783 197.713C300.423 198.517 301.414 198.876 302.514 198.876V197.881ZM300.185 195.005L301.162 195.194C301.726 192.282 301.911 189.384 301.911 186.467H300.916H299.921C299.921 189.302 299.741 192.066 299.208 194.815L300.185 195.005ZM300.916 186.467H301.911C301.911 183.742 301.773 181.108 301.205 178.409L300.231 178.614L299.257 178.819C299.785 181.325 299.921 183.805 299.921 186.467H300.916ZM300.231 178.614L301.206 178.413C301.083 177.816 301.176 177.409 301.331 177.162C301.476 176.932 301.753 176.711 302.293 176.631L302.149 175.647L302.004 174.662C300.992 174.811 300.151 175.297 299.645 176.106C299.149 176.897 299.06 177.86 299.256 178.815L300.231 178.614ZM302.149 175.647L302.303 176.63L307.553 175.808L307.399 174.825L307.245 173.842L301.995 174.663L302.149 175.647ZM307.399 174.825L307.615 175.796C307.614 175.796 307.602 175.799 307.579 175.8C307.557 175.801 307.52 175.8 307.474 175.79C307.375 175.77 307.247 175.715 307.138 175.599C306.918 175.366 306.987 175.145 306.971 175.223L307.947 175.418L308.923 175.613C308.998 175.235 308.999 174.671 308.585 174.233C308.153 173.776 307.571 173.767 307.183 173.853L307.399 174.825ZM307.947 175.418L306.981 175.177L306.799 175.907L307.764 176.149L308.73 176.39L308.912 175.66L307.947 175.418ZM307.764 176.149L308.453 176.867C309.31 176.046 310.493 175.683 311.828 175.683V174.688V173.693C310.149 173.693 308.41 174.152 307.076 175.43L307.764 176.149ZM311.828 174.688V175.683C313.237 175.683 314.492 176.027 315.368 176.675C316.205 177.294 316.768 178.239 316.768 179.664H317.763H318.758C318.758 177.62 317.906 176.077 316.551 175.075C315.235 174.102 313.523 173.693 311.828 173.693V174.688ZM321.002 192.22L321.984 192.383L321.985 192.376L321.986 192.368L321.002 192.22ZM320.728 178.158L321.668 177.831L321.665 177.823L321.662 177.814L320.728 178.158ZM323.239 173.135L322.767 172.259L322.761 172.263L323.239 173.135ZM326.572 170.716L325.924 169.96L325.917 169.967L326.572 170.716ZM328.398 171.629L327.415 171.478L327.412 171.494L327.41 171.51L328.398 171.629ZM328.079 175.053L327.087 174.974L327.001 176.048H328.079V175.053ZM328.033 175.784V174.788H327.106L327.04 175.713L328.033 175.784ZM328.672 191.033L327.686 191.163L327.687 191.173L328.672 191.033ZM333.055 195.415L332.685 194.491L332.664 194.5L332.643 194.51L333.055 195.415ZM333.055 196.283L332.543 195.43L332.534 195.435L332.524 195.441L333.055 196.283ZM320.865 193.863H321.86C321.86 193.371 321.901 192.878 321.984 192.383L321.002 192.22L320.02 192.056C319.92 192.657 319.87 193.26 319.87 193.863H320.865ZM321.002 192.22L321.986 192.368C322.354 189.928 322.636 187.498 322.636 184.96H321.641H320.646C320.646 187.353 320.38 189.671 320.018 192.071L321.002 192.22ZM321.641 184.96H322.636C322.636 183.206 322.502 180.235 321.668 177.831L320.728 178.158L319.788 178.484C320.506 180.555 320.646 183.244 320.646 184.96H321.641ZM320.728 178.158L321.662 177.814C321.288 176.795 321.307 176.245 321.51 175.822C321.744 175.337 322.334 174.767 323.718 174.008L323.239 173.135L322.761 172.263C321.313 173.057 320.237 173.879 319.717 174.958C319.168 176.098 319.347 177.283 319.794 178.501L320.728 178.158ZM323.239 173.135L323.711 174.012C324.995 173.32 326.11 172.442 327.227 171.465L326.572 170.716L325.917 169.967C324.842 170.907 323.858 171.672 322.767 172.259L323.239 173.135ZM326.572 170.716L327.22 171.471C327.531 171.204 327.761 171.026 327.932 170.917C328.016 170.864 328.065 170.841 328.086 170.833C328.108 170.824 328.07 170.843 327.987 170.843V169.848V168.853C327.531 168.853 327.134 169.066 326.866 169.236C326.57 169.424 326.252 169.679 325.924 169.96L326.572 170.716ZM327.987 169.848V170.843C327.822 170.843 327.653 170.772 327.537 170.653C327.445 170.558 327.438 170.487 327.45 170.535C327.476 170.64 327.499 170.93 327.415 171.478L328.398 171.629L329.382 171.78C329.48 171.141 329.503 170.54 329.381 170.052C329.319 169.803 329.201 169.509 328.964 169.266C328.704 168.998 328.358 168.853 327.987 168.853V169.848ZM328.398 171.629L327.41 171.51C327.27 172.674 327.178 173.835 327.087 174.974L328.079 175.053L329.071 175.132C329.162 173.988 329.252 172.866 329.386 171.747L328.398 171.629ZM328.079 175.053V176.048H331.685V175.053V174.058H328.079V175.053ZM331.685 175.053V176.048C331.6 176.048 331.415 176.019 331.25 175.854C331.085 175.689 331.055 175.504 331.055 175.418H332.051H333.046C333.046 175.105 332.948 174.737 332.657 174.446C332.367 174.156 331.999 174.058 331.685 174.058V175.053ZM332.051 175.418H331.055C331.055 175.333 331.085 175.148 331.25 174.983C331.415 174.818 331.6 174.788 331.685 174.788V175.784V176.779C331.999 176.779 332.367 176.681 332.657 176.39C332.948 176.1 333.046 175.732 333.046 175.418H332.051ZM331.685 175.784V174.788H328.033V175.784V176.779H331.685V175.784ZM328.033 175.784L327.04 175.713C326.946 177.032 326.946 178.3 326.946 179.573H327.942H328.937C328.937 178.289 328.937 177.092 329.026 175.854L328.033 175.784ZM327.942 179.573H326.946C326.946 183.401 327.177 187.326 327.686 191.163L328.672 191.033L329.659 190.902C329.163 187.16 328.937 183.323 328.937 179.573H327.942ZM328.672 191.033L327.687 191.173C327.797 191.941 327.97 193.262 328.438 194.388C328.906 195.513 329.824 196.776 331.548 196.776V195.781V194.786C331.035 194.786 330.629 194.473 330.276 193.623C329.923 192.775 329.776 191.721 329.657 190.892L328.672 191.033ZM331.548 195.781V196.776C332.233 196.776 332.877 196.589 333.467 196.321L333.055 195.415L332.643 194.51C332.228 194.698 331.869 194.786 331.548 194.786V195.781ZM333.055 195.415L333.425 196.339C333.408 196.346 333.119 196.459 332.789 196.249C332.443 196.029 332.425 195.694 332.425 195.644H333.42H334.415C334.415 195.365 334.329 194.87 333.858 194.57C333.402 194.281 332.93 194.394 332.685 194.491L333.055 195.415ZM333.42 195.644H332.425C332.425 195.603 332.431 195.574 332.435 195.558C332.44 195.541 332.446 195.528 332.451 195.518C332.46 195.502 332.484 195.465 332.543 195.43L333.055 196.283L333.567 197.136C334.111 196.81 334.415 196.203 334.415 195.644H333.42ZM333.055 196.283L332.524 195.441C330.562 196.678 328.872 197.251 326.481 197.251V198.246V199.241C329.294 199.241 331.348 198.536 333.586 197.125L333.055 196.283ZM326.481 198.246V197.251C325.033 197.251 323.863 197.035 323.079 196.534C322.378 196.087 321.86 195.333 321.86 193.863H320.865H319.87C319.87 195.909 320.653 197.346 322.007 198.212C323.277 199.023 324.915 199.241 326.481 199.241V198.246ZM352.071 191.352L351.367 190.648L351.335 190.68L351.306 190.715L352.071 191.352ZM353.075 191.443L354.031 191.719L354.043 191.679L354.051 191.639L353.075 191.443ZM341.159 189.206L341.37 188.234L339.788 187.89L340.196 189.457L341.159 189.206ZM340.748 187.837L339.757 187.923L339.801 188.429L340.236 188.69L340.748 187.837ZM352.071 191.352L352.774 192.056C352.777 192.053 352.783 192.047 352.794 192.04C352.805 192.032 352.815 192.026 352.824 192.022C352.833 192.018 352.834 192.018 352.827 192.02C352.823 192.021 352.816 192.023 352.804 192.025C352.793 192.026 352.776 192.028 352.755 192.028V191.033V190.037C352.194 190.037 351.68 190.335 351.367 190.648L352.071 191.352ZM352.755 191.033V192.028C352.591 192.028 352.378 191.953 352.229 191.759C352.086 191.573 352.074 191.373 352.099 191.248L353.075 191.443L354.051 191.639C354.122 191.285 354.064 190.88 353.807 190.546C353.544 190.204 353.148 190.037 352.755 190.037V191.033ZM353.075 191.443L352.119 191.167C351.537 193.182 350.453 194.686 349.026 195.692C347.593 196.703 345.759 197.251 343.624 197.251V198.246V199.241C346.101 199.241 348.353 198.603 350.173 197.319C351.999 196.031 353.334 194.133 354.031 191.719L353.075 191.443ZM343.624 198.246V197.251C340.531 197.251 338.139 196.038 336.506 194.125C334.858 192.194 333.936 189.49 333.936 186.467H332.941H331.946C331.946 189.881 332.987 193.067 334.992 195.417C337.011 197.783 339.961 199.241 343.624 199.241V198.246ZM332.941 186.467H333.936C333.936 180.694 337.464 175.683 343.305 175.683V174.688V173.693C335.997 173.693 331.946 180.004 331.946 186.467H332.941ZM343.305 174.688V175.683C345.493 175.683 347.689 176.281 349.308 177.433C350.897 178.564 351.943 180.228 351.943 182.495H352.938H353.933C353.933 179.511 352.514 177.272 350.462 175.812C348.44 174.373 345.819 173.693 343.305 173.693V174.688ZM352.938 182.495H351.943C351.943 184.527 351.042 186.021 349.665 187.036C348.26 188.072 346.333 188.622 344.355 188.622V189.617V190.612C346.668 190.612 349.033 189.975 350.847 188.637C352.689 187.279 353.933 185.211 353.933 182.495H352.938ZM344.355 189.617V188.622C343.366 188.622 342.399 188.457 341.37 188.234L341.159 189.206L340.948 190.179C342.019 190.412 343.152 190.612 344.355 190.612V189.617ZM341.159 189.206L340.196 189.457C340.539 190.779 341.341 192.175 342.403 193.25C343.459 194.319 344.886 195.178 346.501 195.178V194.183V193.188C345.604 193.188 344.657 192.699 343.819 191.851C342.986 191.009 342.372 189.917 342.122 188.956L341.159 189.206ZM346.501 194.183V195.178C349.056 195.178 351.325 193.801 352.835 191.989L352.071 191.352L351.306 190.715C350.077 192.19 348.328 193.188 346.501 193.188V194.183ZM340.748 187.837L340.236 188.69C340.996 189.146 341.955 189.562 343.031 189.562V188.567V187.572C342.463 187.572 341.869 187.349 341.26 186.983L340.748 187.837ZM343.031 188.567V189.562C343.882 189.562 344.601 189.305 345.161 188.819C345.702 188.349 346.021 187.732 346.215 187.133C346.592 185.968 346.583 184.58 346.583 183.682H345.588H344.592C344.592 184.655 344.583 185.71 344.321 186.52C344.195 186.908 344.034 187.161 343.857 187.315C343.698 187.453 343.458 187.572 343.031 187.572V188.567ZM345.588 183.682H346.583C346.583 182.983 346.452 180.877 346.08 178.93C345.895 177.962 345.639 176.965 345.276 176.187C345.096 175.799 344.863 175.408 344.553 175.101C344.233 174.785 343.783 174.514 343.213 174.514V175.51V176.505C343.112 176.505 343.086 176.45 343.153 176.515C343.229 176.591 343.342 176.748 343.472 177.027C343.73 177.581 343.95 178.388 344.125 179.303C344.472 181.122 344.592 183.102 344.592 183.682H345.588ZM343.213 175.51V174.514C342.607 174.514 342.129 174.808 341.789 175.154C341.459 175.49 341.209 175.922 341.013 176.356C340.621 177.228 340.344 178.351 340.145 179.447C339.746 181.65 339.616 184.015 339.616 184.732H340.611H341.606C341.606 184.125 341.727 181.879 342.104 179.802C342.293 178.757 342.536 177.823 342.828 177.173C342.975 176.846 343.109 176.65 343.209 176.549C343.298 176.458 343.295 176.505 343.213 176.505V175.51ZM340.611 184.732H339.616C339.616 185.766 339.663 186.845 339.757 187.923L340.748 187.837L341.739 187.75C341.651 186.728 341.606 185.707 341.606 184.732H340.611Z" fill="#E6E6E6" mask="url(#path-5-outside-1_3253_4360)"/>
<path d="M261.581 199.225C260.074 199.225 259.161 198.221 259.344 196.714C259.846 192.103 260.485 187.446 260.485 182.789C260.485 178.315 259.892 173.886 259.344 169.458C259.161 168.134 259.937 167.129 261.261 166.901L264.823 166.353C266.557 166.079 267.608 167.084 267.425 168.864C267.105 171.786 266.786 174.708 266.603 177.63C267.927 176.671 269.525 176.032 271.169 176.032C274.821 176.032 277.697 177.995 277.697 181.967C277.697 184.296 276.967 186.624 276.967 189.044C276.967 191.509 277.332 194.02 277.789 196.44C278.108 198.129 277.241 199.225 275.552 199.225H272.584C270.94 199.225 270.027 198.129 270.347 196.486C271.123 192.194 271.762 187.811 271.762 183.52C271.762 181.967 271.717 177.219 269.388 177.219C268.292 177.219 267.242 178.087 266.512 178.863C266.466 180.141 266.42 181.42 266.42 182.698C266.42 187.4 266.968 192.057 267.471 196.714C267.653 198.221 266.74 199.225 265.233 199.225H261.581Z" fill="white"/>
<path d="M250.613 199.225C249.107 199.225 248.193 198.221 248.376 196.714C248.878 192.103 249.517 187.446 249.517 182.789C249.517 178.315 248.924 173.886 248.376 169.458C248.193 168.134 248.97 167.129 250.294 166.901L253.855 166.353C255.59 166.079 256.64 167.084 256.457 168.864C255.955 173.475 255.453 178.087 255.453 182.698C255.453 187.4 256.001 192.057 256.503 196.714C256.685 198.221 255.772 199.225 254.266 199.225H250.613Z" fill="white"/>
<path d="M239.962 199.225C238.181 199.225 237.314 198.084 237.634 196.349C238.181 193.518 238.364 190.687 238.364 187.811C238.364 185.117 238.227 182.561 237.679 179.958C237.36 178.406 238.044 177.219 239.597 176.991L242.108 176.58C244.162 176.26 245.167 177.402 244.847 179.456C244.345 182.241 244.208 185.026 244.208 187.811C244.208 190.687 244.391 193.518 244.893 196.303C245.212 198.084 244.391 199.225 242.564 199.225H239.962Z" fill="white"/>
<path d="M235.411 181.008C235.411 183.337 234.087 185.209 231.622 185.209C229.43 185.209 227.513 183.656 227.513 181.374C227.513 180.187 228.061 179.045 228.061 177.904C228.061 177.493 227.878 177.265 227.421 177.265C226.417 177.265 225.458 178.634 225.047 179.411C224.545 182.196 224.408 184.98 224.408 187.811C224.408 190.687 224.591 193.518 225.093 196.303C225.413 198.084 224.591 199.225 222.765 199.225H220.162C218.382 199.225 217.514 198.084 217.834 196.349C218.382 193.518 218.564 190.687 218.564 187.811C218.564 185.117 218.427 182.561 217.879 179.958C217.56 178.406 218.245 177.219 219.797 176.991L225.047 176.169C225.458 176.078 225.687 176.306 225.595 176.762L225.413 177.493C226.508 176.443 227.969 176.032 229.476 176.032C232.581 176.032 235.411 177.539 235.411 181.008Z" fill="white"/>
<path d="M213.947 175.119C213.947 180.05 209.564 181.237 205.592 182.15C210.203 182.881 215.819 184.981 215.819 190.551C215.819 197.399 206.916 199.225 201.666 199.225H194.772C193.174 199.225 192.261 198.175 192.489 196.623C193.082 192.058 193.493 187.492 193.493 182.881C193.493 178.498 193.082 174.206 192.489 169.869C192.306 168.317 193.174 167.266 194.772 167.266H201.255C206.368 167.266 213.947 168.545 213.947 175.119ZM199.474 185.757C202.213 181.328 206.414 181.694 206.414 175.028C206.414 171.832 204.862 168.18 201.163 168.18H200.661C199.931 173.065 199.428 177.95 199.428 182.881C199.428 183.839 199.428 184.798 199.474 185.757ZM200.661 198.312H201.666C206.186 198.312 208.057 194.569 208.057 190.551C208.057 188.131 207.692 183.155 204.314 183.155C201.118 183.155 199.748 187.309 199.748 189.957C199.748 192.651 200.296 195.619 200.661 198.312Z" fill="white"/>
<path d="M205.955 210.625C204.099 210.625 202.85 209.416 202.85 207.607C202.85 205.814 204.091 204.621 205.947 204.621C206.903 204.621 207.677 204.937 208.254 205.561L207.551 206.272C207.219 205.845 206.658 205.545 205.963 205.545C204.786 205.545 204.004 206.375 204.004 207.615C204.004 208.871 204.802 209.7 205.979 209.7C206.769 209.7 207.314 209.345 207.685 208.776L208.436 209.448C207.875 210.214 207.022 210.625 205.955 210.625ZM214.716 210.625C212.875 210.625 211.643 209.424 211.643 207.623C211.643 205.822 212.875 204.621 214.716 204.621C216.549 204.621 217.781 205.822 217.781 207.623C217.781 209.424 216.549 210.625 214.716 210.625ZM214.716 209.7C215.861 209.7 216.628 208.871 216.628 207.623C216.628 206.375 215.861 205.545 214.716 205.545C213.57 205.545 212.796 206.375 212.796 207.623C212.796 208.871 213.57 209.7 214.716 209.7ZM221.662 210.546V204.7H222.357L226.039 208.658L226.015 204.7H227.129V210.546H226.442L222.76 206.588L222.776 210.546H221.662ZM234.114 210.625C232.258 210.625 231.009 209.416 231.009 207.607C231.009 205.814 232.25 204.621 234.106 204.621C235.062 204.621 235.836 204.937 236.413 205.561L235.71 206.272C235.378 205.845 234.817 205.545 234.122 205.545C232.945 205.545 232.163 206.375 232.163 207.615C232.163 208.871 232.961 209.7 234.138 209.7C234.928 209.7 235.473 209.345 235.844 208.776L236.595 209.448C236.034 210.214 235.181 210.625 234.114 210.625ZM242.769 210.625C241.229 210.625 240.202 209.708 240.202 208.334V204.7H241.316V208.286C241.316 209.132 241.9 209.7 242.769 209.7C243.63 209.7 244.207 209.132 244.207 208.286V204.7H245.321V208.334C245.321 209.708 244.302 210.625 242.769 210.625ZM253.124 210.546L251.788 208.397H250.596V210.546H249.482V204.7H251.931C253.163 204.7 253.977 205.442 253.977 206.548C253.977 207.307 253.574 207.891 252.894 208.184L254.435 210.546H253.124ZM250.596 205.624V207.473H251.725C252.389 207.473 252.831 207.101 252.831 206.548C252.831 205.995 252.42 205.624 251.804 205.624H250.596ZM259.922 210.625C259.116 210.625 258.366 210.372 257.844 209.89L258.263 209.14C258.761 209.55 259.314 209.7 259.851 209.7C260.585 209.7 261.012 209.448 261.012 208.997C261.012 208.523 260.522 208.318 259.788 208.113L259.456 208.018C258.492 207.757 257.773 207.354 257.773 206.398C257.773 205.332 258.634 204.621 259.938 204.621C260.688 204.621 261.352 204.842 261.913 205.292L261.415 206.066C260.98 205.719 260.514 205.545 259.946 205.545C259.329 205.545 258.926 205.806 258.926 206.217C258.926 206.683 259.393 206.849 259.969 207.014L260.309 207.109C261.21 207.354 262.166 207.844 262.166 208.895C262.166 209.93 261.265 210.625 259.922 210.625ZM268.773 210.625C266.932 210.625 265.7 209.424 265.7 207.623C265.7 205.822 266.932 204.621 268.773 204.621C270.606 204.621 271.838 205.822 271.838 207.623C271.838 209.424 270.606 210.625 268.773 210.625ZM268.773 209.7C269.919 209.7 270.685 208.871 270.685 207.623C270.685 206.375 269.919 205.545 268.773 205.545C267.628 205.545 266.853 206.375 266.853 207.623C266.853 208.871 267.628 209.7 268.773 209.7ZM280.515 210.546V204.7H281.211L284.892 208.658L284.868 204.7H285.982V210.546H285.295L281.613 206.588L281.629 210.546H280.515ZM294.334 210.546L293.86 209.384H291.166L290.692 210.546H289.499L291.995 204.7L293.03 204.7L295.527 210.546H294.334ZM291.545 208.46H293.489L292.517 206.082L291.545 208.46ZM301.613 210.625C299.756 210.625 298.508 209.416 298.508 207.607C298.508 205.814 299.748 204.621 301.605 204.621C302.561 204.621 303.335 204.937 303.912 205.561L303.209 206.272C302.877 205.845 302.316 205.545 301.621 205.545C300.444 205.545 299.662 206.375 299.662 207.615C299.662 208.871 300.459 209.7 301.637 209.7C302.427 209.7 302.972 209.345 303.343 208.776L304.093 209.448C303.533 210.214 302.679 210.625 301.613 210.625ZM307.772 210.546V204.7H308.885V210.546H307.772ZM315.841 210.625C314 210.625 312.767 209.424 312.767 207.623C312.767 205.822 314 204.621 315.841 204.621C317.673 204.621 318.906 205.822 318.906 207.623C318.906 209.424 317.673 210.625 315.841 210.625ZM315.841 209.7C316.986 209.7 317.752 208.871 317.752 207.623C317.752 206.375 316.986 205.545 315.841 205.545C314.695 205.545 313.921 206.375 313.921 207.623C313.921 208.871 314.695 209.7 315.841 209.7ZM322.787 210.546V204.7H323.482L327.164 208.658L327.14 204.7H328.254V210.546H327.567L323.885 206.588L323.901 210.546H322.787ZM336.606 210.546L336.132 209.384H333.438L332.964 210.546H331.771L334.267 204.7H335.302L337.798 210.546H336.606ZM333.817 208.46H335.76L334.788 206.082L333.817 208.46ZM342.434 209.621H345.018V210.546H341.32V204.7H342.434V209.621Z" fill="white"/>
<path d="M236.757 169.471C238.927 170.141 241.768 168.64 242.437 166.469C241.768 168.64 243.269 171.48 245.439 172.149C243.269 171.48 240.429 172.981 239.759 175.152C240.429 172.981 238.927 170.141 236.757 169.471Z" fill="white"/>
</g>
</g>
<defs>
<filter id="filter0_d_3253_4360" x="0.900002" y="0.900002" width="546.662" height="450.695" filterUnits="userSpaceOnUse" color-interpolation-filters="sRGB">
<feFlood flood-opacity="0" result="BackgroundImageFix"/>
<feColorMatrix in="SourceAlpha" type="matrix" values="0 0 0 0 0 0 0 0 0 0 0 0 0 0 0 0 0 0 127 0" result="hardAlpha"/>
<feOffset dy="4"/>
<feGaussianBlur stdDeviation="56.55"/>
<feComposite in2="hardAlpha" operator="out"/>
<feColorMatrix type="matrix" values="0 0 0 0 0.393329 0 0 0 0 1 0 0 0 0 0.767443 0 0 0 0.19 0"/>
<feBlend mode="normal" in2="BackgroundImageFix" result="effect1_dropShadow_3253_4360"/>
<feBlend mode="normal" in="SourceGraphic" in2="effect1_dropShadow_3253_4360" result="shape"/>
</filter>
<filter id="filter1_d_3253_4360" x="3.36748" y="4.68635" width="541.727" height="367.534" filterUnits="userSpaceOnUse" color-interpolation-filters="sRGB">
<feFlood flood-opacity="0" result="BackgroundImageFix"/>
<feColorMatrix in="SourceAlpha" type="matrix" values="0 0 0 0 0 0 0 0 0 0 0 0 0 0 0 0 0 0 127 0" result="hardAlpha"/>
<feOffset dy="5.31887"/>
<feGaussianBlur stdDeviation="55.3163"/>
<feComposite in2="hardAlpha" operator="out"/>
<feColorMatrix type="matrix" values="0 0 0 0 0.393329 0 0 0 0 1 0 0 0 0 0.767443 0 0 0 0.21 0"/>
<feBlend mode="normal" in2="BackgroundImageFix" result="effect1_dropShadow_3253_4360"/>
<feBlend mode="normal" in="SourceGraphic" in2="effect1_dropShadow_3253_4360" result="shape"/>
</filter>
<linearGradient id="paint0_linear_3253_4360" x1="264.662" y1="1004.49" x2="276.199" y2="208.175" gradientUnits="userSpaceOnUse">
<stop stop-color="#64FFC4"/>
<stop offset="1" stop-color="#64FFC4"/>
</linearGradient>
</defs>
</svg>
