<svg xmlns="http://www.w3.org/2000/svg" width="34" height="34" viewBox="0 0 34 34" fill="none"><rect x="17.0701" y="0.452148" width="23.4023" height="23.4023" rx="2.66667" transform="rotate(45 17.0701 0.452148)" fill="#FFF0CC"></rect><path d="M14.5466 15.8125C13.8591 14.9688 13.4685 14.2891 13.4685 13.5156C13.4685 12.1094 14.6013 11.0938 16.2576 11.0938C17.9998 11.0938 19.1482 12.0313 19.1482 13.4219C19.1482 14.5469 18.406 15.2891 16.9373 16.0859C16.8904 16.1094 16.8826 16.1563 16.9138 16.1953L19.2185 19.0859C19.2498 19.125 19.2966 19.125 19.3279 19.0781C19.8669 18.2656 20.2185 17.2344 20.3044 16.0469C20.3123 15.9922 20.3435 15.9688 20.3904 15.9688H21.8435C21.8904 15.9688 21.9216 16 21.9138 16.0469C21.8201 17.7344 21.2341 19.2266 20.3279 20.375C20.2966 20.4141 20.2966 20.4531 20.3279 20.4844L21.8513 22.4062C21.8904 22.4609 21.8669 22.5 21.8044 22.5H19.9607C19.9216 22.5 19.8826 22.4844 19.8591 22.4531L19.1716 21.5937C19.1404 21.5547 19.1013 21.5469 19.0623 21.5781C18.0623 22.2891 16.8591 22.7031 15.531 22.7031C13.156 22.7031 11.6169 21.4922 11.6169 19.5391C11.6169 17.8047 12.8201 16.9063 14.4841 15.8672C14.531 15.8359 14.5544 15.8203 14.5466 15.8125ZM13.4216 19.3828C13.4216 20.5625 14.2732 21.1953 15.6951 21.1953C16.5466 21.1953 17.3826 20.9062 18.1013 20.3828C18.1404 20.3516 18.1482 20.3125 18.1169 20.2734L15.4763 16.9688C15.4451 16.9297 15.406 16.9297 15.3591 16.9609C14.2576 17.6641 13.4216 18.1953 13.4216 19.3828ZM15.1482 13.3906C15.1482 13.8828 15.4841 14.3906 15.7888 14.7813L15.9763 15.0234C16.0076 15.0625 16.0466 15.0625 16.0857 15.0391C17.0076 14.4766 17.4841 14.0234 17.4841 13.3359C17.4841 12.75 17.0076 12.3125 16.3435 12.3125C15.6169 12.3125 15.1482 12.7578 15.1482 13.3906Z" fill="#002E30"></path></svg>