<svg xmlns="http://www.w3.org/2000/svg" width="207" height="76" viewBox="0 0 207 76" fill="none"><mask id="path-1-outside-1_3253_4489" maskUnits="userSpaceOnUse" x="99.4346" y="14" width="106" height="44" fill="black"><rect fill="white" x="99.4346" y="14" width="106" height="44"></rect><path d="M133.22 52.0611C134.089 54.436 133.046 56 130.498 56H126.327C124.763 56 123.605 54.9574 123.431 53.3934C122.967 49.2807 122.388 45.226 121.635 41.1712C120.477 47.543 117.696 56.4634 109.818 56.4634C104.142 56.4634 101.593 50.8447 101.593 45.9211C101.593 36.7689 109.587 26.5162 113.178 17.422C113.641 16.2635 114.742 15.4526 115.958 15.4526H122.214C123.778 15.4526 124.937 16.5531 125.111 18.1171C126.269 30.6868 128.934 40.4761 133.22 52.0611ZM120.94 38.0433C119.376 30.9185 117.059 24.0255 114.51 17.1903C113.699 25.4736 111.382 34.2782 111.382 42.5614C111.382 44.5888 112.599 51.0764 115.553 51.0764C118.913 51.0764 120.65 40.3603 120.94 38.0433ZM158.985 32.888C158.985 35.8421 157.305 38.2171 154.177 38.2171C151.397 38.2171 148.964 36.2476 148.964 33.3514C148.964 31.8453 149.659 30.3972 149.659 28.9491C149.659 28.4277 149.427 28.1381 148.848 28.1381C147.574 28.1381 146.357 29.8759 145.836 30.8606C145.199 34.394 145.025 37.9274 145.025 41.5188C145.025 45.168 145.257 48.7594 145.894 52.2928C146.299 54.5519 145.257 56 142.94 56H139.638C137.379 56 136.278 54.5519 136.684 52.3507C137.379 48.7594 137.611 45.168 137.611 41.5188C137.611 38.1012 137.437 34.8574 136.742 31.5557C136.336 29.5862 137.205 28.0802 139.175 27.7906L145.836 26.7479C146.357 26.6321 146.647 26.9217 146.531 27.5009L146.299 28.4277C147.69 27.0955 149.543 26.5741 151.455 26.5741C155.394 26.5741 158.985 28.4857 158.985 32.888ZM162.921 50.9026C162.921 50.2075 162.979 49.5124 163.094 48.8173C163.558 45.7473 163.905 42.7352 163.905 39.6073C163.905 37.4061 163.732 33.8148 162.747 30.9764C161.704 28.1381 162.341 26.5741 165.933 24.6047C167.439 23.7938 168.771 22.7511 170.161 21.5347C170.972 20.8396 171.551 20.4341 171.957 20.4341C172.478 20.4341 172.71 21.1871 172.478 22.6932C172.304 24.1413 172.189 25.5894 172.073 27.0375H176.649C176.938 27.0375 177.112 27.2113 177.112 27.5009C177.112 27.7906 176.938 27.9643 176.649 27.9643H172.015C171.899 29.5862 171.899 31.1502 171.899 32.7721C171.899 37.5799 172.189 42.5035 172.826 47.3113C173.115 49.3386 173.637 53.3355 176.475 53.3355C177.112 53.3355 177.749 53.1617 178.387 52.8721C178.676 52.7562 178.85 52.8721 178.85 53.1617C178.85 53.4513 178.676 53.7989 178.387 53.9726C175.722 55.6525 173.347 56.4634 170.045 56.4634C166.222 56.4634 162.921 55.3628 162.921 50.9026ZM202.512 47.7167C202.744 47.485 203.092 47.3113 203.381 47.3113C203.671 47.3113 203.845 47.543 203.787 47.8326C202.165 53.4513 197.647 56.4634 191.796 56.4634C183.223 56.4634 178.242 49.6862 178.242 41.5188C178.242 33.7568 183.05 26.5741 191.391 26.5741C197.357 26.5741 203.613 29.8179 203.613 36.4793C203.613 42.5035 198.168 45.5156 192.723 45.5156C191.333 45.5156 190 45.2839 188.668 44.9943C189.421 47.8905 192.26 51.3081 195.445 51.3081C198.226 51.3081 200.775 49.802 202.512 47.7167ZM188.147 43.2565C189.016 43.7778 190 44.1833 191.043 44.1833C194.287 44.1833 194.287 40.3603 194.287 37.9854C194.287 36.3635 193.65 27.6168 191.275 27.6168C188.61 27.6168 187.973 37.6378 187.973 39.3176C187.973 40.592 188.031 41.9242 188.147 43.2565Z"></path></mask><path d="M133.22 52.0611L134.406 51.6273L134.404 51.623L133.22 52.0611ZM123.431 53.3934L124.686 53.254L124.685 53.252L123.431 53.3934ZM121.635 41.1712L122.876 40.9407L120.393 40.9454L121.635 41.1712ZM113.178 17.422L112.006 16.9531L112.004 16.9583L113.178 17.422ZM125.111 18.1171L126.368 18.0012L126.367 17.9894L126.365 17.9777L125.111 18.1171ZM120.94 38.0433L122.193 38.1999L122.22 37.9845L122.173 37.7726L120.94 38.0433ZM114.51 17.1903L115.693 16.7492L113.254 17.0673L114.51 17.1903ZM133.22 52.0611L132.034 52.4949C132.394 53.4787 132.249 53.9885 132.098 54.2082C131.953 54.4205 131.545 54.7374 130.498 54.7374V56V57.2626C131.999 57.2626 133.386 56.7975 134.182 55.6341C134.973 54.4781 134.915 53.0185 134.406 51.6273L133.22 52.0611ZM130.498 56V54.7374H126.327V56V57.2626H130.498V56ZM126.327 56V54.7374C125.413 54.7374 124.789 54.1847 124.686 53.254L123.431 53.3934L122.176 53.5328C122.42 55.73 124.113 57.2626 126.327 57.2626V56ZM123.431 53.3934L124.685 53.252C124.219 49.1148 123.636 45.0298 122.876 40.9407L121.635 41.1712L120.394 41.4018C121.14 45.4221 121.715 49.4467 122.176 53.5347L123.431 53.3934ZM121.635 41.1712L120.393 40.9454C119.821 44.0882 118.869 47.7284 117.165 50.5548C115.484 53.3433 113.172 55.2008 109.818 55.2008V56.4634V57.726C114.343 57.726 117.36 55.1233 119.328 51.8586C121.273 48.6319 122.29 44.626 122.877 41.3971L121.635 41.1712ZM109.818 56.4634V55.2008C107.468 55.2008 105.779 54.0657 104.628 52.3382C103.448 50.5691 102.856 48.1918 102.856 45.9211H101.593H100.33C100.33 48.5739 101.012 51.4678 102.526 53.7389C104.068 56.0517 106.492 57.726 109.818 57.726V56.4634ZM101.593 45.9211H102.856C102.856 41.6701 104.723 37.0541 107.166 32.2192C109.551 27.499 112.53 22.4999 114.352 17.8858L113.178 17.422L112.004 16.9583C110.235 21.4383 107.422 26.1127 104.912 31.0805C102.46 35.9335 100.33 41.0199 100.33 45.9211H101.593ZM113.178 17.422L114.35 17.8909C114.642 17.1608 115.311 16.7151 115.958 16.7151V15.4526V14.19C114.173 14.19 112.641 15.3663 112.006 16.9531L113.178 17.422ZM115.958 15.4526V16.7151H122.214V15.4526V14.19H115.958V15.4526ZM122.214 15.4526V16.7151C123.094 16.7151 123.748 17.2905 123.856 18.2565L125.111 18.1171L126.365 17.9777C126.125 15.8158 124.463 14.19 122.214 14.19V15.4526ZM125.111 18.1171L123.853 18.233C125.025 30.9418 127.723 40.8419 132.036 52.4992L133.22 52.0611L134.404 51.623C130.145 40.1104 127.514 30.4318 126.368 18.0012L125.111 18.1171ZM120.94 38.0433L122.173 37.7726C120.591 30.5629 118.25 23.606 115.693 16.7492L114.51 17.1903L113.327 17.6314C115.868 24.4449 118.161 31.2741 119.707 38.314L120.94 38.0433ZM114.51 17.1903L113.254 17.0673C112.853 21.1586 112.082 25.3647 111.395 29.6772C110.713 33.9576 110.12 38.3132 110.12 42.5614H111.382H112.645C112.645 38.5264 113.21 34.3381 113.889 30.0745C114.563 25.8431 115.356 21.5053 115.767 17.3133L114.51 17.1903ZM111.382 42.5614H110.12C110.12 43.7291 110.452 46.0019 111.172 48.0059C111.532 49.0099 112.021 50.037 112.682 50.8359C113.347 51.6393 114.3 52.339 115.553 52.339V51.0764V49.8138C115.329 49.8138 115.022 49.7025 114.628 49.2261C114.23 48.7453 113.861 48.0237 113.548 47.1525C112.921 45.4058 112.645 43.4211 112.645 42.5614H111.382ZM115.553 51.0764V52.339C117.105 52.339 118.172 51.1254 118.847 50.027C119.572 48.8477 120.15 47.3134 120.607 45.7915C121.526 42.7298 122.043 39.3954 122.193 38.1999L120.94 38.0433L119.687 37.8867C119.547 39.0082 119.051 42.1903 118.188 45.0659C117.754 46.5126 117.25 47.8022 116.696 48.7045C116.091 49.6878 115.68 49.8138 115.553 49.8138V51.0764ZM145.836 30.8606L144.72 30.2698L144.628 30.4433L144.593 30.6365L145.836 30.8606ZM145.894 52.2928L147.137 52.0698L147.136 52.0687L145.894 52.2928ZM136.684 52.3507L135.444 52.1108L135.442 52.122L136.684 52.3507ZM136.742 31.5557L135.505 31.8103L135.506 31.8158L136.742 31.5557ZM139.175 27.7906L139.358 29.0398L139.37 29.038L139.175 27.7906ZM145.836 26.7479L146.031 27.9953L146.071 27.9891L146.11 27.9804L145.836 26.7479ZM146.531 27.5009L147.756 27.8072L147.763 27.778L147.769 27.7486L146.531 27.5009ZM146.299 28.4277L145.074 28.1215L144.013 32.3676L147.173 29.3393L146.299 28.4277ZM158.985 32.888H157.722C157.722 34.1374 157.367 35.16 156.788 35.8471C156.232 36.5075 155.392 36.9545 154.177 36.9545V38.2171V39.4796C156.09 39.4796 157.654 38.7391 158.72 37.4736C159.763 36.2346 160.247 34.5927 160.247 32.888H158.985ZM154.177 38.2171V36.9545C151.957 36.9545 150.226 35.4209 150.226 33.3514H148.964H147.701C147.701 37.0743 150.836 39.4796 154.177 39.4796V38.2171ZM148.964 33.3514H150.226C150.226 32.7702 150.361 32.1743 150.54 31.4204C150.706 30.7202 150.922 29.8479 150.922 28.9491H149.659H148.396C148.396 29.4984 148.264 30.0742 148.083 30.8366C147.915 31.5453 147.701 32.4265 147.701 33.3514H148.964ZM149.659 28.9491H150.922C150.922 28.529 150.831 27.9485 150.387 27.4798C149.931 26.9978 149.332 26.8755 148.848 26.8755V28.1381V29.4007C148.944 29.4007 148.75 29.4233 148.554 29.2164C148.371 29.0229 148.396 28.8478 148.396 28.9491H149.659ZM148.848 28.1381V26.8755C147.665 26.8755 146.725 27.6478 146.143 28.2614C145.514 28.9254 145.017 29.7091 144.72 30.2698L145.836 30.8606L146.952 31.4513C147.176 31.0273 147.548 30.4498 147.976 29.9987C148.451 29.4973 148.757 29.4007 148.848 29.4007V28.1381ZM145.836 30.8606L144.593 30.6365C143.938 34.2733 143.762 37.8897 143.762 41.5188H145.025H146.288C146.288 37.9651 146.46 34.5147 147.078 31.0847L145.836 30.8606ZM145.025 41.5188H143.762C143.762 45.2201 143.997 48.8898 144.651 52.5169L145.894 52.2928L147.136 52.0687C146.516 48.6289 146.288 45.116 146.288 41.5188H145.025ZM145.894 52.2928L144.651 52.5159C144.816 53.4364 144.645 53.9554 144.44 54.22C144.251 54.464 143.841 54.7374 142.94 54.7374V56V57.2626C144.355 57.2626 145.626 56.8119 146.436 55.7671C147.23 54.7428 147.377 53.4083 147.137 52.0698L145.894 52.2928ZM142.94 56V54.7374H139.638V56V57.2626H142.94V56ZM139.638 56V54.7374C138.774 54.7374 138.352 54.4687 138.15 54.2148C137.939 53.9493 137.766 53.4455 137.925 52.5795L136.684 52.3507L135.442 52.122C135.196 53.4571 135.371 54.7779 136.174 55.7868C136.985 56.8072 138.242 57.2626 139.638 57.2626V56ZM136.684 52.3507L137.923 52.5906C138.638 48.8967 138.873 45.2203 138.873 41.5188H137.611H136.348C136.348 45.1157 136.119 48.6221 135.444 52.1108L136.684 52.3507ZM137.611 41.5188H138.873C138.873 38.0611 138.698 34.7192 137.977 31.2956L136.742 31.5557L135.506 31.8158C136.176 34.9956 136.348 38.1413 136.348 41.5188H137.611ZM136.742 31.5557L137.978 31.3011C137.822 30.5435 137.941 30.0271 138.138 29.7134C138.321 29.4212 138.673 29.1406 139.358 29.0397L139.175 27.7906L138.991 26.5414C137.707 26.7302 136.64 27.3474 135.998 28.373C135.369 29.3771 135.256 30.5984 135.505 31.8103L136.742 31.5557ZM139.175 27.7906L139.37 29.038L146.031 27.9953L145.836 26.7479L145.641 25.5005L138.979 26.5432L139.175 27.7906ZM145.836 26.7479L146.11 27.9804C146.109 27.9806 146.094 27.984 146.065 27.9851C146.036 27.9861 145.99 27.9848 145.931 27.9729C145.805 27.9475 145.643 27.877 145.505 27.7307C145.225 27.4352 145.313 27.1537 145.293 27.2533L146.531 27.5009L147.769 27.7486C147.865 27.2689 147.866 26.553 147.34 25.9969C146.793 25.417 146.055 25.4059 145.562 25.5154L145.836 26.7479ZM146.531 27.5009L145.306 27.1947L145.074 28.1215L146.299 28.4277L147.524 28.734L147.756 27.8072L146.531 27.5009ZM146.299 28.4277L147.173 29.3393C148.261 28.297 149.761 27.8367 151.455 27.8367V26.5741V25.3116C149.325 25.3116 147.118 25.894 145.426 27.5162L146.299 28.4277ZM151.455 26.5741V27.8367C153.243 27.8367 154.835 28.2737 155.946 29.0953C157.008 29.8806 157.722 31.0791 157.722 32.888H158.985H160.247C160.247 30.2945 159.166 28.3361 157.448 27.0651C155.778 25.8304 153.606 25.3116 151.455 25.3116V26.5741ZM163.094 48.8173L164.34 49.0249L164.341 49.0153L164.343 49.0058L163.094 48.8173ZM162.747 30.9764L163.94 30.5626L163.936 30.5518L163.932 30.5411L162.747 30.9764ZM165.933 24.6047L165.334 23.493L165.326 23.4977L165.933 24.6047ZM170.161 21.5347L169.339 20.576L169.33 20.5845L170.161 21.5347ZM172.478 22.6932L171.23 22.5012L171.227 22.5219L171.225 22.5427L172.478 22.6932ZM172.073 27.0375L170.814 26.9369L170.705 28.3001H172.073V27.0375ZM172.015 27.9643V26.7018H170.839L170.755 27.8744L172.015 27.9643ZM172.826 47.3113L171.574 47.4772L171.576 47.4898L172.826 47.3113ZM178.387 52.8721L177.918 51.6998L177.891 51.7106L177.864 51.7226L178.387 52.8721ZM178.387 53.9726L177.737 52.89L177.725 52.8971L177.713 52.9046L178.387 53.9726ZM162.921 50.9026H164.183C164.183 50.278 164.235 49.6523 164.34 49.0249L163.094 48.8173L161.849 48.6097C161.722 49.3725 161.658 50.137 161.658 50.9026H162.921ZM163.094 48.8173L164.343 49.0058C164.81 45.9103 165.168 42.827 165.168 39.6073H163.905H162.643C162.643 42.6434 162.306 45.5842 161.846 48.6289L163.094 48.8173ZM163.905 39.6073H165.168C165.168 37.3821 164.998 33.6118 163.94 30.5626L162.747 30.9764L161.554 31.3903C162.466 34.0177 162.643 37.4301 162.643 39.6073H163.905ZM162.747 30.9764L163.932 30.5411C163.457 29.2473 163.481 28.5497 163.739 28.0127C164.036 27.3978 164.785 26.6741 166.54 25.7117L165.933 24.6047L165.326 23.4977C163.489 24.5047 162.124 25.5477 161.465 26.9168C160.767 28.3638 160.994 29.8672 161.562 31.4118L162.747 30.9764ZM165.933 24.6047L166.531 25.7164C168.16 24.8394 169.575 23.7252 170.993 22.4849L170.161 21.5347L169.33 20.5845C167.967 21.777 166.717 22.7481 165.334 23.493L165.933 24.6047ZM170.161 21.5347L170.983 22.4933C171.378 22.1546 171.67 21.928 171.887 21.79C171.994 21.7226 172.056 21.6933 172.082 21.683C172.111 21.6718 172.061 21.6967 171.957 21.6967V20.4341V19.1715C171.378 19.1715 170.875 19.442 170.535 19.6575C170.159 19.896 169.755 20.2197 169.34 20.5761L170.161 21.5347ZM171.957 20.4341V21.6967C171.747 21.6967 171.532 21.6066 171.385 21.4549C171.268 21.3347 171.26 21.2442 171.275 21.3051C171.308 21.4387 171.337 21.8064 171.23 22.5012L172.478 22.6932L173.726 22.8852C173.851 22.0739 173.88 21.3121 173.725 20.6927C173.646 20.377 173.496 20.0042 173.197 19.6957C172.866 19.3557 172.427 19.1715 171.957 19.1715V20.4341ZM172.478 22.6932L171.225 22.5427C171.047 24.0198 170.93 25.4928 170.814 26.9369L172.073 27.0375L173.331 27.1382C173.447 25.686 173.561 24.2628 173.732 22.8436L172.478 22.6932ZM172.073 27.0375V28.3001H176.649V27.0375V25.775H172.073V27.0375ZM176.649 27.0375V28.3001C176.54 28.3001 176.306 28.2627 176.096 28.0534C175.887 27.8442 175.85 27.6093 175.85 27.5009H177.112H178.375C178.375 27.103 178.25 26.6364 177.882 26.2679C177.513 25.8993 177.047 25.775 176.649 25.775V27.0375ZM177.112 27.5009H175.85C175.85 27.3926 175.887 27.1577 176.096 26.9485C176.306 26.7392 176.54 26.7018 176.649 26.7018V27.9643V29.2269C177.047 29.2269 177.513 29.1026 177.882 28.734C178.25 28.3655 178.375 27.8989 178.375 27.5009H177.112ZM176.649 27.9643V26.7018H172.015V27.9643V29.2269H176.649V27.9643ZM172.015 27.9643L170.755 27.8744C170.636 29.5484 170.636 31.1568 170.636 32.7721H171.899H173.162C173.162 31.1436 173.162 29.6241 173.274 28.0543L172.015 27.9643ZM171.899 32.7721H170.636C170.636 37.6294 170.929 42.6087 171.574 47.4771L172.826 47.3113L174.077 47.1454C173.448 42.3982 173.162 37.5304 173.162 32.7721H171.899ZM172.826 47.3113L171.576 47.4898C171.715 48.4645 171.934 50.1401 172.529 51.5688C173.123 52.9962 174.288 54.598 176.475 54.598V53.3355V52.0729C175.824 52.0729 175.309 51.6763 174.86 50.5985C174.412 49.5219 174.226 48.1854 174.076 47.1327L172.826 47.3113ZM176.475 53.3355V54.598C177.343 54.598 178.161 54.3615 178.909 54.0215L178.387 52.8721L177.864 51.7226C177.338 51.9619 176.881 52.0729 176.475 52.0729V53.3355ZM178.387 52.8721L178.855 54.0443C178.834 54.0527 178.467 54.1961 178.049 53.93C177.61 53.6504 177.587 53.2258 177.587 53.1617H178.85H180.113C180.113 52.8079 180.003 52.1806 179.405 51.7996C178.827 51.4321 178.228 51.5755 177.918 51.6998L178.387 52.8721ZM178.85 53.1617H177.587C177.587 53.1099 177.595 53.0736 177.601 53.0527C177.606 53.0311 177.614 53.015 177.621 53.0021C177.632 52.9819 177.662 52.9347 177.737 52.89L178.387 53.9726L179.036 55.0553C179.726 54.6412 180.113 53.8707 180.113 53.1617H178.85ZM178.387 53.9726L177.713 52.9046C175.223 54.4743 173.079 55.2008 170.045 55.2008V56.4634V57.726C173.615 57.726 176.221 56.8306 179.06 55.0407L178.387 53.9726ZM170.045 56.4634V55.2008C168.209 55.2008 166.724 54.9275 165.729 54.2916C164.841 53.724 164.183 52.7672 164.183 50.9026H162.921H161.658C161.658 53.4983 162.651 55.3218 164.37 56.4196C165.981 57.4491 168.059 57.726 170.045 57.726V56.4634ZM202.512 47.7167L201.619 46.824L201.579 46.8645L201.542 46.9085L202.512 47.7167ZM203.787 47.8326L205 48.1827L205.014 48.132L205.025 48.0802L203.787 47.8326ZM188.668 44.9943L188.936 43.7605L186.929 43.3242L187.446 45.312L188.668 44.9943ZM188.147 43.2565L186.889 43.3659L186.945 44.0077L187.497 44.3392L188.147 43.2565ZM202.512 47.7167L203.405 48.6095C203.408 48.6066 203.416 48.5989 203.43 48.5893C203.443 48.5799 203.457 48.5722 203.468 48.567C203.479 48.5617 203.481 48.562 203.472 48.5643C203.467 48.5656 203.457 48.5679 203.443 48.5699C203.429 48.5719 203.408 48.5738 203.381 48.5738V47.3113V46.0487C202.668 46.0487 202.017 46.4263 201.619 46.824L202.512 47.7167ZM203.381 47.3113V48.5738C203.172 48.5738 202.903 48.4789 202.713 48.2331C202.532 47.9972 202.517 47.7435 202.549 47.585L203.787 47.8326L205.025 48.0802C205.114 47.6321 205.041 47.1177 204.715 46.6935C204.381 46.2595 203.88 46.0487 203.381 46.0487V47.3113ZM203.787 47.8326L202.574 47.4824C201.836 50.0385 200.46 51.9463 198.649 53.2232C196.832 54.5051 194.505 55.2008 191.796 55.2008V56.4634V57.726C194.938 57.726 197.795 56.9157 200.105 55.2868C202.421 53.653 204.116 51.2454 205 48.1827L203.787 47.8326ZM191.796 56.4634V55.2008C187.871 55.2008 184.837 53.6625 182.765 51.2343C180.674 48.7847 179.504 45.3547 179.504 41.5188H178.242H176.979C176.979 45.8503 178.3 49.8926 180.844 52.8734C183.406 55.8757 187.148 57.726 191.796 57.726V56.4634ZM178.242 41.5188H179.504C179.504 34.195 183.98 27.8367 191.391 27.8367V26.5741V25.3116C182.119 25.3116 176.979 33.3187 176.979 41.5188H178.242ZM191.391 26.5741V27.8367C194.168 27.8367 196.953 28.5955 199.007 30.0574C201.023 31.4923 202.35 33.6033 202.35 36.4793H203.613H204.875C204.875 32.6939 203.074 29.8524 200.471 28C197.906 26.1747 194.58 25.3116 191.391 25.3116V26.5741ZM203.613 36.4793H202.35C202.35 39.0579 201.207 40.9524 199.46 42.2404C197.677 43.5554 195.233 44.253 192.723 44.253V45.5156V46.7782C195.658 46.7782 198.658 45.9697 200.959 44.2726C203.297 42.5486 204.875 39.9249 204.875 36.4793H203.613ZM192.723 45.5156V44.253C191.469 44.253 190.241 44.0441 188.936 43.7605L188.668 44.9943L188.4 46.228C189.76 46.5237 191.197 46.7782 192.723 46.7782V45.5156ZM188.668 44.9943L187.446 45.312C187.882 46.9891 188.899 48.7607 190.246 50.1247C191.587 51.4814 193.397 52.5707 195.445 52.5707V51.3081V50.0455C194.308 50.0455 193.106 49.426 192.043 48.3499C190.986 47.2809 190.207 45.8956 189.89 44.6766L188.668 44.9943ZM195.445 51.3081V52.5707C198.688 52.5707 201.566 50.8239 203.482 48.525L202.512 47.7167L201.542 46.9085C199.983 48.7802 197.764 50.0455 195.445 50.0455V51.3081ZM188.147 43.2565L187.497 44.3392C188.462 44.918 189.678 45.4459 191.043 45.4459V44.1833V42.9207C190.323 42.9207 189.57 42.6377 188.796 42.1739L188.147 43.2565ZM191.043 44.1833V45.4459C192.123 45.4459 193.035 45.1192 193.746 44.5028C194.433 43.907 194.837 43.1237 195.083 42.3638C195.561 40.8861 195.55 39.1252 195.55 37.9854H194.287H193.024C193.024 39.2204 193.013 40.5585 192.68 41.5861C192.521 42.0788 192.317 42.3997 192.091 42.5949C191.89 42.7696 191.585 42.9207 191.043 42.9207V44.1833ZM194.287 37.9854H195.55C195.55 37.0987 195.383 34.4271 194.912 31.9561C194.677 30.728 194.352 29.463 193.892 28.4758C193.663 27.9838 193.367 27.4877 192.975 27.0987C192.569 26.6971 191.998 26.3542 191.275 26.3542V27.6168V28.8794C191.146 28.8794 191.114 28.8098 191.198 28.8929C191.294 28.9886 191.438 29.1885 191.603 29.5419C191.93 30.2453 192.21 31.2683 192.431 32.4296C192.872 34.7374 193.024 37.2501 193.024 37.9854H194.287ZM191.275 27.6168V26.3542C190.505 26.3542 189.899 26.7268 189.467 27.1658C189.048 27.5922 188.731 28.1397 188.483 28.6908C187.986 29.7975 187.634 31.2223 187.382 32.612C186.876 35.4076 186.711 38.4085 186.711 39.3176H187.973H189.236C189.236 38.5469 189.389 35.6974 189.867 33.0626C190.107 31.7371 190.415 30.5516 190.786 29.7268C190.973 29.3123 191.143 29.0637 191.269 28.9355C191.382 28.82 191.378 28.8794 191.275 28.8794V27.6168ZM187.973 39.3176H186.711C186.711 40.6294 186.77 41.9982 186.889 43.3659L188.147 43.2565L189.405 43.1471C189.292 41.8503 189.236 40.5545 189.236 39.3176H187.973Z" fill="#1BAEBF" mask="url(#path-1-outside-1_3253_4489)"></path><path d="M87.7039 57.5297C85.7924 57.5297 84.6339 56.2553 84.8656 54.3438C85.5028 48.4934 86.3137 42.5851 86.3137 36.6767C86.3137 31.0001 85.5607 25.3814 84.8656 19.7626C84.6339 18.0828 85.6186 16.8085 87.2984 16.5189L91.8166 15.8238C94.0177 15.4762 95.35 16.7506 95.1183 19.0096C94.7128 22.7168 94.3074 26.424 94.0757 30.1312C95.7555 28.9148 97.7829 28.1038 99.8682 28.1038C104.502 28.1038 108.151 30.5946 108.151 35.6341C108.151 38.5882 107.225 41.5424 107.225 44.6124C107.225 47.7404 107.688 50.9263 108.267 53.9963C108.673 56.1395 107.572 57.5297 105.429 57.5297H101.664C99.5785 57.5297 98.42 56.1395 98.8255 54.0542C99.8102 48.6093 100.621 43.0485 100.621 37.6035C100.621 35.6341 100.563 29.6099 97.6091 29.6099C96.2189 29.6099 94.8866 30.7105 93.9598 31.6952C93.9019 33.3171 93.844 34.939 93.844 36.5609C93.844 42.5271 94.5391 48.4355 95.1762 54.3438C95.4079 56.2553 94.2494 57.5297 92.3379 57.5297H87.7039Z" fill="url(#paint0_linear_3253_4489)"></path><path d="M73.7869 57.5297C71.8754 57.5297 70.7169 56.2553 70.9486 54.3438C71.5858 48.4934 72.3967 42.5851 72.3967 36.6767C72.3967 31.0001 71.6437 25.3814 70.9486 19.7626C70.7169 18.0828 71.7016 16.8085 73.3814 16.5189L77.8996 15.8238C80.1007 15.4762 81.433 16.7506 81.2013 19.0096C80.5641 24.86 79.927 30.7105 79.927 36.5609C79.927 42.5271 80.6221 48.4355 81.2592 54.3438C81.4909 56.2553 80.3324 57.5297 78.4209 57.5297H73.7869Z" fill="url(#paint1_linear_3253_4489)"></path><path d="M60.2752 57.5294C58.0161 57.5294 56.9155 56.0813 57.321 53.8802C58.0161 50.2888 58.2478 46.6975 58.2478 43.0482C58.2478 39.6306 58.074 36.3868 57.3789 33.0851C56.9735 31.1157 57.8423 29.6096 59.8118 29.32L62.9977 28.7987C65.6043 28.3932 66.8786 29.8413 66.4732 32.4479C65.836 35.9814 65.6622 39.5148 65.6622 43.0482C65.6622 46.6975 65.8939 50.2888 66.5311 53.8222C66.9366 56.0813 65.8939 57.5294 63.5769 57.5294H60.2752Z" fill="url(#paint2_linear_3253_4489)"></path><path d="M54.5001 34.4173C54.5001 37.3715 52.8202 39.7464 49.6923 39.7464C46.9119 39.7464 44.479 37.777 44.479 34.8807C44.479 33.3747 45.1741 31.9266 45.1741 30.4784C45.1741 29.9571 44.9424 29.6675 44.3632 29.6675C43.0888 29.6675 41.8724 31.4052 41.3511 32.39C40.7139 35.9234 40.5401 39.4568 40.5401 43.0481C40.5401 46.6974 40.7718 50.2888 41.409 53.8222C41.8145 56.0812 40.7718 57.5294 38.4548 57.5294H35.1531C32.8941 57.5294 31.7935 56.0812 32.199 53.8801C32.8941 50.2888 33.1258 46.6974 33.1258 43.0481C33.1258 39.6306 32.952 36.3868 32.2569 33.0851C31.8514 31.1156 32.7203 29.6096 34.6897 29.3199L41.3511 28.2773C41.8724 28.1614 42.162 28.4511 42.0462 29.0303L41.8145 29.9571C43.2047 28.6248 45.0583 28.1035 46.9698 28.1035C50.9087 28.1035 54.5001 30.015 54.5001 34.4173Z" fill="url(#paint3_linear_3253_4489)"></path><path d="M27.2687 26.9455C27.2687 33.2014 21.708 34.7074 16.6685 35.8659C22.5189 36.7927 29.6437 39.4573 29.6437 46.5241C29.6437 55.2129 18.3483 57.5299 11.6869 57.5299H2.94029C0.912915 57.5299 -0.245583 56.1976 0.044041 54.2281C0.797065 48.4356 1.31839 42.6432 1.31839 36.7927C1.31839 31.232 0.797065 25.787 0.044041 20.2841C-0.187659 18.3147 0.912915 16.9824 2.94029 16.9824H11.1656C17.6532 16.9824 27.2687 18.6043 27.2687 26.9455ZM8.90655 40.442C12.382 34.8233 17.7111 35.2867 17.7111 26.8297C17.7111 22.7749 15.7417 18.1409 11.0498 18.1409H10.4126C9.4858 24.3389 8.84863 30.5369 8.84863 36.7927C8.84863 38.0092 8.84863 39.2256 8.90655 40.442ZM10.4126 56.3714H11.6869C17.4215 56.3714 19.7964 51.6215 19.7964 46.5241C19.7964 43.4541 19.333 37.1403 15.0466 37.1403C10.9918 37.1403 9.2541 42.4115 9.2541 45.7711C9.2541 49.1887 9.9492 52.9538 10.4126 56.3714Z" fill="url(#paint4_linear_3253_4489)"></path><path d="M17.1298 71.5746C14.7744 71.5746 13.1908 70.0411 13.1908 67.7458C13.1908 65.4705 14.7644 63.957 17.1198 63.957C18.3326 63.957 19.3149 64.358 20.0466 65.1498L19.1545 66.0519C18.7335 65.5106 18.0219 65.1297 17.1399 65.1297C15.6464 65.1297 14.6541 66.1822 14.6541 67.7558C14.6541 69.3495 15.6665 70.4019 17.1599 70.4019C18.1622 70.4019 18.8538 69.9509 19.3249 69.2292L20.2771 70.0812C19.5655 71.0534 18.483 71.5746 17.1298 71.5746ZM28.2448 71.5746C25.9094 71.5746 24.3458 70.0511 24.3458 67.7658C24.3458 65.4806 25.9094 63.957 28.2448 63.957C30.5701 63.957 32.1337 65.4806 32.1337 67.7658C32.1337 70.0511 30.5701 71.5746 28.2448 71.5746ZM28.2448 70.4019C29.6981 70.4019 30.6703 69.3495 30.6703 67.7658C30.6703 66.1822 29.6981 65.1297 28.2448 65.1297C26.7914 65.1297 25.8091 66.1822 25.8091 67.7658C25.8091 69.3495 26.7914 70.4019 28.2448 70.4019ZM37.0579 71.4744V64.0573H37.9399L42.6107 69.0788L42.5806 64.0573H43.9939V71.4744H43.1219L38.4511 66.4528L38.4711 71.4744H37.0579ZM52.8559 71.5746C50.5005 71.5746 48.9168 70.0411 48.9168 67.7458C48.9168 65.4705 50.4905 63.957 52.8459 63.957C54.0587 63.957 55.041 64.358 55.7727 65.1498L54.8806 66.0519C54.4596 65.5106 53.748 65.1297 52.866 65.1297C51.3725 65.1297 50.3802 66.1822 50.3802 67.7558C50.3802 69.3495 51.3926 70.4019 52.886 70.4019C53.8883 70.4019 54.5799 69.9509 55.051 69.2292L56.0032 70.0812C55.2915 71.0534 54.209 71.5746 52.8559 71.5746ZM63.837 71.5746C61.8825 71.5746 60.5795 70.4119 60.5795 68.6679V64.0573H61.9928V68.6078C61.9928 69.6802 62.7345 70.4019 63.837 70.4019C64.9295 70.4019 65.6612 69.6802 65.6612 68.6078V64.0573H67.0745V68.6679C67.0745 70.4119 65.7815 71.5746 63.837 71.5746ZM76.9739 71.4744L75.28 68.7481H73.7665V71.4744H72.3533V64.0573H75.4604C77.0241 64.0573 78.0564 64.9994 78.0564 66.4027C78.0564 67.3649 77.5453 68.1066 76.6833 68.4775L78.6378 71.4744H76.9739ZM73.7665 65.23V67.5754H75.1998C76.0418 67.5754 76.6031 67.1043 76.6031 66.4027C76.6031 65.7011 76.0819 65.23 75.3001 65.23H73.7665ZM85.5992 71.5746C84.5768 71.5746 83.6247 71.2539 82.9631 70.6424L83.4944 69.6903C84.1258 70.2115 84.8274 70.4019 85.509 70.4019C86.4411 70.4019 86.9824 70.0812 86.9824 69.5098C86.9824 68.9085 86.361 68.6479 85.4288 68.3872L85.0078 68.267C83.785 67.9362 82.8729 67.425 82.8729 66.2122C82.8729 64.8591 83.9654 63.957 85.6192 63.957C86.5714 63.957 87.4134 64.2377 88.125 64.809L87.4936 65.7913C86.9423 65.3503 86.3509 65.1297 85.6293 65.1297C84.8475 65.1297 84.3363 65.4605 84.3363 65.9817C84.3363 66.5731 84.9277 66.7836 85.6593 66.994L86.0903 67.1143C87.233 67.425 88.4458 68.0465 88.4458 69.3795C88.4458 70.6926 87.3031 71.5746 85.5992 71.5746ZM96.829 71.5746C94.4936 71.5746 92.93 70.0511 92.93 67.7658C92.93 65.4806 94.4936 63.957 96.829 63.957C99.1544 63.957 100.718 65.4806 100.718 67.7658C100.718 70.0511 99.1544 71.5746 96.829 71.5746ZM96.829 70.4019C98.2823 70.4019 99.2546 69.3495 99.2546 67.7658C99.2546 66.1822 98.2823 65.1297 96.829 65.1297C95.3756 65.1297 94.3934 66.1822 94.3934 67.7658C94.3934 69.3495 95.3756 70.4019 96.829 70.4019ZM111.727 71.4744V64.0573H112.609L117.28 69.0788L117.25 64.0573H118.663V71.4744H117.791L113.12 66.4528L113.14 71.4744H111.727ZM129.259 71.4744L128.658 70.001H125.24L124.638 71.4744H123.125L126.292 64.0573H127.605L130.772 71.4744H129.259ZM125.721 68.8283H128.186L126.954 65.8113L125.721 68.8283ZM138.494 71.5746C136.138 71.5746 134.555 70.0411 134.555 67.7458C134.555 65.4705 136.128 63.957 138.484 63.957C139.697 63.957 140.679 64.358 141.411 65.1498L140.519 66.0519C140.098 65.5106 139.386 65.1297 138.504 65.1297C137.011 65.1297 136.018 66.1822 136.018 67.7558C136.018 69.3495 137.031 70.4019 138.524 70.4019C139.526 70.4019 140.218 69.9509 140.689 69.2292L141.641 70.0812C140.93 71.0534 139.847 71.5746 138.494 71.5746ZM146.308 71.4744V64.0573H147.721V71.4744H146.308ZM156.545 71.5746C154.21 71.5746 152.646 70.0511 152.646 67.7658C152.646 65.4806 154.21 63.957 156.545 63.957C158.871 63.957 160.434 65.4806 160.434 67.7658C160.434 70.0511 158.871 71.5746 156.545 71.5746ZM156.545 70.4019C157.998 70.4019 158.971 69.3495 158.971 67.7658C158.971 66.1822 157.998 65.1297 156.545 65.1297C155.092 65.1297 154.11 66.1822 154.11 67.7658C154.11 69.3495 155.092 70.4019 156.545 70.4019ZM165.358 71.4744V64.0573H166.24L170.911 69.0788L170.881 64.0573H172.294V71.4744H171.422L166.751 66.4528L166.772 71.4744H165.358ZM182.89 71.4744L182.289 70.001H178.871L178.27 71.4744H176.756L179.923 64.0573H181.237L184.404 71.4744H182.89ZM179.352 68.8283H181.818L180.585 65.8113L179.352 68.8283ZM190.285 70.3017H193.563V71.4744H188.872V64.0573H190.285V70.3017Z" fill="white"></path><path d="M56.2085 19.7804C58.9625 20.6298 62.5658 18.7252 63.4152 15.9712C62.5658 18.7252 64.4704 22.3285 67.2244 23.1778C64.4704 22.3285 60.8671 24.2331 60.0177 26.9871C60.8671 24.2331 58.9625 20.6298 56.2085 19.7804Z" fill="#52DBA7"></path><defs><linearGradient id="paint0_linear_3253_4489" x1="53.446" y1="1.37239" x2="53.446" y2="73.1747" gradientUnits="userSpaceOnUse"><stop stop-color="#26835F"></stop><stop offset="0.548077" stop-color="#64FFC4"></stop><stop offset="1" stop-color="#227253"></stop></linearGradient><linearGradient id="paint1_linear_3253_4489" x1="53.4446" y1="1.37239" x2="53.4446" y2="73.1747" gradientUnits="userSpaceOnUse"><stop stop-color="#26835F"></stop><stop offset="0.548077" stop-color="#64FFC4"></stop><stop offset="1" stop-color="#227253"></stop></linearGradient><linearGradient id="paint2_linear_3253_4489" x1="53.4457" y1="1.3721" x2="53.4457" y2="73.1744" gradientUnits="userSpaceOnUse"><stop stop-color="#26835F"></stop><stop offset="0.548077" stop-color="#64FFC4"></stop><stop offset="1" stop-color="#227253"></stop></linearGradient><linearGradient id="paint3_linear_3253_4489" x1="53.4463" y1="1.37207" x2="53.4463" y2="73.1744" gradientUnits="userSpaceOnUse"><stop stop-color="#26835F"></stop><stop offset="0.548077" stop-color="#64FFC4"></stop><stop offset="1" stop-color="#227253"></stop></linearGradient><linearGradient id="paint4_linear_3253_4489" x1="53.4455" y1="1.37256" x2="53.4455" y2="73.1749" gradientUnits="userSpaceOnUse"><stop stop-color="#26835F"></stop><stop offset="0.548077" stop-color="#64FFC4"></stop><stop offset="1" stop-color="#227253"></stop></linearGradient></defs></svg>