<svg xmlns="http://www.w3.org/2000/svg" width="26" height="26" viewBox="0 0 26 26" fill="none"><path d="M19.9901 4.96116C19.6899 4.96116 19.3964 5.04767 19.1467 5.20975C18.8971 5.37184 18.7025 5.60221 18.5877 5.87175C18.4728 6.14129 18.4427 6.43788 18.5013 6.72401C18.5598 7.01015 18.7044 7.27299 18.9167 7.47928C19.129 7.68557 19.3995 7.82606 19.6939 7.88298C19.9884 7.93989 20.2936 7.91068 20.571 7.79904C20.8484 7.68739 21.0854 7.49833 21.2522 7.25575C21.419 7.01318 21.5081 6.72798 21.5081 6.43624C21.5081 6.04502 21.3481 5.66983 21.0634 5.3932C20.7788 5.11657 20.3927 4.96116 19.9901 4.96116ZM25.809 7.9359C25.7844 6.91601 25.5878 5.90693 25.2271 4.94887C24.9054 4.12913 24.4048 3.38685 23.7597 2.77312C23.1333 2.14305 22.3677 1.65965 21.5207 1.3595C20.5374 0.998305 19.4978 0.802917 18.4468 0.781762C17.1059 0.708008 16.6758 0.708008 13.2351 0.708008C9.79436 0.708008 9.36427 0.708008 8.02339 0.781762C6.97239 0.802917 5.93282 0.998305 4.9495 1.3595C4.10408 1.66269 3.3391 2.14567 2.71049 2.77312C2.06209 3.38181 1.56464 4.12582 1.25577 4.94887C0.884065 5.9044 0.682996 6.9146 0.661226 7.9359C0.585327 9.23889 0.585327 9.65683 0.585327 13.0003C0.585327 16.3439 0.585327 16.7618 0.661226 18.0648C0.682996 19.0861 0.884065 20.0963 1.25577 21.0518C1.56464 21.8749 2.06209 22.6189 2.71049 23.2276C3.3391 23.855 4.10408 24.338 4.9495 24.6412C5.93282 25.0024 6.97239 25.1978 8.02339 25.2189C9.36427 25.2927 9.79436 25.2927 13.2351 25.2927C16.6758 25.2927 17.1059 25.2927 18.4468 25.2189C19.4978 25.1978 20.5374 25.0024 21.5207 24.6412C22.3677 24.341 23.1333 23.8577 23.7597 23.2276C24.4077 22.6161 24.9087 21.8732 25.2271 21.0518C25.5878 20.0938 25.7844 19.0847 25.809 18.0648C25.809 16.7618 25.8849 16.3439 25.8849 13.0003C25.8849 9.65683 25.8849 9.23889 25.809 7.9359ZM23.532 17.9173C23.5228 18.6976 23.3774 19.4707 23.1019 20.2037C22.8999 20.7386 22.5755 21.222 22.1532 21.6173C21.7429 22.0236 21.2465 22.3381 20.6985 22.5392C19.9442 22.8069 19.1486 22.9482 18.3456 22.9571C17.0806 23.0186 16.6126 23.0309 13.2857 23.0309C9.95881 23.0309 9.49077 23.0309 8.22579 22.9571C7.39203 22.9723 6.56183 22.8476 5.77173 22.5884C5.24776 22.377 4.77412 22.0632 4.38026 21.6665C3.9604 21.2716 3.64005 20.7878 3.44418 20.2528C3.13534 19.5093 2.96405 18.7187 2.93818 17.9173C2.93818 16.6881 2.86229 16.2332 2.86229 13.0003C2.86229 9.76746 2.86229 9.31265 2.93818 8.08341C2.94386 7.28571 3.09371 6.49517 3.38093 5.74787C3.60362 5.22902 3.94544 4.76652 4.38026 4.39571C4.76458 3.97306 5.23954 3.63739 5.77173 3.41232C6.5428 3.14195 7.35548 3.00063 8.17519 2.99438C9.44017 2.99438 9.90821 2.92063 13.2351 2.92063C16.562 2.92063 17.03 2.92063 18.295 2.99438C19.098 3.00333 19.8936 3.14465 20.6479 3.41232C21.2227 3.61964 21.7386 3.95669 22.1532 4.39571C22.5677 4.7733 22.8916 5.23495 23.1019 5.74787C23.3831 6.49639 23.5286 7.2866 23.532 8.08341C23.5953 9.31265 23.6079 9.76746 23.6079 13.0003C23.6079 16.2332 23.5953 16.6881 23.532 17.9173ZM13.2351 6.69438C11.9522 6.69681 10.6988 7.06871 9.63327 7.7631C8.56777 8.45748 7.73799 9.44319 7.24876 10.5957C6.75954 11.7481 6.63283 13.0157 6.88465 14.2381C7.13647 15.4605 7.75552 16.583 8.66357 17.4637C9.57162 18.3443 10.7279 18.9437 11.9864 19.186C13.2449 19.4284 14.549 19.3028 15.734 18.8251C16.9191 18.3475 17.9318 17.5392 18.6443 16.5025C19.3568 15.4657 19.7371 14.247 19.7371 13.0003C19.7388 12.1707 19.5716 11.349 19.2453 10.5824C18.919 9.81578 18.4399 9.11942 17.8357 8.53338C17.2314 7.94733 16.5139 7.48315 15.7243 7.16755C14.9348 6.85194 14.0888 6.69114 13.2351 6.69438ZM13.2351 17.0937C12.402 17.0937 11.5876 16.8536 10.8948 16.4038C10.2021 15.9541 9.6622 15.3148 9.34337 14.5668C9.02455 13.8188 8.94113 12.9958 9.10367 12.2018C9.2662 11.4077 9.66739 10.6784 10.2565 10.1059C10.8456 9.53345 11.5962 9.1436 12.4133 8.98565C13.2304 8.82771 14.0774 8.90877 14.8471 9.21859C15.6168 9.5284 16.2747 10.0531 16.7376 10.7262C17.2004 11.3994 17.4475 12.1908 17.4475 13.0003C17.4475 13.5379 17.3385 14.0702 17.1268 14.5668C16.9151 15.0634 16.6049 15.5147 16.2137 15.8948C15.8225 16.2749 15.3582 16.5764 14.8471 16.7821C14.336 16.9878 13.7883 17.0937 13.2351 17.0937Z" fill="white"></path></svg>