<svg xmlns="http://www.w3.org/2000/svg" width="529" height="68" viewBox="0 0 529 68" fill="none"><mask id="path-1-inside-1_1252_301" fill="white"><path d="M215.161 0.0084891C214.754 0.0506168 214.562 0.246448 214.716 0.686809C215.025 1.56659 215.686 2.2435 216.503 2.83186C216.415 2.92405 216.337 3.03074 216.27 3.15149C216.187 3.30378 216.134 3.45824 216.097 3.61495C215.779 3.76432 215.464 3.91675 215.184 4.09794C206.107 4.17976 197.033 4.45442 187.973 4.88102C187.605 4.8982 187.238 4.92607 186.87 4.94493C181.224 4.82608 175.578 4.72251 169.931 4.72475C165.426 4.72701 160.04 2.87177 156.425 5.15624C155.87 5.50713 155.708 6.03854 155.802 6.63895C147.121 6.68788 138.441 6.81251 129.778 7.25334C129.233 7.12442 128.755 7.08679 128.476 7.31551C125.907 7.45574 123.339 7.61645 120.774 7.8198C120.598 7.84042 120.421 7.85853 120.245 7.87839C120.05 7.86533 119.855 7.85399 119.66 7.8411C119.84 7.29563 118.264 7.60555 117.567 7.54102C111.802 7.00618 107.143 6.83464 101.247 6.5271C100.643 6.50511 97.3125 5.91973 94.298 6.10803C92.7081 5.70989 90.9115 5.00562 90.2618 6.04233C90.2587 6.04714 90.2565 6.05161 90.2533 6.05642C84.9867 5.57038 79.7224 5.13241 74.4761 5.561C72.9193 5.68817 71.3856 5.97966 69.88 6.3725C68.2092 6.22546 66.5398 6.07365 64.8723 5.90194C64.1279 5.82528 62.0327 5.18783 62.6662 5.52904C63.861 6.17239 65.0471 6.86255 66.2407 7.54268C64.5543 8.18453 62.9198 8.92955 61.3521 9.72679C59.1167 9.65944 54.0368 9.52323 53.8709 9.61137C53.796 9.65109 53.7319 9.70188 53.6599 9.74456C52.8145 9.71294 51.6804 9.66951 51.6021 9.66642C50.7012 9.66329 49.6153 9.6355 49.1495 9.92743C48.914 9.92643 48.6788 9.92365 48.4433 9.92194C46.6214 9.98791 44.3568 9.1084 42.976 10.1208C42.6122 10.3876 42.3404 10.7199 42.1383 11.0921C40.5937 10.8559 39.1098 10.7537 38.006 11.4366C36.2951 11.4831 34.6966 11.869 36.9342 13.7699C36.4685 14.0977 36.1678 14.383 36.0088 14.6293C35.5393 14.6322 35.0702 14.6277 34.6007 14.6311C31.0827 14.6565 27.5661 14.7119 24.0484 14.759C22.0935 14.7854 19.8378 13.986 18.1612 14.7892C17.1473 14.7988 16.1344 14.8277 15.1257 14.9046C15.597 15.7268 15.843 16.7194 16.2204 17.6126C16.0169 18.2548 15.82 18.9026 15.5143 19.4699C16.235 19.4816 16.9573 19.4748 17.6786 19.4734C17.7183 19.4974 17.748 19.5289 17.7894 19.5515C19.4909 20.4799 21.8325 19.6342 23.8541 19.6651C24.5568 19.6761 25.2594 19.6827 25.9621 19.6937C28.2982 19.8417 30.6285 20.0254 32.9586 20.2282C32.9218 20.2859 32.8926 20.3455 32.8584 20.4039C29.7715 20.6884 26.6528 21.0227 23.9649 21.3593C22.3049 21.5672 20.5988 21.6424 19.0052 22.0891C18.2823 22.2917 16.6624 22.7894 17.1835 23.2611C17.7746 23.7959 18.4627 24.2293 19.1933 24.6177C18.4721 24.6277 17.5046 24.6325 16.9955 24.6462C14.9631 24.7011 12.9402 24.8936 10.9119 25.0173C10.364 26.4116 7.75796 28.482 9.26776 29.1991C9.74496 29.4258 10.5017 29.6413 11.3862 29.849C11.37 29.8727 11.357 29.9003 11.3402 29.9236C11.4558 29.922 11.5714 29.9233 11.687 29.9218C17.4698 31.2059 29.9621 32.1094 38.1481 32.6031C38.0984 32.8334 38.0688 33.0642 38.0603 33.2938C37.9895 33.3449 37.9177 33.3948 37.8493 33.4501C36.6527 33.2494 36.5538 33.2881 37.5255 33.7129C37.2822 33.9323 37.0381 34.1517 36.7922 34.3664C33.0608 34.3101 28.9235 34.2798 28.1682 34.2723C27.3737 35.5415 24.8411 36.8899 25.7699 38.0794C22.1454 38.025 18.5197 38.011 14.9001 38.0935C15.2925 38.9976 15.3713 40.1319 15.6376 41.1281C15.5971 41.2082 15.5547 41.286 15.5143 41.3661C12.4157 41.4713 9.31855 41.6093 6.22598 41.8473C4.69045 41.9655 2.73956 41.3974 1.63196 42.309C1.56497 42.3641 1.5137 42.4296 1.4523 42.4883C1.20658 42.5072 0.960404 42.5168 0.71484 42.5398C1.05334 42.5639 1.2095 42.5738 1.3562 42.5842C1.3102 42.6318 1.25691 42.6748 1.21414 42.7245C0.638847 42.8834 -0.226209 43.2934 0.353414 44.4043C0.115944 45.241 0.0453986 46.1433 0.000362522 46.9702C-0.021064 47.3622 0.912699 47.0912 1.36874 47.1513C1.91801 47.1193 2.46741 47.0975 3.01708 47.0803C3.01408 47.0933 3.00536 47.1033 3.00455 47.1175C2.64078 52.3345 3.65815 51.4904 7.2455 51.4698C9.23707 51.4043 11.2167 51.3133 13.1975 51.1147C13.5049 51.0837 15.9009 50.7851 16.2622 50.7542C16.753 50.7108 17.247 50.6923 17.7393 50.6618C18.184 50.9301 18.6619 51.146 19.1599 51.326C18.9521 51.4735 18.8506 51.6355 18.9949 51.8409C19.4208 52.4472 20.3022 52.2767 21.3243 51.8677C22.6915 52.0848 24.1259 52.1296 25.5046 52.1287C25.4592 52.3101 25.4468 52.4967 25.5212 52.6952C25.7489 53.302 26.3401 53.6607 27.0651 53.9169C27.0611 54.4398 27.5989 54.5097 28.4878 54.288C28.6072 54.3131 28.7215 54.3453 28.8408 54.3697C28.9887 54.7443 29.1628 55.103 29.3777 55.4368C29.3044 55.7988 29.2327 56.159 29.1333 56.4952C29.0873 56.6501 29.5105 56.488 29.6995 56.4845C29.9029 56.4773 30.1061 56.4704 30.3095 56.4632C30.3915 56.5268 30.4647 56.5971 30.5539 56.655C31.8967 57.5259 33.9294 56.7809 35.618 56.8183C42.6122 56.9743 42.601 56.9187 49.7385 56.8627C51.8102 56.8188 53.8824 56.7884 55.9537 56.7313C61.8075 56.5699 67.6556 56.3007 73.5109 56.1684C79.0767 56.0427 84.6891 55.9703 90.2533 55.8879C99.4605 55.6573 108.672 55.7054 117.882 55.6872C117.895 55.6883 117.909 55.6897 117.922 55.6907C117.891 56.3519 118.959 56.5337 120.086 56.5643C121.19 57.2469 122.672 57.1432 124.216 56.907C124.419 57.2799 124.692 57.6112 125.056 57.8783C126.437 58.8907 128.699 58.0113 130.521 58.0772C130.757 58.0757 130.992 58.0747 131.228 58.0738C131.694 58.365 132.78 58.3362 133.68 58.3331C133.758 58.33 134.894 58.2864 135.74 58.2549C135.812 58.2976 135.876 58.3483 135.951 58.3881C136.117 58.4763 141.202 58.3418 143.434 58.2745C145.001 59.071 146.632 59.8172 148.317 60.4586C147.124 61.1383 145.938 61.8275 144.744 62.4704C144.111 62.8117 146.206 62.1742 146.95 62.0976C148.618 61.9258 150.289 61.774 151.96 61.627C153.465 62.0197 154.998 62.3113 156.554 62.4385C161.8 62.867 167.065 62.4289 172.331 61.9431C172.335 61.9486 172.336 61.9537 172.34 61.9592C172.99 62.9969 174.789 62.2897 176.38 61.8917C179.394 62.0793 182.724 61.4947 183.327 61.4727C189.223 61.1651 193.88 60.9954 199.645 60.4605C200.342 60.396 201.92 60.7044 201.74 60.1586C201.935 60.1456 202.129 60.1342 202.323 60.1214C202.499 60.1413 202.676 60.1593 202.852 60.18C204.933 60.3449 207.015 60.4817 209.098 60.6043C209.1 60.64 209.101 60.6791 209.102 60.7144C209.117 60.9941 209.468 60.8936 209.946 60.6541C210.149 60.6654 210.352 60.6733 210.554 60.6843C210.68 60.7878 210.845 60.8364 211.039 60.8477C211.606 61.0187 212.262 60.9277 212.932 60.7979C221.238 61.1961 229.558 61.3157 237.88 61.3626C237.787 61.9622 237.95 62.493 238.505 62.8435C242.12 65.128 247.506 63.2728 252.011 63.275C257.657 63.2773 263.3 63.1737 268.944 63.0548C269.313 63.0737 269.681 63.1016 270.051 63.1188C279.11 63.5453 288.184 63.82 297.26 63.9018C297.541 64.0839 297.858 64.2367 298.177 64.3866C298.213 64.5428 298.267 64.6982 298.35 64.8501C298.416 64.9708 298.495 65.0757 298.583 65.1679C297.765 65.7564 297.103 66.4328 296.794 67.313C296.177 69.0744 301.094 66.9164 303.243 66.7163C303.607 66.6826 304.474 66.6039 304.98 66.5583C305.195 66.6395 305.42 66.7127 305.625 66.8033C310.328 66.5551 315.029 66.2714 319.729 65.9794C322.529 67.1373 326.003 65.6512 329.13 65.4573C341.787 64.6723 347.763 64.1718 357.308 63.3709C357.781 63.3898 358.254 63.4143 358.727 63.4242C359.971 63.4503 361.622 64.1667 362.46 63.3851C362.521 63.3285 362.563 63.2805 362.621 63.2253C363.07 63.2122 363.418 63.112 363.584 62.8506C364.114 62.8067 364.251 62.7956 364.81 62.7494C368.668 62.3186 372.793 62.6595 376.541 61.9148C378.786 62.0794 381.036 62.2388 382.474 61.1566C384.896 61.1199 387.317 61.1127 389.74 61.2027C391.073 61.2299 392.406 61.2683 393.739 61.3022C393.799 61.3266 393.856 61.3547 393.923 61.3714C394.298 61.465 394.674 61.5381 395.053 61.6023C395.131 61.6525 395.21 61.6967 395.291 61.7372C395.279 61.7809 395.279 61.8296 395.267 61.8722C395.365 61.8649 395.463 61.8564 395.562 61.8491C396.29 62.1125 397.132 62.0516 398.014 61.8794C400.106 62.2422 402.299 61.9253 404.495 61.5704C410.572 61.7103 416.649 61.7828 422.727 61.5759C428.778 61.3687 428.471 61.4098 434.244 61.1018C434.846 61.0695 435.449 61.0369 436.051 61.0041C436.408 61.0254 436.764 61.0575 437.121 61.0769C442.634 61.4469 448.137 61.0309 453.644 60.855C459.384 60.6822 465.129 60.7429 470.861 60.4164C470.84 60.3615 470.836 60.3178 470.836 60.2761C471.38 60.3734 471.945 60.4987 472.215 60.2353C472.821 60.392 473.417 60.537 473.46 60.2123C473.534 59.6584 473.602 59.0789 473.64 58.5005C474.534 58.3798 475.426 58.274 476.312 58.2235C480.372 57.9919 484.434 57.7745 488.487 57.4652C491.21 57.2573 493.941 57.0739 496.633 56.6715C497.443 56.5505 499.462 56.437 498.929 55.9044C497.888 54.8648 496.561 54.0926 495.172 53.3776C495.811 52.8296 496.43 52.2673 496.996 51.6658C497.696 51.5647 498.215 51.3367 498.241 50.7886C498.243 50.7591 498.24 50.7327 498.241 50.7034C498.493 50.69 498.728 50.6835 498.981 50.6697C500.962 50.5618 503.111 50.9773 504.916 50.2755C505.181 50.1728 505.495 50.0074 505.81 49.8156C507.486 49.8256 509.676 49.8968 511.42 49.4889C512.573 49.6468 513.988 50.0447 514.196 49.2527C514.301 48.8536 514.361 48.4948 514.397 48.1553C514.71 48.1093 515.042 48.0699 515.389 48.0346C516.179 48.237 516.912 48.3661 517.146 47.8428C517.148 47.8377 517.15 47.8335 517.154 47.8287C519.573 47.4934 521.372 46.7075 517.722 43.1142C516.943 42.3467 515.349 42.8942 514.158 42.8337C512.357 42.7419 510.551 42.7122 508.747 42.6579C507.549 42.6218 506.229 42.2012 505.041 42.2033C504.961 42.0026 504.564 42.0569 504.16 42.1198C503.024 41.6942 501.93 41.3046 500.892 40.9656C502.551 40.2506 504.321 39.4165 506.261 38.4264C507.34 37.8758 503.749 38.3079 502.493 38.2488C500.29 38.3294 498.086 38.3945 495.883 38.4637C495.801 38.3117 495.715 38.1611 495.623 38.0126C500.589 37.6492 505.555 37.2963 510.519 36.9224C511.624 36.6299 514.798 36.591 513.834 36.0452C511.88 34.9379 510.051 34.0495 508.292 33.3141C509.626 32.7637 511.043 32.1551 512.656 31.4266C513.471 31.0587 510.812 31.4894 509.89 31.5207C507.923 31.6023 505.959 31.6993 503.992 31.7853C502.61 31.3895 501.256 31.103 499.908 30.8832C499.651 30.3911 499.262 29.9061 498.799 29.4982C500.787 29.3852 502.743 29.1857 504.605 28.7204C506.407 28.8656 508.248 29.0349 509.031 27.8858C509.479 27.2296 509.304 26.3625 508.82 25.5597C508.925 25.1895 508.962 24.8195 508.946 24.4623C513.323 24.2883 518.266 23.8035 522.172 22.3599C522.982 22.3167 523.792 22.2772 524.602 22.2338C526.035 22.1025 529.633 22.8966 528.903 21.8396C528.312 20.983 527.578 20.2716 526.741 19.6732C527.527 18.9185 528.149 18.0535 528.54 17.047C529 15.8619 525.605 16.9498 524.138 16.9014C522.044 16.9435 519.95 17.0058 517.856 17.0541C515.383 16.8935 512.795 17.0059 510.302 17.237C508.882 17.2748 507.463 17.303 506.044 17.3435C506.331 16.4203 506.407 15.3998 506.61 14.4758C506.678 14.169 505.699 14.4521 504.947 14.6267C504.9 14.5617 504.865 14.4921 504.811 14.4297C504.497 14.065 503.954 14.0686 503.364 14.1509C499.831 13.8612 496.299 13.5305 492.763 13.2719C492.727 12.8432 492.696 12.4146 492.69 11.9881C491.743 11.9018 490.798 11.792 489.849 11.7288C487.814 11.5941 480.565 11.2745 478.921 11.1979C470.972 10.8276 463.032 10.5332 455.075 10.326C449.498 10.242 443.917 10.1523 438.337 10.1254C439.78 9.95706 441.224 9.8003 442.672 9.66901C445.151 9.33068 448.854 9.37525 445.739 5.84238C445.89 5.04876 445.43 4.79641 444.705 4.77519C444.646 4.71969 444.603 4.67224 444.542 4.61537C443.704 3.83374 442.054 4.55197 440.81 4.57809C439.067 4.61451 437.327 4.72691 435.585 4.80181C433.7 4.90765 431.811 4.98806 429.928 5.11966C423.188 5.59135 425.298 5.60704 418.597 6.04303C416.225 6.19731 413.848 6.29136 411.475 6.42658C404.114 6.84573 402.369 6.97484 394.985 7.45471C393.769 7.5303 392.552 7.60377 391.335 7.68022C391.186 7.50896 390.701 7.62401 390.203 7.75125C390.179 7.75286 390.151 7.75318 390.126 7.75468C389.852 7.50546 389.293 7.62851 388.757 7.72445C388.76 7.6828 388.766 7.63909 388.782 7.58418C383.05 7.25771 377.305 7.32022 371.565 7.14736C366.059 6.97143 360.555 6.55368 355.042 6.92363C354.685 6.94321 354.331 6.9751 353.975 6.99644C353.372 6.9638 352.77 6.93092 352.167 6.89879C346.394 6.59073 346.701 6.63186 340.65 6.42467C334.572 6.21761 328.493 6.29011 322.416 6.42983C320.22 6.0751 318.028 5.75848 315.938 6.12085C315.054 5.94821 314.21 5.88763 313.481 6.15281C313.383 6.14559 313.286 6.137 313.188 6.12978C313.2 6.17249 313.205 6.22094 313.213 6.26472C313.133 6.30455 313.053 6.3486 312.977 6.39791C312.597 6.46206 312.219 6.53697 311.844 6.63054C311.777 6.64738 311.721 6.67545 311.66 6.69978C310.328 6.73345 308.996 6.77211 307.664 6.79922C305.241 6.88921 302.819 6.88032 300.398 6.84362C298.961 5.76162 296.713 5.9227 294.469 6.08717C290.719 5.34114 286.591 5.68182 282.732 5.25082C266.324 3.89466 263.042 3.53462 247.052 2.54287C243.924 2.34897 240.451 0.862926 237.65 2.02259C232.951 1.73059 228.252 1.44684 223.549 1.19866C223.344 1.28931 223.119 1.36254 222.903 1.4437C222.398 1.39807 221.53 1.31948 221.167 1.28567C219.555 1.13561 216.386 -0.117459 215.163 0.00894133L215.161 0.0084891ZM494.833 51.7541C494.457 51.7813 494.08 51.8031 493.704 51.8287C493.713 51.8218 493.725 51.816 493.733 51.8091C494.057 51.7686 494.436 51.7575 494.834 51.7541L494.833 51.7541Z"></path></mask><path d="M215.161 0.0084891C214.754 0.0506168 214.562 0.246448 214.716 0.686809C215.025 1.56659 215.686 2.2435 216.503 2.83186C216.415 2.92405 216.337 3.03074 216.27 3.15149C216.187 3.30378 216.134 3.45824 216.097 3.61495C215.779 3.76432 215.464 3.91675 215.184 4.09794C206.107 4.17976 197.033 4.45442 187.973 4.88102C187.605 4.8982 187.238 4.92607 186.87 4.94493C181.224 4.82608 175.578 4.72251 169.931 4.72475C165.426 4.72701 160.04 2.87177 156.425 5.15624C155.87 5.50713 155.708 6.03854 155.802 6.63895C147.121 6.68788 138.441 6.81251 129.778 7.25334C129.233 7.12442 128.755 7.08679 128.476 7.31551C125.907 7.45574 123.339 7.61645 120.774 7.8198C120.598 7.84042 120.421 7.85853 120.245 7.87839C120.05 7.86533 119.855 7.85399 119.66 7.8411C119.84 7.29563 118.264 7.60555 117.567 7.54102C111.802 7.00618 107.143 6.83464 101.247 6.5271C100.643 6.50511 97.3125 5.91973 94.298 6.10803C92.7081 5.70989 90.9115 5.00562 90.2618 6.04233C90.2587 6.04714 90.2565 6.05161 90.2533 6.05642C84.9867 5.57038 79.7224 5.13241 74.4761 5.561C72.9193 5.68817 71.3856 5.97966 69.88 6.3725C68.2092 6.22546 66.5398 6.07365 64.8723 5.90194C64.1279 5.82528 62.0327 5.18783 62.6662 5.52904C63.861 6.17239 65.0471 6.86255 66.2407 7.54268C64.5543 8.18453 62.9198 8.92955 61.3521 9.72679C59.1167 9.65944 54.0368 9.52323 53.8709 9.61137C53.796 9.65109 53.7319 9.70188 53.6599 9.74456C52.8145 9.71294 51.6804 9.66951 51.6021 9.66642C50.7012 9.66329 49.6153 9.6355 49.1495 9.92743C48.914 9.92643 48.6788 9.92365 48.4433 9.92194C46.6214 9.98791 44.3568 9.1084 42.976 10.1208C42.6122 10.3876 42.3404 10.7199 42.1383 11.0921C40.5937 10.8559 39.1098 10.7537 38.006 11.4366C36.2951 11.4831 34.6966 11.869 36.9342 13.7699C36.4685 14.0977 36.1678 14.383 36.0088 14.6293C35.5393 14.6322 35.0702 14.6277 34.6007 14.6311C31.0827 14.6565 27.5661 14.7119 24.0484 14.759C22.0935 14.7854 19.8378 13.986 18.1612 14.7892C17.1473 14.7988 16.1344 14.8277 15.1257 14.9046C15.597 15.7268 15.843 16.7194 16.2204 17.6126C16.0169 18.2548 15.82 18.9026 15.5143 19.4699C16.235 19.4816 16.9573 19.4748 17.6786 19.4734C17.7183 19.4974 17.748 19.5289 17.7894 19.5515C19.4909 20.4799 21.8325 19.6342 23.8541 19.6651C24.5568 19.6761 25.2594 19.6827 25.9621 19.6937C28.2982 19.8417 30.6285 20.0254 32.9586 20.2282C32.9218 20.2859 32.8926 20.3455 32.8584 20.4039C29.7715 20.6884 26.6528 21.0227 23.9649 21.3593C22.3049 21.5672 20.5988 21.6424 19.0052 22.0891C18.2823 22.2917 16.6624 22.7894 17.1835 23.2611C17.7746 23.7959 18.4627 24.2293 19.1933 24.6177C18.4721 24.6277 17.5046 24.6325 16.9955 24.6462C14.9631 24.7011 12.9402 24.8936 10.9119 25.0173C10.364 26.4116 7.75796 28.482 9.26776 29.1991C9.74496 29.4258 10.5017 29.6413 11.3862 29.849C11.37 29.8727 11.357 29.9003 11.3402 29.9236C11.4558 29.922 11.5714 29.9233 11.687 29.9218C17.4698 31.2059 29.9621 32.1094 38.1481 32.6031C38.0984 32.8334 38.0688 33.0642 38.0603 33.2938C37.9895 33.3449 37.9177 33.3948 37.8493 33.4501C36.6527 33.2494 36.5538 33.2881 37.5255 33.7129C37.2822 33.9323 37.0381 34.1517 36.7922 34.3664C33.0608 34.3101 28.9235 34.2798 28.1682 34.2723C27.3737 35.5415 24.8411 36.8899 25.7699 38.0794C22.1454 38.025 18.5197 38.011 14.9001 38.0935C15.2925 38.9976 15.3713 40.1319 15.6376 41.1281C15.5971 41.2082 15.5547 41.286 15.5143 41.3661C12.4157 41.4713 9.31855 41.6093 6.22598 41.8473C4.69045 41.9655 2.73956 41.3974 1.63196 42.309C1.56497 42.3641 1.5137 42.4296 1.4523 42.4883C1.20658 42.5072 0.960404 42.5168 0.71484 42.5398C1.05334 42.5639 1.2095 42.5738 1.3562 42.5842C1.3102 42.6318 1.25691 42.6748 1.21414 42.7245C0.638847 42.8834 -0.226209 43.2934 0.353414 44.4043C0.115944 45.241 0.0453986 46.1433 0.000362522 46.9702C-0.021064 47.3622 0.912699 47.0912 1.36874 47.1513C1.91801 47.1193 2.46741 47.0975 3.01708 47.0803C3.01408 47.0933 3.00536 47.1033 3.00455 47.1175C2.64078 52.3345 3.65815 51.4904 7.2455 51.4698C9.23707 51.4043 11.2167 51.3133 13.1975 51.1147C13.5049 51.0837 15.9009 50.7851 16.2622 50.7542C16.753 50.7108 17.247 50.6923 17.7393 50.6618C18.184 50.9301 18.6619 51.146 19.1599 51.326C18.9521 51.4735 18.8506 51.6355 18.9949 51.8409C19.4208 52.4472 20.3022 52.2767 21.3243 51.8677C22.6915 52.0848 24.1259 52.1296 25.5046 52.1287C25.4592 52.3101 25.4468 52.4967 25.5212 52.6952C25.7489 53.302 26.3401 53.6607 27.0651 53.9169C27.0611 54.4398 27.5989 54.5097 28.4878 54.288C28.6072 54.3131 28.7215 54.3453 28.8408 54.3697C28.9887 54.7443 29.1628 55.103 29.3777 55.4368C29.3044 55.7988 29.2327 56.159 29.1333 56.4952C29.0873 56.6501 29.5105 56.488 29.6995 56.4845C29.9029 56.4773 30.1061 56.4704 30.3095 56.4632C30.3915 56.5268 30.4647 56.5971 30.5539 56.655C31.8967 57.5259 33.9294 56.7809 35.618 56.8183C42.6122 56.9743 42.601 56.9187 49.7385 56.8627C51.8102 56.8188 53.8824 56.7884 55.9537 56.7313C61.8075 56.5699 67.6556 56.3007 73.5109 56.1684C79.0767 56.0427 84.6891 55.9703 90.2533 55.8879C99.4605 55.6573 108.672 55.7054 117.882 55.6872C117.895 55.6883 117.909 55.6897 117.922 55.6907C117.891 56.3519 118.959 56.5337 120.086 56.5643C121.19 57.2469 122.672 57.1432 124.216 56.907C124.419 57.2799 124.692 57.6112 125.056 57.8783C126.437 58.8907 128.699 58.0113 130.521 58.0772C130.757 58.0757 130.992 58.0747 131.228 58.0738C131.694 58.365 132.78 58.3362 133.68 58.3331C133.758 58.33 134.894 58.2864 135.74 58.2549C135.812 58.2976 135.876 58.3483 135.951 58.3881C136.117 58.4763 141.202 58.3418 143.434 58.2745C145.001 59.071 146.632 59.8172 148.317 60.4586C147.124 61.1383 145.938 61.8275 144.744 62.4704C144.111 62.8117 146.206 62.1742 146.95 62.0976C148.618 61.9258 150.289 61.774 151.96 61.627C153.465 62.0197 154.998 62.3113 156.554 62.4385C161.8 62.867 167.065 62.4289 172.331 61.9431C172.335 61.9486 172.336 61.9537 172.34 61.9592C172.99 62.9969 174.789 62.2897 176.38 61.8917C179.394 62.0793 182.724 61.4947 183.327 61.4727C189.223 61.1651 193.88 60.9954 199.645 60.4605C200.342 60.396 201.92 60.7044 201.74 60.1586C201.935 60.1456 202.129 60.1342 202.323 60.1214C202.499 60.1413 202.676 60.1593 202.852 60.18C204.933 60.3449 207.015 60.4817 209.098 60.6043C209.1 60.64 209.101 60.6791 209.102 60.7144C209.117 60.9941 209.468 60.8936 209.946 60.6541C210.149 60.6654 210.352 60.6733 210.554 60.6843C210.68 60.7878 210.845 60.8364 211.039 60.8477C211.606 61.0187 212.262 60.9277 212.932 60.7979C221.238 61.1961 229.558 61.3157 237.88 61.3626C237.787 61.9622 237.95 62.493 238.505 62.8435C242.12 65.128 247.506 63.2728 252.011 63.275C257.657 63.2773 263.3 63.1737 268.944 63.0548C269.313 63.0737 269.681 63.1016 270.051 63.1188C279.11 63.5453 288.184 63.82 297.26 63.9018C297.541 64.0839 297.858 64.2367 298.177 64.3866C298.213 64.5428 298.267 64.6982 298.35 64.8501C298.416 64.9708 298.495 65.0757 298.583 65.1679C297.765 65.7564 297.103 66.4328 296.794 67.313C296.177 69.0744 301.094 66.9164 303.243 66.7163C303.607 66.6826 304.474 66.6039 304.98 66.5583C305.195 66.6395 305.42 66.7127 305.625 66.8033C310.328 66.5551 315.029 66.2714 319.729 65.9794C322.529 67.1373 326.003 65.6512 329.13 65.4573C341.787 64.6723 347.763 64.1718 357.308 63.3709C357.781 63.3898 358.254 63.4143 358.727 63.4242C359.971 63.4503 361.622 64.1667 362.46 63.3851C362.521 63.3285 362.563 63.2805 362.621 63.2253C363.07 63.2122 363.418 63.112 363.584 62.8506C364.114 62.8067 364.251 62.7956 364.81 62.7494C368.668 62.3186 372.793 62.6595 376.541 61.9148C378.786 62.0794 381.036 62.2388 382.474 61.1566C384.896 61.1199 387.317 61.1127 389.74 61.2027C391.073 61.2299 392.406 61.2683 393.739 61.3022C393.799 61.3266 393.856 61.3547 393.923 61.3714C394.298 61.465 394.674 61.5381 395.053 61.6023C395.131 61.6525 395.21 61.6967 395.291 61.7372C395.279 61.7809 395.279 61.8296 395.267 61.8722C395.365 61.8649 395.463 61.8564 395.562 61.8491C396.29 62.1125 397.132 62.0516 398.014 61.8794C400.106 62.2422 402.299 61.9253 404.495 61.5704C410.572 61.7103 416.649 61.7828 422.727 61.5759C428.778 61.3687 428.471 61.4098 434.244 61.1018C434.846 61.0695 435.449 61.0369 436.051 61.0041C436.408 61.0254 436.764 61.0575 437.121 61.0769C442.634 61.4469 448.137 61.0309 453.644 60.855C459.384 60.6822 465.129 60.7429 470.861 60.4164C470.84 60.3615 470.836 60.3178 470.836 60.2761C471.38 60.3734 471.945 60.4987 472.215 60.2353C472.821 60.392 473.417 60.537 473.46 60.2123C473.534 59.6584 473.602 59.0789 473.64 58.5005C474.534 58.3798 475.426 58.274 476.312 58.2235C480.372 57.9919 484.434 57.7745 488.487 57.4652C491.21 57.2573 493.941 57.0739 496.633 56.6715C497.443 56.5505 499.462 56.437 498.929 55.9044C497.888 54.8648 496.561 54.0926 495.172 53.3776C495.811 52.8296 496.43 52.2673 496.996 51.6658C497.696 51.5647 498.215 51.3367 498.241 50.7886C498.243 50.7591 498.24 50.7327 498.241 50.7034C498.493 50.69 498.728 50.6835 498.981 50.6697C500.962 50.5618 503.111 50.9773 504.916 50.2755C505.181 50.1728 505.495 50.0074 505.81 49.8156C507.486 49.8256 509.676 49.8968 511.42 49.4889C512.573 49.6468 513.988 50.0447 514.196 49.2527C514.301 48.8536 514.361 48.4948 514.397 48.1553C514.71 48.1093 515.042 48.0699 515.389 48.0346C516.179 48.237 516.912 48.3661 517.146 47.8428C517.148 47.8377 517.15 47.8335 517.154 47.8287C519.573 47.4934 521.372 46.7075 517.722 43.1142C516.943 42.3467 515.349 42.8942 514.158 42.8337C512.357 42.7419 510.551 42.7122 508.747 42.6579C507.549 42.6218 506.229 42.2012 505.041 42.2033C504.961 42.0026 504.564 42.0569 504.16 42.1198C503.024 41.6942 501.93 41.3046 500.892 40.9656C502.551 40.2506 504.321 39.4165 506.261 38.4264C507.34 37.8758 503.749 38.3079 502.493 38.2488C500.29 38.3294 498.086 38.3945 495.883 38.4637C495.801 38.3117 495.715 38.1611 495.623 38.0126C500.589 37.6492 505.555 37.2963 510.519 36.9224C511.624 36.6299 514.798 36.591 513.834 36.0452C511.88 34.9379 510.051 34.0495 508.292 33.3141C509.626 32.7637 511.043 32.1551 512.656 31.4266C513.471 31.0587 510.812 31.4894 509.89 31.5207C507.923 31.6023 505.959 31.6993 503.992 31.7853C502.61 31.3895 501.256 31.103 499.908 30.8832C499.651 30.3911 499.262 29.9061 498.799 29.4982C500.787 29.3852 502.743 29.1857 504.605 28.7204C506.407 28.8656 508.248 29.0349 509.031 27.8858C509.479 27.2296 509.304 26.3625 508.82 25.5597C508.925 25.1895 508.962 24.8195 508.946 24.4623C513.323 24.2883 518.266 23.8035 522.172 22.3599C522.982 22.3167 523.792 22.2772 524.602 22.2338C526.035 22.1025 529.633 22.8966 528.903 21.8396C528.312 20.983 527.578 20.2716 526.741 19.6732C527.527 18.9185 528.149 18.0535 528.54 17.047C529 15.8619 525.605 16.9498 524.138 16.9014C522.044 16.9435 519.95 17.0058 517.856 17.0541C515.383 16.8935 512.795 17.0059 510.302 17.237C508.882 17.2748 507.463 17.303 506.044 17.3435C506.331 16.4203 506.407 15.3998 506.61 14.4758C506.678 14.169 505.699 14.4521 504.947 14.6267C504.9 14.5617 504.865 14.4921 504.811 14.4297C504.497 14.065 503.954 14.0686 503.364 14.1509C499.831 13.8612 496.299 13.5305 492.763 13.2719C492.727 12.8432 492.696 12.4146 492.69 11.9881C491.743 11.9018 490.798 11.792 489.849 11.7288C487.814 11.5941 480.565 11.2745 478.921 11.1979C470.972 10.8276 463.032 10.5332 455.075 10.326C449.498 10.242 443.917 10.1523 438.337 10.1254C439.78 9.95706 441.224 9.8003 442.672 9.66901C445.151 9.33068 448.854 9.37525 445.739 5.84238C445.89 5.04876 445.43 4.79641 444.705 4.77519C444.646 4.71969 444.603 4.67224 444.542 4.61537C443.704 3.83374 442.054 4.55197 440.81 4.57809C439.067 4.61451 437.327 4.72691 435.585 4.80181C433.7 4.90765 431.811 4.98806 429.928 5.11966C423.188 5.59135 425.298 5.60704 418.597 6.04303C416.225 6.19731 413.848 6.29136 411.475 6.42658C404.114 6.84573 402.369 6.97484 394.985 7.45471C393.769 7.5303 392.552 7.60377 391.335 7.68022C391.186 7.50896 390.701 7.62401 390.203 7.75125C390.179 7.75286 390.151 7.75318 390.126 7.75468C389.852 7.50546 389.293 7.62851 388.757 7.72445C388.76 7.6828 388.766 7.63909 388.782 7.58418C383.05 7.25771 377.305 7.32022 371.565 7.14736C366.059 6.97143 360.555 6.55368 355.042 6.92363C354.685 6.94321 354.331 6.9751 353.975 6.99644C353.372 6.9638 352.77 6.93092 352.167 6.89879C346.394 6.59073 346.701 6.63186 340.65 6.42467C334.572 6.21761 328.493 6.29011 322.416 6.42983C320.22 6.0751 318.028 5.75848 315.938 6.12085C315.054 5.94821 314.21 5.88763 313.481 6.15281C313.383 6.14559 313.286 6.137 313.188 6.12978C313.2 6.17249 313.205 6.22094 313.213 6.26472C313.133 6.30455 313.053 6.3486 312.977 6.39791C312.597 6.46206 312.219 6.53697 311.844 6.63054C311.777 6.64738 311.721 6.67545 311.66 6.69978C310.328 6.73345 308.996 6.77211 307.664 6.79922C305.241 6.88921 302.819 6.88032 300.398 6.84362C298.961 5.76162 296.713 5.9227 294.469 6.08717C290.719 5.34114 286.591 5.68182 282.732 5.25082C266.324 3.89466 263.042 3.53462 247.052 2.54287C243.924 2.34897 240.451 0.862926 237.65 2.02259C232.951 1.73059 228.252 1.44684 223.549 1.19866C223.344 1.28931 223.119 1.36254 222.903 1.4437C222.398 1.39807 221.53 1.31948 221.167 1.28567C219.555 1.13561 216.386 -0.117459 215.163 0.00894133L215.161 0.0084891ZM494.833 51.7541C494.457 51.7813 494.08 51.8031 493.704 51.8287C493.713 51.8218 493.725 51.816 493.733 51.8091C494.057 51.7686 494.436 51.7575 494.834 51.7541L494.833 51.7541Z" fill="url(#paint0_linear_1252_301)" stroke="#8C603C" stroke-width="2" mask="url(#path-1-inside-1_1252_301)"></path><defs><linearGradient id="paint0_linear_1252_301" x1="0" y1="34" x2="529" y2="34" gradientUnits="userSpaceOnUse"><stop stop-color="#8C603C"></stop><stop offset="0.515" stop-color="#E4D485"></stop><stop offset="1" stop-color="#8C603C"></stop></linearGradient></defs></svg>