<svg xmlns="http://www.w3.org/2000/svg" width="357" height="75" viewBox="0 0 357 75" fill="none"><mask id="path-1-inside-1_1376_318" fill="white"><path d="M145.203 0.00936298C144.928 0.0558273 144.799 0.271818 144.903 0.75751C145.111 1.72786 145.557 2.47444 146.109 3.12337C146.05 3.22506 145.997 3.34273 145.952 3.47591C145.896 3.64388 145.86 3.81423 145.835 3.98708C145.62 4.15182 145.408 4.31995 145.219 4.51979C139.093 4.61003 132.969 4.91297 126.855 5.38348C126.607 5.40243 126.359 5.43317 126.111 5.45397C122.301 5.32288 118.49 5.20865 114.679 5.21112C111.639 5.21362 108.005 3.16739 105.565 5.68703C105.19 6.07404 105.081 6.66016 105.144 7.32237C99.2859 7.37634 93.4279 7.5138 87.5817 8.00001C87.2141 7.85781 86.8914 7.81632 86.7033 8.06857C84.9696 8.22324 83.2365 8.40049 81.5051 8.62478C81.3864 8.64752 81.2673 8.6675 81.1484 8.6894C81.0169 8.675 80.8852 8.66249 80.7537 8.64828C80.8749 8.04665 79.8112 8.38848 79.341 8.3173C75.4503 7.7274 72.3064 7.5382 68.327 7.19901C67.92 7.17475 65.6722 6.52912 63.6378 6.7368C62.5648 6.29768 61.3523 5.5209 60.9139 6.66434C60.9118 6.66964 60.9104 6.67457 60.9082 6.67988C57.354 6.1438 53.8013 5.66075 50.2608 6.13345C49.2102 6.27372 48.1752 6.59521 47.1591 7.02849C46.0315 6.86632 44.9049 6.69888 43.7796 6.50949C43.2772 6.42494 41.8633 5.72187 42.2908 6.09821C43.0971 6.80778 43.8976 7.56898 44.7031 8.31913C43.565 9.02705 42.462 9.84877 41.404 10.7281C39.8954 10.6538 36.4672 10.5036 36.3552 10.6008C36.3047 10.6446 36.2614 10.7006 36.2128 10.7477C35.6423 10.7128 34.8769 10.6649 34.8241 10.6615C34.2161 10.658 33.4833 10.6274 33.1689 10.9494C33.01 10.9483 32.8513 10.9452 32.6924 10.9433C31.4629 11.0161 29.9346 10.046 29.0027 11.1627C28.7572 11.4569 28.5737 11.8234 28.4374 12.234C27.395 11.9734 26.3936 11.8607 25.6486 12.6139C24.4941 12.6652 23.4153 13.0908 24.9254 15.1874C24.6111 15.5489 24.4081 15.8636 24.3008 16.1353C23.984 16.1385 23.6674 16.1335 23.3506 16.1372C20.9764 16.1653 18.6032 16.2263 16.2293 16.2783C14.91 16.3074 13.3877 15.4258 12.2562 16.3116C11.572 16.3222 10.8885 16.3541 10.2077 16.4389C10.5258 17.3458 10.6918 18.4405 10.9465 19.4256C10.8091 20.134 10.6762 20.8485 10.4699 21.4742C10.9564 21.4871 11.4438 21.4795 11.9306 21.478C11.9573 21.5045 11.9774 21.5393 12.0053 21.5642C13.1536 22.5881 14.7339 21.6554 16.0982 21.6895C16.5724 21.7016 17.0465 21.7088 17.5207 21.721C19.0973 21.8842 20.6699 22.0869 22.2424 22.3105C22.2176 22.3741 22.1979 22.4399 22.1747 22.5044C20.0916 22.818 17.9869 23.1868 16.1729 23.558C15.0526 23.7873 13.9012 23.8703 12.8258 24.363C12.338 24.5865 11.2447 25.1354 11.5964 25.6556C11.9953 26.2455 12.4597 26.7235 12.9527 27.1519C12.466 27.1629 11.8131 27.1682 11.4696 27.1833C10.098 27.2439 8.73277 27.4562 7.364 27.5926C6.99422 29.1305 5.23552 31.414 6.25442 32.2049C6.57646 32.4549 7.08718 32.6926 7.68405 32.9217C7.67313 32.9479 7.6644 32.9783 7.65302 33.0039C7.73102 33.0022 7.80905 33.0036 7.88706 33.002C11.7896 34.4183 20.2202 35.4148 25.7445 35.9593C25.7111 36.2133 25.691 36.4679 25.6853 36.7212C25.6375 36.7775 25.5891 36.8325 25.5429 36.8935C24.7354 36.6722 24.6686 36.7149 25.3244 37.1834C25.1602 37.4253 24.9955 37.6673 24.8295 37.9041C22.3114 37.8421 19.5193 37.8086 19.0096 37.8003C18.4734 39.2002 16.7642 40.6873 17.391 41.9993C14.945 41.9393 12.4982 41.9239 10.0555 42.0148C10.3203 43.012 10.3734 44.2631 10.5531 45.3619C10.5259 45.4502 10.4972 45.536 10.47 45.6244C8.37881 45.7404 6.2887 45.8926 4.20165 46.1551C3.16539 46.2854 1.84881 45.6588 1.10134 46.6643C1.05613 46.7251 1.02154 46.7973 0.980093 46.8621C0.814269 46.8829 0.648136 46.8936 0.482415 46.9189C0.710854 46.9455 0.816238 46.9564 0.915244 46.9679C0.884196 47.0204 0.848235 47.0678 0.81937 47.1226C0.431131 47.2979 -0.152659 47.75 0.238504 48.9753C0.0782456 49.8982 0.0306376 50.8933 0.000244651 51.8053C-0.0142152 52.2378 0.615943 51.9388 0.923705 52.0051C1.29438 51.9698 1.66515 51.9457 2.0361 51.9268C2.03408 51.9412 2.02819 51.9522 2.02764 51.9679C1.78215 57.7219 2.46873 56.7909 4.88968 56.7681C6.23371 56.696 7.56966 56.5955 8.90642 56.3765C9.11391 56.3423 10.7309 56.013 10.9747 55.9789C11.3059 55.931 11.6393 55.9106 11.9715 55.877C12.2716 56.1729 12.5941 56.411 12.9302 56.6095C12.79 56.7722 12.7215 56.9509 12.8188 57.1775C13.1063 57.8462 13.7011 57.6581 14.3909 57.207C15.3136 57.4464 16.2816 57.4959 17.212 57.4949C17.1813 57.6949 17.173 57.9008 17.2232 58.1197C17.3768 58.789 17.7758 59.1846 18.2651 59.4671C18.2624 60.0439 18.6254 60.121 19.2252 59.8765C19.3058 59.9041 19.3829 59.9397 19.4635 59.9665C19.5633 60.3797 19.6808 60.7753 19.8258 61.1436C19.7763 61.5428 19.7279 61.9401 19.6609 62.3108C19.6298 62.4818 19.9154 62.3029 20.0429 62.2991C20.1802 62.2911 20.3174 62.2836 20.4546 62.2756C20.51 62.3458 20.5593 62.4233 20.6196 62.4871C21.5258 63.4477 22.8976 62.626 24.0371 62.6673C28.7572 62.8393 28.7496 62.778 33.5664 62.7163C34.9646 62.6677 36.363 62.6342 37.7608 62.5713C41.7113 62.3933 45.6579 62.0964 49.6094 61.9505C53.3655 61.8118 57.1531 61.732 60.9081 61.641C67.1218 61.3868 73.3381 61.4398 79.5537 61.4197C79.5625 61.4209 79.5717 61.4225 79.5805 61.4235C79.5594 62.1529 80.2804 62.3534 81.0411 62.3871C81.7859 63.1399 82.7863 63.0256 83.8284 62.7651C83.9649 63.1763 84.1493 63.5418 84.3952 63.8364C85.327 64.953 86.8539 63.983 88.0834 64.0558C88.2422 64.0541 88.4011 64.053 88.56 64.052C88.8747 64.3731 89.6076 64.3414 90.2152 64.3379C90.268 64.3345 91.0344 64.2865 91.6053 64.2518C91.6539 64.2988 91.6972 64.3548 91.7477 64.3986C91.8597 64.4959 95.291 64.3475 96.7978 64.2733C97.855 65.1518 98.9556 65.9749 100.093 66.6823C99.2877 67.432 98.4877 68.1921 97.6818 68.9012C97.2543 69.2776 98.6683 68.5745 99.1707 68.4899C100.296 68.3006 101.424 68.1331 102.552 67.9709C103.567 68.4041 104.601 68.7257 105.652 68.866C109.192 69.3386 112.745 68.8554 116.299 68.3196C116.302 68.3256 116.302 68.3313 116.305 68.3374C116.744 69.4818 117.958 68.7018 119.032 68.2629C121.065 68.4698 123.313 67.825 123.719 67.8007C127.699 67.4615 130.841 67.2743 134.732 66.6844C135.202 66.6132 136.268 66.9534 136.146 66.3514C136.277 66.337 136.408 66.3245 136.539 66.3103C136.658 66.3323 136.777 66.3522 136.896 66.375C138.3 66.5569 139.706 66.7077 141.112 66.843C141.113 66.8824 141.113 66.9255 141.114 66.9644C141.124 67.2729 141.361 67.1621 141.684 66.8979C141.821 66.9104 141.958 66.9191 142.094 66.9312C142.179 67.0454 142.291 67.099 142.421 67.1114C142.804 67.3 143.247 67.1997 143.699 67.0565C149.304 67.4957 154.919 67.6276 160.535 67.6794C160.473 68.3407 160.583 68.9261 160.957 69.3127C163.397 71.8324 167.032 69.7861 170.072 69.7886C173.882 69.7911 177.69 69.6768 181.499 69.5458C181.748 69.5666 181.997 69.5974 182.246 69.6163C188.359 70.0867 194.484 70.3897 200.608 70.48C200.798 70.6807 201.012 70.8493 201.227 71.0146C201.252 71.187 201.288 71.3584 201.344 71.5258C201.389 71.659 201.442 71.7747 201.501 71.8764C200.949 72.5255 200.502 73.2714 200.294 74.2422C199.877 76.1851 203.196 73.8048 204.646 73.5842C204.892 73.547 205.477 73.4602 205.818 73.4099C205.964 73.4994 206.116 73.5802 206.254 73.6801C209.427 73.4064 212.6 73.0935 215.772 72.7714C217.662 74.0485 220.006 72.4094 222.116 72.1956C230.658 71.3297 234.69 70.7777 241.132 69.8944C241.451 69.9152 241.77 69.9422 242.09 69.9531C242.929 69.9819 244.044 70.7721 244.609 69.91C244.65 69.8476 244.679 69.7947 244.718 69.7338C245.021 69.7194 245.256 69.6088 245.368 69.3205C245.725 69.2721 245.818 69.2598 246.195 69.2089C248.798 68.7337 251.582 69.1097 254.112 68.2884C255.627 68.4699 257.145 68.6457 258.116 67.4521C259.75 67.4116 261.384 67.4037 263.019 67.503C263.919 67.5329 264.818 67.5754 265.718 67.6127C265.759 67.6396 265.797 67.6707 265.842 67.6891C266.095 67.7923 266.349 67.8729 266.605 67.9437C266.657 67.9991 266.711 68.0479 266.765 68.0925C266.757 68.1407 266.757 68.1944 266.749 68.2414C266.815 68.2334 266.882 68.2239 266.948 68.216C267.44 68.5065 268.008 68.4393 268.603 68.2493C270.015 68.6495 271.494 68.3 272.977 67.9085C277.078 68.0628 281.179 68.1427 285.281 67.9146C289.364 67.6861 289.157 67.7314 293.053 67.3917C293.46 67.3561 293.866 67.3201 294.273 67.284C294.514 67.3075 294.754 67.3428 294.995 67.3643C298.715 67.7723 302.429 67.3135 306.145 67.1195C310.019 66.9288 313.896 66.9958 317.764 66.6357C317.75 66.5752 317.748 66.527 317.748 66.481C318.114 66.5883 318.496 66.7265 318.678 66.436C319.087 66.6088 319.489 66.7687 319.519 66.4106C319.568 65.7997 319.614 65.1605 319.64 64.5226C320.243 64.3895 320.845 64.2728 321.443 64.217C324.183 63.9616 326.924 63.7219 329.66 63.3808C331.497 63.1515 333.34 62.9492 335.157 62.5053C335.703 62.3719 337.066 62.2467 336.706 61.6593C336.003 60.5126 335.108 59.661 334.171 58.8723C334.602 58.2679 335.02 57.6477 335.402 56.9843C335.874 56.8728 336.225 56.6214 336.242 56.0168C336.243 55.9842 336.242 55.9551 336.242 55.9229C336.412 55.9081 336.571 55.9009 336.741 55.8857C338.078 55.7667 339.529 56.2249 340.747 55.4509C340.925 55.3376 341.137 55.1552 341.35 54.9437C342.481 54.9547 343.959 55.0333 345.136 54.5833C345.914 54.7575 346.869 55.1964 347.01 54.3229C347.08 53.8826 347.121 53.4869 347.145 53.1125C347.356 53.0618 347.58 53.0183 347.815 52.9793C348.348 53.2026 348.843 53.345 349 52.7678C349.002 52.7621 349.003 52.7576 349.006 52.7523C350.638 52.3825 351.852 51.5156 349.389 47.5525C348.863 46.7059 347.788 47.3097 346.984 47.243C345.768 47.1418 344.55 47.109 343.332 47.0491C342.524 47.0093 341.633 46.5454 340.831 46.5478C340.777 46.3264 340.509 46.3862 340.236 46.4557C339.47 45.9862 338.732 45.5565 338.031 45.1827C339.151 44.3941 340.345 43.4741 341.655 42.382C342.383 41.7748 339.959 42.2514 339.111 42.1862C337.625 42.2751 336.137 42.3469 334.65 42.4232C334.595 42.2556 334.537 42.0894 334.476 41.9257C337.826 41.5248 341.178 41.1356 344.528 40.7232C345.274 40.4007 347.415 40.3578 346.765 39.7557C345.447 38.5345 344.212 37.5546 343.025 36.7435C343.925 36.1364 344.881 35.4652 345.97 34.6617C346.52 34.2559 344.726 34.731 344.104 34.7655C342.776 34.8555 341.45 34.9625 340.123 35.0573C339.191 34.6208 338.277 34.3047 337.367 34.0624C337.194 33.5195 336.931 32.9847 336.619 32.5348C337.96 32.4101 339.281 32.1901 340.537 31.6769C341.753 31.8371 342.995 32.0238 343.524 30.7564C343.826 30.0327 343.708 29.0763 343.382 28.1908C343.452 27.7825 343.477 27.3745 343.466 26.9805C346.421 26.7886 349.756 26.2538 352.392 24.6616C352.939 24.614 353.485 24.5705 354.032 24.5226C354.999 24.3778 357.427 25.2536 356.935 24.0878C356.536 23.143 356.04 22.3584 355.476 21.6984C356.006 20.866 356.426 19.912 356.689 18.8018C357 17.4947 354.709 18.6947 353.719 18.6412C352.305 18.6877 350.893 18.7564 349.479 18.8097C347.811 18.6326 346.064 18.7566 344.381 19.0114C343.424 19.053 342.466 19.0842 341.508 19.1289C341.702 18.1106 341.753 16.9851 341.89 15.966C341.936 15.6276 341.275 15.9398 340.768 16.1324C340.736 16.0607 340.712 15.984 340.676 15.9151C340.464 15.5129 340.097 15.5168 339.699 15.6076C337.315 15.288 334.932 14.9233 332.545 14.6381C332.521 14.1652 332.5 13.6925 332.496 13.2221C331.857 13.127 331.219 13.0059 330.579 12.9362C329.205 12.7876 324.313 12.4351 323.203 12.3506C317.839 11.9422 312.481 11.6175 307.111 11.389C303.347 11.2963 299.581 11.1974 295.815 11.1677C296.789 10.9821 297.764 10.8092 298.741 10.6643C300.414 10.2912 302.913 10.3404 300.81 6.4438C300.912 5.56848 300.602 5.29016 300.113 5.26675C300.073 5.20554 300.044 5.1532 300.003 5.09048C299.437 4.22839 298.324 5.02056 297.485 5.04936C296.308 5.08953 295.134 5.2135 293.958 5.29612C292.686 5.41285 291.411 5.50153 290.14 5.64669C285.592 6.16693 287.016 6.18424 282.493 6.6651C280.893 6.83527 279.289 6.939 277.687 7.08814C272.72 7.55043 271.542 7.69284 266.559 8.2221C265.738 8.30548 264.917 8.38651 264.096 8.47083C263.995 8.28195 263.668 8.40883 263.332 8.54917C263.315 8.55095 263.297 8.5513 263.28 8.55296C263.095 8.27808 262.718 8.4138 262.356 8.51961C262.358 8.47368 262.362 8.42547 262.373 8.36491C258.505 8.00483 254.627 8.07377 250.754 7.88312C247.038 7.68908 243.324 7.22833 239.603 7.63636C239.362 7.65796 239.123 7.69313 238.883 7.71667C238.476 7.68066 238.07 7.64439 237.663 7.60896C233.767 7.26919 233.974 7.31455 229.89 7.08604C225.789 6.85766 221.686 6.93763 217.585 7.09172C216.103 6.70048 214.624 6.35127 213.213 6.75094C212.617 6.56053 212.047 6.49371 211.555 6.78618C211.489 6.77822 211.423 6.76875 211.358 6.76079C211.366 6.8079 211.369 6.86134 211.374 6.90962C211.32 6.95354 211.267 7.00213 211.215 7.05651C210.959 7.12727 210.704 7.2099 210.451 7.3131C210.405 7.33167 210.367 7.36263 210.327 7.38946C209.427 7.4266 208.528 7.46924 207.629 7.49914C205.994 7.5984 204.36 7.58858 202.726 7.54811C201.756 6.35473 200.239 6.53239 198.725 6.71379C196.194 5.89096 193.408 6.26671 190.804 5.79134C179.731 4.29558 177.516 3.89848 166.725 2.80464C164.614 2.59077 162.271 0.951756 160.38 2.2308C157.209 1.90874 154.037 1.59578 150.864 1.32206C150.726 1.42203 150.574 1.5028 150.428 1.59231C150.087 1.54198 149.502 1.45531 149.256 1.41802C148.168 1.25251 146.03 -0.12955 145.204 0.00986176L145.203 0.00936298ZM333.942 57.0818C333.688 57.1117 333.434 57.1358 333.181 57.164C333.186 57.1564 333.194 57.15 333.2 57.1424C333.418 57.0977 333.674 57.0855 333.943 57.0817L333.942 57.0818Z"></path></mask><path d="M145.203 0.00936298C144.928 0.0558273 144.799 0.271818 144.903 0.75751C145.111 1.72786 145.557 2.47444 146.109 3.12337C146.05 3.22506 145.997 3.34273 145.952 3.47591C145.896 3.64388 145.86 3.81423 145.835 3.98708C145.62 4.15182 145.408 4.31995 145.219 4.51979C139.093 4.61003 132.969 4.91297 126.855 5.38348C126.607 5.40243 126.359 5.43317 126.111 5.45397C122.301 5.32288 118.49 5.20865 114.679 5.21112C111.639 5.21362 108.005 3.16739 105.565 5.68703C105.19 6.07404 105.081 6.66016 105.144 7.32237C99.2859 7.37634 93.4279 7.5138 87.5817 8.00001C87.2141 7.85781 86.8914 7.81632 86.7033 8.06857C84.9696 8.22324 83.2365 8.40049 81.5051 8.62478C81.3864 8.64752 81.2673 8.6675 81.1484 8.6894C81.0169 8.675 80.8852 8.66249 80.7537 8.64828C80.8749 8.04665 79.8112 8.38848 79.341 8.3173C75.4503 7.7274 72.3064 7.5382 68.327 7.19901C67.92 7.17475 65.6722 6.52912 63.6378 6.7368C62.5648 6.29768 61.3523 5.5209 60.9139 6.66434C60.9118 6.66964 60.9104 6.67457 60.9082 6.67988C57.354 6.1438 53.8013 5.66075 50.2608 6.13345C49.2102 6.27372 48.1752 6.59521 47.1591 7.02849C46.0315 6.86632 44.9049 6.69888 43.7796 6.50949C43.2772 6.42494 41.8633 5.72187 42.2908 6.09821C43.0971 6.80778 43.8976 7.56898 44.7031 8.31913C43.565 9.02705 42.462 9.84877 41.404 10.7281C39.8954 10.6538 36.4672 10.5036 36.3552 10.6008C36.3047 10.6446 36.2614 10.7006 36.2128 10.7477C35.6423 10.7128 34.8769 10.6649 34.8241 10.6615C34.2161 10.658 33.4833 10.6274 33.1689 10.9494C33.01 10.9483 32.8513 10.9452 32.6924 10.9433C31.4629 11.0161 29.9346 10.046 29.0027 11.1627C28.7572 11.4569 28.5737 11.8234 28.4374 12.234C27.395 11.9734 26.3936 11.8607 25.6486 12.6139C24.4941 12.6652 23.4153 13.0908 24.9254 15.1874C24.6111 15.5489 24.4081 15.8636 24.3008 16.1353C23.984 16.1385 23.6674 16.1335 23.3506 16.1372C20.9764 16.1653 18.6032 16.2263 16.2293 16.2783C14.91 16.3074 13.3877 15.4258 12.2562 16.3116C11.572 16.3222 10.8885 16.3541 10.2077 16.4389C10.5258 17.3458 10.6918 18.4405 10.9465 19.4256C10.8091 20.134 10.6762 20.8485 10.4699 21.4742C10.9564 21.4871 11.4438 21.4795 11.9306 21.478C11.9573 21.5045 11.9774 21.5393 12.0053 21.5642C13.1536 22.5881 14.7339 21.6554 16.0982 21.6895C16.5724 21.7016 17.0465 21.7088 17.5207 21.721C19.0973 21.8842 20.6699 22.0869 22.2424 22.3105C22.2176 22.3741 22.1979 22.4399 22.1747 22.5044C20.0916 22.818 17.9869 23.1868 16.1729 23.558C15.0526 23.7873 13.9012 23.8703 12.8258 24.363C12.338 24.5865 11.2447 25.1354 11.5964 25.6556C11.9953 26.2455 12.4597 26.7235 12.9527 27.1519C12.466 27.1629 11.8131 27.1682 11.4696 27.1833C10.098 27.2439 8.73277 27.4562 7.364 27.5926C6.99422 29.1305 5.23552 31.414 6.25442 32.2049C6.57646 32.4549 7.08718 32.6926 7.68405 32.9217C7.67313 32.9479 7.6644 32.9783 7.65302 33.0039C7.73102 33.0022 7.80905 33.0036 7.88706 33.002C11.7896 34.4183 20.2202 35.4148 25.7445 35.9593C25.7111 36.2133 25.691 36.4679 25.6853 36.7212C25.6375 36.7775 25.5891 36.8325 25.5429 36.8935C24.7354 36.6722 24.6686 36.7149 25.3244 37.1834C25.1602 37.4253 24.9955 37.6673 24.8295 37.9041C22.3114 37.8421 19.5193 37.8086 19.0096 37.8003C18.4734 39.2002 16.7642 40.6873 17.391 41.9993C14.945 41.9393 12.4982 41.9239 10.0555 42.0148C10.3203 43.012 10.3734 44.2631 10.5531 45.3619C10.5259 45.4502 10.4972 45.536 10.47 45.6244C8.37881 45.7404 6.2887 45.8926 4.20165 46.1551C3.16539 46.2854 1.84881 45.6588 1.10134 46.6643C1.05613 46.7251 1.02154 46.7973 0.980093 46.8621C0.814269 46.8829 0.648136 46.8936 0.482415 46.9189C0.710854 46.9455 0.816238 46.9564 0.915244 46.9679C0.884196 47.0204 0.848235 47.0678 0.81937 47.1226C0.431131 47.2979 -0.152659 47.75 0.238504 48.9753C0.0782456 49.8982 0.0306376 50.8933 0.000244651 51.8053C-0.0142152 52.2378 0.615943 51.9388 0.923705 52.0051C1.29438 51.9698 1.66515 51.9457 2.0361 51.9268C2.03408 51.9412 2.02819 51.9522 2.02764 51.9679C1.78215 57.7219 2.46873 56.7909 4.88968 56.7681C6.23371 56.696 7.56966 56.5955 8.90642 56.3765C9.11391 56.3423 10.7309 56.013 10.9747 55.9789C11.3059 55.931 11.6393 55.9106 11.9715 55.877C12.2716 56.1729 12.5941 56.411 12.9302 56.6095C12.79 56.7722 12.7215 56.9509 12.8188 57.1775C13.1063 57.8462 13.7011 57.6581 14.3909 57.207C15.3136 57.4464 16.2816 57.4959 17.212 57.4949C17.1813 57.6949 17.173 57.9008 17.2232 58.1197C17.3768 58.789 17.7758 59.1846 18.2651 59.4671C18.2624 60.0439 18.6254 60.121 19.2252 59.8765C19.3058 59.9041 19.3829 59.9397 19.4635 59.9665C19.5633 60.3797 19.6808 60.7753 19.8258 61.1436C19.7763 61.5428 19.7279 61.9401 19.6609 62.3108C19.6298 62.4818 19.9154 62.3029 20.0429 62.2991C20.1802 62.2911 20.3174 62.2836 20.4546 62.2756C20.51 62.3458 20.5593 62.4233 20.6196 62.4871C21.5258 63.4477 22.8976 62.626 24.0371 62.6673C28.7572 62.8393 28.7496 62.778 33.5664 62.7163C34.9646 62.6677 36.363 62.6342 37.7608 62.5713C41.7113 62.3933 45.6579 62.0964 49.6094 61.9505C53.3655 61.8118 57.1531 61.732 60.9081 61.641C67.1218 61.3868 73.3381 61.4398 79.5537 61.4197C79.5625 61.4209 79.5717 61.4225 79.5805 61.4235C79.5594 62.1529 80.2804 62.3534 81.0411 62.3871C81.7859 63.1399 82.7863 63.0256 83.8284 62.7651C83.9649 63.1763 84.1493 63.5418 84.3952 63.8364C85.327 64.953 86.8539 63.983 88.0834 64.0558C88.2422 64.0541 88.4011 64.053 88.56 64.052C88.8747 64.3731 89.6076 64.3414 90.2152 64.3379C90.268 64.3345 91.0344 64.2865 91.6053 64.2518C91.6539 64.2988 91.6972 64.3548 91.7477 64.3986C91.8597 64.4959 95.291 64.3475 96.7978 64.2733C97.855 65.1518 98.9556 65.9749 100.093 66.6823C99.2877 67.432 98.4877 68.1921 97.6818 68.9012C97.2543 69.2776 98.6683 68.5745 99.1707 68.4899C100.296 68.3006 101.424 68.1331 102.552 67.9709C103.567 68.4041 104.601 68.7257 105.652 68.866C109.192 69.3386 112.745 68.8554 116.299 68.3196C116.302 68.3256 116.302 68.3313 116.305 68.3374C116.744 69.4818 117.958 68.7018 119.032 68.2629C121.065 68.4698 123.313 67.825 123.719 67.8007C127.699 67.4615 130.841 67.2743 134.732 66.6844C135.202 66.6132 136.268 66.9534 136.146 66.3514C136.277 66.337 136.408 66.3245 136.539 66.3103C136.658 66.3323 136.777 66.3522 136.896 66.375C138.3 66.5569 139.706 66.7077 141.112 66.843C141.113 66.8824 141.113 66.9255 141.114 66.9644C141.124 67.2729 141.361 67.1621 141.684 66.8979C141.821 66.9104 141.958 66.9191 142.094 66.9312C142.179 67.0454 142.291 67.099 142.421 67.1114C142.804 67.3 143.247 67.1997 143.699 67.0565C149.304 67.4957 154.919 67.6276 160.535 67.6794C160.473 68.3407 160.583 68.9261 160.957 69.3127C163.397 71.8324 167.032 69.7861 170.072 69.7886C173.882 69.7911 177.69 69.6768 181.499 69.5458C181.748 69.5666 181.997 69.5974 182.246 69.6163C188.359 70.0867 194.484 70.3897 200.608 70.48C200.798 70.6807 201.012 70.8493 201.227 71.0146C201.252 71.187 201.288 71.3584 201.344 71.5258C201.389 71.659 201.442 71.7747 201.501 71.8764C200.949 72.5255 200.502 73.2714 200.294 74.2422C199.877 76.1851 203.196 73.8048 204.646 73.5842C204.892 73.547 205.477 73.4602 205.818 73.4099C205.964 73.4994 206.116 73.5802 206.254 73.6801C209.427 73.4064 212.6 73.0935 215.772 72.7714C217.662 74.0485 220.006 72.4094 222.116 72.1956C230.658 71.3297 234.69 70.7777 241.132 69.8944C241.451 69.9152 241.77 69.9422 242.09 69.9531C242.929 69.9819 244.044 70.7721 244.609 69.91C244.65 69.8476 244.679 69.7947 244.718 69.7338C245.021 69.7194 245.256 69.6088 245.368 69.3205C245.725 69.2721 245.818 69.2598 246.195 69.2089C248.798 68.7337 251.582 69.1097 254.112 68.2884C255.627 68.4699 257.145 68.6457 258.116 67.4521C259.75 67.4116 261.384 67.4037 263.019 67.503C263.919 67.5329 264.818 67.5754 265.718 67.6127C265.759 67.6396 265.797 67.6707 265.842 67.6891C266.095 67.7923 266.349 67.8729 266.605 67.9437C266.657 67.9991 266.711 68.0479 266.765 68.0925C266.757 68.1407 266.757 68.1944 266.749 68.2414C266.815 68.2334 266.882 68.2239 266.948 68.216C267.44 68.5065 268.008 68.4393 268.603 68.2493C270.015 68.6495 271.494 68.3 272.977 67.9085C277.078 68.0628 281.179 68.1427 285.281 67.9146C289.364 67.6861 289.157 67.7314 293.053 67.3917C293.46 67.3561 293.866 67.3201 294.273 67.284C294.514 67.3075 294.754 67.3428 294.995 67.3643C298.715 67.7723 302.429 67.3135 306.145 67.1195C310.019 66.9288 313.896 66.9958 317.764 66.6357C317.75 66.5752 317.748 66.527 317.748 66.481C318.114 66.5883 318.496 66.7265 318.678 66.436C319.087 66.6088 319.489 66.7687 319.519 66.4106C319.568 65.7997 319.614 65.1605 319.64 64.5226C320.243 64.3895 320.845 64.2728 321.443 64.217C324.183 63.9616 326.924 63.7219 329.66 63.3808C331.497 63.1515 333.34 62.9492 335.157 62.5053C335.703 62.3719 337.066 62.2467 336.706 61.6593C336.003 60.5126 335.108 59.661 334.171 58.8723C334.602 58.2679 335.02 57.6477 335.402 56.9843C335.874 56.8728 336.225 56.6214 336.242 56.0168C336.243 55.9842 336.242 55.9551 336.242 55.9229C336.412 55.9081 336.571 55.9009 336.741 55.8857C338.078 55.7667 339.529 56.2249 340.747 55.4509C340.925 55.3376 341.137 55.1552 341.35 54.9437C342.481 54.9547 343.959 55.0333 345.136 54.5833C345.914 54.7575 346.869 55.1964 347.01 54.3229C347.08 53.8826 347.121 53.4869 347.145 53.1125C347.356 53.0618 347.58 53.0183 347.815 52.9793C348.348 53.2026 348.843 53.345 349 52.7678C349.002 52.7621 349.003 52.7576 349.006 52.7523C350.638 52.3825 351.852 51.5156 349.389 47.5525C348.863 46.7059 347.788 47.3097 346.984 47.243C345.768 47.1418 344.55 47.109 343.332 47.0491C342.524 47.0093 341.633 46.5454 340.831 46.5478C340.777 46.3264 340.509 46.3862 340.236 46.4557C339.47 45.9862 338.732 45.5565 338.031 45.1827C339.151 44.3941 340.345 43.4741 341.655 42.382C342.383 41.7748 339.959 42.2514 339.111 42.1862C337.625 42.2751 336.137 42.3469 334.65 42.4232C334.595 42.2556 334.537 42.0894 334.476 41.9257C337.826 41.5248 341.178 41.1356 344.528 40.7232C345.274 40.4007 347.415 40.3578 346.765 39.7557C345.447 38.5345 344.212 37.5546 343.025 36.7435C343.925 36.1364 344.881 35.4652 345.97 34.6617C346.52 34.2559 344.726 34.731 344.104 34.7655C342.776 34.8555 341.45 34.9625 340.123 35.0573C339.191 34.6208 338.277 34.3047 337.367 34.0624C337.194 33.5195 336.931 32.9847 336.619 32.5348C337.96 32.4101 339.281 32.1901 340.537 31.6769C341.753 31.8371 342.995 32.0238 343.524 30.7564C343.826 30.0327 343.708 29.0763 343.382 28.1908C343.452 27.7825 343.477 27.3745 343.466 26.9805C346.421 26.7886 349.756 26.2538 352.392 24.6616C352.939 24.614 353.485 24.5705 354.032 24.5226C354.999 24.3778 357.427 25.2536 356.935 24.0878C356.536 23.143 356.04 22.3584 355.476 21.6984C356.006 20.866 356.426 19.912 356.689 18.8018C357 17.4947 354.709 18.6947 353.719 18.6412C352.305 18.6877 350.893 18.7564 349.479 18.8097C347.811 18.6326 346.064 18.7566 344.381 19.0114C343.424 19.053 342.466 19.0842 341.508 19.1289C341.702 18.1106 341.753 16.9851 341.89 15.966C341.936 15.6276 341.275 15.9398 340.768 16.1324C340.736 16.0607 340.712 15.984 340.676 15.9151C340.464 15.5129 340.097 15.5168 339.699 15.6076C337.315 15.288 334.932 14.9233 332.545 14.6381C332.521 14.1652 332.5 13.6925 332.496 13.2221C331.857 13.127 331.219 13.0059 330.579 12.9362C329.205 12.7876 324.313 12.4351 323.203 12.3506C317.839 11.9422 312.481 11.6175 307.111 11.389C303.347 11.2963 299.581 11.1974 295.815 11.1677C296.789 10.9821 297.764 10.8092 298.741 10.6643C300.414 10.2912 302.913 10.3404 300.81 6.4438C300.912 5.56848 300.602 5.29016 300.113 5.26675C300.073 5.20554 300.044 5.1532 300.003 5.09048C299.437 4.22839 298.324 5.02056 297.485 5.04936C296.308 5.08953 295.134 5.2135 293.958 5.29612C292.686 5.41285 291.411 5.50153 290.14 5.64669C285.592 6.16693 287.016 6.18424 282.493 6.6651C280.893 6.83527 279.289 6.939 277.687 7.08814C272.72 7.55043 271.542 7.69284 266.559 8.2221C265.738 8.30548 264.917 8.38651 264.096 8.47083C263.995 8.28195 263.668 8.40883 263.332 8.54917C263.315 8.55095 263.297 8.5513 263.28 8.55296C263.095 8.27808 262.718 8.4138 262.356 8.51961C262.358 8.47368 262.362 8.42547 262.373 8.36491C258.505 8.00483 254.627 8.07377 250.754 7.88312C247.038 7.68908 243.324 7.22833 239.603 7.63636C239.362 7.65796 239.123 7.69313 238.883 7.71667C238.476 7.68066 238.07 7.64439 237.663 7.60896C233.767 7.26919 233.974 7.31455 229.89 7.08604C225.789 6.85766 221.686 6.93763 217.585 7.09172C216.103 6.70048 214.624 6.35127 213.213 6.75094C212.617 6.56053 212.047 6.49371 211.555 6.78618C211.489 6.77822 211.423 6.76875 211.358 6.76079C211.366 6.8079 211.369 6.86134 211.374 6.90962C211.32 6.95354 211.267 7.00213 211.215 7.05651C210.959 7.12727 210.704 7.2099 210.451 7.3131C210.405 7.33167 210.367 7.36263 210.327 7.38946C209.427 7.4266 208.528 7.46924 207.629 7.49914C205.994 7.5984 204.36 7.58858 202.726 7.54811C201.756 6.35473 200.239 6.53239 198.725 6.71379C196.194 5.89096 193.408 6.26671 190.804 5.79134C179.731 4.29558 177.516 3.89848 166.725 2.80464C164.614 2.59077 162.271 0.951756 160.38 2.2308C157.209 1.90874 154.037 1.59578 150.864 1.32206C150.726 1.42203 150.574 1.5028 150.428 1.59231C150.087 1.54198 149.502 1.45531 149.256 1.41802C148.168 1.25251 146.03 -0.12955 145.204 0.00986176L145.203 0.00936298ZM333.942 57.0818C333.688 57.1117 333.434 57.1358 333.181 57.164C333.186 57.1564 333.194 57.15 333.2 57.1424C333.418 57.0977 333.674 57.0855 333.943 57.0817L333.942 57.0818Z" fill="url(#paint0_linear_1376_318)" stroke="#8C603C" stroke-width="2" mask="url(#path-1-inside-1_1376_318)"></path><defs><linearGradient id="paint0_linear_1376_318" x1="0" y1="37.5" x2="357" y2="37.5" gradientUnits="userSpaceOnUse"><stop stop-color="#8C603C"></stop><stop offset="0.515" stop-color="#E4D485"></stop><stop offset="1" stop-color="#8C603C"></stop></linearGradient></defs></svg>