<svg xmlns="http://www.w3.org/2000/svg" width="13" height="19" viewBox="0 0 13 19" fill="none"><path d="M4.14644 11.5854L6.33268 13.4237C6.33268 13.4237 6.3368 13.4526 6.34504 13.5103C6.35328 13.5679 6.3574 13.6139 6.3574 13.648C6.3574 14.5745 6.06778 15.3027 5.48855 15.8325C4.90932 16.3623 4.13937 16.6272 3.1787 16.6272C2.11913 16.6272 1.32446 16.2628 0.794675 15.534C0.264892 14.8065 0 13.8876 0 12.7774C0.0329643 12.8104 0.124205 12.881 0.273721 12.9893C0.422061 13.0964 0.558627 13.1918 0.68342 13.2754C0.807036 13.3578 0.935362 13.4402 1.0684 13.5226C1.20025 13.6062 1.29915 13.648 1.36507 13.648C1.54756 13.648 1.67176 13.565 1.73769 13.399C2.16858 12.2735 2.9715 11.669 4.14644 11.5854ZM11.3744 3.91235C11.7382 3.91235 12.0526 4.02832 12.3175 4.26024C12.5824 4.49217 12.7148 4.79003 12.7148 5.15381C12.7148 5.46815 12.5988 5.84901 12.3669 6.29638C10.96 8.92881 9.9252 10.6465 9.26238 11.4494C8.60074 12.2523 7.88906 12.6538 7.12735 12.6538C6.96135 12.6538 6.77946 12.6291 6.58167 12.5796L4.99232 11.264C4.84281 10.9485 4.76805 10.6253 4.76805 10.2945C4.76805 10.1461 4.77217 10.0137 4.78041 9.89714C4.78865 9.78176 4.82574 9.65756 4.89167 9.52452C4.95877 9.39267 5.02529 9.2767 5.09122 9.17663C5.15715 9.07774 5.27311 8.93293 5.43911 8.74221C5.60393 8.55149 5.76934 8.38196 5.93534 8.23362C6.10134 8.0841 6.34563 7.86454 6.66821 7.57492C6.99078 7.28531 7.30512 7.01217 7.61122 6.75552C7.91732 6.49887 8.33114 6.13862 8.85268 5.67477C9.37422 5.21209 9.8834 4.75706 10.3802 4.30969C10.6781 4.0448 11.0095 3.91235 11.3744 3.91235Z" fill="white"></path></svg>