<svg xmlns="http://www.w3.org/2000/svg" width="13" height="10" viewBox="0 0 13 10" fill="none"><path d="M7.83608 0.987706C8.73397 1.64618 9.18291 2.43764 9.18291 3.36209C9.18291 4.28654 8.73397 5.07799 7.83608 5.73647C6.9382 6.39494 5.85666 6.72417 4.59145 6.72417C3.70822 6.72417 2.89144 6.54885 2.14111 6.19819C1.50799 6.54885 0.853409 6.72417 0.177379 6.72417C0.103079 6.72417 0.0512778 6.68931 0.0219762 6.61957C-0.0073254 6.54885 0 6.48559 0.0439524 6.4298C0.352666 6.14988 0.617426 5.77183 0.838235 5.29566C0.279412 4.72087 0 4.07634 0 3.36209C0 2.43764 0.448942 1.64618 1.34683 0.987706C2.24471 0.329235 3.32625 0 4.59145 0C5.85666 0 6.9382 0.329235 7.83608 0.987706ZM11.8766 7.98533C12.0974 8.4615 12.3621 8.83955 12.6708 9.11947C12.7148 9.17526 12.7221 9.23851 12.6928 9.30924C12.6635 9.37898 12.6122 9.41384 12.539 9.41384C11.8619 9.41384 11.2068 9.23851 10.5737 8.88786C9.82336 9.23851 9.00658 9.41384 8.12334 9.41384C7.18151 9.41384 6.3281 9.22457 5.56312 8.84602C4.79814 8.46847 4.23879 7.97138 3.88508 7.35475C4.14984 7.38264 4.3853 7.39659 4.59145 7.39659C6.04816 7.39659 7.29557 7.00061 8.33369 6.20865C9.37075 5.41769 9.88929 4.46883 9.88929 3.36209C9.88929 3.20768 9.88196 3.06772 9.86731 2.9422C10.7066 3.19423 11.391 3.60366 11.9205 4.17048C12.45 4.7383 12.7148 5.36539 12.7148 6.05175C12.7148 6.76601 12.4354 7.41054 11.8766 7.98533Z" fill="white"></path></svg>