<svg xmlns="http://www.w3.org/2000/svg" width="40" height="40" viewBox="0 0 40 40" fill="none"><g clip-path="url(#clip0_1252_308)"><path d="M31.6668 5.76829C31.6718 5.44996 31.8951 5.17496 32.2051 5.10329L34.5684 4.55662L35.1584 2.19329C35.3134 1.57496 36.3518 1.57496 36.5068 2.19329L37.1001 4.56662L39.4734 5.15996C39.7834 5.23662 40.0001 5.51496 40.0001 5.83329C40.0001 6.15162 39.7834 6.42996 39.4734 6.50662L37.1001 7.09996L36.5068 9.47329C36.4301 9.78329 36.1518 9.99996 35.8334 9.99996C35.5151 9.99996 35.2368 9.78329 35.1601 9.47329L34.5651 7.09162L32.1818 6.44996C31.8734 6.36662 31.6601 6.08662 31.6668 5.76829ZM11.1534 11.385L13.6368 8.12996L11.2901 4.51996C10.9801 4.02829 11.0101 3.40329 11.3551 2.95329C11.6934 2.50662 12.2818 2.30996 12.8201 2.47162L16.9484 3.79162L19.4334 0.536623C19.7834 0.0782893 20.3851 -0.115044 20.9301 0.0632893C21.4684 0.229956 21.8534 0.721623 21.8818 1.28162L22.0134 5.45996L26.0601 6.86662C26.6068 7.05496 26.9751 7.56996 26.9768 8.14996C26.9784 8.72996 26.6151 9.24829 26.0718 9.44162L22.8851 10.575L39.6318 21.8066C40.0134 22.0616 40.1168 22.58 39.8601 22.9616C39.7001 23.2016 39.4368 23.3316 39.1668 23.3316C39.0068 23.3316 38.8468 23.2866 38.7034 23.19L21.7868 11.845L21.5668 15.385C21.5501 15.6533 21.4551 15.91 21.2901 16.125C21.1101 16.3633 20.8634 16.5316 20.5751 16.6116C20.4534 16.6466 20.3301 16.6633 20.2051 16.6633C19.7684 16.6633 19.3468 16.4533 19.0868 16.0833L16.5951 12.5683L12.5418 13.5416C11.9734 13.6633 11.3901 13.425 11.0834 12.945C10.7768 12.4633 10.8051 11.835 11.1518 11.3833L11.1534 11.385ZM12.9934 11.7216L16.7568 10.8183C17.1134 10.71 17.4734 10.9233 17.6301 11.1466L19.9568 14.43L20.2134 10.295C20.2734 9.74496 20.7468 9.56829 20.7668 9.56162L24.7034 8.16162L20.9251 6.84829C20.5984 6.73496 20.3768 6.43162 20.3668 6.08662L20.2434 2.22162L17.9168 5.26996C17.7034 5.54996 17.3351 5.66496 17.0001 5.55829L13.1518 4.32829L15.3534 7.71329C15.5451 8.00829 15.5318 8.39329 15.3184 8.67329L12.9934 11.7216ZM0.515087 11.4516L2.89842 12.0933L3.49342 14.475C3.57009 14.785 3.84842 15.0016 4.16675 15.0016C4.48509 15.0016 4.76342 14.785 4.84009 14.475L5.43342 12.1016L7.80675 11.5083C8.11675 11.4316 8.33342 11.1533 8.33342 10.835C8.33342 10.5166 8.11675 10.2383 7.80675 10.1616L5.43342 9.56829L4.84009 7.19496C4.68509 6.57662 3.64675 6.57662 3.49175 7.19496L2.90175 9.55829L0.53842 10.105C0.22842 10.175 0.00508673 10.45 8.67263e-05 10.7683C-0.00491327 11.0866 0.206753 11.3683 0.51342 11.45L0.515087 11.4516ZM28.3351 33.335H39.1684C39.6284 33.335 40.0018 32.9616 40.0018 32.5016C40.0018 32.0416 39.6284 31.6683 39.1684 31.6683H28.3351C21.7618 31.6683 20.2951 36.3866 20.0018 38.335C19.7084 36.3866 18.2418 31.6683 11.6684 31.6683H0.83342C0.37342 31.6683 8.67263e-05 32.0416 8.67263e-05 32.5016C8.67263e-05 32.9616 0.37342 33.335 0.83342 33.335H11.6668C15.9734 33.335 17.4918 35.7483 18.0318 37.475C16.8518 36.1666 14.8951 35.0016 11.6668 35.0016H0.83342C0.37342 35.0016 8.67263e-05 35.375 8.67263e-05 35.835C8.67263e-05 36.295 0.37342 36.6683 0.83342 36.6683H11.6668C13.7718 36.6683 15.4034 37.23 16.5468 38.335H0.83342C0.37342 38.335 8.67263e-05 38.7083 8.67263e-05 39.1683C8.67263e-05 39.6283 0.37342 40.0016 0.83342 40.0016H39.1668C39.6268 40.0016 40.0001 39.6283 40.0001 39.1683C40.0001 38.7083 39.6268 38.335 39.1668 38.335H23.4534C24.5951 37.23 26.2268 36.6683 28.3334 36.6683H39.1668C39.6268 36.6683 40.0001 36.295 40.0001 35.835C40.0001 35.375 39.6268 35.0016 39.1668 35.0016H28.3334C25.1051 35.0016 23.1501 36.1666 21.9684 37.475C22.5084 35.75 24.0284 33.335 28.3351 33.335ZM20.4351 22.9016L19.8418 20.5283C19.6868 19.91 18.6484 19.91 18.4934 20.5283L17.9034 22.8916L15.5401 23.4383C15.2301 23.51 15.0068 23.785 15.0018 24.1033C14.9968 24.4216 15.2084 24.7033 15.5151 24.785L17.8984 25.4266L18.4934 27.8083C18.5701 28.1183 18.8484 28.335 19.1668 28.335C19.4851 28.335 19.7634 28.1183 19.8401 27.8083L20.4334 25.435L22.8068 24.8416C23.1168 24.765 23.3334 24.4866 23.3334 24.1683C23.3334 23.85 23.1168 23.5716 22.8068 23.495L20.4351 22.9016Z" fill="#FFB581"></path></g><defs><clipPath id="clip0_1252_308"><rect width="40" height="40" fill="white"></rect></clipPath></defs></svg>