<svg xmlns="http://www.w3.org/2000/svg" width="71" height="71" viewBox="0 0 71 71" fill="none"><path d="M35.2518 0.44043L37.0871 3.59502L39.2702 0.670212L40.734 4.01345L43.2362 1.35656L44.3093 4.84487L47.0981 2.49052L47.7666 6.07843L50.8056 4.05732L51.0608 7.69805L54.3103 6.03652L54.1488 9.68261L57.5666 8.40233L56.9905 12.0063L60.5319 11.1239L59.5488 14.6387L63.1677 14.1658L61.7903 17.5456L65.4396 17.4883L63.6859 20.689L67.3179 21.0481L65.2108 24.0281L68.7782 24.7988L66.3451 27.5192L69.8014 28.6915L67.0741 31.1168L70.3742 32.6755L67.3882 34.7741L70.4891 36.6988L67.2834 38.4434L70.1447 40.709L66.761 42.0768L69.3454 44.6538L65.8278 45.627L68.1016 48.4818L64.4961 49.0476L66.4296 52.143L62.783 52.2942L64.3511 55.5898L60.7111 55.3243L61.8933 58.7772L58.3073 58.0984L59.0881 61.6636L55.6029 60.5805L55.9722 64.2115L52.6331 62.7382L52.5862 66.3875L49.4368 64.5432L48.9742 68.1634L46.0556 65.9721L45.1833 69.516L42.5335 67.0063L41.263 70.4276L38.9165 67.6322L37.2642 70.8864L35.2518 67.8418L33.2393 70.8864L31.587 67.6322L29.2405 70.4276L27.97 67.0063L25.3202 69.516L24.4479 65.9721L21.5293 68.1634L21.0667 64.5432L17.9173 66.3875L17.8704 62.7382L14.5313 64.2115L14.9007 60.5805L11.4154 61.6636L12.1963 58.0984L8.61026 58.7772L9.79241 55.3243L6.15242 55.5898L7.72048 52.2942L4.07394 52.143L6.00745 49.0476L2.40191 48.4818L4.67567 45.627L1.15813 44.6538L3.74249 42.0768L0.35881 40.709L3.22009 38.4434L0.0143776 36.6988L3.11526 34.7741L0.129314 32.6755L3.42939 31.1168L0.702126 28.6915L4.15837 27.5192L1.72534 24.7988L5.2927 24.0281L3.18563 21.0481L6.81759 20.689L5.06395 17.4883L8.71316 17.5456L7.33581 14.1658L10.9547 14.6387L9.9716 11.1239L13.513 12.0063L12.937 8.40233L16.3547 9.68261L16.1932 6.03652L19.4427 7.69805L19.6979 4.05732L22.7369 6.07843L23.4054 2.49052L26.1942 4.84487L27.2673 1.35656L29.7695 4.01345L31.2334 0.670212L33.4164 3.59502L35.2518 0.44043Z" fill="#63B76A"></path><path d="M17.8392 28.4623L19.6015 36.7824L22.1803 36.2361L22.7918 39.123L13.1256 41.1706L12.514 38.2837L15.9686 37.5519L15.1819 33.8379L11.8571 34.5421L11.2524 31.6877L13.5879 31.193C14.4799 31.004 14.7808 30.5844 14.8208 29.8134L14.8225 29.1013L17.8392 28.4623ZM22.4351 33.3521C22.0435 31.5032 22.179 29.9832 22.8418 28.7922C23.5174 27.5815 24.5787 26.8313 26.0383 26.5221C27.5142 26.2095 28.7885 26.4649 29.8807 27.3012C30.9857 28.1178 31.7259 29.4523 32.1176 31.3012C32.5126 33.1663 32.3771 34.6863 31.698 35.8808C31.0352 37.0719 29.974 37.822 28.4981 38.1346C27.0222 38.4472 25.748 38.1918 24.6592 37.3718C23.5704 36.5517 22.8302 35.2173 22.4351 33.3521ZM27.8729 35.1828C28.7162 35.0042 28.9209 34.1305 28.4846 32.0707C28.0414 29.9785 27.5035 29.279 26.6602 29.4577C25.8168 29.6363 25.6249 30.4904 26.0681 32.5826C26.5044 34.6423 27.0457 35.358 27.8729 35.1828ZM33.1894 31.0741C32.7977 29.2252 32.9333 27.7052 33.5961 26.5142C34.2717 25.3035 35.3329 24.5533 36.7926 24.2441C38.2685 23.9315 39.5427 24.1869 40.635 25.0232C41.74 25.8398 42.4802 27.1743 42.8718 29.0232C43.2669 30.8883 43.1313 32.4083 42.4523 33.6028C41.7895 34.7938 40.7283 35.544 39.2524 35.8566C37.7765 36.1692 36.5023 35.9138 35.4135 35.0938C34.3247 34.2737 33.5845 32.9393 33.1894 31.0741ZM38.6271 32.9048C39.4705 32.7262 39.6752 31.8525 39.2389 29.7927C38.7957 27.7005 38.2578 27.001 37.4144 27.1797C36.5711 27.3583 36.3792 28.2124 36.8223 30.3046C37.2586 32.3643 37.8 33.08 38.6271 32.9048ZM46.4152 28.5437C44.6636 28.9148 43.3586 27.9541 42.9566 26.0566C42.5581 24.1752 43.3616 22.768 45.1132 22.3969C46.8485 22.0293 48.157 23.0062 48.5555 24.8875C48.954 26.7689 48.1506 28.1762 46.4152 28.5437ZM49.7836 33.4055L47.513 33.8865L47.4409 33.5459C47.2073 32.4431 47.2061 31.4774 47.4569 30.6617C47.7044 29.8297 48.2664 28.6431 49.1397 27.0854C49.8246 25.8388 50.2785 24.8615 50.521 24.1662C50.7634 23.4709 50.7975 22.7519 50.643 22.0221L50.5433 21.5517L52.8139 21.0708L52.8861 21.4113C53.1197 22.5142 53.1081 23.4995 52.8641 24.3477C52.6201 25.1959 52.0546 26.3663 51.2035 27.8684C50.5117 29.0826 50.0382 30.0471 49.7991 30.7587C49.5601 31.4702 49.526 32.1892 49.684 32.9352L49.7836 33.4055ZM45.9995 26.5813C46.5023 26.4748 46.6665 26.0502 46.5119 25.3204C46.3539 24.5744 46.0316 24.2529 45.5288 24.3594C45.0099 24.4693 44.8294 24.8973 44.984 25.6271C45.142 26.3732 45.4805 26.6912 45.9995 26.5813ZM55.2571 32.3648C53.4893 32.7392 52.1843 31.7786 51.7858 29.8972C51.3838 27.9997 52.2034 26.589 53.955 26.2179C55.658 25.8572 56.9989 26.8272 57.3974 28.7086C57.7959 30.5899 56.9925 31.9972 55.2571 32.3648ZM54.8414 30.4023C55.3442 30.2958 55.5119 29.8875 55.3573 29.1577C55.1958 28.3954 54.8735 28.0739 54.3707 28.1804C53.8517 28.2903 53.6713 28.7183 53.8293 29.4644C53.9839 30.1942 54.3224 30.5123 54.8414 30.4023ZM17.5522 47.8957L16.4284 48.1338L16.1518 46.8275L19.3981 46.1399L20.1936 49.8953L18.7509 50.1908L18.6797 49.8547L18.7945 49.1178L18.516 49.1768C18.3426 50.0164 17.7997 50.5328 16.8776 50.7281C16.042 50.9051 15.2971 50.7518 14.6543 50.2758C14.0191 49.7882 13.5787 48.9883 13.3448 47.8838C12.8707 45.6459 13.7594 44.2032 15.7955 43.7719C17.6108 43.3874 18.8824 44.1316 19.3237 45.694L17.1147 46.1619C16.9178 45.6116 16.5975 45.3783 16.1556 45.4719C15.5217 45.6062 15.3289 46.2592 15.5771 47.431C15.8192 48.5739 16.2582 49.0831 16.9017 48.9467C17.3723 48.8471 17.5898 48.4999 17.5522 47.8957ZM26.3193 46.8214L26.476 47.561C26.5609 47.9143 26.5736 48.022 26.8236 48.1597L26.8907 48.4767L24.7201 48.9365C24.5147 48.8194 24.3753 48.588 24.3021 48.2422L24.1414 47.4835C24.0518 47.0609 23.7999 46.9135 23.3292 47.0132L22.5801 47.1719L23.0297 49.2945L20.8783 49.7502L19.4745 43.1231L23.0762 42.3602C24.5841 42.0408 25.4579 42.518 25.6919 43.6225C25.8262 44.2564 25.7111 44.8027 25.3349 45.2537L24.4638 45.3579L24.5127 45.5884C25.5299 45.4633 26.1077 45.8225 26.3193 46.8214ZM22.2485 45.6064L23.0745 45.4314C23.5067 45.3399 23.6671 45.055 23.5674 44.5844C23.4718 44.133 23.2137 43.9568 22.7815 44.0484L21.9555 44.2233L22.2485 45.6064ZM27.5695 41.4084L30.4797 40.792L33.7195 46.6589L33.7948 47.0142L31.749 47.4476L31.3729 46.7144L29.1446 47.1864L29.0885 48.0111L27.062 48.4404L26.9887 48.0946L27.5695 41.4084ZM29.3394 43.9839L29.2487 45.4984L30.5934 45.2136L29.8964 43.8659L29.5155 42.8728L29.2754 42.9237L29.3394 43.9839ZM32.0092 40.468L37.455 39.3144L37.8497 41.1777L36.2169 41.5236L37.226 46.2874L35.065 46.7452L34.0559 41.9813L32.4039 42.3313L32.0092 40.468ZM42.2828 45.3467C41.3896 45.5359 40.626 45.4368 39.9995 45.0376C39.373 44.6384 38.9652 43.9922 38.7719 43.0798L37.952 39.2091L40.113 38.7514L40.9716 42.8045C41.0794 43.3136 41.4463 43.577 41.8977 43.4814C42.3491 43.3858 42.5873 42.9941 42.4795 42.4851L41.6209 38.432L43.7436 37.9824L44.5634 41.853C44.7567 42.7654 44.6459 43.5215 44.2351 44.1404C43.8243 44.7593 43.176 45.1575 42.2828 45.3467ZM48.0929 43.9856L45.9415 44.4413L44.5377 37.8141L46.6891 37.3584L48.0929 43.9856ZM47.232 37.2434L52.6778 36.0899L53.0725 37.9532L51.4397 38.299L52.4488 43.0629L50.2878 43.5206L49.2787 38.7568L47.6267 39.1067L47.232 37.2434ZM59.6216 40.7708C59.2059 41.461 58.4889 41.9139 57.4708 42.1296C56.4528 42.3452 55.6138 42.2219 54.9442 41.7616C54.2727 41.2916 53.8227 40.4938 53.5846 39.3701C53.3466 38.2463 53.4345 37.3346 53.8578 36.6327C54.2812 35.9309 54.9961 35.4684 56.0142 35.2527C57.0322 35.037 57.8733 35.17 58.5352 35.6419C59.2068 36.1119 59.6568 36.9097 59.8948 38.0334C60.1329 39.1572 60.045 40.0689 59.6216 40.7708ZM57.1087 40.42C57.733 40.2877 57.9092 39.6984 57.657 38.5075C57.3986 37.2877 56.9986 36.8205 56.3743 36.9527C55.7596 37.0829 55.5763 37.7339 55.8225 38.896C56.0646 40.039 56.494 40.5502 57.1087 40.42Z" fill="white"></path></svg>