<svg xmlns="http://www.w3.org/2000/svg" width="40" height="40" viewBox="0 0 40 40" fill="none"><g clip-path="url(#clip0_1252_302)"><path d="M24.5916 2.47499C7.43656 3.41832 0.123223 19.8383 0.0532227 20C0.123223 20.1617 7.39322 36.71 24.5932 37.525C24.8032 37.235 30.0016 29.9617 30.0016 20C30.0016 10.0383 24.8016 2.76499 24.5916 2.47499ZM23.7599 35.8033C9.75322 34.7433 2.97822 22.22 1.88322 20C2.97656 17.78 9.75156 5.25665 23.7599 4.19665C24.1882 4.86332 25.1049 6.39499 26.0066 8.57665C20.6682 9.66665 16.6666 14.4267 16.6666 20C16.6666 25.5733 20.6699 30.3333 26.0066 31.4233C25.1066 33.605 24.1899 35.1367 23.7599 35.8033ZM26.6032 29.85C21.8949 29.025 18.3316 24.8717 18.3316 20C18.3316 15.1283 21.8932 10.975 26.6032 10.15C27.1099 11.59 27.5682 13.2333 27.8882 15.045C25.3416 15.2733 23.3332 17.395 23.3332 20C23.3332 22.605 25.3416 24.7267 27.8882 24.955C27.5699 26.7667 27.1116 28.41 26.6032 29.85ZM24.9982 20C24.9982 18.2317 26.3866 16.7933 28.1282 16.6867C28.2532 17.7483 28.3316 18.8517 28.3316 20C28.3316 21.1483 28.2549 22.2517 28.1282 23.3133C26.3866 23.2067 24.9982 21.7683 24.9982 20ZM29.2782 1.40332L28.2099 2.56499C27.7999 2.01332 33.3332 9.61165 33.3332 20C33.3332 30.3883 28.0582 37.5933 28.0099 37.6583L29.4399 38.485C29.8532 38.2 39.9999 31.095 39.9999 20C39.9999 8.90499 29.6916 1.68832 29.2782 1.40332ZM32.0649 34.0333C33.4549 30.9533 34.9999 26.15 34.9999 20C34.9999 13.85 33.4816 9.08665 32.1099 6.01332C34.8382 8.86999 38.3332 13.7483 38.3332 20C38.3332 26.285 34.7999 31.1833 32.0649 34.0333Z" fill="#FFB581"></path></g><defs><clipPath id="clip0_1252_302"><rect width="40" height="40" fill="white"></rect></clipPath></defs></svg>