<svg xmlns="http://www.w3.org/2000/svg" width="276" height="84" viewBox="0 0 276 84" fill="none"><path d="M9.99669 68.7631C9.7637 68.8855 9.47828 68.7922 9.36178 68.5649C8.62203 67.1425 7.38135 66.0874 5.87854 65.6094C4.36992 65.1256 2.76227 65.2655 1.34684 66.0058C1.11384 66.1282 0.828429 66.035 0.711933 65.8076C0.595436 65.5803 0.682808 65.2888 0.909976 65.1722C3.85733 63.6391 4.96405 60.124 3.43212 57.1744C3.3098 56.9412 3.403 56.6556 3.63017 56.539C3.86316 56.4166 4.14857 56.5099 4.26507 56.7372C5.00482 58.1537 6.23968 59.1972 7.75413 59.6635C9.26276 60.1299 10.8762 59.9783 12.3033 59.238C12.5363 59.1156 12.8217 59.2088 12.9382 59.4362C13.0547 59.6635 12.9732 59.9492 12.746 60.0716C12.746 60.0716 12.746 60.0716 12.7402 60.0716C11.3189 60.8119 10.2705 62.0594 9.79282 63.575C9.31519 65.0965 9.45498 66.7112 10.1947 68.1335C10.3171 68.3667 10.2239 68.6523 9.99669 68.7689V68.7631ZM3.36805 64.4144C4.30002 64.3153 5.24946 64.4144 6.16396 64.7059C7.07846 64.9974 7.90558 65.4695 8.61038 66.0933C8.51136 65.1606 8.60456 64.2046 8.8958 63.2835C9.18704 62.3625 9.65885 61.5289 10.2763 60.8177C9.34431 60.9227 8.39486 60.8352 7.48037 60.5496C6.56005 60.2639 5.73292 59.7976 5.0223 59.1855C5.12714 60.1182 5.03395 61.0626 4.74853 61.9719C4.46311 62.8813 3.9913 63.7091 3.3797 64.4144H3.36805Z" fill="#D6D090"></path><path d="M253.823 10.2772C253.631 10.2189 253.526 10.0149 253.584 9.82252C253.951 8.65083 253.852 7.40918 253.299 6.33659C252.746 5.25816 251.796 4.46538 250.631 4.09813C250.439 4.03984 250.334 3.83581 250.392 3.64344C250.451 3.45108 250.654 3.34615 250.847 3.40444C253.27 4.16808 255.769 2.86231 256.532 0.437316C256.59 0.244948 256.794 0.140021 256.986 0.204143C257.178 0.262437 257.283 0.466463 257.219 0.658831C256.852 1.82469 256.963 3.06051 257.528 4.12728C258.093 5.19404 259.048 5.98683 260.219 6.35991C260.411 6.4182 260.516 6.62223 260.458 6.81459C260.399 7.00113 260.201 7.10606 260.009 7.0536C258.838 6.68635 257.603 6.79128 256.52 7.35672C255.442 7.92216 254.644 8.87234 254.277 10.044C254.219 10.2364 254.015 10.3413 253.823 10.283V10.2772ZM252.588 4.33713C253.147 4.78599 253.608 5.35143 253.945 6.00432C254.283 6.6572 254.475 7.36255 254.522 8.07956C254.971 7.51994 255.536 7.0536 256.194 6.70967C256.846 6.36574 257.551 6.17337 258.273 6.1209C257.714 5.67205 257.248 5.11243 256.904 4.46538C256.561 3.81249 256.363 3.11297 256.31 2.39597C255.862 2.95558 255.303 3.4161 254.656 3.7542C254.009 4.0923 253.311 4.28467 252.594 4.3313L252.588 4.33713Z" fill="#BD9BE8"></path><path d="M242.548 22.8747C242.548 20.4614 242.361 18.3512 241.861 17.879L242.437 17.8906C243.818 17.8906 245.157 17.7041 246.538 17.6691L246.817 17.6575C250.54 17.6575 252.31 20.9569 252.31 24.2912C252.31 25.6844 251.996 27.0893 251.39 28.2552C250.65 29.695 248.856 31.1698 247.278 31.1698C246.654 31.1698 246.072 30.9367 245.588 30.3887C245.588 30.7501 245.664 31.0474 245.874 31.234C245.216 31.1698 244.575 31.129 243.934 31.129C243.212 31.129 242.507 31.1757 241.808 31.2398C242.163 30.5344 242.542 26.384 242.542 22.8689L242.548 22.8747ZM247.54 29.9632C248.81 28.7565 249.38 26.5997 249.38 24.437C249.38 21.5573 248.361 18.6659 246.614 18.083C246.538 18.0539 246.456 18.048 246.381 18.048C245.798 18.048 245.367 18.8758 245.367 21.0793L245.495 27.9812C245.524 29.73 245.984 30.4528 246.59 30.4528C246.876 30.4528 247.214 30.278 247.54 29.969V29.9632Z" fill="#BD9BE8"></path><path d="M249.702 32.2944C252.638 32.2944 252.935 21.9299 255.672 19.2076C255.41 18.444 255.142 17.896 254.839 17.7095C257.274 17.7095 258.573 17.9252 259.191 19.2426C260.175 21.312 260.286 27.4444 261.753 31.2568H260.204C259.045 31.2568 258.34 30.8021 257.967 29.9627C257.012 27.7709 255.719 27.631 254.665 26.4535C254.746 26.8965 254.822 27.3104 254.886 27.6893C254.962 28.1323 254.997 28.5637 254.997 28.9601C254.997 31.8281 253.086 33.3437 251.496 33.3437C250.745 33.3437 250.069 32.9998 249.702 32.2944ZM255.888 19.9013C254.804 21.2654 254.484 22.816 254.478 24.2558C254.478 26.3019 256.179 26.6167 257.367 27.6718C257.088 26.0104 256.569 22.3088 255.894 19.8955L255.888 19.9013Z" fill="#BD9BE8"></path><path d="M20.9414 71.2696C22.62 66.1277 23.4571 59.9177 23.4571 53.7514C23.4571 47.9584 23.1275 41.3649 21.7308 36.501H32.531C31.1343 41.3649 30.0153 47.9822 30.0153 53.7753C30.0153 59.9177 30.8524 66.1039 32.531 71.2696H20.9414Z" fill="#BD9BE8"></path><path d="M37.1784 71.7359C35.961 71.7359 34.7436 71.8059 33.5496 71.9749C34.5514 69.993 35.3436 60.0656 35.3436 51.2459C35.3436 44.8394 34.9359 39.0043 33.9107 37.1855H45.7118C42.5314 40.8172 41.1742 47.2528 41.1742 53.5135C41.1742 59.7742 42.6537 66.3788 45.1409 69.2935C46.7195 71.1355 48.6067 71.8992 50.3017 71.8992C52.9287 71.8992 55.1305 70.1037 55.1305 67.6438C55.1305 66.064 54.2218 64.1986 51.8803 62.3857C50.3017 61.1441 48.63 60.2813 46.8884 58.9406C44.6167 57.1218 43.5682 55.0174 43.5682 53.1054C43.5682 50.0684 46.1952 47.5559 50.7095 47.5559C51.8803 47.5559 53.1967 47.725 54.6296 48.1039C52.9811 50.1849 52.3579 52.1669 52.3579 54.0556C52.3579 60.2463 59.2836 65.2945 59.2836 69.1885C59.2836 70.2903 58.7361 71.2929 57.3731 72.2023C56.1091 73.0126 54.5072 73.3273 52.6899 73.3273C48.4378 73.3273 42.8693 71.7243 37.1842 71.7243L37.1784 71.7359Z" fill="#BD9BE8"></path><path d="M59.1787 61.4533C59.1787 60.7363 59.2486 59.9959 59.3942 59.2323C60.134 55.3325 61.5669 51.0304 61.5669 46.7517C61.5669 43.5981 60.7805 40.4386 58.3167 37.5006C59.5573 37.2383 60.7747 37.0925 61.8989 37.0925C66.9141 37.0925 69.8323 39.9372 69.8323 43.4523C69.8323 45.2244 69.0926 47.1598 67.514 49.0018C63.3085 53.9043 61.7067 57.8507 61.7067 60.8354C61.7067 65.1607 65.0967 67.4108 68.6324 67.4108C70.8808 67.4108 73.1932 66.5248 74.7718 64.7119C76.3503 62.9164 76.9677 59.4013 76.9677 55.4607C76.9677 48.314 74.9348 39.774 72.7622 37.3607C74.265 37.6463 76.0823 37.7687 77.8531 37.7687C79.9558 37.7687 81.9596 37.5997 83.1595 37.384C83.1595 37.4539 82.6819 48.5996 82.6819 58.0198C82.6819 64.2863 82.8974 69.8067 83.6138 70.8326C82.4197 70.2322 81.3946 70.0224 80.4102 70.0224C77.8531 70.0224 75.8493 71.5788 73.0534 72.0043C72.4069 72.1267 71.737 72.1734 71.073 72.1734C65.1259 72.1734 59.1729 68.087 59.1729 61.4591L59.1787 61.4533Z" fill="#BD9BE8"></path><path d="M23.297 19.7575L24.0377 15.4525H33.018L31.2358 25.6826C30.5183 29.5941 28.3427 31.7003 23.9914 31.7003C22.8341 31.7003 21.8389 31.5615 20.9825 31.3069L21.8157 26.7241C22.3944 27.025 23.0656 27.1639 23.7831 27.1639C25.0098 27.1639 25.9124 26.4695 26.1207 25.1966L27.0928 19.7575H23.297ZM40.0037 31.7003C37.5271 31.7003 35.7449 30.9366 34.6108 29.4321C33.4767 27.9277 33.1527 25.8215 33.6156 23.1598C34.5645 17.9753 37.5966 15.1747 42.295 15.1747C47.4564 15.1747 49.7478 18.253 48.9377 23.3681C48.0813 28.6452 44.8873 31.7003 40.0037 31.7003ZM40.6286 27.6037C42.1793 27.6037 43.1514 26.1918 43.568 23.3681C43.9615 20.637 43.406 19.2714 41.8784 19.2714C40.4203 19.2714 39.4713 20.5675 39.0084 23.1829C38.4992 26.1224 39.0316 27.6037 40.6286 27.6037ZM50.9014 15.4525H58.8633C62.7517 15.4525 64.6959 17.0958 64.2561 19.9426C64.0478 21.4008 63.284 22.5117 61.9879 23.2292L59.9743 23.0441L59.8817 23.6227C62.4045 23.8773 63.1683 25.104 62.7749 27.3259L62.4508 29.1081C62.2657 29.8487 62.2888 30.3579 62.6823 30.6588L62.5665 31.4226H57.3357C56.9654 31.0291 56.8728 30.4274 57.0349 29.6173L57.3589 27.7888C57.5209 26.7936 57.058 26.3075 55.947 26.3075H54.1649L53.2622 31.4226H48.0777L50.9014 15.4525ZM58.7013 20.8684C58.8633 19.7575 58.4004 19.202 57.3357 19.202H55.4378L54.8361 22.5349H56.8034C57.8449 22.5349 58.5393 21.91 58.7013 20.8684ZM68.048 31.4226H63.4421L66.2658 15.4525H71.0568L74.3434 21.2156L74.7138 23.345H75.4081L75.5238 20.9841L76.3339 15.4525H80.9398L78.1161 31.4226H73.3713L70.0847 25.6363L69.7144 23.4838H69.0201L68.9275 25.8678L68.048 31.4226ZM86.4006 15.4525H93.4136L95.3346 30.5662L95.1958 31.4226H90.2659L90.0807 29.5479H84.711L83.8546 31.4226H78.971L79.1099 30.5894L86.4006 15.4525ZM88.0208 22.2571L86.4469 25.7058H89.7104L89.3632 22.2571L89.4095 19.7806H88.8309L88.0208 22.2571ZM98.848 15.4525H105.097C107.643 15.4525 109.541 16.1931 110.791 17.6512C112.041 19.1094 112.457 21.0304 112.064 23.4607C111.207 28.6683 107.736 31.4226 102.273 31.4226H96.0243L98.848 15.4525ZM106.648 23.345C106.995 20.961 106.208 19.5029 104.519 19.5029H103.315L101.926 27.3491H103.037C104.912 27.3491 106.278 25.8446 106.648 23.345ZM117.853 15.4525H124.866L126.787 30.5662L126.648 31.4226H121.718L121.533 29.5479H116.163L115.307 31.4226H110.423L110.562 30.5894L117.853 15.4525ZM119.473 22.2571L117.899 25.7058H121.162L120.815 22.2571L120.862 19.7806H120.283L119.473 22.2571ZM137.391 31.4226H132.692L135.516 15.4525H143.269L143.316 23.2987L143.223 25.1734H143.825L144.38 23.2987L147.204 15.4525H154.703L151.879 31.4226H147.297L149.056 23.1366L149.426 21.0999H148.778L148.199 22.9052L144.843 31.4226H139.844L139.497 22.9052L139.566 21.0999H138.918L138.548 23.1366L137.391 31.4226ZM168.689 10.6614L168.573 11.3326L164.546 14.5035H161.583L161.699 13.8092L164.523 10.6614H168.689ZM160.171 15.4525H167.184L169.105 30.5662L168.966 31.4226H164.036L163.851 29.5479H158.482L157.625 31.4226H152.742L152.881 30.5894L160.171 15.4525ZM161.791 22.2571L160.218 25.7058H163.481L163.134 22.2571L163.18 19.7806H162.601L161.791 22.2571ZM186.108 21.3082H180.808C180.877 19.9889 180.345 19.2483 179.327 19.2483C177.822 19.2483 176.688 20.7296 176.202 23.507C175.947 24.6874 175.924 25.6595 176.179 26.4464C176.433 27.2333 176.966 27.6268 177.73 27.6268C178.91 27.6268 179.743 26.9325 180.206 25.5206H177.521L178.077 22.3729H185.877L184.28 31.4226L180.808 31.3995L180.947 30.5894L181.872 28.9461H181.224C180.113 30.7977 178.331 31.7235 175.901 31.7235C173.818 31.7235 172.337 30.9366 171.457 29.3858C170.601 27.8351 170.393 25.752 170.832 23.1829C171.272 20.6601 172.314 18.6928 173.911 17.2809C175.531 15.8691 177.568 15.1516 180.021 15.1516C182.197 15.1516 183.817 15.7071 184.858 16.8412C185.923 17.9521 186.34 19.4334 186.108 21.3082ZM190.37 31.4226H185.185L188.009 15.4525H193.193L190.37 31.4226ZM200.148 31.7235C195.125 31.7235 192.996 28.5063 193.945 23.2292C194.871 18.0216 198.204 15.1516 203.018 15.1516C207.578 15.1516 209.823 17.6281 209.105 21.8637H203.666C203.805 20.2667 203.319 19.4797 202.231 19.4797C200.819 19.4797 199.893 20.7296 199.454 23.2524C198.968 25.6826 199.384 27.4185 200.842 27.4185C201.953 27.4185 202.717 26.6084 203.134 24.9883H208.596C207.67 29.2701 204.708 31.7235 200.148 31.7235ZM213.921 15.4525H220.934L222.855 30.5662L222.716 31.4226H217.787L217.601 29.5479H212.232L211.375 31.4226H206.492L206.631 30.5894L213.921 15.4525ZM215.541 22.2571L213.968 25.7058H217.231L216.884 22.2571L216.93 19.7806H216.352L215.541 22.2571Z" fill="#D6D090"></path><path d="M86.6544 67.3589C85.9146 66.0415 85.6059 64.7765 85.6059 63.5815C85.6059 59.8974 88.6173 57.0993 92.1297 57.0993C93.1781 57.0993 94.279 57.3383 95.3566 57.9096C94.5936 59.466 94.2557 61.0399 94.2557 62.5497C94.2557 67.0441 97.0516 70.3202 99.801 70.3202C102.55 70.3202 105.032 67.7378 105.032 64.7707C105.032 62.7363 103.838 60.492 100.634 58.7723C97.5992 57.1226 93.848 55.8343 90.9822 54.4703C86.8 52.535 85.0583 49.7602 85.0583 47.0088C85.0583 41.8906 91.1045 36.7258 98.7467 36.7258C99.0554 36.7258 99.3932 36.7258 99.7019 36.7491C105.078 37.0581 110.455 40.7889 110.455 45.2133C110.455 47.1253 109.429 49.1831 106.919 51.1417C103.144 45.0909 96.4808 42.9632 92.153 42.9632C89.6949 42.9632 87.9708 43.6569 87.9708 44.6829C87.9708 45.9245 90.458 47.6966 97.0516 49.3929C104.076 51.2117 110.6 54.3187 110.6 60.7485C110.6 66.776 105.224 72.4887 97.2905 72.4887C93.2539 72.4887 88.6406 70.9848 86.6602 67.3473L86.6544 67.3589Z" fill="#BD9BE8"></path><path d="M118.813 72.501C123.28 65.5175 116.518 42.8531 131.33 42.8531C135.967 42.8531 137.755 41.2267 137.755 39.6703C137.755 38.2596 136.252 36.9189 134.074 36.9189C132.187 36.9189 129.775 37.8982 127.335 40.7196C124.038 44.5669 120.356 46.2691 117.374 46.2691C114.007 46.2691 111.543 44.1181 111.543 40.4339C111.543 38.9533 111.951 37.2278 112.831 35.2925C113.501 37.2511 115.003 37.8982 117.013 37.8982C120.694 37.8982 126.641 35.5781 131.872 35.5781C137.773 35.5781 140.306 37.8282 140.306 40.1425C140.306 42.6316 137.371 45.214 132.519 45.214C129.245 45.214 128.121 48.8457 128.121 53.6548C128.121 59.6066 129.839 67.4004 131.272 72.4952H118.801L118.813 72.501Z" fill="#BD9BE8"></path><path d="M157.805 72.9078C159.476 71.3513 161.078 66.8569 161.078 63.3652C161.078 60.8061 160.269 58.9174 158.044 58.8941C155.079 58.8941 150.949 62.8405 150.949 69.177C150.949 70.0864 151.019 71.0424 151.211 72.045L147.891 72.0217L141.274 72.045C142.637 69.7949 143.161 63.4118 143.161 56.6731C143.161 48.6636 142.421 40.1295 141.489 37.3314C142.66 37.4538 143.808 37.5005 144.932 37.5005C148.491 37.5005 151.834 37.0691 155.3 37.0691C159.721 37.0691 166.192 39.0044 166.192 43.6446C166.192 47.352 161.556 52.0155 157.712 56.2709C158.574 55.9386 159.453 55.7696 160.292 55.7696C165.045 55.7696 168.202 60.6953 168.202 65.4521C168.202 69.5384 165.954 73.3916 160.985 73.3916C160.03 73.3916 158.976 73.2225 157.805 72.9136V72.9078ZM157.851 42.9042C157.851 39.4824 156.826 38.0484 155.533 38.0484C154.054 38.0484 152.213 39.9371 151.211 42.9276C150.133 46.0579 149.825 50.529 149.825 55.0759C149.825 58.5909 150.017 62.1527 150.209 65.2131C151.811 55.6005 157.735 55.2216 157.851 42.9042Z" fill="#BD9BE8"></path><path d="M164.707 74.7276C172.256 74.7276 173.019 48.0468 180.067 41.04C179.397 39.0813 178.704 37.6706 177.918 37.1926C184.179 37.1926 187.523 37.7406 189.125 41.1391C191.658 46.4729 191.944 62.2529 195.718 72.052H191.728C188.74 72.052 186.929 70.8803 185.973 68.7293C183.515 63.0865 180.189 62.7309 177.469 59.6938C177.685 60.8422 177.877 61.8915 178.04 62.8766C178.232 64.025 178.325 65.1267 178.325 66.1527C178.325 73.5384 173.403 77.4383 169.32 77.4383C167.386 77.4383 165.639 76.5522 164.707 74.7393V74.7276ZM180.62 42.8296C177.825 46.3447 177.015 50.3377 176.992 54.0452C176.992 59.3032 181.366 60.1193 184.424 62.8416C183.708 58.5629 182.368 49.0436 180.626 42.8296H180.62Z" fill="#BD9BE8"></path><path d="M206.441 71.7829C203.861 71.0892 201.665 69.8942 199.871 68.1978C198.054 66.5015 196.667 64.4904 195.712 62.1703C194.757 59.8502 194.279 57.4369 194.279 54.9245C194.279 54.085 194.326 53.2514 194.448 52.412C194.663 50.9314 195.071 49.614 195.619 48.4889C196.166 47.3638 196.743 46.3379 197.39 45.3819C198.036 44.4025 198.584 43.4232 199.061 42.4439C199.516 41.4646 199.754 40.3628 199.754 39.1445C199.754 38.1652 199.539 37.0867 199.131 35.8684C199.801 36.3697 201.304 36.8944 203.645 37.4248C205.964 37.9495 208.305 38.2118 210.67 38.2118C211.387 38.2118 212.08 38.1652 212.726 38.0894H212.773C212.843 38.0661 213.035 38.0427 213.32 38.0194C213.705 37.9728 214.182 37.8737 214.777 37.7105C215.377 37.5647 215.971 37.3257 216.594 37.0168C217.217 36.7078 217.765 36.3231 218.266 35.8218C218.866 36.8477 219.174 37.9262 219.174 39.0279C219.174 39.9839 218.959 40.9166 218.551 41.8027C218.143 42.712 217.549 43.499 216.78 44.1927H216.757C216.565 44.3617 216.373 44.525 216.209 44.6474C215.994 44.8164 215.755 44.9796 215.516 45.172C214.777 45.7433 213.961 46.3903 213.128 47.084C212.266 47.801 211.456 48.5647 210.693 49.3808C209.93 50.2202 209.307 51.0771 208.806 51.9632C208.305 52.8492 208.066 53.7586 208.066 54.6913C208.066 55.2626 208.189 55.8397 208.428 56.4109C208.666 57.0114 209.051 57.5826 209.575 58.1539C208.072 57.4602 206.971 56.5508 206.255 55.4258C205.538 54.3007 205.177 53.129 205.177 51.8641C205.177 50.739 205.439 49.6431 205.987 48.5414C206.511 47.4396 207.274 46.437 208.305 45.5509C207.466 45.2886 206.61 44.9272 205.725 44.4725C205.008 44.0644 204.339 43.7555 203.715 43.4932C203.069 43.2542 202.498 43.1317 201.974 43.1317C201.28 43.1317 200.686 43.4174 200.232 43.9712C199.754 44.5191 199.422 45.4751 199.253 46.8392C199.184 47.3405 199.16 47.8418 199.16 48.3956C199.16 49.6373 199.329 50.978 199.661 52.3887C199.97 53.7994 200.471 55.2101 201.117 56.5742C201.764 57.9382 202.55 59.1799 203.506 60.3049C204.461 61.43 205.585 62.316 206.849 62.9806C208.113 63.6743 209.546 64.0065 211.124 64.0065C212.103 64.0065 213.134 63.8608 214.229 63.5519C215.324 63.2429 216.477 62.7649 217.695 62.0945C217.887 62.934 217.98 63.6976 217.98 64.4379C217.98 66.1109 217.572 67.5216 216.74 68.6467C215.901 69.7951 214.829 70.6578 213.513 71.2524C212.75 71.5847 211.957 71.8237 211.148 71.9694V73.0478C211.841 73.3101 212.388 73.7881 212.75 74.4352C213.111 75.1056 213.274 75.7759 213.274 76.4463C213.274 77.688 212.796 78.813 211.818 79.7924C210.839 80.7717 209.738 81.273 208.497 81.273C207.95 81.273 207.42 81.1506 206.872 80.9116C206.325 80.6726 205.894 80.3403 205.533 79.9089C205.171 79.4776 204.985 78.9762 204.985 78.4283C204.985 78.096 205.078 77.7812 205.27 77.4723C205.439 77.1633 205.748 76.901 206.156 76.662C206.802 77.7638 207.472 78.5507 208.165 79.0054C208.835 79.4834 209.453 79.7224 210.029 79.7224C210.53 79.7224 210.961 79.5534 211.293 79.2211C211.625 78.9121 211.794 78.4808 211.794 77.9794C211.794 77.4781 211.602 76.901 211.223 76.2831C210.816 75.6827 210.175 75.0648 209.266 74.4644C209.144 74.3944 209.051 74.3186 208.981 74.2953C208.911 74.2487 208.835 74.202 208.812 74.1496C208.765 74.1262 208.742 74.0563 208.719 73.9805C208.695 73.9047 208.695 73.8115 208.695 73.6716V72.1151C207.956 72.0918 207.193 71.9694 206.447 71.7829H206.441Z" fill="#BD9BE8"></path><path d="M213.659 74.728C221.208 74.728 221.971 48.0472 229.019 41.0404C228.349 39.0817 227.656 37.6711 226.87 37.193C233.131 37.193 236.475 37.741 238.077 41.1395C240.61 46.4733 240.896 62.2533 244.67 72.0524H240.68C237.692 72.0524 235.881 70.8807 234.925 68.7297C232.467 63.0869 229.141 62.7313 226.421 59.6942C226.637 60.8426 226.829 61.8919 226.992 62.877C227.184 64.0254 227.277 65.1272 227.277 66.1531C227.277 73.5389 222.355 77.4387 218.272 77.4387C216.338 77.4387 214.591 76.5526 213.659 74.7397V74.728ZM227.514 34.8978C226.39 34.9445 225.842 35.0669 225.266 35.0669C224.881 35.0669 224.695 34.9736 224.695 34.6355C224.695 34.4431 224.741 34.1575 224.864 33.7961C225.365 32.1464 226.512 31.6451 227.992 31.6451C230.572 31.6451 234.154 33.2714 236.927 33.2714C237.713 33.2714 238.43 33.0558 238.907 33.0558C239.455 33.0558 239.694 33.2714 239.694 33.6795C239.694 33.8252 239.67 33.9885 239.624 34.1808C239.146 35.9529 237.952 36.5009 236.42 36.5009C233.84 36.5009 230.257 34.8978 227.508 34.8978H227.514ZM229.572 42.83C226.776 46.3451 225.967 50.3382 225.943 54.0456C225.943 59.3037 230.318 60.1198 233.376 62.8421C232.659 58.5633 231.32 49.0441 229.578 42.83H229.572Z" fill="#BD9BE8"></path><path d="M242.998 55.146C242.998 49.9346 245.101 44.0994 249.114 41.9484C250.547 41.1848 251.91 40.8467 253.221 40.8467C257.881 40.8467 261.393 45.1487 261.393 49.2409C261.393 52.3246 259.36 55.2917 254.252 56.1486C254.444 55.5016 254.514 54.8079 254.514 54.0909C254.514 49.6198 251.433 44.0236 249.738 44.0236C249.114 44.0236 248.689 44.8106 248.689 46.7226C248.689 47.7719 248.811 49.1826 249.12 51.0013C250.6 59.6346 256.285 69.865 263.525 69.865C267.206 69.865 270.119 66.8746 270.119 61.1852C270.119 59.1041 269.734 56.6674 268.831 53.8694C266.536 46.6993 261.76 39.9315 253.972 39.9315C253.04 39.9315 252.062 40.0247 251.06 40.2404C253.879 37.6347 257.083 36.4863 260.211 36.4863C268.261 36.4863 275.908 44.1344 275.908 55.1343C275.908 66.1343 267.69 72.1093 259.471 72.1093C251.252 72.1093 243.01 66.4432 243.01 55.1343L242.998 55.146Z" fill="#BD9BE8"></path></svg>