<svg xmlns="http://www.w3.org/2000/svg" width="246" height="24" viewBox="0 0 246 24" fill="none"><path d="M15.8344 17.1945L12.2901 13.6293C12.1606 13.499 12.0076 13.4753 11.9252 13.4753C11.8427 13.4753 11.6896 13.499 11.5602 13.6293L8.00413 17.2063C7.60366 17.609 6.9797 18.2605 4.89551 18.2605L9.26398 22.6428C9.92633 23.3081 10.8243 23.6819 11.7603 23.6819C12.6964 23.6819 13.5942 23.3081 14.2566 22.6428L18.6368 18.2486C17.5654 18.2486 16.6704 18.0354 15.8344 17.1945ZM8.00413 6.47541L11.5602 10.0524C11.6543 10.1471 11.7956 10.2063 11.9252 10.2063C12.0547 10.2063 12.1959 10.1471 12.2901 10.0524L15.8109 6.51095C16.6468 5.63447 17.6006 5.43312 18.6721 5.43312L14.2919 1.03892C13.6295 0.373506 12.7318 -0.000244141 11.7956 -0.000244141C10.8594 -0.000244141 9.96166 0.373506 9.29931 1.03892L4.93085 5.42127C7.00326 5.42127 7.63899 6.10825 8.00413 6.47541Z" fill="#8499A8"></path><path d="M22.4989 9.29374L19.8495 6.61696H18.3658C17.7299 6.61696 17.094 6.87753 16.6584 7.33945L13.1259 10.8927C12.7963 11.2244 12.3606 11.3902 11.9249 11.3902C11.4763 11.3838 11.0469 11.206 10.7238 10.8927L7.16778 7.30392C6.72035 6.85384 6.10802 6.59326 5.46051 6.59326H3.72952L1.03315 9.31743C0.37156 9.98367 0 10.8868 0 11.8284C0 12.77 0.37156 13.6731 1.03315 14.3393L3.72952 17.0636H5.47229C6.10802 17.0636 6.72036 16.8029 7.17957 16.3528L10.7356 12.7759C11.0653 12.4443 11.5011 12.2785 11.9367 12.2785C12.3724 12.2785 12.808 12.4443 13.1377 12.7759L16.682 16.341C17.1294 16.7911 17.7417 17.0517 18.3894 17.0517H19.873L22.5223 14.3749C23.1866 13.6967 23.5571 12.7815 23.5527 11.8294C23.5482 10.8773 23.1693 9.96571 22.4989 9.29374Z" fill="#8499A8"></path><path d="M85.6451 19.485L85.1923 17.2026H80.1214L79.3152 19.4687L75.2509 19.4768C77.1855 14.7971 79.124 10.1189 81.0667 5.44254C81.3987 4.64933 81.9846 4.24563 82.8504 4.24967C83.5112 4.25577 84.5911 4.25577 86.0887 4.25171L89.2307 19.4788L85.6451 19.485ZM81.2625 14.0765H84.5299L83.3093 8.35569L81.2625 14.0765ZM55.0667 4.24764L59.1528 4.25171L52.8361 19.487L48.6997 19.483C47.6595 15.4587 46.6322 11.4311 45.618 7.4002C45.4163 6.59684 45.017 6.0349 44.2487 5.76915C43.1136 5.38659 41.9732 5.02005 40.8281 4.66961V4.25374H47.3565C48.4859 4.25374 49.1453 4.80351 49.3572 5.93144C49.5709 7.06141 50.1073 9.93805 50.9705 14.5613L55.0667 4.24764ZM64.7675 4.25171L61.5367 19.483L57.6482 19.4788L60.8751 4.24764L64.7675 4.25171ZM72.6532 3.96973C73.817 3.96973 75.2832 4.33489 76.1262 4.66961L75.4445 7.82825C74.6822 7.51989 73.4277 7.104 72.3729 7.11821C70.8402 7.14458 69.8923 7.79173 69.8923 8.4125C69.8923 9.42278 71.5379 9.93198 73.232 11.0356C75.1661 12.2933 75.4202 13.4233 75.3961 14.6506C75.3699 17.1986 73.232 19.7122 68.7225 19.7122C66.6654 19.6818 65.9232 19.5073 64.2451 18.9089L64.9551 15.6123C66.6634 16.3324 67.3874 16.5616 68.8475 16.5616C70.1847 16.5616 71.3323 16.018 71.3422 15.0706C71.3504 14.397 70.939 14.0623 69.4384 13.2306C67.9379 12.3968 65.8325 11.2425 65.8606 8.92576C65.8949 5.95984 68.6882 3.96973 72.6553 3.96973H72.6532Z" fill="#8499A8"></path><path opacity="0.5" d="M125.384 21.465C123.492 21.4653 121.642 20.9011 120.068 19.8438C118.494 18.7866 117.267 17.2836 116.544 15.5252C115.819 13.7668 115.629 11.8318 115.998 9.96486C116.367 8.09793 117.278 6.38298 118.617 5.03685C119.954 3.69072 121.659 2.77387 123.515 2.40225C125.37 2.03062 127.295 2.22093 129.043 2.94908C130.791 3.67723 132.286 4.91054 133.337 6.49303C134.388 8.07552 134.949 9.93612 134.951 11.8396V11.841C134.948 14.3924 133.939 16.8385 132.145 18.6427C130.352 20.447 127.92 21.4619 125.384 21.465Z" fill="#8499A8"></path><path d="M116.074 21.465C114.182 21.465 112.333 20.9004 110.759 19.8431C109.186 18.7855 107.959 17.2825 107.234 15.524C106.511 13.7654 106.321 11.8303 106.691 9.96346C107.06 8.09659 107.972 6.38176 109.309 5.03583C110.647 3.6899 112.353 2.77331 114.208 2.40197C116.064 2.03062 117.988 2.22122 119.736 2.94963C121.483 3.67804 122.978 4.91157 124.03 6.49421C125.081 8.07687 125.643 9.93755 125.643 11.841C125.64 14.3926 124.63 16.8389 122.837 18.6432C121.043 20.4474 118.611 21.4624 116.074 21.465Z" fill="#8499A8"></path><path d="M183.835 23.1952H154.483C153.885 23.1952 153.31 22.9559 152.886 22.53C152.464 22.1041 152.226 21.5265 152.226 20.9241V11.3702H153.852L154.219 10.4769H155.04L155.406 11.3665H158.607V10.6898L158.893 11.3712H160.555L160.841 10.6785V11.3693H168.792V9.9082H168.943C169.051 9.91198 169.081 9.92145 169.081 10.1012V11.3712H173.196V11.0314C173.617 11.2463 174.112 11.3721 174.637 11.3721L174.727 11.3712H174.723H176.453L176.824 10.4816H177.646L178.007 11.3712H181.343V10.5252L181.848 11.3712H184.516V5.78419H181.875V6.44377L181.505 5.78419H178.79V6.44377L178.45 5.78419H174.784C174.229 5.75596 173.676 5.87095 173.176 6.11824L173.196 6.10972V5.78419H170.667V6.10972C170.362 5.86705 169.974 5.75096 169.586 5.78515H169.592H160.351L159.732 7.22826L159.094 5.78515H156.183V6.44472L155.863 5.78515H153.379L152.229 8.43479V2.75696C152.229 2.15463 152.466 1.57695 152.889 1.15103C153.313 0.72512 153.887 0.48584 154.486 0.48584H183.838C184.438 0.48584 185.011 0.72512 185.435 1.15103C185.859 1.57695 186.096 2.15463 186.096 2.75696V12.6742H184.334C184.306 12.6723 184.272 12.6723 184.239 12.6723C183.83 12.6723 183.453 12.7954 183.136 13.0063L183.144 13.0017V12.6742H180.537C180.13 12.6516 179.728 12.768 179.394 13.0045L179.4 13.0007V12.6733H174.747V13.0007C174.366 12.7846 173.936 12.6718 173.499 12.6733H173.462H173.464H170.394V13.0007C169.993 12.7423 169.517 12.6273 169.043 12.6742L169.052 12.6733H165.616L164.83 13.5287L164.094 12.6733H158.964V18.264H163.998L164.809 17.3953L165.572 18.264H168.676V16.9554H169.107C169.523 16.9717 169.939 16.9018 170.328 16.75L170.306 16.7575V18.266H172.866V16.8097H172.988C173.144 16.8097 173.161 16.8152 173.161 16.9743V18.2669H180.938L181.033 18.2688C181.478 18.2688 181.894 18.1345 182.239 17.9044L182.232 17.9092V18.2669H184.698L184.815 18.2688C185.277 18.2688 185.716 18.1732 186.116 18L186.094 18.0086V20.925C186.094 21.5274 185.857 22.105 185.433 22.5309C185.01 22.957 184.436 23.1963 183.836 23.1963L183.835 23.1952ZM172.081 17.4805H171.123V13.4729H173.32C173.718 13.4359 174.117 13.503 174.481 13.6678L174.466 13.6621C174.759 13.8249 174.957 14.1353 174.957 14.4912L174.955 14.5546V14.5516V14.5876C174.955 15.0476 174.68 15.4432 174.285 15.6153L174.277 15.6183C174.467 15.6863 174.625 15.8027 174.743 15.9532L174.744 15.9551C174.877 16.1762 174.932 16.4356 174.902 16.6923L174.903 16.6866V17.4796H173.947V16.978C173.993 16.705 173.938 16.4247 173.794 16.1888L173.797 16.1936C173.698 16.1177 173.585 16.0629 173.462 16.0325C173.341 16.0022 173.216 15.9966 173.094 16.0166L173.098 16.0157H172.081V17.4796V17.4805ZM172.081 14.301V15.2008H173.237C173.401 15.216 173.566 15.1867 173.715 15.1157L173.708 15.1185C173.768 15.0793 173.819 15.0252 173.854 14.9617C173.887 14.898 173.906 14.8268 173.906 14.7543L173.904 14.7324V14.7334C173.909 14.661 173.894 14.5889 173.86 14.5252C173.825 14.4616 173.773 14.4092 173.71 14.3738L173.708 14.3728C173.566 14.3087 173.409 14.2825 173.253 14.2971H173.257L172.081 14.301ZM163.59 17.4796H159.82V13.4729H163.649L164.821 14.7864L166.031 13.4729H169.074C170.153 13.4729 170.678 13.9054 170.678 14.7931C170.678 15.6967 170.135 16.1359 169.022 16.1359H167.831V17.4787H165.982L164.809 16.1548L163.591 17.4796H163.59ZM166.885 13.9025L165.422 15.4829L166.885 17.1143V13.9025ZM160.77 15.8472V16.6439H163.111L164.192 15.4687L163.152 14.301H160.769V15.0296H162.86V15.8463L160.77 15.8472ZM167.831 14.3019V15.3221H169.061C169.438 15.3221 169.655 15.129 169.655 14.7921C169.655 14.4704 169.453 14.301 169.072 14.301L167.831 14.3019ZM184.802 17.4814H182.963V16.6204H184.794C184.932 16.6393 185.069 16.6033 185.181 16.5201L185.18 16.521C185.215 16.4879 185.244 16.4481 185.262 16.4036C185.282 16.3591 185.291 16.3111 185.291 16.2627V16.2597V16.2474C185.293 16.1996 185.282 16.1522 185.262 16.1088C185.242 16.0652 185.213 16.0268 185.176 15.9957C185.079 15.9249 184.959 15.8932 184.84 15.9068H184.841L184.666 15.9011C183.806 15.8784 182.831 15.852 182.831 14.6663C182.831 14.089 183.191 13.4729 184.197 13.4729H186.094V14.3265H184.358C184.225 14.3115 184.089 14.3385 183.971 14.4041L183.974 14.4022C183.928 14.433 183.892 14.4756 183.867 14.5259C183.843 14.5763 183.832 14.6323 183.836 14.688V14.687V14.6975C183.836 14.7612 183.856 14.8234 183.893 14.8749C183.931 14.9266 183.983 14.9652 184.043 14.9851L184.046 14.986C184.165 15.0231 184.289 15.0385 184.415 15.0316H184.412L184.927 15.0448C185.317 15.0057 185.706 15.1222 186.01 15.3693L186.007 15.3675C186.036 15.3901 186.061 15.4147 186.082 15.4422L186.084 15.4432L186.094 16.9686C185.937 17.1545 185.735 17.2985 185.508 17.3877C185.282 17.477 185.037 17.5088 184.796 17.4805L184.802 17.4814ZM181.086 17.4814H179.232V16.6204H181.077C181.216 16.6386 181.355 16.6026 181.467 16.5201L181.465 16.521C181.501 16.4879 181.528 16.4479 181.548 16.4034C181.566 16.359 181.577 16.311 181.577 16.2627V16.2597V16.2531C181.577 16.2045 181.566 16.1563 181.547 16.112C181.527 16.0676 181.498 16.028 181.461 15.9957C181.361 15.9249 181.241 15.8932 181.12 15.9068H181.121L180.947 15.9011C180.089 15.8784 179.117 15.852 179.117 14.6663C179.117 14.089 179.474 13.4729 180.477 13.4729H182.386V14.3265H180.639C180.506 14.3116 180.372 14.3387 180.255 14.4041L180.259 14.4022C180.21 14.4364 180.17 14.4833 180.145 14.5383C180.119 14.593 180.11 14.6537 180.116 14.7137C180.122 14.7737 180.145 14.8308 180.181 14.8791C180.217 14.9274 180.265 14.9649 180.321 14.988L180.323 14.9889C180.444 15.0262 180.571 15.0416 180.696 15.0343H180.693L181.205 15.0476C181.597 15.0097 181.989 15.1263 182.296 15.3731L182.293 15.3702C182.396 15.4849 182.475 15.6198 182.524 15.7666C182.573 15.9134 182.591 16.0688 182.578 16.2228V16.2182C182.579 17.0537 182.076 17.4796 181.085 17.4796L181.086 17.4814ZM178.662 17.4814H175.481V13.472H178.659V14.2999H176.431V15.0286H178.606V15.8454H176.431V16.6421L178.662 16.6459V17.4787V17.4814ZM180.514 10.5867H178.576L178.206 9.69338H176.228L175.868 10.5867H174.755C174.255 10.6132 173.762 10.4547 173.369 10.141L173.375 10.1438C173.188 9.93706 173.046 9.69354 172.959 9.42878C172.872 9.16401 172.84 8.88384 172.866 8.60607V8.61364C172.841 8.33077 172.875 8.0459 172.964 7.77636C173.052 7.50679 173.194 7.25817 173.381 7.04562L173.38 7.04751C173.577 6.87375 173.808 6.74275 174.057 6.66266C174.308 6.58255 174.571 6.55507 174.833 6.58192L174.825 6.58099H175.748V7.43549H174.843C174.712 7.41837 174.577 7.43078 174.45 7.47184C174.323 7.51289 174.207 7.58159 174.109 7.67302L174.111 7.67208C173.91 7.93118 173.812 8.25653 173.837 8.58432V8.57958C173.808 8.91633 173.901 9.25244 174.102 9.52399L174.099 9.5202C174.285 9.67395 174.525 9.74799 174.765 9.72649H174.762H175.189L176.535 6.57531H177.966L179.576 10.3605V6.57531H181.026L182.7 9.36501V6.57531H183.677V10.5801H182.319L180.512 7.57271V10.5801L180.514 10.5867ZM177.224 7.25759L176.567 8.85496H177.881L177.224 7.25759ZM168.004 10.5848H167.053V6.57814H169.242C169.643 6.53641 170.046 6.60477 170.41 6.77592L170.395 6.77024C170.542 6.85169 170.664 6.97109 170.75 7.11603C170.834 7.26097 170.879 7.42618 170.88 7.59447L170.877 7.66072V7.65788V7.68722C170.877 7.90577 170.814 8.1197 170.697 8.30332C170.579 8.48697 170.412 8.63251 170.213 8.72248L170.205 8.72531C170.395 8.79722 170.554 8.91267 170.675 9.06031L170.677 9.0622C170.811 9.28417 170.866 9.54539 170.834 9.80315L170.836 9.79747V10.5838H169.875L169.87 10.0785V10.0028C169.906 9.75575 169.851 9.50449 169.718 9.29403L169.721 9.29877C169.621 9.22513 169.508 9.17209 169.387 9.14269C169.268 9.1133 169.142 9.10813 169.02 9.12749L169.026 9.12655H168.006V10.5838L168.004 10.5848ZM168.004 7.41184V8.30137H169.159C169.323 8.31917 169.488 8.28961 169.635 8.2162L169.63 8.2181C169.69 8.18124 169.74 8.12942 169.774 8.0676C169.809 8.00579 169.828 7.93606 169.828 7.86512L169.826 7.83863V7.83956C169.831 7.76766 169.815 7.69593 169.78 7.6332C169.745 7.57048 169.692 7.51952 169.629 7.48659L169.626 7.48565C169.483 7.42387 169.327 7.39789 169.171 7.40995H169.174L168.004 7.41184ZM157.924 10.5848H155.989L155.623 9.69149H153.639L153.27 10.5848H152.236L153.942 6.57814H155.355L156.975 10.37V6.57814H158.528L159.773 9.29499L160.919 6.57814H162.504V10.5829H161.525L161.523 7.44874L160.143 10.5838H159.308L157.924 7.44402V10.5838V10.5848ZM154.627 7.25759L153.979 8.85496H155.279L154.627 7.25759ZM172.396 10.5838H171.425V6.57814H172.398V10.5829L172.396 10.5838ZM166.387 10.5838H163.213V6.57814H166.394V7.41089H164.166V8.13293H166.34V8.95526H164.165V9.75584H166.392V10.5829L166.387 10.5838Z" fill="#8499A8"></path><path fill-rule="evenodd" clip-rule="evenodd" d="M210.561 2.63989H214.909H245.343C244.63 6.17643 243.933 9.63417 243.237 13.0783C243.09 13.8027 242.943 14.5263 242.798 15.2501C242.764 15.4138 242.732 15.5783 242.698 15.7429C242.515 16.6528 242.331 17.5686 242.14 18.3921C241.655 20.485 239.858 21.0422 237.24 21.0422H203.392C203.797 19.0905 204.189 17.0962 204.583 15.0896C205.064 12.6424 205.548 10.1769 206.064 7.74813C206.128 7.44705 206.186 7.13978 206.243 6.83189C206.352 6.25075 206.462 5.66739 206.616 5.11915C207.069 3.51117 208.64 2.73146 210.561 2.63989ZM230.719 13.1232C230.585 14.2301 231.902 14.0987 232.371 13.6356C232.719 13.2934 232.815 12.6827 232.893 12.1875C232.896 12.1719 232.899 12.1564 232.901 12.141C231.824 12.0083 230.831 12.2036 230.719 13.1232ZM230.781 10.5224C230.82 10.3679 230.859 10.2135 230.888 10.0489V10.0489C231.082 10.0433 231.302 10.0253 231.535 10.0064C232.598 9.91982 233.906 9.81341 233.961 10.7748C233.981 11.1308 233.897 11.517 233.811 11.9143C233.774 12.088 233.736 12.2637 233.705 12.44C233.701 12.468 233.696 12.4959 233.692 12.5238C233.581 13.1714 233.48 13.7642 233.473 14.4895H232.69C232.677 14.2278 232.714 14.0161 232.752 13.8064C232.378 14.4121 231.293 14.853 230.401 14.4683C229.938 14.2683 229.696 13.552 229.915 12.8243C230.239 11.7377 231.472 11.4842 232.986 11.6287L232.988 11.6238C233.054 11.4365 233.145 11.1837 233.092 10.9455C232.93 10.2225 231.256 10.6389 230.719 10.7747C230.739 10.6895 230.759 10.606 230.781 10.5224ZM237.816 12.9951C237.829 13.6293 238.135 14.0116 238.747 13.9984C239.861 13.9744 240.044 12.7599 240.213 11.6341C240.262 11.3086 240.311 10.9905 240.379 10.7108C240.044 10.5955 239.714 10.4884 239.257 10.5399C238.275 10.6506 237.791 11.8845 237.816 12.9951ZM240.463 10.1129C240.6 9.48079 240.704 8.81733 240.782 8.12754V8.12744H241.692C241.592 8.70574 241.481 9.27428 241.371 9.84281C241.08 11.3331 240.791 12.8234 240.676 14.4895H239.85C239.853 14.3109 239.879 14.1555 239.907 14.0002C239.916 13.943 239.925 13.8859 239.934 13.8276C239.923 13.7904 239.878 13.8638 239.832 13.9391C239.809 13.9775 239.784 14.0161 239.764 14.0412C239.686 14.1403 239.566 14.2829 239.446 14.3614C238.836 14.7667 237.624 14.6514 237.201 14.1692C236.956 13.8894 236.889 13.4972 236.884 13.1018C236.86 11.0569 238.23 9.40019 240.463 10.1129ZM215.678 13.2939C215.773 14.169 216.971 14.177 217.457 13.657C217.861 13.2261 218.196 12.1613 218.072 11.3085C217.928 10.3262 216.518 10.3975 216.039 10.9882C215.998 11.1918 215.964 11.4065 215.929 11.629C215.903 11.7889 215.877 11.9529 215.848 12.1198C215.828 12.2312 215.802 12.3432 215.777 12.4549C215.713 12.7383 215.649 13.0208 215.678 13.2939ZM216.06 10.4369C216.467 10.1054 217.407 9.75706 218.178 10.0489C219.764 10.6495 218.852 13.717 217.67 14.3614C217.096 14.6737 215.738 14.8282 215.53 14.0198C215.404 14.5451 215.325 15.1156 215.244 15.6862C215.207 15.9505 215.169 16.215 215.127 16.4749H214.217C214.626 14.3677 215.013 12.2389 215.34 10.0489H216.123C216.12 10.1201 216.105 10.1806 216.091 10.241C216.077 10.3015 216.064 10.3619 216.059 10.4332L216.06 10.4369ZM216.06 10.4369C216.057 10.4388 216.056 10.4407 216.053 10.4426C216.048 10.4466 216.044 10.4505 216.039 10.4545C216.05 10.4534 216.062 10.4514 216.06 10.4369ZM220.36 11.586H222.499C222.693 10.7614 222.224 10.4933 221.567 10.5186C220.87 10.5454 220.428 11.0903 220.36 11.586ZM220.021 10.6253C220.417 10.2054 220.972 10.0146 221.632 9.96349C222.381 9.90528 223.12 10.0621 223.326 10.6681C223.443 11.0126 223.372 11.3841 223.302 11.7445C223.279 11.8642 223.256 11.9826 223.241 12.0984C222.257 12.0729 221.237 12.0669 220.253 12.0984C220.102 12.754 220.105 13.5085 220.571 13.8064C221.191 14.2009 222.236 13.8839 222.838 13.657C222.823 13.7484 222.805 13.8367 222.788 13.925C222.757 14.0727 222.727 14.2203 222.712 14.3827C221.249 14.7413 219.423 14.7943 219.259 13.3153C219.143 12.2786 219.536 11.1402 220.021 10.6253ZM213.602 10.1129C213.601 10.0827 213.599 10.0525 213.624 10.0489H214.534C214.22 11.4758 213.969 12.9665 213.751 14.4895H212.839C213.13 13.067 213.402 11.6256 213.602 10.1129ZM235.656 10.7534C235.917 10.3452 236.587 9.66459 237.392 10.0702C237.357 10.1864 237.335 10.3169 237.314 10.4474C237.299 10.5367 237.285 10.626 237.265 10.7108C235.839 10.3044 235.553 11.6559 235.359 12.8883C235.334 13.0412 235.308 13.1841 235.284 13.3225C235.214 13.707 235.151 14.0569 235.146 14.4895H234.215C234.519 13.0535 234.781 11.5737 234.998 10.0489H235.804C235.77 10.1523 235.752 10.2708 235.734 10.3894C235.714 10.5171 235.694 10.6448 235.656 10.7534ZM227.076 12.5894C227.054 12.8637 227.076 13.2248 227.16 13.4434C227.449 14.1956 228.693 14.0187 229.343 13.6782C229.323 13.7745 229.306 13.8744 229.289 13.9741C229.266 14.1059 229.245 14.2377 229.216 14.3614C228.026 14.7756 226.556 14.7168 226.228 13.6356C225.948 12.7115 226.345 11.2429 226.949 10.6039C227.565 9.95127 228.729 9.82569 229.956 10.0276C229.944 10.1265 229.927 10.2224 229.912 10.3183C229.887 10.46 229.864 10.6018 229.851 10.7534C229.103 10.4899 228.165 10.4123 227.689 10.8815C227.345 11.2215 227.123 11.9724 227.076 12.5894ZM224.914 10.7961C225.209 10.2757 225.844 9.72016 226.652 10.0489C226.641 10.1503 226.621 10.243 226.601 10.3358C226.577 10.4547 226.553 10.5736 226.546 10.7108C225.691 10.4032 225.099 10.967 224.873 11.6287C224.669 12.2203 224.584 12.9849 224.504 13.689C224.474 13.9705 224.443 14.2423 224.406 14.4895H223.495C223.531 14.2961 223.568 14.103 223.605 13.9099C223.847 12.6465 224.087 11.383 224.258 10.0489H225.063C225.041 10.1473 225.024 10.2501 225.006 10.3529C224.98 10.5054 224.954 10.6578 224.914 10.7961ZM211.548 10.7748C211.695 9.94087 211.84 9.10649 211.972 8.2556V8.25568H213.03C212.614 10.2839 212.262 12.3777 211.929 14.4897H210.89C210.983 13.8941 211.092 13.3144 211.202 12.7348C211.283 12.2973 211.366 11.8597 211.441 11.4153C210.67 11.3413 209.723 11.366 208.894 11.3876C208.81 11.3898 208.727 11.392 208.645 11.394C208.463 12.2426 208.323 13.1369 208.186 14.0313C208.163 14.1841 208.14 14.3371 208.115 14.4897H207.078C207.36 13.0716 207.606 11.6168 207.852 10.1619C207.961 9.52544 208.068 8.88895 208.18 8.25551H209.195C209.111 8.65904 209.039 9.07422 208.966 9.48938C208.891 9.9149 208.817 10.3404 208.73 10.7533C209.455 10.8078 210.214 10.7954 210.97 10.7831C211.162 10.7799 211.355 10.7768 211.548 10.7748ZM214.704 8.2556C214.971 8.49463 214.737 9.06892 214.555 9.19492C214.441 9.27502 214.05 9.36725 213.878 9.19492C213.699 9.01797 213.804 8.54163 213.92 8.38367C213.991 8.2854 214.096 8.22273 214.28 8.19161C214.477 8.15791 214.619 8.17988 214.704 8.2556Z" fill="#8499A8"></path></svg>