<svg xmlns="http://www.w3.org/2000/svg" width="329" height="51" viewBox="0 0 329 51" fill="none"><path fill-rule="evenodd" clip-rule="evenodd" d="M163.015 0.226562C163.746 2.12305 163.153 3.89502 162.007 5.57031C160.871 7.22339 159.513 8.78247 157.219 9.51221C156.332 9.79419 155.269 9.83569 154.296 9.79688C153.315 9.7583 152.349 9.33252 151.375 9.33252C114.82 9.31396 78.2665 9.3147 41.7113 9.31543L19.5849 9.31592C16.7582 9.31592 13.9213 9.19971 11.1015 9.34082C9.74502 9.40796 8.39297 9.55713 7.0375 9.72437L5.90957 9.86621L4.82802 10.0024C4.41103 10.054 3.99306 10.104 3.57412 10.1506C3.56826 10.3784 3.62246 10.5999 3.71523 10.8179C3.87539 11.1948 4.15127 11.5615 4.43056 11.9329C5.23135 12.9973 6.06142 14.1006 4.2875 15.6021C4.04726 15.3027 3.80556 15.0173 3.56924 14.7388L3.36269 14.4944C2.93398 13.9868 2.53213 13.4949 2.20205 12.9731C2.1 12.8127 1.99502 12.6519 1.88906 12.491L1.70254 12.2095C1.01894 11.1804 0.324607 10.1353 0.0858375 9.03662C-0.45469 6.5542 1.6166 5.4375 4.6376 6.30273C5.15078 6.44946 5.76064 6.41577 6.34609 6.38354L6.6708 6.36646C6.97744 6.35132 7.28213 6.30493 7.58633 6.25854L7.59072 6.25781C7.75722 6.23242 7.92324 6.20703 8.08877 6.18677C8.29043 6.16211 8.49209 6.14526 8.69375 6.14526L34.7885 6.14282H35.0492C74.9853 6.1377 114.92 6.13257 154.857 6.23926C159.041 6.25024 160.371 4.34839 161.362 1.63086C161.574 1.05591 162.038 0.541748 162.384 0C162.596 0.0773926 162.807 0.1521 163.015 0.226562ZM323.886 12.7249L323.215 14.5352L323.208 14.5408L323.658 14.7949L324.108 15.0493C324.282 14.9307 324.473 14.8198 324.664 14.709C325.081 14.4663 325.5 14.2231 325.74 13.8967C326.658 12.6472 327.434 11.3286 328.224 10.0237C329.682 7.61035 328.563 6.21436 325.141 6.25586C324.558 6.26318 323.977 6.3501 323.396 6.43701C322.862 6.51685 322.328 6.59668 321.791 6.61523C320.436 6.6626 319.078 6.65796 317.718 6.65332C317.169 6.65137 316.621 6.64966 316.072 6.65112L314.337 6.65552C312.55 6.66016 310.762 6.66504 308.974 6.66504C292.665 6.67065 276.356 6.67065 260.047 6.67065H259.149C254.222 6.6709 249.293 6.6709 244.369 6.63184C243.856 6.62793 243.342 6.55615 242.829 6.48438L242.823 6.48364C242.26 6.40479 241.698 6.32593 241.137 6.33618C240.359 6.35083 239.581 6.37329 238.804 6.39966C237.927 6.42944 237.051 6.46436 236.174 6.49927L236.107 6.5022C234.579 6.56323 233.051 6.62378 231.521 6.65674C230.362 6.68237 229.201 6.6709 228.04 6.65942H228.023C226.699 6.64648 225.374 6.63354 224.052 6.67603C223.894 6.68091 223.737 6.68311 223.579 6.68286C223.396 6.68262 223.213 6.67896 223.03 6.67285C222.404 6.65186 221.781 6.60181 221.156 6.55151L221.148 6.55078C219.657 6.43066 218.159 6.30981 216.608 6.58496C216.029 6.68799 215.434 6.73584 214.831 6.75195C214.019 6.77344 213.191 6.73779 212.362 6.70215L212.346 6.70142C211.698 6.67358 211.049 6.64575 210.407 6.64575C207.982 6.64282 205.544 6.77563 203.14 6.60156C200.933 6.44116 198.816 6.26978 196.568 6.57104C196.38 6.59619 196.191 6.6145 196.001 6.62769C195.689 6.64917 195.376 6.65576 195.061 6.65259C194.465 6.64648 193.864 6.60522 193.258 6.56372C192.077 6.48267 190.877 6.40039 189.658 6.57666C189.481 6.60205 189.305 6.62158 189.128 6.63623C188.934 6.6521 188.74 6.66235 188.545 6.66772C188.139 6.6792 187.731 6.67017 187.321 6.65137C186.946 6.63428 186.569 6.60889 186.191 6.58325C185.06 6.50708 183.912 6.42993 182.747 6.56543C182.257 6.62256 181.765 6.66235 181.27 6.68921C180.667 6.72217 180.06 6.73633 179.452 6.73975C178.681 6.74414 177.908 6.73169 177.133 6.71899H177.12C176.649 6.71143 176.178 6.70386 175.707 6.69995C174.988 6.69409 174.269 6.69727 173.553 6.72314C172.095 6.77563 171.087 6.31396 170.429 5.42383C170.182 5.09033 169.959 4.74512 169.749 4.39404C169.543 4.04932 169.348 3.69922 169.153 3.34912C168.941 2.96851 168.729 2.58789 168.502 2.21436C168.204 1.7251 167.851 1.26074 167.522 0.782471C166.237 2.91113 166.691 4.84888 167.83 6.67603C169.126 8.75757 171.256 9.97388 174.263 9.96558C177.642 9.9563 181.021 9.93726 184.4 9.91821C187.998 9.89771 191.596 9.87744 195.193 9.8689C200.121 9.85718 205.051 9.85669 209.981 9.85791L219.591 9.8606C225.067 9.8606 230.547 9.86353 236.024 9.87183C237.368 9.87402 238.711 9.88062 240.054 9.88721L241.849 9.89575C243.253 9.90186 244.658 9.90552 246.063 9.9021C254.179 9.88281 262.299 9.83862 270.415 9.82471C273.56 9.82007 276.704 9.82788 279.849 9.83569L280.026 9.83643C282.588 9.84302 285.151 9.84961 287.715 9.84961C293.877 9.85229 300.04 9.84692 306.203 9.83569C308.719 9.83228 311.234 9.82349 313.749 9.8147L318.306 9.7998C320.475 9.79419 322.643 9.7998 324.971 9.7998L323.886 12.7249ZM169.543 15.2185C169.801 15.1033 170.064 14.9878 170.338 14.8752L170.345 14.8723C172.53 16.2991 175.272 16.4395 177.887 16.5735L178.506 16.6057C181.797 16.7842 185.108 16.7466 188.419 16.709L190.035 16.6917C190.803 16.6841 191.571 16.6785 192.338 16.6775C205.144 16.6638 217.951 16.6277 230.758 16.625C234.655 16.6238 238.552 16.6357 242.45 16.6477L242.659 16.6484C244.953 16.6555 247.246 16.6626 249.54 16.6672L251.594 16.6702L253.764 16.6719C254.864 16.6721 255.964 16.6711 257.064 16.6692C260.706 16.6616 264.349 16.647 267.993 16.6301L273.391 16.6038C280.002 16.571 286.614 16.5383 293.225 16.5337C295.282 16.533 297.339 16.5471 299.395 16.5676L301.782 16.5938L303.758 16.6177C306.763 16.6543 309.769 16.6909 312.777 16.6997C313.996 16.7024 314.866 16.99 315.558 17.7612C315.984 18.2339 316.497 18.6597 316.958 19.113C318.607 20.7356 319.989 22.303 319.715 24.6858C319.258 28.6582 319.227 32.6694 319.203 36.6638C319.196 37.7866 319.232 38.9099 319.285 40.0334C319.301 40.3757 319.319 40.718 319.337 41.0603L319.415 42.4373C319.481 43.5637 319.546 44.6902 319.587 45.8167C319.611 46.4526 319.442 47.0884 319.386 47.7268L319.369 47.8967L319.338 48.1479V48.1531C319.325 48.2595 319.311 48.366 319.3 48.4722C319.287 48.6099 319.277 48.7468 319.279 48.8818C319.281 49.0432 319.298 49.2017 319.341 49.3552C319.545 50.0793 319.93 50.7732 321.194 50.635C322.359 50.5066 322.352 49.875 322.346 49.2273L322.345 49.0786C322.34 46.5393 322.333 44.0005 322.327 41.4619L322.32 38.9248C322.308 34.2 322.3 29.4751 322.31 24.7495C322.317 21.7778 321.998 18.9692 319.137 16.6748L318.977 16.5459L318.751 16.3618L318.39 16.0635C316.424 14.4365 314.638 12.9583 311 13.1943C306.302 13.499 301.565 13.4353 296.829 13.3716C294.86 13.3452 292.892 13.3188 290.925 13.3188L247.783 13.3213L220.969 13.3215C216.98 13.3215 212.991 13.3186 209.001 13.3157H208.859C198.352 13.3081 187.845 13.3005 177.339 13.3464C175.191 13.3574 173.206 13.2 171.571 12.0916C170.587 11.4253 169.988 11.699 169.246 12.2546C167.158 13.8164 162.821 13.8662 160.756 12.2959C159.81 11.5774 159.073 11.4224 157.988 12.144C156.706 12.998 155.189 13.4128 153.436 13.3823C150.611 13.334 147.784 13.3416 144.957 13.3491C143.916 13.3518 142.876 13.3547 141.835 13.3547L108.4 13.3696C89.932 13.3784 71.4647 13.3872 52.9955 13.3906L48.5028 13.3918C37.5917 13.396 26.6781 13.4001 15.7675 13.3271C14.0321 13.3162 12.8334 13.6477 11.9257 14.7949C11.8622 14.8745 11.7968 14.9531 11.7299 15.031C11.6791 15.0896 11.6278 15.1479 11.5756 15.2056C11.5043 15.2839 11.4315 15.3613 11.3568 15.438C11.1 15.7019 10.8246 15.9553 10.5399 16.1965C8.38906 18.01 6.86806 19.6272 7.2875 22.6597C7.79531 26.3293 7.65371 30.0564 7.51211 33.783C7.45156 35.3677 7.39101 36.9524 7.38076 38.5327C7.37246 39.7839 7.37051 41.0349 7.36855 42.2856L7.36465 44.1138L7.36172 44.8936L7.35537 46.0615C7.35146 46.6387 7.34609 47.2158 7.33926 47.7932C7.329 48.7551 7.87978 49.062 9.0331 49.0759C10.2387 49.0898 10.3251 48.5286 10.3251 47.8291C10.3251 47.4319 10.327 47.0354 10.33 46.6387L10.3393 45.6177L10.4213 37.6011C10.4794 31.8989 10.5375 26.1965 10.599 20.4951C10.62 18.48 12.8539 16.719 15.3793 16.719L35.2191 16.72C73.5766 16.7207 111.934 16.7214 150.291 16.7688C153.1 16.7715 155.55 16.1992 157.936 15.1572C158.054 15.1055 158.202 15.052 158.356 15.0056C158.483 14.9675 158.615 14.9341 158.74 14.9104C158.993 14.8623 159.217 14.8538 159.311 14.925C160.538 15.8481 162.01 16.2104 163.614 16.3181C164.629 16.3872 165.724 16.5559 166.655 16.3374C167.506 16.1394 168.298 15.7808 169.146 15.397L169.543 15.2185ZM164.951 7.43896C163.524 7.43628 162.239 8.56128 162.27 9.78027C162.298 10.9802 163.486 11.978 164.892 11.978C166.046 11.9807 167.387 10.5435 167.324 9.37671C167.276 8.44238 166.046 7.43896 164.951 7.43896ZM6.86513 14.1619C6.78896 13.283 7.19765 12.3015 8.52431 12.3181C9.18594 12.3264 10.1835 13.2192 10.3949 13.8496C10.724 14.8281 9.45644 15.9976 8.42763 16.0361C7.36416 16.0776 6.88222 15.5413 6.86513 14.1619ZM318.918 14.8958C318.965 15.6157 319.006 16.2454 319.979 16.1687C321.84 16.1494 322.037 15.0879 322.11 14.3442C322.155 13.9021 321.212 13.0369 320.631 12.9871C319.283 12.8708 318.829 13.6726 318.906 14.7175L318.918 14.8958Z" fill="white"></path></svg>