<svg xmlns="http://www.w3.org/2000/svg" width="440" height="22" viewBox="0 0 440 22" fill="none"><path fill-rule="evenodd" clip-rule="evenodd" d="M227.112 10.0303C227.307 10.1629 227.59 10.2486 228.081 10.4671L228.095 10.4588C231.092 8.70901 234.632 8.27761 238.505 8.5071C238.737 8.52151 238.971 8.52712 239.205 8.52785C239.452 8.52883 239.7 8.52443 239.949 8.51955L240.037 8.51784C240.299 8.51247 240.56 8.5071 240.821 8.5071C277.647 8.50979 314.469 8.5071 351.295 8.50979C356.233 8.51052 361.172 8.50783 366.11 8.50539C383.232 8.4966 400.354 8.48781 417.474 8.61208C420.277 8.63161 422.199 8.3052 423.928 7.18581C424.372 6.89748 424.828 6.61281 425.285 6.3279C425.822 5.9927 426.36 5.657 426.88 5.31447C427.812 4.69997 428.687 4.0635 429.394 3.36818C430.149 2.62722 430.33 0.910665 429.561 0.545675C428.023 -0.181376 426.475 0.634298 425.415 1.63479C424.331 2.65774 423.099 3.66677 421.63 4.4905C420.796 4.95778 419.364 5.25905 418.197 5.26174C399.221 5.31984 380.24 5.32815 361.265 5.32815L351.301 5.32766L333.028 5.32058L330.743 5.3196C322.168 5.31545 313.593 5.31154 305.017 5.31154C300.257 5.31154 295.496 5.30984 290.735 5.30788C273.429 5.30129 256.12 5.2947 238.814 5.37502C235.665 5.38894 232.435 5.94729 229.405 6.54983C228.6 6.71047 227.949 6.77248 227.322 6.72878C226.794 6.69216 226.283 6.58034 225.713 6.38967L225.549 6.33547C223.324 5.59206 221.245 4.89773 218.314 5.73171C217.71 5.90334 217.044 6.01784 216.363 6.13503C216.138 6.17385 215.911 6.21291 215.684 6.25442C214.896 6.39821 214.109 6.57155 213.394 6.86501C212.913 7.06423 211.782 6.88723 211.101 6.69362C208.071 5.82839 205.047 5.25905 201.562 5.25905C152.306 5.29738 103.053 5.29519 53.7958 5.29323L20.4296 5.29226C17.5155 5.29226 14.4345 3.3572 14.203 1.61013C14.1337 1.08205 13.3182 0.479269 12.5585 0.139425C12.0809 -0.0734656 10.6864 -0.0348914 10.3759 0.202902C9.80653 0.636984 9.35731 1.35305 9.54188 1.86428C9.71766 2.35183 10.1161 2.83059 10.5975 3.27443C10.8251 3.48488 11.0712 3.68752 11.3212 3.87966C13.0028 5.17043 14.7499 6.44484 16.663 7.61428C17.413 8.07302 18.6776 8.4822 19.7108 8.4822C35.4989 8.51784 51.285 8.51369 67.0731 8.50954L82.2489 8.5071C123.476 8.5071 164.709 8.50149 205.935 8.532C207.136 8.53469 208.424 8.79177 209.516 9.11526C209.925 9.23586 210.318 9.37844 210.705 9.51858C212.401 10.1333 213.976 10.7036 216.119 9.19533C216.492 8.93068 217.126 8.80227 217.877 8.73195C218.141 8.70705 218.421 8.68947 218.708 8.67556C219.027 8.66018 219.356 8.64943 219.687 8.63869L219.699 8.63796C220.017 8.62771 220.338 8.61745 220.65 8.6028C221.087 8.5823 221.511 8.55324 221.9 8.50442C224.347 8.19753 225.723 9.09304 227.112 10.0303ZM215.422 19.6695C215.66 20.5611 215.917 21.5261 218.148 21.8838C218.301 21.4304 218.476 21.1236 218.486 20.814C218.611 17.1568 215.832 14.4146 210.722 12.5569C209.513 12.1175 207.743 12.1367 206.227 12.1284C206.02 12.1275 205.812 12.1399 205.604 12.1612L205.417 12.1821L205.276 12.2009L204.992 12.2444C204.254 12.364 203.515 12.5352 202.771 12.5459C200.375 12.5806 197.976 12.5681 195.578 12.5557C194.347 12.5493 193.115 12.543 191.885 12.543L170.398 12.5447L149.694 12.5481C115.265 12.5545 80.8339 12.5608 46.4052 12.5293C43.1757 12.5266 39.9452 12.5498 36.7147 12.573C26.3602 12.6472 16.0038 12.7212 5.68348 11.9461C5.495 11.9326 5.31532 11.8889 5.1493 11.8487C5.07411 11.8306 5.00184 11.8133 4.9325 11.7993C4.95985 11.156 5.54969 10.5662 6.13856 9.97707C7.2284 8.88796 8.31532 7.80129 5.84071 6.38405C3.25575 8.36892 0.897348 10.398 0.203012 12.8279C-0.497183 15.2715 0.527231 15.7332 4.63661 15.689L4.99696 15.6863L5.40028 15.6858L6.05067 15.6897L6.51356 15.6958L7.4159 15.7129L8.70497 15.7449L8.74012 15.7456C9.69911 15.7705 10.6591 15.7954 11.6181 15.8023C12.6405 15.8091 13.663 15.813 14.6854 15.8152C15.6854 15.8174 16.6854 15.8179 17.6864 15.8179L19.6259 15.8169L21.8056 15.8162L34.2655 15.8262L50.2675 15.8418C70.662 15.8628 91.0556 15.8836 111.45 15.8687C133.998 15.8513 156.544 15.8006 179.091 15.75C188.972 15.7278 198.852 15.7056 208.734 15.6861C211.718 15.6807 214.085 17.0628 215.113 18.8181C215.264 19.0762 215.342 19.3687 215.422 19.6695ZM223.921 21.2425C221.618 18.0276 224.583 14.2154 227.895 12.8111C230.263 11.8076 233.325 11.9405 236.239 11.968C242.349 12.0264 248.462 12.0266 254.576 12.0269C256.56 12.0269 258.545 12.0269 260.529 12.0288L261.452 12.0296L283.328 12.0449C290.154 12.0486 296.979 12.051 303.804 12.051C308.38 12.051 312.956 12.0415 317.532 12.032L320.758 12.0254C322.895 12.021 325.033 12.0171 327.172 12.0149C336.804 12.0066 346.434 11.9956 356.066 12.0039C361.482 12.0095 366.902 12.062 372.318 12.073C374.591 12.0781 376.862 12.0667 379.134 12.055L381.353 12.044L383.391 12.0371L385.84 12.0303L387.457 12.0235L389.206 12.0149C393.818 11.992 398.431 11.9693 403.043 12.0315C409.237 12.1138 415.429 12.0696 421.62 12.0252C425.61 11.9966 429.6 11.968 433.592 11.9734C433.884 11.9734 434.176 11.9126 434.736 11.8491L434.314 11.1685C434.021 10.6951 433.741 10.2425 433.448 9.7925C433.401 9.72219 433.307 9.65383 433.215 9.58767C433.091 9.49758 432.972 9.41189 432.985 9.33083C433.119 8.57619 433.004 7.31569 433.601 7.1719C435.431 6.73781 435.57 7.95681 436.177 8.626C437.039 9.574 437.877 10.5305 438.633 11.5091C438.768 11.6853 438.933 11.8709 439.099 12.0593C439.633 12.6597 440.191 13.2908 439.948 13.7537C439.573 14.4671 438.002 15.3682 436.825 15.44C433.928 15.6157 430.991 15.5821 428.059 15.5484C427.303 15.5396 426.546 15.5308 425.79 15.5257C423.815 15.5117 421.84 15.4937 419.864 15.4739L416.05 15.4348C411.132 15.3833 406.214 15.3318 401.297 15.3184C386.639 15.2742 371.98 15.252 357.322 15.2881C352.987 15.2993 348.652 15.3579 344.317 15.4165C340.258 15.4715 336.198 15.5261 332.139 15.5423C329.834 15.552 327.528 15.4988 325.222 15.4456C324.122 15.4202 323.022 15.3948 321.923 15.3762C320.716 15.356 319.508 15.3438 318.3 15.3489C313.758 15.367 309.215 15.4234 304.672 15.4798L299.925 15.5369C297.756 15.5615 295.587 15.583 293.417 15.5977C289.729 15.6221 286.039 15.6101 282.349 15.5979C280.222 15.5908 278.094 15.5838 275.966 15.5838L274.384 15.585L272.784 15.5889L268.639 15.6038C265.031 15.6172 261.424 15.6267 257.819 15.5921C249.387 15.512 240.955 15.3904 232.533 15.1885C230.161 15.1304 228.724 15.7525 227.724 16.8582C227.654 16.9351 227.586 17.0127 227.518 17.0906L227.357 17.282C227.287 17.367 227.219 17.4522 227.151 17.5379L226.905 17.8567L226.7 18.1326L226.346 18.6199C226.051 19.0293 225.755 19.4392 225.431 19.8408C225.088 20.261 224.588 20.6343 223.93 21.2425H223.921ZM217.189 12.073C217.167 13.3391 218.778 14.4837 220.623 14.5113C222.146 14.5362 223.806 13.4856 223.875 12.4546C223.949 11.3599 222.17 10.0274 220.613 10.0081C218.635 9.98318 217.218 10.8401 217.189 12.073ZM11.2518 5.90017C12.7577 5.90017 14.3466 6.876 14.0136 7.97902C13.8192 8.62038 12.6786 9.37502 11.6464 9.65407C10.4696 9.97219 9.22254 8.86355 9.28309 7.64162C9.287 7.57546 9.28895 7.50832 9.2909 7.44094C9.31434 6.68776 9.33875 5.90261 11.2518 5.90017ZM428.141 5.90774C427.81 5.83816 427.479 5.76858 427.166 5.68728L426.239 6.25124C426.359 6.46364 426.474 6.67751 426.59 6.89138C426.951 7.56252 427.313 8.2344 427.819 8.86355C427.897 8.96316 429.515 8.80813 430.121 8.53469C431.424 7.94851 431.275 7.09987 430.186 6.51662C429.64 6.22292 428.891 6.06545 428.141 5.90774Z" fill="#1C1C1C"></path></svg>