<svg xmlns="http://www.w3.org/2000/svg" width="440" height="51" viewBox="0 0 440 51" fill="none"><path d="M227.808 14.8752C226.019 15.4253 224.532 16.05 222.883 16.3375C221.637 16.5559 220.173 16.3873 218.815 16.3182C216.67 16.2104 214.702 15.8482 213.061 14.9249C212.797 14.7757 211.769 14.9775 211.222 15.1571C208.03 16.1993 204.755 16.7715 200.998 16.7688C140.855 16.7135 80.7117 16.7218 20.5687 16.719C17.1914 16.719 14.2033 18.4799 14.1755 20.4951C14.055 28.8684 13.9438 37.2444 13.828 45.6177C13.8187 46.3558 13.8095 47.0911 13.8095 47.8292C13.8095 48.5286 13.6936 49.0897 12.0814 49.0759C10.5387 49.0621 9.80209 48.7552 9.81599 47.7932C9.86695 44.7054 9.84379 41.6204 9.87159 38.5326C9.91791 33.2361 10.7148 27.8898 9.7465 22.6596C9.18593 19.6271 11.2197 18.01 14.0967 16.1965C14.7777 15.7653 15.417 15.2954 15.9498 14.795C17.1636 13.6478 18.7666 13.3161 21.0876 13.3271C37.6823 13.4101 54.2816 13.3935 70.8763 13.3907C110.482 13.3852 150.083 13.3658 189.689 13.3548C194.859 13.3548 200.034 13.3161 205.204 13.3824C207.548 13.4128 209.578 12.9982 211.292 12.144C212.742 11.4225 213.729 11.5773 214.993 12.296C217.755 13.8662 223.555 13.8164 226.348 12.2546C227.34 11.6989 228.141 11.4252 229.457 12.0915C231.644 13.2 234.298 13.3575 237.171 13.3465C256.619 13.2829 276.072 13.3216 295.521 13.3216C326.709 13.3216 357.892 13.3216 389.08 13.3188C398.035 13.3188 407.032 13.6257 415.927 13.1944C421.398 12.9291 423.738 14.8309 426.81 16.6748C430.636 18.9692 431.062 21.7778 431.053 24.7495C431.03 32.8601 431.081 40.968 431.1 49.0787C431.1 49.7753 431.238 50.4968 429.561 50.635C427.87 50.7732 427.356 50.0794 427.083 49.3551C426.888 48.8409 427.083 48.2715 427.143 47.7269C427.217 47.0883 427.444 46.4525 427.412 45.8167C427.264 42.7649 426.874 39.713 426.898 36.6639C426.93 32.6694 426.972 28.6583 427.583 24.6859C427.949 22.303 426.101 20.7356 423.896 19.1129C423.279 18.6596 422.594 18.2339 422.024 17.7612C421.097 16.9899 419.934 16.7024 418.304 16.6997C409.585 16.6803 400.871 16.531 392.156 16.5338C376.034 16.5421 359.912 16.6444 343.794 16.6692C332.069 16.6858 320.339 16.6223 308.613 16.625C291.486 16.6278 274.358 16.6637 257.231 16.6775C251.06 16.6831 244.87 16.8545 238.732 16.6057C234.993 16.4536 230.972 16.4122 227.817 14.8724L227.808 14.8752Z" fill="#1C1C1C"></path><path d="M432.261 14.5352C432.989 13.0673 433.721 11.5967 434.61 9.79983C431.497 9.79983 428.597 9.7943 425.697 9.79983C420.3 9.81089 414.907 9.83024 409.51 9.83577C401.268 9.84683 393.026 9.85236 384.785 9.84959C377.071 9.84959 369.362 9.81642 361.648 9.82471C350.794 9.83853 339.934 9.88276 329.08 9.90211C324.604 9.91041 320.129 9.87724 315.654 9.87171C308.329 9.86341 301 9.86065 293.676 9.86065C282.798 9.86065 271.92 9.84959 261.047 9.86894C251.717 9.88553 242.386 9.94634 233.056 9.96569C229.034 9.97399 226.185 8.75767 224.453 6.6761C222.928 4.84885 222.322 2.91103 224.04 0.782471C224.48 1.26071 224.953 1.72512 225.351 2.21441C226.218 3.28146 226.922 4.40655 227.927 5.42384C228.807 6.31397 230.156 6.77562 232.106 6.72309C236.206 6.61252 240.376 6.9166 244.401 6.56552C247.58 6.28909 250.66 6.89725 253.644 6.57658C256.817 6.2338 259.889 6.8696 262.886 6.57105C265.893 6.26974 268.724 6.44113 271.675 6.60146C274.89 6.77562 278.151 6.64293 281.394 6.64569C284.169 6.64569 287.046 6.93595 289.687 6.58487C293.106 6.13152 296.33 6.7535 299.643 6.6761C302.969 6.59593 306.305 6.71204 309.631 6.65675C313.921 6.58764 318.202 6.3969 322.492 6.33608C323.928 6.31673 325.374 6.62358 326.814 6.63187C333.801 6.67333 340.791 6.67057 347.782 6.67057C369.594 6.67057 391.405 6.67057 413.216 6.66504C416.38 6.66504 419.544 6.65675 422.709 6.65122C425.261 6.64569 427.814 6.68163 430.357 6.61528C431.858 6.57658 433.341 6.26974 434.837 6.25592C439.414 6.21445 440.911 7.61045 438.96 10.0237C437.904 11.3285 436.866 12.6471 435.639 13.8966C435.171 14.3721 434.198 14.6706 433.457 15.0494C433.054 14.8807 432.655 14.7093 432.252 14.5407L432.261 14.5352Z" fill="#1C1C1C"></path><path d="M218.014 0.226678C218.991 2.12303 218.199 3.89499 216.666 5.5702C215.146 7.22329 213.33 8.78239 210.263 9.51218C209.077 9.79415 207.655 9.83561 206.353 9.79691C205.042 9.75821 203.749 9.3325 202.448 9.3325C143.694 9.31039 84.9459 9.31591 26.1928 9.31591C22.4124 9.31591 18.6181 9.19981 14.847 9.34079C11.4929 9.46519 8.16191 9.86879 4.77997 10.1508C4.71974 11.9034 9.41276 13.2745 5.73432 15.6021C4.72437 14.6622 3.69589 13.8605 2.94538 12.9732C1.8613 11.696 0.513158 10.4078 0.114738 9.03671C-0.607979 6.55431 2.16243 5.43751 6.20224 6.30275C7.01761 6.47691 8.01366 6.39674 8.92169 6.36634C9.82972 6.33316 10.7285 6.14519 11.6272 6.14519C76.7875 6.14519 141.943 6.10925 207.104 6.23917C212.7 6.25023 214.479 4.34835 215.804 1.63098C216.087 1.05599 216.707 0.541816 217.171 0C217.453 0.0774022 217.736 0.15204 218.014 0.229442V0.226678Z" fill="#1C1C1C"></path><path d="M217.017 9.78039C216.976 8.5613 218.694 7.43621 220.603 7.43897C222.067 7.43897 223.712 8.44243 223.777 9.37679C223.86 10.5434 222.067 11.9808 220.524 11.9781C218.643 11.9781 217.054 10.9801 217.013 9.78039H217.017Z" fill="#1C1C1C"></path><path d="M9.18069 14.1619C9.07877 13.2828 9.62544 12.3015 11.3998 12.3181C12.2847 12.3264 13.6189 13.2193 13.9015 13.8495C14.3416 14.8281 12.646 15.9974 11.2701 16.0362C9.84781 16.0776 9.20385 15.5413 9.17606 14.1619H9.18069Z" fill="#1C1C1C"></path><path d="M427.935 16.1688C426.527 16.2517 426.578 15.5081 426.499 14.7175C426.397 13.6726 427.004 12.8709 428.806 12.987C429.585 13.0368 430.845 13.902 430.784 14.3443C430.687 15.0879 430.423 16.1495 427.935 16.166V16.1688Z" fill="#1C1C1C"></path></svg>