<svg xmlns="http://www.w3.org/2000/svg" width="55" height="55" viewBox="0 0 55 55" fill="none"><g clip-path="url(#clip0_1269_476)"><path d="M44 0C50.0751 0 55 4.92487 55 11V44C55 50.0751 50.0751 55 44 55H11C4.92487 55 0 50.0751 0 44V11C0 4.92487 4.92487 0 11 0H44ZM23.1157 35.194C25.209 36.1458 27.4212 36.4272 29.7524 36.0381C30.1989 35.9638 30.6137 35.8313 30.9968 35.6407C31.0083 35.6353 31.0183 35.6375 31.0267 35.6475L35.1476 40.5294C35.1513 40.5338 35.1559 40.5375 35.161 40.5402C35.1661 40.5428 35.1717 40.5445 35.1774 40.545C35.1831 40.5454 35.1889 40.5448 35.1943 40.543C35.1997 40.5412 35.2047 40.5384 35.209 40.5346L40.138 36.3367C40.1411 36.3341 40.1437 36.3308 40.1455 36.3272C40.1474 36.3235 40.1485 36.3195 40.1488 36.3154C40.149 36.3113 40.1485 36.3072 40.1472 36.3033C40.1458 36.2993 40.1437 36.2957 40.141 36.2925L36.3404 31.9082C36.3319 31.8983 36.3319 31.8883 36.3404 31.8783C36.8318 31.2956 37.2424 30.6558 37.5721 29.9589C38.3808 28.2503 38.74 26.4668 38.6497 24.6086C38.6078 23.74 38.4354 22.8306 38.1326 21.8803C37.0483 18.4733 34.522 15.6597 31.0821 14.6135C29.2687 14.0618 27.3695 13.9665 25.3846 14.3277C23.7578 14.624 22.2908 15.2638 20.9838 16.2471C18.4583 18.147 16.9168 21.2135 16.6025 24.3407C16.5676 24.6874 16.5506 25.1858 16.5516 25.8358C16.5566 30.7222 16.5703 35.6043 16.5928 40.4822C16.5928 40.5092 16.6065 40.5227 16.6339 40.5227H23.0304C23.0588 40.5227 23.0731 40.5084 23.0731 40.48V35.221C23.0731 35.216 23.0744 35.2112 23.0768 35.2069C23.0792 35.2026 23.0827 35.1989 23.0869 35.1962C23.0911 35.1936 23.096 35.192 23.101 35.1916C23.106 35.1912 23.1111 35.192 23.1157 35.194Z" fill="black"></path><path d="M23.1159 35.194C23.1112 35.192 23.1062 35.1912 23.1011 35.1916C23.0961 35.192 23.0913 35.1936 23.0871 35.1962C23.0828 35.1989 23.0794 35.2026 23.077 35.2069C23.0745 35.2112 23.0733 35.216 23.0732 35.2209V40.48C23.0732 40.5084 23.059 40.5227 23.0306 40.5227H16.6341C16.6067 40.5227 16.593 40.5092 16.593 40.4822C16.5705 35.6043 16.5568 30.7222 16.5518 25.8358C16.5508 25.1858 16.5678 24.6874 16.6027 24.3407C16.917 21.2135 18.4585 18.147 20.984 16.2471C22.291 15.2638 23.7579 14.624 25.3847 14.3277C27.3697 13.9665 29.2689 14.0618 31.0823 14.6135C34.5222 15.6597 37.0485 18.4733 38.1327 21.8803C38.4356 22.8306 38.6079 23.74 38.6498 24.6086C38.7401 26.4668 38.3809 28.2503 37.5723 29.9589C37.2425 30.6558 36.832 31.2956 36.3406 31.8783C36.3321 31.8883 36.3321 31.8982 36.3406 31.9082L40.1412 36.2925C40.1439 36.2957 40.146 36.2993 40.1473 36.3033C40.1487 36.3072 40.1492 36.3113 40.1489 36.3154C40.1486 36.3195 40.1475 36.3235 40.1457 36.3272C40.1439 36.3308 40.1413 36.334 40.1382 36.3367L35.2091 40.5346C35.2049 40.5384 35.1999 40.5412 35.1945 40.543C35.189 40.5448 35.1833 40.5454 35.1776 40.5449C35.1719 40.5445 35.1663 40.5428 35.1612 40.5402C35.156 40.5375 35.1515 40.5338 35.1478 40.5294L31.0269 35.6475C31.0184 35.6375 31.0084 35.6353 30.997 35.6407C30.6138 35.8313 30.199 35.9638 29.7525 36.0381C27.4213 36.4272 25.2091 36.1458 23.1159 35.194ZM26.3366 15.7375C23.2828 16.1999 20.5043 18.0587 19.0915 20.8132C18.4934 21.9795 18.1676 23.2556 18.1142 24.6415L18.097 38.8712C18.097 38.8793 18.1003 38.8871 18.1062 38.8928C18.1121 38.8986 18.1201 38.9018 18.1285 38.9018H21.5168C21.5247 38.9018 21.5323 38.8988 21.5379 38.8933C21.5435 38.8878 21.5467 38.8804 21.5467 38.8726V32.5548C21.5467 32.5163 21.5604 32.5106 21.5879 32.5375C22.1186 33.0549 22.7467 33.4762 23.4721 33.8014C24.8968 34.4397 26.5468 34.7211 28.1377 34.6657C30.7044 34.5774 33.1102 33.3128 34.7931 31.4076C36.4024 29.5853 37.1939 27.4222 37.1674 24.9184C37.1265 22.9673 36.5701 21.243 35.498 19.7454C33.9196 17.5424 31.7463 16.2059 28.9781 15.736C28.0991 15.6113 27.2186 15.6118 26.3366 15.7375Z" fill="white"></path><path d="M28.9777 15.736C29.0101 15.8053 29.0822 15.8495 29.194 15.8684C29.8864 15.9852 30.5915 16.1997 31.3094 16.512C31.9185 16.7774 32.4775 17.0807 32.9863 17.4219C34.2839 18.2924 35.2963 19.4146 36.0237 20.7885C36.2377 21.1931 36.4268 21.6458 36.5909 22.1467C36.7271 22.5622 36.8488 23.0399 36.9561 23.5797C36.9985 23.7917 37.0274 24.1878 37.0429 24.768C37.0444 24.8278 37.0646 24.9111 37.1035 25.0179C37.113 25.0443 37.1244 25.0453 37.1379 25.0209C37.1539 24.9934 37.1636 24.9593 37.1671 24.9184C37.1935 27.4222 36.4021 29.5853 34.7927 31.4076C33.1098 33.3128 30.704 34.5774 28.1374 34.6657C26.5465 34.7211 24.8965 34.4397 23.4717 33.8014C22.7464 33.4762 22.1183 33.0549 21.5875 32.5376C21.5601 32.5106 21.5463 32.5163 21.5463 32.5548V38.8727C21.5463 38.8804 21.5432 38.8878 21.5376 38.8933C21.532 38.8988 21.5243 38.9018 21.5164 38.9018H18.1281C18.1198 38.9018 18.1118 38.8986 18.1059 38.8929C18.1 38.8871 18.0967 38.8793 18.0967 38.8712L18.1139 24.6415C18.1852 24.5198 18.2226 24.4345 18.2261 24.3856C18.3239 23.1145 18.6497 21.9297 19.2034 20.8312C19.4748 20.2934 19.7716 19.8294 20.0939 19.4393C20.1612 19.358 20.3164 19.1769 20.5593 18.8961C20.7399 18.6865 20.9038 18.5134 21.051 18.3767C22.2038 17.3042 23.5231 16.5509 25.0087 16.1169C25.427 15.9942 25.9665 15.8916 26.3751 15.8033C26.405 15.7968 26.4085 15.7834 26.3856 15.7629C26.3736 15.7524 26.3572 15.744 26.3362 15.7375C27.2182 15.6118 28.0987 15.6113 28.9777 15.736ZM21.7214 25.7056C21.6661 25.8203 21.6456 25.9278 21.6601 26.0281C21.8282 27.1999 22.3051 28.2258 23.0908 29.1058C24.2592 30.4149 25.7298 31.1043 27.5028 31.1741C28.1029 31.1976 28.6881 31.119 29.2583 30.9384C29.2646 30.9366 29.2702 30.9331 29.2746 30.9283C29.279 30.9235 29.282 30.9176 29.2833 30.9112C29.2846 30.9048 29.2842 30.8982 29.282 30.8921C29.2798 30.8859 29.2761 30.8805 29.271 30.8763C29.2566 30.8649 29.2394 30.8609 29.2194 30.8644C29.4005 30.784 29.5816 30.7351 29.7627 30.7177C31.1515 30.2398 32.2196 29.3069 32.9669 27.919C33.347 27.2122 33.5346 26.5147 33.5296 25.8268C33.6224 24.6829 33.4368 23.6181 32.9729 22.6323C31.6005 19.7184 28.1157 18.4486 25.1853 19.7701C24.1427 20.24 23.3046 20.9519 22.671 21.9057C21.9267 23.0262 21.6102 24.2928 21.7214 25.7056Z" fill="#202020"></path><path d="M26.3366 15.7375C26.3575 15.744 26.374 15.7525 26.386 15.7629C26.4089 15.7834 26.4054 15.7969 26.3755 15.8033C25.9669 15.8916 25.4274 15.9942 25.0091 16.1169C23.5235 16.5509 22.2042 17.3042 21.0513 18.3767C20.9042 18.5134 20.7403 18.6865 20.5597 18.8961C20.3168 19.1769 20.1616 19.358 20.0943 19.4393C19.772 19.8294 19.4752 20.2934 19.2038 20.8312C18.65 21.9297 18.3243 23.1145 18.2265 24.3856C18.223 24.4345 18.1856 24.5198 18.1143 24.6415C18.1676 23.2556 18.4934 21.9796 19.0915 20.8132C20.5043 18.0587 23.2828 16.1999 26.3366 15.7375Z" fill="black"></path><path d="M28.9775 15.736C31.7457 16.2059 33.9191 17.5424 35.4975 19.7453C36.5695 21.2429 37.126 22.9673 37.1669 24.9183C37.1634 24.9592 37.1537 24.9934 37.1377 25.0209C37.1243 25.0453 37.1128 25.0443 37.1033 25.0179C37.0644 24.9111 37.0442 24.8278 37.0427 24.7679C37.0272 24.1878 36.9983 23.7917 36.9559 23.5796C36.8487 23.0399 36.7269 22.5622 36.5907 22.1466C36.4266 21.6458 36.2375 21.1931 36.0235 20.7885C35.2962 19.4146 34.2837 18.2924 32.9862 17.4219C32.4773 17.0807 31.9184 16.7773 31.3092 16.5119C30.5914 16.1997 29.8862 15.9851 29.1938 15.8684C29.0821 15.8495 29.01 15.8053 28.9775 15.736Z" fill="black"></path><path d="M33.5301 25.8268C33.3405 27.2167 32.7743 28.3825 31.8314 29.3244C31.2702 29.8851 30.5808 30.3495 29.7631 30.7177C29.582 30.7352 29.4009 30.7841 29.2199 30.8644C27.8794 31.2236 26.6018 31.1497 25.3871 30.6429C23.3405 29.7898 21.9239 27.9228 21.7219 25.7056C21.6106 24.2928 21.9272 23.0262 22.6715 21.9057C23.305 20.9519 24.1431 20.24 25.1858 19.7701C28.1161 18.4486 31.6009 19.7185 32.9733 22.6323C33.4373 23.6181 33.6228 24.6829 33.5301 25.8268ZM31.7663 25.1414C31.7663 24.5962 31.6589 24.0563 31.4503 23.5527C31.2417 23.049 30.9359 22.5913 30.5504 22.2058C30.1648 21.8203 29.7072 21.5145 29.2035 21.3058C28.6998 21.0972 28.1599 20.9898 27.6148 20.9898C27.0696 20.9898 26.5297 21.0972 26.026 21.3058C25.5223 21.5145 25.0647 21.8203 24.6792 22.2058C24.2936 22.5913 23.9878 23.049 23.7792 23.5527C23.5706 24.0563 23.4632 24.5962 23.4632 25.1414C23.4632 26.2425 23.9006 27.2984 24.6792 28.077C25.4577 28.8556 26.5137 29.2929 27.6148 29.2929C28.7158 29.2929 29.7718 28.8556 30.5504 28.077C31.3289 27.2984 31.7663 26.2425 31.7663 25.1414Z" fill="white"></path><path d="M27.6145 29.2929C29.9073 29.2929 31.766 27.4342 31.766 25.1414C31.766 22.8485 29.9073 20.9898 27.6145 20.9898C25.3216 20.9898 23.4629 22.8485 23.4629 25.1414C23.4629 27.4342 25.3216 29.2929 27.6145 29.2929Z" fill="black"></path><path d="M21.7221 25.7056C21.9241 27.9228 23.3407 29.7898 25.3873 30.6428C26.602 31.1497 27.8796 31.2235 29.2201 30.8643C29.24 30.8608 29.2572 30.8648 29.2717 30.8763C29.2767 30.8805 29.2805 30.8859 29.2827 30.892C29.2848 30.8982 29.2853 30.9048 29.284 30.9112C29.2827 30.9176 29.2797 30.9235 29.2753 30.9283C29.2708 30.9331 29.2652 30.9366 29.259 30.9384C28.6888 31.119 28.1036 31.1976 27.5035 31.1741C25.7305 31.1043 24.2598 30.4149 23.0915 29.1058C22.3058 28.2258 21.8289 27.1999 21.6607 26.0281C21.6463 25.9278 21.6667 25.8203 21.7221 25.7056Z" fill="black"></path><path d="M29.7627 30.7177C30.5803 30.3495 31.2698 29.8851 31.831 29.3243C32.7739 28.3825 33.3401 27.2166 33.5296 25.8268C33.5346 26.5147 33.347 27.2121 32.9669 27.919C32.2196 29.3069 31.1515 30.2398 29.7627 30.7177Z" fill="black"></path></g><defs><clipPath id="clip0_1269_476"><rect width="55" height="55" fill="white"></rect></clipPath></defs></svg>