<svg xmlns="http://www.w3.org/2000/svg" width="18" height="16" viewBox="0 0 18 16" fill="none"><g clip-path="url(#clip0_1266_386)"><path fill-rule="evenodd" clip-rule="evenodd" d="M15.4025 3.60385C14.6729 2.75371 13.7906 2.03938 12.7985 1.49557V1.49495H12.7998C11.7916 0.936873 10.6979 0.53878 9.56073 0.314931C9.39079 0.280826 9.22213 0.252923 9.05474 0.2306C9.58117 0.0365139 10.2481 -0.045957 11.0787 0.0253525C12.7972 0.171692 14.227 0.819057 15.3309 1.78142C15.2709 2.3643 15.2907 2.95214 15.3897 3.53006L15.3897 3.5302L15.3898 3.53023L15.3898 3.53027C15.3942 3.55501 15.3987 3.57973 15.4025 3.60385ZM0.748043 6.85792C0.754431 6.36 0.803624 5.86393 0.894343 5.37407C1.04895 4.50161 1.36007 3.66202 1.81239 2.89374C0.697572 4.02539 0.151982 5.54211 0.0344314 6.848C-0.00645589 7.30748 -0.0109279 7.76945 0.0210153 8.22955C0.308504 7.80169 0.551273 7.34655 0.744209 6.87095L0.748043 6.85792ZM2.96978 7.69948C2.11051 7.50663 1.4512 7.21333 1.13177 6.88655H1.13113C1.1356 6.40103 1.1816 5.91674 1.26976 5.43866C1.40903 4.64867 1.68311 3.88659 2.08048 3.18342C2.10092 5.18319 2.92761 6.64968 4.6436 7.90721C4.08012 7.8917 3.5192 7.82163 2.96978 7.69948ZM16.6106 6.64288C16.7479 7.13895 16.8316 7.64804 16.8604 8.16084H16.8572C16.3301 7.79748 15.5794 7.58603 15.1175 7.48309C14.3426 7.30947 13.4923 7.23382 12.833 7.27537C12.2165 6.8841 11.5744 6.53313 10.9093 6.22557C10.5216 6.02466 10.1708 5.82872 9.85139 5.64269C10.7995 5.45171 11.7699 5.38474 12.7365 5.44364C14.3273 5.5379 15.6912 5.96079 16.6106 6.64288ZM0.631504 10.8806C0.833385 10.4006 1.00652 9.90952 1.15026 9.40973C1.363 10.0342 1.65688 10.6294 2.02487 11.1813C2.10728 11.4479 2.37305 12.3948 2.31427 13.4322C1.58533 12.698 1.01354 11.8305 0.631504 10.8806ZM5.20113 14.0503C6.20926 14.6077 7.30299 15.0058 8.44017 15.2284C8.47577 15.2355 8.51138 15.2423 8.54691 15.2491L8.54697 15.2491C8.58602 15.2566 8.62498 15.264 8.66377 15.2718C8.75832 15.288 8.85224 15.3022 8.94615 15.3152C8.41973 15.5093 7.75275 15.5912 6.92223 15.5199C5.20368 15.3766 3.77391 14.7262 2.66867 13.7644C2.72872 13.1815 2.70892 12.5937 2.6099 12.0158L2.60398 11.9815C2.60174 11.9682 2.59952 11.955 2.59712 11.942C3.3267 12.7921 4.20897 13.5065 5.20113 14.0503ZM7.02769 12.6788C6.58368 12.6534 6.14159 12.6038 5.70333 12.5287C5.29892 12.4593 4.89836 12.3681 4.50418 12.2559C3.92026 12.091 3.35358 11.8746 2.81119 11.6085C2.82132 11.6207 2.83136 11.6325 2.84142 11.6444L2.8415 11.6445L2.84151 11.6445L2.84153 11.6445C2.85806 11.664 2.87463 11.6835 2.89168 11.7047C3.59124 12.5201 4.43837 13.2052 5.39028 13.7267C6.36327 14.265 7.41868 14.6494 8.51624 14.8652C8.85804 14.934 9.20494 14.9787 9.55376 14.9991C10.1447 14.5862 10.4482 13.9742 10.5082 13.2958C10.544 12.9752 10.5255 12.6515 10.4539 12.3365C9.45538 12.6255 8.25495 12.7489 7.02769 12.6788ZM1.14438 7.38272L1.1444 7.38317L1.14374 7.38272H1.14438ZM1.1444 7.38317C1.17254 7.89583 1.25558 8.40476 1.39226 8.90068C2.31158 9.58277 3.67556 10.0057 5.26633 10.1005C6.23229 10.1588 7.20209 10.0919 8.15016 9.90087C7.83073 9.71484 7.48 9.5189 7.09221 9.31799C6.42715 9.01043 5.78445 8.65946 5.16859 8.26819C4.50928 8.30974 3.65895 8.23409 2.88401 8.06047C2.42166 7.95758 1.67143 7.74626 1.1444 7.38317ZM15.0302 7.84348C15.8895 8.03633 16.5488 8.32963 16.8682 8.65641V8.65703H16.8695C16.8657 9.14318 16.819 9.6287 16.7309 10.1074C16.591 10.8968 16.3162 11.6576 15.9195 12.3595C15.8991 10.3598 15.0724 8.89328 13.3564 7.63576C13.9199 7.65126 14.4808 7.72133 15.0302 7.84348ZM0.943905 8.68848C0.868519 8.35921 0.815494 8.02499 0.784189 7.68891C0.589336 8.07522 0.351678 8.44045 0.0756888 8.77715C0.145964 9.31042 0.266709 9.83563 0.435369 10.3478C0.618723 9.86043 0.775245 9.36375 0.904296 8.85962L0.943905 8.68848ZM5.24202 10.47C4.45302 10.4297 3.67297 10.2921 2.91975 10.062C2.4489 9.91753 1.99787 9.71911 1.57494 9.47169C1.75957 9.97086 1.99914 10.4489 2.28983 10.8979C3.0111 11.335 3.7918 11.673 4.6089 11.9018C5.40301 12.1275 6.2214 12.2645 7.04745 12.3104C8.23318 12.378 9.38825 12.2608 10.3395 11.9849C10.0718 11.3344 9.5058 10.7714 8.59669 10.1798C7.5004 10.4434 6.36897 10.5413 5.24202 10.47ZM15.0808 5.48347C14.3275 5.2528 13.5469 5.11576 12.7579 5.07546V5.0736C11.6309 5.00291 10.4995 5.1015 9.40382 5.36566C8.49663 4.77472 7.92868 4.21106 7.661 3.5606C8.61227 3.28466 9.76734 3.16746 10.9537 3.23505C11.7798 3.28094 12.5975 3.41798 13.3916 3.64369C14.2087 3.8725 14.9894 4.21044 15.7107 4.6476C16.0014 5.09654 16.2409 5.57462 16.4256 6.07379C16.0026 5.82638 15.5516 5.62795 15.0808 5.48347ZM17.2164 7.85389C17.4113 7.4682 17.6489 7.10421 17.9243 6.76813C17.8559 6.23423 17.7365 5.70779 17.5685 5.1956C17.3851 5.68298 17.2286 6.17967 17.0995 6.68379L17.0586 6.85494C17.1334 7.18358 17.1858 7.51656 17.2164 7.85203V7.85389ZM17.3694 4.66492C17.1676 5.14486 16.9944 5.63597 16.8507 6.13575V6.13389C16.6379 5.51009 16.3441 4.91543 15.9761 4.36418C15.8937 4.09755 15.6279 3.15068 15.6867 2.11328C16.4156 2.84746 16.9874 3.71495 17.3694 4.66492ZM10.9763 2.86474C11.8311 2.91186 12.6776 3.05324 13.4998 3.28639C14.0818 3.45134 14.6479 3.66836 15.189 3.93376C15.1788 3.92155 15.1687 3.9097 15.1587 3.89783L15.1586 3.89778C15.1421 3.87832 15.1255 3.85882 15.1085 3.83765C14.4083 3.02286 13.5618 2.33829 12.6099 1.8168C11.6369 1.27857 10.5815 0.894117 9.48391 0.678329C9.14212 0.608879 8.79585 0.564233 8.44703 0.544391C7.85608 0.957365 7.55262 1.56939 7.48874 2.24776C7.45296 2.56834 7.47149 2.89202 7.54304 3.20702C8.54286 2.91806 9.74584 2.79467 10.9763 2.86474ZM17.2566 8.67555C17.4496 8.19995 17.6924 7.74481 17.9798 7.31695C18.0118 7.77581 18.0073 8.23591 17.9664 8.69415C17.8508 10 17.3033 11.5168 16.1897 12.6497C16.6421 11.8814 16.9532 11.0418 17.1078 10.1693C17.1979 9.6807 17.2458 9.18526 17.2515 8.68857L17.2566 8.67555Z" fill="#E4D2C5"></path></g><defs><clipPath id="clip0_1266_386"><rect width="18" height="15.5455" fill="white"></rect></clipPath></defs></svg>