<svg xmlns="http://www.w3.org/2000/svg" width="13" height="13" viewBox="0 0 13 13" fill="none"><path d="M4.12579 4.34562L5.66867 1.32336C5.81159 1.0487 6.04117 0.911377 6.3574 0.911377C6.67363 0.911377 6.9032 1.0487 7.04612 1.32336L8.58901 4.34562L12.0546 4.85042C12.3708 4.88081 12.5768 5.04094 12.6724 5.33079C12.7669 5.62064 12.7034 5.87249 12.4817 6.08635L9.96646 8.44587L10.559 11.7889C10.6062 12.0788 10.5033 12.3116 10.2501 12.4875C9.99684 12.6623 9.73576 12.6813 9.46679 12.5445L6.3574 10.9878L3.248 12.5445C2.97904 12.6965 2.71795 12.6813 2.46475 12.4989C2.21154 12.3154 2.10857 12.0788 2.15583 11.7889L2.75003 8.44587L0.233138 6.08635C0.0114399 5.87249 -0.0521434 5.62064 0.0423876 5.33079C0.138044 5.04094 0.343987 4.88081 0.660215 4.85042L4.12579 4.34562Z" fill="#CAB574"></path></svg>