<svg xmlns="http://www.w3.org/2000/svg" width="40" height="40" viewBox="0 0 40 40" fill="none"><g clip-path="url(#clip0_1252_306)"><path d="M10 31.6667C10 32.5867 9.25333 33.3333 8.33333 33.3333C7.41333 33.3333 6.66667 32.5867 6.66667 31.6667C6.66667 30.7467 7.41333 30 8.33333 30C9.25333 30 10 30.7467 10 31.6667ZM40 23.3333V40H8.33333C3.73833 40 0 36.2617 0 31.6667V0H16.6667V11.5483L24.8317 3.38167L36.6167 15.1667L28.4517 23.3317H40V23.3333ZM16.5833 32.8467L34.2617 15.1683L24.8333 5.74L16.6683 13.9067V31.6683C16.6683 32.0683 16.64 32.4617 16.585 32.8483L16.5833 32.8467ZM1.66667 10H15V1.66667H1.66667V10ZM1.66667 20H15V11.6667H1.66667V20ZM15 31.6667V21.6667H1.66667V31.6667C1.66667 35.3483 4.65167 38.3333 8.33333 38.3333C12.015 38.3333 15 35.3483 15 31.6667ZM38.3333 25H26.785L14.225 37.56C13.9433 37.8417 13.6467 38.0983 13.3333 38.3333H38.3317L38.3333 25Z" fill="#FFB581"></path></g><defs><clipPath id="clip0_1252_306"><rect width="40" height="40" fill="white"></rect></clipPath></defs></svg>