<svg xmlns="http://www.w3.org/2000/svg" width="18" height="22" viewBox="0 0 18 22" fill="none"><path fill-rule="evenodd" clip-rule="evenodd" d="M6.5106 1.24221C5.8707 2.28929 7.09229 3.10369 8.89562 2.871C11.2224 2.63832 11.1061 1.00953 8.72111 0.776845C7.73219 0.660506 6.74327 0.893188 6.5106 1.24221ZM9.70999 1.82392C9.70999 2.11478 9.18645 2.40563 8.5466 2.40563C7.9067 2.40563 7.38316 2.11478 7.38316 1.82392C7.38316 1.4749 7.9067 1.24221 8.5466 1.24221C9.18645 1.24221 9.70999 1.4749 9.70999 1.82392ZM4.70537 4.9649C0.284397 6.88454 -1.46073 13.8651 1.38963 17.8788C5.17075 23.1724 14.0128 22.4162 16.4559 16.5991C19.7135 8.86233 12.3839 1.64915 4.70537 4.9649ZM13.1402 6.30284C15.4089 7.98977 16.805 11.0147 16.4559 13.6324C15.2343 23.6959 0.866106 22.9397 0.749762 12.818C0.633423 6.41915 8.02112 2.57988 13.1402 6.30284ZM6.91664 13.3421C6.80028 12.7022 7.55649 11.8297 8.95259 10.8989C12.0357 8.86294 12.3847 9.03745 10.6977 11.8297C9.1853 14.3891 7.26566 15.1454 6.91664 13.3421ZM7.84736 13.6329C8.3709 13.982 9.01079 13.4584 9.94151 11.8297C10.5232 10.8989 10.2905 10.9571 8.60356 12.2368C7.7892 12.8185 7.49833 13.4584 7.84736 13.6329Z" fill="#D6D090"></path></svg>