<svg xmlns="http://www.w3.org/2000/svg" width="20" height="21" viewBox="0 0 20 21" fill="none"><path d="M9.96763 20.0813C9.58853 20.0813 9.28338 19.7762 9.28338 19.3972C9.28338 17.0677 8.39111 14.8906 6.78224 13.259C5.16874 11.6274 3.00045 10.7307 0.684226 10.7307C0.305123 10.7307 0 10.4256 0 10.0466C0 9.66762 0.305123 9.36256 0.684226 9.36256C5.50161 9.36256 9.27876 5.58627 9.28338 0.765375C9.28338 0.38636 9.58853 0.0812988 9.96763 0.0812988C10.3467 0.0812988 10.6519 0.38636 10.6519 0.765375C10.6519 3.08107 11.5488 5.24885 13.1808 6.86198C14.8081 8.47511 16.9903 9.36256 19.3157 9.36256C19.6948 9.36256 20 9.66762 20 10.0466C20 10.421 19.6995 10.7261 19.325 10.7307C19.325 10.7307 19.3204 10.7307 19.3157 10.7307C16.9903 10.7307 14.8128 11.632 13.1808 13.2636C11.5488 14.8953 10.6472 17.0723 10.6519 19.3972C10.6519 19.7762 10.3467 20.0813 9.96763 20.0813ZM4.35043 10.0513C5.61256 10.5504 6.76836 11.3085 7.7531 12.2976C8.73322 13.2868 9.47758 14.4469 9.97226 15.718C10.4669 14.4515 11.2251 13.2868 12.2145 12.2976C13.2039 11.3085 14.3689 10.5504 15.6357 10.0559C14.3643 9.56593 13.2039 8.81714 12.2145 7.83725C11.2251 6.85736 10.4669 5.70182 9.96763 4.43536C9.47757 5.70182 8.72862 6.85273 7.7485 7.83263C6.76838 8.81252 5.61256 9.56131 4.35043 10.0513Z" fill="#D6D090"></path></svg>