<svg xmlns="http://www.w3.org/2000/svg" width="329" height="47" viewBox="0 0 329 47" fill="none"><g clip-path="url(#clip0_16549_525)"><path fill-rule="evenodd" clip-rule="evenodd" d="M170.2 34.491C170.296 34.5439 170.409 34.6056 170.542 34.6848L170.553 34.6765C172.794 32.9267 175.44 32.4954 178.336 32.7249C178.717 32.7562 179.103 32.7458 179.489 32.7353C179.682 32.7301 179.875 32.7249 180.068 32.7249C193.841 32.7262 207.613 32.7262 221.385 32.7262C235.147 32.7262 248.909 32.7262 262.673 32.7276C266.356 32.7282 270.039 32.7257 273.723 32.7231C286.535 32.7143 299.347 32.7054 312.157 32.8299C314.253 32.8493 315.69 32.5231 316.982 31.4035C317.314 31.1156 317.655 30.8313 317.996 30.5467L317.997 30.5456C319.12 29.609 320.247 28.6689 321.07 27.5859C321.635 26.8451 321.77 25.1284 321.195 24.7635C320.045 24.0365 318.888 24.8519 318.094 25.8526C317.284 26.8755 316.362 27.8845 315.264 28.7082C314.641 29.1754 313.57 29.4767 312.697 29.4795C298.508 29.5375 284.316 29.5458 270.127 29.5458C262.651 29.5473 255.174 29.5425 247.697 29.5377C241.155 29.5335 234.612 29.5293 228.07 29.5293C224.516 29.5293 220.963 29.5275 217.409 29.5257H217.407C204.461 29.5191 191.514 29.5126 178.568 29.5928C176.213 29.6067 173.798 30.1651 171.533 30.7677C170.424 31.0635 169.704 31.0248 168.772 30.6074L168.65 30.5528C166.985 29.8095 165.431 29.1156 163.24 29.9494C162.788 30.121 162.29 30.2355 161.781 30.3526C161.027 30.526 160.25 30.7049 159.561 31.0828C159.201 31.2819 158.356 31.1049 157.846 30.9114C155.581 30.0462 153.319 29.4767 150.714 29.4767C113.93 29.515 77.149 29.5129 40.3663 29.5109H40.3601C31.9988 29.5104 23.6373 29.5099 15.2757 29.5099C13.0968 29.5099 10.7932 27.5748 10.62 25.8278C10.5681 25.2998 9.95839 24.6971 9.39028 24.3571C9.03348 24.1443 7.9908 24.183 7.75871 24.4207C7.33263 24.8547 6.99661 25.5707 7.13517 26.0821C7.32916 26.8008 7.88341 27.5002 8.46538 28.0973C9.72283 29.3883 11.0288 30.6626 12.4594 31.832C13.0206 32.2909 13.9663 32.7 14.7388 32.7C26.5478 32.7356 38.3547 32.7315 50.1627 32.7275C53.9417 32.7262 57.7209 32.7249 61.5003 32.7249L73.8293 32.7247C100.547 32.724 127.267 32.7234 153.984 32.7497C154.881 32.7525 155.844 33.0096 156.662 33.333C156.967 33.4537 157.261 33.5961 157.55 33.7363C158.819 34.3509 159.996 34.9213 161.598 33.4132C162.085 32.9516 163.165 32.9046 164.265 32.8566C164.839 32.8316 165.418 32.8064 165.921 32.7221C167.75 32.4152 168.779 33.3109 169.818 34.248C169.911 34.3326 170.03 34.3981 170.2 34.491ZM161.077 43.8873C161.255 44.779 161.447 45.744 163.115 46.1016L163.119 46.0989C163.156 45.9487 163.195 45.8146 163.231 45.691C163.304 45.4437 163.364 45.2381 163.368 45.0318C163.462 41.3746 161.383 38.6323 157.562 36.7746C156.711 36.3609 155.489 36.3538 154.403 36.3474L154.202 36.3462C153.762 36.3433 153.321 36.4488 152.88 36.5544C152.46 36.6549 152.04 36.7555 151.618 36.7636C149.825 36.7983 148.03 36.7859 146.236 36.7735C145.317 36.7672 144.397 36.7608 143.477 36.7608C132.982 36.7608 122.486 36.7634 111.99 36.7659C86.2264 36.7722 60.4612 36.7784 34.6988 36.747C32.2855 36.7444 29.8712 36.7675 27.4568 36.7907H27.4556C19.7127 36.8649 11.9679 36.9392 4.24961 36.1637C4.10897 36.1504 3.97489 36.107 3.85076 36.0668C3.79454 36.0486 3.74026 36.031 3.68843 36.0172C3.7091 35.3739 4.15015 34.7841 4.59064 34.195C5.4051 33.1058 6.21763 32.0191 4.36739 30.6018C2.43444 32.5866 0.671224 34.6157 0.151614 37.0456C-0.371461 39.4893 0.394099 39.9509 3.46673 39.9067C4.47959 39.8922 5.49363 39.9274 6.50747 39.9626C7.23406 39.9879 7.96119 40.0131 8.68708 40.02C10.6823 40.0374 12.6774 40.036 14.6726 40.0346C15.2166 40.0342 15.7606 40.0338 16.3046 40.0338C23.3888 40.04 30.4731 40.0497 37.5574 40.0595C52.8163 40.0805 68.0753 40.1015 83.3343 40.0864C100.172 40.0691 117.008 40.0185 133.845 39.9679C141.255 39.9456 148.666 39.9233 156.076 39.9039C158.307 39.8984 160.077 41.2806 160.846 43.0359C160.959 43.2939 161.017 43.5864 161.077 43.8873ZM167.432 45.4602C165.71 42.2453 167.927 38.4332 170.404 37.0289C172.025 36.1096 174.083 36.1438 176.092 36.1773C176.276 36.1804 176.46 36.1834 176.643 36.1858C181.212 36.2442 185.783 36.2443 190.355 36.2445H190.356C191.839 36.2445 193.322 36.2445 194.805 36.2466C205.592 36.2576 216.379 36.2687 227.163 36.2687C230.587 36.2687 234.012 36.2591 237.438 36.2496L237.444 36.2495C239.841 36.2429 242.238 36.2362 244.635 36.2328L247.337 36.2296C253.638 36.222 259.939 36.2144 266.241 36.2217C268.392 36.2246 270.545 36.2408 272.697 36.257C274.596 36.2713 276.495 36.2856 278.393 36.2908C280.091 36.2959 281.788 36.2843 283.485 36.2726H283.486H283.487H283.489H283.491C284.551 36.2653 285.611 36.258 286.672 36.2549C288.119 36.2516 289.566 36.2421 291.013 36.2325C294.464 36.2098 297.915 36.187 301.366 36.2493C305.997 36.3317 310.624 36.2874 315.252 36.243C318.237 36.2145 321.223 36.1859 324.208 36.1913C324.349 36.1913 324.49 36.1659 324.685 36.1309L324.686 36.1308C324.73 36.1228 324.777 36.1144 324.827 36.1056C324.899 36.0931 324.977 36.0801 325.064 36.0669C324.972 35.8683 324.882 35.6743 324.794 35.4839C324.559 34.9748 324.336 34.4911 324.101 34.0102C324.066 33.9399 323.995 33.8715 323.926 33.8053C323.833 33.7155 323.745 33.6297 323.755 33.5486C323.781 33.3481 323.795 33.112 323.809 32.8707C323.847 32.2031 323.887 31.4952 324.215 31.3896C325.27 31.0552 325.573 31.702 325.865 32.3225C325.951 32.5074 326.037 32.69 326.141 32.8436C326.786 33.7918 327.413 34.7483 327.977 35.7269C328.079 35.903 328.202 36.0883 328.327 36.2766C328.725 36.8773 329.143 37.5085 328.961 37.9715C328.681 38.6847 327.506 39.5859 326.626 39.6578C324.459 39.8336 322.264 39.7998 320.071 39.766C319.505 39.7573 318.94 39.7486 318.375 39.7435C315.954 39.7205 313.533 39.6866 311.112 39.6527H311.111L311.11 39.6526H311.108C307.425 39.6011 303.742 39.5495 300.06 39.5362C289.1 39.4919 278.14 39.4698 267.179 39.5058C263.94 39.5172 260.7 39.5757 257.46 39.6343C254.423 39.6891 251.386 39.744 248.349 39.7601C246.626 39.7698 244.902 39.7166 243.178 39.6634C241.453 39.6101 239.727 39.5569 238.002 39.5666C234.607 39.5847 231.212 39.641 227.817 39.6973C225.01 39.7438 222.204 39.7904 219.396 39.8154C216.637 39.8399 213.877 39.8278 211.117 39.8156C209.527 39.8086 207.937 39.8015 206.347 39.8015C204.773 39.8015 203.199 39.8096 201.626 39.8176H201.625H201.624C198.675 39.8327 195.726 39.8477 192.778 39.8098C186.474 39.7297 180.169 39.608 173.871 39.4062C172.098 39.3482 171.024 39.9702 170.276 41.0759C169.89 41.6442 169.568 42.2396 169.247 42.8358C169.025 43.2459 168.804 43.6565 168.561 44.0587C168.393 44.3335 168.175 44.5883 167.907 44.9018L167.906 44.9023C167.764 45.0679 167.608 45.2501 167.439 45.4602H167.432ZM162.398 36.2909C162.38 37.5569 163.586 38.7014 164.965 38.729V38.7318C166.104 38.7539 167.344 37.7034 167.396 36.6723C167.452 35.5776 166.122 34.2452 164.958 34.2259C163.478 34.201 162.418 35.0579 162.398 36.2909ZM8.41325 30.1179C9.53907 30.1179 10.7273 31.0937 10.4778 32.1967C10.3323 32.8381 9.48019 33.5927 8.7077 33.8719C7.82782 34.1898 6.89599 33.0813 6.94102 31.8595C6.94358 31.7932 6.94514 31.7261 6.9467 31.6588C6.96416 30.9056 6.98236 30.1205 8.41325 30.1179ZM320.132 30.1253C319.885 30.0558 319.638 29.9862 319.404 29.905C319.288 29.999 319.173 30.093 319.057 30.187C318.942 30.281 318.827 30.375 318.711 30.469C318.8 30.6808 318.886 30.894 318.972 31.1073C319.243 31.7793 319.514 32.4518 319.892 33.0813C319.951 33.1808 321.16 33.026 321.614 32.7523C322.587 32.1663 322.476 31.3176 321.662 30.7343C321.254 30.4408 320.693 30.2831 320.132 30.1253Z" fill="white"></path></g><defs><clipPath id="clip0_16549_525"><rect width="329" height="47" fill="white"></rect></clipPath></defs></svg>