<svg xmlns="http://www.w3.org/2000/svg" width="131" height="33" viewBox="0 0 131 33" fill="none"><path d="M13.5675 17.0817H21.7703V21.6789H13.5675V29.1605H8.79005V21.6789H0.58728V17.0817H8.79005V9.64514H13.5675V17.0817Z" fill="#D4AF37"></path><path d="M41.6374 0.901532V26.5014H49.8852V31.9999H24.691V26.5014H34.8768V11.5381H25.0515V6.12967H32.3529C34.4712 6.12967 35.3726 5.31841 35.7332 3.33532L36.0937 0.901532H41.6374Z" fill="#D4AF37"></path><path d="M68.6481 0.901532V26.5014H76.8959V31.9999H51.7017V26.5014H61.8876V11.5381H52.0623V6.12967H59.3636C61.4819 6.12967 62.3833 5.31841 62.7439 3.33532L63.1045 0.901532H68.6481Z" fill="#D4AF37"></path><path d="M86.78 12.755H90.8814C99.1743 12.755 103.321 16.3606 103.321 22.3549C103.321 28.9802 98.6334 32.4506 91.1067 32.4506C83.58 32.4506 79.1631 29.2056 78.5772 23.031H85.2927C85.9687 26.1408 87.8617 27.6732 91.0166 27.6732C94.2616 27.6732 96.2447 25.7352 96.2447 22.5352C96.2447 19.2 94.1715 17.5324 90.025 17.5324H79.3885V16.4057L80.7857 0.856463H101.833V6.12967H86.3744L85.8786 11.5832L84.7068 12.5296V13.0254L86.78 12.755Z" fill="#D4AF37"></path><path d="M117.802 32.4957C113.791 32.4957 110.681 31.0985 108.427 28.3042C106.174 25.5098 105.047 21.5437 105.047 16.4507C105.047 11.3578 106.174 7.39164 108.427 4.59729C110.681 1.80294 113.791 0.405762 117.802 0.405762C125.779 0.405762 130.557 6.21981 130.557 16.4507C130.557 26.7267 125.87 32.4957 117.802 32.4957ZM123.751 16.4507C123.751 9.28458 121.813 5.99446 117.802 5.99446C113.836 5.99446 111.853 9.50993 111.853 16.4958C111.853 23.4366 113.836 26.907 117.802 26.907C121.768 26.907 123.751 23.4366 123.751 16.4507Z" fill="#D4AF37"></path></svg>