<svg xmlns="http://www.w3.org/2000/svg" width="48" height="48" viewBox="0 0 48 48" fill="none"><rect x="0.5" y="0.00195312" width="47.1193" height="47.1235" rx="23.5597" fill="#0B6754"></rect><path d="M18.6187 30.6924V28.0989L24.0607 23.3344C24.4687 22.9653 24.8159 22.6277 25.1025 22.3217C25.389 22.0109 25.6076 21.7001 25.7581 21.3892C25.9087 21.0736 25.984 20.7311 25.984 20.362C25.984 19.9492 25.8941 19.5971 25.7144 19.3057C25.5347 19.0094 25.287 18.7812 24.9713 18.6209C24.6556 18.4606 24.2938 18.3805 23.8858 18.3805C23.473 18.3805 23.1112 18.4655 22.8004 18.6355C22.4895 18.8006 22.2467 19.041 22.0718 19.3567C21.9019 19.6724 21.8169 20.0561 21.8169 20.5077H18.4001C18.4001 19.4927 18.6284 18.616 19.0849 17.8778C19.5415 17.1396 20.1826 16.5713 21.0082 16.1731C21.8387 15.77 22.8028 15.5684 23.9004 15.5684C25.032 15.5684 26.0155 15.7578 26.8509 16.1366C27.6863 16.5155 28.3322 17.0449 28.7888 17.7248C29.2501 18.3999 29.4808 19.1843 29.4808 20.0779C29.4808 20.6462 29.3667 21.2095 29.1384 21.7681C28.9102 22.3266 28.4998 22.9434 27.9073 23.6185C27.3196 24.2936 26.4842 25.1022 25.4012 26.0445L23.6163 27.6909V27.7856H29.663V30.6924H18.6187Z" fill="white"></path></svg>