<svg xmlns="http://www.w3.org/2000/svg" width="123" height="33" viewBox="0 0 123 33" fill="none"><path d="M25.0739 31.9999H0.645883V27.3577L13.9866 16.0451C16.7359 13.8366 18.088 11.6733 18.088 9.6451C18.088 7.25638 16.1951 5.40851 13.0852 5.40851C9.65991 5.40851 7.67683 7.39159 7.36134 10.8169H0.420532C1.09658 4.19161 5.6036 0.450789 13.3106 0.450789C16.8261 0.450789 19.6204 1.30712 21.7387 2.97472C23.857 4.64231 24.9387 6.76061 24.9387 9.32961C24.9387 12.9352 23.226 15.5493 19.3049 19.1549L12.4092 25.1492L9.88527 26.5013V27.1323L12.7247 26.5915H25.0739V31.9999Z" fill="#D4AF37"></path><path d="M50.0565 20.507H53.2114V25.8704H50.0565V31.9999H43.8819V25.8704H26.8904V21.0028L40.4115 0.85642H46.9466V1.98318L35.634 18.7943L33.6059 20.2817V20.8676L35.9946 20.507H43.8819V15.7296L46.0452 11.9437H50.0565V20.507Z" fill="#D4AF37"></path><path d="M61.6983 31.9999H55.2532V24.7436H61.6983V31.9999Z" fill="#D4AF37"></path><path d="M81.9171 14.3324V15.1437C86.965 16 89.6241 18.8394 89.6241 23.1211C89.6241 28.845 85.0721 32.4506 76.8242 32.4506C68.8919 32.4506 64.4299 28.845 63.7539 22.5352H71.1003C71.5059 25.6901 73.3989 27.2675 76.7341 27.2675C80.2045 27.2675 82.0974 25.5549 82.0974 22.8056C82.0974 19.9662 80.2045 18.569 76.4637 18.569H72.2721V13.431H76.3735C79.8439 13.431 81.5566 12.124 81.5566 9.46482C81.5566 7.0761 79.7087 5.54372 76.5989 5.54372C73.489 5.54372 71.5059 7.12117 71.1003 9.82538H64.0694C64.9708 3.74091 69.3426 0.450789 76.8693 0.450789C84.3059 0.450789 88.8129 3.56063 88.8129 8.60849C88.8129 11.4479 87.2805 13.8366 84.6213 14.6028L81.9171 14.3324Z" fill="#D4AF37"></path><path d="M97.2547 16.4958C92.7477 16.4958 90.0435 13.3859 90.0435 8.38314C90.0435 3.38035 92.7477 0.270508 97.2547 0.270508C101.717 0.270508 104.421 3.38035 104.421 8.38314C104.421 13.3859 101.717 16.4958 97.2547 16.4958ZM101.041 31.9999H96.5786V30.2872C96.5786 28.2591 96.8941 26.4563 97.48 24.8788C98.111 23.3014 98.9223 21.8591 99.9138 20.5971C100.905 19.3352 102.483 17.5774 104.646 15.2789C107.305 12.4845 109.153 10.2761 110.19 8.60849C111.226 6.94089 111.767 5.00287 111.767 2.88458V0.90149H116.229V2.56909C116.229 4.59724 115.914 6.40005 115.328 8.02258C114.742 9.60003 113.931 11.0423 112.894 12.3493C111.857 13.6563 110.28 15.4141 108.162 17.6225C105.503 20.3718 103.61 22.6253 102.573 24.2929C101.536 25.9605 101.041 27.8985 101.041 30.0168V31.9999ZM97.2547 12.5296C99.1927 12.5296 100.274 11.0873 100.274 8.42821C100.274 5.724 99.1927 4.19161 97.2547 4.19161C95.1815 4.19161 94.1448 5.58879 94.1448 8.38314C94.1448 11.0423 95.2716 12.5296 97.2547 12.5296ZM115.779 32.4055C111.272 32.4055 108.567 29.2957 108.567 24.2929C108.567 19.2901 111.272 16.1803 115.779 16.1803C120.24 16.1803 122.9 19.245 122.9 24.2929C122.9 29.2957 120.24 32.4055 115.779 32.4055ZM115.779 28.4394C117.717 28.4394 118.798 26.9971 118.798 24.338C118.798 21.6338 117.717 20.1014 115.779 20.1014C113.795 20.1014 112.669 21.5887 112.669 24.2929C112.669 26.952 113.795 28.4394 115.779 28.4394Z" fill="#D4AF37"></path></svg>