<svg xmlns="http://www.w3.org/2000/svg" width="48" height="48" viewBox="0 0 48 48" fill="none"><rect y="0.00195312" width="47.1193" height="47.1235" rx="23.5597" fill="#0B6754"></rect><path d="M23.4933 30.8964C22.3568 30.8964 21.349 30.7021 20.47 30.3136C19.5957 29.9202 18.9061 29.3786 18.401 28.689C17.8959 27.9993 17.6385 27.2052 17.6288 26.3067H21.2568C21.2713 26.6321 21.3758 26.9211 21.57 27.1737C21.7643 27.4213 22.029 27.6156 22.3641 27.7565C22.6992 27.8973 23.0805 27.9677 23.5079 27.9677C23.9353 27.9677 24.3117 27.8925 24.6371 27.7419C24.9673 27.5865 25.2247 27.3752 25.4093 27.1081C25.5939 26.8361 25.6837 26.5253 25.6788 26.1756C25.6837 25.8259 25.5841 25.5151 25.3802 25.2431C25.1762 24.9711 24.8872 24.7598 24.5132 24.6093C24.1441 24.4587 23.707 24.3834 23.2019 24.3834H21.7522V21.8191H23.2019C23.6439 21.8191 24.0324 21.7462 24.3675 21.6005C24.7075 21.4548 24.9722 21.2508 25.1616 20.9886C25.351 20.7214 25.4433 20.4155 25.4384 20.0706C25.4433 19.7355 25.3632 19.4417 25.198 19.1891C25.0378 18.9317 24.8119 18.7326 24.5205 18.5917C24.234 18.4509 23.9013 18.3805 23.5224 18.3805C23.1242 18.3805 22.7624 18.4509 22.437 18.5917C22.1164 18.7326 21.8614 18.9317 21.672 19.1891C21.4826 19.4465 21.383 19.7452 21.3733 20.0852H17.9274C17.9372 19.1964 18.1849 18.4145 18.6705 17.7394C19.1562 17.0594 19.8167 16.5276 20.6521 16.1439C21.4923 15.7602 22.4491 15.5684 23.5224 15.5684C24.5909 15.5684 25.5307 15.7554 26.3418 16.1294C27.1529 16.5033 27.7843 17.0133 28.2359 17.6592C28.6876 18.3003 28.9135 19.0264 28.9135 19.8375C28.9183 20.6777 28.6439 21.3698 28.0902 21.9138C27.5414 22.4577 26.8348 22.7928 25.9703 22.9191V23.0357C27.1262 23.1717 27.998 23.5456 28.5856 24.1576C29.1782 24.7696 29.472 25.5345 29.4671 26.4524C29.4671 27.3169 29.2121 28.0843 28.7022 28.7545C28.1971 29.4199 27.4929 29.9444 26.5895 30.3281C25.691 30.707 24.6589 30.8964 23.4933 30.8964Z" fill="white"></path></svg>