<svg xmlns="http://www.w3.org/2000/svg" width="55" height="46" viewBox="0 0 55 46" fill="none"><path d="M20.594 26.321C20.7941 22.7275 22.5381 19.5523 25.1805 17.3088C27.7663 15.1032 31.2392 13.7533 35.0518 13.7533C38.8456 13.7533 42.3185 15.1013 44.9043 17.3088C47.5467 19.5523 49.2831 22.7275 49.4907 26.321C49.6908 30.0095 48.2167 33.4509 45.6403 35.9987C42.9979 38.5845 39.2608 40.2196 35.0518 40.2196C30.8428 40.2196 27.0868 38.5959 24.4633 35.9987C21.8775 33.4509 20.4053 30.0286 20.6129 26.34L20.594 26.321Z" fill="white"></path><path d="M28.5023 25.8807C28.6051 24.034 29.5013 22.4023 30.8592 21.2494C32.188 20.116 33.9727 19.4223 35.932 19.4223C37.8815 19.4223 39.6662 20.115 40.995 21.2494C42.3529 22.4023 43.2453 24.034 43.352 25.8807C43.4548 27.7762 42.6972 29.5447 41.3733 30.8539C40.0154 32.1828 38.0949 33.023 35.932 33.023C33.769 33.023 31.8388 32.1886 30.4906 30.8539C29.1618 29.5447 28.4053 27.786 28.5119 25.8905L28.5023 25.8807Z" fill="#265787"></path><path d="M16.863 29.7887C16.8756 30.5117 17.1045 31.9186 17.4479 33.013C18.1695 35.3384 19.3975 37.4879 21.0948 39.3737C22.8407 41.318 24.994 42.8813 27.477 43.9952C30.0861 45.1579 32.9183 45.7539 35.8572 45.7539C38.7961 45.75 41.6283 45.1442 44.2375 43.9659C46.7205 42.8423 48.8738 41.279 50.6197 39.3248C52.3267 37.4195 53.5488 35.27 54.2666 32.9446C54.6303 31.7721 54.8602 30.5801 54.9523 29.3881C55.0425 28.2156 55.0047 27.0333 54.8389 25.8511C54.5149 23.555 53.7234 21.3957 52.511 19.4415C51.4053 17.634 49.9698 16.0609 48.2627 14.7321L48.2666 14.7291L31.0987 1.44104C31.0832 1.42931 31.0706 1.4166 31.0541 1.40585C29.929 0.534312 28.0279 0.537248 26.7961 1.41074C25.5449 2.29401 25.3994 3.7557 26.5148 4.67414L26.51 4.67903L33.6778 10.5512L11.8543 10.5746H11.8252C10.0211 10.5766 8.2849 11.7667 7.94543 13.2811C7.59237 14.8151 8.81836 16.0951 10.7 16.0951L10.6971 16.1019L21.7544 16.0804L1.96773 31.3227C1.94251 31.3412 1.91535 31.3607 1.89207 31.3793C0.0297935 32.8156 -0.571568 35.2094 0.602053 36.7141C1.79507 38.2481 4.3266 38.2578 6.20827 36.7229L16.9746 27.8316C16.9746 27.8316 16.8174 29.0334 16.83 29.7466L16.863 29.7887ZM44.6031 33.8044C42.382 36.0809 39.2685 37.3804 35.9125 37.3804C32.5468 37.3863 29.4334 36.1103 27.2122 33.8337C26.1259 32.7199 25.3305 31.4497 24.8359 30.0915C24.3538 28.753 24.1666 27.3362 24.2908 25.9097C24.4081 24.5125 24.8213 23.1739 25.4838 21.9721C26.1317 20.7899 27.026 19.7151 28.122 18.8064C30.285 17.038 33.0299 16.0706 35.9009 16.0706C38.7816 16.0667 41.5265 17.0174 43.6894 18.7869C44.7855 19.6897 45.6778 20.7606 46.3277 21.9428C46.9901 23.1446 47.4043 24.4734 47.5207 25.8804C47.6429 27.3069 47.4557 28.7236 46.9737 30.0622C46.4809 31.4301 45.6836 32.7003 44.5973 33.8142L44.6031 33.8044Z" fill="#EA7600"></path></svg>