<svg xmlns="http://www.w3.org/2000/svg" width="16" height="12" viewBox="0 0 16 12" fill="none"><path d="M5.55021 8.78672L14.0252 0.311719C14.2252 0.111719 14.4627 0.0117188 14.7377 0.0117188C15.0127 0.0117188 15.2502 0.111719 15.4502 0.311719C15.6502 0.511719 15.7502 0.749219 15.7502 1.02422C15.7502 1.29922 15.6502 1.53672 15.4502 1.73672L6.25021 10.9367C6.05021 11.1367 5.81687 11.2367 5.55021 11.2367C5.28354 11.2367 5.05021 11.1367 4.85021 10.9367L0.550207 6.63672C0.350207 6.43672 0.254374 6.19922 0.262707 5.92422C0.27104 5.64922 0.375207 5.41172 0.575207 5.21172C0.775207 5.01172 1.01271 4.91172 1.28771 4.91172C1.56271 4.91172 1.80021 5.01172 2.00021 5.21172L5.55021 8.78672Z" fill="#0B6754"></path></svg>