<svg xmlns="http://www.w3.org/2000/svg" width="18" height="16" viewBox="0 0 18 16" fill="none"><g clip-path="url(#clip0_329_471)"><path fill-rule="evenodd" clip-rule="evenodd" d="M15.4025 3.60433C14.6729 2.7542 13.7906 2.03987 12.7985 1.49606V1.49544H12.7998C11.7916 0.937361 10.6979 0.539269 9.56073 0.315419C9.39079 0.281315 9.22213 0.253411 9.05474 0.231088C9.58117 0.0370022 10.2481 -0.0454687 11.0787 0.0258408C12.7972 0.17218 14.227 0.819546 15.3309 1.78191C15.2709 2.36479 15.2907 2.95263 15.3897 3.53054C15.3942 3.55535 15.3987 3.58015 15.4025 3.60433ZM0.748043 6.85841C0.754431 6.36049 0.803624 5.86442 0.894343 5.37456C1.04895 4.5021 1.36007 3.66251 1.81239 2.89423C0.697572 4.02588 0.151982 5.5426 0.0344314 6.84849C-0.00645589 7.30797 -0.0109279 7.76993 0.0210153 8.23003C0.308504 7.80218 0.551273 7.34704 0.744209 6.87144L0.748043 6.85841ZM2.96978 7.69997C2.11051 7.50712 1.4512 7.21382 1.13177 6.88704H1.13113C1.1356 6.40151 1.1816 5.91723 1.26976 5.43915C1.40903 4.64916 1.6831 3.88708 2.08048 3.18391C2.10092 5.18367 2.92761 6.65017 4.6436 7.90769C4.08012 7.89219 3.5192 7.82212 2.96978 7.69997ZM16.6106 6.64337C16.7479 7.13944 16.8316 7.64852 16.8604 8.16133H16.8572C16.3301 7.79796 15.5794 7.58652 15.1175 7.48358C14.3426 7.30996 13.4923 7.23431 12.833 7.27586C12.2165 6.88458 11.5744 6.53362 10.9093 6.22606C10.5216 6.02515 10.1708 5.8292 9.85139 5.64318C10.7995 5.45219 11.7699 5.38522 12.7365 5.44413C14.3273 5.53838 15.6912 5.96128 16.6106 6.64337ZM0.631504 10.8811C0.833385 10.4011 1.00652 9.91001 1.15026 9.41022C1.363 10.0346 1.65688 10.6299 2.02487 11.1818C2.10728 11.4484 2.37305 12.3953 2.31427 13.4327C1.58533 12.6985 1.01354 11.831 0.631504 10.8811ZM5.20113 14.0508C6.20926 14.6082 7.30299 15.0063 8.44017 15.2289C8.47577 15.236 8.51138 15.2428 8.54691 15.2496L8.54697 15.2496C8.58602 15.2571 8.62498 15.2645 8.66377 15.2723C8.75832 15.2884 8.85224 15.3027 8.94615 15.3157C8.41973 15.5098 7.75275 15.5917 6.92223 15.5204C5.20368 15.3771 3.77391 14.7267 2.66867 13.7649C2.72872 13.182 2.70892 12.5942 2.6099 12.0163L2.60398 11.9819C2.60174 11.9687 2.59952 11.9555 2.59712 11.9425C3.3267 12.7926 4.20897 13.507 5.20113 14.0508ZM7.02769 12.6793C6.58368 12.6539 6.14159 12.6043 5.70333 12.5292C5.29892 12.4598 4.89836 12.3686 4.50418 12.2564C3.92026 12.0915 3.35358 11.875 2.81119 11.609C2.82132 11.6212 2.83136 11.633 2.84142 11.6449L2.8415 11.645L2.84151 11.645L2.84153 11.645C2.85806 11.6645 2.87463 11.684 2.89168 11.7051C3.59124 12.5205 4.43837 13.2057 5.39028 13.7272C6.36327 14.2655 7.41868 14.6499 8.51624 14.8657C8.85804 14.9345 9.20494 14.9792 9.55376 14.9996C10.1447 14.5867 10.4482 13.9746 10.5082 13.2963C10.544 12.9757 10.5255 12.652 10.4539 12.337C9.45538 12.626 8.25495 12.7494 7.02769 12.6793ZM1.14438 7.3832L1.1444 7.38366L1.14374 7.3832H1.14438ZM1.1444 7.38366C1.17254 7.89631 1.25558 8.40525 1.39226 8.90117C2.31158 9.58326 3.67556 10.0062 5.26633 10.101C6.23229 10.1593 7.20209 10.0923 8.15016 9.90136C7.83073 9.71533 7.48 9.51939 7.09221 9.31848C6.42715 9.01092 5.78445 8.65995 5.16859 8.26868C4.50928 8.31023 3.65895 8.23458 2.88401 8.06096C2.42166 7.95806 1.67143 7.74675 1.1444 7.38366ZM15.0302 7.84397C15.8895 8.03682 16.5488 8.33012 16.8682 8.6569V8.65752H16.8695C16.8657 9.14366 16.819 9.62919 16.7309 10.1079C16.591 10.8973 16.3162 11.6581 15.9195 12.36C15.8991 10.3603 15.0724 8.89377 13.3564 7.63624C13.9199 7.65175 14.4808 7.72182 15.0302 7.84397ZM0.943905 8.68897C0.868519 8.3597 0.815494 8.02548 0.784189 7.68939C0.589336 8.07571 0.351678 8.44093 0.0756887 8.77764C0.145964 9.31091 0.266709 9.83612 0.435369 10.3483C0.618723 9.86092 0.775245 9.36424 0.904296 8.86011L0.943905 8.68897ZM5.24202 10.4705C4.45302 10.4302 3.67297 10.2926 2.91975 10.0625C2.4489 9.91802 1.99787 9.7196 1.57494 9.47218C1.75957 9.97135 1.99914 10.4494 2.28983 10.8984C3.0111 11.3355 3.7918 11.6735 4.6089 11.9023C5.40301 12.128 6.2214 12.265 7.04745 12.3109C8.23318 12.3785 9.38825 12.2613 10.3395 11.9854C10.0718 11.3349 9.5058 10.7719 8.59669 10.1803C7.5004 10.4439 6.36897 10.5418 5.24202 10.4705ZM15.0808 5.48396C14.3275 5.25329 13.5469 5.11625 12.7579 5.07595V5.07409C11.6309 5.0034 10.4995 5.10199 9.40382 5.36614C8.49663 4.77521 7.92868 4.21155 7.661 3.56108C8.61227 3.28515 9.76734 3.16795 10.9537 3.23554C11.7798 3.28143 12.5975 3.41847 13.3916 3.64418C14.2087 3.87299 14.9894 4.21093 15.7107 4.64809C16.0014 5.09703 16.2409 5.57511 16.4256 6.07428C16.0026 5.82686 15.5516 5.62844 15.0808 5.48396ZM17.2164 7.85438C17.4113 7.46869 17.6489 7.1047 17.9243 6.76861C17.8559 6.23472 17.7365 5.70827 17.5685 5.19609C17.3851 5.68347 17.2286 6.18016 17.0995 6.68428L17.0586 6.85543C17.1334 7.18407 17.1858 7.51705 17.2164 7.85252V7.85438ZM17.3694 4.66541C17.1676 5.14535 16.9944 5.63646 16.8507 6.13624V6.13438C16.6379 5.51058 16.3441 4.91592 15.9761 4.36467C15.8937 4.09803 15.6279 3.15117 15.6867 2.11377C16.4156 2.84795 16.9874 3.71544 17.3694 4.66541ZM10.9763 2.86523C11.8311 2.91235 12.6776 3.05373 13.4998 3.28688C14.0818 3.45182 14.6479 3.66885 15.189 3.93425C15.1788 3.92204 15.1687 3.91019 15.1587 3.89833C15.1421 3.87885 15.1255 3.85933 15.1085 3.83813C14.4083 3.02335 13.5618 2.33878 12.6099 1.81729C11.6369 1.27906 10.5815 0.894605 9.48391 0.678817C9.14212 0.609368 8.79585 0.564722 8.44703 0.544879C7.85608 0.957854 7.55262 1.56987 7.48874 2.24824C7.45296 2.56883 7.47149 2.89251 7.54304 3.20751C8.54286 2.91855 9.74584 2.79516 10.9763 2.86523ZM17.2566 8.67604C17.4496 8.20044 17.6924 7.7453 17.9798 7.31744C18.0118 7.7763 18.0073 8.2364 17.9664 8.69464C17.8508 10.0005 17.3033 11.5173 16.1897 12.6501C16.6421 11.8819 16.9532 11.0423 17.1078 10.1698C17.1979 9.68119 17.2458 9.18575 17.2515 8.68906L17.2566 8.67604Z" fill="#D4AF37"></path></g><defs><clipPath id="clip0_329_471"><rect width="18" height="15.5455" fill="white" transform="translate(0 0.000488281)"></rect></clipPath></defs></svg>