<svg xmlns="http://www.w3.org/2000/svg" width="62" height="30" viewBox="0 0 62 30" fill="none"><path d="M25.6806 23.5314C25.6991 23.6547 25.7083 23.654 25.7083 23.5293V4.7231C25.7083 4.70748 25.7158 4.69981 25.731 4.70009C26.0501 4.70577 28.0429 4.70549 31.7095 4.69924C31.8733 4.69881 32.0355 4.75166 32.1853 4.81558C32.8149 5.08349 33.3612 5.49176 33.8242 6.04037C34.2531 6.54808 34.5921 7.11715 34.8413 7.74758C34.8854 7.85895 34.9285 7.97004 34.9709 8.08084C34.9759 8.09363 34.9774 8.0932 34.9754 8.07957L34.5335 4.65065C34.5313 4.63332 34.5387 4.62466 34.5558 4.62466L38.203 4.62508C38.2198 4.62508 38.2296 4.63361 38.2323 4.65065L39.9575 15.5779L39.9589 15.5798L39.9608 15.5783C39.9872 15.4803 40.0052 15.38 40.0148 15.2775C40.0206 15.2187 40.0292 15.164 40.0404 15.1134C40.0514 15.064 40.0612 15.0131 40.0697 14.9608C40.605 11.722 41.1476 8.45047 41.6975 5.14628C41.7201 5.01105 41.7405 4.87496 41.7586 4.73802C41.7598 4.72769 41.7647 4.71817 41.7723 4.71126C41.7799 4.70435 41.7897 4.70053 41.7999 4.70052H52.1589C52.1729 4.70052 52.1799 4.70776 52.1799 4.72225L52.1791 8.66298C52.1791 8.67066 52.1754 8.67449 52.1679 8.67449L49.105 8.67534C49.1001 8.67534 49.0954 8.67732 49.0919 8.68084C49.0884 8.68435 49.0864 8.68912 49.0864 8.69409L49.0868 13.0111C49.0868 13.015 49.0876 13.0189 49.0891 13.0225C49.0905 13.0262 49.0926 13.0295 49.0953 13.0322C49.098 13.035 49.1012 13.0372 49.1047 13.0387C49.1082 13.0402 49.1119 13.041 49.1157 13.041L52.0132 13.0388C52.0172 13.0388 52.0211 13.0405 52.024 13.0434C52.0269 13.0464 52.0285 13.0504 52.0285 13.0546V17.4547C52.0285 17.4741 52.0192 17.4837 52.0008 17.4837L49.1863 17.485C49.1728 17.485 49.1661 17.4921 49.1661 17.5063L49.1648 21.5012C49.1648 21.523 49.1756 21.534 49.197 21.534H52.1688C52.1716 21.534 52.1743 21.5351 52.1763 21.5371C52.1784 21.5391 52.1795 21.5418 52.1795 21.5446V25.7952C52.1795 25.8105 52.1721 25.8182 52.1572 25.8182L45.5015 25.8173C45.4782 25.8173 45.4665 25.8053 45.4665 25.7811C45.4656 19.0111 45.4656 12.2482 45.4665 5.49233C45.4665 5.4875 45.4643 5.48494 45.4599 5.48466C45.4552 5.48409 45.452 5.48622 45.4512 5.49105C44.3027 12.2599 43.1536 19.0284 42.0037 25.7965C42.0026 25.8028 41.9994 25.8085 41.9947 25.8126C41.9899 25.8168 41.9839 25.819 41.9777 25.819L37.8667 25.8182C37.8615 25.8182 37.8565 25.8162 37.8525 25.8127C37.8485 25.8092 37.8458 25.8044 37.8448 25.799L35.6711 12.3246C35.6656 12.2911 35.6589 12.2908 35.6509 12.3237C35.6432 12.3544 35.6414 12.3852 35.6455 12.4162C35.6472 12.4298 35.646 12.4432 35.6418 12.4563C35.6043 12.5709 35.6051 12.6889 35.5845 12.81C35.4147 13.8075 35.131 14.7524 34.7332 15.6448C34.3924 16.4094 33.8968 17.1543 33.2696 17.7002C33.2641 17.705 33.26 17.7114 33.258 17.7186C33.2561 17.7258 33.2562 17.7335 33.2585 17.7407L35.8803 25.7913C35.8814 25.7945 35.8817 25.7979 35.8812 25.8012C35.8808 25.8045 35.8795 25.8077 35.8776 25.8104C35.8757 25.8131 35.8732 25.8153 35.8703 25.8168C35.8674 25.8183 35.8642 25.8191 35.8609 25.819H32.2909C32.2838 25.8191 32.2769 25.8168 32.271 25.8126C32.2652 25.8084 32.2608 25.8025 32.2583 25.7956L29.7215 18.7814C29.7118 18.7547 29.707 18.7557 29.707 18.7844L29.7062 25.7926C29.7062 25.8097 29.6981 25.8182 29.6819 25.8182H22.4196C22.3982 25.8182 22.3854 25.8071 22.3813 25.785L22.0136 23.8233C22.0103 23.806 22.0003 23.7973 21.9835 23.7973L19.2428 23.7978C19.2274 23.7978 19.2174 23.8056 19.2127 23.8212L18.6264 25.7956C18.6214 25.8121 18.6105 25.8203 18.5938 25.8203C16.2586 25.8172 13.9812 25.8178 11.7615 25.822C11.7359 25.822 11.716 25.8229 11.7017 25.8246C11.6865 25.826 11.679 25.8189 11.679 25.8033L11.6794 18.1149C11.6794 18.0566 11.6728 18.0559 11.6596 18.1127C11.0932 20.5467 10.5258 22.9902 9.9575 25.4432C9.92449 25.5855 9.89464 25.7036 9.86796 25.7973C9.86383 25.8121 9.85434 25.8195 9.83949 25.8195L8 25.8182C7.98679 25.8182 7.97882 25.8117 7.97607 25.7986L6.33546 18.166C6.32694 18.1265 6.32267 18.1269 6.32267 18.1673L6.32309 25.6916C6.32309 25.7283 6.30548 25.7469 6.27027 25.7475L2.58222 25.8186C2.56076 25.8192 2.55003 25.8082 2.55003 25.7858V4.64597C2.55003 4.63176 2.55691 4.62466 2.57066 4.62466H7.21106C7.22344 4.62466 7.23086 4.63105 7.23334 4.64384C7.79368 7.64744 8.33244 10.5414 8.8496 13.3256C8.85922 13.3771 8.8661 13.415 8.87023 13.4394C8.8793 13.4928 8.88948 13.4931 8.90076 13.4403L10.7671 4.64554C10.7698 4.63162 10.7782 4.62466 10.7922 4.62466H15.2895C15.2935 4.62466 15.2974 4.62637 15.3003 4.6294C15.3031 4.63244 15.3047 4.63656 15.3047 4.64085L15.3055 23.6405C15.3055 23.6436 15.3072 23.6453 15.3105 23.6456L15.3229 23.6465C15.3229 23.6465 15.3259 23.6455 15.3262 23.6435C15.3402 23.4381 15.3637 23.2337 15.3967 23.0302C15.5158 22.2952 15.6365 21.5301 15.7586 20.7349C16.5806 15.3786 17.4064 10.0158 18.236 4.64639C18.2382 4.6319 18.2465 4.62466 18.2608 4.62466L22.8248 4.62508C22.8361 4.62508 22.8426 4.63077 22.8442 4.64213L25.6806 23.5314ZM29.6571 14.7516C31.2453 14.6306 31.8197 13.2506 31.8935 11.8187C31.9073 11.5514 31.886 11.2752 31.8296 10.9903C31.6567 10.1162 31.358 9.30351 30.6817 8.80149C30.3722 8.57178 30.0285 8.44394 29.6414 8.44777C29.6379 8.44777 29.6346 8.44925 29.6321 8.45189C29.6296 8.45453 29.6282 8.4581 29.6282 8.46183V14.7235C29.6282 14.7436 29.6378 14.753 29.6571 14.7516ZM20.6878 13.8975C20.6557 13.7032 20.6276 13.5123 20.6037 13.3248C20.5896 13.2168 20.5752 13.2167 20.5603 13.3244C19.9692 17.5516 19.6761 19.6657 19.6761 19.6657C19.6841 19.6665 19.688 19.667 19.688 19.667C19.688 19.667 20.3257 19.6664 21.6026 19.6661C21.6062 19.6661 21.6097 19.6653 21.6129 19.6637C21.6161 19.6621 21.619 19.6599 21.6213 19.657C21.6236 19.6542 21.6253 19.6509 21.6263 19.6473C21.6273 19.6437 21.6275 19.64 21.627 19.6363C21.3131 17.695 21.0001 15.782 20.6878 13.8975Z" fill="white"></path><path d="M59.9468 21.6282L59.9464 25.8779C59.9464 25.8829 59.9444 25.8878 59.9409 25.8914C59.9374 25.895 59.9327 25.897 59.9278 25.897H53.5581C53.5531 25.897 53.5484 25.895 53.5449 25.8914C53.5415 25.8878 53.5395 25.8829 53.5395 25.8779V4.64426C53.5395 4.63918 53.5415 4.6343 53.5449 4.6307C53.5484 4.62711 53.5531 4.62508 53.5581 4.62508L56.9878 4.62466C56.9903 4.62466 56.9927 4.62515 56.9949 4.62612C56.9972 4.62708 56.9992 4.62849 57.0009 4.63028C57.0027 4.63206 57.004 4.63417 57.005 4.6365C57.0059 4.63882 57.0064 4.64132 57.0064 4.64384V21.5919C57.0064 21.597 57.0084 21.6019 57.0118 21.6055C57.0153 21.6091 57.02 21.6111 57.025 21.6111L59.9282 21.609C59.9331 21.609 59.9378 21.611 59.9413 21.6146C59.9448 21.6182 59.9468 21.6231 59.9468 21.6282Z" fill="white"></path><path d="M0.0458015 0.501953H61.9546C61.9667 0.501953 61.9782 0.506892 61.9867 0.515683C61.9952 0.524475 62 0.536398 62 0.548831V29.4551C62 29.4675 61.9952 29.4794 61.9867 29.4882C61.9782 29.497 61.9667 29.502 61.9546 29.502H0.045389C0.0333511 29.502 0.0218061 29.497 0.0132941 29.4882C0.004782 29.4794 0 29.4675 0 29.4551L0.000412714 0.548831C0.000412714 0.536398 0.00519471 0.524475 0.0137068 0.515683C0.0222188 0.506892 0.0337637 0.501953 0.0458015 0.501953ZM60.3813 5.75314C60.3813 5.35563 60.2284 4.9744 59.9562 4.69332C59.6841 4.41223 59.3149 4.25432 58.9301 4.25432C58.5452 4.25432 58.1761 4.41223 57.9039 4.69332C57.6317 4.9744 57.4788 5.35563 57.4788 5.75314C57.4788 6.15065 57.6317 6.53188 57.9039 6.81296C58.1761 7.09405 58.5452 7.25196 58.9301 7.25196C59.3149 7.25196 59.6841 7.09405 59.9562 6.81296C60.2284 6.53188 60.3813 6.15065 60.3813 5.75314ZM25.6806 23.5314L22.8442 4.64213C22.8426 4.63077 22.8361 4.62508 22.8248 4.62508L18.2608 4.62466C18.2465 4.62466 18.2382 4.6319 18.236 4.64639C17.4064 10.0158 16.5806 15.3786 15.7586 20.7349C15.6365 21.5301 15.5158 22.2952 15.3967 23.0302C15.3637 23.2337 15.3402 23.4381 15.3262 23.6435C15.3259 23.6455 15.3229 23.6465 15.3229 23.6465L15.3105 23.6456C15.3072 23.6453 15.3055 23.6436 15.3055 23.6405L15.3047 4.64085C15.3047 4.63656 15.3031 4.63244 15.3003 4.6294C15.2974 4.62637 15.2935 4.62466 15.2895 4.62466H10.7922C10.7782 4.62466 10.7698 4.63162 10.7671 4.64554L8.90076 13.4403C8.88948 13.4931 8.8793 13.4928 8.87023 13.4394C8.8661 13.415 8.85922 13.3771 8.8496 13.3256C8.33244 10.5414 7.79368 7.64744 7.23334 4.64384C7.23086 4.63105 7.22344 4.62466 7.21106 4.62466H2.57066C2.55691 4.62466 2.55003 4.63176 2.55003 4.64597V25.7858C2.55003 25.8082 2.56076 25.8192 2.58222 25.8186L6.27027 25.7475C6.30548 25.7469 6.32309 25.7283 6.32309 25.6916L6.32267 18.1673C6.32267 18.1269 6.32694 18.1265 6.33546 18.166L7.97607 25.7986C7.97882 25.8117 7.98679 25.8182 8 25.8182L9.83949 25.8195C9.85434 25.8195 9.86383 25.8121 9.86796 25.7973C9.89464 25.7036 9.92449 25.5855 9.9575 25.4432C10.5258 22.9902 11.0932 20.5467 11.6596 18.1127C11.6728 18.0559 11.6794 18.0566 11.6794 18.1149L11.679 25.8033C11.679 25.8189 11.6865 25.826 11.7017 25.8246C11.716 25.8229 11.7359 25.822 11.7615 25.822C13.9812 25.8178 16.2586 25.8172 18.5938 25.8203C18.6105 25.8203 18.6214 25.8121 18.6264 25.7956L19.2127 23.8212C19.2174 23.8056 19.2274 23.7978 19.2428 23.7978L21.9835 23.7973C22.0003 23.7973 22.0103 23.806 22.0136 23.8233L22.3813 25.785C22.3854 25.8071 22.3982 25.8182 22.4196 25.8182H29.6819C29.6981 25.8182 29.7062 25.8097 29.7062 25.7926L29.707 18.7844C29.707 18.7557 29.7118 18.7547 29.7215 18.7814L32.2583 25.7956C32.2608 25.8025 32.2652 25.8084 32.271 25.8126C32.2769 25.8168 32.2838 25.8191 32.2909 25.819H35.8609C35.8642 25.8191 35.8674 25.8183 35.8703 25.8168C35.8732 25.8153 35.8757 25.8131 35.8776 25.8104C35.8795 25.8077 35.8808 25.8045 35.8812 25.8012C35.8817 25.7979 35.8814 25.7945 35.8803 25.7913L33.2585 17.7407C33.2562 17.7335 33.2561 17.7258 33.258 17.7186C33.26 17.7114 33.2641 17.705 33.2696 17.7002C33.8968 17.1543 34.3924 16.4094 34.7332 15.6448C35.131 14.7524 35.4147 13.8075 35.5845 12.81C35.6051 12.6889 35.6043 12.5709 35.6418 12.4563C35.646 12.4432 35.6472 12.4298 35.6455 12.4162C35.6414 12.3852 35.6432 12.3544 35.6509 12.3237C35.6589 12.2908 35.6656 12.2911 35.6711 12.3246L37.8448 25.799C37.8458 25.8044 37.8485 25.8092 37.8525 25.8127C37.8565 25.8162 37.8615 25.8182 37.8667 25.8182L41.9777 25.819C41.9839 25.819 41.9899 25.8168 41.9947 25.8126C41.9994 25.8085 42.0026 25.8028 42.0037 25.7965C43.1536 19.0284 44.3027 12.2599 45.4512 5.49105C45.452 5.48622 45.4552 5.48409 45.4599 5.48466C45.4643 5.48494 45.4665 5.4875 45.4665 5.49233C45.4656 12.2482 45.4656 19.0111 45.4665 25.7811C45.4665 25.8053 45.4782 25.8173 45.5015 25.8173L52.1572 25.8182C52.1721 25.8182 52.1795 25.8105 52.1795 25.7952V21.5446C52.1795 21.5418 52.1784 21.5391 52.1763 21.5371C52.1743 21.5351 52.1716 21.534 52.1688 21.534H49.197C49.1756 21.534 49.1648 21.523 49.1648 21.5012L49.1661 17.5063C49.1661 17.4921 49.1728 17.485 49.1863 17.485L52.0008 17.4837C52.0192 17.4837 52.0285 17.4741 52.0285 17.4547V13.0546C52.0285 13.0504 52.0269 13.0464 52.024 13.0434C52.0211 13.0405 52.0172 13.0388 52.0132 13.0388L49.1157 13.041C49.1119 13.041 49.1082 13.0402 49.1047 13.0387C49.1012 13.0372 49.098 13.035 49.0953 13.0322C49.0926 13.0295 49.0905 13.0262 49.0891 13.0225C49.0876 13.0189 49.0868 13.015 49.0868 13.0111L49.0864 8.69409C49.0864 8.68912 49.0884 8.68435 49.0919 8.68084C49.0954 8.67732 49.1001 8.67534 49.105 8.67534L52.1679 8.67449C52.1754 8.67449 52.1791 8.67066 52.1791 8.66298L52.1799 4.72225C52.1799 4.70776 52.1729 4.70052 52.1589 4.70052H41.7999C41.7897 4.70053 41.7799 4.70435 41.7723 4.71126C41.7647 4.71817 41.7598 4.72769 41.7586 4.73802C41.7405 4.87496 41.7201 5.01105 41.6975 5.14628C41.1476 8.45047 40.605 11.722 40.0697 14.9608C40.0612 15.0131 40.0514 15.064 40.0404 15.1134C40.0292 15.164 40.0206 15.2187 40.0148 15.2775C40.0052 15.38 39.9872 15.4803 39.9608 15.5783L39.9589 15.5798L39.9575 15.5779L38.2323 4.65065C38.2296 4.63361 38.2198 4.62508 38.203 4.62508L34.5558 4.62466C34.5387 4.62466 34.5313 4.63332 34.5335 4.65065L34.9754 8.07957C34.9774 8.0932 34.9759 8.09363 34.9709 8.08084C34.9285 7.97004 34.8854 7.85895 34.8413 7.74758C34.5921 7.11715 34.2531 6.54808 33.8242 6.04037C33.3612 5.49176 32.8149 5.08349 32.1853 4.81558C32.0355 4.75166 31.8733 4.69881 31.7095 4.69924C28.0429 4.70549 26.0501 4.70577 25.731 4.70009C25.7158 4.69981 25.7083 4.70748 25.7083 4.7231V23.5293C25.7083 23.654 25.6991 23.6547 25.6806 23.5314ZM59.9468 21.6282C59.9468 21.6231 59.9448 21.6182 59.9413 21.6146C59.9378 21.611 59.9331 21.609 59.9282 21.609L57.025 21.6111C57.02 21.6111 57.0153 21.6091 57.0118 21.6055C57.0084 21.6019 57.0064 21.597 57.0064 21.5919V4.64384C57.0064 4.64132 57.0059 4.63882 57.005 4.6365C57.004 4.63417 57.0027 4.63206 57.0009 4.63028C56.9992 4.62849 56.9972 4.62708 56.9949 4.62612C56.9927 4.62515 56.9903 4.62466 56.9878 4.62466L53.5581 4.62508C53.5531 4.62508 53.5484 4.62711 53.5449 4.6307C53.5415 4.6343 53.5395 4.63918 53.5395 4.64426V25.8779C53.5395 25.8829 53.5415 25.8878 53.5449 25.8914C53.5484 25.895 53.5531 25.897 53.5581 25.897H59.9278C59.9327 25.897 59.9374 25.895 59.9409 25.8914C59.9444 25.8878 59.9464 25.8829 59.9464 25.8779L59.9468 21.6282Z" fill="#FF171F"></path><path d="M60.1184 5.75357C60.1184 6.07897 59.9933 6.39104 59.7705 6.62113C59.5477 6.85123 59.2455 6.98049 58.9305 6.98049C58.6154 6.98049 58.3132 6.85123 58.0905 6.62113C57.8677 6.39104 57.7425 6.07897 57.7425 5.75357C57.7425 5.42816 57.8677 5.11609 58.0905 4.886C58.3132 4.65591 58.6154 4.52664 58.9305 4.52664C59.2455 4.52664 59.5477 4.65591 59.7705 4.886C59.9933 5.11609 60.1184 5.42816 60.1184 5.75357ZM59.176 5.79363C59.3812 5.75953 59.4959 5.64816 59.5201 5.45951C59.5387 5.31845 59.4689 5.13435 59.3373 5.07554C59.2589 5.04059 59.1622 5.02341 59.0472 5.02397C58.8511 5.02426 58.6482 5.02298 58.4386 5.02014C58.4325 5.02014 58.4266 5.02265 58.4223 5.02713C58.4179 5.0316 58.4155 5.03767 58.4155 5.044L58.4159 6.43756C58.4159 6.4546 58.4243 6.46284 58.4411 6.46228L58.5756 6.45801C58.5902 6.45745 58.5975 6.44963 58.5975 6.43458L58.5971 5.84945C58.5971 5.82871 58.6073 5.81848 58.6276 5.81877C58.8669 5.82388 58.9841 5.78595 59.1331 6.01907C59.228 6.16794 59.3163 6.3117 59.398 6.45034C59.3994 6.45259 59.4013 6.45445 59.4035 6.45579C59.4057 6.45712 59.4082 6.45788 59.4108 6.45801L59.6233 6.46142L59.6258 6.46079L59.6277 6.45901L59.6285 6.45657L59.6278 6.45418C59.5346 6.2894 59.4428 6.13896 59.3526 6.00287C59.3053 5.93156 59.2443 5.87289 59.1698 5.82687C59.1423 5.80982 59.1443 5.79874 59.176 5.79363Z" fill="#FF171F"></path><path d="M58.5958 5.21021C58.5958 5.20384 58.5982 5.19772 58.6026 5.19318C58.6069 5.18864 58.6128 5.18603 58.6189 5.18592L59.0716 5.18251C59.1053 5.18224 59.1388 5.18752 59.17 5.19805C59.2013 5.20857 59.2297 5.22414 59.2537 5.24385C59.2777 5.26356 59.2968 5.28703 59.3098 5.31292C59.3229 5.33881 59.3297 5.36662 59.3299 5.39474V5.43565C59.3302 5.49233 59.3036 5.54688 59.2557 5.58731C59.2079 5.62774 59.1429 5.65075 59.0749 5.65129L58.6222 5.6547C58.6191 5.65475 58.616 5.65417 58.6131 5.65297C58.6102 5.65178 58.6076 5.64999 58.6053 5.64773C58.6031 5.64547 58.6013 5.64278 58.6001 5.6398C58.5989 5.63683 58.5983 5.63363 58.5983 5.6304L58.5958 5.21021Z" fill="#FF171F"></path><path d="M29.6571 14.7516C29.6378 14.753 29.6282 14.7436 29.6282 14.7235V8.46183C29.6282 8.4581 29.6296 8.45453 29.6321 8.45189C29.6346 8.44925 29.6379 8.44777 29.6414 8.44777C30.0285 8.44394 30.3722 8.57178 30.6817 8.80149C31.358 9.30351 31.6567 10.1162 31.8296 10.9903C31.886 11.2752 31.9073 11.5514 31.8935 11.8187C31.8197 13.2506 31.2453 14.6306 29.6571 14.7516Z" fill="#FF171F"></path><path d="M20.6878 13.8975C21.0001 15.782 21.3131 17.695 21.627 19.6363C21.6275 19.64 21.6273 19.6437 21.6263 19.6473C21.6253 19.6509 21.6236 19.6542 21.6213 19.657C21.619 19.6599 21.6161 19.6621 21.6129 19.6637C21.6097 19.6653 21.6062 19.6661 21.6026 19.6661C20.3257 19.6664 19.688 19.667 19.688 19.667C19.688 19.667 19.6841 19.6665 19.6761 19.6657C19.6761 19.6657 19.9692 17.5516 20.5603 13.3244C20.5752 13.2167 20.5896 13.2168 20.6037 13.3248C20.6276 13.5123 20.6557 13.7032 20.6878 13.8975Z" fill="#FF171F"></path></svg>