<svg xmlns="http://www.w3.org/2000/svg" width="55" height="55" viewBox="0 0 55 55" fill="none"><path d="M45.2604 0.753906H9.73958C4.36056 0.753906 0 5.14496 0 10.5616V44.9462C0 50.3629 4.36056 54.7539 9.73958 54.7539H45.2604C50.6394 54.7539 55 50.3629 55 44.9462V10.5616C55 5.14496 50.6394 0.753906 45.2604 0.753906Z" fill="#001E36"></path><path d="M12.3845 38.622V14.8807C12.3845 14.7077 12.4584 14.6207 12.606 14.6207C12.9991 14.6207 13.358 14.6149 13.8994 14.6021C14.4402 14.5899 15.0244 14.5775 15.6519 14.5649C16.2792 14.5527 16.9434 14.5403 17.6444 14.5278C18.3453 14.5156 19.0402 14.5094 19.7289 14.5092C21.598 14.5092 23.1722 14.7445 24.4516 15.2151C25.6056 15.6082 26.6581 16.2555 27.5324 17.1099C28.2736 17.8505 28.8463 18.7442 29.2111 19.7293C29.5563 20.688 29.7312 21.7004 29.7278 22.7202C29.7278 24.7021 29.2727 26.3369 28.3626 27.6245C27.4465 28.9174 26.1588 29.8964 24.673 30.4296C23.1234 31.0119 21.4014 31.2094 19.5076 31.2094C18.9662 31.2094 18.585 31.2032 18.3638 31.1908C18.1425 31.1785 17.8104 31.1723 17.3677 31.1722V38.5849C17.3741 38.6303 17.37 38.6766 17.3555 38.7202C17.3411 38.7637 17.3168 38.8033 17.2846 38.8357C17.2524 38.8681 17.2131 38.8926 17.1699 38.9071C17.1267 38.9216 17.0807 38.9258 17.0356 38.9193H12.6428C12.4705 38.9193 12.3845 38.8206 12.3845 38.622ZM17.3677 19.0791V26.8226C17.687 26.8475 17.9822 26.8599 18.2531 26.8597H19.4707C20.3665 26.8567 21.2565 26.7136 22.1088 26.4356C22.8397 26.217 23.4929 25.7914 23.9904 25.2095C24.47 24.64 24.7099 23.8474 24.7099 22.8317C24.7294 22.113 24.5437 21.4038 24.1748 20.7882C23.7871 20.1929 23.2267 19.7324 22.5699 19.4692C21.7123 19.1336 20.7962 18.9756 19.8765 19.0048C19.2861 19.0048 18.7635 19.011 18.3085 19.0234C17.8531 19.0362 17.5395 19.0548 17.3677 19.0791Z" fill="#31A8FF"></path><path d="M43.9934 25.4146C43.3 25.0558 42.5615 24.7933 41.7981 24.6343C40.9569 24.44 40.0969 24.3403 39.2338 24.3371C38.767 24.3244 38.3008 24.3807 37.8502 24.5043C37.5634 24.5686 37.3085 24.7332 37.1307 24.9687C37.0105 25.1572 36.9465 25.3764 36.9463 25.6004C36.953 25.8176 37.0308 26.0266 37.1676 26.1948C37.3831 26.4487 37.6465 26.657 37.9424 26.8078C38.4685 27.0931 39.0105 27.3474 39.5658 27.5695C40.8041 27.9869 41.9873 28.5546 43.0894 29.26C43.8401 29.7371 44.4614 30.3946 44.8973 31.1734C45.2639 31.9108 45.4474 32.7268 45.4323 33.5513C45.4544 34.64 45.1454 35.7095 44.5468 36.6165C43.906 37.5371 43.0159 38.2528 41.9825 38.6785C40.8629 39.1737 39.4794 39.4214 37.8317 39.4216C36.7851 39.4322 35.7401 39.3326 34.7141 39.1243C33.9056 38.9751 33.1186 38.7255 32.3711 38.3813C32.2905 38.3393 32.2233 38.2751 32.1776 38.1962C32.1319 38.1172 32.1094 38.0267 32.1129 37.9354V33.9228C32.1084 33.8835 32.1147 33.8438 32.1309 33.8078C32.1472 33.7718 32.1729 33.7409 32.2052 33.7185C32.2369 33.7004 32.2733 33.6925 32.3095 33.6959C32.3457 33.6992 32.3801 33.7135 32.4081 33.737C33.2908 34.2612 34.2493 34.6435 35.249 34.8702C36.1302 35.0926 37.0341 35.2111 37.9424 35.2232C38.8031 35.2232 39.4365 35.1117 39.8425 34.8888C40.0259 34.8043 40.181 34.6681 40.2891 34.4966C40.3971 34.3252 40.4535 34.1259 40.4514 33.9228C40.4514 33.6012 40.2669 33.2916 39.8979 32.994C39.529 32.6967 38.7788 32.3376 37.6472 31.9165C36.4887 31.5104 35.3903 30.948 34.3819 30.2446C33.6607 29.7395 33.0669 29.0715 32.6479 28.294C32.285 27.5619 32.1016 26.7529 32.1129 25.9347C32.1108 24.9517 32.379 23.9872 32.8877 23.1482C33.4677 22.2242 34.3005 21.4888 35.286 21.0304C36.368 20.4859 37.7209 20.2134 39.3445 20.213C40.2954 20.2053 41.2454 20.2737 42.1855 20.4174C42.8663 20.5043 43.5319 20.6856 44.1633 20.9561C44.2134 20.9706 44.2595 20.9966 44.2979 21.032C44.3363 21.0675 44.366 21.1115 44.3847 21.1605C44.4096 21.2512 44.422 21.345 44.4216 21.4391V25.1916C44.4242 25.2353 44.4153 25.2789 44.3959 25.318C44.3764 25.3571 44.3472 25.3904 44.3109 25.4146C44.2616 25.4393 44.2073 25.4522 44.1522 25.4522C44.0971 25.4522 44.0427 25.4393 43.9934 25.4146Z" fill="#31A8FF"></path></svg>