<svg xmlns="http://www.w3.org/2000/svg" width="372" height="249" viewBox="0 0 372 249" fill="none"><rect width="372" height="249" fill="#F1E7DB"></rect><g clip-path="url(#clip0_506_2012)"><path d="M372 19.2041H2V229.093H372V19.2041Z" fill="#F1E7DB"></path><path d="M41.9795 164.022L168.821 193.57L327.107 126.747L332.022 74.3421L242.651 54.7266L48.2874 79.7074L41.9795 164.022Z" fill="#FF6023"></path><path d="M325.487 83.6753C336.159 83.6753 344.81 75.0143 344.81 64.3303C344.81 53.6464 336.159 44.9854 325.487 44.9854C314.816 44.9854 306.165 53.6464 306.165 64.3303C306.165 75.0143 314.816 83.6753 325.487 83.6753Z" fill="#ECA1FF"></path><path d="M317.334 62.6433C317.284 62.1413 317.269 61.6356 317.302 61.1299C317.345 60.5047 317.477 59.8478 317.897 59.3812C318.316 58.9147 319.092 58.7243 319.58 59.1181C319.56 58.5303 319.85 57.9424 320.329 57.6028C320.814 57.2594 321.407 57.2295 321.972 57.3527C322.434 57.4535 322.579 57.6214 322.566 57.0784C322.533 55.5387 322.214 53.9842 322.801 52.4763C323.494 50.6997 325.852 50.4179 326.525 52.3793C326.947 53.611 326.96 54.8837 327.038 56.1527C327.079 56.9533 327.118 57.752 327.159 58.5526C327.163 58.6161 327.17 58.6814 327.176 58.7449C327.195 58.687 327.217 58.631 327.234 58.5732C327.422 57.8864 327.607 57.1959 327.799 56.5092C328.119 55.354 328.539 54.2249 329.077 53.1519C329.474 52.3643 330.065 51.1886 331.089 51.1681C331.804 51.1532 332.494 51.5973 332.805 52.2356C333.277 53.1985 333.159 54.2697 332.997 55.2812C332.805 56.4812 332.47 57.7166 332.103 58.8998C331.75 60.0269 331.372 61.1821 331.072 62.3168C331.797 62.2757 332.598 62.2458 333.167 62.7777C334.151 63.6996 334.123 65.3605 333.721 66.5456C333.241 67.9601 332.078 68.994 331.534 70.3582C331.353 70.8098 331.469 71.3902 331.48 71.8679C331.493 72.495 331.506 73.122 331.519 73.7491C331.536 74.5105 331.428 75.0946 330.654 75.2999C329.704 75.5537 328.725 75.7198 327.746 75.8243C325.819 76.0296 323.864 75.9642 321.957 75.6227C320.631 75.3857 319.656 74.9173 319.358 73.5214C319.168 72.6294 319.194 71.7056 319.149 70.7949C319.101 69.8357 318.821 69.0705 318.56 68.171C318.24 67.0644 318.007 65.9111 317.731 64.7895C317.556 64.084 317.41 63.3637 317.338 62.6396L317.334 62.6433Z" fill="#134DE5"></path><path d="M326.603 76.1138C325.032 76.194 323.455 76.0951 321.917 75.8189C320.691 75.5987 319.507 75.1732 319.164 73.5664C319.017 72.8797 318.996 72.1724 318.976 71.4894C318.968 71.2617 318.963 71.034 318.952 70.8082C318.912 70.0337 318.715 69.3731 318.502 68.6751L318.368 68.2291C318.158 67.4976 317.982 66.738 317.811 66.0028C317.721 65.6127 317.632 65.2246 317.535 64.8401C317.33 64.0115 317.203 63.321 317.138 62.6641C317.084 62.1155 317.071 61.6079 317.104 61.1189C317.142 60.5852 317.25 59.8126 317.749 59.2527C318.163 58.7936 318.886 58.5958 319.399 58.7936C319.475 58.2562 319.77 57.7598 320.214 57.4444C320.689 57.1066 321.313 57.0096 322.01 57.1626C322.104 57.1831 322.184 57.2055 322.253 57.2242C322.288 57.2354 322.331 57.2466 322.363 57.254C322.366 57.2204 322.368 57.1682 322.368 57.0842C322.359 56.7166 322.335 56.3471 322.312 55.9794C322.234 54.8056 322.156 53.5907 322.618 52.4057C322.972 51.4931 323.781 50.8754 324.682 50.8306C325.582 50.7858 326.38 51.3531 326.708 52.318C327.081 53.4022 327.142 54.5238 327.202 55.6099L327.273 56.9442C327.284 57.1514 327.293 57.3567 327.304 57.562L327.606 56.4572C327.946 55.2385 328.38 54.0983 328.9 53.0644C329.308 52.2526 329.923 51.0321 331.032 50.9762C331.864 50.9594 332.628 51.4334 332.978 52.1537C333.476 53.1671 333.355 54.2719 333.187 55.3151C333.019 56.3639 332.723 57.5564 332.285 58.9616L332.05 59.7099C331.8 60.4993 331.545 61.313 331.325 62.1099C331.998 62.0819 332.74 62.1173 333.295 62.638C334.32 63.5972 334.339 65.3253 333.901 66.613C333.64 67.3856 333.182 68.0481 332.736 68.6882C332.337 69.2667 331.959 69.8117 331.711 70.435C331.593 70.7298 331.62 71.1068 331.646 71.4707C331.657 71.6069 331.664 71.7413 331.668 71.8682L331.709 73.7493C331.724 74.4585 331.659 75.2367 330.699 75.4942C329.798 75.735 328.809 75.9123 327.761 76.0242C327.375 76.0653 326.989 76.0951 326.602 76.1157L326.603 76.1138ZM318.892 59.1034C318.581 59.1184 318.256 59.277 318.044 59.5121C317.723 59.8686 317.55 60.3874 317.498 61.1432C317.466 61.6116 317.477 62.0968 317.529 62.6249C317.595 63.2613 317.718 63.9369 317.917 64.7468C318.014 65.1331 318.103 65.525 318.195 65.915C318.364 66.6447 318.538 67.4005 318.747 68.1209L318.877 68.5613C319.095 69.2854 319.3 69.9684 319.339 70.7895C319.35 71.0191 319.358 71.2486 319.367 71.4782C319.388 72.1444 319.408 72.833 319.546 73.4843C319.824 74.7888 320.722 75.2068 321.986 75.4326C323.865 75.7704 325.811 75.8357 327.72 75.6342C328.749 75.5241 329.716 75.3505 330.6 75.1154C331.224 74.9474 331.334 74.5089 331.319 73.7568L331.278 71.8757C331.277 71.7544 331.265 71.6275 331.258 71.4987C331.228 71.1087 331.196 70.6664 331.347 70.2875C331.612 69.6232 332.022 69.0335 332.415 68.4643C332.844 67.8466 333.286 67.2065 333.532 66.4861C333.927 65.3197 333.925 63.7652 333.027 62.9235C332.553 62.4794 331.879 62.4738 331.232 62.5055L331.079 62.5148H331.077C331.014 62.5186 330.956 62.4906 330.915 62.4421C330.876 62.3935 330.861 62.3282 330.878 62.2685C331.114 61.3802 331.401 60.4714 331.679 59.5905L331.914 58.844C332.348 57.4575 332.639 56.2836 332.803 55.2535C332.958 54.2737 333.075 53.238 332.63 52.3273C332.343 51.7413 331.728 51.3569 331.092 51.3681H331.09C330.173 51.4147 329.621 52.512 329.254 53.238C328.743 54.2532 328.318 55.371 327.987 56.5635L327.422 58.6276C327.411 58.6742 327.394 58.7227 327.375 58.7731C327.343 58.859 327.256 58.9317 327.159 58.9205C327.066 58.9075 326.989 58.8534 326.982 58.7619L327.176 58.747L326.974 58.7003C326.972 58.6537 326.967 58.6089 326.965 58.5641C326.937 58.0304 326.909 57.4985 326.883 56.9648L326.844 56.1642L326.814 55.6323C326.754 54.5742 326.695 53.4787 326.341 52.4467C326.065 51.6424 325.451 51.1852 324.704 51.2225C323.956 51.2598 323.285 51.7805 322.985 52.5494C322.555 53.6523 322.627 54.7701 322.706 55.9533C322.73 56.3284 322.754 56.7016 322.762 57.0749C322.767 57.2578 322.775 57.6385 322.443 57.6553C322.353 57.659 322.264 57.6329 322.148 57.6011C322.087 57.5825 322.012 57.5638 321.928 57.5452C321.341 57.4145 320.827 57.491 320.443 57.7635C320.02 58.0621 319.759 58.5921 319.775 59.1109C319.779 59.1874 319.736 59.2583 319.667 59.2919C319.6 59.3274 319.516 59.3162 319.457 59.2695C319.267 59.1165 319.043 59.0941 318.892 59.1016V59.1034Z" fill="black"></path><path d="M328.902 67.2586C328.577 67.2754 328.247 67.2586 327.919 67.1933C327.136 67.0328 326.495 66.4375 326.245 65.6388C325.996 64.84 326.176 64.0226 326.726 63.4497C327.47 62.6715 328.572 62.4774 329.541 62.3057L329.925 62.2367C330.287 62.1676 330.663 62.1135 331.04 62.0706C331.043 62.0706 331.047 62.0706 331.051 62.0706C331.153 62.065 331.245 62.1415 331.254 62.246C331.267 62.3524 331.189 62.4513 331.081 62.4625C330.714 62.5036 330.348 62.5577 329.996 62.6249L329.608 62.6958C328.652 62.8656 327.664 63.0392 327.006 63.7259C326.557 64.1943 326.411 64.868 326.616 65.5268C326.827 66.2005 327.343 66.682 327.994 66.8145C328.782 66.9712 329.629 66.7939 330.378 66.6353C330.475 66.6036 330.587 66.682 330.609 66.7865C330.632 66.891 330.564 66.9955 330.458 67.0179C329.97 67.1224 329.437 67.2362 328.896 67.2624L328.902 67.2586Z" fill="black"></path><path d="M328.104 63.0039C328.081 63.0039 328.059 63.0039 328.037 62.9964C326.758 62.6064 325.345 62.5 323.981 62.6867C323.865 62.7016 323.772 62.6251 323.759 62.5187C323.744 62.4123 323.818 62.3134 323.927 62.2985C325.362 62.1007 326.819 62.2164 328.15 62.6213C328.253 62.6531 328.313 62.7632 328.279 62.8658C328.255 62.9479 328.182 63.0002 328.102 63.0058L328.104 63.0039Z" fill="black"></path><path d="M322.187 64.8512C321.848 64.868 321.434 64.7933 320.944 64.547C320.845 64.4984 320.808 64.3809 320.857 64.2838C320.905 64.1887 321.021 64.1476 321.118 64.1961C321.794 64.5339 322.365 64.5488 322.814 64.2446C323.524 63.7594 323.759 62.6099 323.679 61.6861C323.559 60.3331 323.097 59.0193 322.228 57.5543C322.174 57.461 322.204 57.3416 322.297 57.2856C322.391 57.2296 322.51 57.2613 322.568 57.3528C323.468 58.87 323.943 60.2361 324.068 61.6506C324.162 62.6882 323.878 63.9946 323.036 64.5675C322.831 64.7056 322.551 64.8306 322.186 64.8493L322.187 64.8512Z" fill="black"></path><path d="M319.787 65.5656C318.279 65.6421 317.481 63.7405 317.134 62.5685C317.104 62.464 317.164 62.3558 317.266 62.3259C317.365 62.2923 317.477 62.3539 317.511 62.4584C317.762 63.3131 318.48 65.2409 319.779 65.1756C319.826 65.1737 319.871 65.1681 319.917 65.1607C320.202 65.1159 320.409 64.9964 320.549 64.7949C320.974 64.1865 320.732 62.9623 320.588 62.2307L320.562 62.0945C320.353 61.0121 319.969 59.9782 319.423 59.0228C319.369 58.9294 319.401 58.8081 319.496 58.754C319.587 58.7018 319.707 58.7316 319.762 58.8268C320.331 59.8215 320.728 60.8964 320.946 62.0199L320.974 62.1561C321.142 63.0015 321.393 64.2761 320.872 65.0207C320.668 65.31 320.366 65.4891 319.979 65.5507C319.913 65.56 319.85 65.5675 319.789 65.5694L319.787 65.5656Z" fill="black"></path><path d="M326.87 62.6449C326.87 62.6449 326.853 62.6449 326.846 62.6449C326.738 62.6374 326.658 62.5423 326.665 62.434L326.672 62.3332C326.745 61.4001 326.848 60.0584 326.965 58.7278C326.973 58.6177 327.06 58.5393 327.176 58.5486C327.284 58.5579 327.362 58.6531 327.353 58.7614C327.235 60.0919 327.133 61.4319 327.062 62.3631L327.056 62.4639C327.049 62.5628 326.967 62.6393 326.87 62.6449Z" fill="black"></path><path d="M89.4543 187.486C88.2185 173.872 76.1936 163.838 62.5956 165.075C48.9975 166.312 38.9746 178.351 40.2105 191.965" fill="#DDEF51"></path><path d="M280.118 111.987C281.145 108.451 284.074 106.032 287.737 105.693L296.941 104.842L298.095 100.87L298.136 100.727L298.861 98.2297L299.784 95.0515L299.955 94.46L300.876 91.2893L311.037 90.3506C309.21 91.6065 308.22 92.9278 307.626 94.9713L306.895 97.4869L303.133 110.44L302.289 113.348L301.601 115.718L301.23 116.996L301.145 117.291L300.953 117.948L297.562 129.623L296.339 133.833L296.168 134.423C295.959 135.149 296.119 135.878 296.615 136.472C297.113 137.067 297.812 137.356 298.572 137.287L290.538 138.03C289.776 138.101 289.079 137.81 288.581 137.214C288.085 136.621 287.925 135.891 288.134 135.165L288.305 134.576L288.497 133.911L288.514 133.857L288.671 133.323L288.723 133.146L288.758 133.025L284.564 137.248C284.292 137.522 284.04 137.763 283.807 137.976C283.431 138.291 283.026 138.554 282.599 138.763C281.321 139.392 279.863 139.529 278.48 139.144C277.98 139.006 277.492 138.799 277.026 138.523C274.181 136.841 273.755 133.824 274.385 131.681C274.491 131.319 274.595 130.968 274.694 130.631L276.044 126.019L277.106 122.365L277.766 120.092L279.384 114.523L280.12 111.985L280.118 111.987ZM295.841 108.626C296.822 105.217 292.715 105.394 290.093 108.102C289.142 109.083 288.423 110.311 288.014 111.72L287.416 113.783L285.798 119.351L284.48 123.888L282.372 131.147C282.022 132.359 282.519 133.611 283.602 134.251C286.165 135.766 289.304 131.133 289.89 129.121L291.043 125.144L292.917 118.692L294.667 112.665L295.84 108.624L295.841 108.626Z" fill="#F9F8F7"></path><path d="M235.134 112.873L237.402 115.492C238.228 116.46 238.795 117.946 238.914 119.226L240.251 133.736C240.368 135.016 240.088 136.641 239.447 137.685L237.695 140.674C236.851 142.167 235.229 143.238 233.646 143.384L223.903 144.283C222.38 144.423 220.591 143.668 219.487 142.356L217.219 139.737C216.398 138.829 215.765 137.289 215.647 136.009L214.311 121.499C214.193 120.219 214.54 118.649 215.176 117.545L216.926 114.555C217.778 113.124 219.398 112.052 220.921 111.911L230.664 111.011C232.246 110.865 234.036 111.621 235.134 112.873ZM231.208 120.921L230.321 119.958L222.891 120.644L222.255 121.749L223.413 134.309L224.244 135.339L231.674 134.652L232.366 133.482L231.208 120.922V120.921Z" fill="#F9F8F7"></path><path d="M174.689 148.107C177.049 147.889 179.252 142.678 180.328 136.471L183.739 116.554C184.814 110.347 184.356 105.383 181.998 105.599L182.074 105.103C185.523 104.783 192.878 103.188 194.856 102.15L195.341 102.105L192.367 119.48C194.31 116.065 197.069 114.221 201.181 113.842C209.466 113.077 210.924 117.645 210.173 122.049L208.018 134.402C207.075 140.047 207.554 141.284 208.944 141.156C210.637 140.999 211.422 138.911 211.798 137.044L212.644 136.966C212.143 140.127 211.276 145.948 204.139 146.607C197.788 147.193 197.365 143.263 198.064 138.924L200.58 124.524C201.209 120.741 201.209 116.772 197.822 117.084C194.556 117.386 192.015 122.26 190.377 130.962L189.586 135.615C188.511 141.822 188.969 146.786 191.327 146.569L191.251 147.066L174.618 148.602L174.695 148.105L174.689 148.107Z" fill="#F9F8F7"></path><path d="M83.0738 125.492L82.6898 125.527C82.7942 123.842 82.5463 122.67 81.9461 122.017C81.5957 121.632 81.4447 121.446 80.7046 121.255C80.5499 121.244 80.3934 121.25 80.2293 121.265C79.6776 121.315 79.1873 121.472 78.7605 121.724C78.3336 121.979 77.9794 122.323 77.6961 122.758C77.4128 123.192 77.2357 123.715 77.1611 124.325C77.053 125.452 77.3475 126.348 78.054 127.014C78.7605 127.681 79.7521 128.214 81.0383 128.61L86.0059 130.086C88.1272 130.754 89.8421 131.667 91.1562 132.837C92.4648 134.003 93.4248 135.42 94.0269 137.086C94.6308 138.753 94.8396 140.647 94.6476 142.769C94.4127 145.372 93.5497 147.763 92.051 149.942C90.5579 152.126 88.5522 153.914 86.0395 155.306C83.5268 156.698 80.6953 157.538 77.5414 157.829C74.2738 158.131 71.5541 157.838 69.3509 156.971C69.3583 156.957 69.3658 156.948 69.3732 156.935C68.1243 156.472 67.0581 155.823 66.1708 154.987C63.7495 152.716 62.7 149.351 63.0206 144.891L74.9038 143.793C74.9038 143.793 74.9019 143.81 74.9019 143.819L75.2859 143.784C75.1815 145.473 75.4295 146.641 76.0259 147.296C76.3745 147.677 76.7846 147.933 77.2637 148.058C77.4184 148.069 77.5787 148.063 77.7427 148.048C78.2982 147.996 78.7866 147.845 79.2172 147.593C79.644 147.337 79.9982 146.99 80.2815 146.559C80.563 146.12 80.7419 145.602 80.8128 144.991C80.9246 143.862 80.6264 142.963 79.9199 142.302C79.2172 141.632 78.2218 141.102 76.9412 140.707L71.9717 139.227C69.8467 138.564 68.1318 137.646 66.8232 136.48C65.5128 135.308 64.5547 133.891 63.947 132.23C63.3431 130.564 63.1399 128.67 63.3301 126.544C63.5612 123.943 64.428 121.55 65.9211 119.37C67.4197 117.191 69.4198 115.405 71.9325 114.011C74.449 112.619 77.2804 111.773 80.4306 111.482C83.6983 111.18 86.4216 111.476 88.6212 112.346C88.6137 112.359 88.6063 112.368 88.5988 112.382C89.8477 112.844 90.9139 113.494 91.8049 114.326C94.2226 116.599 95.2757 119.966 94.9551 124.422" fill="#F9F8F7"></path><path d="M164.256 92.0742L159.443 150.268L170.802 149.217L175.615 91.0254L164.256 92.0742Z" fill="#F9F8F7"></path><path d="M148.475 99.8091L144.184 151.678L155.655 150.618L159.944 98.751L148.475 99.8091Z" fill="#F9F8F7"></path><path d="M131.691 119.984L128.985 153.081L140.335 152.033L143.043 118.936L131.691 119.984Z" fill="#F9F8F7"></path><path d="M120.461 136.981L125.565 151.283L125.376 153.412L113.517 154.508L110.846 144.959L110.433 141.155L109.165 141.273L108.063 155.012L96.333 156.096L100.175 109.641L111.907 108.557L109.692 135.206L110.962 135.088L112.006 131.151L115.78 121.454L128.146 120.312L127.958 122.441L120.461 136.981Z" fill="#F9F8F7"></path><path d="M265.083 140.512L252.011 141.719L251.411 135.206L244.844 135.813L243.032 116.152L249.599 115.546L248.998 109.033L262.071 107.825L262.671 114.338L269.177 113.737L270.988 133.398L264.483 133.999L265.083 140.512ZM264.485 133.999L262.673 114.338L249.601 115.546L251.412 135.206L264.485 133.999Z" fill="#F9F8F7"></path><path d="M265.702 153.729H234.929V163.623H265.702V153.729Z" fill="#DDEF51"></path><path d="M296.477 153.729H265.704V163.623H296.477V153.729Z" fill="#FF6023"></path><path d="M265.702 163.625H234.929V173.52H265.702V163.625Z" fill="#FF6023"></path><path d="M296.477 163.625H265.704V173.52H296.477V163.625Z" fill="#DDEF51"></path><path d="M265.702 173.52H234.929V183.414H265.702V173.52Z" fill="#DDEF51"></path><path d="M296.477 173.52H265.704V183.414H296.477V173.52Z" fill="#FF6023"></path><path d="M265.702 183.676H234.929V193.57H265.702V183.676Z" fill="#FF6023"></path><path d="M296.477 183.676H265.704V193.57H296.477V183.676Z" fill="#DDEF51"></path><path d="M265.702 193.57H234.929V203.465H265.702V193.57Z" fill="#DDEF51"></path><path d="M296.477 193.57H265.704V203.465H296.477V193.57Z" fill="#FF6023"></path><path d="M265.702 203.466H234.929V213.36H265.702V203.466Z" fill="#FF6023"></path><path d="M296.477 203.466H265.704V213.36H296.477V203.466Z" fill="#DDEF51"></path><path d="M308.317 153.729H296.19V163.623H308.317V153.729Z" fill="#DDEF51"></path><path d="M320.445 153.729H308.317V163.623H320.445V153.729Z" fill="#FF6023"></path><path d="M308.317 163.625H296.19V173.52H308.317V163.625Z" fill="#FF6023"></path><path d="M320.445 163.625H308.317V173.52H320.445V163.625Z" fill="#DDEF51"></path><path d="M308.317 173.52H296.19V183.414H308.317V173.52Z" fill="#DDEF51"></path><path d="M320.445 173.52H308.317V183.414H320.445V173.52Z" fill="#FF6023"></path><path d="M308.317 183.676H296.19V193.57H308.317V183.676Z" fill="#FF6023"></path><path d="M320.445 183.676H308.317V193.57H320.445V183.676Z" fill="#DDEF51"></path><path d="M308.317 193.57H296.19V203.465H308.317V193.57Z" fill="#DDEF51"></path><path d="M320.445 193.57H308.317V203.465H320.445V193.57Z" fill="#FF6023"></path><path d="M308.317 203.466H296.19V213.36H308.317V203.466Z" fill="#FF6023"></path><path d="M320.445 203.466H308.317V213.36H320.445V203.466Z" fill="#DDEF51"></path><path d="M332.14 153.729H320.013V163.623H332.14V153.729Z" fill="#DDEF51"></path><path d="M344.265 153.729H332.138V163.623H344.265V153.729Z" fill="#FF6023"></path><path d="M332.14 163.625H320.013V173.52H332.14V163.625Z" fill="#FF6023"></path><path d="M344.265 163.625H332.138V173.52H344.265V163.625Z" fill="#DDEF51"></path><path d="M332.14 173.52H320.013V183.414H332.14V173.52Z" fill="#DDEF51"></path><path d="M344.265 173.52H332.138V183.414H344.265V173.52Z" fill="#FF6023"></path><path d="M332.14 183.676H320.013V193.57H332.14V183.676Z" fill="#FF6023"></path><path d="M344.265 183.676H332.138V193.57H344.265V183.676Z" fill="#DDEF51"></path><path d="M332.14 193.57H320.013V203.465H332.14V193.57Z" fill="#DDEF51"></path><path d="M344.265 193.57H332.138V203.465H344.265V193.57Z" fill="#FF6023"></path><path d="M332.14 203.466H320.013V213.36H332.14V203.466Z" fill="#FF6023"></path><path d="M344.265 203.466H332.138V213.36H344.265V203.466Z" fill="#DDEF51"></path><path d="M61.1734 98.2596C56.765 99.3718 52.2708 99.5846 47.8158 98.896C43.5136 98.2297 39.4277 96.7536 35.6735 94.5067C31.9194 92.2616 28.6853 89.3578 26.0607 85.8793C23.343 82.2775 21.4025 78.2129 20.2916 73.8012C19.1806 69.3877 18.9681 64.8883 19.6559 60.4281C20.3214 56.1209 21.7958 52.0302 24.0401 48.2717C26.2825 44.5132 29.183 41.2753 32.6575 38.6477C36.2551 35.9268 40.3149 33.9841 44.7215 32.8719C49.1299 31.7596 53.6241 31.5469 58.0791 32.2355C62.3813 32.9017 66.4672 34.3779 70.2214 36.6248C73.9755 38.8698 77.2096 41.7736 79.8342 45.2522C82.5519 48.854 84.4924 52.9185 85.6033 57.3302C86.7143 61.7438 86.9268 66.2432 86.239 70.7034C85.5735 75.0105 84.0991 79.1012 81.8548 82.8598C79.6124 86.6183 76.7119 89.8561 73.2374 92.4837C69.6398 95.2046 65.58 97.1473 61.1734 98.2596Z" fill="#FF6023"></path><path d="M75.832 88.4773C88.4706 75.824 88.4706 55.3089 75.832 42.6555C63.1933 30.0022 42.7021 30.0022 30.0635 42.6555C17.4248 55.3089 17.4248 75.824 30.0635 88.4773C42.7021 101.131 63.1934 101.131 75.832 88.4773Z" fill="white"></path><path d="M69.3215 61.4381L58.4263 65.178L69.7484 67.2961L58.2325 67.0647L68.1416 72.9451L57.3955 68.7909L64.7118 77.6983L56.0292 70.1197L59.8486 80.9996L54.2882 70.8979L54.1726 82.4309L52.3869 71.0378L48.327 81.83L50.5564 70.5153L43.0574 79.2696L49.0037 69.3918L38.9696 75.0576L47.9393 67.8224L36.5743 69.696L47.4696 65.958L36.1475 63.8399L47.6634 64.0695L37.7543 58.1909L48.5004 62.3451L41.1841 53.4377L49.8667 61.0164L46.0473 50.1364L51.6077 60.2382L51.7233 48.7051L53.509 60.0982L57.5689 49.306L55.3395 60.6207L62.8385 51.8645L56.8922 61.7423L66.9263 56.0784L57.9566 63.3137L69.3215 61.4381Z" fill="#FF6023"></path><path d="M47.6003 44.8773C47.0653 44.6589 46.7037 44.2521 46.5191 43.6587L48.0066 43.4142C48.139 43.6866 48.3496 43.8789 48.6348 43.9908C48.92 44.1028 49.2835 44.1196 49.7234 44.0412C49.9881 44.0039 50.2136 43.9367 50.4 43.8378C50.5864 43.7389 50.7225 43.6195 50.8083 43.4758C50.894 43.3321 50.9257 43.1734 50.9033 43.0018C50.8642 42.8021 50.7561 42.6509 50.579 42.552C50.4 42.4512 50.1316 42.4008 49.7737 42.4008L48.3235 42.4344C47.7009 42.4419 47.2126 42.3355 46.8584 42.1134C46.5042 41.8914 46.2936 41.5592 46.2284 41.1169C46.1631 40.7511 46.2153 40.4133 46.3849 40.1054C46.5546 39.7975 46.8379 39.5344 47.2349 39.316C47.632 39.0977 48.1371 38.939 48.7504 38.8383C49.5985 38.7002 50.2882 38.7394 50.8176 38.9596C51.347 39.1798 51.7011 39.5624 51.8801 40.111L50.3851 40.3555C50.2547 40.0942 50.0571 39.9151 49.7942 39.8162C49.5314 39.7172 49.2164 39.7023 48.851 39.7676C48.5919 39.805 48.3776 39.8665 48.2061 39.958C48.0346 40.0476 47.9097 40.1558 47.8314 40.2846C47.7531 40.4115 47.7233 40.5533 47.7419 40.7101C47.7755 40.8762 47.8668 40.9956 48.0178 41.0721C48.1688 41.1468 48.3906 41.1841 48.6851 41.1841L50.1223 41.1785C50.6107 41.1747 51.0189 41.2195 51.3488 41.3128C51.6788 41.4062 51.936 41.5555 52.1187 41.7607C52.3014 41.966 52.4169 42.2291 52.4635 42.552C52.5362 42.9588 52.4803 43.3246 52.2939 43.6493C52.1094 43.974 51.8037 44.2502 51.3787 44.4798C50.9537 44.7093 50.4243 44.8717 49.7868 44.9706C48.866 45.1273 48.1371 45.0975 47.6003 44.8773Z" fill="#FF6023"></path><path d="M55.0498 38.5078L56.5336 38.7709L56.0751 41.3556L56.2466 41.3855L56.3789 41.1877L59.4061 39.2823L61.1806 39.5977L61.1434 39.803L57.3501 42.1935L57.4153 41.824L60.1759 45.3157L60.1386 45.521L58.3548 45.2037L56.1515 42.466L56.0974 42.2253L55.9259 42.1954L55.4823 44.6942L53.9985 44.4311L55.048 38.5078H55.0498Z" fill="#FF6023"></path><path d="M63.6974 40.7344L65.0749 41.3689L62.564 46.835L61.1865 46.2005L63.6974 40.7344Z" fill="#FF6023"></path><path d="M67.7889 42.8164L68.9819 43.7383L65.5614 48.178L65.3731 46.909L68.8272 49.5776L68.035 50.6059L64.1187 47.5808L67.7889 42.8183V42.8164Z" fill="#FF6023"></path><path d="M73.6592 47.956L74.5409 49.1783L70.0001 52.4572L70.1809 51.1882L72.7328 54.7303L71.6796 55.4898L68.7866 51.4737L73.6592 47.9541V47.956Z" fill="#FF6023"></path><path d="M77.9763 54.7021L78.4162 56.1447L72.6694 57.9045L72.2295 56.462L77.9763 54.7021ZM79.3258 59.1213L79.7639 60.5545L74.0171 62.3144L73.579 60.8811L79.3258 59.1213ZM75.8327 56.0327L77.2754 60.7524L76.1346 61.1013L74.6919 56.3817L75.8327 56.0327Z" fill="#FF6023"></path><path d="M74.3783 65.2409C74.6673 64.7407 75.055 64.3694 75.5415 64.1286C76.028 63.8879 76.5853 63.7927 77.2173 63.845C77.8436 63.8841 78.3823 64.0596 78.8334 64.3694C79.2845 64.6791 79.62 65.1028 79.8362 65.6402C80.0524 66.1777 80.1363 66.8066 80.0823 67.5251C80.0319 68.2268 79.8604 68.824 79.5678 69.3185C79.2751 69.813 78.8856 70.1788 78.3972 70.4177C77.9088 70.6566 77.3477 70.7555 76.7158 70.7144C76.0858 70.6622 75.5471 70.4849 75.0997 70.1807C74.6524 69.8765 74.3224 69.4603 74.1081 68.9285C73.8937 68.3966 73.8117 67.777 73.8639 67.0697C73.9161 66.3513 74.0876 65.741 74.3765 65.2409H74.3783ZM75.1799 68.1577C75.3197 68.4451 75.5303 68.6709 75.8155 68.8333C76.1007 68.9975 76.4418 69.0964 76.8407 69.1319C77.2415 69.1543 77.5938 69.1076 77.8995 68.9863C78.2052 68.865 78.4494 68.6728 78.632 68.4059C78.8147 68.1391 78.9191 67.8181 78.9471 67.4411C78.975 67.0529 78.9191 66.7114 78.7774 66.4184C78.6358 66.1254 78.4214 65.8922 78.1344 65.7205C77.8473 65.5488 77.5043 65.448 77.1035 65.4182C76.7046 65.3883 76.3505 65.4387 76.0448 65.5675C75.7391 65.6962 75.4968 65.8959 75.3197 66.1665C75.1426 66.4371 75.0382 66.7655 75.0028 67.1537C74.9804 67.5363 75.0401 67.8722 75.178 68.1577H75.1799Z" fill="#FF6023"></path><path d="M72.9862 73.1104C73.4411 72.754 73.9388 72.5524 74.4793 72.5095C75.0199 72.4666 75.5735 72.586 76.1402 72.8678C76.7068 73.1365 77.1412 73.5004 77.4469 73.9558C77.7526 74.4111 77.9054 74.9281 77.9073 75.5085C77.9091 76.0888 77.7526 76.7028 77.4375 77.3504C77.13 77.983 76.7497 78.4738 76.2949 78.8247C75.8401 79.1755 75.3424 79.3696 74.7999 79.4107C74.2575 79.4499 73.7002 79.3342 73.1298 79.0617C72.5631 78.7799 72.1288 78.4141 71.8268 77.9662C71.5249 77.5184 71.372 77.0089 71.3701 76.4341C71.3683 75.8593 71.5211 75.2547 71.8324 74.6183C72.1474 73.9707 72.5314 73.4668 72.9862 73.1104ZM72.6489 76.1168C72.6712 76.436 72.7849 76.7234 72.99 76.9809C73.1932 77.2384 73.4746 77.4586 73.8325 77.6378C74.196 77.8076 74.5408 77.8935 74.8689 77.8953C75.197 77.8953 75.4952 77.8076 75.7636 77.6285C76.0321 77.4493 76.2483 77.1899 76.4142 76.8503C76.5838 76.4994 76.6584 76.1616 76.6341 75.8388C76.6118 75.5141 76.4981 75.2173 76.2949 74.9523C76.0917 74.6855 75.8102 74.4634 75.4505 74.2898C75.0907 74.1144 74.744 74.0304 74.4122 74.036C74.0804 74.0416 73.7822 74.1368 73.5175 74.3234C73.2528 74.5082 73.0328 74.775 72.8576 75.1222C72.6955 75.4693 72.6246 75.8033 72.6489 76.1206V76.1168Z" fill="#FF6023"></path><path d="M73.6795 83.181L71.5079 85.1947C70.9674 85.6967 70.4305 86.0345 69.8974 86.2117C69.3643 86.389 68.848 86.4021 68.3484 86.2509C67.8488 86.0998 67.381 85.7918 66.9411 85.3272C66.503 84.8457 66.229 84.3511 66.1172 83.8454C66.0053 83.3397 66.0594 82.8283 66.2775 82.3114C66.4956 81.7945 66.8796 81.285 67.4239 80.7793L69.5954 78.7656L73.6777 83.1792L73.6795 83.181ZM69.7017 80.2269L68.2384 81.5836C67.9402 81.8598 67.7389 82.149 67.6326 82.4495C67.5264 82.7499 67.5152 83.0523 67.6009 83.3583C67.6867 83.6644 67.8563 83.9592 68.1117 84.2448C68.3764 84.5228 68.6578 84.7151 68.9561 84.8233C69.2543 84.9315 69.5582 84.9446 69.8657 84.8643C70.1752 84.7841 70.479 84.6049 70.7772 84.3288L72.2405 82.972L72.274 83.8809L68.7939 80.1186L69.7017 80.2269Z" fill="#FF6023"></path><path d="M60.605 85.5499C61.1587 85.7179 61.5557 86.0874 61.7962 86.6622L60.3385 87.0447C60.18 86.7853 59.9545 86.6136 59.6581 86.5297C59.3636 86.4438 59.0001 86.4625 58.5695 86.5801C58.3104 86.6416 58.0923 86.7312 57.9152 86.8469C57.7382 86.9626 57.6151 87.0951 57.5424 87.2463C57.4716 87.3974 57.4548 87.5579 57.4921 87.7278C57.5499 87.9237 57.6711 88.0618 57.8575 88.1458C58.0439 88.2298 58.316 88.254 58.6739 88.2204L60.1148 88.0506C60.7337 87.9834 61.2295 88.045 61.6023 88.2335C61.9751 88.4201 62.2156 88.7318 62.3237 89.1666C62.4243 89.5249 62.4038 89.8646 62.2622 90.1874C62.1205 90.5103 61.8633 90.7977 61.4886 91.0533C61.1139 91.309 60.6255 91.5143 60.0253 91.671C59.194 91.8894 58.5043 91.9136 57.9563 91.7457C57.4082 91.5777 57.0205 91.2287 56.7912 90.6987L58.2564 90.3143C58.4111 90.5625 58.6236 90.723 58.8957 90.7958C59.1679 90.8686 59.481 90.8555 59.8389 90.7547C60.0924 90.6931 60.3012 90.611 60.4634 90.5065C60.6255 90.4002 60.7392 90.2807 60.8064 90.1464C60.8735 90.012 60.8902 89.8683 60.8548 89.7153C60.8063 89.5529 60.7038 89.4428 60.5473 89.3812C60.3907 89.3196 60.1651 89.3047 59.8725 89.3327L58.4428 89.4727C57.9581 89.5212 57.5462 89.5156 57.2088 89.454C56.8714 89.3924 56.6011 89.2674 56.3998 89.0808C56.1985 88.8941 56.0587 88.6422 55.9823 88.3249C55.8723 87.9274 55.8946 87.5579 56.0475 87.2164C56.2022 86.8749 56.4781 86.5707 56.8807 86.3039C57.2815 86.037 57.7941 85.8242 58.4204 85.6656C59.3226 85.423 60.0514 85.3857 60.605 85.5518V85.5499Z" fill="#FF6023"></path><path d="M53.7756 92.5844L52.2732 92.4594L52.4894 89.8448L52.316 89.8299L52.2023 90.0389L49.3653 92.2186L47.5684 92.0693L47.5851 91.8603L51.1398 89.1282L51.1081 89.5014L48.0362 86.2823L48.053 86.0732L49.8574 86.2225L52.3048 88.7438L52.3813 88.977L52.5546 88.992L52.7634 86.4633L54.2658 86.5883L53.7718 92.5844H53.7756Z" fill="#FF6023"></path><path d="M44.9619 91.1799L43.5322 90.6779L45.5211 85.001L46.9509 85.503L44.9619 91.1799Z" fill="#FF6023"></path><path d="M40.6901 89.4846L39.417 88.6784L42.4106 83.9401L42.7163 85.1849L39.0293 82.8502L39.7227 81.7529L43.9037 84.4011L40.692 89.4846H40.6901Z" fill="#FF6023"></path><path d="M34.3653 84.9085L33.3755 83.772L37.5938 80.0863L37.5323 81.3665L34.6635 78.0764L35.6403 77.2217L38.893 80.9522L34.3653 84.9085Z" fill="#FF6023"></path><path d="M27.6866 74.3239L27.1162 72.9373L32.6729 70.6475L33.2433 72.034L27.6866 74.3239ZM29.4444 78.5975L28.8703 77.2034L34.4269 74.9136L35.001 76.3076L29.4444 78.5975ZM31.4538 77.0709L29.5767 72.5081L30.6802 72.0527L32.5573 76.6156L31.4538 77.0709Z" fill="#FF6023"></path><path d="M32.0445 67.7807C31.8022 68.3052 31.4499 68.7101 30.9876 68.9956C30.5254 69.2812 29.9792 69.4267 29.3454 69.4323C28.7191 69.451 28.1655 69.326 27.6883 69.0591C27.2093 68.7922 26.8383 68.4003 26.5718 67.8853C26.3071 67.3702 26.1673 66.7525 26.1524 66.0321C26.1393 65.3286 26.2549 64.7183 26.5009 64.1977C26.747 63.6789 27.1011 63.2776 27.5672 62.9958C28.0313 62.714 28.5812 62.5629 29.2131 62.5461C29.8469 62.5405 30.3986 62.6674 30.8702 62.9286C31.3437 63.1899 31.7109 63.5744 31.9718 64.0838C32.2328 64.5933 32.3726 65.2017 32.3857 65.9108C32.3987 66.6312 32.285 67.2545 32.0427 67.7789L32.0445 67.7807ZM30.9802 64.9497C30.8162 64.6773 30.5832 64.472 30.2849 64.3358C29.9867 64.1995 29.6362 64.1323 29.2355 64.1342C28.8347 64.1473 28.488 64.2294 28.1953 64.3768C27.9027 64.5242 27.6771 64.7407 27.5206 65.0225C27.364 65.3043 27.2894 65.6346 27.295 66.0116C27.3025 66.4016 27.3901 66.7357 27.5578 67.0137C27.7256 67.2918 27.9605 67.5046 28.2624 67.6501C28.5644 67.7957 28.9148 67.8647 29.3156 67.8573C29.7164 67.8498 30.0631 67.7677 30.3557 67.6109C30.6484 67.4542 30.8702 67.234 31.0231 66.9484C31.174 66.6629 31.2486 66.327 31.2467 65.937C31.2337 65.5544 31.1442 65.2259 30.9802 64.9516V64.9497Z" fill="#FF6023"></path><path d="M32.7026 59.801C32.2832 60.1985 31.806 60.4449 31.2729 60.5401C30.7379 60.6334 30.1769 60.5662 29.586 60.3385C28.9969 60.1239 28.5291 59.8029 28.1842 59.3774C27.8375 58.9519 27.6362 58.4518 27.5803 57.8751C27.5243 57.2985 27.6213 56.6733 27.8748 55.9977C28.1227 55.339 28.4545 54.8146 28.8758 54.4227C29.2952 54.0308 29.7742 53.79 30.3092 53.7005C30.846 53.6109 31.4108 53.6743 32.0055 53.8908C32.5964 54.1185 33.0624 54.4413 33.4053 54.8594C33.7483 55.2774 33.9478 55.7701 34.0037 56.3411C34.0596 56.9122 33.9627 57.528 33.7129 58.1924C33.4594 58.868 33.1239 59.4035 32.7045 59.801H32.7026ZM32.7567 56.7778C32.7045 56.4624 32.5647 56.1862 32.3373 55.9492C32.1098 55.7122 31.8097 55.52 31.4369 55.3726C31.0604 55.2363 30.7081 55.1841 30.38 55.2121C30.052 55.2419 29.7649 55.3576 29.5133 55.5611C29.2635 55.7645 29.0715 56.0444 28.9391 56.3971C28.8031 56.761 28.7602 57.1044 28.8143 57.4254C28.8683 57.7464 29.0081 58.03 29.2337 58.2764C29.4611 58.5227 29.7612 58.7168 30.1358 58.8586C30.5105 59.0005 30.8628 59.0508 31.1946 59.0135C31.5245 58.9762 31.8135 58.853 32.0595 58.644C32.3056 58.435 32.4994 58.1495 32.6411 57.7874C32.7697 57.4254 32.8089 57.0876 32.7567 56.7741V56.7778Z" fill="#FF6023"></path><path d="M31.0752 49.8392L33.0529 47.6333C33.545 47.0847 34.0483 46.6965 34.5628 46.4707C35.0773 46.2449 35.5899 46.1852 36.1006 46.2878C36.6114 46.3923 37.1072 46.6554 37.5862 47.0772C38.0672 47.5158 38.3859 47.9823 38.5444 48.4769C38.7028 48.9695 38.6972 49.4846 38.5257 50.0183C38.3561 50.5521 38.0224 51.097 37.5266 51.6494L35.5489 53.8552L31.0752 49.8373V49.8392ZM35.3103 52.4127L36.6412 50.9272C36.9133 50.6248 37.0867 50.3188 37.165 50.009C37.2433 49.7011 37.2246 49.3969 37.1128 49.102C37.0009 48.8053 36.8034 48.5272 36.5219 48.266C36.233 48.014 35.9347 47.8479 35.629 47.7677C35.3233 47.6875 35.0195 47.7024 34.7194 47.8106C34.4193 47.9189 34.1322 48.126 33.8619 48.4283L32.531 49.9138L32.4136 49.0124L36.2255 52.4351L35.3121 52.4108L35.3103 52.4127Z" fill="#FF6023"></path></g><defs><clipPath id="clip0_506_2012"><rect width="370" height="209.889" fill="white" transform="translate(2 19.2041)"></rect></clipPath></defs></svg>