<svg xmlns="http://www.w3.org/2000/svg" width="38" height="32" viewBox="0 0 38 32" fill="none"><path d="M2.03719 0.501953H8.13071L8.91519 1.34891C8.91722 1.35109 8.91969 1.35281 8.92244 1.35397C8.92518 1.35513 8.92813 1.35569 8.93111 1.35563C8.93408 1.35557 8.93701 1.35489 8.93971 1.35362C8.9424 1.35235 8.9448 1.35052 8.94675 1.34827L9.65007 0.501953H11.6061L11.6074 3.47601C11.6074 3.49842 11.5962 3.50963 11.5739 3.50963H8.87525C8.86723 3.50963 8.85953 3.50643 8.85385 3.50073C8.84817 3.49503 8.84498 3.4873 8.84498 3.47924L8.84627 2.69047C8.84627 2.68413 8.84376 2.67804 8.83929 2.67355C8.83482 2.66907 8.82876 2.66655 8.82244 2.66655H4.28047C4.256 2.66655 4.24376 2.67862 4.24376 2.70275L4.24441 4.0456C4.24441 4.07448 4.25858 4.08892 4.28692 4.08892H10.1595C10.1819 4.08892 10.2012 4.09668 10.2175 4.1122L12.1516 5.94771C12.1692 5.96452 12.178 5.98499 12.178 6.00913V8.22674C12.178 8.25044 12.1699 8.27113 12.1536 8.28881L10.2748 10.315C10.2708 10.3195 10.2658 10.3231 10.2603 10.3255C10.2547 10.328 10.2487 10.3293 10.2426 10.3293H3.51017C3.48784 10.3293 3.46916 10.3211 3.45414 10.3047L2.70186 9.4933C2.6834 9.47347 2.66558 9.4739 2.64841 9.49459L1.98115 10.2982C1.96612 10.3163 1.9468 10.3254 1.92319 10.3254L0 10.3267V7.32159L2.68641 7.32224C2.69267 7.32224 2.69886 7.32347 2.70465 7.32588C2.71043 7.32828 2.71568 7.33181 2.72011 7.33625C2.72453 7.34069 2.72804 7.34597 2.73044 7.35177C2.73283 7.35758 2.73407 7.3638 2.73407 7.37008L2.73729 8.11489C2.73729 8.12775 2.74238 8.14008 2.75144 8.14918C2.7605 8.15827 2.77278 8.16338 2.78559 8.16338L7.82285 8.16467C7.83088 8.16467 7.83858 8.1614 7.84425 8.15558C7.84993 8.14976 7.85312 8.14187 7.85312 8.13364V6.79531C7.85312 6.76945 7.84045 6.75652 7.81512 6.75652H1.80081C1.77892 6.75652 1.76002 6.74919 1.74414 6.73454L0 5.10463V2.70081L2.03719 0.501953Z" fill="black"></path><path d="M12.8994 0.501953H18.8222L18.8229 3.00598C18.8229 3.01129 18.8208 3.01639 18.817 3.02015C18.8133 3.02391 18.8082 3.02602 18.8029 3.02602H17.9347C17.9025 3.02602 17.8864 3.04218 17.8864 3.07451V7.79421C17.8864 7.79718 17.887 7.80012 17.8881 7.80287C17.8893 7.80561 17.8909 7.80811 17.893 7.81021C17.8951 7.81231 17.8976 7.81398 17.9003 7.81511C17.9031 7.81625 17.906 7.81684 17.9089 7.81684L21.157 7.81619C21.1636 7.81619 21.17 7.8136 21.1747 7.80899C21.1795 7.80439 21.1821 7.79814 21.1821 7.79162V3.05318C21.1821 3.04597 21.1793 3.03907 21.1742 3.03397C21.1691 3.02888 21.1622 3.02602 21.1551 3.02602L20.4176 3.02667C20.3944 3.02667 20.3828 3.01481 20.3828 2.99111L20.3809 0.501953H25.0768L25.0748 2.98981C25.0748 3.01395 25.0628 3.02602 25.0388 3.02602L24.1989 3.02667C24.1779 3.02667 24.1674 3.03701 24.1674 3.0577V8.12976C24.1673 8.15086 24.1592 8.17085 24.1448 8.18536L22.031 10.306C22.0155 10.3215 21.9968 10.3293 21.9749 10.3293H16.1693C16.1474 10.3293 16.1287 10.3215 16.1133 10.306L14.0091 8.19441C13.9872 8.17243 13.9763 8.14571 13.9763 8.11424L13.9769 3.05705C13.9769 3.03637 13.9664 3.02602 13.9454 3.02602L12.9335 3.02667C12.9112 3.02667 12.9 3.01546 12.9 2.99305L12.8994 0.501953Z" fill="black"></path><path d="M25.8316 0.501953H36.2649L38 2.18488V4.868L36.4478 6.40998C36.4323 6.42549 36.4135 6.43325 36.3911 6.43325H30.829C30.823 6.43325 30.8172 6.43564 30.813 6.43988C30.8088 6.44412 30.8064 6.44988 30.8064 6.45588L30.8058 7.76059C30.8058 7.76865 30.809 7.77638 30.8146 7.78207C30.8203 7.78777 30.828 7.79097 30.836 7.79097H31.8331C31.8442 7.79097 31.8498 7.79658 31.8498 7.80778V10.2814C31.8498 10.3038 31.8386 10.315 31.8163 10.315H25.8703C25.8445 10.315 25.8316 10.3019 25.8316 10.2756V7.82977C25.8316 7.8039 25.8443 7.79097 25.8696 7.79097H26.8924C26.8972 7.79097 26.9018 7.78907 26.9052 7.78567C26.9085 7.78228 26.9104 7.77767 26.9104 7.77287V3.0674C26.9104 3.03981 26.8967 3.02602 26.8692 3.02602H25.8452C25.8416 3.02602 25.8381 3.02459 25.8356 3.02204C25.8331 3.0195 25.8316 3.01604 25.8316 3.01244V0.501953ZM34.1176 3.05188C34.1176 3.04502 34.1148 3.03845 34.11 3.0336C34.1052 3.02875 34.0986 3.02602 34.0918 3.02602H30.8315C30.8247 3.02602 30.8181 3.02875 30.8133 3.0336C30.8085 3.03845 30.8058 3.04502 30.8058 3.05188V4.68761C30.8058 4.69447 30.8085 4.70105 30.8133 4.7059C30.8181 4.71075 30.8247 4.71347 30.8315 4.71347H34.0918C34.0986 4.71347 34.1052 4.71075 34.11 4.7059C34.1148 4.70105 34.1176 4.69447 34.1176 4.68761V3.05188Z" fill="black"></path><path d="M38 11.0624V15.1977L34.9761 15.1951C34.9533 15.1951 34.942 15.1839 34.942 15.1615V13.6111C34.942 13.6025 34.9385 13.5943 34.9323 13.5882C34.9262 13.5821 34.9178 13.5787 34.9091 13.5787H29.8564C29.8272 13.5787 29.8126 13.5934 29.8126 13.6227V18.3482C29.8126 18.3767 29.8266 18.3909 29.8545 18.3909L34.8956 18.3915C34.9082 18.3915 34.9204 18.3865 34.9293 18.3775C34.9382 18.3686 34.9433 18.3564 34.9433 18.3437L34.942 16.7784C34.942 16.7552 34.9533 16.7435 34.9761 16.7435L38 16.7403V18.7239L35.8192 20.8645C35.8039 20.8795 35.7833 20.8878 35.7619 20.8878H28.4053C28.3925 20.8878 28.3803 20.8829 28.3712 20.8742L25.858 18.3883C25.8404 18.3706 25.8316 18.3495 25.8316 18.3249V13.6104C25.8316 13.6004 25.8336 13.5905 25.8375 13.5812C25.8414 13.572 25.847 13.5637 25.8542 13.5568L28.3635 11.0741C28.3806 11.0577 28.401 11.0495 28.4246 11.0495H34.2148C34.2172 11.0495 34.2196 11.0501 34.2219 11.0512C34.2241 11.0523 34.2261 11.054 34.2277 11.056L34.9233 11.9495C34.937 11.9676 34.951 11.9676 34.9652 11.9495L35.6459 11.0838C35.6518 11.0765 35.6592 11.0706 35.6675 11.0666C35.6759 11.0626 35.685 11.0605 35.6942 11.0605L38 11.0624Z" fill="black"></path><path d="M13.9769 18.3521V13.6143C13.9769 13.6074 13.9742 13.6009 13.9694 13.596C13.9645 13.5912 13.958 13.5884 13.9512 13.5884L12.9239 13.5891C12.917 13.5891 12.9105 13.5864 12.9056 13.5815C12.9008 13.5767 12.8981 13.5701 12.8981 13.5632V11.0864C12.8981 11.083 12.8988 11.0796 12.9001 11.0765C12.9014 11.0733 12.9033 11.0705 12.9056 11.0681C12.908 11.0657 12.9109 11.0638 12.914 11.0625C12.9171 11.0612 12.9205 11.0605 12.9239 11.0605H22.5237C22.5272 11.0605 22.5306 11.0611 22.5338 11.0625C22.537 11.0638 22.5399 11.0658 22.5424 11.0683L24.1332 12.6885C24.1381 12.6932 24.1409 12.6997 24.1409 12.7066V14.7335C24.1409 14.7375 24.14 14.7414 24.1382 14.745C24.1364 14.7486 24.1338 14.7517 24.1306 14.7541L22.7337 15.7815C22.7304 15.7838 22.7278 15.7869 22.7259 15.7905C22.7241 15.7941 22.7231 15.798 22.723 15.802C22.723 15.806 22.7238 15.81 22.7256 15.8136C22.7273 15.8172 22.7299 15.8204 22.733 15.8229L24.1306 16.8748C24.1338 16.8772 24.1364 16.8803 24.1382 16.8839C24.14 16.8875 24.1409 16.8914 24.1409 16.8955V18.6999C24.1409 18.7068 24.1437 18.7134 24.1485 18.7182C24.1533 18.7231 24.1599 18.7258 24.1667 18.7258L25.0285 18.7245C25.0353 18.7245 25.0419 18.7272 25.0467 18.7321C25.0515 18.7369 25.0542 18.7435 25.0542 18.7504V20.8626C25.0542 20.8695 25.0515 20.876 25.0467 20.8809C25.0419 20.8857 25.0353 20.8885 25.0285 20.8885L21.1802 20.8878C21.1767 20.8878 21.1733 20.8872 21.17 20.8858C21.1668 20.8845 21.1639 20.8825 21.1615 20.88L20.1001 19.8146C20.0976 19.8121 20.0956 19.8092 20.0943 19.806C20.093 19.8028 20.0923 19.7993 20.0923 19.7958V16.7649C20.0923 16.7615 20.0917 16.7581 20.0904 16.755C20.0891 16.7518 20.0872 16.749 20.0848 16.7466C20.0824 16.7442 20.0796 16.7423 20.0764 16.741C20.0733 16.7397 20.07 16.739 20.0666 16.739L17.8851 16.7396C17.8783 16.7396 17.8717 16.7424 17.8669 16.7472C17.8621 16.7521 17.8594 16.7586 17.8594 16.7655L17.86 18.3495C17.86 18.3564 17.8627 18.363 17.8675 18.3678C17.8724 18.3727 17.8789 18.3754 17.8858 18.3754L18.6277 18.378C18.6346 18.378 18.6411 18.3807 18.6459 18.3855C18.6508 18.3904 18.6535 18.397 18.6535 18.4038L18.6509 20.8755C18.6509 20.8824 18.6482 20.889 18.6434 20.8938C18.6385 20.8987 18.632 20.9014 18.6252 20.9014H12.9239C12.917 20.9014 12.9105 20.8987 12.9056 20.8938C12.9008 20.889 12.8981 20.8824 12.8981 20.8755V18.4032C12.8981 18.3963 12.9008 18.3897 12.9056 18.3849C12.9105 18.38 12.917 18.3773 12.9239 18.3773L13.9512 18.378C13.958 18.378 13.9645 18.3752 13.9694 18.3704C13.9742 18.3655 13.9769 18.359 13.9769 18.3521ZM20.0923 13.6162C20.0923 13.6089 20.0894 13.6018 20.0842 13.5966C20.079 13.5914 20.072 13.5884 20.0646 13.5884H17.8877C17.8804 13.5884 17.8733 13.5914 17.8681 13.5966C17.8629 13.6018 17.86 13.6089 17.86 13.6162V15.199C17.86 15.2026 17.8607 15.2062 17.8621 15.2096C17.8635 15.213 17.8655 15.216 17.8681 15.2186C17.8707 15.2212 17.8737 15.2232 17.8771 15.2246C17.8805 15.226 17.8841 15.2268 17.8877 15.2268H20.0646C20.0683 15.2268 20.0719 15.226 20.0752 15.2246C20.0786 15.2232 20.0817 15.2212 20.0842 15.2186C20.0868 15.216 20.0888 15.213 20.0902 15.2096C20.0916 15.2062 20.0923 15.2026 20.0923 15.199V13.6162Z" fill="black"></path><path d="M0 11.0883L11.0509 11.0876C11.0592 11.0876 11.0675 11.0894 11.0752 11.0929C11.0828 11.0963 11.0897 11.1014 11.0954 11.1077L12.1355 12.2669C12.1488 12.2815 12.1562 12.3002 12.1561 12.3193V15.6341C12.1561 15.6404 12.1536 15.6465 12.1492 15.651C12.1447 15.6555 12.1386 15.658 12.1323 15.658L9.14641 15.6819C9.12322 15.6819 9.11163 15.6705 9.11163 15.6477V13.6428C9.11163 13.6225 9.10154 13.6124 9.08136 13.6124H4.99153C4.9835 13.6124 4.9758 13.6156 4.97012 13.6213C4.96444 13.627 4.96125 13.6347 4.96125 13.6428V15.0354C4.96125 15.0414 4.96363 15.0471 4.96786 15.0514C4.97208 15.0556 4.97782 15.058 4.9838 15.058L6.726 15.0574C6.75005 15.0574 6.76207 15.0692 6.76207 15.0929V16.8638C6.76207 16.8698 6.75969 16.8755 6.75547 16.8798C6.75124 16.884 6.7455 16.8864 6.73953 16.8864H5.00312C4.97564 16.8864 4.96168 16.9002 4.96125 16.9278V18.3469C4.96125 18.3672 4.97156 18.3773 4.99217 18.3773H9.06461C9.07674 18.3773 9.08837 18.3724 9.09695 18.3637C9.10552 18.355 9.11034 18.3431 9.11034 18.3308L9.11163 16.3711C9.11163 16.3457 9.12408 16.333 9.14898 16.333H12.1329C12.136 16.333 12.139 16.3336 12.1418 16.3348C12.1446 16.3359 12.1472 16.3376 12.1493 16.3398C12.1515 16.342 12.1532 16.3445 12.1544 16.3473C12.1555 16.3502 12.1561 16.3532 12.1561 16.3563V19.6672C12.1561 19.6887 12.1488 19.7075 12.1342 19.7234L11.1147 20.86C11.1001 20.8764 11.0816 20.8846 11.0593 20.8846L0 20.8865V18.3612L1.03953 18.3586C1.06572 18.3581 1.07881 18.345 1.07881 18.3191V13.646C1.07881 13.6257 1.06872 13.6156 1.04854 13.6156L0 13.6111V11.0883Z" fill="black"></path><path d="M0 21.6746L11.0464 21.6753C11.057 21.6753 11.0674 21.6775 11.077 21.6817C11.0867 21.6859 11.0953 21.6921 11.1024 21.6999L12.1349 22.8507C12.1486 22.8661 12.1561 22.8859 12.1561 22.9063V26.2256C12.1561 26.2302 12.1542 26.2347 12.1509 26.2379C12.1475 26.2412 12.1429 26.243 12.1381 26.243H9.1419C9.12172 26.2435 9.11163 26.2336 9.11163 26.2133L9.11098 24.2291C9.11098 24.221 9.10779 24.2133 9.10212 24.2076C9.09644 24.2019 9.08874 24.1987 9.08071 24.1987H4.9999C4.97414 24.1987 4.96125 24.2116 4.96125 24.2375V25.6566C4.96125 25.6626 4.96363 25.6684 4.96786 25.6726C4.97208 25.6769 4.97782 25.6793 4.9838 25.6793L6.71892 25.6786C6.73036 25.6786 6.74134 25.6832 6.74943 25.6913C6.75752 25.6994 6.76207 25.7104 6.76207 25.7219V27.4488C6.76207 27.4717 6.75069 27.4831 6.72793 27.4831L4.99088 27.4824C4.98319 27.4824 4.97582 27.4855 4.97039 27.491C4.96495 27.4964 4.9619 27.5038 4.9619 27.5115L4.96125 28.9734C4.96125 28.9988 4.97392 29.0115 4.99925 29.0115H9.082C9.08589 29.0115 9.08974 29.0107 9.09334 29.0092C9.09693 29.0077 9.1002 29.0054 9.10295 29.0026C9.1057 28.9998 9.10788 28.9964 9.10937 28.9927C9.11086 28.9891 9.11163 28.9851 9.11163 28.9811V27.0047C9.11163 26.9784 9.12472 26.9652 9.15092 26.9652H12.1259C12.1339 26.9652 12.1416 26.9684 12.1473 26.9739C12.1529 26.9795 12.1561 26.9871 12.1561 26.995V30.2916C12.1561 30.3184 12.1471 30.3416 12.1291 30.3615L11.1327 31.4735C11.119 31.489 11.1018 31.4968 11.0812 31.4968L0 31.4871V28.9617L1.04081 28.9598C1.06615 28.9598 1.07881 28.9468 1.07881 28.921V24.2272C1.07881 24.2189 1.07562 24.211 1.06995 24.2052C1.06427 24.1994 1.05657 24.1961 1.04854 24.1961L0 24.1955V21.6746Z" fill="black"></path><path d="M13.9769 28.9527V24.222C13.9769 24.2156 13.9744 24.2096 13.9699 24.2051C13.9655 24.2006 13.9594 24.1981 13.9531 24.1981L12.9219 24.1987C12.9156 24.1987 12.9096 24.1962 12.9051 24.1917C12.9006 24.1872 12.8981 24.1811 12.8981 24.1748V21.6986C12.8981 21.6922 12.9006 21.6861 12.9051 21.6816C12.9096 21.6772 12.9156 21.6746 12.9219 21.6746L18.915 21.6753C18.9213 21.6753 18.9274 21.6778 18.9318 21.6823C18.9363 21.6868 18.9388 21.6929 18.9388 21.6992V24.1748C18.9388 24.1811 18.9363 24.1872 18.9318 24.1917C18.9274 24.1962 18.9213 24.1987 18.915 24.1987H17.8838C17.8775 24.1987 17.8714 24.2012 17.867 24.2057C17.8625 24.2102 17.86 24.2163 17.86 24.2226V28.9578C17.86 28.9642 17.8625 28.9703 17.867 28.9748C17.8714 28.9792 17.8775 28.9818 17.8838 28.9818L22.0078 28.9831C22.0141 28.9831 22.0202 28.9805 22.0246 28.976C22.0291 28.9716 22.0316 28.9655 22.0316 28.9591V25.8364C22.0316 25.83 22.0341 25.8239 22.0386 25.8195C22.0431 25.815 22.0491 25.8125 22.0555 25.8125L25.053 25.8131C25.0593 25.8131 25.0653 25.8156 25.0698 25.8201C25.0743 25.8246 25.0768 25.8307 25.0768 25.837L25.0774 30.3246C25.0775 30.3308 25.0752 30.3369 25.071 30.3414L24.0038 31.4942C24.0016 31.4966 23.9989 31.4986 23.9959 31.4999C23.9929 31.5012 23.9896 31.5019 23.9864 31.502H12.9219C12.9156 31.502 12.9096 31.4994 12.9051 31.4949C12.9006 31.4905 12.8981 31.4844 12.8981 31.478V29.0005C12.8981 28.9942 12.9006 28.9881 12.9051 28.9836C12.9096 28.9791 12.9156 28.9766 12.9219 28.9766H13.9531C13.9594 28.9766 13.9655 28.9741 13.9699 28.9696C13.9744 28.9651 13.9769 28.959 13.9769 28.9527Z" fill="black"></path><path d="M38 25.8144V30.322L36.9199 31.4948C36.9179 31.4971 36.9154 31.4989 36.9128 31.5001C36.9101 31.5013 36.9073 31.502 36.9044 31.502H25.84C25.8284 31.502 25.8226 31.4959 25.8226 31.4838L25.822 29.0141C25.822 28.9887 25.8344 28.9759 25.8593 28.9759L26.8364 28.9766C26.8621 28.9766 26.875 28.9639 26.875 28.9384V24.231C26.875 24.2095 26.8643 24.1987 26.8428 24.1987H25.8574C25.8342 24.1987 25.8226 24.1869 25.8226 24.1631L25.822 21.7102C25.822 21.6865 25.8338 21.6746 25.8574 21.6746H31.7944C31.8232 21.6746 31.8376 21.6891 31.8376 21.718L31.8369 24.1638C31.8369 24.1871 31.8253 24.1987 31.8021 24.1987H30.7877C30.78 24.1987 30.7727 24.2018 30.7672 24.2074C30.7618 24.213 30.7587 24.2206 30.7587 24.2284L30.7594 28.9443C30.7594 28.9544 30.7634 28.9641 30.7705 28.9712C30.7776 28.9784 30.7873 28.9824 30.7974 28.9824H34.9239C34.9454 28.9824 34.9561 28.9716 34.9561 28.9501V25.8487C34.9561 25.8271 34.9669 25.8163 34.9883 25.8163L38 25.8144Z" fill="black"></path></svg>