<svg xmlns="http://www.w3.org/2000/svg" width="164" height="40" viewBox="0 0 164 40" fill="none"><path d="M164 0.381836H0L16.5 19.8818L0 39.3818H164V0.381836Z" fill="#0B6754"></path><path d="M26.1681 14.2558H34.0375V15.6572H30.9113V24.8818H29.3097V15.6572H26.1681V14.2558ZM38.085 16.9508C38.5008 16.9508 38.855 17.0124 39.1476 17.1356V18.614C38.7626 18.5062 38.4084 18.4446 38.0696 18.4446C36.7298 18.4446 35.9598 19.3378 35.9598 20.8778V24.8818H34.3736V17.1048H35.6672V17.7362L35.544 18.5832H35.6826C36.0368 17.5976 36.853 16.9508 38.085 16.9508ZM43.2126 16.9508C45.4302 16.9508 46.539 17.921 46.539 19.846V24.8818H45.2608V24.1734L45.384 23.465H45.2146C44.691 24.4968 43.7208 25.0204 42.2886 25.0204C40.6254 25.0204 39.6706 24.2196 39.6706 22.9106C39.6706 21.6324 40.4868 20.8624 42.4734 20.616L44.9528 20.3234V19.7844C44.9528 18.6448 44.3522 18.075 43.151 18.075C41.996 18.075 41.4108 18.5986 41.38 19.6612H39.8246C39.84 17.8902 41.1028 16.9508 43.2126 16.9508ZM42.689 23.9116C44.0442 23.9116 44.9528 23.08 44.9528 21.8018V21.2782L42.7506 21.54C41.7496 21.6786 41.2414 22.079 41.2414 22.7412C41.2414 23.4958 41.7804 23.9116 42.689 23.9116ZM52.1612 16.9508C54.1786 16.9508 55.3798 18.5216 55.3798 21.001C55.3798 23.465 54.1786 25.0204 52.1612 25.0204C50.8214 25.0204 49.882 24.3736 49.4508 23.465H49.2968L49.3892 24.1734V24.8818H48.111V13.7938H49.7126V17.459L49.3892 17.9826L49.2968 18.5216H49.4354C49.882 17.5976 50.8214 16.9508 52.1612 16.9508ZM51.7146 23.8038C53.0236 23.8038 53.7628 22.695 53.7474 20.9856C53.7474 19.2454 53.0236 18.1674 51.7146 18.1674C50.4056 18.1674 49.6818 19.2608 49.6818 20.9856C49.6972 22.7258 50.421 23.8038 51.7146 23.8038ZM59.9578 16.9508C62.1754 16.9508 63.2842 17.921 63.2842 19.846V24.8818H62.006V24.1734L62.1292 23.465H61.9598C61.4362 24.4968 60.466 25.0204 59.0338 25.0204C57.3706 25.0204 56.4158 24.2196 56.4158 22.9106C56.4158 21.6324 57.232 20.8624 59.2186 20.616L61.698 20.3234V19.7844C61.698 18.6448 61.0974 18.075 59.8962 18.075C58.7412 18.075 58.156 18.5986 58.1252 19.6612H56.5698C56.5852 17.8902 57.848 16.9508 59.9578 16.9508ZM59.4342 23.9116C60.7894 23.9116 61.698 23.08 61.698 21.8018V21.2782L59.4958 21.54C58.4948 21.6786 57.9866 22.079 57.9866 22.7412C57.9866 23.4958 58.5256 23.9116 59.4342 23.9116ZM66.6425 24.8818H65.0563V13.7938H66.6425V24.8818ZM72.5584 16.9508C74.3294 16.9508 75.315 17.9056 75.315 19.692V24.8818H73.7288V20C73.7288 18.8142 73.1744 18.2136 72.0656 18.2136C70.8336 18.2136 70.0174 18.999 70.0174 20.3388V24.8818H68.4312V13.7938H70.0174V17.2896L69.7094 17.8748L69.6016 18.46H69.7556C70.1714 17.5822 71.157 16.9508 72.5584 16.9508ZM80.3898 16.9508C82.7768 16.9508 84.1012 18.46 84.1012 20.9856C84.1012 23.5112 82.7768 25.0204 80.3898 25.0204C78.0028 25.0204 76.6784 23.5112 76.6784 20.9856C76.6784 18.46 78.0336 16.9508 80.3898 16.9508ZM80.4052 23.8192C81.7758 23.8192 82.515 22.772 82.515 20.9856C82.515 19.1838 81.7758 18.152 80.4052 18.152C79.0038 18.152 78.2492 19.1992 78.2492 20.9856C78.2492 22.772 79.0038 23.8192 80.4052 23.8192ZM94.2933 17.459V13.7938H95.8795V24.8818H94.6013V24.1734L94.7091 23.465H94.5551C94.1085 24.389 93.1691 25.0204 91.8293 25.0204C89.8119 25.0204 88.6261 23.465 88.6261 21.001C88.6261 18.5216 89.8273 16.9508 91.8447 16.9508C93.1845 16.9508 94.1239 17.5976 94.5551 18.5216H94.7091L94.6013 17.9826L94.2933 17.459ZM92.2913 23.8038C93.5849 23.8038 94.3241 22.772 94.3241 20.9856C94.3241 19.153 93.5849 18.1674 92.2913 18.1674C90.9515 18.1674 90.2431 19.2146 90.2431 20.9856C90.2431 22.7566 90.9823 23.8038 92.2913 23.8038ZM104.325 20.8778V21.2166H98.7657C98.8273 22.9568 99.5357 23.8346 100.876 23.8346C101.907 23.8346 102.539 23.3572 102.754 22.4178H104.279C104.033 24.0348 102.785 25.0204 100.799 25.0204C98.4423 25.0204 97.1487 23.542 97.1487 21.0164C97.1487 18.4754 98.5193 16.9508 100.845 16.9508C103.109 16.9508 104.325 18.3676 104.325 20.8778ZM100.799 18.075C99.6281 18.075 98.9659 18.7988 98.8119 20.2464H102.754C102.631 18.7988 101.984 18.075 100.799 18.075ZM111.998 14.2558H114.385L117.912 24.6354V24.8818H116.295L115.571 22.7258H110.782L110.073 24.8818H108.472V24.6354L111.998 14.2558ZM112.938 16.2424L111.213 21.4322H115.14L113.4 16.2424L113.292 15.5494H113.046L112.938 16.2424ZM120.72 24.8818H119.133V13.7938H120.72V24.8818ZM127.667 21.6478V17.1048H129.254V24.8818H127.975V24.2042L128.083 23.5112H127.945C127.513 24.389 126.574 25.0204 125.203 25.0204C123.479 25.0204 122.508 24.0656 122.508 22.2946V17.1048H124.095V22.002C124.095 23.1878 124.634 23.773 125.696 23.773C126.882 23.773 127.667 22.9876 127.667 21.6478ZM134.948 16.9508C136.688 16.9508 137.689 17.921 137.689 19.692V24.8818H136.118V20C136.118 18.8142 135.564 18.2136 134.455 18.2136C133.208 18.2136 132.407 18.999 132.407 20.3542V24.8818H130.821V17.1048H132.099V17.767L132.007 18.4754H132.13C132.561 17.5976 133.516 16.9508 134.948 16.9508ZM142.779 16.9508C145.166 16.9508 146.491 18.46 146.491 20.9856C146.491 23.5112 145.166 25.0204 142.779 25.0204C140.392 25.0204 139.068 23.5112 139.068 20.9856C139.068 18.46 140.423 16.9508 142.779 16.9508ZM142.795 23.8192C144.165 23.8192 144.905 22.772 144.905 20.9856C144.905 19.1838 144.165 18.152 142.795 18.152C141.393 18.152 140.639 19.1992 140.639 20.9856C140.639 22.772 141.393 23.8192 142.795 23.8192Z" fill="white"></path></svg>