<svg xmlns="http://www.w3.org/2000/svg" width="80" height="42" viewBox="0 0 80 42" fill="none"><path d="M13.0524 37.4958C4.98483 37.4958 0.432739 32.7184 0.432739 24.2452V5.90162H7.23833V24.7409C7.23833 29.2029 9.31156 31.5916 13.0975 31.5916C16.8833 31.5916 18.9566 29.2029 18.9566 24.7409V5.90162H25.627V24.2452C25.627 32.7184 21.0298 37.4958 13.0524 37.4958Z" fill="#D4AF37"></path><path d="M40.2128 37.4057C32.4156 37.4057 28.0438 34.1606 27.503 27.986H34.2635C34.7593 31.1409 36.8325 32.7184 40.4832 32.7184C43.7733 32.7184 45.9367 31.1409 45.9367 28.617C45.9367 26.4536 44.5846 25.1466 41.2043 24.2452L35.7508 22.9832C30.5677 21.6762 27.9987 18.8368 27.9987 14.4649C27.9987 8.87625 32.5058 5.40585 40.2128 5.40585C47.5592 5.40585 51.7958 8.74104 52.2916 14.6452H45.5761C45.1705 11.6255 43.3226 10.0931 40.0325 10.0931C36.9226 10.0931 34.9846 11.5354 34.9846 13.879C34.9846 15.7269 36.2917 16.9889 38.9057 17.71L44.4493 19.017C50.2183 20.5043 53.1028 23.4339 53.1028 27.8959C53.1028 33.8451 48.3254 37.4057 40.2128 37.4057Z" fill="#D4AF37"></path><path d="M79.1012 27.1747C79.1012 32.0423 75.3153 35.1521 68.7802 35.8282L68.9154 41.9577H63.7774L63.9126 35.8733C57.4676 35.3775 53.9971 32.493 53.5014 27.3099H60.2619C60.7577 29.9691 62.7858 31.3212 66.3464 31.3212C69.7717 31.3212 71.9351 30.0141 71.9351 27.986C71.9351 26.1381 70.583 25.1015 67.2027 24.3353L61.614 23.1635C56.4309 21.9917 53.8169 19.3776 53.8169 15.3664C53.8169 10.7241 57.5577 7.61428 63.9126 7.02837L63.7323 0.85376H68.9154L68.7802 7.07344C74.5041 7.74949 77.8393 10.7241 78.2449 15.4114H71.5745C71.1238 12.8424 69.2759 11.5805 65.9858 11.5805C62.7858 11.5805 60.8478 12.7523 60.8478 14.7354C60.8478 16.2227 62.1548 17.3044 64.7689 17.9804L70.4027 19.1522C76.2167 20.4142 79.1012 23.0733 79.1012 27.1747Z" fill="#D4AF37"></path></svg>