<svg xmlns="http://www.w3.org/2000/svg" width="9" height="11" viewBox="0 0 9 11" fill="none"><g clip-path="url(#clip0_951_94)"><path d="M8.26612 6.48957C8.27468 6.96505 8.04163 7.31316 7.57666 7.32411C6.93348 7.33967 6.57762 7.60248 6.34228 8.20706C6.12864 8.75631 5.69567 8.87446 5.21242 8.54825C4.72918 8.22147 4.32476 8.20706 3.82152 8.52059C3.22289 8.89348 2.85446 8.76784 2.59228 8.09525C2.38436 7.56214 2.07533 7.34832 1.51783 7.34659C0.995172 7.34486 0.716421 6.99041 0.732986 6.46479C0.736984 6.33338 0.760404 6.19679 0.803245 6.07288C0.943191 5.66886 0.810099 5.38531 0.475941 5.14036C-0.00159154 4.78995 -0.127829 4.33003 0.133785 3.9312C0.241173 3.76752 0.390259 3.62229 0.546771 3.50414C0.835233 3.2857 0.923199 3.02117 0.809528 2.67997C0.779825 2.59006 0.755834 2.49612 0.745552 2.40218C0.677578 1.76071 0.843801 1.46217 1.61379 1.3348C1.7069 1.31924 1.80286 1.32615 1.89768 1.32154C2.17244 1.30829 2.35237 1.16881 2.44719 0.908307C2.49289 0.783242 2.54658 0.661058 2.60656 0.542332C2.89445 -0.0207505 3.30172 -0.143511 3.85123 0.165407C3.92548 0.20748 4.0026 0.246671 4.06943 0.299694C4.36817 0.535993 4.65663 0.495073 4.95709 0.295083C5.10446 0.197106 5.2684 0.111807 5.43634 0.0593606C5.84532 -0.0674339 6.08123 0.0265094 6.30229 0.389026C6.39083 0.534264 6.47308 0.688722 6.52621 0.849521C6.64902 1.22011 6.9192 1.33365 7.27278 1.33134C7.36646 1.33076 7.46185 1.34287 7.55324 1.36304C8.13131 1.49271 8.40035 1.83333 8.2347 2.39872C8.06733 2.97102 8.19871 3.33757 8.65682 3.70297C9.1315 4.08163 9.10694 4.69139 8.61684 5.05103C8.18158 5.3709 8.02906 5.71785 8.23698 6.22273C8.27183 6.30687 8.25755 6.41119 8.26497 6.48899L8.26612 6.48957ZM7.4767 4.35135C7.47556 2.69092 6.13093 1.3227 4.51269 1.33595C2.83733 1.34921 1.52069 2.67536 1.52011 4.35078C1.51897 6.02908 2.85275 7.37252 4.5104 7.36272C6.15778 7.35293 7.47784 6.01352 7.4767 4.35135Z" fill="#82B889"></path><path d="M1.79128 9.5314C1.39371 9.58615 1.04071 9.6507 0.684841 9.67606C0.553463 9.68528 0.352968 9.63917 0.299274 9.54869C0.249007 9.46396 0.318695 9.26397 0.394095 9.1562C0.648855 8.79138 0.929891 8.445 1.20064 8.0917C1.42399 7.80065 1.83926 7.8629 2.00777 8.19141C2.13572 8.44096 2.27852 8.69282 2.46302 8.9003C2.77776 9.2536 3.20103 9.3268 3.72254 9.21902C3.26729 9.81553 2.86001 10.3584 2.43675 10.8892C2.37962 10.9607 2.21911 11.023 2.14943 10.9918C2.05975 10.9521 1.97406 10.8207 1.95521 10.7158C1.8861 10.3342 1.84611 9.94694 1.79071 9.5314H1.79128Z" fill="#82B889"></path><path d="M5.30469 9.25481C6.28831 9.26288 6.64703 9.02082 7.03146 8.1275C7.12457 7.91137 7.59296 7.82492 7.73805 8.00935C8.05564 8.41163 8.36695 8.8191 8.66512 9.2358C8.72053 9.3136 8.75366 9.4865 8.70853 9.5401C8.63827 9.62367 8.48862 9.68995 8.37894 9.6813C7.99509 9.65134 7.61409 9.58621 7.20682 9.53146C7.1537 9.91242 7.11714 10.2709 7.04802 10.6236C7.02175 10.7585 6.94635 10.9469 6.84696 10.9838C6.75842 11.0167 6.56821 10.9043 6.48767 10.8034C6.09124 10.3095 5.71596 9.79773 5.30469 9.25481Z" fill="#82B889"></path><path d="M4.5547 6.79664C3.25634 6.8439 2.12705 5.77825 2.0705 4.4521C2.01395 3.11269 3.08383 1.9479 4.41075 1.9041C5.72054 1.86088 6.87553 2.92595 6.92522 4.22329C6.97892 5.61284 5.93474 6.7465 4.5547 6.79664ZM4.09887 5.0244C3.97206 4.85323 3.88581 4.68321 3.75158 4.57486C3.65618 4.49763 3.4734 4.44518 3.36829 4.48495C3.17522 4.55814 3.20378 4.74488 3.30432 4.89357C3.47454 5.14486 3.65104 5.39326 3.83954 5.63071C4.01091 5.84684 4.1737 5.84684 4.34792 5.62149C4.79404 5.04573 5.23216 4.46362 5.66513 3.87806C5.76966 3.73686 5.84221 3.55877 5.65028 3.42794C5.47778 3.30979 5.34069 3.37953 5.21902 3.54494C4.8603 4.03195 4.48958 4.51031 4.09887 5.0244Z" fill="#82B889"></path></g><defs><clipPath id="clip0_951_94"><rect width="9" height="11" fill="white"></rect></clipPath></defs></svg>