<svg xmlns="http://www.w3.org/2000/svg" width="97" height="48" viewBox="0 0 97 48" fill="none"><g style="mix-blend-mode:plus-lighter"><path d="M0.744183 15.4553C0.403926 14.7899 0.887184 14 1.63453 14H66.7632C67.1387 14 67.4826 14.2104 67.6535 14.5447L72.2558 23.5447C72.5961 24.2101 72.1128 25 71.3655 25H6.2368C5.86129 25 5.51742 24.7896 5.34645 24.4553L0.744183 15.4553Z" fill="#7D5ACB"></path></g><g style="mix-blend-mode:plus-lighter"><path d="M30.7442 36.4553C30.4039 35.7899 30.8872 35 31.6345 35H90.7632C91.1387 35 91.4826 35.2104 91.6535 35.5447L96.2558 44.5447C96.5961 45.2101 96.1128 46 95.3655 46H36.2368C35.8613 46 35.5174 45.7896 35.3465 45.4553L30.7442 36.4553Z" fill="#7D5ACB"></path></g><path d="M88.24 16.3868C88.2207 17.1708 88.2473 17.9552 88.3194 18.7362C87.6858 17.9698 86.9556 17.2877 86.1463 16.7064C85.8874 16.3746 85.0054 15.1821 84.5239 13.6889C85.9322 14.3346 87.1952 15.252 88.24 16.3868Z" fill="#F9F3FF"></path><path d="M80.1884 14.3581C78.4891 14.1104 76.7577 14.133 75.0614 14.426C74.9497 14.4449 74.8388 14.4656 74.728 14.4841C74.5883 14.5119 74.4504 14.5419 74.3132 14.5736C74.9373 14.0193 75.817 13.5481 77.0064 13.2055C79.4651 12.4904 81.7991 12.6442 83.8523 13.4098C84.0854 14.2632 84.4318 15.0809 84.8826 15.8425C84.9022 15.8751 84.921 15.908 84.9403 15.9396C83.4682 15.1309 81.8581 14.5951 80.1884 14.3581Z" fill="#F9F3FF"></path><path d="M80.3184 16.7703C79.6705 16.8984 79.031 17.0643 78.402 17.2654C76.6636 17.8214 75.0674 18.6358 73.8407 19.5757C73.5706 19.17 73.3693 18.7238 73.2449 18.253C72.96 17.265 73.0484 16.2406 73.6431 15.3434C74.1375 15.1861 74.6423 15.064 75.1532 14.9786C76.791 14.6971 78.4619 14.6758 80.102 14.9151C81.7039 15.1421 83.2494 15.6556 84.6611 16.4314C84.7177 16.4648 84.7701 16.4928 84.8248 16.5239C83.929 16.4385 83.0264 16.4358 82.1279 16.515C81.5208 16.5671 80.9164 16.6524 80.3184 16.7703Z" fill="#F9F3FF"></path><path d="M89.4273 21.5895C89.4272 21.5893 89.4271 21.5891 89.427 21.5889C88.4998 21.3584 87.3456 21.4609 86.6492 21.5626C85.4813 21.7314 84.2621 22.0785 83.3712 22.4888C82.3056 22.266 81.2247 22.1143 80.1364 22.0358C79.49 21.9596 78.8978 21.8706 78.3543 21.7789C79.5642 21.0039 80.8715 20.3921 82.2415 19.9589C84.497 19.2439 86.6163 19.1121 88.2601 19.5827C88.7186 20.2086 89.1098 20.8815 89.427 21.5889C89.4274 21.589 89.4278 21.5891 89.4282 21.5892L89.4273 21.5895Z" fill="#F9F3FF"></path><path d="M86.7264 22.1168C88.0216 21.9301 89.0943 21.9917 89.7142 22.2817L89.715 22.2814C89.9723 22.968 90.1714 23.6749 90.3086 24.3957C90.5443 25.5832 90.5781 26.8033 90.4091 28.0062C89.2957 25.1991 87.3545 23.5737 84.2946 22.7171C85.0837 22.4384 85.8989 22.2378 86.7264 22.1168Z" fill="#F9F3FF"></path><path d="M90.8632 24.2864C90.7231 23.5478 90.5221 22.8225 90.2607 22.1174L90.259 22.097C90.2682 21.3239 90.3576 20.553 90.5237 19.7967C90.8177 20.428 91.0621 21.0814 91.2548 21.7507C91.8006 23.6536 91.8677 26.082 90.9372 28.2714C91.147 26.9475 91.1224 25.5984 90.8632 24.2864Z" fill="#F9F3FF"></path><path d="M89.7603 20.9656C89.5345 20.5087 89.2797 20.0661 88.9966 19.6423L88.9586 19.38C88.8638 18.6007 88.8112 17.8173 88.8008 17.0327C89.3124 17.6645 89.7647 18.3402 90.1514 19.0541C89.9517 19.6758 89.8206 20.3173 89.7603 20.9656Z" fill="#F9F3FF"></path><path d="M85.5135 18.7611C84.3451 18.8388 83.1896 19.061 82.0746 19.4252C80.4745 19.9259 78.96 20.6676 77.5841 21.6239C76.0035 21.2753 74.9138 20.7839 74.1899 20.0102C75.3582 19.1138 76.895 18.3324 78.5745 17.795C79.7439 17.4189 80.9521 17.1754 82.1748 17.0698C83.4311 16.9563 84.6961 17.016 85.9327 17.2472C86.5791 17.7247 87.1704 18.2706 87.6971 18.8755C86.9769 18.7525 86.2443 18.7135 85.5135 18.7611Z" fill="#F9F3FF"></path><path d="M14.548 47V29.3502L17.1792 28.8146V47H14.548ZM10.3334 47.1863C7.32972 47.1863 4.62869 44.788 4.62869 40.9227C4.62869 36.9177 7.49271 34.3331 10.543 34.3331C12.6386 34.3331 14.8274 35.5672 14.8274 39.1298H14.548C14.548 36.0562 12.8016 34.7522 11.0553 34.7522C8.88979 34.7522 7.32972 36.9876 7.32972 40.9227C7.32972 43.647 8.35424 46.6973 11.1251 46.674C12.7551 46.6507 14.548 45.2536 14.548 42.1801L14.8274 42.1568C14.8274 45.9056 12.4291 47.1863 10.3334 47.1863ZM24.5821 47.1863C21.4153 47.1863 18.5513 44.9044 18.5513 40.9227C18.5513 36.9177 21.5783 34.3098 25.1409 34.3098C28.75 34.3331 30.3334 36.615 29.6349 38.5709H20.3675V38.2915H25.6764C26.7708 38.2915 27.4694 37.9655 27.4694 36.8246C27.4694 35.6138 26.7243 34.5892 25.1409 34.5892C22.6727 34.5892 21.2989 37.0109 21.2989 40.4337C21.2989 44.3688 23.0918 46.5576 25.886 46.5576C27.6091 46.5576 29.3321 45.4865 29.8444 43.0649L30.1005 43.1115C29.565 45.6961 27.5625 47.1863 24.5821 47.1863ZM35.8908 47V29.2105H38.5685V47H35.8908ZM37.1715 36.4986V36.2192H45.0184V36.4986H37.1715ZM37.1715 29.4899V29.2105H46.1827V29.4899H37.1715ZM57.2376 47.163C54.653 47 53.0464 46.0453 53.0464 43.6936V38.4545C53.0464 36.3123 52.0917 34.8687 49.8098 34.8221C47.6676 34.7988 46.3637 36.3123 46.3637 38.0587C46.3637 39.0599 46.7595 39.8283 47.2019 40.3406L47.0156 40.5268C46.5732 40.0612 46.0842 39.1763 46.0842 38.0587C46.0842 36.0096 47.6443 34.3331 50.648 34.3098C53.4422 34.3098 55.6775 35.7302 55.6775 38.9668V42.9485C55.6775 45.6961 56.0967 46.7206 57.2842 46.9301L57.2376 47.163ZM48.2497 47.163C46.5266 47.163 45.1994 46.2549 45.1994 44.5784C45.1994 42.5526 47.0622 40.62 53.0464 40.3639V40.6433C48.7387 40.6433 47.8306 42.669 47.8306 44.136C47.8306 45.4166 48.5524 46.3247 49.8331 46.3247C51.4164 46.3247 53.0464 44.6017 53.0464 41.7842H53.3025C53.3025 44.5318 51.8356 47.163 48.2497 47.163ZM66.9932 47V29.3502L69.6244 28.8146V47H66.9932ZM62.7787 47.1863C59.7749 47.1863 57.0739 44.788 57.0739 40.9227C57.0739 36.9177 59.9379 34.3331 62.9882 34.3331C65.0838 34.3331 67.2726 35.5672 67.2726 39.1298H66.9932C66.9932 36.0562 65.2468 34.7522 63.5005 34.7522C61.335 34.7522 59.7749 36.9876 59.7749 40.9227C59.7749 43.647 60.7995 46.6973 63.5703 46.674C65.2003 46.6507 66.9932 45.2536 66.9932 42.1801L67.2726 42.1568C67.2726 45.9056 64.8743 47.1863 62.7787 47.1863ZM83.1046 47.163C80.52 47 78.9133 46.0453 78.9133 43.6936V38.4545C78.9133 36.3123 77.9587 34.8687 75.6768 34.8221C73.5346 34.7988 72.2306 36.3123 72.2306 38.0587C72.2306 39.0599 72.6265 39.8283 73.0689 40.3406L72.8826 40.5268C72.4402 40.0612 71.9512 39.1763 71.9512 38.0587C71.9512 36.0096 73.5113 34.3331 76.515 34.3098C79.3092 34.3098 81.5445 35.7302 81.5445 38.9668V42.9485C81.5445 45.6961 81.9636 46.7206 83.1512 46.9301L83.1046 47.163ZM74.1167 47.163C72.3936 47.163 71.0664 46.2549 71.0664 44.5784C71.0664 42.5526 72.9292 40.62 78.9133 40.3639V40.6433C74.6057 40.6433 73.6976 42.669 73.6976 44.136C73.6976 45.4166 74.4194 46.3247 75.7 46.3247C77.2834 46.3247 78.9133 44.6017 78.9133 41.7842H79.1695C79.1695 44.5318 77.7025 47.163 74.1167 47.163ZM87.3883 47.163C84.7105 47.163 83.0107 45.4865 83.0107 42.9252H83.2901C83.2901 45.3002 84.8502 46.8836 87.3184 46.8836C89.74 46.8836 90.9042 45.4399 90.9042 44.0196C90.9042 40.4803 83.4764 42.4828 83.4764 37.8491C83.4764 35.963 84.7804 34.3098 87.4115 34.3098C89.7866 34.3098 90.8344 35.4741 90.8344 36.8246H90.555C90.555 35.6138 89.6236 34.5892 87.4115 34.5892C85.5022 34.5892 84.5941 35.5206 84.5941 36.5219C84.5941 39.5489 91.9288 37.9655 91.9288 42.4362C91.9288 44.9742 90.2057 47.163 87.3883 47.163ZM90.555 36.8246H90.8344C90.8344 37.3136 90.718 37.6395 90.555 37.8957L90.2988 37.756C90.4153 37.5697 90.555 37.267 90.555 36.8246Z" fill="white"></path><path d="M13.2686 26.1397C7.77337 26.1397 3.86153 22.3443 3.86153 17.0819C3.86153 11.7963 7.84322 8.04747 13.4083 8.04747C17.227 8.04747 19.9979 10.3992 19.9979 14.0782H19.7184C19.7184 10.7951 17.2968 8.39674 13.7575 8.39674C8.91432 8.39674 6.67899 12.4483 6.67899 17.0587C6.67899 21.8786 9.00746 25.6507 13.8507 25.6507C16.8777 25.6507 19.439 23.8811 20.4868 21.2732L20.743 21.3663C19.439 24.6728 16.3654 26.1397 13.2686 26.1397ZM19.9979 14.0782C19.9979 15.0329 19.765 16.0341 19.3692 16.7792L19.1363 16.6395C19.4856 15.941 19.7184 14.963 19.7184 14.0782H19.9979ZM27.6427 26.163C24.0103 26.163 21.0531 23.5784 21.0531 19.6433C21.0531 16.1971 23.9404 13.2865 27.6427 13.2865C31.345 13.2865 34.2323 16.1971 34.2323 19.6433C34.2323 23.5784 31.2984 26.163 27.6427 26.163ZM27.6427 25.8836C30.367 25.8836 31.4847 22.4142 31.4847 19.6433C31.4847 16.756 30.4369 13.566 27.6427 13.566C24.8718 13.566 23.824 16.756 23.824 19.6433C23.824 22.4142 24.9184 25.8836 27.6427 25.8836ZM35.6321 26V13.8919L38.2633 13.3564V26H35.6321ZM44.3173 26V17.2449C44.3173 15.0096 43.7585 13.8221 41.8258 13.8221C40.4055 13.8221 38.2633 15.0096 38.2633 17.6408L37.9839 17.6641C37.9839 14.7302 40.4287 13.3098 42.5942 13.3098C45.1788 13.3098 46.9485 14.5206 46.9485 17.9901V26H44.3173ZM53.9903 26.163C51.4522 25.9301 49.1936 24.9988 49.1936 21.4828V14.0316H47.6103V13.7522C49.5429 13.7522 51.3125 12.8441 51.5687 10.3992H51.8481V13.7522H54.8984V14.0316H51.8481V21.6458C51.8481 24.6961 52.3604 25.7206 54.0136 25.9301L53.9903 26.163ZM60.8153 26.163C57.1828 26.163 54.2257 23.5784 54.2257 19.6433C54.2257 16.1971 57.113 13.2865 60.8153 13.2865C64.5175 13.2865 67.4048 16.1971 67.4048 19.6433C67.4048 23.5784 64.471 26.163 60.8153 26.163ZM60.8153 25.8836C63.5396 25.8836 64.6572 22.4142 64.6572 19.6433C64.6572 16.756 63.6094 13.566 60.8153 13.566C58.0444 13.566 56.9966 16.756 56.9966 19.6433C56.9966 22.4142 58.0909 25.8836 60.8153 25.8836Z" fill="white"></path><path d="M12.7044 6H11.3859L10.1423 1.01081V0.831015H11.2286L12.0077 3.97735L12.0526 4.48676H12.2099L12.2624 3.97735L13.034 0.831015H14.2401L15.0192 3.97735L15.0716 4.48676H15.2289L15.2814 3.97735L16.0604 0.831015H17.1242V1.00331L15.8732 6H14.5397L13.7531 2.9885L13.6932 2.48659H13.5434L13.4834 2.9885L12.7044 6ZM19.5243 6.0824C18.0185 6.0824 17.1795 5.13101 17.1795 3.423C17.1795 1.7075 18.0185 0.748611 19.5243 0.748611C21.03 0.748611 21.8616 1.7075 21.8616 3.423C21.8616 5.13101 21.045 6.0824 19.5243 6.0824ZM19.5243 5.16847C20.2959 5.16847 20.6854 4.58415 20.6854 3.41551C20.6854 2.23938 20.2959 1.65506 19.5243 1.65506C18.7452 1.65506 18.3556 2.24687 18.3556 3.423C18.3556 4.58415 18.7452 5.16847 19.5243 5.16847ZM26.5196 4.71899V5.35575C26.5196 5.60296 26.5646 5.76028 26.647 5.84268V6H25.5083C25.4109 5.88763 25.3585 5.70035 25.3585 5.45314V4.81638C25.3585 4.29948 25.1262 4.05227 24.5045 4.05227H23.6055V6H22.4743V0.831015H24.8041C26.0027 0.831015 26.5721 1.34042 26.5721 2.18694C26.5721 2.77875 26.2724 3.22823 25.8005 3.38554L25.3884 3.35558V3.46795C26.1451 3.55035 26.5196 3.93241 26.5196 4.71899ZM23.6055 3.22073H24.5045C25.1262 3.22073 25.4109 2.91359 25.4109 2.43415C25.4109 1.91725 25.1113 1.66255 24.5045 1.66255H23.6055V3.22073ZM31.5246 1.0183L29.5095 3.423L31.5321 5.81272V6H30.2736L28.5431 4.01481L28.4682 3.77509H28.3408V6H27.2096V0.831015H28.3408V3.10087H28.4682L28.5431 2.86115L30.2511 0.831015H31.5246V1.0183ZM33.8552 6.06742C32.5592 6.06742 31.8326 5.52805 31.7427 4.50174H32.8664C32.9488 5.02613 33.2934 5.28833 33.9002 5.28833C34.447 5.28833 34.8066 5.02613 34.8066 4.60662C34.8066 4.24704 34.5819 4.02979 34.02 3.87997L33.1136 3.67021C32.2521 3.45296 31.8251 2.98101 31.8251 2.25436C31.8251 1.32544 32.5742 0.748611 33.8552 0.748611C35.0763 0.748611 35.7805 1.30297 35.8629 2.28432H34.7467C34.6793 1.78241 34.3721 1.5277 33.8253 1.5277C33.3084 1.5277 32.9862 1.76743 32.9862 2.15697C32.9862 2.46411 33.2035 2.67387 33.638 2.79373L34.5594 3.01098C35.5183 3.25819 35.9977 3.74512 35.9977 4.48676C35.9977 5.47561 35.2037 6.06742 33.8552 6.06742ZM39.6207 2.95854V0.831015H40.7444V6H39.6207V3.90244H37.6505V6H36.5193V0.831015H37.6505V2.95854H39.6207ZM43.7056 6.0824C42.1999 6.0824 41.3608 5.13101 41.3608 3.423C41.3608 1.7075 42.1999 0.748611 43.7056 0.748611C45.2114 0.748611 46.0429 1.7075 46.0429 3.423C46.0429 5.13101 45.2264 6.0824 43.7056 6.0824ZM43.7056 5.16847C44.4772 5.16847 44.8668 4.58415 44.8668 3.41551C44.8668 2.23938 44.4772 1.65506 43.7056 1.65506C42.9265 1.65506 42.537 2.24687 42.537 3.423C42.537 4.58415 42.9265 5.16847 43.7056 5.16847ZM46.6557 0.831015H48.5884C50.0043 0.831015 50.7159 1.46028 50.7159 2.71133C50.7159 3.96237 50.0043 4.59164 48.5884 4.59913H47.7868V6H46.6557V0.831015ZM47.7868 3.74512H48.4985C49.2027 3.74512 49.5548 3.40052 49.5548 2.71882C49.5548 2.02213 49.2027 1.67753 48.4985 1.67753H47.7868V3.74512ZM56.0199 3.94739H54.7839V3.23572H57.1361V6H56.3421V5.59547L56.4769 5.10105H56.3196C56.0499 5.75279 55.533 6.0824 54.7614 6.0824C54.0947 6.0824 53.5703 5.85017 53.1807 5.37822C52.7987 4.90627 52.6039 4.25453 52.6039 3.41551C52.6039 1.7075 53.4504 0.748611 54.9487 0.748611C56.2297 0.748611 57.0238 1.45279 57.1361 2.62143H55.9825C55.8851 2.01464 55.5105 1.65506 54.9487 1.65506C54.1921 1.65506 53.7726 2.28432 53.7726 3.43049C53.7726 4.56167 54.1846 5.17596 54.9637 5.17596C55.6229 5.17596 55.9675 4.72648 56.0199 3.94739ZM61.8636 4.71899V5.35575C61.8636 5.60296 61.9085 5.76028 61.9909 5.84268V6H60.8522C60.7548 5.88763 60.7024 5.70035 60.7024 5.45314V4.81638C60.7024 4.29948 60.4702 4.05227 59.8484 4.05227H58.9494V6H57.8183V0.831015H60.1481C61.3467 0.831015 61.916 1.34042 61.916 2.18694C61.916 2.77875 61.6163 3.22823 61.1444 3.38554L60.7324 3.35558V3.46795C61.489 3.55035 61.8636 3.93241 61.8636 4.71899ZM58.9494 3.22073H59.8484C60.4702 3.22073 60.7548 2.91359 60.7548 2.43415C60.7548 1.91725 60.4552 1.66255 59.8484 1.66255H58.9494V3.22073ZM63.8346 0.831015H65.3928L67.0334 5.82021V6H65.9546L65.6699 5.11603H63.5424L63.2652 6H62.2015V5.8277L63.8346 0.831015ZM64.4489 2.2169L63.8121 4.26202H65.4003L64.7485 2.2169L64.6736 1.7075H64.5238L64.4489 2.2169ZM66.6665 0.831015H70.6219V1.75244H69.1835V6H68.1198V1.75244H66.6665V0.831015ZM73.1561 6.0824C71.8151 6.0824 71.0585 5.28833 71.0585 3.87997V0.831015H72.1897V3.96237C72.1897 4.70401 72.5343 5.10105 73.1636 5.10105C73.7928 5.10105 74.1374 4.70401 74.1374 3.96237V0.831015H75.2461V3.87997C75.2461 5.28833 74.482 6.0824 73.1561 6.0824ZM77.167 6H76.0433V0.831015H77.167V6ZM77.6242 0.831015H81.5796V1.75244H80.1413V6H79.0775V1.75244H77.6242V0.831015ZM84.021 6.0824C82.5153 6.0824 81.6762 5.13101 81.6762 3.423C81.6762 1.7075 82.5153 0.748611 84.021 0.748611C85.5268 0.748611 86.3583 1.7075 86.3583 3.423C86.3583 5.13101 85.5417 6.0824 84.021 6.0824ZM84.021 5.16847C84.7926 5.16847 85.1822 4.58415 85.1822 3.41551C85.1822 2.23938 84.7926 1.65506 84.021 1.65506C83.2419 1.65506 82.8524 2.24687 82.8524 3.423C82.8524 4.58415 83.2419 5.16847 84.021 5.16847Z" fill="#EBE1FF"></path><path d="M87 4L92 4" stroke="#562FAB" stroke-width="0.5" stroke-linecap="round"></path><path d="M4 4L9 4" stroke="#562FAB" stroke-width="0.5" stroke-linecap="round"></path></svg>