<svg xmlns="http://www.w3.org/2000/svg" width="6" height="8" viewBox="0 0 6 8" fill="none"><path fill-rule="evenodd" clip-rule="evenodd" d="M2.21079 0.168302C1.9935 0.523857 2.40832 0.800401 3.02067 0.721387C3.81079 0.642376 3.77128 0.0892897 2.96142 0.0102763C2.62561 -0.0292289 2.2898 0.049783 2.21079 0.168302ZM3.29721 0.365832C3.29721 0.464598 3.11943 0.563364 2.90216 0.563364C2.68487 0.563364 2.50709 0.464598 2.50709 0.365832C2.50709 0.247313 2.68487 0.168302 2.90216 0.168302C3.11943 0.168302 3.29721 0.247313 3.29721 0.365832ZM1.5978 1.43257C0.0965727 2.08442 -0.49602 4.45479 0.471875 5.81775C1.75583 7.61528 4.7583 7.35849 5.58793 5.38319C6.6941 2.75602 4.20521 0.306638 1.5978 1.43257ZM4.46201 1.88689C5.23238 2.45972 5.70645 3.48689 5.58793 4.37578C5.17312 7.79305 0.294103 7.53627 0.254597 4.09923C0.215091 1.92639 2.72373 0.622687 4.46201 1.88689ZM2.3487 4.27691C2.30919 4.05964 2.56598 3.76334 3.04005 3.44728C4.08697 2.75594 4.20549 2.8152 3.63264 3.76334C3.11907 4.63247 2.46722 4.88927 2.3487 4.27691ZM2.66475 4.37568C2.84252 4.4942 3.05981 4.31643 3.37586 3.76334C3.57338 3.44728 3.49438 3.46705 2.92153 3.90161C2.645 4.09914 2.54623 4.31643 2.66475 4.37568Z" fill="#9382B8"></path></svg>