<?xml version="1.0" standalone="no"?>
<!DOCTYPE svg PUBLIC "-//W3C//DTD SVG 20010904//EN"
 "http://www.w3.org/TR/2001/REC-SVG-20010904/DTD/svg10.dtd">
<svg version="1.0" xmlns="http://www.w3.org/2000/svg"
 width="40.000000pt" height="40.000000pt" viewBox="0 0 40.000000 40.000000"
 preserveAspectRatio="xMidYMid meet">

<g transform="translate(0.000000,40.000000) scale(0.100000,-0.100000)"
fill="#000000" stroke="none">
<path d="M165 370 c-11 -18 10 -32 41 -28 40 4 38 32 -3 36 -17 2 -34 -2 -38
-8z m55 -10 c0 -5 -9 -10 -20 -10 -11 0 -20 5 -20 10 0 6 9 10 20 10 11 0 20
-4 20 -10z"/>
<path d="M134 306 c-76 -33 -106 -153 -57 -222 65 -91 217 -78 259 22 56 133
-70 257 -202 200z m145 -23 c39 -29 63 -81 57 -126 -21 -173 -268 -160 -270
14 -2 110 125 176 213 112z"/>
<path d="M207 204 c-24 -16 -37 -31 -35 -42 6 -31 39 -18 65 26 29 48 23 51
-30 16z m17 -16 c-16 -28 -27 -37 -36 -31 -6 3 -1 14 13 24 29 22 33 23 23 7z"/>
</g>
</svg>
