<svg xmlns="http://www.w3.org/2000/svg" width="10" height="12" viewBox="0 0 10 12" fill="none"><path fill-rule="evenodd" clip-rule="evenodd" d="M3.89625 1.18078C3.5624 1.73549 4.19975 2.16694 5.14061 2.04367C6.35462 1.9204 6.29392 1.05751 5.04956 0.934246C4.53361 0.872611 4.01765 0.99588 3.89625 1.18078ZM5.56552 1.48896C5.56552 1.64304 5.29236 1.79713 4.95851 1.79713C4.62466 1.79713 4.3515 1.64304 4.3515 1.48896C4.3515 1.30405 4.62466 1.18078 4.95851 1.18078C5.29236 1.18078 5.56552 1.30405 5.56552 1.48896ZM2.955 3.15315C0.648379 4.17012 -0.26213 7.86818 1.22504 9.99457C3.19781 12.7989 7.81105 12.3983 9.08577 9.3166C10.7854 5.2179 6.96125 1.39656 2.955 3.15315ZM7.3558 3.86194C8.53946 4.75564 9.26787 6.35814 9.08577 7.74492C8.44841 13.0763 0.951883 12.6757 0.891182 7.31347C0.830481 3.92358 4.68497 1.88964 7.3558 3.86194ZM4.10786 7.59117C4.04716 7.25218 4.44172 6.78992 5.17013 6.29684C6.77869 5.21824 6.96079 5.31069 6.08064 6.78992C5.29153 8.14588 4.28997 8.5465 4.10786 7.59117ZM4.59347 7.74525C4.86662 7.93016 5.20048 7.6528 5.68608 6.78992C5.98958 6.29684 5.86818 6.32766 4.98802 7.00564C4.56312 7.31381 4.41137 7.6528 4.59347 7.74525Z" fill="#6F6E77"></path></svg>