<svg xmlns="http://www.w3.org/2000/svg" width="44" height="44" viewBox="0 0 44 44" fill="none"><path d="M3.683 26.3962C3.3476 27.5857 2.94364 28.7546 2.4726 29.897C3.364 32.158 4.69812 34.2227 6.39895 35.9702C6.53609 33.501 5.91598 31.2474 5.72369 30.6128C4.86508 29.2992 4.17938 27.8824 3.683 26.3962ZM20.6927 40.2458C18.0394 39.7159 15.4874 38.7684 13.1352 37.4416C10.8202 36.1473 8.76161 34.4471 7.0593 32.4237C7.06973 32.4812 7.07868 32.5403 7.08911 32.5993C7.32016 33.9748 7.36637 35.3739 7.22625 36.7612C9.80506 39.0503 13.1411 40.5985 17.1509 40.9394C19.0888 41.1092 20.645 40.9144 21.8733 40.4524C21.6542 40.4214 21.435 40.3875 21.2144 40.3491C21.0415 40.3137 20.8671 40.2812 20.6927 40.2458ZM17.3969 34.177C16.3609 34.1165 15.3294 33.9984 14.3068 33.8198C13.3632 33.6545 12.4286 33.4376 11.5089 33.1704C10.1464 32.7779 8.82422 32.2628 7.55867 31.6296C7.62127 31.7064 7.68239 31.7772 7.74649 31.8584C9.37874 33.7992 11.3553 35.43 13.5764 36.6712C15.8466 37.9523 18.3092 38.8673 20.8701 39.3809C21.6676 39.5447 22.477 39.651 23.2909 39.6997C24.6697 38.7168 25.3778 37.2601 25.5179 35.6455C25.6014 34.8825 25.5582 34.1121 25.3912 33.3623C23.0613 34.0501 20.2604 34.3438 17.3969 34.177ZM40.3394 23.4238C40.2723 22.2032 40.077 20.9915 39.7565 19.8109C37.6115 18.1874 34.429 17.1808 30.7173 16.9565C28.4619 16.8163 26.1976 16.9757 23.9855 17.4303C24.7309 17.873 25.5492 18.3394 26.454 18.8176C28.0058 19.5496 29.5039 20.385 30.9424 21.3162C32.4807 21.2174 34.4647 21.3974 36.2729 21.8107C37.3506 22.0557 39.1021 22.5589 40.3319 23.4238H40.3394ZM3.66958 21.5716C3.73517 22.7921 3.92895 24.0038 4.24795 25.1845C6.39298 26.808 9.5755 27.8145 13.2872 28.0403C15.541 28.179 17.8038 28.0197 20.016 27.5651C19.2706 27.1223 18.4523 26.6559 17.5475 26.1778C15.9957 25.4457 14.4961 24.6104 13.0591 23.6791C11.5208 23.778 9.53675 23.5979 7.7286 23.1847C6.64937 22.9397 4.89787 22.4364 3.66809 21.5716H3.66958ZM3.63977 20.3909C4.38509 21.1687 5.92343 21.8667 7.92834 22.3257C9.2103 22.6165 10.5191 22.7833 11.8338 22.8202C7.82996 19.8271 5.90107 16.3366 5.85337 11.577C4.92619 13.2506 4.28671 15.0644 3.96175 16.9447C3.75604 18.0826 3.64871 19.2353 3.63828 20.3909H3.63977ZM2.74538 20.323C2.76029 19.1379 2.87507 17.9572 3.08674 16.7912C3.44748 14.7147 4.17342 12.7163 5.22879 10.8877C2.62762 13.5812 1.35462 17.1912 1.08034 20.2994C0.984937 21.393 0.974502 22.4925 1.04903 23.5876C1.71982 22.5693 2.28627 21.486 2.73644 20.354L2.74538 20.323ZM40.3587 24.603C39.6134 23.8252 38.0751 23.1271 36.0702 22.6681C34.7882 22.3774 33.4794 22.2106 32.1647 22.1737C36.1685 25.1668 38.0974 28.6572 38.1451 33.4169C39.0708 31.7462 39.7118 29.9353 40.0383 28.0566C40.244 26.9172 40.3528 25.7616 40.3617 24.6045H40.3587V24.603ZM3.20152 24.6798C3.02562 23.8961 2.9019 23.1006 2.82886 22.3006C2.37421 23.2201 1.8197 24.0894 1.17574 24.8908C1.33971 26.1601 1.62144 27.4101 2.01497 28.6292C2.44278 27.4692 2.80799 26.287 3.1091 25.0871L3.20152 24.6798ZM30.8619 7.55964C33.1768 8.85398 35.2354 10.5542 36.9377 12.5776C36.9288 12.52 36.9183 12.461 36.9079 12.402C36.6769 11.0265 36.6306 9.62733 36.7708 8.24001C34.1949 5.94946 30.8589 4.40865 26.8491 4.06034C24.9112 3.89062 23.355 4.08691 22.1267 4.54886C22.5173 4.60199 22.9108 4.6684 23.3073 4.74957C25.9606 5.28236 28.5126 6.22987 30.8648 7.55816H30.8619V7.55964ZM13.2306 28.9199C11.3896 28.824 9.56954 28.4964 7.81207 27.9488C6.71347 27.6049 5.66108 27.1327 4.67427 26.5438C5.10507 27.7319 5.66406 28.8698 6.3423 29.9383C8.02524 30.9788 9.8468 31.7831 11.7533 32.3277C13.6062 32.8649 15.5157 33.1911 17.4431 33.3003C20.2097 33.4612 22.9048 33.1823 25.1244 32.5255C24.4998 30.9773 23.1791 29.6372 21.0579 28.2292C18.5 28.8565 15.86 29.0897 13.2306 28.9199ZM30.768 16.0798C32.6089 16.1758 34.4305 16.5019 36.1879 17.051C37.2865 17.3948 38.3389 17.8671 39.3257 18.456C38.8949 17.2679 38.3359 16.13 37.6577 15.0615C35.9748 14.021 34.1532 13.2167 32.2467 12.6721C30.3938 12.1348 28.4858 11.8087 26.5584 11.6995C23.7903 11.5386 21.0952 11.8175 18.8756 12.4743C19.5002 14.0225 20.8254 15.364 22.9421 16.7706C25.4985 16.1418 28.1385 15.9072 30.768 16.0754V16.0798ZM41.1711 22.6932C41.6258 21.7752 42.1803 20.9089 42.8228 20.109C42.6633 18.8383 42.3845 17.5852 41.9925 16.3662C41.5647 17.5262 41.1995 18.7084 40.8984 19.9083L40.8029 20.3156C40.9774 21.0978 41.0996 21.8904 41.1711 22.6888V22.6932ZM40.317 18.6036C40.6524 17.414 41.0564 16.2451 41.5274 15.1028C40.636 12.8418 39.3019 10.777 37.601 9.0296C37.4639 11.4987 38.084 13.7524 38.2763 14.387C39.1349 15.6991 39.8206 17.1144 40.317 18.5992V18.6036ZM26.6106 10.8184C28.605 10.9305 30.5801 11.267 32.4986 11.822C33.8566 12.2145 35.1773 12.7311 36.4398 13.3628C36.3772 13.286 36.3161 13.2152 36.252 13.134C34.6183 11.1947 32.6432 9.56535 30.4221 8.32414C28.1519 7.04308 25.6893 6.12804 23.1284 5.61444C22.3309 5.44914 21.523 5.34288 20.7091 5.29565C19.3303 6.27858 18.6222 7.73526 18.4731 9.34987C18.3897 10.1129 18.4329 10.8833 18.5998 11.633C20.9327 10.9453 23.7396 10.6516 26.6106 10.8184ZM42.951 21.4151C42.2802 22.4335 41.7137 23.5168 41.2636 24.6488L41.2516 24.6798C41.2382 25.8619 41.1264 27.0412 40.9162 28.2041C40.5555 30.2807 39.8296 32.279 38.7742 34.1076C41.3724 31.4112 42.6499 27.8012 42.9197 24.693C43.0151 23.6024 43.0255 22.5073 42.951 21.4151Z" fill="#0B6754"></path></svg>