<svg xmlns="http://www.w3.org/2000/svg" width="23" height="20" viewBox="0 0 23 20" fill="none"><g clip-path="url(#clip0_438_1160)"><path d="M22 0H1C0.447715 0 0 0.447715 0 1C0 1.55228 0.447715 2 1 2H22C22.5523 2 23 1.55228 23 1C23 0.447715 22.5523 0 22 0Z" fill="#ABAAB3"></path><path d="M22 9H1C0.447715 9 0 9.44772 0 10C0 10.5523 0.447715 11 1 11H22C22.5523 11 23 10.5523 23 10C23 9.44772 22.5523 9 22 9Z" fill="#ABAAB3"></path><path d="M22 18H1C0.447715 18 0 18.4477 0 19C0 19.5523 0.447715 20 1 20H22C22.5523 20 23 19.5523 23 19C23 18.4477 22.5523 18 22 18Z" fill="#ABAAB3"></path></g><defs><clipPath id="clip0_438_1160"><rect width="23" height="20" fill="white"></rect></clipPath></defs></svg>