<svg xmlns="http://www.w3.org/2000/svg" width="11" height="13" viewBox="0 0 11 13" fill="none"><path d="M6.24075 0.242639C6.47128 0.110099 6.76353 0.13349 6.96524 0.301129C7.17107 0.464862 7.23694 0.737771 7.12991 0.971674C6.40952 2.57401 6.59889 3.33812 6.77589 3.65C6.96524 3.9775 7.26988 4.06325 7.39337 4.08276C7.72681 4.14122 7.97792 3.51746 7.98204 3.51356C8.06025 3.29524 8.2702 3.14319 8.51306 3.1237C8.76007 3.10811 8.98647 3.22117 9.10584 3.4239C10.1967 5.3069 10.4849 7.07297 9.95797 8.67918C9.18818 11.0339 6.93644 12.1333 6.84175 12.1801C6.75532 12.223 6.6565 12.2425 6.56595 12.2425C6.41364 12.2425 6.26955 12.1918 6.15429 12.0944C5.96493 11.9345 5.89495 11.6811 5.98141 11.455C6.17075 10.9677 6.50419 9.55637 5.81262 8.86631C5.38863 8.44528 5.09223 8.0593 4.89052 7.72793C3.23567 10.1918 4.12073 10.9638 4.13719 10.9832C4.14131 10.9832 4.14131 10.9871 4.14543 10.9871C4.42535 11.1704 4.49123 11.533 4.30186 11.7981C4.10837 12.0632 3.72965 12.1333 3.44561 11.954C3.44561 11.9501 3.44149 11.9501 3.43739 11.9462C1.43262 10.6168 0.444664 9.07685 0.502304 7.36147C0.625795 3.53695 6.01023 0.375202 6.24075 0.242639Z" fill="white"></path></svg>