<svg xmlns="http://www.w3.org/2000/svg" width="15" height="15" viewBox="0 0 15 15" fill="none"><g clip-path="url(#clip0_438_1158)"><path fill-rule="evenodd" clip-rule="evenodd" d="M6.08481 7.49896L0.707102 12.8767C0.31658 13.2672 0.316582 13.9004 0.707106 14.2909V14.2909C1.09763 14.6814 1.73079 14.6814 2.12131 14.2909L7.49902 8.91317L12.8767 14.2909C13.2672 14.6814 13.9004 14.6814 14.2909 14.2909V14.2909C14.6814 13.9004 14.6814 13.2672 14.2909 12.8767L8.91324 7.49896L14.2909 2.12131C14.6814 1.73079 14.6814 1.09763 14.2909 0.707106V0.707106C13.9004 0.316582 13.2672 0.316581 12.8767 0.707102L7.49902 6.08475L2.12139 0.707106C1.73086 0.316582 1.0977 0.316581 0.707173 0.707104V0.707104C0.316648 1.09763 0.316648 1.73079 0.707172 2.12132L6.08481 7.49896Z" fill="#ABAAB3"></path></g><defs><clipPath id="clip0_438_1158"><rect width="15" height="15" fill="white"></rect></clipPath></defs></svg>