<svg xmlns="http://www.w3.org/2000/svg" id="Camada_2" data-name="Camada 2" viewBox="0 0 39.54 47.43"><defs><style>      .cls-1 {        fill: #ee7844;        stroke-width: 0px;      }    </style></defs><g id="Camada_1-2" data-name="Camada 1"><g><path class="cls-1" d="m14.92,1.14c-1.47,2.4,1.33,4.27,5.47,3.73,5.33-.53,5.07-4.27-.4-4.8-2.27-.27-4.53.27-5.07,1.07Zm7.33,1.33c0,.67-1.2,1.33-2.67,1.33s-2.67-.67-2.67-1.33c0-.8,1.2-1.33,2.67-1.33s2.67.53,2.67,1.33Z"></path><path class="cls-1" d="m10.79,9.67C.65,14.07-3.35,30.07,3.19,39.27c8.67,12.13,28.93,10.4,34.53-2.93C45.19,18.6,28.39,2.07,10.79,9.67Zm19.33,3.07c5.2,3.87,8.4,10.8,7.6,16.8-2.8,23.07-35.73,21.33-36-1.87-.27-14.67,16.67-23.47,28.4-14.93Z"></path><path class="cls-1" d="m20.52,23.27c-3.2,2.13-4.93,4.13-4.67,5.6.8,4.13,5.2,2.4,8.67-3.47,3.87-6.4,3.07-6.8-4-2.13Zm2.27,2.13c-2.13,3.73-3.6,4.93-4.8,4.13-.8-.4-.13-1.87,1.73-3.2,3.87-2.93,4.4-3.07,3.07-.93Z"></path></g></g></svg>